<svg width="71" height="70" viewBox="0 0 71 70" fill="none" xmlns="http://www.w3.org/2000/svg">
<g clip-path="url(#clip0_192_3852)">
<path d="M1.68734 51.7467C1.92731 51.5147 1.94331 50.3389 1.94331 50.3389C1.94331 50.3389 1.97531 51.5707 2.12729 51.7067C2.27927 51.8347 3.16718 52.0027 3.16718 52.0027C3.16718 52.0027 2.31927 52.0347 2.15929 52.1787C2.0473 52.2747 1.94331 53.4825 1.94331 53.4825C1.94331 53.4825 1.85532 52.4107 1.68734 52.2587C1.51935 52.1067 0.775429 52.0027 0.775429 52.0027C0.775429 52.0027 1.49536 51.9147 1.67934 51.7387L1.68734 51.7467Z" fill="url(#paint0_linear_192_3852)"/>
<path d="M21.1735 1.92788C21.3655 1.74389 21.3815 0.791992 21.3815 0.791992C21.3815 0.791992 21.4055 1.79189 21.5334 1.89588C21.6534 1.99987 22.3734 2.13585 22.3734 2.13585C22.3734 2.13585 21.6854 2.15985 21.5574 2.27984C21.4695 2.35983 21.3815 3.33573 21.3815 3.33573C21.3815 3.33573 21.3095 2.47182 21.1815 2.34383C21.0455 2.21585 20.4456 2.14385 20.4456 2.14385C20.4456 2.14385 21.0295 2.07186 21.1735 1.93587V1.92788Z" fill="url(#paint1_linear_192_3852)"/>
<path style="mix-blend-mode:color-dodge" opacity="0.6" d="M6.2949 51.9148C6.2949 54.2985 4.3591 56.2343 1.97534 56.2343C-0.408414 56.2343 -2.34422 54.2985 -2.34422 51.9148C-2.34422 49.531 -0.408414 47.5952 1.97534 47.5952C4.3591 47.5952 6.2949 49.531 6.2949 51.9148Z" fill="url(#paint2_radial_192_3852)"/>
<path style="mix-blend-mode:color-dodge" opacity="0.6" d="M23.4692 2.06354C23.4692 3.19943 22.5493 4.12733 21.4054 4.12733C20.2615 4.12733 19.3416 3.20743 19.3416 2.06354C19.3416 0.919662 20.2615 -0.000244141 21.4054 -0.000244141C22.5493 -0.000244141 23.4692 0.919662 23.4692 2.06354Z" fill="url(#paint3_radial_192_3852)"/>
<path d="M51.9383 4.6476C52.2503 4.35163 52.2662 2.83179 52.2662 2.83179C52.2662 2.83179 52.3142 4.42362 52.5062 4.59961C52.6982 4.76759 53.8501 4.98357 53.8501 4.98357C53.8501 4.98357 52.7542 5.02356 52.5462 5.20754C52.4022 5.33553 52.2662 6.88737 52.2662 6.88737C52.2662 6.88737 52.1543 5.50351 51.9383 5.30353C51.7223 5.10355 50.7624 4.97557 50.7624 4.97557C50.7624 4.97557 51.6903 4.86358 51.9303 4.6396L51.9383 4.6476Z" fill="url(#paint4_linear_192_3852)"/>
<path style="mix-blend-mode:color-dodge" opacity="0.6" d="M55.602 4.86353C55.602 6.67935 54.1301 8.15919 52.3063 8.15919C50.4825 8.15919 49.0107 6.68735 49.0107 4.86353C49.0107 3.03972 50.4825 1.56787 52.3063 1.56787C54.1301 1.56787 55.602 3.03972 55.602 4.86353Z" fill="url(#paint5_radial_192_3852)"/>
<path d="M69.4486 53.4904C69.7606 53.1944 69.7766 51.6746 69.7766 51.6746C69.7766 51.6746 69.8246 53.2664 70.0166 53.4424C70.2086 53.6104 71.3604 53.8263 71.3604 53.8263C71.3604 53.8263 70.2645 53.8663 70.0566 54.0503C69.9126 54.1783 69.7766 55.7301 69.7766 55.7301C69.7766 55.7301 69.6646 54.3463 69.4486 54.1463C69.2327 53.9463 68.2728 53.8183 68.2728 53.8183C68.2728 53.8183 69.2007 53.7064 69.4406 53.4824L69.4486 53.4904Z" fill="url(#paint6_linear_192_3852)"/>
<path style="mix-blend-mode:color-dodge" opacity="0.6" d="M73.1121 53.7063C73.1121 55.5221 71.6403 57.002 69.8164 57.002C67.9926 57.002 66.5208 55.5301 66.5208 53.7063C66.5208 51.8825 67.9926 50.4106 69.8164 50.4106C71.6403 50.4106 73.1121 51.8825 73.1121 53.7063Z" fill="url(#paint7_radial_192_3852)"/>
<path d="M71.2564 59.9218C71.4084 59.7778 71.4164 59.0259 71.4164 59.0259C71.4164 59.0259 71.4404 59.8098 71.5363 59.8978C71.6323 59.9778 72.2003 60.0898 72.2003 60.0898C72.2003 60.0898 71.6563 60.1138 71.5603 60.2018C71.4883 60.2658 71.4244 61.0337 71.4244 61.0337C71.4244 61.0337 71.3684 60.3537 71.2644 60.2498C71.1604 60.1538 70.6884 60.0898 70.6884 60.0898C70.6884 60.0898 71.1444 60.0338 71.2644 59.9218H71.2564Z" fill="url(#paint8_linear_192_3852)"/>
<path style="mix-blend-mode:color-dodge" opacity="0.6" d="M73.0722 60.0254C73.0722 60.9214 72.3443 61.6493 71.4484 61.6493C70.5524 61.6493 69.8245 60.9214 69.8245 60.0254C69.8245 59.1295 70.5524 58.4016 71.4484 58.4016C72.3443 58.4016 73.0722 59.1295 73.0722 60.0254Z" fill="url(#paint9_radial_192_3852)"/>
<path d="M11.2546 58.9941C11.2546 58.9941 1.87961 27.2694 3.74342 19.7342C5.60723 12.1989 9.92678 8.00736 17.798 20.838C26.973 35.7885 24.3173 60.202 24.3173 60.202L11.2626 58.9941H11.2546Z" fill="url(#paint10_linear_192_3852)"/>
<path d="M55.9781 58.9298L24.3174 60.2017C24.3174 60.2017 25.4213 44.1473 21.9496 31.3886C18.478 18.6299 12.2146 13.6384 9.92686 12.7905C9.92686 12.7905 24.9093 15.4143 34.0524 16.0942C43.1954 16.7741 54.9622 15.6702 58.6899 14.9103C58.6899 14.9103 63.2574 38.4439 55.9781 58.9298Z" fill="url(#paint11_linear_192_3852)"/>
<path style="mix-blend-mode:screen" opacity="0.3" d="M29.5647 19.5657C30.9725 20.8696 34.7321 21.8935 37.3959 21.9815C40.0596 22.0695 48.7387 18.9258 47.8268 17.7099C46.9149 16.486 37.2759 17.158 32.7003 16.694C28.1248 16.2301 26.813 17.03 29.5647 19.5737V19.5657Z" fill="url(#paint12_linear_192_3852)"/>
<path style="mix-blend-mode:screen" opacity="0.3" d="M32.0204 24.0374C30.8286 25.3973 32.8284 30.7407 33.5403 30.8207C34.2602 30.9087 42.9393 25.0213 40.9875 24.4694C39.0437 23.9174 33.0283 22.8775 32.0124 24.0294L32.0204 24.0374Z" fill="url(#paint13_linear_192_3852)"/>
<path style="mix-blend-mode:soft-light" opacity="0.5" d="M31.7565 58.8016C31.5645 45.595 41.4275 50.0345 46.979 50.4105C52.5304 50.7865 51.0425 57.3938 50.2906 58.4097C49.5387 59.4256 31.7725 60.1295 31.7565 58.7936V58.8016Z" fill="url(#paint14_linear_192_3852)"/>
<path d="M24.3172 11.6947C24.3172 11.6947 16.614 8.87095 5.01521 9.07093C5.01521 9.07093 15.0862 12.3586 19.2378 23.8774C23.3893 35.3962 24.1173 59.7617 24.1173 59.7617L31.7565 58.8098C31.7565 58.8098 33.0123 45.7712 31.7565 32.5245C30.4846 19.0619 24.3092 11.6947 24.3092 11.6947H24.3172Z" fill="url(#paint15_linear_192_3852)"/>
<path d="M45.2272 12.6065C45.2272 12.6065 55.9781 11.1026 63.0894 11.3506C63.0894 11.3506 67.4889 14.8223 67.7449 26.589C68.0009 38.3558 58.7298 57.4499 58.7298 57.4499L52.4345 57.8818C52.4345 57.8818 57.3699 45.5391 56.49 31.8365C55.3861 14.7343 45.2272 12.5985 45.2272 12.5985V12.6065Z" fill="url(#paint16_linear_192_3852)"/>
<path d="M12.4624 20.3254C7.51094 19.7575 9.15877 28.3886 9.92669 32.7722C10.6866 37.1557 15.8301 60.2014 15.8301 60.2014H12.8464C12.8464 60.2014 7.95889 41.9152 6.11108 32.0762C4.26327 22.2372 5.15918 18.5496 7.38295 17.5977C9.60672 16.6458 12.4624 20.3254 12.4624 20.3254Z" fill="url(#paint17_linear_192_3852)"/>
<path d="M20.2616 59.3614L20.9816 58.8575L20.9496 58.5455C20.8456 57.5456 20.4536 54.162 19.5817 48.7625C19.3417 47.2507 19.0618 45.5869 18.7338 43.771C18.6778 43.4271 18.6138 43.0751 18.5498 42.7231C18.3018 41.3473 18.0299 39.8834 17.7339 38.3556C17.6539 37.9236 17.5659 37.4997 17.4779 37.0837C17.4539 36.9877 17.4379 36.8997 17.4219 36.8118L17.3579 36.4918C14.6462 23.7571 10.8706 18.6056 8.08688 18.6056C5.30316 18.6056 5.59113 25.3809 7.57493 35.8998C7.61493 36.0918 7.64692 36.2918 7.68692 36.4918C7.69492 36.5478 7.71092 36.6038 7.71891 36.6518C8.05488 38.3716 8.47084 40.2594 8.92679 42.1872C8.99878 42.4912 9.07078 42.8031 9.14277 43.1071C9.54273 44.7949 9.96668 46.4988 10.3826 48.1226C11.6545 53.1141 12.8384 57.3536 13.0864 58.2256C13.1184 58.3295 13.1344 58.3855 13.1344 58.3855L15.3101 58.8495L10.3746 58.3455C10.3026 58.1456 10.2307 57.9536 10.1587 57.7536L10.1347 57.6976C8.97479 54.5379 7.8789 51.2263 6.879 47.8826C6.37505 46.2108 5.9031 44.531 5.45515 42.8591C5.37515 42.5712 5.30316 42.2752 5.22317 41.9872C4.73522 40.1394 4.28727 38.2996 3.88731 36.4918C3.88731 36.4598 3.87131 36.4358 3.86331 36.4038L3.82331 36.2198C0.64764 22.0213 0.0876977 9.79053 5.01519 9.0706C10.5426 8.25468 19.4057 17.7897 21.9495 31.3963C22.2694 33.1241 22.5494 34.9559 22.7814 36.8198C22.7974 36.9157 22.8054 37.0117 22.8214 37.1077C23.0453 38.9555 23.2373 40.8353 23.3893 42.6832C23.4213 43.0351 23.4453 43.3871 23.4773 43.731C23.6133 45.4429 23.7173 47.1147 23.7973 48.6905C23.7973 48.6905 23.7973 48.6985 23.7973 48.7065C24.0772 53.93 24.1172 58.1296 24.1172 59.3774C24.1172 59.6254 24.1172 59.7614 24.1172 59.7614L20.2616 59.3694V59.3614Z" fill="url(#paint18_linear_192_3852)"/>
<path d="M45.2271 12.6064C42.7634 12.6064 40.8276 16.3021 40.8276 16.3021C40.8276 16.3021 44.5472 16.2781 45.947 16.2141C45.947 16.2141 50.9705 16.4461 53.3543 27.2209C55.81 38.3078 50.8585 57.6578 50.8585 57.6578L52.4344 57.8818C52.4344 57.8818 57.1459 47.4749 57.1459 32.4444C57.1459 21.0216 50.6906 12.6064 45.2351 12.6064H45.2271Z" fill="url(#paint19_linear_192_3852)"/>
<path d="M3.74351 41.5955L4.03948 42.8673L20.2218 44.2912L66.937 41.9794L67.257 40.2036L19.3819 41.3715L3.74351 41.5955Z" fill="url(#paint20_linear_192_3852)"/>
<path d="M69.0167 35.9082L67.7528 40.7637L23.3894 42.6835L22.8934 42.7075L20.1737 42.8275L18.5579 42.7395L8.92684 42.2036L5.22322 41.9956L2.81547 41.8596C1.92756 39.3399 1.92756 36.4122 1.92756 36.4122L3.87936 36.5001L7.71897 36.6681L17.478 37.1001L19.6537 37.1961L22.8134 37.1161L69.0167 35.9162V35.9082Z" fill="url(#paint21_linear_192_3852)"/>
<path d="M67.6248 41.7874L66.249 46.2189L23.7973 48.6826L20.8456 48.8506L19.5897 48.7626L10.3827 48.1227L6.87904 47.8827L5.02323 47.7547C3.63137 45.115 2.82346 42.6753 2.82346 42.6753L5.45519 42.8592L9.15081 43.1152L18.7498 43.7791L20.1737 43.8751L23.4773 43.7312L67.6328 41.7874H67.6248Z" fill="url(#paint22_linear_192_3852)"/>
<path d="M19.6538 37.1878L20.1657 42.8192L67.6249 41.2354L69.0167 35.8999L19.6538 37.1878Z" fill="url(#paint23_linear_192_3852)"/>
<path d="M20.8457 48.8586L20.1658 43.8751L67.6249 41.7874L66.2491 46.2189C66.2491 46.2189 21.2617 48.8826 20.8457 48.8586Z" fill="url(#paint24_linear_192_3852)"/>
<path d="M2.81541 42.6754L3.8953 42.2435L3.94329 42.4595L21.3495 43.0914L67.0408 41.4116L67.0728 41.2356L67.6248 41.7875L20.1656 43.8753L2.81541 42.6754Z" fill="url(#paint25_linear_192_3852)"/>
<path d="M64.401 57.8818L61.4813 64.8571L24.6691 67.4008L8.23079 65.0251L6.43098 57.6578L9.79863 56.8179L10.1266 57.6978L10.1506 57.7538L13.0863 58.2338L15.3101 57.8818L20.9495 58.5457L20.9815 58.8577L24.1172 59.3777L31.7564 58.8017L31.7964 58.3298L50.8584 57.6578L52.4343 57.8818L58.7296 57.4498L59.2016 56.45L64.401 57.8818Z" fill="url(#paint26_linear_192_3852)"/>
<path d="M64.4011 57.8816C64.4011 57.8816 59.1056 59.7774 47.6828 60.2014C36.252 60.6253 24.6772 60.1854 24.6772 60.1854C10.3746 58.3456 6.43903 57.6576 6.43903 57.6576L9.80669 56.8097L10.1587 57.7456L13.0304 58.2096C13.0864 58.2176 13.1343 58.2176 13.1903 58.2096L15.3261 57.8736L20.9655 58.5375L20.9975 58.8495L24.1252 59.3695L31.7644 58.8015L31.8044 58.3296L50.8585 57.6656L52.4343 57.8896L58.7297 57.4577L59.2016 56.4578L64.4011 57.8896V57.8816Z" fill="url(#paint27_linear_192_3852)"/>
<path style="mix-blend-mode:multiply" opacity="0.5" d="M31.7964 58.3299C35.9959 57.0741 50.8504 57.666 50.8504 57.666C50.8504 57.666 47.3948 58.4739 41.0354 58.6419C34.6761 58.8099 31.7964 58.3379 31.7964 58.3379V58.3299Z" fill="url(#paint28_linear_192_3852)"/>
<path d="M24.6692 60.1858V67.393L61.4734 64.8493L64.3931 57.874C64.3931 57.874 56.6499 59.1299 45.723 59.8738C37.7398 60.4178 24.6612 60.1778 24.6612 60.1778L24.6692 60.1858Z" fill="url(#paint29_linear_192_3852)"/>
<g style="mix-blend-mode:soft-light" opacity="0.5">
<path d="M24.6692 67.4008C28.2049 65.3691 44.2512 60.7295 53.0103 60.5775C61.7694 60.4256 61.4735 64.8651 61.4735 64.8651L24.6692 67.4088V67.4008Z" fill="#594275"/>
</g>
<path d="M69.0166 35.9078L22.8134 37.1077L19.6537 37.1877L17.4779 37.0917L7.71891 36.6598L3.87931 36.4918L1.91951 36.4038L3.81532 36.2198L3.85531 36.4038L7.68692 36.4998L10.6306 36.3558L17.3579 36.4998L17.4219 36.8117H22.7734L32.0684 36.5158L32.0444 36.2198L54.0262 35.5239L57.0579 35.9078L66.6409 35.5239L66.7049 35.2439L69.0166 35.9078Z" fill="url(#paint30_linear_192_3852)"/>
<path d="M29.8206 60.2014C29.8206 60.2014 32.0204 59.7374 39.4676 59.4015C46.9149 59.0655 62.0653 58.2256 62.0653 58.2256C62.0653 58.2256 59.4736 59.7614 48.9787 60.3854C40.5235 60.8893 29.8126 60.2014 29.8126 60.2014H29.8206Z" fill="#E6ADFF"/>
<path d="M28.3408 15.5263C28.3408 15.5263 28.9408 14.0464 29.4127 14.1424C29.8847 14.2304 35.2361 14.8223 38.1558 14.7983C38.1558 14.7983 40.1956 15.1183 40.5556 15.8222C42.5234 19.7018 45.5071 27.789 46.035 31.5646C47.4989 42.0596 47.1469 53.0904 47.1309 54.0663C47.1149 55.5382 47.0829 57.402 47.4029 57.49C47.7308 57.578 51.8744 58.2339 52.2984 59.4018C52.6423 60.3537 53.0103 64.5532 53.0743 65.9531L52.9463 66.1851L48.9707 62.2335L45.2271 66.849L44.7791 66.977C44.7791 66.977 44.2752 60.7856 43.8592 60.1457C43.0753 58.9138 40.7555 58.7778 39.9396 58.0499C39.1237 57.322 39.2037 43.4434 38.5398 35.0043C37.8758 26.5651 34.1882 16.8701 31.3325 15.8622L28.3408 15.5263Z" fill="url(#paint31_linear_192_3852)"/>
<g style="mix-blend-mode:multiply" opacity="0.5">
<path d="M29.4129 14.142C32.2126 14.4779 32.9325 14.7419 33.6684 15.5418C34.4044 16.3417 38.9639 28.3005 39.5558 34.3879C40.1478 40.4753 39.6358 55.2737 40.6437 57.0415C41.6516 58.8094 43.8354 58.0094 44.5313 59.9533C45.2272 61.897 45.2192 66.8485 45.2192 66.8485L44.7713 66.9765L44.6913 66.0166L43.0675 66.1286C43.0675 66.1286 43.0995 61.4411 42.7235 60.5692C42.3475 59.6973 38.156 58.5694 38.004 58.0974C37.852 57.6255 38.004 53.2819 38.004 53.2819C38.004 53.2819 37.748 34.7158 37.3161 31.7961C36.0762 23.517 32.5565 17.5576 32.0206 16.6297C31.8926 16.4057 29.7488 15.7978 29.7488 15.7978L28.333 15.5258C28.333 15.5258 28.9169 14.078 29.4049 14.142H29.4129Z" fill="#75125A"/>
</g>
<path style="mix-blend-mode:multiply" opacity="0.5" d="M52.9543 66.1774L53.0743 65.9454L49.1707 62.0898L48.9707 62.2338L48.4987 62.8178L51.4744 65.5455L52.0424 65.5055L52.2504 65.4815L52.9543 66.1774Z" fill="url(#paint32_linear_192_3852)"/>
<g style="mix-blend-mode:screen" opacity="0.76">
<path d="M41.0596 57.482C41.4916 57.9219 44.6513 59.2578 45.2912 59.2578C45.9311 59.2578 52.0585 59.2818 51.7945 58.9698C51.5306 58.6578 48.0429 57.6499 46.955 57.5059C45.8671 57.354 40.7477 57.154 41.0676 57.482H41.0596Z" fill="#FF4A59"/>
</g>
<path opacity="0.55" d="M38.3319 24.6453C38.0839 26.3172 39.2198 32.4925 39.7718 32.6925C40.3237 32.8925 45.5072 32.5725 45.6752 31.5406C45.8432 30.5087 43.1554 22.4855 42.5235 22.3576C41.8916 22.2296 38.4999 23.5014 38.3319 24.6453Z" fill="#A20074"/>
<path opacity="0.23" d="M45.4753 59.85C45.3153 60.4819 45.4353 65.7534 45.6752 65.6254C45.9152 65.4974 49.3469 60.5859 48.8349 60.138C48.323 59.69 45.6432 59.1701 45.4673 59.85H45.4753Z" fill="#A20074"/>
<path opacity="0.23" d="M49.507 59.5937C49.203 60.0497 51.1948 63.7853 51.7947 63.8493C52.3947 63.9133 52.6266 59.8097 51.7947 59.5937C50.9628 59.3778 49.7629 59.2098 49.507 59.5937Z" fill="#A20074"/>
<path opacity="0.23" d="M40.8197 52.7706C39.8838 53.6745 40.8197 56.1862 41.2197 56.4502C41.6276 56.7062 46.4191 56.9221 46.6111 56.4502C46.8031 55.9782 46.8031 53.3465 46.1072 52.9945C45.4112 52.6426 41.2517 52.3626 40.8197 52.7706Z" fill="#A20074"/>
<g style="mix-blend-mode:screen" opacity="0.21">
<path d="M34.3323 15.8226C35.3402 16.2065 40.8756 16.7425 40.5237 16.2705C40.1717 15.7906 39.8517 15.1666 38.6199 14.9827C37.388 14.7907 32.5885 14.3427 32.9964 14.7347C33.3964 15.1267 33.9803 15.6946 34.3403 15.8306L34.3323 15.8226Z" fill="#FF4A59"/>
</g>
<path style="mix-blend-mode:multiply" opacity="0.5" d="M40.8195 16.3022C40.8195 16.3022 42.4514 12.9506 45.2191 12.6066C47.9868 12.2547 53.5462 16.5342 55.562 23.0455C57.5778 29.5569 57.0499 35.9082 57.0499 35.9082H54.0102L49.9786 35.0043C49.9786 35.0043 49.5066 29.8129 47.8828 24.2534C46.251 18.686 41.9394 16.2382 41.9394 16.2382L40.8195 16.3102V16.3022Z" fill="url(#paint33_linear_192_3852)"/>
<path d="M35.0122 36.1242V33.7885C35.0122 33.7885 44.5392 32.7726 50.5946 33.9885C50.5946 33.9885 54.3702 35.4123 54.6822 36.4922C55.0022 37.5721 54.0982 49.7708 53.5383 50.2908C52.5304 51.2347 49.5387 52.7705 49.5387 52.7705L35.2762 53.2825L34.5482 48.083L36.772 48.011C36.772 48.011 37.124 45.0433 37.38 42.8196L37.412 42.1076C37.412 42.1076 37.476 38.74 37.028 36.8362L35.0042 36.1242H35.0122Z" fill="#9220D9"/>
<path d="M41.7555 37.4678C41.6195 38.8916 41.2275 49.0266 41.2275 49.6585C41.2275 50.2905 52.5064 50.8024 53.3303 50.3545C54.1542 49.9065 54.9301 37.6918 53.9862 36.9958C53.4823 36.6199 41.8035 36.9239 41.7555 37.4678Z" fill="url(#paint34_linear_192_3852)"/>
<g style="mix-blend-mode:soft-light" opacity="0.5">
<path d="M42.8113 45.8352C41.9074 45.8112 41.5955 38.46 42.3874 37.8121C43.1793 37.1561 53.8182 36.6762 53.9622 37.4121C54.1062 38.148 54.5781 46.6192 53.5622 46.7871C52.5463 46.9551 50.4906 44.7154 50.2906 44.1234C50.0906 43.5315 48.5947 41.3237 47.8188 41.2437C47.0429 41.1637 45.6431 45.9152 42.8113 45.8432V45.8352Z" fill="#594275"/>
</g>
<g style="mix-blend-mode:soft-light" opacity="0.31">
<path d="M35.0122 33.7881C35.0122 33.7881 35.9241 34.604 40.7876 36.2199C41.4755 36.4518 54.2102 36.8118 54.2422 36.4998C54.3062 35.9079 51.2825 34.0921 50.5946 33.9961C44.3312 33.0922 38.1959 33.3401 35.0122 33.7961V33.7881Z" fill="#E75A29"/>
</g>
<path style="mix-blend-mode:multiply" opacity="0.5" d="M39.4917 51.1305C37.148 52.0504 35.2762 53.2743 35.2762 53.2743L49.5387 52.7623C49.5387 52.7623 52.5224 51.2665 52.4824 50.9225C52.4424 50.5706 41.6275 50.2826 39.4917 51.1225V51.1305Z" fill="url(#paint35_linear_192_3852)"/>
<path d="M44.9712 47.7308C45.6432 47.9628 47.9789 48.6507 50.1627 47.8268C50.2587 47.7868 50.3067 47.6828 50.2827 47.5868L48.8108 42.6993C48.7628 42.4994 48.8108 42.2914 48.9468 42.1394C49.2268 41.7954 49.3788 41.3315 49.3148 40.8355C49.2108 40.0756 48.5869 39.4677 47.8269 39.3877C46.803 39.2757 45.9391 40.0756 45.9391 41.0675C45.9391 41.3795 46.1471 41.7554 46.3391 42.0434C46.5311 42.3234 46.5871 42.6673 46.4991 42.9953L44.8432 47.4909C44.8033 47.5948 44.8592 47.7148 44.9632 47.7468L44.9712 47.7308Z" fill="#630F0F"/>
<path d="M50.1705 47.8268C49.1546 48.2108 48.0987 48.2748 47.2028 48.1948C47.7467 48.1468 48.3067 48.0348 48.8586 47.8268C48.9546 47.7868 49.0026 47.6828 48.9786 47.5868L47.5067 42.6913C47.4587 42.4914 47.5067 42.2834 47.6427 42.1314C47.9227 41.7874 48.0747 41.3235 48.0107 40.8275C47.9307 40.2276 47.5307 39.7236 46.9868 39.4997C47.2428 39.3957 47.5307 39.3477 47.8347 39.3797C48.5946 39.4597 49.2186 40.0756 49.3225 40.8275C49.3865 41.3235 49.2426 41.7874 48.9546 42.1314C48.8266 42.2914 48.7706 42.4994 48.8186 42.6913L50.2904 47.5868C50.3224 47.6828 50.2664 47.7948 50.1705 47.8268Z" fill="#941717"/>
<path d="M51.8265 17.0703C52.0664 18.5101 52.8824 21.3898 53.7063 21.5578C54.1462 21.6458 54.2742 21.4858 54.5142 21.1578C55.1861 20.2459 55.0981 18.1901 54.4022 17.5342C53.7063 16.8783 51.5705 15.5744 51.8265 17.0703Z" fill="url(#paint36_linear_192_3852)"/>
<path d="M52.9064 19.27C52.1145 19.502 53.1784 21.5898 53.8183 21.6538C54.4503 21.7178 54.8982 18.6941 52.9064 19.27Z" fill="#8753A1"/>
<path style="mix-blend-mode:multiply" opacity="0.5" d="M52.4343 57.8818C52.4343 57.8818 55.258 50.3546 55.7059 46.8269H54.1541C54.1541 46.8269 53.9301 49.4667 53.5542 50.2906C53.5542 50.2906 45.043 50.8505 41.9554 50.5226C40.9795 50.4186 41.2434 48.8427 41.4114 44.8351C41.5794 40.8275 41.2274 36.356 40.7955 36.212C40.3715 36.068 35.0201 33.7803 35.0201 33.7803L32.0364 35.9001L32.0604 36.22L34.5721 36.14L35.3 36.828C35.3 36.828 35.924 40.1156 35.732 42.2994L34.1242 42.3554V42.6194L35.724 43.1873C35.724 43.1873 35.668 46.267 35.236 48.0188L32.1964 48.2188L32.0444 54.6181C32.0444 54.6181 39.2116 53.8502 47.5788 53.8502C47.9068 53.8502 47.7628 56.346 47.8348 57.7698L50.8664 57.6658L52.4423 57.8898L52.4343 57.8818Z" fill="url(#paint37_linear_192_3852)"/>
<path style="mix-blend-mode:multiply" opacity="0.5" d="M24.6694 60.1854V67.3926L8.23111 65.0249L6.4313 57.6576L9.79895 56.8097L10.1269 57.6896C8.96704 54.5299 7.87115 51.2183 6.87125 47.8746L5.01544 47.7466C3.62359 45.1069 2.81567 42.6672 2.81567 42.6672L3.89556 42.2352C3.81557 41.9472 3.89556 42.1872 3.81557 41.8992L2.80767 41.8432C1.91976 39.3235 1.91976 36.3958 1.91976 36.3958L3.81557 36.2118C0.647894 22.0213 0.0879511 9.79053 5.01544 9.0706C10.5429 8.25468 19.406 17.7897 21.9497 31.3963C22.2697 33.1241 22.5496 34.9559 22.7816 36.8198L19.6619 37.1957L20.1739 42.8271L32.9966 42.3952L30.6048 42.7871L20.1659 43.883L20.8458 48.8665L23.7975 48.7145L24.1175 59.3854L20.2699 59.3694L24.6774 60.1934L24.6694 60.1854Z" fill="url(#paint38_linear_192_3852)"/>
<path style="mix-blend-mode:multiply" opacity="0.5" d="M10.5667 48.8588C12.6304 48.8828 13.9263 51.2505 13.9263 51.2505C13.9263 51.2505 17.054 51.3785 20.4216 54.2982L19.5897 48.7708L13.2944 48.3628L10.3827 48.1308L6.87904 47.8909L7.05502 48.4828L10.5667 48.8588Z" fill="url(#paint39_linear_192_3852)"/>
<path style="mix-blend-mode:multiply" opacity="0.5" d="M8.0788 18.614C6.063 18.486 5.51906 23.3655 6.58295 30.0769C6.58295 30.0769 7.50286 28.269 9.09469 27.6931C9.09469 27.6931 11.8064 28.1651 14.0862 30.2368C15.47 31.5007 16.6379 33.3885 16.6379 33.3885C16.6379 33.3885 14.7501 26.2772 12.7503 22.7896C10.7505 19.294 9.0067 18.678 8.08679 18.622L8.0788 18.614Z" fill="url(#paint40_linear_192_3852)"/>
<path d="M19.6539 37.188C19.2779 37.7239 19.022 39.4198 19.2379 40.2037C19.4459 40.9876 20.1498 42.5794 20.1498 42.5794C20.1498 42.5794 20.2058 40.3077 20.1658 39.5477C20.1258 38.7878 19.6539 37.188 19.6539 37.188Z" fill="#9220D9"/>
<path d="M20.1658 43.8752C20.7577 44.6272 20.9337 45.811 21.0537 46.195C21.1817 46.579 20.8457 48.8587 20.8457 48.8587C20.8457 48.8587 19.9578 46.419 19.9578 46.051C19.9578 45.6831 20.1658 43.8752 20.1658 43.8752Z" fill="#9220D9"/>
<path d="M23.8293 49.9944C23.5093 51.7302 22.9574 54.154 23.1894 54.6179C23.4213 55.0819 24.1093 59.3774 24.1093 59.3774C24.1093 59.3774 24.7252 55.9858 24.4772 54.6899C24.2293 53.394 23.8293 50.0024 23.8293 50.0024V49.9944Z" fill="#9220D9"/>
<path d="M17.8299 19.7014C16.662 19.7334 18.8378 28.4125 19.1578 28.6685C19.4777 28.9245 20.8616 29.2364 21.3096 28.7965C21.7575 28.3485 21.9735 24.7089 21.7735 24.045C21.0856 21.6612 19.0938 19.6694 17.8299 19.7094V19.7014Z" fill="url(#paint41_linear_192_3852)"/>
<path d="M20.1817 25.9971C18.9018 24.1973 18.2539 24.0933 18.3019 25.0692C18.3499 26.0451 19.0698 28.6769 19.3578 28.7808C19.6537 28.8848 20.5816 29.1008 20.7976 28.5809C21.0136 28.0689 20.6616 26.6691 20.1817 25.9971Z" fill="#8753A1"/>
<g style="mix-blend-mode:soft-light" opacity="0.5">
<path d="M38.0679 43.0111C37.804 43.603 36.7881 50.9702 37.084 51.2662C37.38 51.5702 40.5317 49.7944 40.7477 49.3944C40.9556 48.9944 41.0356 44.5389 40.5317 43.539C40.0277 42.5391 38.3319 42.4431 38.0759 43.0111H38.0679Z" fill="#683C11"/>
</g>
<g style="mix-blend-mode:soft-light" opacity="0.29">
<path d="M18.974 40.4518C19.446 41.0277 19.8939 42.5716 19.6539 42.5716C19.414 42.5716 13.9505 42.4436 13.8945 42.2356C13.8305 42.0356 18.4301 39.7878 18.974 40.4438V40.4518Z" fill="#FFC29C"/>
</g>
<g style="mix-blend-mode:soft-light" opacity="0.5">
<path d="M23.5976 60.9055C20.7818 60.0816 7.97516 57.6898 7.51121 58.4178C7.04726 59.1457 7.21524 64.1132 8.82308 64.7291C10.4309 65.3451 21.0618 66.249 21.4778 66.169C23.5976 65.785 24.1575 61.0655 23.5976 60.8975V60.9055Z" fill="#683C11"/>
</g>
<g style="mix-blend-mode:soft-light" opacity="0.5">
<path d="M3.74342 10.1668C0.543752 12.9105 1.56765 22.4215 3.49545 21.9815C4.11139 21.8376 6.07118 18.5659 7.59103 18.3419C9.11087 18.1179 10.9747 18.6139 12.3745 18.6139C13.7744 18.6139 14.8303 16.9661 12.7425 13.9744C10.6547 10.9827 5.81521 8.39094 3.73542 10.1668H3.74342Z" fill="#683C11"/>
</g>
<path d="M55.1062 42.3393C59.7697 43.4672 67.257 41.7874 67.257 41.7874C67.257 41.7874 64.0173 41.8593 62.3375 41.8433C60.6576 41.8193 55.1062 42.3393 55.1062 42.3393Z" fill="#E6ADFF"/>
<path d="M22.8135 37.108C25.7572 37.9399 34.5563 36.804 34.5563 36.804C34.5563 36.804 32.3725 36.644 28.1329 36.804C23.8933 36.964 22.8135 37.108 22.8135 37.108Z" fill="#E6ADFF"/>
<g style="mix-blend-mode:soft-light" opacity="0.5">
<path d="M48.6348 13.0224C49.8347 13.9903 53.1783 16.3421 53.7943 16.5581C58.7458 18.2939 66.553 18.2939 65.921 17.086C65.2891 15.8781 64.2092 12.3265 61.7935 12.0705C59.3777 11.8145 47.7869 12.3345 48.6348 13.0224Z" fill="#594275"/>
</g>
<g style="mix-blend-mode:soft-light" opacity="0.3">
<path d="M55.1061 51.9306C54.5862 52.7066 53.6263 56.9141 54.2022 57.0341C54.7701 57.1621 61.1055 52.2106 61.0415 50.7468C60.9775 49.2829 55.826 50.8428 55.1061 51.9226V51.9306Z" fill="#D2FFF1"/>
</g>
<g style="mix-blend-mode:soft-light" opacity="0.1">
<path d="M63.5132 27.1731C62.3853 28.421 62.7533 29.5329 63.5132 29.5329C64.2731 29.5329 66.3049 26.8772 66.1769 26.6852C66.049 26.4852 64.3611 26.2292 63.5132 27.1731Z" fill="#D2FFF1"/>
</g>
<g style="mix-blend-mode:soft-light" opacity="0.5">
<path d="M11.9587 9.58252C9.97491 9.61452 17.1502 17.4057 19.5819 18.1016C22.0057 18.7976 26.7252 19.1895 26.6932 17.4697C26.6452 14.974 25.0134 12.0223 22.6616 11.3263C20.3098 10.6304 13.3106 9.56652 11.9587 9.59052V9.58252Z" fill="#594275"/>
</g>
<g style="mix-blend-mode:soft-light" opacity="0.1">
<path d="M22.8134 23.3735C22.2535 25.1973 23.3333 35.5482 24.1173 35.9082C24.9092 36.2682 30.6206 36.2762 30.6206 35.0043C30.6206 33.7324 23.3253 21.7257 22.8134 23.3735Z" fill="#D2FFF1"/>
</g>
<g style="mix-blend-mode:soft-light" opacity="0.1">
<path d="M25.7331 23.3736C25.7331 24.0936 27.485 28.6451 28.1329 28.6451C28.7808 28.6451 29.7327 23.6856 28.6848 23.3736C27.637 23.0617 25.7251 22.5817 25.7331 23.3736Z" fill="#D2FFF1"/>
</g>
<path d="M16.6303 42.6672C16.7822 42.6432 19.9899 41.7713 20.1579 41.7873C21.5417 41.9153 24.7654 42.4673 25.5173 42.6112C25.5893 42.6272 20.3579 42.8192 20.1659 42.8192C18.878 42.8192 16.5183 42.6832 16.6303 42.6592V42.6672Z" fill="#6720D9"/>
<path d="M68.8566 36.4999C68.7766 36.5559 59.8095 36.3719 59.7615 36.1479C59.7455 36.068 69.0086 35.732 69.0086 35.908C69.0086 36.1639 68.9286 36.4519 68.8566 36.4999Z" fill="#E6ADFF"/>
<path d="M20.1657 43.8751C20.4217 44.291 20.9817 45.6909 21.0857 45.8349C21.3496 46.2188 30.7647 43.4671 30.0927 43.4351C29.4208 43.4031 19.9498 43.5151 20.1657 43.8751Z" fill="#E6ADFF"/>
<path style="mix-blend-mode:multiply" opacity="0.5" d="M63.0253 47.2671C63.0253 47.2671 59.3137 48.611 55.1061 49.5309C55.1061 49.5309 54.1622 50.3548 52.1065 51.9386C52.1065 51.9386 52.0185 52.7146 51.8345 53.2905L47.139 53.8184C47.139 53.8184 47.179 53.3705 47.091 53.3705C44.6272 53.4665 42.9874 53.5225 40.1317 53.6025C39.9637 53.6025 39.5957 54.2264 39.4278 54.2344C39.2998 54.2344 33.3404 53.8904 32.1405 53.8504V49.1949C32.1405 49.1949 28.3889 49.6269 23.8694 50.3628C23.8694 50.3628 21.3096 50.8827 19.9098 50.9707L19.7178 49.9948L19.1578 48.739L36.78 48.011C36.78 48.011 35.4042 49.1949 34.9002 50.2988L35.2842 53.2825L49.5467 52.7706C49.5467 52.7706 53.0584 51.0587 53.5463 50.2908C54.0343 49.5309 54.1462 46.8272 54.1462 46.8272L63.3453 46.3872L63.0253 47.2591V47.2671Z" fill="url(#paint42_linear_192_3852)"/>
<g style="mix-blend-mode:soft-light" opacity="0.5">
<path d="M67.2568 29.6688C66.7529 28.7809 57.0738 32.6125 57.2738 33.3964C57.4738 34.1723 56.8339 35.8601 57.5378 35.8601C58.2417 35.8601 65.561 35.6842 66.1769 35.2522C66.7929 34.8202 67.7607 30.5647 67.2488 29.6688H67.2568Z" fill="#594275"/>
</g>
<g style="mix-blend-mode:soft-light" opacity="0.3">
<path d="M56.242 36.62C55.4181 37.0679 54.3862 41.2115 55.1061 41.3155C55.826 41.4115 65.729 41.0915 66.337 40.7475C66.9369 40.3956 67.7768 36.764 67.0969 36.628C66.417 36.492 57.2899 36.06 56.242 36.628V36.62Z" fill="#D2FFF1"/>
</g>
<g style="mix-blend-mode:soft-light" opacity="0.29">
<path d="M2.81555 37.0677C2.19961 38.5875 2.3116 40.4513 2.81555 40.3313C3.3195 40.2193 7.1431 37.4516 6.05522 37.1797C4.96733 36.9157 3.05552 36.4677 2.81555 37.0597V37.0677Z" fill="#FFC29C"/>
</g>
<g style="mix-blend-mode:soft-light" opacity="0.3">
<path d="M28.9327 60.7296C26.893 61.8255 28.0608 65.3211 29.9886 64.8812C38.1638 63.0013 31.8364 59.1697 28.9327 60.7296Z" fill="#D2FFF1"/>
</g>
<g style="mix-blend-mode:soft-light" opacity="0.29">
<path d="M8.52689 49.5788C8.57488 50.6987 9.86275 55.9862 10.2227 56.4501C10.5347 56.8581 12.0145 57.258 12.0225 56.8981C12.0385 56.1781 8.48689 48.5549 8.52689 49.5788Z" fill="#FFC29C"/>
</g>
<g style="mix-blend-mode:soft-light" opacity="0.29">
<path d="M17.67 30.8284C16.5022 31.9643 17.1661 35.8999 18.094 36.2199C19.0219 36.5398 21.7896 37.2598 21.8456 35.6519C21.9016 34.0441 20.7577 27.8207 17.67 30.8284Z" fill="#FFC29C"/>
</g>
<g style="mix-blend-mode:soft-light" opacity="0.9">
<path d="M66.8489 18.9817C66.6889 18.4377 55.1061 19.7016 55.1061 19.7016L54.6581 20.8215C54.6581 20.8215 55.938 23.4772 56.298 25.461C56.298 25.461 56.466 24.3011 57.1219 24.0451C57.8258 23.7732 66.217 23.3492 66.9449 23.3812C67.6728 23.4132 67.6248 24.4611 67.6248 24.4611C67.6248 24.4611 67.5688 21.4454 66.8489 18.9897V18.9817Z" fill="#CADAFC"/>
</g>
<g style="mix-blend-mode:soft-light" opacity="0.9">
<path d="M17.0459 18.3179C18.8457 18.9338 28.7807 19.8377 28.7807 19.8377C28.8847 20.1097 29.5646 21.9895 29.5646 21.9895C29.5646 21.9895 23.1093 20.9656 20.1656 21.1176C20.1656 21.1176 18.7577 19.6377 17.8298 19.6937L17.0379 18.3179H17.0459Z" fill="#CADAFC"/>
</g>
<path d="M6.48702 57.8815C5.88708 57.3296 -0.312286 65.6567 -0.312286 65.6567C-0.312286 65.6567 4.00727 66.1766 10.7186 65.3767C10.7186 65.3767 6.90297 58.2575 6.48702 57.8735V57.8815Z" fill="url(#paint43_linear_192_3852)"/>
<path d="M64.2653 58.2018C64.6812 58.1698 69.7767 66.0409 69.7767 66.0409C69.7767 66.0409 64.6732 65.833 58.5618 65.065C58.5618 65.065 63.7053 58.2418 64.2653 58.2018Z" fill="url(#paint44_linear_192_3852)"/>
<path d="M24.6693 60.1858C21.9096 61.6336 19.1578 66.6011 19.1578 66.6011C19.1578 66.6011 20.1737 68.7929 20.8697 69.6008C20.8697 69.6008 26.845 68.417 30.3167 67.0091C30.3167 67.0091 25.2132 59.9058 24.6773 60.1858H24.6693Z" fill="url(#paint45_linear_192_3852)"/>
<path d="M24.6692 60.1854C22.1975 62.9292 20.1977 69.7285 20.8616 69.6005C21.5255 69.4725 27.8209 68.1366 30.3086 67.0087C30.3086 67.0087 28.6768 64.705 27.3329 62.8972C25.2292 60.0575 24.6612 60.1854 24.6612 60.1854H24.6692Z" fill="url(#paint46_linear_192_3852)"/>
<path style="mix-blend-mode:multiply" opacity="0.5" d="M62.8252 58.6739C58.4017 59.0819 54.0581 64.5293 55.7059 64.6893C57.0018 64.8173 58.8256 64.6493 60.6414 65.1132C62.4572 65.5772 65.6809 65.6972 66.1049 64.1373C66.5288 62.5775 65.6169 58.4179 62.8252 58.6739Z" fill="url(#paint47_linear_192_3852)"/>
<path style="mix-blend-mode:color-dodge" opacity="0.6" d="M63.0091 33.9327C69.0792 33.9327 74 29.0119 74 22.9418C74 16.8717 69.0792 11.9509 63.0091 11.9509C56.939 11.9509 52.0182 16.8717 52.0182 22.9418C52.0182 29.0119 56.939 33.9327 63.0091 33.9327Z" fill="url(#paint48_radial_192_3852)"/>
<path style="mix-blend-mode:color-dodge" opacity="0.6" d="M24.541 53.7142C30.6111 53.7142 35.5319 48.7934 35.5319 42.7233C35.5319 36.6532 30.6111 31.7324 24.541 31.7324C18.471 31.7324 13.5502 36.6532 13.5502 42.7233C13.5502 48.7934 18.471 53.7142 24.541 53.7142Z" fill="url(#paint49_radial_192_3852)"/>
<path style="mix-blend-mode:color-dodge" opacity="0.6" d="M7.8069 35.4446C13.877 35.4446 18.7978 30.5239 18.7978 24.4538C18.7978 18.3837 13.877 13.4629 7.8069 13.4629C1.73681 13.4629 -3.18397 18.3837 -3.18397 24.4538C-3.18397 30.5239 1.73681 35.4446 7.8069 35.4446Z" fill="url(#paint50_radial_192_3852)"/>
<path style="mix-blend-mode:color-dodge" opacity="0.6" d="M13.5422 60.9854C19.6123 60.9854 24.5331 56.0646 24.5331 49.9945C24.5331 43.9244 19.6123 39.0037 13.5422 39.0037C7.47212 39.0037 2.55134 43.9244 2.55134 49.9945C2.55134 56.0646 7.47212 60.9854 13.5422 60.9854Z" fill="url(#paint51_radial_192_3852)"/>
<path style="mix-blend-mode:color-dodge" opacity="0.6" d="M38.0117 60.138C44.0818 60.138 49.0026 55.2172 49.0026 49.1471C49.0026 43.077 44.0818 38.1562 38.0117 38.1562C31.9416 38.1562 27.0208 43.077 27.0208 49.1471C27.0208 55.2172 31.9416 60.138 38.0117 60.138Z" fill="url(#paint52_radial_192_3852)"/>
<path style="mix-blend-mode:multiply" opacity="0.5" d="M44.3312 39.2518C40.8995 41.6195 40.7235 47.4509 42.3394 49.3947C43.7872 51.1305 53.2903 51.3465 53.4822 44.5712C53.6742 37.7879 46.8349 37.5239 44.3312 39.2518Z" fill="url(#paint53_linear_192_3852)"/>
<path d="M51.1946 38.3322C47.347 36.0844 43.3554 38.8441 42.7955 42.4997C42.2356 46.1554 45.6112 50.3149 50.1867 48.8351C54.7623 47.3552 54.5783 40.308 51.2026 38.3322H51.1946Z" fill="url(#paint54_linear_192_3852)"/>
<path d="M52.2344 40.7399C51.1785 38.7401 47.7229 38.0281 45.6271 39.828C43.5313 41.6358 43.3553 45.7633 46.379 47.3792C49.6347 49.115 54.8742 45.7473 52.2344 40.7399Z" fill="url(#paint55_linear_192_3852)"/>
<path d="M48.6508 47.4593C46.4111 47.4993 44.5633 45.6754 44.5233 43.3797C44.4833 41.0839 46.2591 39.1881 48.4989 39.1481C50.7386 39.1081 52.5864 40.9319 52.6264 43.2277C52.6664 45.5235 50.8906 47.4193 48.6508 47.4593Z" fill="url(#paint56_linear_192_3852)"/>
<path d="M48.7948 47.3391C46.619 47.3791 44.8192 45.6033 44.7792 43.3715C44.7392 41.1397 46.467 39.2999 48.6428 39.2599C50.8186 39.2199 52.6184 40.9958 52.6584 43.2275C52.6984 45.4593 50.9706 47.2991 48.7948 47.3391Z" fill="url(#paint57_linear_192_3852)"/>
<path style="mix-blend-mode:multiply" opacity="0.5" d="M48.7948 47.3389C46.619 47.3789 44.8192 45.6031 44.7792 43.3714C44.7392 41.1396 46.467 39.2998 48.6428 39.2598C49.6987 39.2358 50.6746 39.6517 51.3945 40.3317C50.8586 39.9957 50.2266 39.8037 49.5467 39.8197C47.7149 39.8517 46.251 41.3476 46.291 43.1474C46.323 44.9552 47.8429 46.387 49.6747 46.355C50.7626 46.331 51.7145 45.8031 52.3064 44.9952C51.6985 46.355 50.3626 47.3069 48.8028 47.3389H48.7948Z" fill="url(#paint58_linear_192_3852)"/>
<path style="mix-blend-mode:color-dodge" opacity="0.3" d="M49.4187 46.0112C47.7949 46.0432 46.451 44.7153 46.4271 43.0515C46.3951 41.3877 47.6829 40.0118 49.3068 39.9798C50.9306 39.9478 52.2744 41.2757 52.2984 42.9395C52.3304 44.6033 51.0426 45.9792 49.4187 46.0112Z" fill="url(#paint59_radial_192_3852)"/>
<path d="M49.1947 41.1001C49.0587 41.308 49.5707 41.868 49.7627 41.964C49.7627 41.964 50.3706 41.78 50.3946 41.332C50.3946 41.332 50.1146 40.7561 49.6507 40.6521C49.6507 40.6521 49.3787 40.8121 49.1947 41.1001Z" fill="url(#paint60_linear_192_3852)"/>
<path d="M42.7954 42.5078C43.2194 39.7481 45.5951 37.5003 48.3868 37.5323C45.2032 37.9803 42.4594 40.42 43.6513 45.1635C43.7953 45.7395 45.3151 48.9391 48.6188 49.1471C44.8672 49.3551 42.2995 45.7395 42.7874 42.5158L42.7954 42.5078Z" fill="url(#paint61_linear_192_3852)"/>
<path style="mix-blend-mode:color-dodge" opacity="0.5" d="M50.7147 48.6349C50.2348 48.4429 52.5945 45.8672 53.1065 46.1871C52.6265 47.235 51.8426 48.1229 50.7147 48.6349Z" fill="url(#paint62_linear_192_3852)"/>
<path style="mix-blend-mode:color-dodge" opacity="0.5" d="M58.4323 44.5856C59.2767 39.6565 55.9652 34.9761 51.0361 34.1318C46.1069 33.2874 41.4265 36.5989 40.5822 41.528C39.7378 46.4572 43.0493 51.1376 47.9785 51.9819C52.9076 52.8263 57.588 49.5148 58.4323 44.5856Z" fill="url(#paint63_radial_192_3852)"/>
<path d="M30.6124 47.2834C28.4286 46.2835 25.6689 43.0119 25.6689 43.0119C25.6689 43.0119 28.2126 39.5242 30.3404 38.3403C32.4202 39.5322 34.556 42.6039 34.556 42.6039C34.556 42.6039 32.6122 45.9316 30.6124 47.2834Z" fill="url(#paint64_linear_192_3852)"/>
<path style="mix-blend-mode:multiply" opacity="0.5" d="M30.3404 38.3403C28.2126 39.5242 25.6689 43.0119 25.6689 43.0119L27.3487 43.1238C28.7006 40.9561 30.3244 39.4922 30.3244 39.4922C30.3244 39.4922 30.3884 38.9883 30.3404 38.3483V38.3403Z" fill="url(#paint65_linear_192_3852)"/>
<path d="M27.3489 43.1236C27.3489 43.1236 28.7968 40.4118 30.3246 39.4919C30.3246 39.4919 31.9085 40.2359 33.9883 42.6516C33.9883 42.6516 32.5724 45.2674 30.5966 46.6192C30.5966 46.6192 29.3567 45.5713 27.3489 43.1236Z" fill="url(#paint66_linear_192_3852)"/>
<path d="M30.3165 40.4277C28.6366 41.5796 27.8847 43.2114 27.8847 43.2114C28.9886 44.7873 30.4764 45.6272 30.4764 45.6272C31.6923 44.5553 32.8282 42.9235 32.8282 42.9235C31.8043 41.7396 30.3245 40.4277 30.3245 40.4277H30.3165Z" fill="url(#paint67_linear_192_3852)"/>
<path d="M30.3165 40.4277L30.4685 45.6272C31.4684 44.7793 32.8202 42.9235 32.8202 42.9235C31.7963 41.7396 30.3165 40.4277 30.3165 40.4277Z" fill="url(#paint68_linear_192_3852)"/>
<path d="M30.4446 44.0598L31.3565 43.0439L30.3806 42.012L29.4767 43.0759L30.4446 44.0598Z" fill="url(#paint69_linear_192_3852)"/>
<path d="M30.4846 45.2512L30.4446 44.0593L29.4767 43.0754L28.3408 43.1234L30.4846 45.2512Z" fill="url(#paint70_linear_192_3852)"/>
<path d="M32.4042 42.9954L31.3563 43.0434L30.4444 44.0593L30.4844 45.2511L32.4042 42.9954Z" fill="url(#paint71_linear_192_3852)"/>
<path d="M30.3806 42.0119L29.4767 43.0758L28.3408 43.1238L30.3486 40.812L30.3806 42.0119Z" fill="url(#paint72_linear_192_3852)"/>
<path d="M32.4045 42.9958L31.3566 43.0438L30.3807 42.0119L30.3487 40.812L32.4045 42.9958Z" fill="url(#paint73_linear_192_3852)"/>
<path d="M32.3162 40.428C32.4922 40.1321 33.7081 41.5799 33.6601 41.9639C33.6361 42.1158 32.1962 40.628 32.3162 40.428Z" fill="url(#paint74_linear_192_3852)"/>
<path d="M30.8686 43.0438C31.0926 42.5478 30.7166 42.6198 30.4847 42.7558C30.2527 42.8918 30.1967 43.4517 30.7566 43.1717L30.8766 43.0357L30.8686 43.0438Z" fill="url(#paint75_linear_192_3852)"/>
<path style="mix-blend-mode:multiply" opacity="0.5" d="M30.3405 38.3403C28.1327 38.7483 22.8853 42.6999 22.8853 42.6999L22.3333 43.0518C22.3333 43.0518 27.4528 46.5315 30.6125 47.2754L30.5885 46.6115C30.5885 46.6115 28.3327 44.5957 27.3408 43.1158C27.3408 43.1158 28.3327 40.9561 30.3165 39.4842L30.3325 38.3403H30.3405Z" fill="url(#paint76_linear_192_3852)"/>
<path d="M60.7853 45.5317C58.9055 44.5798 56.5938 41.5881 56.5938 41.5881C56.5938 41.5881 58.8975 38.5404 60.7773 37.5405C62.5611 38.6604 64.337 41.4601 64.337 41.4601C64.337 41.4601 62.5611 44.3798 60.7853 45.5317Z" fill="url(#paint77_linear_192_3852)"/>
<path style="mix-blend-mode:multiply" opacity="0.5" d="M60.7773 37.5405C58.8975 38.5404 56.5938 41.5881 56.5938 41.5881L58.0336 41.7561C59.2655 39.8603 60.7373 38.5644 60.7373 38.5644C60.7373 38.5644 60.8013 38.1165 60.7773 37.5405Z" fill="url(#paint78_linear_192_3852)"/>
<path d="M58.0336 41.7556C58.0336 41.7556 59.3775 39.3479 60.7373 38.564C60.7373 38.564 62.0972 39.2679 63.841 41.4837C63.841 41.4837 62.5371 43.7874 60.7853 44.9393C60.7853 44.9393 59.7214 43.9954 58.0336 41.7556Z" fill="url(#paint79_linear_192_3852)"/>
<path d="M60.7053 39.4041C59.2094 40.388 58.5615 41.7318 58.5615 41.7318C59.4814 43.1637 60.7053 44.0596 60.7053 44.0596C61.7932 43.1317 62.8171 41.7078 62.8171 41.7078C61.9612 40.6199 60.6973 39.4121 60.6973 39.4121L60.7053 39.4041Z" fill="url(#paint80_linear_192_3852)"/>
<path d="M60.7052 39.4043V44.0518C61.6011 43.3159 62.825 41.7001 62.825 41.7001C61.969 40.6122 60.7052 39.4043 60.7052 39.4043Z" fill="url(#paint81_linear_192_3852)"/>
<path d="M60.7213 42.6441L61.5452 41.7642L60.7213 40.8123L59.8974 41.7402L60.7213 42.6441Z" fill="url(#paint82_linear_192_3852)"/>
<path d="M60.7212 43.7158V42.6439L59.8973 41.74L58.9134 41.756L60.7212 43.7158Z" fill="url(#paint83_linear_192_3852)"/>
<path d="M62.4571 41.7483L61.5452 41.7643L60.7213 42.6442V43.7161L62.4571 41.7483Z" fill="url(#paint84_linear_192_3852)"/>
<path d="M60.7212 40.8121L59.8973 41.74L58.9134 41.756L60.7212 39.7402V40.8121Z" fill="url(#paint85_linear_192_3852)"/>
<path d="M62.4571 41.748L61.5452 41.764L60.7213 40.8121V39.7402L62.4571 41.748Z" fill="url(#paint86_linear_192_3852)"/>
<path d="M62.4412 39.4517C62.6011 39.1958 63.625 40.5236 63.569 40.8596C63.545 40.9956 62.3292 39.6277 62.4412 39.4517Z" fill="url(#paint87_linear_192_3852)"/>
<path d="M61.1214 41.7478C61.3294 41.3078 60.9934 41.3638 60.7934 41.4838C60.5854 41.6038 60.5214 42.0998 61.0174 41.8678L61.1214 41.7558V41.7478Z" fill="url(#paint88_linear_192_3852)"/>
<path style="mix-blend-mode:multiply" opacity="0.5" d="M60.7774 37.5405C57.4977 38.7964 54.602 41.3321 54.602 41.3321L54.554 42.0361C54.554 42.0361 58.0497 44.7878 60.7774 45.5317V44.9398C60.7774 44.9398 58.8496 43.108 58.0257 41.7561C58.0257 41.7561 58.9616 39.8283 60.7294 38.5644L60.7694 37.5405H60.7774Z" fill="url(#paint89_linear_192_3852)"/>
</g>
<defs>
<linearGradient id="paint0_linear_192_3852" x1="4.27907" y1="51.9147" x2="1.35937" y2="51.9147" gradientUnits="userSpaceOnUse">
<stop stop-color="#655ED6"/>
<stop offset="1" stop-color="#C88FF0"/>
</linearGradient>
<linearGradient id="paint1_linear_192_3852" x1="23.2773" y1="2.06386" x2="20.9095" y2="2.06386" gradientUnits="userSpaceOnUse">
<stop stop-color="#655ED6"/>
<stop offset="1" stop-color="#C88FF0"/>
</linearGradient>
<radialGradient id="paint2_radial_192_3852" cx="0" cy="0" r="1" gradientUnits="userSpaceOnUse" gradientTransform="translate(1.97534 51.9148) scale(4.31956)">
<stop stop-color="#27A0D7"/>
<stop offset="0.1" stop-color="#2495C9"/>
<stop offset="0.3" stop-color="#1E7BA5"/>
<stop offset="0.57" stop-color="#13506B"/>
<stop offset="0.89" stop-color="#05151C"/>
<stop offset="1"/>
</radialGradient>
<radialGradient id="paint3_radial_192_3852" cx="0" cy="0" r="1" gradientUnits="userSpaceOnUse" gradientTransform="translate(21.4134 2.06354) scale(2.06379)">
<stop stop-color="#27A0D7"/>
<stop offset="0.1" stop-color="#2495C9"/>
<stop offset="0.3" stop-color="#1E7BA5"/>
<stop offset="0.57" stop-color="#13506B"/>
<stop offset="0.89" stop-color="#05151C"/>
<stop offset="1"/>
</radialGradient>
<linearGradient id="paint4_linear_192_3852" x1="55.2899" y1="4.86358" x2="51.5143" y2="4.86358" gradientUnits="userSpaceOnUse">
<stop stop-color="#655ED6"/>
<stop offset="1" stop-color="#C88FF0"/>
</linearGradient>
<radialGradient id="paint5_radial_192_3852" cx="0" cy="0" r="1" gradientUnits="userSpaceOnUse" gradientTransform="translate(52.3063 4.86353) scale(3.29566 3.29566)">
<stop stop-color="#27A0D7"/>
<stop offset="0.1" stop-color="#2495C9"/>
<stop offset="0.3" stop-color="#1E7BA5"/>
<stop offset="0.57" stop-color="#13506B"/>
<stop offset="0.89" stop-color="#05151C"/>
<stop offset="1"/>
</radialGradient>
<linearGradient id="paint6_linear_192_3852" x1="72.8003" y1="53.7064" x2="69.0247" y2="53.7064" gradientUnits="userSpaceOnUse">
<stop stop-color="#655ED6"/>
<stop offset="1" stop-color="#C88FF0"/>
</linearGradient>
<radialGradient id="paint7_radial_192_3852" cx="0" cy="0" r="1" gradientUnits="userSpaceOnUse" gradientTransform="translate(69.8164 53.7063) scale(3.29566 3.29566)">
<stop stop-color="#27A0D7"/>
<stop offset="0.1" stop-color="#2495C9"/>
<stop offset="0.3" stop-color="#1E7BA5"/>
<stop offset="0.57" stop-color="#13506B"/>
<stop offset="0.89" stop-color="#05151C"/>
<stop offset="1"/>
</radialGradient>
<linearGradient id="paint8_linear_192_3852" x1="72.9122" y1="60.0258" x2="71.0484" y2="60.0258" gradientUnits="userSpaceOnUse">
<stop stop-color="#655ED6"/>
<stop offset="1" stop-color="#C88FF0"/>
</linearGradient>
<radialGradient id="paint9_radial_192_3852" cx="0" cy="0" r="1" gradientUnits="userSpaceOnUse" gradientTransform="translate(71.4404 60.0254) scale(1.62383)">
<stop stop-color="#27A0D7"/>
<stop offset="0.1" stop-color="#2495C9"/>
<stop offset="0.3" stop-color="#1E7BA5"/>
<stop offset="0.57" stop-color="#13506B"/>
<stop offset="0.89" stop-color="#05151C"/>
<stop offset="1"/>
</radialGradient>
<linearGradient id="paint10_linear_192_3852" x1="3.49544" y1="36.4044" x2="24.6693" y2="36.4044" gradientUnits="userSpaceOnUse">
<stop stop-color="#5E4A94"/>
<stop offset="1" stop-color="#52156B"/>
</linearGradient>
<linearGradient id="paint11_linear_192_3852" x1="35.0123" y1="71.1206" x2="35.0123" y2="11.1667" gradientUnits="userSpaceOnUse">
<stop stop-color="#D068EE"/>
<stop offset="0.2" stop-color="#9A45CB"/>
<stop offset="0.37" stop-color="#732CB1"/>
<stop offset="0.5" stop-color="#5B1CA1"/>
<stop offset="0.59" stop-color="#52189C"/>
<stop offset="0.71" stop-color="#4F3CA9"/>
<stop offset="0.82" stop-color="#4C56B2"/>
<stop offset="0.92" stop-color="#4A66B8"/>
<stop offset="1" stop-color="#4A6CBA"/>
</linearGradient>
<linearGradient id="paint12_linear_192_3852" x1="28.1328" y1="19.2697" x2="47.8908" y2="19.2697" gradientUnits="userSpaceOnUse">
<stop stop-color="#1A3780"/>
<stop offset="0.15" stop-color="#173E89"/>
<stop offset="0.39" stop-color="#1254A3"/>
<stop offset="0.7" stop-color="#0977CC"/>
<stop offset="1" stop-color="#009EFA"/>
</linearGradient>
<linearGradient id="paint13_linear_192_3852" x1="31.6445" y1="27.1731" x2="41.2755" y2="27.1731" gradientUnits="userSpaceOnUse">
<stop stop-color="#1A3780"/>
<stop offset="0.15" stop-color="#173E89"/>
<stop offset="0.39" stop-color="#1254A3"/>
<stop offset="0.7" stop-color="#0977CC"/>
<stop offset="1" stop-color="#009EFA"/>
</linearGradient>
<linearGradient id="paint14_linear_192_3852" x1="38.8358" y1="57.2178" x2="46.283" y2="51.5464" gradientUnits="userSpaceOnUse">
<stop stop-color="#36193B"/>
<stop offset="1" stop-color="#8E37E2"/>
</linearGradient>
<linearGradient id="paint15_linear_192_3852" x1="18.6378" y1="15.2863" x2="18.7578" y2="66.465" gradientUnits="userSpaceOnUse">
<stop stop-color="#3D9AC4"/>
<stop offset="0.03" stop-color="#477EC4"/>
<stop offset="0.08" stop-color="#5657C5"/>
<stop offset="0.13" stop-color="#613BC6"/>
<stop offset="0.17" stop-color="#682AC6"/>
<stop offset="0.19" stop-color="#6B24C7"/>
<stop offset="0.55" stop-color="#C741D1"/>
<stop offset="1" stop-color="#F768CA"/>
</linearGradient>
<linearGradient id="paint16_linear_192_3852" x1="56.474" y1="15.1982" x2="56.602" y2="66.369" gradientUnits="userSpaceOnUse">
<stop stop-color="#3D9AC4"/>
<stop offset="0.03" stop-color="#477EC4"/>
<stop offset="0.08" stop-color="#5657C5"/>
<stop offset="0.13" stop-color="#613BC6"/>
<stop offset="0.17" stop-color="#682AC6"/>
<stop offset="0.19" stop-color="#6B24C7"/>
<stop offset="0.55" stop-color="#C741D1"/>
<stop offset="1" stop-color="#F768CA"/>
</linearGradient>
<linearGradient id="paint17_linear_192_3852" x1="13.9183" y1="61.8492" x2="8.20687" y2="18.4216" gradientUnits="userSpaceOnUse">
<stop stop-color="#5652D6"/>
<stop offset="1" stop-color="#D43FB3"/>
</linearGradient>
<linearGradient id="paint18_linear_192_3852" x1="21.4055" y1="34.348" x2="7.94289" y2="34.428" gradientUnits="userSpaceOnUse">
<stop stop-color="#4A0D73"/>
<stop offset="1" stop-color="#5032AD"/>
</linearGradient>
<linearGradient id="paint19_linear_192_3852" x1="40.8196" y1="35.2441" x2="57.1379" y2="35.2441" gradientUnits="userSpaceOnUse">
<stop stop-color="#4A0D73"/>
<stop offset="1" stop-color="#5032AD"/>
</linearGradient>
<linearGradient id="paint20_linear_192_3852" x1="3.74351" y1="42.2434" x2="67.257" y2="42.2434" gradientUnits="userSpaceOnUse">
<stop stop-color="#351E52"/>
<stop offset="1" stop-color="#24289E"/>
</linearGradient>
<linearGradient id="paint21_linear_192_3852" x1="34.5882" y1="39.2279" x2="5.50319" y2="38.8519" gradientUnits="userSpaceOnUse">
<stop stop-color="#4A0D73"/>
<stop offset="1" stop-color="#5032AD"/>
</linearGradient>
<linearGradient id="paint22_linear_192_3852" x1="34.5082" y1="45.195" x2="5.42319" y2="44.811" gradientUnits="userSpaceOnUse">
<stop stop-color="#4A0D73"/>
<stop offset="1" stop-color="#5032AD"/>
</linearGradient>
<linearGradient id="paint23_linear_192_3852" x1="44.3312" y1="18.2137" x2="44.3312" y2="76.2957" gradientUnits="userSpaceOnUse">
<stop stop-color="#6B24C7"/>
<stop offset="0.51" stop-color="#C741D1"/>
<stop offset="1" stop-color="#F768CA"/>
</linearGradient>
<linearGradient id="paint24_linear_192_3852" x1="43.8914" y1="18.2138" x2="43.8914" y2="76.2958" gradientUnits="userSpaceOnUse">
<stop stop-color="#6B24C7"/>
<stop offset="0.51" stop-color="#C741D1"/>
<stop offset="1" stop-color="#F768CA"/>
</linearGradient>
<linearGradient id="paint25_linear_192_3852" x1="2.81541" y1="42.5555" x2="67.6248" y2="42.5555" gradientUnits="userSpaceOnUse">
<stop stop-color="#E82AD5"/>
<stop offset="1" stop-color="#FFA3D1"/>
</linearGradient>
<linearGradient id="paint26_linear_192_3852" x1="35.412" y1="67.8168" x2="35.412" y2="55.682" gradientUnits="userSpaceOnUse">
<stop stop-color="#4A0D73"/>
<stop offset="1" stop-color="#5032AD"/>
</linearGradient>
<linearGradient id="paint27_linear_192_3852" x1="6.43103" y1="58.4176" x2="64.4011" y2="58.4176" gradientUnits="userSpaceOnUse">
<stop stop-color="#E82AD5"/>
<stop offset="1" stop-color="#FFA3D1"/>
</linearGradient>
<linearGradient id="paint28_linear_192_3852" x1="31.7964" y1="58.0979" x2="50.8584" y2="58.0979" gradientUnits="userSpaceOnUse">
<stop stop-color="white"/>
<stop offset="0.44" stop-color="#881DED"/>
<stop offset="1" stop-color="#262262"/>
</linearGradient>
<linearGradient id="paint29_linear_192_3852" x1="44.4192" y1="15.2224" x2="44.5471" y2="66.4011" gradientUnits="userSpaceOnUse">
<stop stop-color="#6B24C7"/>
<stop offset="0.51" stop-color="#C741D1"/>
<stop offset="1" stop-color="#F768CA"/>
</linearGradient>
<linearGradient id="paint30_linear_192_3852" x1="1.91951" y1="36.2198" x2="69.0166" y2="36.2198" gradientUnits="userSpaceOnUse">
<stop stop-color="#E82AD5"/>
<stop offset="1" stop-color="#FFA3D1"/>
</linearGradient>
<linearGradient id="paint31_linear_192_3852" x1="40.7076" y1="11.8626" x2="40.7076" y2="68.7528" gradientUnits="userSpaceOnUse">
<stop stop-color="#941F63"/>
<stop offset="0.56" stop-color="#DE108C"/>
<stop offset="1" stop-color="#FF144B"/>
</linearGradient>
<linearGradient id="paint32_linear_192_3852" x1="49.4906" y1="66.2814" x2="50.6345" y2="64.6336" gradientUnits="userSpaceOnUse">
<stop stop-color="white"/>
<stop offset="0.44" stop-color="#881DED"/>
<stop offset="1" stop-color="#262262"/>
</linearGradient>
<linearGradient id="paint33_linear_192_3852" x1="43.0913" y1="26.5812" x2="56.8019" y2="22.5816" gradientUnits="userSpaceOnUse">
<stop stop-color="white"/>
<stop offset="0.44" stop-color="#881DED"/>
<stop offset="1" stop-color="#262262"/>
</linearGradient>
<linearGradient id="paint34_linear_192_3852" x1="47.8189" y1="50.6344" x2="47.8189" y2="39.7156" gradientUnits="userSpaceOnUse">
<stop stop-color="#655ED6"/>
<stop offset="1" stop-color="#F07FD8"/>
</linearGradient>
<linearGradient id="paint35_linear_192_3852" x1="43.8833" y1="50.6745" x2="43.8833" y2="54.4981" gradientUnits="userSpaceOnUse">
<stop stop-color="#E54136"/>
<stop offset="1" stop-color="white"/>
</linearGradient>
<linearGradient id="paint36_linear_192_3852" x1="51.8105" y1="18.9821" x2="54.9861" y2="18.9821" gradientUnits="userSpaceOnUse">
<stop stop-color="#351E52"/>
<stop offset="1" stop-color="#24289E"/>
</linearGradient>
<linearGradient id="paint37_linear_192_3852" x1="38.5237" y1="55.85" x2="41.5714" y2="48.4828" gradientUnits="userSpaceOnUse">
<stop stop-color="white"/>
<stop offset="0.44" stop-color="#881DED"/>
<stop offset="1" stop-color="#262262"/>
</linearGradient>
<linearGradient id="paint38_linear_192_3852" x1="-2.13582" y1="38.2036" x2="23.4456" y2="38.2036" gradientUnits="userSpaceOnUse">
<stop stop-color="white"/>
<stop offset="0.44" stop-color="#881DED"/>
<stop offset="1" stop-color="#262262"/>
</linearGradient>
<linearGradient id="paint39_linear_192_3852" x1="6.87104" y1="51.0905" x2="20.4136" y2="51.0905" gradientUnits="userSpaceOnUse">
<stop stop-color="white"/>
<stop offset="0.44" stop-color="#881DED"/>
<stop offset="1" stop-color="#262262"/>
</linearGradient>
<linearGradient id="paint40_linear_192_3852" x1="11.4385" y1="34.5964" x2="11.2545" y2="23.3575" gradientUnits="userSpaceOnUse">
<stop stop-color="white"/>
<stop offset="0.44" stop-color="#881DED"/>
<stop offset="1" stop-color="#262262"/>
</linearGradient>
<linearGradient id="paint41_linear_192_3852" x1="17.4939" y1="24.3569" x2="21.8455" y2="24.3569" gradientUnits="userSpaceOnUse">
<stop stop-color="#351E52"/>
<stop offset="1" stop-color="#24289E"/>
</linearGradient>
<linearGradient id="paint42_linear_192_3852" x1="19.1578" y1="50.3148" x2="63.3453" y2="50.3148" gradientUnits="userSpaceOnUse">
<stop stop-color="white"/>
<stop offset="0.44" stop-color="#881DED"/>
<stop offset="1" stop-color="#262262"/>
</linearGradient>
<linearGradient id="paint43_linear_192_3852" x1="-0.312286" y1="61.8411" x2="10.7106" y2="61.8411" gradientUnits="userSpaceOnUse">
<stop stop-color="#4A0D73"/>
<stop offset="1" stop-color="#5032AD"/>
</linearGradient>
<linearGradient id="paint44_linear_192_3852" x1="62.8894" y1="59.1537" x2="66.1851" y2="75.536" gradientUnits="userSpaceOnUse">
<stop stop-color="#6B24C7"/>
<stop offset="0.51" stop-color="#C741D1"/>
<stop offset="1" stop-color="#F768CA"/>
</linearGradient>
<linearGradient id="paint45_linear_192_3852" x1="26.877" y1="14.9104" x2="24.7253" y2="67.1931" gradientUnits="userSpaceOnUse">
<stop stop-color="#4A0D73"/>
<stop offset="1" stop-color="#5032AD"/>
</linearGradient>
<linearGradient id="paint46_linear_192_3852" x1="25.3972" y1="15.27" x2="25.5251" y2="66.4488" gradientUnits="userSpaceOnUse">
<stop stop-color="#6B24C7"/>
<stop offset="0.51" stop-color="#C741D1"/>
<stop offset="1" stop-color="#F768CA"/>
</linearGradient>
<linearGradient id="paint47_linear_192_3852" x1="60.5294" y1="67.265" x2="61.5453" y2="53.1065" gradientUnits="userSpaceOnUse">
<stop stop-color="white"/>
<stop offset="0.44" stop-color="#881DED"/>
<stop offset="1" stop-color="#262262"/>
</linearGradient>
<radialGradient id="paint48_radial_192_3852" cx="0" cy="0" r="1" gradientUnits="userSpaceOnUse" gradientTransform="translate(63.0091 22.9418) scale(10.9909 10.9909)">
<stop stop-color="#882785"/>
<stop offset="0.15" stop-color="#7A2377"/>
<stop offset="0.44" stop-color="#561854"/>
<stop offset="0.82" stop-color="#1D081C"/>
<stop offset="1"/>
</radialGradient>
<radialGradient id="paint49_radial_192_3852" cx="0" cy="0" r="1" gradientUnits="userSpaceOnUse" gradientTransform="translate(24.541 42.7233) scale(0.399959)">
<stop stop-color="#882785"/>
<stop offset="0.15" stop-color="#7A2377"/>
<stop offset="0.44" stop-color="#561854"/>
<stop offset="0.82" stop-color="#1D081C"/>
<stop offset="1"/>
</radialGradient>
<radialGradient id="paint50_radial_192_3852" cx="0" cy="0" r="1" gradientUnits="userSpaceOnUse" gradientTransform="translate(7.8069 24.4538) scale(0.399959)">
<stop stop-color="#882785"/>
<stop offset="0.15" stop-color="#7A2377"/>
<stop offset="0.44" stop-color="#561854"/>
<stop offset="0.82" stop-color="#1D081C"/>
<stop offset="1"/>
</radialGradient>
<radialGradient id="paint51_radial_192_3852" cx="0" cy="0" r="1" gradientUnits="userSpaceOnUse" gradientTransform="translate(13.5422 49.9945) scale(0.399959)">
<stop stop-color="#882785"/>
<stop offset="0.15" stop-color="#7A2377"/>
<stop offset="0.44" stop-color="#561854"/>
<stop offset="0.82" stop-color="#1D081C"/>
<stop offset="1"/>
</radialGradient>
<radialGradient id="paint52_radial_192_3852" cx="0" cy="0" r="1" gradientUnits="userSpaceOnUse" gradientTransform="translate(38.0117 49.1471) scale(10.9909 10.9909)">
<stop stop-color="#27A0D7"/>
<stop offset="0.1" stop-color="#2495C9"/>
<stop offset="0.3" stop-color="#1E7BA5"/>
<stop offset="0.57" stop-color="#13506B"/>
<stop offset="0.89" stop-color="#05151C"/>
<stop offset="1"/>
</radialGradient>
<linearGradient id="paint53_linear_192_3852" x1="43.1313" y1="49.3227" x2="46.179" y2="45.8911" gradientUnits="userSpaceOnUse">
<stop stop-color="white"/>
<stop offset="0.44" stop-color="#881DED"/>
<stop offset="1" stop-color="#262262"/>
</linearGradient>
<linearGradient id="paint54_linear_192_3852" x1="42.8255" y1="56.4592" x2="53.1426" y2="56.2647" gradientUnits="userSpaceOnUse">
<stop stop-color="#E07BD8"/>
<stop offset="0.11" stop-color="#BE73D7"/>
<stop offset="0.29" stop-color="#8E67D6"/>
<stop offset="0.42" stop-color="#7060D6"/>
<stop offset="0.5" stop-color="#655ED6"/>
<stop offset="0.57" stop-color="#6F60D6"/>
<stop offset="0.69" stop-color="#8C67D6"/>
<stop offset="0.84" stop-color="#BA72D7"/>
<stop offset="1" stop-color="#F07FD8"/>
</linearGradient>
<linearGradient id="paint55_linear_192_3852" x1="43.161" y1="56.4363" x2="50.5989" y2="56.2961" gradientUnits="userSpaceOnUse">
<stop stop-color="#6544CF"/>
<stop offset="0.49" stop-color="#993EC7"/>
<stop offset="1" stop-color="#662D87"/>
</linearGradient>
<linearGradient id="paint56_linear_192_3852" x1="42.6409" y1="56.4297" x2="47.9754" y2="56.3292" gradientUnits="userSpaceOnUse">
<stop stop-color="#351E52"/>
<stop offset="1" stop-color="#24289E"/>
</linearGradient>
<linearGradient id="paint57_linear_192_3852" x1="48.7707" y1="52.2596" x2="48.9237" y2="60.3738" gradientUnits="userSpaceOnUse">
<stop stop-color="#FFBB00"/>
<stop offset="0.53" stop-color="#FF5319"/>
<stop offset="1" stop-color="#FF4000"/>
</linearGradient>
<linearGradient id="paint58_linear_192_3852" x1="45.1601" y1="56.3819" x2="49.8468" y2="56.2936" gradientUnits="userSpaceOnUse">
<stop stop-color="#8B2788"/>
<stop offset="1" stop-color="white"/>
</linearGradient>
<radialGradient id="paint59_radial_192_3852" cx="0" cy="0" r="1" gradientUnits="userSpaceOnUse" gradientTransform="translate(49.4815 56.0122) rotate(88.92) scale(3.02377 2.9357)">
<stop stop-color="#00FFFF"/>
<stop offset="0.19" stop-color="#00FCFC"/>
<stop offset="0.32" stop-color="#00F2F2"/>
<stop offset="0.44" stop-color="#00E3E3"/>
<stop offset="0.54" stop-color="#00CDCD"/>
<stop offset="0.64" stop-color="#00B0B0"/>
<stop offset="0.74" stop-color="#008D8D"/>
<stop offset="0.83" stop-color="#006363"/>
<stop offset="0.92" stop-color="#003434"/>
<stop offset="1"/>
</radialGradient>
<linearGradient id="paint60_linear_192_3852" x1="53.2711" y1="43.0911" x2="54.3655" y2="43.6289" gradientUnits="userSpaceOnUse">
<stop stop-color="white"/>
<stop offset="1" stop-color="#FFF7C4"/>
</linearGradient>
<linearGradient id="paint61_linear_192_3852" x1="45.6347" y1="50.572" x2="45.8546" y2="62.2365" gradientUnits="userSpaceOnUse">
<stop stop-color="#6544CF"/>
<stop offset="0.49" stop-color="#993EC7"/>
<stop offset="1" stop-color="#662D87"/>
</linearGradient>
<linearGradient id="paint62_linear_192_3852" x1="51.9821" y1="59.2118" x2="52.0281" y2="61.6501" gradientUnits="userSpaceOnUse">
<stop stop-color="#EBBD38"/>
<stop offset="1" stop-color="#FFF29E"/>
</linearGradient>
<radialGradient id="paint63_radial_192_3852" cx="0" cy="0" r="1" gradientUnits="userSpaceOnUse" gradientTransform="translate(49.5131 43.0531) scale(9.05507)">
<stop offset="0.1" stop-color="#EFE332"/>
<stop offset="0.17" stop-color="#D6CB2C"/>
<stop offset="0.48" stop-color="#7B7519"/>
<stop offset="0.73" stop-color="#39360B"/>
<stop offset="0.91" stop-color="#0F0E03"/>
<stop offset="1"/>
</radialGradient>
<linearGradient id="paint64_linear_192_3852" x1="25.6301" y1="43.2738" x2="34.2298" y2="43.165" gradientUnits="userSpaceOnUse">
<stop stop-color="#655ED6"/>
<stop offset="1" stop-color="#C88FF0"/>
</linearGradient>
<linearGradient id="paint65_linear_192_3852" x1="30.5107" y1="38.2185" x2="26.7855" y2="42.0378" gradientUnits="userSpaceOnUse">
<stop stop-color="white"/>
<stop offset="0.44" stop-color="#ED8A1D"/>
<stop offset="1" stop-color="#B41E2D"/>
</linearGradient>
<linearGradient id="paint66_linear_192_3852" x1="32.6445" y1="43.3346" x2="28.6217" y2="43.414" gradientUnits="userSpaceOnUse">
<stop stop-color="#655ED6"/>
<stop offset="1" stop-color="#C88FF0"/>
</linearGradient>
<linearGradient id="paint67_linear_192_3852" x1="30.6969" y1="43.3554" x2="24.2101" y2="43.4433" gradientUnits="userSpaceOnUse">
<stop stop-color="#C7C8FF"/>
<stop offset="1" stop-color="#D8D4FF"/>
</linearGradient>
<linearGradient id="paint68_linear_192_3852" x1="31.3413" y1="40.7344" x2="31.4439" y2="45.9329" gradientUnits="userSpaceOnUse">
<stop stop-color="#705AB5"/>
<stop offset="1" stop-color="#662D87"/>
</linearGradient>
<linearGradient id="paint69_linear_192_3852" x1="27.5959" y1="67.1712" x2="28.416" y2="66.4143" gradientUnits="userSpaceOnUse">
<stop stop-color="#F9B233"/>
<stop offset="1" stop-color="#FFFB00"/>
</linearGradient>
<linearGradient id="paint70_linear_192_3852" x1="28.3483" y1="66.8963" x2="27.1706" y2="68.4028" gradientUnits="userSpaceOnUse">
<stop stop-color="#FFBB00"/>
<stop offset="1" stop-color="#FF5319"/>
</linearGradient>
<linearGradient id="paint71_linear_192_3852" x1="28.1133" y1="66.5884" x2="29.2961" y2="68.4695" gradientUnits="userSpaceOnUse">
<stop stop-color="#FFBB00"/>
<stop offset="1" stop-color="#FF5319"/>
</linearGradient>
<linearGradient id="paint72_linear_192_3852" x1="27.5735" y1="66.0132" x2="27.0847" y2="65.4959" gradientUnits="userSpaceOnUse">
<stop stop-color="#FFBB00"/>
<stop offset="1" stop-color="#FF5319"/>
</linearGradient>
<linearGradient id="paint73_linear_192_3852" x1="29.4156" y1="65.3624" x2="28.5832" y2="66.6935" gradientUnits="userSpaceOnUse">
<stop stop-color="#FFBB00"/>
<stop offset="1" stop-color="#FF5319"/>
</linearGradient>
<linearGradient id="paint74_linear_192_3852" x1="31.8225" y1="40.9582" x2="31.8225" y2="40.9582" gradientUnits="userSpaceOnUse">
<stop stop-color="white"/>
<stop offset="1" stop-color="#FFF7C4"/>
</linearGradient>
<linearGradient id="paint75_linear_192_3852" x1="30.0036" y1="43.2989" x2="30.0116" y2="43.2987" gradientUnits="userSpaceOnUse">
<stop stop-color="white"/>
<stop offset="1" stop-color="#FFF7C4"/>
</linearGradient>
<linearGradient id="paint76_linear_192_3852" x1="22.3333" y1="42.8119" x2="30.6125" y2="42.8119" gradientUnits="userSpaceOnUse">
<stop stop-color="white"/>
<stop offset="0.44" stop-color="#881DED"/>
<stop offset="1" stop-color="#262262"/>
</linearGradient>
<linearGradient id="paint77_linear_192_3852" x1="56.9054" y1="41.4603" x2="64.3919" y2="41.589" gradientUnits="userSpaceOnUse">
<stop stop-color="#655ED6"/>
<stop offset="1" stop-color="#C88FF0"/>
</linearGradient>
<linearGradient id="paint78_linear_192_3852" x1="61.0123" y1="37.445" x2="57.6297" y2="40.7185" gradientUnits="userSpaceOnUse">
<stop stop-color="white"/>
<stop offset="0.44" stop-color="#ED8A1D"/>
<stop offset="1" stop-color="#B41E2D"/>
</linearGradient>
<linearGradient id="paint79_linear_192_3852" x1="62.4364" y1="41.9299" x2="58.9249" y2="41.8956" gradientUnits="userSpaceOnUse">
<stop stop-color="#655ED6"/>
<stop offset="1" stop-color="#C88FF0"/>
</linearGradient>
<linearGradient id="paint80_linear_192_3852" x1="60.7597" y1="41.8976" x2="55.1768" y2="41.8191" gradientUnits="userSpaceOnUse">
<stop stop-color="#C7C8FF"/>
<stop offset="1" stop-color="#D8D4FF"/>
</linearGradient>
<linearGradient id="paint81_linear_192_3852" x1="61.3663" y1="39.5759" x2="61.3208" y2="44.2312" gradientUnits="userSpaceOnUse">
<stop stop-color="#705AB5"/>
<stop offset="1" stop-color="#662D87"/>
</linearGradient>
<linearGradient id="paint82_linear_192_3852" x1="56.6213" y1="65.3542" x2="57.3595" y2="64.6992" gradientUnits="userSpaceOnUse">
<stop stop-color="#F9B233"/>
<stop offset="1" stop-color="#FFFB00"/>
</linearGradient>
<linearGradient id="paint83_linear_192_3852" x1="57.3188" y1="65.1323" x2="56.2063" y2="66.4631" gradientUnits="userSpaceOnUse">
<stop stop-color="#FFBB00"/>
<stop offset="1" stop-color="#FF5319"/>
</linearGradient>
<linearGradient id="paint84_linear_192_3852" x1="57.0576" y1="64.8482" x2="58.0796" y2="66.5743" gradientUnits="userSpaceOnUse">
<stop stop-color="#FFBB00"/>
<stop offset="1" stop-color="#FF5319"/>
</linearGradient>
<linearGradient id="paint85_linear_192_3852" x1="56.6336" y1="64.3163" x2="56.205" y2="63.8376" gradientUnits="userSpaceOnUse">
<stop stop-color="#FFBB00"/>
<stop offset="1" stop-color="#FF5319"/>
</linearGradient>
<linearGradient id="paint86_linear_192_3852" x1="58.2615" y1="63.7814" x2="57.4834" y2="64.9578" gradientUnits="userSpaceOnUse">
<stop stop-color="#FFBB00"/>
<stop offset="1" stop-color="#FF5319"/>
</linearGradient>
<linearGradient id="paint87_linear_192_3852" x1="62.041" y1="39.8948" x2="62.041" y2="39.8948" gradientUnits="userSpaceOnUse">
<stop stop-color="white"/>
<stop offset="1" stop-color="#FFF7C4"/>
</linearGradient>
<linearGradient id="paint88_linear_192_3852" x1="60.1416" y1="41.8276" x2="60.1496" y2="41.8277" gradientUnits="userSpaceOnUse">
<stop stop-color="white"/>
<stop offset="1" stop-color="#FFF7C4"/>
</linearGradient>
<linearGradient id="paint89_linear_192_3852" x1="54.5763" y1="41.3394" x2="60.9009" y2="41.5249" gradientUnits="userSpaceOnUse">
<stop stop-color="white"/>
<stop offset="0.44" stop-color="#881DED"/>
<stop offset="1" stop-color="#262262"/>
</linearGradient>
<clipPath id="clip0_192_3852">
<rect width="78" height="69.6009" fill="white" transform="translate(-4)"/>
</clipPath>
</defs>
</svg>
