<svg width="71" height="70" viewBox="0 0 71 70" fill="none" xmlns="http://www.w3.org/2000/svg">
<g clip-path="url(#clip0_192_3237)">
<g clip-path="url(#clip1_192_3237)">
<path d="M15.0802 55.8706C15.0802 55.8706 5.88942 24.7695 7.70875 17.3824C9.53592 9.99525 13.7706 5.88608 21.487 18.4645C30.4817 33.1211 27.8782 57.0547 27.8782 57.0547L15.0802 55.8706Z" fill="#8C1927"/>
<path d="M58.9165 55.808L27.8781 57.0549C27.8781 57.0549 28.9603 41.3161 25.5569 28.8082C22.1535 16.3003 16.0132 11.4069 13.7704 10.5757C13.7704 10.5757 28.4584 13.1478 37.4217 13.8144C46.3851 14.481 57.9206 13.3988 61.5749 12.6538C61.5749 12.6538 66.0605 35.7248 58.9165 55.808Z" fill="url(#paint0_linear_192_3237)"/>
<path d="M29.2663 20.0176C29.2663 20.0176 51.5531 21.139 56.7758 20.9508L57.2149 21.3899L28.2233 20.2685L29.2663 20.0176Z" fill="#7C1338"/>
<path d="M29.0858 29.106C40.1037 29.7255 58.6499 29.106 58.6499 29.106L57.9676 29.7255C57.9676 29.7255 36.614 29.3491 26.7802 29.7255L29.0858 29.106Z" fill="#7C1338"/>
<path d="M33.2735 52.5696C33.2735 52.5696 47.0596 52.3971 58.0227 51.26C58.203 51.2444 57.7168 51.9109 57.7168 51.9109C57.7168 51.9109 32.0659 53.0637 32.2541 53.0637C32.4423 53.0637 33.2735 52.5696 33.2735 52.5696Z" fill="#7C1338"/>
<path opacity="0.46" d="M37.5788 20.6213C37.5788 20.6213 45.3894 21.3193 48.0635 21.5388C50.7376 21.7584 55.1291 21.3036 55.1291 21.3036L37.5788 20.6213Z" fill="url(#paint1_radial_192_3237)"/>
<path opacity="0.46" d="M36.4258 29.5608L52.8311 29.6471C52.8311 29.6471 47.1065 29.8745 43.0914 29.9686C39.0764 30.0627 36.4336 29.5608 36.4336 29.5608H36.4258Z" fill="url(#paint2_radial_192_3237)"/>
<path opacity="0.46" d="M36.1593 52.8906C36.2848 52.8906 50.2434 52.2554 50.2434 52.2554C50.2434 52.2554 43.4366 53.1337 40.143 53.0709C36.8415 53.0082 36.1593 52.8906 36.1593 52.8906Z" fill="url(#paint3_radial_192_3237)"/>
<path style="mix-blend-mode:screen" opacity="0.3" d="M33.0225 17.2099C34.4027 18.4882 38.0884 19.4919 40.6998 19.5782C43.3112 19.6645 51.8197 16.5826 50.9257 15.3906C50.0317 14.1908 40.5822 14.8495 36.0966 14.3947C31.611 13.9398 30.3249 14.724 33.0225 17.2178V17.2099Z" fill="url(#paint4_radial_192_3237)"/>
<path style="mix-blend-mode:screen" opacity="0.3" d="M35.4298 21.6017C34.2614 22.9349 36.2219 28.1733 36.9198 28.2517C37.6256 28.3379 46.1341 22.5663 44.2206 22.0252C42.3151 21.4841 36.4179 20.4646 35.422 21.5939L35.4298 21.6017Z" fill="url(#paint5_radial_192_3237)"/>
<path d="M53.0507 20.9428C53.0507 20.386 52.5488 19.2019 51.7254 19.2646C50.9098 19.3273 49.9374 20.9428 49.9374 20.9428H53.0507Z" fill="#7C1338"/>
<path d="M36.1593 52.5142C35.2261 52.3731 37.2023 51.3301 37.9237 51.6359C38.6452 51.9496 39.0451 52.428 39.0451 52.428C39.0451 52.428 37.6649 52.7338 36.1593 52.5064V52.5142Z" fill="#7C1338"/>
<path style="mix-blend-mode:soft-light" opacity="0.5" d="M35.171 55.6824C34.9828 42.7354 44.6519 47.0876 50.0943 47.4562C55.5366 47.8248 54.078 54.3022 53.3408 55.2981C52.6037 56.3019 35.1867 56.9842 35.171 55.6746V55.6824Z" fill="url(#paint6_linear_192_3237)"/>
<path d="M27.878 9.49372C27.878 9.49372 20.3263 6.72552 8.95544 6.92156C8.95544 6.92156 18.8284 10.1446 22.8984 21.437C26.9684 32.7294 27.682 56.6159 27.682 56.6159L35.171 55.6827C35.171 55.6827 36.4022 42.9004 35.171 29.9141C33.9242 16.7161 27.8702 9.49372 27.8702 9.49372H27.878Z" fill="url(#paint7_linear_192_3237)"/>
<path d="M48.377 10.3957C48.377 10.3957 58.9166 8.92142 65.8881 9.16452C65.8881 9.16452 70.2011 12.5679 70.4521 24.1034C70.703 35.6389 61.6142 54.3576 61.6142 54.3576L55.4426 54.7811C55.4426 54.7811 60.2811 42.681 59.4185 29.2477C58.3363 12.4817 48.377 10.3879 48.377 10.3879V10.3957Z" fill="url(#paint8_linear_192_3237)"/>
<path d="M16.2564 17.9628C11.4022 17.406 13.0177 25.8675 13.7705 30.1649C14.5155 34.4623 19.5578 57.0549 19.5578 57.0549H16.6328C16.6328 57.0549 11.8414 39.1282 10.0299 29.4826C8.21839 19.837 9.09669 16.2219 11.2767 15.2887C13.4568 14.3555 16.2564 17.9628 16.2564 17.9628Z" fill="url(#paint9_linear_192_3237)"/>
<path d="M23.91 56.2313L24.6158 55.7373L24.5844 55.4314C24.4825 54.4512 24.0982 51.1341 23.2435 45.8407C23.0082 44.3586 22.7337 42.7275 22.4122 40.9474C22.3573 40.6102 22.2946 40.2651 22.2319 39.9201C21.9888 38.5713 21.7221 37.1362 21.432 35.6384C21.3536 35.2149 21.2673 34.7993 21.181 34.3915C21.1575 34.2974 21.1418 34.2112 21.1261 34.1249L21.0634 33.8112C18.405 21.3268 14.7036 16.2766 11.9746 16.2766C9.2456 16.2766 9.52791 22.9188 11.4727 33.2309C11.5119 33.4191 11.5433 33.6152 11.5825 33.8112C11.5903 33.8661 11.606 33.921 11.6139 33.9681C11.9432 35.6541 12.351 37.5048 12.798 39.3947C12.8686 39.6927 12.9392 39.9985 13.0097 40.2965C13.4018 41.9511 13.8175 43.6215 14.2252 45.2134C15.4721 50.1068 16.6327 54.263 16.8758 55.1178C16.9072 55.2197 16.9229 55.2746 16.9229 55.2746L19.0559 55.7294L14.2174 55.2354C14.1468 55.0393 14.0762 54.8511 14.0057 54.6551L13.9821 54.6002C12.8451 51.5026 11.7707 48.2561 10.7905 44.9781C10.2964 43.3392 9.83375 41.6924 9.3946 40.0534C9.31618 39.7711 9.2456 39.4809 9.16718 39.1986C8.68882 37.3871 8.24968 35.5835 7.85758 33.8112C7.85758 33.7798 7.84189 33.7563 7.83405 33.725L7.79484 33.5446C4.67375 19.6251 4.13266 7.63482 8.95545 6.92121C14.3742 6.12133 23.0631 15.4689 25.5568 28.8081C25.8705 30.5019 26.145 32.2977 26.3724 34.1249C26.3881 34.219 26.3959 34.3131 26.4116 34.4072C26.6312 36.2187 26.8194 38.0615 26.9684 39.873C26.9998 40.2181 27.0233 40.5631 27.0546 40.9003C27.188 42.5785 27.2899 44.2175 27.3683 45.7623C27.3683 45.7623 27.3683 45.7702 27.3683 45.778C27.6428 50.8988 27.682 55.0158 27.682 56.2392C27.682 56.4823 27.682 56.6156 27.682 56.6156L23.9022 56.2313H23.91Z" fill="url(#paint10_linear_192_3237)"/>
<path d="M48.377 10.395C45.9617 10.395 44.0639 14.018 44.0639 14.018C44.0639 14.018 47.7104 13.9945 49.0827 13.9317C49.0827 13.9317 54.0075 14.1592 56.3444 24.7222C58.7519 35.5912 53.8977 54.5608 53.8977 54.5608L55.4426 54.7804C55.4426 54.7804 60.0615 44.578 60.0615 29.843C60.0615 18.6447 53.733 10.395 48.3848 10.395H48.377Z" fill="url(#paint11_linear_192_3237)"/>
<path d="M7.70871 38.8069L7.99886 40.0616L23.8631 41.4496L69.6679 39.1833L69.9815 37.4424L23.0475 38.5951L7.70871 38.8069Z" fill="url(#paint12_linear_192_3237)"/>
<path d="M71.6988 33.2312L70.4598 37.9913L26.9684 39.8733L26.4822 39.8968L23.8159 40.0145L22.2318 39.9282L12.7902 39.4028L9.15934 39.1989L6.79891 39.0656C5.92846 36.5954 5.92846 33.7252 5.92846 33.7252L7.84189 33.8115L11.606 33.9762L21.1732 34.3996L23.3062 34.4938L26.4038 34.4153L71.6988 33.239V33.2312Z" fill="url(#paint13_linear_192_3237)"/>
<path d="M70.3345 38.9949L68.9857 43.3393L27.3685 45.7546L24.4748 45.9193L23.2436 45.833L14.2176 45.2057L10.7828 44.9704L8.96346 44.845C7.59897 42.2571 6.80693 39.8653 6.80693 39.8653L9.38693 40.0457L13.0099 40.2966L22.4202 40.9475L23.8161 41.0416L27.0548 40.9005L70.3423 38.9949H70.3345Z" fill="url(#paint14_linear_192_3237)"/>
<path d="M23.3142 34.4859L23.8161 40.0145L70.3423 38.4539L71.699 33.2312L23.3142 34.4859Z" fill="url(#paint15_radial_192_3237)"/>
<path d="M24.4747 45.9271L23.8081 41.0416L70.3343 38.9949L68.9855 43.3393C68.9855 43.3393 24.8824 45.9507 24.4747 45.9271Z" fill="url(#paint16_radial_192_3237)"/>
<path d="M6.7989 39.8732L7.85756 39.4498L7.90461 39.6615L24.9765 40.2732L69.7618 38.6342L69.7932 38.4539L70.3343 38.995L23.8081 41.0417L6.7989 39.8732Z" fill="#B3BED4"/>
<path d="M67.1741 54.7809L64.3118 61.6191L28.2311 64.105L12.108 61.7838L10.3436 54.5613L13.6451 53.7301L13.9744 54.5927L13.9901 54.6554L16.8681 55.1181L19.056 54.7809L24.5846 55.4318L24.6159 55.7376L27.6821 56.2395L35.179 55.6827L35.2182 55.2122L53.8977 54.5613L55.4426 54.7809L61.6142 54.3496L62.0769 53.3772L67.1741 54.7809Z" fill="url(#paint17_linear_192_3237)"/>
<path d="M67.1741 54.7804C67.1741 54.7804 61.9827 56.6389 50.7844 57.0545C39.5783 57.4702 28.231 57.0389 28.231 57.0389C14.2096 55.2352 10.3514 54.5608 10.3514 54.5608L13.6528 53.7296L13.9979 54.6471L16.8131 55.1019C16.868 55.1097 16.9151 55.1097 16.97 55.1019L19.0638 54.7725L24.5923 55.4234L24.6237 55.7293L27.6899 56.239L35.1789 55.6822L35.2182 55.2195L53.8977 54.5687L55.4425 54.7882L61.6141 54.3648L62.0768 53.3845L67.1741 54.7882V54.7804Z" fill="url(#paint18_linear_192_3237)"/>
<path d="M28.2311 57.0388V64.1044L64.3118 61.6106L67.1741 54.7725C67.1741 54.7725 59.5831 56.0036 48.8711 56.7329C41.0448 57.2662 28.2232 57.0309 28.2232 57.0309L28.2311 57.0388Z" fill="url(#paint19_linear_192_3237)"/>
<path d="M71.6988 33.2314L26.4038 34.4077L23.3062 34.4861L21.181 34.392L11.606 33.9764L7.84189 33.8039L5.92846 33.7255L7.77916 33.5451L7.81837 33.7255L11.5747 33.8117L14.4683 33.6784L21.0556 33.8117L21.1183 34.1254H26.3724L35.4769 33.8352L35.4612 33.5451L57.0108 32.855L59.9751 33.2314L69.3776 32.855L69.4403 32.5884L71.6988 33.2314Z" fill="#B3BED4"/>
<path d="M33.2734 57.0468C33.2734 57.0468 35.4299 56.592 42.7386 56.2626C50.0395 55.9333 64.8921 55.1099 64.8921 55.1099C64.8921 55.1099 62.3513 56.6155 52.0627 57.2272C43.7738 57.7212 33.2734 57.0468 33.2734 57.0468Z" fill="#D1D9E8"/>
<path style="mix-blend-mode:multiply" opacity="0.49" d="M44.0639 14.018C44.0639 14.018 45.6637 10.7322 48.377 10.395C51.0903 10.05 56.5404 14.2454 58.5166 20.6288C60.4928 27.0121 59.9752 33.2386 59.9752 33.2386H56.9953L53.0429 32.3525C53.0429 32.3525 52.5802 27.2631 50.9883 21.8129C49.3886 16.3549 45.1618 13.9553 45.1618 13.9553L44.0639 14.0259V14.018Z" fill="url(#paint20_linear_192_3237)"/>
<path d="M38.3705 33.4504V31.1606C38.3705 31.1606 47.7102 30.1646 53.6466 31.3566C53.6466 31.3566 57.348 32.7525 57.6538 33.8111C57.9675 34.8698 57.0813 46.8287 56.5324 47.3385C55.5443 48.2638 52.6114 49.7695 52.6114 49.7695L38.6293 50.2714L37.9156 45.1741L40.0957 45.1035C40.0957 45.1035 40.4408 42.1942 40.6917 40.0141L40.7231 39.3162C40.7231 39.3162 40.7858 36.0147 40.3467 34.1483L38.3626 33.4504H38.3705Z" fill="url(#paint21_linear_192_3237)"/>
<path d="M44.9736 34.7685C44.8403 36.1643 44.456 46.1001 44.456 46.7196C44.456 47.3391 55.5131 47.841 56.3209 47.4018C57.1286 46.9627 57.8893 34.988 56.9639 34.3058C56.4699 33.9372 45.0206 34.2352 44.9736 34.7685Z" fill="url(#paint22_linear_192_3237)"/>
<g style="mix-blend-mode:soft-light" opacity="0.5">
<path d="M46.0166 42.971C45.1305 42.9475 44.8247 35.7407 45.601 35.1055C46.3774 34.4625 56.8071 33.992 56.9483 34.7134C57.0895 35.4349 57.5521 43.7395 56.5562 43.9042C55.5603 44.0689 53.5449 41.8731 53.3488 41.2928C53.1528 40.7125 51.6864 38.5481 50.9257 38.4697C50.165 38.3913 48.7927 43.0494 46.0166 42.9788V42.971Z" fill="#594275"/>
</g>
<g style="mix-blend-mode:screen" opacity="0.31">
<path d="M38.3707 31.1528C38.3707 31.1528 39.2647 31.9526 44.0326 33.5367C44.707 33.7641 57.1914 34.117 57.2227 33.8112C57.2855 33.2309 54.3212 31.4508 53.6468 31.3566C47.5066 30.4705 41.4918 30.7136 38.3707 31.1606V31.1528Z" fill="#776191"/>
</g>
<path style="mix-blend-mode:multiply" opacity="0.5" d="M42.7621 48.1618C40.4644 49.0636 38.6294 50.2635 38.6294 50.2635L52.6116 49.7616C52.6116 49.7616 55.5366 48.2951 55.4974 47.9579C55.4582 47.6129 44.8559 47.3306 42.7621 48.154V48.1618Z" fill="url(#paint23_linear_192_3237)"/>
<path d="M48.126 44.8296C48.7848 45.057 51.0746 45.7314 53.2155 44.9237C53.3096 44.8845 53.3566 44.7825 53.3331 44.6884L51.8902 39.897C51.8431 39.7009 51.8902 39.497 52.0235 39.348C52.2979 39.0108 52.447 38.556 52.3842 38.0698C52.2823 37.3248 51.6706 36.7288 50.9256 36.6504C49.9218 36.5406 49.0749 37.3248 49.0749 38.2972C49.0749 38.6031 49.2788 38.9716 49.467 39.2539C49.6552 39.5284 49.7101 39.8656 49.6239 40.1871L48.0006 44.5943C47.9614 44.6962 48.0163 44.8139 48.1182 44.8452L48.126 44.8296Z" fill="url(#paint24_linear_192_3237)"/>
<path d="M53.2232 44.9157C52.2272 45.2921 51.1921 45.3548 50.3138 45.2764C50.8471 45.2294 51.396 45.1196 51.9371 44.9157C52.0312 44.8765 52.0782 44.7745 52.0547 44.6804L50.6118 39.8812C50.5648 39.6851 50.6118 39.4812 50.7451 39.3322C51.0196 38.995 51.1686 38.5402 51.1058 38.054C51.0274 37.4659 50.6353 36.9718 50.1021 36.7522C50.353 36.6503 50.6353 36.6032 50.9333 36.6346C51.6783 36.713 52.29 37.3169 52.3919 38.054C52.4547 38.5402 52.3135 38.995 52.0312 39.3322C51.9057 39.4891 51.8508 39.693 51.8979 39.8812L53.3408 44.6804C53.3722 44.7745 53.3173 44.8843 53.2232 44.9157Z" fill="url(#paint25_linear_192_3237)"/>
<path d="M54.8543 14.7637C55.0895 16.1753 55.8894 18.9984 56.6971 19.163C57.1285 19.2493 57.2539 19.0925 57.4892 18.7709C58.1479 17.877 58.0616 15.8616 57.3794 15.2185C56.6971 14.5755 54.6033 13.2973 54.8543 14.7637Z" fill="url(#paint26_linear_192_3237)"/>
<path d="M55.9131 16.9278C55.1368 17.1552 56.1797 19.2019 56.8071 19.2647C57.4266 19.3274 57.8658 16.3631 55.9131 16.9278Z" fill="#4C5496"/>
<path style="mix-blend-mode:multiply" opacity="0.49" d="M55.4424 54.7811C55.4424 54.7811 58.2106 47.4018 58.6498 43.9435H57.1284C57.1284 43.9435 56.9089 46.5314 56.5403 47.3391C56.5403 47.3391 48.1965 47.888 45.1695 47.5665C44.2128 47.4646 44.4715 45.9197 44.6362 41.9909C44.8009 38.0621 44.4559 33.6784 44.0324 33.5373C43.6168 33.3961 38.3705 31.1533 38.3705 31.1533L35.4455 33.2314L35.469 33.5451L37.9314 33.4667L38.645 34.1411C38.645 34.1411 39.2567 37.3641 39.0685 39.505L37.4922 39.5599V39.8187L39.0606 40.3754C39.0606 40.3754 39.0057 43.3946 38.5823 45.112L35.6023 45.308L35.4533 51.5816C35.4533 51.5816 42.4797 50.8287 50.6824 50.8287C51.0039 50.8287 50.8627 53.2754 50.9333 54.6713L53.9054 54.5693L55.4503 54.7889L55.4424 54.7811Z" fill="url(#paint27_linear_192_3237)"/>
<path style="mix-blend-mode:multiply" opacity="0.49" d="M28.231 57.0393V64.1049L12.108 61.7837L10.3435 54.5612L13.645 53.73L13.9665 54.5926C12.8294 51.495 11.7551 48.2485 10.7748 44.9705L8.95551 44.8451C7.59101 42.2572 6.79898 39.8654 6.79898 39.8654L7.85764 39.442C7.77922 39.1597 7.85764 39.3949 7.77922 39.1126L6.79113 39.0577C5.92068 36.5875 5.92068 33.7174 5.92068 33.7174L7.77922 33.537C4.67381 19.6254 4.13272 7.63507 8.95551 6.92145C14.3743 6.12157 23.0632 15.4692 25.5569 28.8083C25.8706 30.5022 26.145 32.298 26.3725 34.1251L23.3141 34.4937L23.816 40.0144L36.3866 39.591L34.0419 39.9752L23.8081 41.0496L24.4747 45.9351L27.3684 45.7861L27.6821 56.2472L23.9101 56.2316L28.231 57.0393Z" fill="url(#paint28_linear_192_3237)"/>
<path style="mix-blend-mode:multiply" opacity="0.49" d="M14.398 45.9274C16.4212 45.9509 17.6916 48.2721 17.6916 48.2721C17.6916 48.2721 20.7578 48.3976 24.0592 51.2599L23.2437 45.8411L17.0721 45.4412L14.2176 45.2138L10.7828 44.9785L10.9554 45.5588L14.398 45.9274Z" fill="url(#paint29_linear_192_3237)"/>
<path style="mix-blend-mode:multiply" opacity="0.49" d="M11.967 16.2768C9.99082 16.1514 9.45756 20.9349 10.5005 27.5143C10.5005 27.5143 11.4024 25.742 12.9629 25.1774C12.9629 25.1774 15.6213 25.6401 17.8563 27.6712C19.2129 28.9102 20.3579 30.7609 20.3579 30.7609C20.3579 30.7609 18.5072 23.7894 16.5467 20.3703C14.5862 16.9434 12.8766 16.3396 11.9748 16.2847L11.967 16.2768Z" fill="url(#paint30_linear_192_3237)"/>
<path d="M23.3061 34.4861C22.9375 35.0115 22.6866 36.674 22.8983 37.4425C23.1022 38.211 23.7923 39.7716 23.7923 39.7716C23.7923 39.7716 23.8472 37.5444 23.808 36.7995C23.7688 36.0545 23.3061 34.4861 23.3061 34.4861Z" fill="#5C719C"/>
<path d="M23.8082 41.0415C24.3885 41.7786 24.561 42.9393 24.6786 43.3157C24.8041 43.6921 24.4747 45.927 24.4747 45.927C24.4747 45.927 23.6043 43.5352 23.6043 43.1745C23.6043 42.8138 23.8082 41.0415 23.8082 41.0415Z" fill="#5C719C"/>
<path d="M27.4077 47.0488C27.094 48.7505 26.553 51.1266 26.7804 51.5815C27.0078 52.0363 27.6822 56.2474 27.6822 56.2474C27.6822 56.2474 28.286 52.9224 28.0429 51.652C27.7998 50.3817 27.4077 47.0567 27.4077 47.0567V47.0488Z" fill="#5C719C"/>
<path d="M21.5263 17.343C20.3814 17.3744 22.5144 25.8829 22.828 26.1338C23.1417 26.3848 24.4984 26.6906 24.9375 26.2593C25.3767 25.828 25.5884 22.2521 25.3924 21.6012C24.7179 19.2643 22.7653 17.3116 21.5263 17.3509V17.343Z" fill="url(#paint31_linear_192_3237)"/>
<path d="M23.8316 23.5149C22.5769 21.7505 21.9417 21.6485 21.9888 22.6053C22.0358 23.562 22.7416 26.142 23.0239 26.2439C23.3141 26.3459 24.2237 26.5576 24.4354 26.0479C24.6472 25.546 24.3021 24.1737 23.8316 23.5149Z" fill="#4C5496"/>
<g style="mix-blend-mode:soft-light" opacity="0.5">
<path d="M41.3664 40.2027C41.1077 40.783 40.1117 48.0054 40.4019 48.2956C40.692 48.5936 43.7818 46.8527 43.9935 46.4606C44.1974 46.0685 44.2758 41.7005 43.7818 40.7203C43.2877 39.74 41.6252 39.6459 41.3743 40.2027H41.3664Z" fill="#25425C"/>
</g>
<g style="mix-blend-mode:soft-light" opacity="0.29">
<path d="M22.6396 37.6929C23.1023 38.2575 23.5414 39.771 23.3062 39.771C23.0709 39.771 17.7149 39.6456 17.66 39.4417C17.5972 39.2456 22.1063 37.042 22.6396 37.6851V37.6929Z" fill="#9CE5FF"/>
</g>
<g style="mix-blend-mode:soft-light" opacity="0.5">
<path d="M27.1723 57.7367C24.412 56.929 11.857 54.5843 11.4022 55.2979C10.9474 56.0115 11.112 60.8814 12.6883 61.4852C14.2645 62.089 24.6864 62.9752 25.0942 62.8967C27.1723 62.5203 27.7213 57.8936 27.1723 57.7289V57.7367Z" fill="#25425C"/>
</g>
<g style="mix-blend-mode:soft-light" opacity="0.5">
<path d="M7.70861 8.00375C4.57183 10.6935 5.5756 20.0176 7.46551 19.5863C8.06934 19.4451 9.99061 16.2378 11.4806 16.0182C12.9705 15.7986 14.7977 16.2848 16.1701 16.2848C17.5424 16.2848 18.5775 14.6694 16.5308 11.7365C14.484 8.80363 9.74751 6.255 7.70861 8.00375Z" fill="#25425C"/>
</g>
<path d="M58.0694 39.536C62.6413 40.6417 69.9813 38.9949 69.9813 38.9949C69.9813 38.9949 66.8053 39.0655 65.1585 39.0498C63.5117 39.0262 58.0694 39.536 58.0694 39.536Z" fill="#D1D9E8"/>
<path d="M26.4039 34.4077C29.2897 35.2233 37.9159 34.1097 37.9159 34.1097C37.9159 34.1097 35.7828 33.9529 31.6188 34.1097C27.4625 34.2666 26.4039 34.4077 26.4039 34.4077Z" fill="#D1D9E8"/>
<g style="mix-blend-mode:soft-light" opacity="0.5">
<path d="M51.7254 10.8029C52.9017 11.7518 56.1796 14.0573 56.7834 14.2691C61.6376 15.9708 69.2913 15.9708 68.6718 14.7866C68.0523 13.6025 66.9936 10.1207 64.6254 9.86975C62.2571 9.61881 50.8941 10.1285 51.7254 10.8029Z" fill="#594275"/>
</g>
<g style="mix-blend-mode:soft-light" opacity="0.3">
<path d="M58.0696 48.9467C57.5599 49.7074 56.6189 53.8322 57.1835 53.9498C57.7403 54.0753 63.9511 49.2211 63.8883 47.7861C63.8256 46.351 58.7754 47.8802 58.0696 48.9388V48.9467Z" fill="#D2FFF1"/>
</g>
<g style="mix-blend-mode:soft-light" opacity="0.1">
<path d="M66.3036 24.6676C65.1979 25.891 65.5586 26.981 66.3036 26.981C67.0486 26.981 69.0405 24.3775 68.915 24.1893C68.7895 23.9932 67.1349 23.7423 66.3036 24.6676Z" fill="#D2FFF1"/>
</g>
<g style="mix-blend-mode:soft-light" opacity="0.5">
<path d="M15.7622 7.4314C13.8174 7.46276 20.8517 15.1008 23.2356 15.7831C25.6117 16.4653 30.2385 16.8496 30.2071 15.1635C30.16 12.7169 28.5603 9.82319 26.2548 9.14094C23.9492 8.45869 17.0875 7.41571 15.7622 7.43924V7.4314Z" fill="#594275"/>
</g>
<g style="mix-blend-mode:soft-light" opacity="0.1">
<path d="M26.4039 20.943C25.8549 22.7309 26.9136 32.8784 27.6821 33.2313C28.4585 33.5842 34.0576 33.592 34.0576 32.3451C34.0576 31.0983 26.9057 19.3275 26.4039 20.943Z" fill="#D2FFF1"/>
</g>
<g style="mix-blend-mode:soft-light" opacity="0.1">
<path d="M29.2662 20.943C29.2662 21.6488 30.9836 26.1109 31.6188 26.1109C32.254 26.1109 33.1872 21.2489 32.1599 20.943C31.1326 20.6372 29.2583 20.1667 29.2662 20.943Z" fill="#D2FFF1"/>
</g>
<path style="mix-blend-mode:multiply" opacity="0.49" d="M35.2181 55.2123C39.3351 53.9811 53.8976 54.5614 53.8976 54.5614C53.8976 54.5614 50.5099 55.3535 44.2755 55.5182C38.0412 55.6828 35.2181 55.2202 35.2181 55.2202V55.2123Z" fill="url(#paint32_linear_192_3237)"/>
<g style="mix-blend-mode:soft-light" opacity="0.5">
<path d="M28.231 64.1044C31.6971 62.1126 47.4281 57.5643 56.015 57.4153C64.6019 57.2584 64.3118 61.6185 64.3118 61.6185L28.231 64.1123V64.1044Z" fill="#594275"/>
</g>
<path d="M20.3499 39.8577C20.4989 39.8342 23.6435 38.9794 23.8082 38.9951C25.1649 39.1206 28.3252 39.6617 29.0623 39.8028C29.1329 39.8185 24.0043 40.0067 23.8161 40.0067C22.5535 40.0067 20.2401 39.8734 20.3499 39.8499V39.8577Z" fill="#545887"/>
<path d="M71.5498 33.8115C71.4714 33.8664 62.6806 33.686 62.6335 33.4665C62.6178 33.388 71.6988 33.0587 71.6988 33.2312C71.6988 33.4821 71.6204 33.7645 71.5498 33.8115Z" fill="#D1D9E8"/>
<path d="M23.8082 41.0414C24.0591 41.4492 24.6081 42.8215 24.71 42.9627C24.9688 43.3391 34.1988 40.6414 33.54 40.6101C32.8813 40.5787 23.5965 40.6885 23.8082 41.0414Z" fill="#D1D9E8"/>
<path style="mix-blend-mode:multiply" opacity="0.49" d="M65.8253 44.3667C65.8253 44.3667 62.1866 45.6842 58.0618 46.586C58.0618 46.586 57.1364 47.3937 55.121 48.9464C55.121 48.9464 55.0348 49.7071 54.8544 50.2717C54.8544 50.2717 39.492 50.954 35.5476 50.8285V46.2645C35.5476 46.2645 31.8697 46.6879 27.439 47.4094C27.439 47.4094 24.9296 47.9191 23.5572 48.0054L23.369 47.0487L22.8201 45.8175L40.0959 45.1039C40.0959 45.1039 38.7471 46.2645 38.253 47.3467L38.6294 50.2717L52.6116 49.7698C52.6116 49.7698 56.0542 48.0917 56.5326 47.3388C57.0109 46.5938 57.1207 43.9433 57.1207 43.9433L66.139 43.512L65.8253 44.3667Z" fill="url(#paint33_linear_192_3237)"/>
<g style="mix-blend-mode:soft-light" opacity="0.5">
<path d="M69.9816 27.1144C69.4876 26.244 59.9988 30.0002 60.1949 30.7688C60.3909 31.5373 59.7636 33.1841 60.4536 33.1841C61.1437 33.1841 68.3191 33.0116 68.9229 32.5881C69.5268 32.1646 70.4756 27.9927 69.9738 27.1144H69.9816Z" fill="#594275"/>
</g>
<g style="mix-blend-mode:soft-light" opacity="0.3">
<path d="M59.1751 33.929C58.3674 34.3681 57.3558 38.4302 58.0616 38.5322C58.7673 38.6263 68.4756 38.3126 69.0716 37.9754C69.6598 37.6304 70.4832 34.0701 69.8166 33.9368C69.1501 33.8035 60.2024 33.38 59.1751 33.9368V33.929Z" fill="#D2FFF1"/>
</g>
<g style="mix-blend-mode:soft-light" opacity="0.29">
<path d="M6.7989 34.376C6.19507 35.8659 6.30486 37.6931 6.7989 37.5755C7.29295 37.4657 11.0414 34.7524 9.97489 34.4858C8.90838 34.227 7.03416 33.7878 6.7989 34.3681V34.376Z" fill="#9CE5FF"/>
</g>
<g style="mix-blend-mode:soft-light" opacity="0.3">
<path d="M29.5799 58.0039C27.5802 59.0782 28.7251 62.5052 30.615 62.0739C38.6295 60.231 32.4265 56.4747 29.5799 58.0039Z" fill="#D2FFF1"/>
</g>
<g style="mix-blend-mode:soft-light" opacity="0.29">
<path d="M12.3982 46.6326C12.4452 47.7305 13.7078 52.914 14.0607 53.3689C14.3665 53.7688 15.8173 54.1609 15.8251 53.808C15.8408 53.1022 12.359 45.6289 12.3982 46.6326Z" fill="#9CE5FF"/>
</g>
<g style="mix-blend-mode:soft-light" opacity="0.29">
<path d="M21.3614 28.2515C20.2165 29.365 20.8673 33.2233 21.777 33.537C22.6867 33.8506 25.4 34.5564 25.4549 32.9802C25.5098 31.4039 24.3884 25.3029 21.3614 28.2515Z" fill="#9CE5FF"/>
</g>
<g style="mix-blend-mode:soft-light" opacity="0.9">
<path d="M69.5738 16.6374C69.417 16.1042 58.0618 17.3432 58.0618 17.3432L57.6227 18.4411C57.6227 18.4411 58.8774 21.0446 59.2303 22.9894C59.2303 22.9894 59.395 21.8523 60.038 21.6014C60.7281 21.3348 68.9543 20.9191 69.6679 20.9505C70.3815 20.9819 70.3345 22.0092 70.3345 22.0092C70.3345 22.0092 70.2796 19.0528 69.5738 16.6453V16.6374Z" fill="#CADAFC"/>
</g>
<g style="mix-blend-mode:soft-light" opacity="0.9">
<path d="M20.7498 15.9949C22.5143 16.5987 32.254 17.4848 32.254 17.4848C32.3559 17.7515 33.0225 19.5943 33.0225 19.5943C33.0225 19.5943 26.694 18.5906 23.8082 18.7396C23.8082 18.7396 22.428 17.2888 21.5184 17.3437L20.742 15.9949H20.7498Z" fill="#CADAFC"/>
</g>
<path style="mix-blend-mode:color-dodge" opacity="0.5" d="M66.2173 30.4625C72.1681 30.4625 76.9921 25.6384 76.9921 19.6877C76.9921 13.7369 72.1681 8.91284 66.2173 8.91284C60.2665 8.91284 55.4425 13.7369 55.4425 19.6877C55.4425 25.6384 60.2665 30.4625 66.2173 30.4625Z" fill="url(#paint34_radial_192_3237)"/>
<path style="mix-blend-mode:color-dodge" opacity="0.5" d="M26.7253 49.7696C32.6761 49.7696 37.5001 44.9456 37.5001 38.9948C37.5001 33.044 32.6761 28.22 26.7253 28.22C20.7745 28.22 15.9505 33.044 15.9505 38.9948C15.9505 44.9456 20.7745 49.7696 26.7253 49.7696Z" fill="url(#paint35_radial_192_3237)"/>
<path style="mix-blend-mode:color-dodge" opacity="0.5" d="M10.7748 30.8787C16.7256 30.8787 21.5496 26.0547 21.5496 20.1039C21.5496 14.1532 16.7256 9.3291 10.7748 9.3291C4.82405 9.3291 0 14.1532 0 20.1039C0 26.0547 4.82405 30.8787 10.7748 30.8787Z" fill="url(#paint36_radial_192_3237)"/>
</g>
</g>
<defs>
<linearGradient id="paint0_linear_192_3237" x1="38.3706" y1="12.4421" x2="38.3706" y2="60.7249" gradientUnits="userSpaceOnUse">
<stop offset="0.02" stop-color="#CD6D22"/>
<stop offset="0.95" stop-color="#C74D3E"/>
</linearGradient>
<radialGradient id="paint1_radial_192_3237" cx="0" cy="0" r="1" gradientUnits="userSpaceOnUse" gradientTransform="translate(46.3539 21.1154) scale(6.21866 6.21866)">
<stop offset="0.02" stop-color="#FFA41A"/>
<stop offset="1" stop-color="#FF8836"/>
</radialGradient>
<radialGradient id="paint2_radial_192_3237" cx="0" cy="0" r="1" gradientUnits="userSpaceOnUse" gradientTransform="translate(44.6285 29.7725) scale(5.80304 5.80304)">
<stop offset="0.02" stop-color="#FFA41A"/>
<stop offset="1" stop-color="#FF8836"/>
</radialGradient>
<radialGradient id="paint3_radial_192_3237" cx="0" cy="0" r="1" gradientUnits="userSpaceOnUse" gradientTransform="translate(43.2014 52.6632) scale(4.98747 4.98748)">
<stop offset="0.02" stop-color="#FFA41A"/>
<stop offset="1" stop-color="#FF8836"/>
</radialGradient>
<radialGradient id="paint4_radial_192_3237" cx="0" cy="0" r="1" gradientUnits="userSpaceOnUse" gradientTransform="translate(41.3036 16.9276) scale(7.09696)">
<stop offset="0.02" stop-color="#FFA41A"/>
<stop offset="1" stop-color="#FF8836"/>
</radialGradient>
<radialGradient id="paint5_radial_192_3237" cx="0" cy="0" r="1" gradientUnits="userSpaceOnUse" gradientTransform="translate(39.7899 24.6679) scale(4.18759)">
<stop offset="0.02" stop-color="#FFA41A"/>
<stop offset="1" stop-color="#FF8836"/>
</radialGradient>
<linearGradient id="paint6_linear_192_3237" x1="42.1112" y1="54.1297" x2="49.412" y2="48.5698" gradientUnits="userSpaceOnUse">
<stop stop-color="#36193B"/>
<stop offset="1" stop-color="#8E37E2"/>
</linearGradient>
<linearGradient id="paint7_linear_192_3237" x1="8.95544" y1="31.7648" x2="35.72" y2="31.7648" gradientUnits="userSpaceOnUse">
<stop stop-color="#84759B"/>
<stop offset="0.39" stop-color="#96A9D0"/>
<stop offset="1" stop-color="#D8DFED"/>
</linearGradient>
<linearGradient id="paint8_linear_192_3237" x1="48.377" y1="31.961" x2="70.4599" y2="31.961" gradientUnits="userSpaceOnUse">
<stop stop-color="#84759B"/>
<stop offset="0.39" stop-color="#96A9D0"/>
<stop offset="1" stop-color="#D8DFED"/>
</linearGradient>
<linearGradient id="paint9_linear_192_3237" x1="15.3153" y1="57.5019" x2="13.8254" y2="30.6119" gradientUnits="userSpaceOnUse">
<stop stop-color="#84759B"/>
<stop offset="1" stop-color="#96A9D0"/>
</linearGradient>
<linearGradient id="paint10_linear_192_3237" x1="5.38737" y1="31.7488" x2="27.6898" y2="31.7488" gradientUnits="userSpaceOnUse">
<stop stop-color="#786DAB"/>
<stop offset="0.53" stop-color="#6867A3"/>
<stop offset="1" stop-color="#54517A"/>
</linearGradient>
<linearGradient id="paint11_linear_192_3237" x1="44.0639" y1="32.5877" x2="60.0615" y2="32.5877" gradientUnits="userSpaceOnUse">
<stop stop-color="#786DAB"/>
<stop offset="0.53" stop-color="#6867A3"/>
<stop offset="1" stop-color="#54517A"/>
</linearGradient>
<linearGradient id="paint12_linear_192_3237" x1="7.70871" y1="39.4499" x2="69.9815" y2="39.4499" gradientUnits="userSpaceOnUse">
<stop stop-color="#453970"/>
<stop offset="1" stop-color="#2C3159"/>
</linearGradient>
<linearGradient id="paint13_linear_192_3237" x1="5.92846" y1="36.6189" x2="71.6988" y2="36.6189" gradientUnits="userSpaceOnUse">
<stop stop-color="#786DAB"/>
<stop offset="0.53" stop-color="#6867A3"/>
<stop offset="1" stop-color="#54517A"/>
</linearGradient>
<linearGradient id="paint14_linear_192_3237" x1="6.79909" y1="42.461" x2="70.3345" y2="42.461" gradientUnits="userSpaceOnUse">
<stop stop-color="#786DAB"/>
<stop offset="0.53" stop-color="#6867A3"/>
<stop offset="1" stop-color="#54517A"/>
</linearGradient>
<radialGradient id="paint15_radial_192_3237" cx="0" cy="0" r="1" gradientUnits="userSpaceOnUse" gradientTransform="translate(47.5066 36.6189) scale(17.2758 17.2758)">
<stop stop-color="#D8DFED"/>
<stop offset="0.15" stop-color="#84759B"/>
<stop offset="1" stop-color="#96A9D0"/>
</radialGradient>
<radialGradient id="paint16_radial_192_3237" cx="0" cy="0" r="1" gradientUnits="userSpaceOnUse" gradientTransform="translate(47.0751 42.461) scale(16.6328)">
<stop stop-color="#D8DFED"/>
<stop offset="0.15" stop-color="#84759B"/>
<stop offset="1" stop-color="#96A9D0"/>
</radialGradient>
<linearGradient id="paint17_linear_192_3237" x1="10.3436" y1="58.7411" x2="67.1741" y2="58.7411" gradientUnits="userSpaceOnUse">
<stop stop-color="#786DAB"/>
<stop offset="0.53" stop-color="#6867A3"/>
<stop offset="1" stop-color="#54517A"/>
</linearGradient>
<linearGradient id="paint18_linear_192_3237" x1="10.3435" y1="55.3058" x2="67.1741" y2="55.3058" gradientUnits="userSpaceOnUse">
<stop stop-color="#96A9D0"/>
<stop offset="1" stop-color="#D8DFED"/>
</linearGradient>
<linearGradient id="paint19_linear_192_3237" x1="28.2311" y1="59.4384" x2="67.1741" y2="59.4384" gradientUnits="userSpaceOnUse">
<stop stop-color="#84759B"/>
<stop offset="0.39" stop-color="#96A9D0"/>
<stop offset="1" stop-color="#D8DFED"/>
</linearGradient>
<linearGradient id="paint20_linear_192_3237" x1="52.0548" y1="32.4387" x2="52.0548" y2="0.0515239" gradientUnits="userSpaceOnUse">
<stop stop-color="#941F63"/>
<stop offset="1" stop-color="#662D87"/>
</linearGradient>
<linearGradient id="paint21_linear_192_3237" x1="37.9156" y1="40.516" x2="57.7165" y2="40.516" gradientUnits="userSpaceOnUse">
<stop stop-color="#786DAB"/>
<stop offset="0.53" stop-color="#6867A3"/>
<stop offset="1" stop-color="#54517A"/>
</linearGradient>
<linearGradient id="paint22_linear_192_3237" x1="44.456" y1="40.8538" x2="57.3874" y2="40.8538" gradientUnits="userSpaceOnUse">
<stop stop-color="#96A9D0"/>
<stop offset="1" stop-color="#D8DFED"/>
</linearGradient>
<linearGradient id="paint23_linear_192_3237" x1="47.0673" y1="47.7148" x2="47.0673" y2="51.4554" gradientUnits="userSpaceOnUse">
<stop stop-color="#705AB6"/>
<stop offset="1" stop-color="white"/>
</linearGradient>
<linearGradient id="paint24_linear_192_3237" x1="50.6747" y1="45.0099" x2="50.6747" y2="38.2815" gradientUnits="userSpaceOnUse">
<stop stop-color="#453970"/>
<stop offset="1" stop-color="#2C3159"/>
</linearGradient>
<linearGradient id="paint25_linear_192_3237" x1="50.1021" y1="40.9634" x2="53.3486" y2="40.9634" gradientUnits="userSpaceOnUse">
<stop stop-color="#786DAB"/>
<stop offset="0.53" stop-color="#6867A3"/>
<stop offset="1" stop-color="#54517A"/>
</linearGradient>
<linearGradient id="paint26_linear_192_3237" x1="56.3913" y1="26.3384" x2="56.3913" y2="20.1825" gradientUnits="userSpaceOnUse">
<stop stop-color="#453970"/>
<stop offset="1" stop-color="#2C3159"/>
</linearGradient>
<linearGradient id="paint27_linear_192_3237" x1="47.0437" y1="53.9655" x2="47.0437" y2="20.4961" gradientUnits="userSpaceOnUse">
<stop stop-color="#941F63"/>
<stop offset="1" stop-color="#662D87"/>
</linearGradient>
<linearGradient id="paint28_linear_192_3237" x1="20.8909" y1="64.1049" x2="20.8909" y2="6.8744" gradientUnits="userSpaceOnUse">
<stop stop-color="#941F63"/>
<stop offset="1" stop-color="#662D87"/>
</linearGradient>
<linearGradient id="paint29_linear_192_3237" x1="17.4171" y1="51.2599" x2="17.4171" y2="44.9785" gradientUnits="userSpaceOnUse">
<stop stop-color="#941F63"/>
<stop offset="1" stop-color="#662D87"/>
</linearGradient>
<linearGradient id="paint30_linear_192_3237" x1="15.1665" y1="30.7609" x2="15.1665" y2="16.2768" gradientUnits="userSpaceOnUse">
<stop stop-color="#941F63"/>
<stop offset="1" stop-color="#662D87"/>
</linearGradient>
<linearGradient id="paint31_linear_192_3237" x1="23.3221" y1="26.3377" x2="23.3221" y2="20.1818" gradientUnits="userSpaceOnUse">
<stop stop-color="#453970"/>
<stop offset="1" stop-color="#2C3159"/>
</linearGradient>
<linearGradient id="paint32_linear_192_3237" x1="44.5578" y1="55.5495" x2="44.5578" y2="54.4281" gradientUnits="userSpaceOnUse">
<stop stop-color="#8980EB"/>
<stop offset="1" stop-color="#705AB8"/>
</linearGradient>
<linearGradient id="paint33_linear_192_3237" x1="44.4874" y1="48.6327" x2="44.4874" y2="42.6258" gradientUnits="userSpaceOnUse">
<stop stop-color="#941F63"/>
<stop offset="1" stop-color="#662D87"/>
</linearGradient>
<radialGradient id="paint34_radial_192_3237" cx="0" cy="0" r="1" gradientUnits="userSpaceOnUse" gradientTransform="translate(66.2173 19.6877) scale(10.7748)">
<stop stop-color="#056DFF"/>
<stop offset="0.09" stop-color="#0467F1"/>
<stop offset="0.26" stop-color="#0457CD"/>
<stop offset="0.49" stop-color="#023F93"/>
<stop offset="0.77" stop-color="#011D44"/>
<stop offset="1"/>
</radialGradient>
<radialGradient id="paint35_radial_192_3237" cx="0" cy="0" r="1" gradientUnits="userSpaceOnUse" gradientTransform="translate(26.7253 38.9948) scale(0.392097)">
<stop stop-color="#056DFF"/>
<stop offset="0.09" stop-color="#0467F1"/>
<stop offset="0.26" stop-color="#0457CD"/>
<stop offset="0.49" stop-color="#023F93"/>
<stop offset="0.77" stop-color="#011D44"/>
<stop offset="1"/>
</radialGradient>
<radialGradient id="paint36_radial_192_3237" cx="0" cy="0" r="1" gradientUnits="userSpaceOnUse" gradientTransform="translate(10.7748 20.1039) scale(0.392097)">
<stop stop-color="#056DFF"/>
<stop offset="0.09" stop-color="#0467F1"/>
<stop offset="0.26" stop-color="#0457CD"/>
<stop offset="0.49" stop-color="#023F93"/>
<stop offset="0.77" stop-color="#011D44"/>
<stop offset="1"/>
</radialGradient>
<clipPath id="clip0_192_3237">
<rect width="70" height="70" fill="white" transform="translate(0.5)"/>
</clipPath>
<clipPath id="clip1_192_3237">
<rect width="77" height="57.2305" fill="white" transform="translate(0 6.875)"/>
</clipPath>
</defs>
</svg>
