<svg width="71" height="70" viewBox="0 0 71 70" fill="none" xmlns="http://www.w3.org/2000/svg">
<g clip-path="url(#clip0_192_3625)">
<g clip-path="url(#clip1_192_3625)">
<path d="M13.9544 55.5716C13.9544 55.5716 4.89872 24.9274 6.69905 17.6488C8.49937 10.3703 12.6718 6.32145 20.2749 18.7151C29.1374 33.1563 26.5722 56.7383 26.5722 56.7383L13.9622 55.5716H13.9544Z" fill="#8C1927"/>
<path d="M57.1545 55.5094L26.5722 56.7379C26.5722 56.7379 27.6385 41.2304 24.2851 28.9063C20.9317 16.5822 14.8739 11.7607 12.6641 10.9417C12.6641 10.9417 27.1362 13.476 35.9679 14.1328C44.7995 14.7896 56.1655 13.7233 59.7662 12.9892C59.7662 12.9892 64.1781 35.7212 57.1468 55.5094H57.1545Z" fill="url(#paint0_linear_192_3625)"/>
<path d="M27.94 20.2444C27.94 20.2444 49.8993 21.3493 55.0453 21.1639L55.478 21.5966L26.9123 20.4916L27.94 20.2444Z" fill="#7C1338"/>
<path d="M27.7545 29.1997C38.6106 29.8101 56.8843 29.1997 56.8843 29.1997L56.2121 29.8101C56.2121 29.8101 35.1722 29.4392 25.4829 29.8101L27.7545 29.1997Z" fill="#7C1338"/>
<path d="M31.8883 52.3182C31.8883 52.3182 45.4719 52.1482 56.2738 51.0279C56.4515 51.0124 55.9725 51.6692 55.9725 51.6692C55.9725 51.6692 30.6984 52.805 30.8838 52.805C31.0693 52.805 31.8883 52.3182 31.8883 52.3182Z" fill="#7C1338"/>
<path opacity="0.46" d="M36.1303 20.8396C36.1303 20.8396 43.8261 21.5273 46.4609 21.7436C49.0957 21.96 53.4227 21.5118 53.4227 21.5118L36.1303 20.8396Z" fill="url(#paint1_radial_192_3625)"/>
<path opacity="0.46" d="M34.9945 29.6479L51.1588 29.7329C51.1588 29.7329 45.5183 29.957 41.5622 30.0497C37.6061 30.1425 35.0022 29.6479 35.0022 29.6479H34.9945Z" fill="url(#paint2_radial_192_3625)"/>
<path opacity="0.46" d="M34.7239 52.6349C34.8476 52.6349 48.6011 52.009 48.6011 52.009C48.6011 52.009 41.8943 52.8744 38.6491 52.8126C35.3962 52.7508 34.7239 52.6349 34.7239 52.6349Z" fill="url(#paint3_radial_192_3625)"/>
<path style="mix-blend-mode:screen" opacity="0.3" d="M31.641 17.4783C33.0009 18.7377 36.6324 19.7268 39.2054 19.8118C41.7784 19.8968 50.1619 16.8602 49.2811 15.6857C48.4002 14.5035 39.0895 15.1525 34.6699 14.7044C30.2502 14.2562 28.983 15.0289 31.641 17.486V17.4783Z" fill="url(#paint4_radial_192_3625)"/>
<path style="mix-blend-mode:screen" opacity="0.3" d="M34.0134 21.8053C32.8621 23.1188 34.7938 28.2803 35.4814 28.3575C36.1768 28.4425 44.5603 22.7557 42.675 22.2225C40.7974 21.6894 34.9869 20.6849 34.0056 21.7976L34.0134 21.8053Z" fill="url(#paint5_radial_192_3625)"/>
<path d="M51.3674 21.1564C51.3674 20.6078 50.8729 19.441 50.0616 19.5029C49.258 19.5647 48.2999 21.1564 48.2999 21.1564H51.3674Z" fill="#7C1338"/>
<path d="M34.724 52.2639C33.8045 52.1249 35.7516 51.0972 36.4625 51.3986C37.1733 51.7076 37.5674 52.179 37.5674 52.179C37.5674 52.179 36.2075 52.4803 34.724 52.2562V52.2639Z" fill="#7C1338"/>
<path style="mix-blend-mode:soft-light" opacity="0.5" d="M33.7582 55.3855C33.5728 42.6287 43.0998 46.917 48.4621 47.2802C53.8245 47.6433 52.3873 54.0256 51.661 55.0069C50.9347 55.9882 33.7736 56.6682 33.7582 55.3778V55.3855Z" fill="url(#paint6_linear_192_3625)"/>
<path d="M26.5721 9.8757C26.5721 9.8757 19.1313 7.14817 7.92752 7.34134C7.92752 7.34134 17.6555 10.517 21.6656 21.6435C25.6758 32.77 26.3789 56.3056 26.3789 56.3056L33.7579 55.3861C33.7579 55.3861 34.971 42.7915 33.7579 29.9961C32.5294 16.992 26.5644 9.8757 26.5644 9.8757H26.5721Z" fill="url(#paint7_linear_192_3625)"/>
<path d="M46.7696 10.7642C46.7696 10.7642 57.1543 9.31156 64.0234 9.55109C64.0234 9.55109 68.2731 12.9045 68.5204 24.2705C68.7676 35.6365 59.8123 54.0802 59.8123 54.0802L53.7314 54.4974C53.7314 54.4974 58.4988 42.5751 57.6489 29.3392C56.5826 12.8195 46.7696 10.7565 46.7696 10.7565V10.7642Z" fill="url(#paint8_linear_192_3625)"/>
<path d="M15.1212 18.2203C10.3383 17.6717 11.93 26.0089 12.6718 30.2431C13.4058 34.4774 18.3741 56.738 18.3741 56.738H15.492C15.492 56.738 10.771 39.0748 8.98614 29.5709C7.20127 20.067 8.06666 16.505 10.2147 15.5855C12.3627 14.666 15.1212 18.2203 15.1212 18.2203Z" fill="url(#paint9_linear_192_3625)"/>
<path d="M22.6547 55.9268L23.3501 55.44L23.3192 55.1386C23.2188 54.1728 22.8402 50.9044 21.998 45.6889C21.7662 44.2285 21.4957 42.6214 21.1789 40.8674C21.1248 40.5351 21.063 40.1952 21.0012 39.8552C20.7617 38.5262 20.499 37.1122 20.2131 35.6364C20.1358 35.2192 20.0508 34.8096 19.9658 34.4079C19.9427 34.3151 19.9272 34.2301 19.9117 34.1451L19.8499 33.8361C17.2306 21.5351 13.5836 16.5591 10.8947 16.5591C8.20577 16.5591 8.48393 23.1037 10.4002 33.2643C10.4388 33.4497 10.4697 33.6429 10.5083 33.8361C10.5161 33.8902 10.5315 33.9442 10.5392 33.9906C10.8638 35.6519 11.2655 37.4754 11.706 39.3375C11.7755 39.6311 11.8451 39.9325 11.9146 40.2261C12.3009 41.8564 12.7104 43.5022 13.1122 45.0707C14.3408 49.8922 15.4843 53.9874 15.7239 54.8296C15.7548 54.93 15.7702 54.9841 15.7702 54.9841L17.8719 55.4323L13.1045 54.9455C13.035 54.7523 12.9654 54.5669 12.8959 54.3737L12.8727 54.3196C11.7523 51.2676 10.6938 48.0687 9.72793 44.8389C9.24115 43.224 8.78527 41.6014 8.35257 39.9865C8.27531 39.7084 8.20577 39.4225 8.1285 39.1443C7.65717 37.3595 7.22447 35.5823 6.83814 33.8361C6.83814 33.8052 6.82268 33.782 6.81496 33.7511L6.77632 33.5734C3.70882 19.8584 3.16795 8.04429 7.9276 7.34116C13.2668 6.55304 21.828 15.7633 24.2851 28.9064C24.5941 30.5754 24.8646 32.3448 25.0886 34.1451C25.1041 34.2379 25.1118 34.3306 25.1273 34.4233C25.3436 36.2082 25.5291 38.024 25.6759 39.8088C25.7068 40.1488 25.73 40.4888 25.7609 40.821C25.8922 42.4745 25.9927 44.0894 26.0699 45.6116C26.0699 45.6116 26.0699 45.6193 26.0699 45.627C26.3404 50.6726 26.379 54.7291 26.379 55.9345C26.379 56.174 26.379 56.3054 26.379 56.3054L22.6547 55.9268Z" fill="url(#paint10_radial_192_3625)"/>
<path d="M46.7697 10.7639C44.3899 10.7639 42.5201 14.3337 42.5201 14.3337C42.5201 14.3337 46.113 14.3105 47.4652 14.2487C47.4652 14.2487 52.3175 14.4727 54.6201 24.8806C56.9922 35.5899 52.2094 54.2808 52.2094 54.2808L53.7315 54.4971C53.7315 54.4971 58.2826 44.4447 58.2826 29.9262C58.2826 18.8924 52.0471 10.7639 46.7775 10.7639H46.7697Z" fill="url(#paint11_linear_192_3625)"/>
<path d="M6.69891 38.758L6.98479 39.9943L22.6159 41.3619L67.74 39.1289L68.049 37.4136L21.8046 38.5494L6.69891 38.758Z" fill="#630F0F"/>
<path d="M69.749 33.2646L68.5282 37.9548L25.6758 39.8092L25.1968 39.8324L22.5697 39.9483L21.0089 39.8633L11.7059 39.3456L8.12846 39.1447L5.80272 39.0133C4.94505 36.5794 4.94505 33.7514 4.94505 33.7514L6.83037 33.8364L10.5392 33.9987L19.9658 34.4159L22.0675 34.5087L25.1195 34.4314L69.749 33.2724V33.2646Z" fill="url(#paint12_radial_192_3625)"/>
<path d="M68.3968 38.9436L67.0678 43.2242L26.0621 45.604L23.2109 45.7663L21.9978 45.6813L13.1044 45.0632L9.72007 44.8314L7.92747 44.7077C6.58302 42.1579 5.80262 39.8013 5.80262 39.8013L8.34471 39.979L11.9145 40.2262L21.1865 40.8676L22.5619 40.9603L25.753 40.8212L68.4045 38.9436H68.3968Z" fill="url(#paint13_radial_192_3625)"/>
<path d="M22.0674 34.5009L22.562 39.9483L68.4046 38.4106L69.749 33.2646L22.0674 34.5009Z" fill="url(#paint14_radial_192_3625)"/>
<path d="M23.2187 45.774L22.5619 40.9603L68.4045 38.9436L67.0755 43.2242C67.0755 43.2242 23.6204 45.7972 23.2187 45.774Z" fill="url(#paint15_radial_192_3625)"/>
<path d="M5.79492 39.8089L6.84576 39.3917L6.89212 39.6003L23.7055 40.203L67.8405 38.5881L67.8714 38.4104L68.3968 38.9435L22.5619 40.9602L5.79492 39.8089Z" fill="url(#paint16_linear_192_3625)"/>
<path d="M65.2907 54.4973L62.4704 61.235L26.9121 63.6844L11.0337 61.3973L9.29515 54.281L12.5481 53.462L12.8649 54.3119L12.8881 54.3737L15.7238 54.8296L17.8718 54.4973L23.3191 55.1387L23.35 55.44L26.3712 55.9345H26.3789L33.7579 55.3859L33.7966 54.9223L52.2016 54.281L53.7315 54.4973L59.8124 54.0724L60.2683 53.1143L65.2907 54.4973Z" fill="url(#paint17_linear_192_3625)"/>
<path d="M65.2906 54.4972C65.2906 54.4972 60.1756 56.3284 49.1418 56.7379C38.1003 57.1474 26.9198 56.7225 26.9198 56.7225C13.1044 54.9453 9.30285 54.2808 9.30285 54.2808L12.5558 53.4618L12.8958 54.3658L15.6697 54.814C15.7238 54.8217 15.7701 54.8217 15.8242 54.814L17.8872 54.4895L23.3346 55.1308L23.3655 55.4321L26.3866 55.9344L33.7656 55.3858L33.8043 54.9299L52.2093 54.2886L53.7315 54.5049L59.8124 54.0877L60.2683 53.1218L65.2906 54.5049V54.4972Z" fill="url(#paint18_linear_192_3625)"/>
<path d="M26.912 56.7225V63.6843L62.4627 61.2272L65.2829 54.4895C65.2829 54.4895 57.8034 55.7026 47.2487 56.4212C39.5375 56.9466 26.9043 56.7148 26.9043 56.7148L26.912 56.7225Z" fill="url(#paint19_linear_192_3625)"/>
<path d="M69.7491 33.2647L25.1195 34.4237L22.0675 34.501L19.9658 34.4082L10.5392 33.9987L6.82267 33.8287L4.93736 33.7515L6.76859 33.5738L6.80722 33.7515L10.5083 33.8365L13.3518 33.7051L19.8422 33.8365L19.9117 34.1455H25.0809L34.0594 33.8597L34.0362 33.5738L55.2692 32.8938L58.1976 33.2647L67.4542 32.8938L67.516 32.6311L69.7491 33.2647Z" fill="url(#paint20_linear_192_3625)"/>
<path d="M31.8881 56.7305C31.8881 56.7305 34.0129 56.2824 41.2142 55.9578C48.4078 55.6333 63.0422 54.822 63.0422 54.822C63.0422 54.822 60.5387 56.3056 50.4013 56.9082C42.2341 57.395 31.8881 56.7305 31.8881 56.7305Z" fill="#FFEF9B"/>
<path style="mix-blend-mode:multiply" opacity="0.7" d="M42.5121 14.3334C42.5121 14.3334 44.0884 11.0959 46.7618 10.7636C49.4353 10.4237 54.8053 14.5575 56.7525 20.847C58.6996 27.1366 58.1896 33.2716 58.1896 33.2716H55.2535L51.3592 32.3985C51.3592 32.3985 50.9033 27.3838 49.3348 22.0137C47.7586 16.636 43.5939 14.2716 43.5939 14.2716L42.5121 14.3411V14.3334Z" fill="url(#paint21_linear_192_3625)"/>
<path d="M36.9027 33.4806V31.2244C36.9027 31.2244 46.1053 30.2431 51.9544 31.4176C51.9544 31.4176 55.6014 32.7929 55.9027 33.836C56.2118 34.8791 55.3387 46.6624 54.7978 47.1646C53.8243 48.0764 50.9345 49.5599 50.9345 49.5599L37.1577 50.0544L36.4546 45.0321L38.6026 44.9625C38.6026 44.9625 38.9426 42.0959 39.1898 39.9479L39.2208 39.2602C39.2208 39.2602 39.2826 36.0072 38.8499 34.1683L36.895 33.4806H36.9027Z" fill="url(#paint22_radial_192_3625)"/>
<path d="M43.4162 34.7788C43.2849 36.1542 42.9063 45.9439 42.9063 46.5543C42.9063 47.1647 53.801 47.6592 54.5968 47.2265C55.3927 46.7939 56.1422 34.9952 55.2304 34.3229C54.7436 33.9598 43.4626 34.2534 43.4162 34.7788Z" fill="url(#paint23_radial_192_3625)"/>
<g style="mix-blend-mode:soft-light" opacity="0.5">
<path d="M44.4363 42.8612C43.5632 42.838 43.2619 35.7371 44.0268 35.1113C44.7918 34.4777 55.0683 34.0141 55.2074 34.7249C55.3465 35.4358 55.8023 43.6184 54.821 43.7806C53.8398 43.9429 51.854 41.7794 51.6608 41.2076C51.4677 40.6359 50.0228 38.5033 49.2733 38.426C48.5238 38.3488 47.1716 42.9384 44.4363 42.8689V42.8612Z" fill="#594275"/>
</g>
<g style="mix-blend-mode:soft-light" opacity="0.31">
<path d="M36.9026 31.2168C36.9026 31.2168 37.7835 32.0049 42.4813 33.5657C43.1458 33.7898 55.4467 34.1375 55.4777 33.8361C55.5395 33.2644 52.6188 31.5104 51.9543 31.4177C45.9042 30.5446 39.9779 30.7841 36.9026 31.2245V31.2168Z" fill="#E75A29"/>
</g>
<path style="mix-blend-mode:multiply" opacity="0.5" d="M41.2297 47.9758C38.9658 48.8644 37.1578 50.0466 37.1578 50.0466L50.9345 49.5521C50.9345 49.5521 53.8166 48.1072 53.7779 47.7749C53.7393 47.435 43.2928 47.1568 41.2297 47.9681V47.9758Z" fill="url(#paint24_linear_192_3625)"/>
<path d="M46.5224 44.6921C47.1715 44.9162 49.4277 45.5807 51.5371 44.7849C51.6298 44.7462 51.6762 44.6458 51.653 44.5531L50.2313 39.832C50.1849 39.6389 50.2313 39.438 50.3626 39.2912C50.633 38.9589 50.7799 38.5108 50.718 38.0317C50.6176 37.2977 50.0149 36.7104 49.2809 36.6332C48.2919 36.525 47.4574 37.2977 47.4574 38.2558C47.4574 38.5571 47.6583 38.9203 47.8437 39.1984C48.0291 39.4689 48.0832 39.8011 47.9982 40.1179L46.3988 44.4603C46.3602 44.5608 46.4143 44.6767 46.5147 44.7076L46.5224 44.6921Z" fill="#630F0F"/>
<path d="M51.5371 44.777C50.5559 45.1479 49.5359 45.2097 48.6705 45.1325C49.196 45.0861 49.7368 44.9779 50.27 44.777C50.3627 44.7384 50.409 44.638 50.3859 44.5452L48.9641 39.8165C48.9178 39.6233 48.9642 39.4224 49.0955 39.2756C49.3659 38.9434 49.5127 38.4952 49.4509 38.0162C49.3737 37.4367 48.9873 36.9499 48.4619 36.7335C48.7092 36.6331 48.9873 36.5867 49.2809 36.6176C50.015 36.6949 50.6177 37.2898 50.7181 38.0162C50.7799 38.4952 50.6408 38.9434 50.3627 39.2756C50.2391 39.4301 50.185 39.631 50.2313 39.8165L51.653 44.5452C51.684 44.638 51.6299 44.7461 51.5371 44.777Z" fill="#941717"/>
<path d="M53.1444 15.068C53.3762 16.4588 54.1643 19.2404 54.9601 19.4027C55.3851 19.4877 55.5087 19.3331 55.7405 19.0163C56.3896 18.1355 56.3046 16.1497 55.6324 15.5161C54.9601 14.8825 52.8971 13.6231 53.1444 15.068Z" fill="#731414"/>
<path d="M54.1873 17.2001C53.4223 17.4242 54.45 19.4409 55.0681 19.5027C55.6785 19.5645 56.1112 16.6438 54.1873 17.2001Z" fill="#D96420"/>
<path style="mix-blend-mode:multiply" opacity="0.7" d="M53.7315 54.4974C53.7315 54.4974 56.459 47.2266 56.8917 43.8191H55.3927C55.3927 43.8191 55.1764 46.3689 54.8132 47.1647C54.8132 47.1647 46.592 47.7056 43.6095 47.3888C42.6668 47.2884 42.9218 45.7662 43.0841 41.8951C43.2463 38.024 42.9064 33.7048 42.4891 33.5657C42.0796 33.4266 36.9104 31.2168 36.9104 31.2168L34.0284 33.2644L34.0515 33.5734L36.4777 33.4962L37.1809 34.1607C37.1809 34.1607 37.7835 37.3364 37.5981 39.4458L36.045 39.4998V39.7548L37.5904 40.3034C37.5904 40.3034 37.5363 43.2782 37.119 44.9704L34.1829 45.1635L34.0361 51.3449C34.0361 51.3449 40.9592 50.6031 49.0414 50.6031C49.3582 50.6031 49.2191 53.0139 49.2886 54.3892L52.217 54.2888L53.7392 54.5051L53.7315 54.4974Z" fill="url(#paint25_linear_192_3625)"/>
<path style="mix-blend-mode:multiply" opacity="0.7" d="M26.9122 56.7226V63.6844L11.026 61.3973L9.28753 54.281L12.5405 53.4619L12.8573 54.3119C11.7369 51.2598 10.6783 48.061 9.7125 44.8312L7.9199 44.7076C6.57546 42.1577 5.79506 39.8011 5.79506 39.8011L6.83816 39.3839C6.7609 39.1057 6.83816 39.3375 6.7609 39.0593L5.78733 39.0053C4.92966 36.5713 4.92966 33.7434 4.92966 33.7434L6.7609 33.5656C3.70884 19.8584 3.16797 8.04429 7.92763 7.34116C13.2668 6.55304 21.828 15.7633 24.2851 28.9064C24.5942 30.5754 24.8646 32.3448 25.0887 34.1451L22.0753 34.5083L22.5698 39.9479L34.9557 39.5307L32.6454 39.9093L22.562 40.9678L23.2188 45.7816L26.07 45.6348L26.379 55.9422L22.6625 55.9268L26.9199 56.7226H26.9122Z" fill="url(#paint26_linear_192_3625)"/>
<path style="mix-blend-mode:multiply" opacity="0.7" d="M13.2898 45.774C15.2833 45.7972 16.535 48.0843 16.535 48.0843C16.535 48.0843 19.5562 48.208 22.8091 51.0282L22.0055 45.689L15.9246 45.295L13.1121 45.0709L9.72778 44.8391L9.89777 45.4109L13.2898 45.774Z" fill="url(#paint27_linear_192_3625)"/>
<path style="mix-blend-mode:multiply" opacity="0.7" d="M10.8867 16.5593C8.93958 16.4356 8.41416 21.1489 9.44182 27.6316C9.44182 27.6316 10.3304 25.8854 11.868 25.3291C11.868 25.3291 14.4874 25.785 16.6895 27.7862C18.0262 29.007 19.1543 30.8305 19.1543 30.8305C19.1543 30.8305 17.3308 23.9615 15.3991 20.5926C13.4674 17.216 11.783 16.6211 10.8944 16.567L10.8867 16.5593Z" fill="url(#paint28_linear_192_3625)"/>
<path d="M22.0674 34.5007C21.7042 35.0184 21.457 36.6565 21.6656 37.4137C21.8665 38.1709 22.5464 39.7085 22.5464 39.7085C22.5464 39.7085 22.6005 37.5142 22.5619 36.7801C22.5233 36.0461 22.0674 34.5007 22.0674 34.5007Z" fill="#D96420"/>
<path d="M22.562 40.96C23.1337 41.6863 23.3037 42.8298 23.4196 43.2007C23.5433 43.5716 23.2187 45.7737 23.2187 45.7737C23.2187 45.7737 22.3611 43.4171 22.3611 43.0616C22.3611 42.7062 22.562 40.96 22.562 40.96Z" fill="#D96420"/>
<path d="M26.1007 46.8789C25.7917 48.5556 25.2585 50.8968 25.4826 51.3449C25.7067 51.7931 26.3712 55.9423 26.3712 55.9423C26.3712 55.9423 26.9661 52.6662 26.7266 51.4145C26.4871 50.1628 26.1007 46.8866 26.1007 46.8866V46.8789Z" fill="#D96420"/>
<path d="M20.3057 17.6096C19.1776 17.6405 21.2793 26.024 21.5883 26.2713C21.8974 26.5185 23.2341 26.8199 23.6668 26.3949C24.0995 25.9699 24.3081 22.4465 24.115 21.8052C23.4505 19.5027 21.5265 17.5787 20.3057 17.6173V17.6096Z" fill="#731414"/>
<path d="M22.5774 23.691C21.3411 21.9525 20.7152 21.852 20.7616 22.7947C20.808 23.7373 21.5034 26.2794 21.7815 26.3799C22.0674 26.4803 22.9637 26.6889 23.1723 26.1867C23.381 25.6922 23.041 24.34 22.5774 23.691Z" fill="#D96420"/>
<g style="mix-blend-mode:soft-light" opacity="0.5">
<path d="M39.8543 40.1335C39.5993 40.7053 38.618 47.8216 38.9039 48.1075C39.1898 48.4011 42.2341 46.6858 42.4428 46.2994C42.6437 45.9131 42.7209 41.6093 42.2341 40.6435C41.7474 39.6776 40.1093 39.5849 39.862 40.1335H39.8543Z" fill="#683C11"/>
</g>
<g style="mix-blend-mode:soft-light" opacity="0.29">
<path d="M21.4108 37.6606C21.8667 38.2169 22.2994 39.7081 22.0676 39.7081C21.8358 39.7081 16.5584 39.5845 16.5043 39.3836C16.4425 39.1904 20.8854 37.0192 21.4108 37.6528V37.6606Z" fill="#FFC29C"/>
</g>
<g style="mix-blend-mode:soft-light" opacity="0.5">
<path d="M25.8768 57.4101C23.157 56.6143 10.7866 54.304 10.3384 55.0071C9.89026 55.7103 10.0525 60.5085 11.6056 61.1035C13.1587 61.6985 23.4275 62.5716 23.8293 62.4943C25.8768 62.1234 26.4177 57.5647 25.8768 57.4024V57.4101Z" fill="#683C11"/>
</g>
<g style="mix-blend-mode:soft-light" opacity="0.5">
<path d="M6.699 8.40745C3.60832 11.0577 4.59734 20.2448 6.45947 19.8198C7.05443 19.6807 8.94748 16.5205 10.4156 16.3042C11.8836 16.0878 13.684 16.5669 15.0361 16.5669C16.3883 16.5669 17.4082 14.9752 15.3916 12.0854C13.3749 9.19557 8.70022 6.68439 6.699 8.40745Z" fill="#683C11"/>
</g>
<path d="M56.3122 39.4767C60.8169 40.5662 68.0491 38.9436 68.0491 38.9436C68.0491 38.9436 64.9198 39.0131 63.2972 38.9977C61.6746 38.9745 56.3122 39.4767 56.3122 39.4767Z" fill="#FFEF9B"/>
<path d="M25.1194 34.4236C27.9628 35.2272 36.4622 34.13 36.4622 34.13C36.4622 34.13 34.3606 33.9754 30.2577 34.13C26.1625 34.2845 25.1194 34.4236 25.1194 34.4236Z" fill="#FFEF9B"/>
<g style="mix-blend-mode:soft-light" opacity="0.5">
<path d="M50.0614 11.166C51.2204 12.1009 54.4502 14.3725 55.0452 14.5812C59.828 16.2579 67.3693 16.2579 66.7589 15.0911C66.1485 13.9244 65.1053 10.4937 62.7719 10.2465C60.4384 9.99922 49.2424 10.5015 50.0614 11.166Z" fill="#594275"/>
</g>
<g style="mix-blend-mode:soft-light" opacity="0.3">
<path d="M56.3123 48.7487C55.81 49.4982 54.8828 53.5624 55.4392 53.6783C55.9878 53.802 62.1073 49.0191 62.0455 47.6051C61.9837 46.1911 57.0077 47.6978 56.3123 48.741V48.7487Z" fill="#D2FFF1"/>
</g>
<g style="mix-blend-mode:soft-light" opacity="0.1">
<path d="M64.4329 24.8268C63.3434 26.0322 63.6988 27.1062 64.4329 27.1062C65.1669 27.1062 67.1295 24.5409 67.0059 24.3555C66.8823 24.1623 65.2519 23.9151 64.4329 24.8268Z" fill="#D2FFF1"/>
</g>
<g style="mix-blend-mode:soft-light" opacity="0.5">
<path d="M14.6265 7.84351C12.7103 7.87441 19.6411 15.4002 21.9901 16.0725C24.3313 16.7447 28.89 17.1233 28.8591 15.4621C28.8128 13.0513 27.2365 10.2002 24.9649 9.52793C22.6932 8.85571 15.9323 7.82805 14.6265 7.85123V7.84351Z" fill="#594275"/>
</g>
<g style="mix-blend-mode:soft-light" opacity="0.1">
<path d="M25.1195 21.1565C24.5786 22.9182 25.6217 32.9166 26.3789 33.2643C27.1439 33.612 32.6607 33.6197 32.6607 32.3912C32.6607 31.1626 25.614 19.5648 25.1195 21.1565Z" fill="#D2FFF1"/>
</g>
<g style="mix-blend-mode:soft-light" opacity="0.1">
<path d="M27.9398 21.1568C27.9398 21.8522 29.632 26.2487 30.2578 26.2487C30.8837 26.2487 31.8032 21.4581 30.791 21.1568C29.7788 20.8554 27.9321 20.3918 27.9398 21.1568Z" fill="#D2FFF1"/>
</g>
<path style="mix-blend-mode:multiply" opacity="0.7" d="M33.7968 54.9227C37.8533 53.7096 52.2018 54.2814 52.2018 54.2814C52.2018 54.2814 48.8639 55.0618 42.7211 55.224C36.5784 55.3863 33.7968 54.9304 33.7968 54.9304V54.9227Z" fill="url(#paint29_linear_192_3625)"/>
<g style="mix-blend-mode:soft-light" opacity="0.5">
<path d="M26.912 63.6842C30.3272 61.7216 45.827 57.2401 54.2878 57.0933C62.7485 56.9465 62.4626 61.2348 62.4626 61.2348L26.912 63.6919V63.6842Z" fill="#594275"/>
</g>
<path d="M19.1468 39.7933C19.2936 39.7701 22.392 38.9279 22.5542 38.9433C23.891 39.067 27.0048 39.6001 27.7311 39.7392C27.8007 39.7546 22.7474 39.9401 22.562 39.9401C21.318 39.9401 19.0386 39.8087 19.1468 39.7855V39.7933Z" fill="#DE5634"/>
<path d="M69.5946 33.8362C69.5173 33.8903 60.8556 33.7126 60.8093 33.4962C60.7938 33.4189 69.7414 33.0944 69.7414 33.2644C69.7414 33.5117 69.6641 33.7898 69.5946 33.8362Z" fill="#FFEF9B"/>
<path d="M22.5619 40.9598C22.8091 41.3616 23.35 42.7137 23.4505 42.8528C23.7054 43.2237 32.7998 40.5657 32.1507 40.5348C31.5017 40.5039 22.3533 40.6121 22.5619 40.9598Z" fill="#FFEF9B"/>
<path style="mix-blend-mode:multiply" opacity="0.7" d="M63.9617 44.2363C63.9617 44.2363 60.3765 45.5343 56.3123 46.4229C56.3123 46.4229 55.4005 47.2188 53.4148 48.7487C53.4148 48.7487 53.3298 49.4981 53.1521 50.0545C53.1521 50.0545 38.0154 50.7267 34.1289 50.6031V46.1061C34.1289 46.1061 30.505 46.5234 26.1394 47.2342C26.1394 47.2342 23.6669 47.7365 22.3147 47.8215L22.1293 46.8788L21.5884 45.6657L38.6104 44.9626C38.6104 44.9626 37.2814 46.1061 36.7946 47.1724L37.1655 50.0545L50.9422 49.56C50.9422 49.56 54.3342 47.9064 54.8056 47.1647C55.2769 46.4306 55.3851 43.819 55.3851 43.819L64.2708 43.394L63.9617 44.2363Z" fill="url(#paint30_linear_192_3625)"/>
<g style="mix-blend-mode:soft-light" opacity="0.5">
<path d="M68.0492 27.2377C67.5624 26.3801 58.2131 30.0812 58.4063 30.8384C58.5994 31.5956 57.9813 33.2182 58.6612 33.2182C59.3412 33.2182 66.4111 33.0482 67.0061 32.631C67.6011 32.2138 68.536 28.1031 68.0415 27.2377H68.0492Z" fill="#594275"/>
</g>
<g style="mix-blend-mode:soft-light" opacity="0.3">
<path d="M57.4095 33.9518C56.6136 34.3845 55.6169 38.387 56.3123 38.4874C57.0077 38.5801 66.5733 38.2711 67.1606 37.9388C67.7401 37.5988 68.5514 34.0909 67.8946 33.9596C67.2379 33.8282 58.4217 33.411 57.4095 33.9596V33.9518Z" fill="#D2FFF1"/>
</g>
<g style="mix-blend-mode:soft-light" opacity="0.29">
<path d="M5.79491 34.3924C5.19995 35.8605 5.30812 37.6608 5.79491 37.5449C6.28169 37.4367 9.97506 34.7633 8.92423 34.5006C7.87339 34.2456 6.02671 33.8129 5.79491 34.3847V34.3924Z" fill="#FFC29C"/>
</g>
<g style="mix-blend-mode:soft-light" opacity="0.3">
<path d="M28.2487 57.673C26.2784 58.7315 27.4065 62.1081 29.2686 61.6831C37.1653 59.8673 31.0535 56.1662 28.2487 57.673Z" fill="#D2FFF1"/>
</g>
<g style="mix-blend-mode:soft-light" opacity="0.29">
<path d="M11.3194 46.4689C11.3658 47.5507 12.6098 52.658 12.9575 53.1062C13.2588 53.5002 14.6883 53.8866 14.696 53.5389C14.7114 52.8435 11.2808 45.4799 11.3194 46.4689Z" fill="#FFC29C"/>
</g>
<g style="mix-blend-mode:soft-light" opacity="0.29">
<path d="M20.1513 28.358C19.0232 29.4552 19.6568 33.2567 20.5609 33.5658C21.4572 33.8749 24.1306 34.5703 24.1847 33.0172C24.2388 31.4641 23.1339 25.4527 20.1513 28.358Z" fill="#FFC29C"/>
</g>
<g style="mix-blend-mode:soft-light" opacity="0.9">
<path d="M67.6549 16.9145C67.5004 16.3891 56.3121 17.6099 56.3121 17.6099L55.8794 18.6917C55.8794 18.6917 57.1157 21.2569 57.4634 23.1732C57.4634 23.1732 57.6256 22.0528 58.2592 21.8055C58.9392 21.5428 67.0445 21.1333 67.7476 21.1642C68.4508 21.1951 68.4044 22.2073 68.4044 22.2073C68.4044 22.2073 68.3503 19.2944 67.6549 16.9223V16.9145Z" fill="#CADAFC"/>
</g>
<g style="mix-blend-mode:soft-light" opacity="0.9">
<path d="M19.5484 16.2812C21.2869 16.8762 30.8835 17.7493 30.8835 17.7493C30.984 18.012 31.6407 19.8278 31.6407 19.8278C31.6407 19.8278 25.4053 18.8388 22.5618 18.9856C22.5618 18.9856 21.2019 17.5562 20.3056 17.6102L19.5407 16.2812H19.5484Z" fill="#CADAFC"/>
</g>
<path style="mix-blend-mode:color-dodge" opacity="0.3" d="M65.3759 29.2926C71.2393 29.2926 75.9924 24.5394 75.9924 18.6761C75.9924 12.8127 71.2393 8.05957 65.3759 8.05957C59.5126 8.05957 54.7594 12.8127 54.7594 18.6761C54.7594 24.5394 59.5126 29.2926 65.3759 29.2926Z" fill="url(#paint31_radial_192_3625)"/>
<path style="mix-blend-mode:color-dodge" opacity="0.3" d="M26.07 50.5646C31.9333 50.5646 36.6865 45.8114 36.6865 39.9481C36.6865 34.0847 31.9333 29.3315 26.07 29.3315C20.2066 29.3315 15.4534 34.0847 15.4534 39.9481C15.4534 45.8114 20.2066 50.5646 26.07 50.5646Z" fill="url(#paint32_radial_192_3625)"/>
<path style="mix-blend-mode:color-dodge" opacity="0.3" d="M10.6165 32.8236C16.4798 32.8236 21.233 28.0704 21.233 22.2071C21.233 16.3438 16.4798 11.5906 10.6165 11.5906C4.75317 11.5906 0 16.3438 0 22.2071C0 28.0704 4.75317 32.8236 10.6165 32.8236Z" fill="url(#paint33_radial_192_3625)"/>
<path style="mix-blend-mode:multiply" opacity="0.5" d="M45.9045 36.5017C42.5897 38.7888 42.4197 44.4216 43.9805 46.2992C45.379 47.9759 54.5584 48.1845 54.7438 41.64C54.9293 35.0877 48.3229 34.8327 45.9045 36.5017Z" fill="url(#paint34_linear_192_3625)"/>
<path d="M52.5342 35.6131C48.8176 33.4419 44.962 36.1076 44.4211 39.6387C43.8802 43.1699 47.1409 47.1877 51.5606 45.7583C55.9803 44.3289 55.8026 37.5216 52.5419 35.6131H52.5342Z" fill="url(#paint35_linear_192_3625)"/>
<path style="mix-blend-mode:multiply" opacity="0.7" d="M53.5387 37.939C52.5187 36.0073 49.1808 35.3197 47.1564 37.0582C45.132 38.8044 44.962 42.7914 47.8827 44.3522C51.0275 46.0289 56.0885 42.7759 53.5387 37.939Z" fill="url(#paint36_linear_192_3625)"/>
<path style="mix-blend-mode:multiply" opacity="0.8" d="M50.0769 44.4215C47.9134 44.4601 46.1285 42.6984 46.0899 40.4809C46.0512 38.2633 47.7666 36.4321 49.9301 36.3934C52.0935 36.3548 53.8784 38.1165 53.917 40.3341C53.9557 42.5516 52.2403 44.3829 50.0769 44.4215Z" fill="url(#paint37_linear_192_3625)"/>
<path d="M50.2161 44.3051C48.1145 44.3437 46.376 42.6284 46.3373 40.4727C46.2987 38.3169 47.9677 36.5398 50.0693 36.5011C52.171 36.4625 53.9095 38.1778 53.9481 40.3336C53.9868 42.4893 52.3178 44.2665 50.2161 44.3051Z" fill="url(#paint38_radial_192_3625)"/>
<path style="mix-blend-mode:multiply" opacity="0.5" d="M50.2161 44.3054C48.1145 44.3441 46.376 42.6287 46.3373 40.473C46.2987 38.3172 47.9677 36.5401 50.0693 36.5014C51.0893 36.4783 52.0319 36.88 52.7273 37.5368C52.2096 37.2123 51.5992 37.0269 50.9425 37.0423C49.173 37.0732 47.759 38.5181 47.7977 40.2566C47.8286 42.0029 49.2967 43.3859 51.0661 43.355C52.1169 43.3319 53.0364 42.8219 53.6082 42.0415C53.0209 43.355 51.7306 44.2745 50.2239 44.3054H50.2161Z" fill="url(#paint39_linear_192_3625)"/>
<path style="mix-blend-mode:color-dodge" opacity="0.3" d="M50.9037 42.6365C49.5902 42.6597 48.5085 41.5934 48.4853 40.249C48.4621 38.9045 49.4975 37.7996 50.811 37.7687C52.1246 37.7455 53.2063 38.8118 53.2295 40.1562C53.2527 41.5007 52.2173 42.6056 50.9037 42.6365Z" fill="url(#paint40_radial_192_3625)"/>
<path d="M52.1322 40.0559C51.7304 40.0172 51.2822 41.1917 51.29 41.5471C51.29 41.5471 52.024 42.3043 52.704 42.003C52.704 42.003 53.3453 41.1453 53.1444 40.3881C53.1444 40.3881 52.704 40.1177 52.1399 40.0636L52.1322 40.0559Z" fill="url(#paint41_linear_192_3625)"/>
<path d="M44.4209 39.6386C44.8304 36.9729 47.1252 34.8017 49.8218 34.8326C46.7466 35.2653 44.0963 37.6219 45.2476 42.2039C45.3867 42.7602 46.8548 45.8509 50.0459 46.0518C46.4221 46.2527 43.9418 42.7602 44.4131 39.6463L44.4209 39.6386Z" fill="url(#paint42_linear_192_3625)"/>
<path style="mix-blend-mode:color-dodge" opacity="0.5" d="M52.0705 45.5572C51.6069 45.3717 53.8863 42.8837 54.3808 43.1928C53.9172 44.205 53.16 45.0627 52.0705 45.5572Z" fill="url(#paint43_linear_192_3625)"/>
<path style="mix-blend-mode:color-dodge" opacity="0.5" d="M59.0115 41.5805C59.7822 36.8117 56.5411 32.3212 51.7723 31.5505C47.0035 30.7798 42.5129 34.0209 41.7423 38.7897C40.9716 43.5585 44.2127 48.0491 48.9815 48.8197C53.7502 49.5904 58.2408 46.3493 59.0115 41.5805Z" fill="url(#paint44_radial_192_3625)"/>
<path d="M32.6529 44.2515C30.5435 43.2857 27.8778 40.1254 27.8778 40.1254C27.8778 40.1254 30.3349 36.7566 32.3902 35.613C34.3991 36.7643 36.4622 39.7314 36.4622 39.7314C36.4622 39.7314 34.5846 42.9457 32.6529 44.2515Z" fill="url(#paint45_linear_192_3625)"/>
<path style="mix-blend-mode:multiply" opacity="0.5" d="M32.3902 35.6208C30.3349 36.7644 27.8778 40.1333 27.8778 40.1333L29.5004 40.2414C30.8062 38.1475 32.3747 36.7335 32.3747 36.7335C32.3747 36.7335 32.4365 36.2467 32.3902 35.6286V35.6208Z" fill="url(#paint46_linear_192_3625)"/>
<path d="M29.5007 40.234C29.5007 40.234 30.8992 37.6146 32.375 36.7261C32.375 36.7261 33.9049 37.4447 35.9138 39.7781C35.9138 39.7781 34.5462 42.3048 32.6377 43.6106C32.6377 43.6106 31.4401 42.5984 29.5007 40.234Z" fill="url(#paint47_linear_192_3625)"/>
<path d="M32.3671 37.6379C30.7445 38.7506 30.0182 40.3268 30.0182 40.3268C31.0845 41.849 32.5216 42.6603 32.5216 42.6603C33.6961 41.6249 34.7933 40.0487 34.7933 40.0487C33.8043 38.9051 32.3748 37.6379 32.3748 37.6379H32.3671Z" fill="url(#paint48_linear_192_3625)"/>
<path d="M32.3672 37.6379L32.514 42.6603C33.4799 41.8413 34.7857 40.0487 34.7857 40.0487C33.7967 38.9051 32.3672 37.6379 32.3672 37.6379Z" fill="url(#paint49_linear_192_3625)"/>
<path d="M32.4908 41.138L33.3717 40.1644L32.429 39.1599L31.5482 40.1876L32.4908 41.138Z" fill="url(#paint50_linear_192_3625)"/>
<path d="M32.5295 42.2969L32.4909 41.1379L31.5482 40.1875L30.4588 40.2339L32.5295 42.2969Z" fill="url(#paint51_linear_192_3625)"/>
<path d="M34.3839 40.1182L33.3717 40.1645L32.4908 41.1381L32.5295 42.2971L34.3839 40.1182Z" fill="url(#paint52_linear_192_3625)"/>
<path d="M32.4291 39.1601L31.5482 40.1877L30.4588 40.2341L32.3982 38.0088L32.4291 39.1601Z" fill="url(#paint53_linear_192_3625)"/>
<path d="M34.384 40.1182L33.3718 40.1645L32.4291 39.1601L32.3982 38.0088L34.384 40.1182Z" fill="url(#paint54_linear_192_3625)"/>
<path d="M34.2988 37.6376C34.4688 37.3517 35.6433 38.7503 35.5969 39.1211C35.5737 39.2679 34.1829 37.8308 34.2988 37.6376Z" fill="url(#paint55_linear_192_3625)"/>
<path d="M32.9004 40.1565C33.1167 39.6774 32.7536 39.747 32.5295 39.8783C32.3054 40.0097 32.2513 40.5506 32.7922 40.2801L32.9081 40.1488L32.9004 40.1565Z" fill="url(#paint56_linear_192_3625)"/>
<path style="mix-blend-mode:multiply" opacity="0.7" d="M32.3902 35.6208C30.2576 36.0149 25.1889 39.8319 25.1889 39.8319L24.6558 40.1719C24.6558 40.1719 29.6009 43.533 32.6529 44.2516L32.6297 43.6103C32.6297 43.6103 30.4508 41.6631 29.4927 40.2337C29.4927 40.2337 30.4508 38.1475 32.367 36.7258L32.3825 35.6208H32.3902Z" fill="url(#paint57_linear_192_3625)"/>
<path d="M61.7982 42.5596C59.9824 41.6401 57.7494 38.7503 57.7494 38.7503C57.7494 38.7503 59.9747 35.8064 61.7905 34.8406C63.5136 35.9223 65.2289 38.6267 65.2289 38.6267C65.2289 38.6267 63.5136 41.4469 61.7982 42.5596Z" fill="url(#paint58_linear_192_3625)"/>
<path style="mix-blend-mode:multiply" opacity="0.5" d="M61.7905 34.8406C59.9747 35.8064 57.7494 38.7503 57.7494 38.7503L59.1402 38.9126C60.3301 37.0813 61.7519 35.8296 61.7519 35.8296C61.7519 35.8296 61.8137 35.3969 61.7905 34.8406Z" fill="url(#paint59_linear_192_3625)"/>
<path d="M59.1405 38.9125C59.1405 38.9125 60.4386 36.5868 61.7521 35.8296C61.7521 35.8296 63.0656 36.5095 64.7501 38.6498C64.7501 38.6498 63.4906 40.8751 61.7985 41.9878C61.7985 41.9878 60.7708 41.076 59.1405 38.9125Z" fill="url(#paint60_linear_192_3625)"/>
<path d="M61.7211 36.6411C60.2762 37.5915 59.6503 38.8896 59.6503 38.8896C60.5389 40.2727 61.7211 41.1381 61.7211 41.1381C62.7719 40.2418 63.7609 38.8664 63.7609 38.8664C62.9342 37.8156 61.7133 36.6488 61.7133 36.6488L61.7211 36.6411Z" fill="url(#paint61_linear_192_3625)"/>
<path d="M61.7211 36.6409V41.1301C62.5865 40.4192 63.7687 38.8584 63.7687 38.8584C62.9419 37.8076 61.7211 36.6409 61.7211 36.6409Z" fill="url(#paint62_linear_192_3625)"/>
<path d="M61.7366 39.778L62.5324 38.9203L61.7366 38.0085L60.9407 38.9048L61.7366 39.778Z" fill="url(#paint63_linear_192_3625)"/>
<path d="M61.7366 40.8058V39.7781L60.9407 38.905L59.9903 38.9128L61.7366 40.8058Z" fill="url(#paint64_linear_192_3625)"/>
<path d="M63.4132 38.9126L62.5323 38.9203L61.7365 39.778V40.8056L63.4132 38.9126Z" fill="url(#paint65_linear_192_3625)"/>
<path d="M61.7366 38.0085L60.9407 38.9048L59.9903 38.9125L61.7366 36.9731V38.0085Z" fill="url(#paint66_linear_192_3625)"/>
<path d="M63.4132 38.9125L62.5323 38.9203L61.7365 38.0085V36.9731L63.4132 38.9125Z" fill="url(#paint67_linear_192_3625)"/>
<path d="M63.3978 36.695C63.5523 36.4478 64.5413 37.7304 64.4872 38.0549C64.464 38.1863 63.2896 36.865 63.3978 36.695Z" fill="url(#paint68_linear_192_3625)"/>
<path d="M62.123 38.9048C62.3239 38.4799 61.9993 38.5339 61.8062 38.6498C61.6053 38.7657 61.5435 39.2448 62.0225 39.0207L62.123 38.9126V38.9048Z" fill="url(#paint69_linear_192_3625)"/>
<path style="mix-blend-mode:multiply" opacity="0.7" d="M61.7905 34.8406C58.6225 36.0537 55.8255 38.503 55.8255 38.503L55.7791 39.183C55.7791 39.183 59.1557 41.841 61.7905 42.5596V41.9878C61.7905 41.9878 59.9283 40.2184 59.1325 38.9126C59.1325 38.9126 60.0365 37.0504 61.7441 35.8296L61.7828 34.8406H61.7905Z" fill="url(#paint70_linear_192_3625)"/>
</g>
</g>
<defs>
<linearGradient id="paint0_linear_192_3625" x1="36.9028" y1="12.7806" x2="36.9028" y2="55.0149" gradientUnits="userSpaceOnUse">
<stop offset="0.02" stop-color="#CD6D22"/>
<stop offset="0.29" stop-color="#CA5E2E"/>
<stop offset="0.66" stop-color="#C7513A"/>
<stop offset="1" stop-color="#C74D3E"/>
</linearGradient>
<radialGradient id="paint1_radial_192_3625" cx="0" cy="0" r="1" gradientUnits="userSpaceOnUse" gradientTransform="translate(44.7765 21.3264) scale(6.12729)">
<stop offset="0.02" stop-color="#FFA41A"/>
<stop offset="1" stop-color="#FF8836"/>
</radialGradient>
<radialGradient id="paint2_radial_192_3625" cx="0" cy="0" r="1" gradientUnits="userSpaceOnUse" gradientTransform="translate(43.0689 29.8566) scale(5.71777 5.71778)">
<stop offset="0.02" stop-color="#FFA41A"/>
<stop offset="1" stop-color="#FF8836"/>
</radialGradient>
<radialGradient id="paint3_radial_192_3625" cx="0" cy="0" r="1" gradientUnits="userSpaceOnUse" gradientTransform="translate(41.6625 52.4108) scale(4.91419 4.9142)">
<stop offset="0.02" stop-color="#FFA41A"/>
<stop offset="1" stop-color="#FF8836"/>
</radialGradient>
<radialGradient id="paint4_radial_192_3625" cx="0" cy="0" r="1" gradientUnits="userSpaceOnUse" gradientTransform="translate(39.8004 17.2001) scale(6.99268)">
<stop offset="0.02" stop-color="#FFA41A"/>
<stop offset="1" stop-color="#FF8836"/>
</radialGradient>
<radialGradient id="paint5_radial_192_3625" cx="0" cy="0" r="1" gradientUnits="userSpaceOnUse" gradientTransform="translate(38.3017 24.8264) scale(4.12607)">
<stop offset="0.02" stop-color="#FFA41A"/>
<stop offset="1" stop-color="#FF8836"/>
</radialGradient>
<linearGradient id="paint6_linear_192_3625" x1="40.5886" y1="53.8556" x2="47.7899" y2="48.3774" gradientUnits="userSpaceOnUse">
<stop stop-color="#36193B"/>
<stop offset="1" stop-color="#8E37E2"/>
</linearGradient>
<linearGradient id="paint7_linear_192_3625" x1="7.92752" y1="31.8196" x2="34.2988" y2="31.8196" gradientUnits="userSpaceOnUse">
<stop stop-color="#CA6B34"/>
<stop offset="0.67" stop-color="#FFA933"/>
<stop offset="1" stop-color="#FFBD2B"/>
</linearGradient>
<linearGradient id="paint8_linear_192_3625" x1="46.7696" y1="32.0127" x2="68.5281" y2="32.0127" gradientUnits="userSpaceOnUse">
<stop stop-color="#CA6B34"/>
<stop offset="0.67" stop-color="#FFA933"/>
<stop offset="1" stop-color="#FFBD2B"/>
</linearGradient>
<linearGradient id="paint9_linear_192_3625" x1="16.5274" y1="58.3297" x2="11.0105" y2="16.3814" gradientUnits="userSpaceOnUse">
<stop stop-color="#ED8A1D"/>
<stop offset="1" stop-color="#FFA933"/>
</linearGradient>
<radialGradient id="paint10_radial_192_3625" cx="0" cy="0" r="1" gradientUnits="userSpaceOnUse" gradientTransform="translate(15.3993 31.8039) scale(18.9923 18.9923)">
<stop stop-color="#EE8B1D"/>
<stop offset="1" stop-color="#8B2C1B"/>
</radialGradient>
<linearGradient id="paint11_linear_192_3625" x1="42.5123" y1="32.6305" x2="58.2748" y2="32.6305" gradientUnits="userSpaceOnUse">
<stop stop-color="#EE8B1D"/>
<stop offset="1" stop-color="#8B2C1B"/>
</linearGradient>
<radialGradient id="paint12_radial_192_3625" cx="0" cy="0" r="1" gradientUnits="userSpaceOnUse" gradientTransform="translate(6.79947 29.9808) scale(23.0333 23.0333)">
<stop stop-color="#EE8B1D"/>
<stop offset="1" stop-color="#8B2C1B"/>
</radialGradient>
<radialGradient id="paint13_radial_192_3625" cx="0" cy="0" r="1" gradientUnits="userSpaceOnUse" gradientTransform="translate(10.9718 38.3177) scale(22.2607 22.2607)">
<stop stop-color="#EE8B1D"/>
<stop offset="1" stop-color="#8B2C1B"/>
</radialGradient>
<radialGradient id="paint14_radial_192_3625" cx="0" cy="0" r="1" gradientUnits="userSpaceOnUse" gradientTransform="translate(45.9044 36.6026) scale(17.022 17.022)">
<stop stop-color="#CA6B34"/>
<stop offset="0.24" stop-color="#CC6E33"/>
<stop offset="0.45" stop-color="#D67933"/>
<stop offset="0.66" stop-color="#E58B33"/>
<stop offset="0.85" stop-color="#FBA433"/>
<stop offset="0.88" stop-color="#FFA933"/>
<stop offset="1" stop-color="#FFBD2B"/>
</radialGradient>
<radialGradient id="paint15_radial_192_3625" cx="0" cy="0" r="1" gradientUnits="userSpaceOnUse" gradientTransform="translate(45.4793 42.3588) scale(16.3884 16.3884)">
<stop stop-color="#CA6B34"/>
<stop offset="0.24" stop-color="#CC6E33"/>
<stop offset="0.45" stop-color="#D67933"/>
<stop offset="0.66" stop-color="#E58B33"/>
<stop offset="0.85" stop-color="#FBA433"/>
<stop offset="0.88" stop-color="#FFA933"/>
<stop offset="1" stop-color="#FFBD2B"/>
</radialGradient>
<linearGradient id="paint16_linear_192_3625" x1="5.79492" y1="39.6853" x2="68.3968" y2="39.6853" gradientUnits="userSpaceOnUse">
<stop stop-color="#E88905"/>
<stop offset="1" stop-color="#FFE387"/>
</linearGradient>
<linearGradient id="paint17_linear_192_3625" x1="37.2891" y1="64.0939" x2="37.2891" y2="52.3648" gradientUnits="userSpaceOnUse">
<stop stop-color="#EE8B1D"/>
<stop offset="1" stop-color="#8B2C1B"/>
</linearGradient>
<linearGradient id="paint18_linear_192_3625" x1="9.29512" y1="55.0149" x2="65.2906" y2="55.0149" gradientUnits="userSpaceOnUse">
<stop stop-color="#E88905"/>
<stop offset="1" stop-color="#FFE387"/>
</linearGradient>
<linearGradient id="paint19_linear_192_3625" x1="26.912" y1="59.0869" x2="65.2906" y2="59.0869" gradientUnits="userSpaceOnUse">
<stop stop-color="#CA6B34"/>
<stop offset="0.67" stop-color="#FFA933"/>
<stop offset="1" stop-color="#FFBD2B"/>
</linearGradient>
<linearGradient id="paint20_linear_192_3625" x1="4.93736" y1="33.566" x2="69.7491" y2="33.566" gradientUnits="userSpaceOnUse">
<stop stop-color="#E88905"/>
<stop offset="1" stop-color="#FFE387"/>
</linearGradient>
<linearGradient id="paint21_linear_192_3625" x1="55.0603" y1="21.7665" x2="44.7606" y2="22.7478" gradientUnits="userSpaceOnUse">
<stop stop-color="#B41E2D"/>
<stop offset="1" stop-color="#ED8A1D"/>
</linearGradient>
<radialGradient id="paint22_radial_192_3625" cx="0" cy="0" r="1" gradientUnits="userSpaceOnUse" gradientTransform="translate(46.2134 40.4424) scale(9.68158)">
<stop stop-color="#FFBD2B"/>
<stop offset="0.33" stop-color="#FFA933"/>
<stop offset="1" stop-color="#CA6B34"/>
</radialGradient>
<radialGradient id="paint23_radial_192_3625" cx="0" cy="0" r="1" gradientUnits="userSpaceOnUse" gradientTransform="translate(49.2731 40.7747) scale(6.49045 6.49044)">
<stop stop-color="#DA7D34"/>
<stop offset="0.24" stop-color="#DF8632"/>
<stop offset="0.63" stop-color="#EE9F2F"/>
<stop offset="1" stop-color="#FFBD2B"/>
</radialGradient>
<linearGradient id="paint24_linear_192_3625" x1="45.4717" y1="47.5354" x2="45.4717" y2="51.2211" gradientUnits="userSpaceOnUse">
<stop stop-color="#E54136"/>
<stop offset="1" stop-color="white"/>
</linearGradient>
<linearGradient id="paint25_linear_192_3625" x1="44.9694" y1="43.4868" x2="43.7486" y2="56.0736" gradientUnits="userSpaceOnUse">
<stop stop-color="#B41E2D"/>
<stop offset="1" stop-color="#ED8A1D"/>
</linearGradient>
<linearGradient id="paint26_linear_192_3625" x1="19.68" y1="63.6844" x2="19.68" y2="7.2948" gradientUnits="userSpaceOnUse">
<stop stop-color="#DE5634"/>
<stop offset="1" stop-color="#ED8A1D"/>
</linearGradient>
<linearGradient id="paint27_linear_192_3625" x1="16.2955" y1="47.0412" x2="16.1796" y2="49.9851" gradientUnits="userSpaceOnUse">
<stop stop-color="#B41E2D"/>
<stop offset="1" stop-color="#ED8A1D"/>
</linearGradient>
<linearGradient id="paint28_linear_192_3625" x1="14.1242" y1="21.8366" x2="13.9465" y2="31.0391" gradientUnits="userSpaceOnUse">
<stop stop-color="#B41E2D"/>
<stop offset="1" stop-color="#ED8A1D"/>
</linearGradient>
<linearGradient id="paint29_linear_192_3625" x1="42.9993" y1="55.2549" x2="42.9993" y2="54.15" gradientUnits="userSpaceOnUse">
<stop stop-color="#DE5634"/>
<stop offset="1" stop-color="#ED8A1D"/>
</linearGradient>
<linearGradient id="paint30_linear_192_3625" x1="42.7442" y1="47.3115" x2="42.3733" y2="52.8284" gradientUnits="userSpaceOnUse">
<stop stop-color="#B41E2D"/>
<stop offset="1" stop-color="#ED8A1D"/>
</linearGradient>
<radialGradient id="paint31_radial_192_3625" cx="0" cy="0" r="1" gradientUnits="userSpaceOnUse" gradientTransform="translate(65.3759 18.6761) scale(10.6165)">
<stop stop-color="#F4A940"/>
<stop offset="0.09" stop-color="#E69F3C"/>
<stop offset="0.27" stop-color="#C28633"/>
<stop offset="0.51" stop-color="#885E23"/>
<stop offset="0.8" stop-color="#39270F"/>
<stop offset="1"/>
</radialGradient>
<radialGradient id="paint32_radial_192_3625" cx="0" cy="0" r="1" gradientUnits="userSpaceOnUse" gradientTransform="translate(26.07 39.9481) scale(10.6165)">
<stop stop-color="#F4A940"/>
<stop offset="0.09" stop-color="#E69F3C"/>
<stop offset="0.27" stop-color="#C28633"/>
<stop offset="0.51" stop-color="#885E23"/>
<stop offset="0.8" stop-color="#39270F"/>
<stop offset="1"/>
</radialGradient>
<radialGradient id="paint33_radial_192_3625" cx="0" cy="0" r="1" gradientUnits="userSpaceOnUse" gradientTransform="translate(10.6165 22.2071) scale(10.6165)">
<stop stop-color="#F4A940"/>
<stop offset="0.09" stop-color="#E69F3C"/>
<stop offset="0.27" stop-color="#C28633"/>
<stop offset="0.51" stop-color="#885E23"/>
<stop offset="0.8" stop-color="#39270F"/>
<stop offset="1"/>
</radialGradient>
<linearGradient id="paint34_linear_192_3625" x1="42.8369" y1="49.6912" x2="48.3306" y2="42.374" gradientUnits="userSpaceOnUse">
<stop stop-color="white"/>
<stop offset="0.44" stop-color="#ED8A1D"/>
<stop offset="1" stop-color="#B41E2D"/>
</linearGradient>
<linearGradient id="paint35_linear_192_3625" x1="44.4551" y1="54.1865" x2="54.413" y2="53.9987" gradientUnits="userSpaceOnUse">
<stop stop-color="#CA6B34"/>
<stop offset="1" stop-color="#FFBD2B"/>
</linearGradient>
<linearGradient id="paint36_linear_192_3625" x1="44.7717" y1="54.1727" x2="51.9563" y2="54.0372" gradientUnits="userSpaceOnUse">
<stop stop-color="#F08D1D"/>
<stop offset="1" stop-color="#8D2C1B"/>
</linearGradient>
<linearGradient id="paint37_linear_192_3625" x1="44.269" y1="54.166" x2="49.4218" y2="54.0689" gradientUnits="userSpaceOnUse">
<stop stop-color="#F08D1D"/>
<stop offset="0.21" stop-color="#D4711C"/>
<stop offset="0.56" stop-color="#AD4B1B"/>
<stop offset="0.83" stop-color="#95341B"/>
<stop offset="1" stop-color="#8D2C1B"/>
</linearGradient>
<radialGradient id="paint38_radial_192_3625" cx="0" cy="0" r="1" gradientUnits="userSpaceOnUse" gradientTransform="translate(50.2641 54.0525) rotate(88.92) scale(3.92355 3.80927)">
<stop stop-color="#D14B4B"/>
<stop offset="0.17" stop-color="#C74141"/>
<stop offset="0.44" stop-color="#AF2727"/>
<stop offset="0.73" stop-color="#910606"/>
<stop offset="0.83" stop-color="#940E0E"/>
<stop offset="0.99" stop-color="#9D2626"/>
<stop offset="1" stop-color="#9E2929"/>
</radialGradient>
<linearGradient id="paint39_linear_192_3625" x1="46.7027" y1="54.12" x2="51.2297" y2="54.0346" gradientUnits="userSpaceOnUse">
<stop stop-color="#8B2788"/>
<stop offset="1" stop-color="white"/>
</linearGradient>
<radialGradient id="paint40_radial_192_3625" cx="0" cy="0" r="1" gradientUnits="userSpaceOnUse" gradientTransform="translate(50.9711 53.8485) rotate(88.92) scale(2.44327 2.3721)">
<stop offset="0.16" stop-color="#E61C24"/>
<stop offset="0.24" stop-color="#D91A22"/>
<stop offset="0.39" stop-color="#BA161D"/>
<stop offset="0.58" stop-color="#861014"/>
<stop offset="0.81" stop-color="#3F0709"/>
<stop offset="1"/>
</radialGradient>
<linearGradient id="paint41_linear_192_3625" x1="52.3283" y1="53.6956" x2="52.3664" y2="55.7167" gradientUnits="userSpaceOnUse">
<stop stop-color="white"/>
<stop offset="1" stop-color="#FFF7C4"/>
</linearGradient>
<linearGradient id="paint42_linear_192_3625" x1="47.1606" y1="48.4997" x2="47.3732" y2="59.7749" gradientUnits="userSpaceOnUse">
<stop stop-color="#D16509"/>
<stop offset="1" stop-color="#8D2C1B"/>
</linearGradient>
<linearGradient id="paint43_linear_192_3625" x1="53.292" y1="56.8454" x2="53.3364" y2="59.2007" gradientUnits="userSpaceOnUse">
<stop stop-color="#EBBD38"/>
<stop offset="1" stop-color="#FFF29E"/>
</linearGradient>
<radialGradient id="paint44_radial_192_3625" cx="0" cy="0" r="1" gradientUnits="userSpaceOnUse" gradientTransform="translate(50.3739 40.1857) scale(8.74664)">
<stop offset="0.09" stop-color="#E84136"/>
<stop offset="0.15" stop-color="#D63C31"/>
<stop offset="0.46" stop-color="#7B221C"/>
<stop offset="0.72" stop-color="#390F0D"/>
<stop offset="0.91" stop-color="#0F0403"/>
<stop offset="1"/>
</radialGradient>
<linearGradient id="paint45_linear_192_3625" x1="27.8173" y1="40.3836" x2="36.1241" y2="40.2786" gradientUnits="userSpaceOnUse">
<stop stop-color="#CA6B34"/>
<stop offset="0.54" stop-color="#FFA933"/>
<stop offset="0.75" stop-color="#FFAC31"/>
<stop offset="0.94" stop-color="#FFB82C"/>
<stop offset="1" stop-color="#FFBD2B"/>
</linearGradient>
<linearGradient id="paint46_linear_192_3625" x1="32.555" y1="35.4943" x2="28.9647" y2="39.1909" gradientUnits="userSpaceOnUse">
<stop stop-color="white"/>
<stop offset="0.44" stop-color="#ED8A1D"/>
<stop offset="1" stop-color="#B41E2D"/>
</linearGradient>
<linearGradient id="paint47_linear_192_3625" x1="34.5929" y1="40.4231" x2="30.7071" y2="40.4997" gradientUnits="userSpaceOnUse">
<stop stop-color="#E75A29"/>
<stop offset="0.67" stop-color="#FFA933"/>
<stop offset="1" stop-color="#FFBD2B"/>
</linearGradient>
<linearGradient id="paint48_linear_192_3625" x1="32.7117" y1="40.4433" x2="26.4536" y2="40.5359" gradientUnits="userSpaceOnUse">
<stop stop-color="#FFA933"/>
<stop offset="0.33" stop-color="#FFC259"/>
<stop offset="0.78" stop-color="#FFE288"/>
<stop offset="1" stop-color="#FFEF9B"/>
</linearGradient>
<linearGradient id="paint49_linear_192_3625" x1="33.3342" y1="37.9117" x2="33.4334" y2="42.9408" gradientUnits="userSpaceOnUse">
<stop stop-color="#D16509"/>
<stop offset="1" stop-color="#8D2C1B"/>
</linearGradient>
<linearGradient id="paint50_linear_192_3625" x1="30.421" y1="62.6378" x2="31.2024" y2="61.9007" gradientUnits="userSpaceOnUse">
<stop stop-color="#DE3C14"/>
<stop offset="1" stop-color="#DB0F0F"/>
</linearGradient>
<linearGradient id="paint51_linear_192_3625" x1="31.1479" y1="62.3727" x2="30.0103" y2="63.8278" gradientUnits="userSpaceOnUse">
<stop stop-color="#B51818"/>
<stop offset="0.23" stop-color="#BB1A19"/>
<stop offset="0.55" stop-color="#CD211B"/>
<stop offset="0.92" stop-color="#EA2C20"/>
<stop offset="1" stop-color="#F22F22"/>
</linearGradient>
<linearGradient id="paint52_linear_192_3625" x1="30.9124" y1="62.0758" x2="32.0627" y2="63.8943" gradientUnits="userSpaceOnUse">
<stop stop-color="#B51818"/>
<stop offset="0.23" stop-color="#BB1A19"/>
<stop offset="0.55" stop-color="#CD211B"/>
<stop offset="0.92" stop-color="#EA2C20"/>
<stop offset="1" stop-color="#F22F22"/>
</linearGradient>
<linearGradient id="paint53_linear_192_3625" x1="30.3906" y1="61.5126" x2="29.926" y2="61.0212" gradientUnits="userSpaceOnUse">
<stop stop-color="#B51818"/>
<stop offset="0.23" stop-color="#BB1A19"/>
<stop offset="0.55" stop-color="#CD211B"/>
<stop offset="0.92" stop-color="#EA2C20"/>
<stop offset="1" stop-color="#F22F22"/>
</linearGradient>
<linearGradient id="paint54_linear_192_3625" x1="32.17" y1="60.8839" x2="31.375" y2="62.1747" gradientUnits="userSpaceOnUse">
<stop stop-color="#B51818"/>
<stop offset="0.23" stop-color="#BB1A19"/>
<stop offset="0.55" stop-color="#CD211B"/>
<stop offset="0.92" stop-color="#EA2C20"/>
<stop offset="1" stop-color="#F22F22"/>
</linearGradient>
<linearGradient id="paint55_linear_192_3625" x1="33.8226" y1="38.1486" x2="33.8303" y2="38.1483" gradientUnits="userSpaceOnUse">
<stop stop-color="white"/>
<stop offset="1" stop-color="#FFF7C4"/>
</linearGradient>
<linearGradient id="paint56_linear_192_3625" x1="32.0419" y1="40.3882" x2="32.0496" y2="40.388" gradientUnits="userSpaceOnUse">
<stop stop-color="white"/>
<stop offset="1" stop-color="#FFF7C4"/>
</linearGradient>
<linearGradient id="paint57_linear_192_3625" x1="24.6558" y1="39.9401" x2="32.6529" y2="39.9401" gradientUnits="userSpaceOnUse">
<stop stop-color="#DE5634"/>
<stop offset="1" stop-color="#ED8A1D"/>
</linearGradient>
<linearGradient id="paint58_linear_192_3625" x1="58.0379" y1="38.6527" x2="65.2771" y2="38.7767" gradientUnits="userSpaceOnUse">
<stop stop-color="#CA6B34"/>
<stop offset="0.54" stop-color="#FFA933"/>
<stop offset="0.75" stop-color="#FFAC31"/>
<stop offset="0.94" stop-color="#FFB82C"/>
<stop offset="1" stop-color="#FFBD2B"/>
</linearGradient>
<linearGradient id="paint59_linear_192_3625" x1="62.0098" y1="34.7523" x2="58.7424" y2="37.9142" gradientUnits="userSpaceOnUse">
<stop stop-color="white"/>
<stop offset="0.44" stop-color="#ED8A1D"/>
<stop offset="1" stop-color="#B41E2D"/>
</linearGradient>
<linearGradient id="paint60_linear_192_3625" x1="63.3849" y1="39.0655" x2="59.9931" y2="39.0323" gradientUnits="userSpaceOnUse">
<stop stop-color="#E75A29"/>
<stop offset="0.67" stop-color="#FFA933"/>
<stop offset="1" stop-color="#FFBD2B"/>
</linearGradient>
<linearGradient id="paint61_linear_192_3625" x1="61.7653" y1="39.0266" x2="56.3726" y2="38.943" gradientUnits="userSpaceOnUse">
<stop stop-color="#FFA933"/>
<stop offset="0.33" stop-color="#FFC259"/>
<stop offset="0.78" stop-color="#FFE288"/>
<stop offset="1" stop-color="#FFEF9B"/>
</linearGradient>
<linearGradient id="paint62_linear_192_3625" x1="62.3513" y1="36.7835" x2="62.3074" y2="41.2725" gradientUnits="userSpaceOnUse">
<stop stop-color="#D16509"/>
<stop offset="1" stop-color="#8D2C1B"/>
</linearGradient>
<linearGradient id="paint63_linear_192_3625" x1="58.5036" y1="60.923" x2="59.2166" y2="60.2903" gradientUnits="userSpaceOnUse">
<stop stop-color="#DE3C14"/>
<stop offset="1" stop-color="#DB0F0F"/>
</linearGradient>
<linearGradient id="paint64_linear_192_3625" x1="59.1688" y1="60.709" x2="58.1025" y2="61.993" gradientUnits="userSpaceOnUse">
<stop stop-color="#B51818"/>
<stop offset="0.23" stop-color="#BB1A19"/>
<stop offset="0.55" stop-color="#CD211B"/>
<stop offset="0.92" stop-color="#EA2C20"/>
<stop offset="1" stop-color="#F22F22"/>
</linearGradient>
<linearGradient id="paint65_linear_192_3625" x1="58.925" y1="60.4341" x2="59.9045" y2="62.0998" gradientUnits="userSpaceOnUse">
<stop stop-color="#B51818"/>
<stop offset="0.23" stop-color="#BB1A19"/>
<stop offset="0.55" stop-color="#CD211B"/>
<stop offset="0.92" stop-color="#EA2C20"/>
<stop offset="1" stop-color="#F22F22"/>
</linearGradient>
<linearGradient id="paint66_linear_192_3625" x1="58.5156" y1="59.9205" x2="58.1016" y2="59.4581" gradientUnits="userSpaceOnUse">
<stop stop-color="#B51818"/>
<stop offset="0.23" stop-color="#BB1A19"/>
<stop offset="0.55" stop-color="#CD211B"/>
<stop offset="0.92" stop-color="#EA2C20"/>
<stop offset="1" stop-color="#F22F22"/>
</linearGradient>
<linearGradient id="paint67_linear_192_3625" x1="60.0879" y1="59.4039" x2="59.3283" y2="60.5419" gradientUnits="userSpaceOnUse">
<stop stop-color="#B51818"/>
<stop offset="0.23" stop-color="#BB1A19"/>
<stop offset="0.55" stop-color="#CD211B"/>
<stop offset="0.92" stop-color="#EA2C20"/>
<stop offset="1" stop-color="#F22F22"/>
</linearGradient>
<linearGradient id="paint68_linear_192_3625" x1="63.0113" y1="37.1192" x2="63.0113" y2="37.1192" gradientUnits="userSpaceOnUse">
<stop stop-color="white"/>
<stop offset="1" stop-color="#FFF7C4"/>
</linearGradient>
<linearGradient id="paint69_linear_192_3625" x1="61.1683" y1="38.9588" x2="61.176" y2="38.9589" gradientUnits="userSpaceOnUse">
<stop stop-color="white"/>
<stop offset="1" stop-color="#FFF7C4"/>
</linearGradient>
<linearGradient id="paint70_linear_192_3625" x1="55.7944" y1="38.5064" x2="61.9036" y2="38.6855" gradientUnits="userSpaceOnUse">
<stop stop-color="#DE5634"/>
<stop offset="1" stop-color="#ED8A1D"/>
</linearGradient>
<clipPath id="clip0_192_3625">
<rect width="70" height="70" fill="white" transform="translate(0.5)"/>
</clipPath>
<clipPath id="clip1_192_3625">
<rect width="76" height="56.3896" fill="white" transform="translate(0 7.29517)"/>
</clipPath>
</defs>
</svg>
