<svg width="70" height="70" viewBox="0 0 70 70" fill="none" xmlns="http://www.w3.org/2000/svg">
<path d="M14.4048 53.7233C14.4048 53.7233 5.38145 23.1887 7.17534 15.9362C8.96922 8.68367 13.1267 4.64935 20.7026 16.9987C29.5335 31.3882 26.9774 54.8858 26.9774 54.8858L14.4125 53.7233H14.4048Z" fill="#7C1338"/>
<path d="M57.4507 53.6617L26.9777 54.8858C26.9777 54.8858 28.0402 39.4338 24.6988 27.1538C21.3497 14.8737 15.3213 10.0695 13.1194 9.25342C13.1194 9.25342 27.5398 11.7787 36.3398 12.4331C45.1398 13.0876 56.4652 12.0251 60.053 11.2937C60.053 11.2937 64.4491 33.9444 57.443 53.6617H57.4507Z" fill="url(#paint0_linear_192_2769)"/>
<path d="M28.3404 18.5232C28.3404 18.5232 50.2212 19.6242 55.3488 19.4394L55.7799 19.8705L27.3165 18.7696L28.3404 18.5232Z" fill="#7C1338"/>
<path d="M28.1556 27.4465C38.9728 28.0548 57.1811 27.4465 57.1811 27.4465L56.5113 28.0548C56.5113 28.0548 35.5467 27.6852 25.8921 28.0548L28.1556 27.4465Z" fill="#7C1338"/>
<path d="M32.2746 50.4821C32.2746 50.4821 45.8096 50.3127 56.5729 49.1963C56.75 49.1809 56.2727 49.8353 56.2727 49.8353C56.2727 49.8353 31.089 50.9671 31.2738 50.9671C31.4585 50.9671 32.2746 50.4821 32.2746 50.4821Z" fill="#7C1338"/>
<path opacity="0.46" d="M36.5012 19.116C36.5012 19.116 44.1695 19.8012 46.7949 20.0168C49.4203 20.2323 53.7318 19.7858 53.7318 19.7858L36.5012 19.116Z" fill="url(#paint1_radial_192_2769)"/>
<path opacity="0.46" d="M35.3696 27.8928L51.4761 27.9775C51.4761 27.9775 45.8558 28.2008 41.9138 28.2932C37.9719 28.3856 35.3773 27.8928 35.3773 27.8928H35.3696Z" fill="url(#paint2_radial_192_2769)"/>
<path opacity="0.46" d="M35.1001 50.7975C35.2233 50.7975 48.9276 50.1738 48.9276 50.1738C48.9276 50.1738 42.2448 51.0361 39.0112 50.9745C35.7699 50.9129 35.1001 50.7975 35.1001 50.7975Z" fill="url(#paint3_radial_192_2769)"/>
<path style="mix-blend-mode:screen" opacity="0.3" d="M32.0284 15.7668C33.3834 17.0217 37.002 18.0072 39.5658 18.0919C42.1296 18.1766 50.4831 15.1508 49.6054 13.9806C48.7277 12.8026 39.4503 13.4493 35.0464 13.0028C30.6503 12.5562 29.3799 13.3262 32.0284 15.7745V15.7668Z" fill="url(#paint4_radial_192_2769)"/>
<path style="mix-blend-mode:screen" opacity="0.3" d="M34.3921 20.0784C33.245 21.3872 35.1697 26.5302 35.8549 26.6072C36.5479 26.6919 44.9014 21.0253 43.0228 20.4941C41.1519 19.9629 35.3622 18.962 34.3844 20.0707L34.3921 20.0784Z" fill="url(#paint5_radial_192_2769)"/>
<path d="M51.6838 19.4315C51.6838 18.8848 51.1911 17.7223 50.3827 17.7838C49.582 17.8454 48.6273 19.4315 48.6273 19.4315H51.6838Z" fill="#7C1338"/>
<path d="M35.1003 50.4281C34.1841 50.2895 36.1242 49.2656 36.8326 49.5658C37.5409 49.8738 37.9335 50.3434 37.9335 50.3434C37.9335 50.3434 36.5785 50.6437 35.1003 50.4204V50.4281Z" fill="#7C1338"/>
<path style="mix-blend-mode:soft-light" opacity="0.5" d="M34.1378 53.5386C33.953 40.8274 43.4459 45.1004 48.7891 45.4622C54.1323 45.8241 52.7002 52.1835 51.9765 53.1613C51.2528 54.1468 34.1532 54.8166 34.1378 53.5309V53.5386Z" fill="url(#paint6_linear_192_2769)"/>
<path d="M26.9774 8.19106C26.9774 8.19106 19.5632 5.47329 8.39954 5.66577C8.39954 5.66577 18.0927 8.83009 22.0885 19.9168C26.0843 31.0034 26.7849 54.4548 26.7849 54.4548L34.1375 53.5386C34.1375 53.5386 35.3463 40.9891 34.1375 28.2395C32.9134 15.2819 26.9697 8.19106 26.9697 8.19106H26.9774Z" fill="url(#paint7_radial_192_2769)"/>
<path d="M47.1028 9.0764C47.1028 9.0764 57.4503 7.62897 64.2948 7.86764C64.2948 7.86764 68.5293 11.209 68.7757 22.5344C69.022 33.8597 60.0988 52.2374 60.0988 52.2374L54.0396 52.6532C54.0396 52.6532 58.79 40.7735 57.9431 27.585C56.8806 11.1244 47.1028 9.0687 47.1028 9.0687V9.0764Z" fill="url(#paint8_radial_192_2769)"/>
<path d="M15.5675 16.506C10.8018 15.9594 12.3878 24.2667 13.1269 28.4858C13.8583 32.7049 18.8088 54.8859 18.8088 54.8859H15.9371C15.9371 54.8859 11.2329 37.2858 9.45446 27.816C7.68367 18.3461 8.53827 14.7968 10.6786 13.8806C12.819 12.9644 15.5675 16.506 15.5675 16.506Z" fill="#675775"/>
<path d="M23.0741 54.0775L23.7671 53.5925L23.7363 53.2922C23.6362 52.3298 23.2589 49.0731 22.4197 43.8762C22.1887 42.4211 21.9193 40.8197 21.6036 39.072C21.5497 38.7409 21.4881 38.4022 21.4265 38.0634C21.1879 36.7392 20.9261 35.3302 20.6412 33.8597C20.5642 33.444 20.4796 33.0359 20.3949 32.6356C20.3718 32.5432 20.3564 32.4585 20.341 32.3738L20.2794 32.0658C17.6694 19.8089 14.0354 14.8507 11.3561 14.8507C8.67687 14.8507 8.95403 21.3718 10.8634 31.4961C10.9019 31.6809 10.9327 31.8734 10.9712 32.0658C10.9789 32.1197 10.9943 32.1736 11.002 32.2198C11.3253 33.8751 11.7257 35.6921 12.1645 37.5476C12.2338 37.8401 12.3031 38.1404 12.3724 38.433C12.7574 40.0575 13.1654 41.6974 13.5658 43.2603C14.7899 48.0645 15.9294 52.145 16.1681 52.9842C16.1989 53.0843 16.2143 53.1382 16.2143 53.1382L18.3084 53.5848L13.5581 53.0997C13.4888 52.9072 13.4195 52.7225 13.3502 52.53L13.3271 52.4761C12.2107 49.4349 11.156 46.2475 10.1936 43.0293C9.70854 41.4202 9.2543 39.8034 8.82315 38.1943C8.74616 37.9171 8.67687 37.6323 8.59988 37.3551C8.13023 35.5766 7.69908 33.8058 7.31413 32.0658C7.31413 32.035 7.29873 32.0119 7.29103 31.9811L7.25254 31.8041C4.196 18.1382 3.65707 6.36632 8.3997 5.6657C13.7198 4.88039 22.2503 14.0577 24.6986 27.1538C25.0066 28.8168 25.2761 30.5799 25.4993 32.3738C25.5147 32.4662 25.5224 32.5586 25.5378 32.651C25.7534 34.4294 25.9382 36.2387 26.0845 38.0172C26.1153 38.356 26.1384 38.6947 26.1692 39.0258C26.3001 40.6734 26.4001 42.2825 26.4771 43.7992C26.4771 43.7992 26.4771 43.8069 26.4771 43.8146C26.7466 48.8421 26.7851 52.8841 26.7851 54.0852C26.7851 54.3239 26.7851 54.4547 26.7851 54.4547L23.0741 54.0775Z" fill="#51385B"/>
<path d="M47.1028 9.07642C44.7315 9.07642 42.8683 12.6334 42.8683 12.6334C42.8683 12.6334 46.4484 12.6103 47.7957 12.5487C47.7957 12.5487 52.6308 12.772 54.9251 23.1426C57.2887 33.8135 52.523 52.4376 52.523 52.4376L54.0397 52.6532C54.0397 52.6532 58.5744 42.6367 58.5744 28.1701C58.5744 17.1758 52.3613 9.07642 47.1105 9.07642H47.1028Z" fill="#51385B"/>
<path d="M7.17558 36.97L7.46045 38.2019L23.0357 39.5646L67.9983 37.3396L68.3062 35.6304L22.2273 36.7621L7.17558 36.97Z" fill="url(#paint9_linear_192_2769)"/>
<path d="M69.9999 31.4961L68.7834 36.1694L26.0844 38.0172L25.607 38.0403L22.9893 38.1558L21.4341 38.0711L12.1644 37.5553L8.59975 37.3551L6.28233 37.2242C5.42773 34.799 5.42773 31.9811 5.42773 31.9811L7.30631 32.0658L11.0019 32.2275L20.3947 32.6433L22.4889 32.7356L25.53 32.6587L69.9999 31.5038V31.4961Z" fill="#51385B"/>
<path d="M68.6524 37.155L67.3282 41.4203L26.4692 43.7916L23.6282 43.9533L22.4195 43.8686L13.5579 43.2527L10.1857 43.0217L8.39947 42.8985C7.05983 40.3578 6.28223 38.0096 6.28223 38.0096L8.81522 38.1867L12.3722 38.4331L21.6111 39.0721L22.9815 39.1645L26.1612 39.0259L68.6601 37.155H68.6524Z" fill="#51385B"/>
<path d="M22.4891 32.7279L22.9818 38.1558L68.6605 36.6237L70.0001 31.4961L22.4891 32.7279Z" fill="url(#paint10_radial_192_2769)"/>
<path d="M23.6359 43.961L22.9814 39.1645L68.6601 37.155L67.3358 41.4203C67.3358 41.4203 24.0362 43.9841 23.6359 43.961Z" fill="url(#paint11_radial_192_2769)"/>
<path d="M6.2747 38.0173L7.32178 37.6016L7.36797 37.8094L24.1212 38.41L68.0983 36.8009L68.1291 36.6238L68.6526 37.155L22.9817 39.1645L6.2747 38.0173Z" fill="#DACFE6"/>
<path d="M65.5575 52.653L62.7473 59.3666L27.3161 61.8072L11.4945 59.5283L9.76225 52.4375L13.0036 51.6214L13.3192 52.4683L13.3423 52.5299L16.1679 52.9841L18.3082 52.653L23.7361 53.2921L23.7669 53.5923L26.7772 54.0851H26.7849L34.1375 53.5384L34.176 53.0765L52.5152 52.4375L54.0396 52.653L60.0988 52.2296L60.5531 51.2749L65.5575 52.653Z" fill="#51385B"/>
<path d="M65.5577 52.6531C65.5577 52.6531 60.4609 54.4778 49.4666 54.8859C38.4646 55.2939 27.3241 54.8705 27.3241 54.8705C13.5581 53.0997 9.77019 52.4376 9.77019 52.4376L13.0115 51.6215L13.3503 52.5223L16.1142 52.9688C16.1681 52.9765 16.2143 52.9765 16.2682 52.9688L18.3239 52.6455L23.7517 53.2845L23.7825 53.5847L26.7928 54.0852L34.1455 53.5385L34.184 53.0843L52.5232 52.4453L54.0399 52.6608L60.099 52.2451L60.5533 51.2827L65.5577 52.6608V52.6531Z" fill="#DACFE6"/>
<path d="M27.3161 54.8705V61.8074L62.7396 59.3591L65.5498 52.6455C65.5498 52.6455 58.097 53.8543 47.5801 54.5703C39.8964 55.0938 27.3084 54.8628 27.3084 54.8628L27.3161 54.8705Z" fill="url(#paint12_radial_192_2769)"/>
<path d="M70.0001 31.4961L25.5302 32.6509L22.4891 32.7279L20.3949 32.6355L11.002 32.2275L7.29879 32.0581L5.42021 31.9811L7.24489 31.804L7.28339 31.9811L10.9712 32.0658L13.8045 31.9349L20.2717 32.0658L20.341 32.3738H25.4917L34.438 32.0889L34.4149 31.804L55.572 31.1265L58.4899 31.4961L67.7134 31.1265L67.775 30.8647L70.0001 31.4961Z" fill="#DACFE6"/>
<path d="M32.2744 54.8782C32.2744 54.8782 34.3917 54.4317 41.5595 54.1083C48.7273 53.785 63.3094 52.9766 63.3094 52.9766C63.3094 52.9766 60.8149 54.4548 50.7137 55.0553C42.5758 55.5404 32.2667 54.8782 32.2667 54.8782H32.2744Z" fill="#BBABC9"/>
<path style="mix-blend-mode:multiply" opacity="0.5" d="M42.8608 12.6333C42.8608 12.6333 44.4314 9.40738 47.0953 9.07632C49.7592 8.73756 55.11 12.8566 57.0502 19.1236C58.9904 25.3907 58.4822 31.5037 58.4822 31.5037H55.5566L51.6763 30.6337C51.6763 30.6337 51.222 25.637 49.6591 20.2862C48.0885 14.9276 43.9387 12.5717 43.9387 12.5717L42.8608 12.641V12.6333Z" fill="url(#paint13_linear_192_2769)"/>
<path d="M37.2714 31.7116V29.4635C37.2714 29.4635 46.441 28.4857 52.2692 29.656C52.2692 29.656 55.9031 31.0264 56.2034 32.0658C56.5114 33.1052 55.6414 44.8463 55.1024 45.3467C54.1324 46.2552 51.2529 47.7334 51.2529 47.7334L37.5254 48.2262L36.8248 43.2218L38.9652 43.1525C38.9652 43.1525 39.3039 40.2961 39.5503 38.1558L39.5811 37.4705C39.5811 37.4705 39.6427 34.2292 39.2115 32.3969L37.2637 31.7116H37.2714Z" fill="#51385B"/>
<path opacity="0.7" d="M43.7614 33.0051C43.6305 34.3755 43.2533 44.1303 43.2533 44.7385C43.2533 45.3467 54.109 45.8395 54.902 45.4083C55.695 44.9772 56.4418 33.2207 55.5333 32.5509C55.0482 32.189 43.8076 32.4816 43.7614 33.0051Z" fill="url(#paint14_linear_192_2769)"/>
<g style="mix-blend-mode:soft-light" opacity="0.5">
<path d="M44.7777 41.0583C43.9077 41.0352 43.6075 33.9598 44.3697 33.3361C45.1319 32.7048 55.3716 32.2429 55.5102 32.9512C55.6488 33.6595 56.1031 41.8128 55.1253 41.9745C54.1475 42.1362 52.1688 39.9804 51.9764 39.4107C51.7839 38.841 50.3441 36.716 49.5973 36.639C48.8505 36.562 47.5032 41.1353 44.7777 41.066V41.0583Z" fill="#594275"/>
</g>
<g style="mix-blend-mode:screen" opacity="0.31">
<path d="M37.271 29.4559C37.271 29.4559 38.1487 30.2412 42.8297 31.7964C43.4919 32.0197 55.7488 32.3661 55.7796 32.0659C55.8412 31.4961 52.9309 29.7484 52.2688 29.6561C46.2404 28.7861 40.3352 29.0247 37.271 29.4636V29.4559Z" fill="#776191"/>
</g>
<path style="mix-blend-mode:multiply" opacity="0.5" d="M41.5825 46.1553C39.3267 47.0407 37.5251 48.2187 37.5251 48.2187L51.2526 47.7259C51.2526 47.7259 54.1243 46.2862 54.0858 45.9551C54.0473 45.6164 43.6382 45.3392 41.5825 46.1476V46.1553Z" fill="url(#paint15_linear_192_2769)"/>
<path d="M46.8565 42.8832C47.5033 43.1065 49.7514 43.7686 51.8532 42.9756C51.9456 42.9371 51.9918 42.8371 51.9687 42.7447L50.5521 38.0405C50.5059 37.8481 50.5521 37.6479 50.683 37.5016C50.9524 37.1705 51.0987 36.724 51.0371 36.2466C50.9371 35.5152 50.3365 34.9301 49.6051 34.8531C48.6196 34.7453 47.7881 35.5152 47.7881 36.4699C47.7881 36.7702 47.9883 37.132 48.1731 37.4092C48.3579 37.6787 48.4118 38.0097 48.3271 38.3254L46.7334 42.6523C46.6949 42.7524 46.7488 42.8678 46.8488 42.8986L46.8565 42.8832Z" fill="url(#paint16_linear_192_2769)"/>
<path d="M51.8532 42.9678C50.8754 43.3373 49.8591 43.3989 48.9968 43.3219C49.5204 43.2757 50.0593 43.168 50.5905 42.9678C50.6829 42.9293 50.7291 42.8292 50.706 42.7368L49.2894 38.025C49.2432 37.8325 49.2894 37.6323 49.4203 37.486C49.6897 37.155 49.836 36.7084 49.7744 36.2311C49.6974 35.6537 49.3125 35.1686 48.7889 34.953C49.0353 34.853 49.3125 34.8068 49.605 34.8376C50.3365 34.9145 50.937 35.5074 51.0371 36.2311C51.0987 36.7084 50.9601 37.155 50.6829 37.486C50.5597 37.64 50.5058 37.8402 50.552 38.025L51.9687 42.7368C51.9995 42.8292 51.9456 42.937 51.8532 42.9678Z" fill="#51385B"/>
<path d="M53.4547 13.3649C53.6857 14.7507 54.471 17.5224 55.264 17.6841C55.6874 17.7688 55.8106 17.6148 56.0416 17.2991C56.6883 16.4214 56.6036 14.4428 55.9338 13.8115C55.264 13.1801 53.2083 11.9252 53.4547 13.3649Z" fill="url(#paint17_linear_192_2769)"/>
<path d="M54.494 15.4897C53.7317 15.713 54.7557 17.7224 55.3717 17.784C55.9799 17.8456 56.411 14.9353 54.494 15.4897Z" fill="#51385B"/>
<path style="mix-blend-mode:multiply" opacity="0.5" d="M54.0399 52.6531C54.0399 52.6531 56.7576 45.4083 57.1888 42.013H55.6952C55.6952 42.013 55.4796 44.5537 55.1177 45.3467C55.1177 45.3467 46.9259 45.8856 43.9541 45.57C43.0148 45.4699 43.2689 43.9532 43.4305 40.0959C43.5922 36.2387 43.2535 31.9349 42.8377 31.7963C42.422 31.6577 37.279 29.4558 37.279 29.4558L34.4072 31.4961L34.4303 31.804L36.8478 31.727L37.5485 32.3892C37.5485 32.3892 38.149 35.5535 37.9642 37.6553L36.4167 37.7092V37.9633L37.9565 38.5099C37.9565 38.5099 37.9026 41.4741 37.4869 43.1602L34.5612 43.3526L34.4149 49.5119C34.4149 49.5119 41.3133 48.7728 49.3665 48.7728C49.6822 48.7728 49.5436 51.1749 49.6129 52.5453L52.5309 52.4453L54.0476 52.6608L54.0399 52.6531Z" fill="url(#paint18_linear_192_2769)"/>
<path style="mix-blend-mode:multiply" opacity="0.5" d="M27.3163 54.8705V61.8074L11.4947 59.5284L9.76239 52.4376L13.0037 51.6215L13.3194 52.4684C12.203 49.4272 11.1482 46.2398 10.1858 43.0216L8.39965 42.8984C7.06001 40.3577 6.28241 38.0095 6.28241 38.0095L7.32178 37.5938C7.24479 37.3166 7.32178 37.5476 7.24479 37.2704L6.27471 37.2165C5.42011 34.7913 5.42011 31.9734 5.42011 31.9734L7.24479 31.7964C4.19596 18.1382 3.65702 6.36632 8.39965 5.6657C13.7197 4.88039 22.2503 14.0577 24.6986 27.1538C25.0066 28.8168 25.276 30.5799 25.4993 32.3738L22.4967 32.7357L22.9894 38.1558L35.331 37.7401L33.029 38.1173L22.9817 39.1721L23.6361 43.9686L26.4771 43.8223L26.785 54.0929L23.0818 54.0775L27.324 54.8705H27.3163Z" fill="url(#paint19_linear_192_2769)"/>
<path style="mix-blend-mode:multiply" opacity="0.8" d="M13.7428 43.9609C15.7292 43.984 16.9765 46.2629 16.9765 46.2629C16.9765 46.2629 19.9868 46.3861 23.2281 49.1963L22.4274 43.8762L16.3682 43.4835L13.5658 43.2603L10.1936 43.0293L10.3629 43.599L13.7428 43.9609Z" fill="url(#paint20_linear_192_2769)"/>
<path style="mix-blend-mode:multiply" opacity="0.8" d="M11.3486 14.8508C9.40841 14.7276 8.88487 19.424 9.90885 25.8835C9.90885 25.8835 10.7942 24.1435 12.3264 23.5892C12.3264 23.5892 14.9363 24.0435 17.1306 26.0375C18.4625 27.254 19.5866 29.0709 19.5866 29.0709C19.5866 29.0709 17.7696 22.2265 15.8448 18.8697C13.9201 15.5052 12.2417 14.9123 11.3563 14.8585L11.3486 14.8508Z" fill="url(#paint21_linear_192_2769)"/>
<path d="M22.4892 32.7278C22.1273 33.2436 21.881 34.8758 22.0889 35.6303C22.289 36.3848 22.9665 37.917 22.9665 37.917C22.9665 37.917 23.0204 35.7304 22.9819 34.999C22.9435 34.2676 22.4892 32.7278 22.4892 32.7278Z" fill="#51385B"/>
<path d="M22.9816 39.1643C23.5514 39.888 23.7207 41.0275 23.8362 41.397C23.9594 41.7666 23.6361 43.9608 23.6361 43.9608C23.6361 43.9608 22.7815 41.6126 22.7815 41.2585C22.7815 40.9043 22.9816 39.1643 22.9816 39.1643Z" fill="#51385B"/>
<path d="M26.5079 45.0618C26.2 46.7325 25.6687 49.0653 25.892 49.5118C26.1153 49.9584 26.7774 54.0928 26.7774 54.0928C26.7774 54.0928 27.3702 50.8284 27.1316 49.5811C26.8929 48.3339 26.5079 45.0695 26.5079 45.0695V45.0618Z" fill="#51385B"/>
<path d="M20.7337 15.8977C19.6096 15.9285 21.7038 24.282 22.0118 24.5284C22.3197 24.7747 23.6517 25.075 24.0828 24.6516C24.514 24.2204 24.7218 20.7173 24.5294 20.0783C23.8672 17.784 21.9502 15.8669 20.7337 15.9054V15.8977Z" fill="url(#paint22_linear_192_2769)"/>
<path d="M22.9971 21.9569C21.7652 20.2246 21.1416 20.1245 21.1878 21.0638C21.234 22.0031 21.9269 24.5361 22.2041 24.6362C22.4889 24.7363 23.382 24.9441 23.5899 24.4437C23.7978 23.9509 23.459 22.6036 22.9971 21.9569Z" fill="#51385B"/>
<g style="mix-blend-mode:soft-light" opacity="0.5">
<path d="M40.2125 38.3406C39.9584 38.9103 38.9806 46.0011 39.2655 46.286C39.5503 46.5709 42.5838 44.8694 42.7917 44.4844C42.9918 44.0995 43.0688 39.8111 42.5838 38.8487C42.0987 37.8863 40.4665 37.7939 40.2202 38.3406H40.2125Z" fill="#25425C"/>
</g>
<path opacity="0.3" d="M21.8344 35.8769C22.2887 36.4312 22.7198 37.9172 22.4888 37.9172C22.2579 37.9172 16.9994 37.794 16.9455 37.5938C16.8839 37.4013 21.3109 35.2379 21.8344 35.8692V35.8769Z" fill="#51385B"/>
<g style="mix-blend-mode:soft-light" opacity="0.5">
<path d="M26.2844 55.5556C23.5744 54.7626 11.2481 52.4606 10.8016 53.1612C10.355 53.8618 10.5167 58.6429 12.0642 59.2358C13.6118 59.8286 23.8438 60.6986 24.2442 60.6216C26.2844 60.252 26.8234 55.7096 26.2844 55.5479V55.5556Z" fill="#25425C"/>
</g>
<g style="mix-blend-mode:soft-light" opacity="0.5">
<path d="M7.17542 6.72813C4.09579 9.36891 5.08127 18.5231 6.93675 18.0997C7.52958 17.9611 9.41585 14.8122 10.8787 14.5966C12.3415 14.381 14.1354 14.8584 15.4827 14.8584C16.8301 14.8584 17.8463 13.2723 15.8369 10.3929C13.8351 7.50574 9.16948 5.01124 7.17542 6.72813Z" fill="#25425C"/>
</g>
<path d="M56.6112 37.6863C61.0998 38.7718 68.3061 37.155 68.3061 37.155C68.3061 37.155 65.188 37.2243 63.5712 37.2089C61.9544 37.1858 56.6112 37.6863 56.6112 37.6863Z" fill="#BBABC9"/>
<path d="M25.5299 32.651C28.3631 33.4517 36.8321 32.3585 36.8321 32.3585C36.8321 32.3585 34.738 32.2045 30.6498 32.3585C26.5693 32.5125 25.5299 32.651 25.5299 32.651Z" fill="#BBABC9"/>
<g style="mix-blend-mode:soft-light" opacity="0.5">
<path d="M50.3828 9.47665C51.5377 10.4082 54.7559 12.6718 55.3487 12.8796C60.1145 14.5503 67.6288 14.5503 67.0205 13.3878C66.4123 12.2252 65.3729 8.80683 63.0478 8.56046C60.7227 8.31409 49.5667 8.81453 50.3828 9.47665Z" fill="#594275"/>
</g>
<g style="mix-blend-mode:soft-light" opacity="0.3">
<path d="M56.6114 46.9249C56.111 47.6717 55.1871 51.7214 55.7414 51.8369C56.2881 51.9601 62.3857 47.1944 62.3241 45.7854C62.2625 44.3765 57.3043 45.8778 56.6114 46.9172V46.9249Z" fill="#D2FFF1"/>
</g>
<g style="mix-blend-mode:soft-light" opacity="0.1">
<path d="M64.7029 23.0886C63.6173 24.2897 63.9715 25.3599 64.7029 25.3599C65.4343 25.3599 67.3899 22.8038 67.2667 22.619C67.1435 22.4265 65.519 22.1801 64.7029 23.0886Z" fill="#D2FFF1"/>
</g>
<g style="mix-blend-mode:soft-light" opacity="0.5">
<path d="M15.0747 6.16626C13.1653 6.19706 20.0714 13.696 22.4042 14.3658C24.737 15.0356 29.2795 15.4128 29.2487 13.7575C29.2025 11.3554 27.6319 8.51448 25.3683 7.84466C23.1048 7.17484 16.3681 6.15086 15.067 6.17396L15.0747 6.16626Z" fill="#594275"/>
</g>
<g style="mix-blend-mode:soft-light" opacity="0.1">
<path d="M25.5302 19.4319C24.9913 21.1873 26.0307 31.1499 26.7852 31.4963C27.5474 31.8428 33.0445 31.8505 33.0445 30.6263C33.0445 29.4022 26.023 17.8459 25.5302 19.4319Z" fill="#D2FFF1"/>
</g>
<g style="mix-blend-mode:soft-light" opacity="0.1">
<path d="M28.3402 19.4316C28.3402 20.1246 30.0263 24.5053 30.6499 24.5053C31.2735 24.5053 32.1897 19.7319 31.1811 19.4316C30.1725 19.1314 28.3325 18.6694 28.3402 19.4316Z" fill="#D2FFF1"/>
</g>
<path style="mix-blend-mode:multiply" opacity="0.5" d="M34.1761 53.0766C38.2181 51.8679 52.5153 52.4376 52.5153 52.4376C52.5153 52.4376 49.1893 53.2152 43.0685 53.3769C36.9478 53.5386 34.1761 53.0843 34.1761 53.0843V53.0766Z" fill="url(#paint23_linear_192_2769)"/>
<g style="mix-blend-mode:soft-light" opacity="0.5">
<path d="M27.3164 61.8075C30.7194 59.8519 46.1637 55.3864 54.5942 55.2401C63.0247 55.0862 62.7398 59.3668 62.7398 59.3668L27.3164 61.8152V61.8075Z" fill="#594275"/>
</g>
<path d="M19.5786 38.0019C19.7249 37.9788 22.8122 37.1396 22.9739 37.155C24.3058 37.2782 27.4085 37.8094 28.1323 37.948C28.2015 37.9634 23.1663 38.1482 22.9816 38.1482C21.742 38.1482 19.4708 38.0173 19.5786 37.9942V38.0019Z" fill="#423152"/>
<path d="M69.8459 32.0659C69.7689 32.1198 61.1382 31.9427 61.092 31.7271C61.0766 31.6502 69.9922 31.3268 69.9922 31.4962C69.9922 31.7425 69.9152 32.0197 69.8459 32.0659Z" fill="#BBABC9"/>
<path d="M22.9817 39.1643C23.2281 39.5646 23.767 40.912 23.8671 41.0506C24.1212 41.4201 33.183 38.7716 32.5362 38.7408C31.8895 38.71 22.7738 38.8178 22.9817 39.1643Z" fill="#BBABC9"/>
<path style="mix-blend-mode:multiply" opacity="0.8" d="M64.2333 42.4288C64.2333 42.4288 60.661 43.7222 56.6112 44.6076C56.6112 44.6076 55.7028 45.4006 53.7241 46.9251C53.7241 46.9251 53.6394 47.6719 53.4623 48.2262C53.4623 48.2262 38.3798 48.896 34.5072 48.7728V44.292C34.5072 44.292 30.8963 44.7077 26.5464 45.416C26.5464 45.416 24.0826 45.9165 22.7353 46.0012L22.5505 45.0619L22.0116 43.8531L38.9727 43.1525C38.9727 43.1525 37.6484 44.292 37.1634 45.3544L37.5329 48.2262L51.2604 47.7335C51.2604 47.7335 54.6403 46.0859 55.1099 45.3467C55.5796 44.6153 55.6874 42.013 55.6874 42.013L64.5413 41.5896L64.2333 42.4288Z" fill="url(#paint24_linear_192_2769)"/>
<g style="mix-blend-mode:soft-light" opacity="0.5">
<path d="M68.3061 25.4907C67.8211 24.6361 58.5052 28.324 58.6977 29.0785C58.8902 29.833 58.2742 31.4498 58.9517 31.4498C59.6293 31.4498 66.6739 31.2804 67.2668 30.8647C67.8596 30.4489 68.7912 26.353 68.2984 25.4907H68.3061Z" fill="#594275"/>
</g>
<g style="mix-blend-mode:soft-light" opacity="0.3">
<path d="M57.7048 32.1816C56.9118 32.6127 55.9186 36.6009 56.6115 36.7009C57.3044 36.7933 66.8359 36.4854 67.421 36.1543C67.9984 35.8155 68.8068 32.3202 68.1524 32.1893C67.498 32.0584 58.7134 31.6426 57.7048 32.1893V32.1816Z" fill="#D2FFF1"/>
</g>
<path opacity="0.3" d="M6.27473 32.6204C5.6819 34.0832 5.78199 35.8771 6.27473 35.7616C6.76747 35.6538 10.4399 32.9899 9.39286 32.7281C8.34579 32.4664 6.50571 32.0429 6.27473 32.6127V32.6204Z" fill="#51385B"/>
<g style="mix-blend-mode:soft-light" opacity="0.3">
<path d="M28.6481 55.8174C26.6848 56.8722 27.8089 60.2367 29.6643 59.8133C37.5328 58.004 31.4428 54.3161 28.6481 55.8174Z" fill="#D2FFF1"/>
</g>
<path opacity="0.3" d="M11.7794 44.6539C11.8256 45.7318 13.0651 50.8208 13.4116 51.2674C13.7118 51.66 15.1362 52.045 15.1439 51.6985C15.1593 51.0056 11.7409 43.6684 11.7794 44.6539Z" fill="#51385B"/>
<path opacity="0.3" d="M20.5796 26.6071C19.4556 27.7004 20.0869 31.4884 20.9877 31.7963C21.8808 32.1043 24.5447 32.7972 24.5986 31.2497C24.6525 29.7022 23.5515 23.7123 20.5796 26.6071Z" fill="#51385B"/>
<g style="mix-blend-mode:soft-light" opacity="0.9">
<path d="M67.9135 15.2048C67.7595 14.6813 56.6112 15.8977 56.6112 15.8977L56.1801 16.9756C56.1801 16.9756 57.4119 19.5317 57.7584 21.4411C57.7584 21.4411 57.9201 20.3247 58.5514 20.0783C59.2289 19.8166 67.3053 19.4085 68.0059 19.4393C68.7065 19.4701 68.6603 20.4787 68.6603 20.4787C68.6603 20.4787 68.6064 17.5761 67.9135 15.2125V15.2048Z" fill="#95A8CF"/>
</g>
<g style="mix-blend-mode:soft-light" opacity="0.9">
<path d="M19.9791 14.5735C21.7114 15.1663 31.2736 16.0363 31.2736 16.0363C31.3737 16.2981 32.0282 18.1074 32.0282 18.1074C32.0282 18.1074 25.815 17.1219 22.9817 17.2682C22.9817 17.2682 21.6267 15.8438 20.7336 15.8977L19.9714 14.5735H19.9791Z" fill="#95A8CF"/>
</g>
<g style="mix-blend-mode:multiply" opacity="0.3">
<path d="M63.179 11.2475C62.9326 14.204 60.161 15.0971 58.9368 14.4427C57.8282 13.8498 57.551 10.4699 58.7751 9.31508C59.4681 8.66066 63.1713 11.2475 63.1713 11.2475H63.179Z" fill="#3E2952"/>
</g>
<path d="M58.521 9.68433C58.0051 10.9393 58.6981 12.379 59.9607 12.9333C61.1387 13.4492 62.4937 13.0488 63.0865 12.0094C63.7179 10.9008 63.3098 9.39946 62.0703 8.66035C60.7306 7.86735 59.083 8.34469 58.5287 9.68433H58.521Z" fill="#3A2542"/>
<path opacity="0.84" d="M63.0942 10.2696C63.1327 10.8085 59.5757 10.7931 59.7451 9.96164C60.2148 7.69811 62.9556 8.42182 63.0942 10.2696Z" fill="#B3A8BD"/>
<g style="mix-blend-mode:soft-light" opacity="0.6">
<path d="M63.1791 11.0857C63.3485 11.9942 61.9473 13.2337 60.9464 12.8796C60.1919 12.6101 59.7222 11.2397 60.0148 11.0241C60.4074 10.7315 63.0559 10.4236 63.1791 11.0857Z" fill="#D2FFF1"/>
</g>
<g style="mix-blend-mode:multiply" opacity="0.3">
<path d="M65.812 19.6548C65.5657 22.6112 62.794 23.5043 61.5698 22.8499C60.4612 22.2571 60.184 18.8772 61.4082 17.7223C62.1011 17.0679 65.8043 19.6548 65.8043 19.6548H65.812Z" fill="#3E2952"/>
</g>
<path d="M61.154 18.0918C60.6382 19.3467 61.3311 20.7865 62.5937 21.3408C63.7717 21.8566 65.1267 21.4563 65.7195 20.4169C66.3509 19.3083 65.9428 17.8069 64.7033 17.0678C63.3636 16.2748 61.716 16.7522 61.1617 18.0918H61.154Z" fill="#3A2542"/>
<path opacity="0.84" d="M65.7352 18.6768C65.7737 19.2158 62.2167 19.2004 62.3861 18.3689C62.8557 16.1053 65.5966 16.829 65.7352 18.6768Z" fill="#B3A8BD"/>
<g style="mix-blend-mode:soft-light" opacity="0.6">
<path d="M65.8121 19.4929C65.9815 20.4014 64.5803 21.641 63.5794 21.2868C62.8249 21.0173 62.3552 19.6469 62.6478 19.4313C63.0404 19.1388 65.6889 18.8308 65.8121 19.4929Z" fill="#D2FFF1"/>
</g>
<g style="mix-blend-mode:multiply" opacity="0.3">
<path d="M66.5589 27.8931C66.3126 30.8495 63.5409 31.7426 62.3167 31.0882C61.2081 30.4953 60.9309 27.1155 62.1551 25.9606C62.848 25.3062 66.5512 27.8931 66.5512 27.8931H66.5589Z" fill="#3E2952"/>
</g>
<path d="M61.9009 26.3301C61.3851 27.585 62.078 29.0248 63.3406 29.5791C64.5186 30.0949 65.8736 29.6946 66.4664 28.6552C67.0978 27.5465 66.6897 26.0452 65.4502 25.3061C64.1105 24.5131 62.4629 24.9904 61.9086 26.3301H61.9009Z" fill="#3A2542"/>
<path opacity="0.84" d="M66.4821 26.9151C66.5206 27.454 62.9636 27.4386 63.133 26.6071C63.6026 24.3436 66.3435 25.0673 66.4821 26.9151Z" fill="#B3A8BD"/>
<g style="mix-blend-mode:soft-light" opacity="0.6">
<path d="M66.559 27.7312C66.7284 28.6397 65.3272 29.8792 64.3263 29.5251C63.5718 29.2556 63.1021 27.8852 63.3947 27.6696C63.7873 27.377 66.4358 27.0691 66.559 27.7312Z" fill="#D2FFF1"/>
</g>
<g style="mix-blend-mode:multiply" opacity="0.3">
<path d="M60.477 57.3415C60.2307 60.298 57.1741 59.9053 55.95 59.2509C54.8413 58.6581 54.849 56.5639 56.0732 55.4091C56.7661 54.7547 60.4693 57.3415 60.4693 57.3415H60.477Z" fill="#3E2952"/>
</g>
<path d="M55.8192 55.771C55.3034 57.0259 55.9963 58.4657 57.259 59.02C58.4369 59.5358 59.792 59.1355 60.3848 58.0961C61.0161 56.9875 60.6081 55.4861 59.3685 54.747C58.0289 53.954 56.3813 54.4314 55.8269 55.771H55.8192Z" fill="#3A2542"/>
<path opacity="0.84" d="M60.3925 56.356C60.431 56.895 56.874 56.8796 57.0434 56.0481C57.513 53.7845 60.2539 54.5082 60.3925 56.356Z" fill="#B3A8BD"/>
<g style="mix-blend-mode:soft-light" opacity="0.6">
<path d="M60.477 57.1799C60.6463 58.0884 59.2451 59.328 58.2442 58.9738C57.4897 58.7043 57.0201 57.3339 57.3126 57.1183C57.7053 56.8258 60.3538 56.5178 60.477 57.1799Z" fill="#D2FFF1"/>
</g>
<g style="mix-blend-mode:multiply" opacity="0.3">
<path d="M49.2285 57.9116C48.9821 60.8681 46.0026 60.6525 44.7784 59.9981C43.6697 59.4052 43.6081 57.134 44.8323 55.9791C45.5252 55.3247 49.2285 57.9116 49.2285 57.9116Z" fill="#3E2952"/>
</g>
<path d="M44.5704 56.3486C44.0545 57.6036 44.7474 59.0433 46.0101 59.5976C47.1881 60.1135 48.5431 59.7131 49.1359 58.6738C49.7672 57.5651 49.3592 56.0638 48.1196 55.3247C46.78 54.5317 45.1324 55.009 44.5781 56.3486H44.5704Z" fill="#3A2542"/>
<path opacity="0.84" d="M49.1515 56.9337C49.19 57.4726 45.6331 57.4572 45.8024 56.6257C46.2721 54.3622 49.013 55.0859 49.1515 56.9337Z" fill="#B3A8BD"/>
<g style="mix-blend-mode:soft-light" opacity="0.6">
<path d="M49.2285 57.7576C49.3979 58.6661 47.9966 59.9056 46.9958 59.5514C46.2412 59.282 45.7716 57.9115 46.0642 57.696C46.4568 57.4034 49.1053 57.0954 49.2285 57.7576Z" fill="#D2FFF1"/>
</g>
<g style="mix-blend-mode:multiply" opacity="0.3">
<path d="M37.5946 58.5964C37.3482 61.5529 34.5997 61.6299 33.3755 60.9831C32.2669 60.3903 31.9743 57.8265 33.1984 56.664C33.8914 56.0095 37.5946 58.5964 37.5946 58.5964Z" fill="#3E2952"/>
</g>
<path d="M32.9366 57.0337C32.4208 58.2886 33.1137 59.7284 34.3764 60.2827C35.5543 60.7985 36.9094 60.3982 37.5022 59.3588C38.1335 58.2502 37.7255 56.7488 36.4859 56.0097C35.1463 55.2167 33.4987 55.6941 32.9443 57.0337H32.9366Z" fill="#3A2542"/>
<path opacity="0.84" d="M37.5099 57.6187C37.5484 58.1577 33.9914 58.1423 34.1608 57.3108C34.6304 55.0472 37.3713 55.7709 37.5099 57.6187Z" fill="#B3A8BD"/>
<g style="mix-blend-mode:soft-light" opacity="0.6">
<path d="M37.5947 58.4348C37.7641 59.3433 36.3629 60.5829 35.362 60.2287C34.6075 59.9592 34.1379 58.5888 34.4304 58.3732C34.8231 58.0806 37.4716 57.7727 37.5947 58.4348Z" fill="#D2FFF1"/>
</g>
<g style="mix-blend-mode:multiply" opacity="0.3">
<path d="M31.713 29.2479C31.4666 32.2044 28.8335 32.6278 27.6094 31.9734C26.5007 31.3806 26.085 28.4703 27.3091 27.3078C28.002 26.6533 31.7053 29.2402 31.7053 29.2402L31.713 29.2479Z" fill="#3E2952"/>
</g>
<path d="M27.0549 27.6851C26.5391 28.94 27.232 30.3797 28.4947 30.9341C29.6726 31.4499 31.0277 31.0496 31.6205 30.0102C32.2518 28.9015 31.8438 27.4002 30.6042 26.6611C29.2646 25.8681 27.617 26.3454 27.0626 27.6851H27.0549Z" fill="#3A2542"/>
<path opacity="0.84" d="M31.6361 28.2703C31.6746 28.8093 28.1176 28.7939 28.287 27.9624C28.7567 25.6988 31.4975 26.4226 31.6361 28.2703Z" fill="#B3A8BD"/>
<g style="mix-blend-mode:soft-light" opacity="0.6">
<path d="M31.7131 29.0864C31.8824 29.9949 30.4812 31.2345 29.4803 30.8803C28.7258 30.6108 28.2562 29.2404 28.5487 29.0248C28.9414 28.7323 31.5899 28.4243 31.7131 29.0864Z" fill="#D2FFF1"/>
</g>
<g style="mix-blend-mode:multiply" opacity="0.3">
<path d="M12.5502 56.4177C12.1191 59.351 14.8599 60.0132 16.1996 59.659C17.416 59.3356 18.209 56.9489 17.2775 55.54C16.7539 54.747 12.5502 56.4177 12.5502 56.4177Z" fill="#3E2952"/>
</g>
<path d="M17.4466 55.9635C17.6622 57.3032 16.6613 58.5427 15.3063 58.7968C14.0436 59.0355 12.8118 58.3271 12.473 57.18C12.1111 55.9558 12.8502 54.5854 14.2284 54.1542C15.7143 53.6846 17.2156 54.5238 17.4466 55.9635Z" fill="#3A2542"/>
<path opacity="0.48" d="M12.8504 55.4862C12.6887 56.0021 16.1533 56.8028 16.1764 55.9559C16.238 53.6461 13.4047 53.7231 12.8504 55.4862Z" fill="#B3A8BD"/>
<g style="mix-blend-mode:soft-light" opacity="0.41">
<path d="M12.5886 56.2638C12.2191 57.1107 13.297 58.6351 14.3517 58.5196C15.1447 58.4349 15.9147 57.2031 15.6837 56.9259C15.368 56.5487 12.8581 55.6479 12.5886 56.2638Z" fill="#D2FFF1"/>
</g>
<g style="mix-blend-mode:multiply" opacity="0.3">
<path d="M20.0485 57.5493C19.6173 60.4826 22.5815 60.9061 23.9211 60.5519C25.1376 60.2285 25.7073 58.0805 24.7757 56.6716C24.2522 55.8786 20.0485 57.5493 20.0485 57.5493Z" fill="#3E2952"/>
</g>
<path d="M24.9376 57.0876C25.1532 58.4272 24.1523 59.6667 22.7973 59.9208C21.5347 60.1595 20.3028 59.4512 19.964 58.304C19.6022 57.0799 20.3413 55.7094 21.7194 55.2783C23.2054 54.8086 24.7067 55.6478 24.9376 57.0876Z" fill="#3A2542"/>
<path opacity="0.48" d="M20.3488 56.6178C20.1871 57.1337 23.6517 57.9344 23.6748 57.0875C23.7364 54.7777 20.9032 54.8547 20.3488 56.6178Z" fill="#B3A8BD"/>
<g style="mix-blend-mode:soft-light" opacity="0.41">
<path d="M20.0796 57.3956C19.71 58.2425 20.7879 59.767 21.8427 59.6515C22.6357 59.5668 23.4056 58.3349 23.1746 58.0578C22.859 57.6805 20.3491 56.7797 20.0796 57.3956Z" fill="#D2FFF1"/>
</g>
<g style="mix-blend-mode:multiply" opacity="0.3">
<path d="M30.2732 20.0088C30.0268 22.9652 27.2551 23.8583 26.031 23.2039C24.9223 22.6111 24.6451 19.2312 25.8693 18.0763C26.5622 17.4219 30.2655 20.0088 30.2655 20.0088H30.2732Z" fill="#3E2952"/>
</g>
<path d="M25.6151 18.446C25.0993 19.701 25.7922 21.1407 27.0549 21.6951C28.2328 22.2109 29.5878 21.8105 30.1807 20.7712C30.812 19.6625 30.404 18.1612 29.1644 17.4221C27.8248 16.6291 26.1772 17.1064 25.6228 18.446H25.6151Z" fill="#3A2542"/>
<path opacity="0.84" d="M30.1963 19.0311C30.2348 19.57 26.6778 19.5546 26.8472 18.7231C27.3168 16.4596 30.0577 17.1833 30.1963 19.0311Z" fill="#B3A8BD"/>
<g style="mix-blend-mode:soft-light" opacity="0.6">
<path d="M30.2732 19.8472C30.4426 20.7557 29.0414 21.9952 28.0405 21.641C27.286 21.3716 26.8164 20.0011 27.1089 19.7856C27.5016 19.493 30.1501 19.185 30.2732 19.8472Z" fill="#D2FFF1"/>
</g>
<g style="mix-blend-mode:multiply" opacity="0.3">
<path d="M25.4999 11.1394C25.2536 14.0958 22.4819 14.9889 21.2577 14.3345C20.1491 13.7417 19.8719 10.3618 21.0961 9.20693C21.789 8.55251 25.4922 11.1394 25.4922 11.1394H25.4999Z" fill="#3E2952"/>
</g>
<path d="M20.8419 9.57666C20.3261 10.8316 21.019 12.2713 22.2816 12.8257C23.4596 13.3415 24.8146 12.9412 25.4075 11.9018C26.0388 10.7931 25.6307 9.2918 24.3912 8.55269C23.0515 7.75968 21.4039 8.23702 20.8496 9.57666H20.8419Z" fill="#3A2542"/>
<path opacity="0.84" d="M25.4151 10.1617C25.4536 10.7006 21.8966 10.6852 22.066 9.85373C22.5357 7.5902 25.2765 8.31391 25.4151 10.1617Z" fill="#B3A8BD"/>
<g style="mix-blend-mode:soft-light" opacity="0.6">
<path d="M25.5 10.9778C25.6694 11.8863 24.2682 13.1258 23.2673 12.7717C22.5128 12.5022 22.0431 11.1318 22.3357 10.9162C22.7284 10.6236 25.3768 10.3157 25.5 10.9778Z" fill="#D2FFF1"/>
</g>
<path style="mix-blend-mode:color-dodge" opacity="0.8" d="M10.5785 30.4412C16.4209 30.4412 21.1571 25.7051 21.1571 19.8627C21.1571 14.0203 16.4209 9.28418 10.5785 9.28418C4.73617 9.28418 0 14.0203 0 19.8627C0 25.7051 4.73617 30.4412 10.5785 30.4412Z" fill="url(#paint25_radial_192_2769)"/>
<defs>
<linearGradient id="paint0_linear_192_2769" x1="37.2714" y1="11.0858" x2="37.2714" y2="58.489" gradientUnits="userSpaceOnUse">
<stop offset="0.02" stop-color="#CD6D22"/>
<stop offset="0.95" stop-color="#C74D3E"/>
</linearGradient>
<radialGradient id="paint1_radial_192_2769" cx="0" cy="0" r="1" gradientUnits="userSpaceOnUse" gradientTransform="translate(45.1165 19.601) scale(6.10537 6.10537)">
<stop offset="0.02" stop-color="#FFA41A"/>
<stop offset="1" stop-color="#FF8836"/>
</radialGradient>
<radialGradient id="paint2_radial_192_2769" cx="0" cy="0" r="1" gradientUnits="userSpaceOnUse" gradientTransform="translate(43.4152 28.1007) scale(5.69732 5.69732)">
<stop offset="0.02" stop-color="#FFA41A"/>
<stop offset="1" stop-color="#FF8836"/>
</radialGradient>
<radialGradient id="paint3_radial_192_2769" cx="0" cy="0" r="1" gradientUnits="userSpaceOnUse" gradientTransform="translate(42.0138 50.5742) scale(4.89661 4.89662)">
<stop offset="0.02" stop-color="#FFA41A"/>
<stop offset="1" stop-color="#FF8836"/>
</radialGradient>
<radialGradient id="paint4_radial_192_2769" cx="0" cy="0" r="1" gradientUnits="userSpaceOnUse" gradientTransform="translate(40.1586 15.4896) scale(6.96766)">
<stop offset="0.02" stop-color="#FFA41A"/>
<stop offset="1" stop-color="#FF8836"/>
</radialGradient>
<radialGradient id="paint5_radial_192_2769" cx="0" cy="0" r="1" gradientUnits="userSpaceOnUse" gradientTransform="translate(38.6651 23.0887) scale(4.11131)">
<stop offset="0.02" stop-color="#FFA41A"/>
<stop offset="1" stop-color="#FF8836"/>
</radialGradient>
<linearGradient id="paint6_linear_192_2769" x1="40.9437" y1="52.0141" x2="48.1193" y2="46.5555" gradientUnits="userSpaceOnUse">
<stop stop-color="#36193B"/>
<stop offset="1" stop-color="#8E37E2"/>
</linearGradient>
<radialGradient id="paint7_radial_192_2769" cx="0" cy="0" r="1" gradientUnits="userSpaceOnUse" gradientTransform="translate(21.5342 30.0564) scale(19.5941 19.5941)">
<stop stop-color="#6C6178"/>
<stop offset="1" stop-color="#9E84B5"/>
</radialGradient>
<radialGradient id="paint8_radial_192_2769" cx="0" cy="0" r="1" gradientUnits="userSpaceOnUse" gradientTransform="translate(57.9431 30.2489) scale(17.6001 17.6001)">
<stop stop-color="#6C6178"/>
<stop offset="1" stop-color="#9E84B5"/>
</radialGradient>
<linearGradient id="paint9_linear_192_2769" x1="7.17558" y1="37.6013" x2="68.3062" y2="37.6013" gradientUnits="userSpaceOnUse">
<stop stop-color="#1F111F"/>
<stop offset="0.62" stop-color="#2D1C2E"/>
<stop offset="1" stop-color="#38253B"/>
</linearGradient>
<radialGradient id="paint10_radial_192_2769" cx="0" cy="0" r="1" gradientUnits="userSpaceOnUse" gradientTransform="translate(46.2408 34.8221) scale(16.9611 16.9611)">
<stop stop-color="#6C6178"/>
<stop offset="1" stop-color="#9E84B5"/>
</radialGradient>
<radialGradient id="paint11_radial_192_2769" cx="0" cy="0" r="1" gradientUnits="userSpaceOnUse" gradientTransform="translate(45.8169 40.558) scale(16.3297)">
<stop stop-color="#6C6178"/>
<stop offset="1" stop-color="#9E84B5"/>
</radialGradient>
<radialGradient id="paint12_radial_192_2769" cx="0" cy="0" r="1" gradientUnits="userSpaceOnUse" gradientTransform="translate(46.4406 57.2265) scale(13.9045 13.9045)">
<stop stop-color="#6C6178"/>
<stop offset="1" stop-color="#9E84B5"/>
</radialGradient>
<linearGradient id="paint13_linear_192_2769" x1="50.7062" y1="9.83083" x2="50.7062" y2="41.628" gradientUnits="userSpaceOnUse">
<stop stop-color="#662D87"/>
<stop offset="1" stop-color="#D01C5C"/>
</linearGradient>
<linearGradient id="paint14_linear_192_2769" x1="43.2533" y1="38.9796" x2="55.949" y2="38.9796" gradientUnits="userSpaceOnUse">
<stop stop-color="#A3849F"/>
<stop offset="1" stop-color="#9A95A5"/>
</linearGradient>
<linearGradient id="paint15_linear_192_2769" x1="45.8093" y1="45.7165" x2="45.8093" y2="49.3889" gradientUnits="userSpaceOnUse">
<stop stop-color="#705AB6"/>
<stop offset="1" stop-color="white"/>
</linearGradient>
<linearGradient id="paint16_linear_192_2769" x1="49.351" y1="35.1226" x2="49.351" y2="47.2024" gradientUnits="userSpaceOnUse">
<stop stop-color="#1F111F"/>
<stop offset="0.62" stop-color="#2D1C2E"/>
<stop offset="1" stop-color="#38253B"/>
</linearGradient>
<linearGradient id="paint17_linear_192_2769" x1="53.4393" y1="15.205" x2="56.4881" y2="15.205" gradientUnits="userSpaceOnUse">
<stop stop-color="#1F111F"/>
<stop offset="0.62" stop-color="#2D1C2E"/>
<stop offset="1" stop-color="#38253B"/>
</linearGradient>
<linearGradient id="paint18_linear_192_2769" x1="45.7942" y1="30.2642" x2="45.7942" y2="63.1239" gradientUnits="userSpaceOnUse">
<stop stop-color="#662D87"/>
<stop offset="1" stop-color="#D01C5C"/>
</linearGradient>
<linearGradient id="paint19_linear_192_2769" x1="4.89657" y1="33.7134" x2="35.3233" y2="33.7134" gradientUnits="userSpaceOnUse">
<stop stop-color="#662D87"/>
<stop offset="1" stop-color="#D01C5C"/>
</linearGradient>
<linearGradient id="paint20_linear_192_2769" x1="10.1859" y1="46.1166" x2="23.2204" y2="46.1166" gradientUnits="userSpaceOnUse">
<stop stop-color="#662D87"/>
<stop offset="1" stop-color="#D01C5C"/>
</linearGradient>
<linearGradient id="paint21_linear_192_2769" x1="9.40071" y1="21.957" x2="19.5789" y2="21.957" gradientUnits="userSpaceOnUse">
<stop stop-color="#662D87"/>
<stop offset="1" stop-color="#D01C5C"/>
</linearGradient>
<linearGradient id="paint22_linear_192_2769" x1="20.4026" y1="20.3863" x2="24.5986" y2="20.3863" gradientUnits="userSpaceOnUse">
<stop stop-color="#1F111F"/>
<stop offset="0.62" stop-color="#2D1C2E"/>
<stop offset="1" stop-color="#38253B"/>
</linearGradient>
<linearGradient id="paint23_linear_192_2769" x1="34.1761" y1="52.8534" x2="52.523" y2="52.8534" gradientUnits="userSpaceOnUse">
<stop stop-color="#662D87"/>
<stop offset="1" stop-color="#D01C5C"/>
</linearGradient>
<linearGradient id="paint24_linear_192_2769" x1="43.2764" y1="43.7607" x2="43.2764" y2="49.6582" gradientUnits="userSpaceOnUse">
<stop stop-color="#662D87"/>
<stop offset="1" stop-color="#D01C5C"/>
</linearGradient>
<radialGradient id="paint25_radial_192_2769" cx="0" cy="0" r="1" gradientUnits="userSpaceOnUse" gradientTransform="translate(10.5785 19.8627) scale(10.5785)">
<stop stop-color="#705AB5"/>
<stop offset="0.14" stop-color="#5C4994"/>
<stop offset="0.44" stop-color="#342A55"/>
<stop offset="0.69" stop-color="#181327"/>
<stop offset="0.89" stop-color="#06050A"/>
<stop offset="1"/>
</radialGradient>
</defs>
</svg>
