<svg width="38" height="38" viewBox="0 0 38 38" fill="none" xmlns="http://www.w3.org/2000/svg">
<g clip-path="url(#clip0_432_2393)">
<g clip-path="url(#clip1_432_2393)">
<g opacity="0.5">
<path d="M34.6099 26.3901C39.9908 21.0092 39.9908 12.2851 34.6099 6.90421C29.229 1.52333 20.5049 1.52334 15.124 6.90421C9.74314 12.2851 9.74314 21.0092 15.124 26.3901C20.5049 31.771 29.229 31.771 34.6099 26.3901Z" fill="url(#paint0_radial_432_2393)" style="mix-blend-mode:screen"/>
</g>
<path d="M15.1025 6.35114C15.1025 6.35114 10.5058 7.04358 9.558 8.89012C9.39594 9.19951 12.264 10.9675 12.48 11.105C12.6077 11.1885 12.372 12.2198 12.1117 12.3131C11.8563 12.4064 6.84222 15.1418 4.35726 18.9184C1.8723 22.6851 1.54327 26.0589 2.48127 27.3751C3.41926 28.6912 4.45057 29.2953 4.49477 29.8109C4.53897 30.3266 4.21484 31.4954 5.10373 31.9177C5.99262 32.3401 8.54634 32.232 8.54634 32.232L15.1025 6.35114Z" fill="#FF9FDB"/>
<path d="M24.9294 4.75015C24.9294 4.75015 23.7999 4.74524 23.5985 5.00061C23.1074 5.61448 22.4248 8.23204 22.4248 8.23204L23.0731 10.0049L24.9294 4.74524V4.75015Z" fill="#FF9FDB"/>
<path d="M23.9619 5.22162C23.2793 6.3757 23.3333 7.86864 21.9779 10.0295L24.7379 10.5058L25.6169 5.65379L23.9619 5.22162Z" fill="url(#paint1_linear_432_2393)"/>
<path d="M34.5697 28.8729C34.1817 29.5114 33.8772 29.8944 33.8772 29.8944C33.8772 29.8944 33.8772 31.0289 33.2683 31.8244C32.6593 32.62 30.2676 32.4334 29.8944 32.3401C29.5801 32.2615 27.3161 33.1259 23.2351 33.6611C22.4199 33.7692 21.531 33.8625 20.5684 33.9313C18.5598 34.0786 16.7477 33.9705 15.2155 33.7545C12.3474 33.3518 10.4714 32.5856 10.167 32.4334C10.0589 32.3794 9.84775 32.3401 9.56292 32.3106C8.60036 32.2026 6.86187 32.1829 5.99263 31.9619C4.86801 31.682 5.01043 30.5574 5.01043 29.9141C5.01043 29.8158 4.97605 29.7078 4.91221 29.585C4.75506 29.2707 4.42111 28.8828 4.07243 28.4113C3.66482 27.8514 3.23265 27.1836 3.04112 26.388C2.61878 24.6544 3.27685 21.3739 6.17924 17.8625C6.32657 17.6857 6.4739 17.5089 6.62614 17.3419C8.09944 15.6722 9.71516 14.3069 10.9331 13.3837C12.0528 12.5292 12.8336 12.0528 12.8336 12.0528C12.7403 11.2081 13.585 10.9282 13.585 10.9282C13.585 10.9282 11.8171 10.329 10.9085 9.70044C10.7563 9.59731 10.6286 9.48926 10.5402 9.38613C10.2652 9.06692 10.7268 7.79497 13.256 6.85698C13.3738 6.81278 13.4966 6.76858 13.6145 6.7342C15.9668 5.94353 17.8036 6.19399 20.6126 6.95519C23.5641 7.75078 24.8754 8.12892 24.9687 7.32843C25.062 6.53285 23.9374 5.73727 23.9374 5.35912C23.9374 4.98098 24.4039 4.37693 27.3112 5.0792C27.6746 5.1676 27.9988 5.2609 28.2934 5.35912C30.3413 6.03684 30.7195 6.88644 30.3118 7.0485C28.9171 7.60345 27.9104 9.21916 27.655 9.65624C27.6157 9.72499 27.5912 9.76428 27.5912 9.76428C27.5912 9.76428 27.9644 10 28.2492 10.4764C28.5341 10.9527 28.0135 11.7287 28.0135 11.7287C30.2185 13.6734 35.2179 19.4537 36.0479 22.8717C36.1166 23.1565 36.1559 23.4266 36.1657 23.6771C36.2247 25.7545 35.2621 27.7336 34.5648 28.8828L34.5697 28.8729Z" fill="url(#paint2_radial_432_2393)"/>
<g style="mix-blend-mode:soft-light" opacity="0.3">
<path d="M16.0356 14.8324C7.46101 18.5991 6.14977 29.2265 20.8778 30.0761C22.027 30.1399 24.6937 30.6654 25.8674 30.2038C28.0233 29.3591 31.6231 26.4223 31.8293 25.0129C33.5776 13.2265 25.9803 10.4665 16.0356 14.8324Z" fill="white"/>
</g>
<g style="mix-blend-mode:multiply" opacity="0.5">
<path d="M13.5899 10.9282C8.06015 9.05216 11.6206 7.62306 15.0534 7.48556C18.4862 7.34314 23.461 9.31244 22.3462 9.87721C21.2314 10.442 16.6838 10.5107 19.4487 10.9331C22.2136 11.3554 11.4684 16.8459 9.58256 16.0945C7.26948 15.1713 12.3769 12.8287 13.4279 12.0577C14.4837 11.2867 13.5899 10.9331 13.5899 10.9331V10.9282Z" fill="#BE2F55"/>
</g>
<g style="mix-blend-mode:multiply" opacity="0.5">
<path d="M23.4757 21.197C20.7796 20.0282 20.593 19.9791 20.6175 19.7827C20.6421 19.5813 20.5488 16.7035 20.6667 16.5365C20.7845 16.3744 21.973 16.2811 22.7735 16.7968C22.8766 16.8655 22.9159 17.7593 22.9846 17.8526C23.0534 17.946 24.8606 17.8772 24.9294 17.7348C24.9981 17.5924 25.0227 13.8797 24.9736 13.7814C24.9294 13.6832 23.1221 13.7323 23.0534 13.8011C22.9846 13.8649 23.0239 14.7293 23.0239 14.9159C23.0239 14.9159 21.6832 14.5034 20.3573 14.7636C20.3573 14.7636 20.3818 13.8306 20.3327 13.7225C20.2885 13.6145 18.992 13.5997 18.9576 13.7864C18.9085 14.0417 18.9233 15.0534 18.8152 15.1762C18.7121 15.2989 15.8342 16.6249 15.2695 18.8938C14.7096 21.1627 18.0344 22.1694 18.4813 22.3118C18.4813 22.3118 18.6237 25.1062 18.55 25.4991C18.5009 25.7593 16.9589 26.2504 16.4432 25.17C15.9276 24.0896 16.07 23.3873 16.07 23.3873C16.07 23.3873 13.8207 23.6231 13.7716 23.7606C13.7225 23.903 13.8404 27.7679 14.523 28.3769C15.2007 28.9859 18.4813 28.3523 18.5549 28.5635C18.6237 28.7747 18.5795 29.5261 18.6728 29.5948C18.7661 29.6636 20.3573 29.6636 20.4555 29.5948C20.5488 29.5261 20.5733 28.5635 20.6421 28.4948C20.7109 28.426 24.6004 28.1215 26.0295 26.4567C27.4586 24.7919 26.1719 22.3806 23.4757 21.2069V21.197ZM18.884 19.4635C18.884 19.4635 18.1866 19.2032 18.0982 18.5893C17.9754 17.7004 18.884 17.0767 18.884 17.0767V19.4585V19.4635ZM22.2087 24.5218C22.0221 25.6709 20.6617 25.6709 20.6617 25.6709V22.8815C21.1774 22.9306 22.3953 23.3726 22.2087 24.5218Z" fill="#BE2F55"/>
</g>
<path d="M23.4757 20.7894C20.7796 19.6206 20.593 19.5715 20.6175 19.3751C20.6421 19.1737 20.5488 16.2959 20.6667 16.1289C20.7845 15.9668 21.973 15.8735 22.7735 16.3892C22.8766 16.4579 22.9159 17.3517 22.9846 17.4451C23.0534 17.5384 24.8606 17.4696 24.9294 17.3272C24.9981 17.1848 25.0227 13.4721 24.9736 13.3738C24.9294 13.2756 23.1221 13.3247 23.0534 13.3935C22.9846 13.4573 23.0239 14.3217 23.0239 14.5083C23.0239 14.5083 21.6832 14.0958 20.3573 14.356C20.3573 14.356 20.3818 13.423 20.3327 13.3149C20.2885 13.2069 18.992 13.1921 18.9576 13.3788C18.9085 13.6341 18.9233 14.6458 18.8152 14.7686C18.7121 14.8913 15.8342 16.2173 15.2695 18.4862C14.7096 20.7551 18.0344 21.7618 18.4813 21.9042C18.4813 21.9042 18.6237 24.6986 18.55 25.0915C18.5009 25.3517 16.9589 25.8428 16.4432 24.7624C15.9276 23.682 16.07 22.9797 16.07 22.9797C16.07 22.9797 13.8207 23.2155 13.7716 23.353C13.7225 23.4954 13.8404 27.3603 14.523 27.9693C15.2007 28.5783 18.4813 27.9447 18.5549 28.1559C18.6237 28.3671 18.5795 29.1185 18.6728 29.1872C18.7661 29.256 20.3573 29.256 20.4555 29.1872C20.5488 29.1185 20.5733 28.1559 20.6421 28.0872C20.7109 28.0184 24.6004 27.7139 26.0295 26.0491C27.4586 24.3843 26.1719 21.973 23.4757 20.7993V20.7894ZM18.884 19.0559C18.884 19.0559 18.1866 18.7956 18.0982 18.1817C17.9754 17.2928 18.884 16.6691 18.884 16.6691V19.051V19.0559ZM22.2087 24.1142C22.0221 25.2633 20.6617 25.2633 20.6617 25.2633V22.4739C21.1774 22.523 22.3953 22.965 22.2087 24.1142Z" fill="url(#paint3_linear_432_2393)"/>
<path d="M13.5899 10.9282C13.5899 10.9282 12.5586 11.046 12.8385 12.0528C12.8385 12.0528 20.4506 9.40578 28.0184 11.7238C28.0184 11.7238 28.5341 11.272 28.4849 10.771C28.4358 10.2701 27.5961 9.75446 27.5961 9.75446C27.5961 9.75446 24.8754 9.16023 20.1903 9.75446C16.3695 10.2406 13.585 10.9282 13.585 10.9282H13.5899Z" fill="url(#paint4_linear_432_2393)"/>
<g style="mix-blend-mode:soft-light" opacity="0.3">
<path d="M28.5046 19.2081C28.1019 21.3542 29.7716 20.7796 29.9092 19.6992C30.0516 18.6237 28.7354 17.9656 28.5046 19.2081Z" fill="white"/>
</g>
<g style="mix-blend-mode:soft-light" opacity="0.5">
<path d="M23.8637 8.63966C20.8778 8.25169 20.0675 6.35605 13.6194 6.72437C15.9718 5.9337 17.8085 6.18416 20.6176 6.94537C23.5691 7.74095 24.8803 8.11909 24.9736 7.3186C25.0669 6.52302 23.9423 5.72744 23.9423 5.3493C23.9423 4.97115 24.4088 4.3671 27.3161 5.06937C27.6796 5.15777 28.0037 5.25108 28.2983 5.3493C27.4979 5.25108 25.9362 5.09393 25.3026 5.48189C24.6691 5.86986 26.1473 6.74893 26.8496 7.30878C27.5519 7.86863 26.8496 9.03254 23.8637 8.64457V8.63966Z" fill="white"/>
</g>
<g style="mix-blend-mode:multiply" opacity="0.5">
<path d="M33.8772 29.8944C33.8772 29.8944 31.6722 29.7864 29.8944 32.3401C29.5212 32.2468 26.3339 33.5089 20.5684 33.9312C14.8029 34.3536 10.6335 32.6642 10.167 32.4334C10.0589 32.3794 9.84775 32.3401 9.56291 32.3106C9.56291 32.3106 6.73419 25.8281 4.91221 29.5899C4.56844 28.9122 3.39963 27.8613 3.04112 26.3929C2.61878 24.6593 3.27685 21.3788 6.17924 17.8674C6.32657 17.6906 6.4739 17.5138 6.62614 17.3468C5.49662 21.1725 6.43462 23.9767 8.45303 25.9803C9.95579 27.4733 12.1903 28.0577 14.4788 28.7649C19.326 30.2578 24.895 30.6605 27.5568 29.9239C33.1651 28.3671 35.6992 25.3272 36.0479 22.8766C36.1166 23.1614 36.1559 23.4315 36.1657 23.682C36.259 26.9134 33.8674 29.9042 33.8674 29.9042L33.8772 29.8944Z" fill="#E37478"/>
</g>
<g style="mix-blend-mode:multiply" opacity="0.3">
<path d="M11.4684 27.6108C5.33947 25.2683 6.39533 29.2314 10.388 31.8735C12.3082 33.1455 18.4272 33.8379 19.5519 32.9982C21.9975 31.1713 13.3935 28.3475 11.4684 27.6108Z" fill="#BE2F55"/>
</g>
<path d="M29.8698 31.5199C33.5973 28.1805 35.5617 24.4088 34.5697 24.3155C33.5727 24.2222 31.8244 26.2799 28.0086 29.0252C24.1191 31.8244 19.8269 33.7299 23.24 33.5187C25.391 33.3861 28.3474 32.8852 29.8698 31.5199Z" fill="#A52003"/>
<g style="mix-blend-mode:multiply" opacity="0.3">
<path d="M30.8373 31.2449C31.2891 32.4236 33.2683 31.8244 33.2683 31.8244C32.6593 32.62 30.2676 32.4334 29.8944 32.3401C29.5801 32.2615 27.3161 33.1259 23.2351 33.6612C20.5586 33.6955 17.7152 33.7348 15.2155 33.7545C12.3475 33.3518 10.4715 32.5856 10.167 32.4334C10.0589 32.3794 9.84776 32.3401 9.56292 32.3106C8.60037 32.2026 6.86188 32.1829 5.99263 31.962C5.99263 31.962 8.14856 31.5052 8.0798 30.4199C8.01105 29.3346 4.91221 29.585 4.91221 29.585C4.75506 29.2756 4.42112 28.8828 4.07244 28.4113L4.10681 28.3966C4.10681 28.3966 0.41866 21.7962 21.4426 31.8686C25.0424 33.5924 34.4371 21.2265 34.5648 28.8729C34.1768 29.5114 33.8723 29.8944 33.8723 29.8944C33.8723 29.8944 30.3806 30.0663 30.8275 31.2449H30.8373Z" fill="#BE2F55"/>
</g>
<g style="mix-blend-mode:soft-light">
<path d="M15.5248 18.83C16.787 19.1344 17.6366 18.5107 17.9018 17.946C18.3438 17.0129 18.5647 16.5955 19.7237 16.2419C20.8827 15.8883 21.9779 15.7655 22.8766 16.3843C23.7704 16.9982 23.8244 15.1271 23.0534 14.7047C22.2824 14.2824 20.8729 14.0761 19.1639 14.744C17.1897 15.515 16.4334 16.4972 15.7802 17.4843C15.3775 18.0884 15.1811 18.7465 15.5248 18.83Z" fill="white"/>
</g>
<path d="M21.4033 14.415C21.7471 16.1289 23.2449 15.019 23.1467 14.8619C23.0534 14.7047 21.3542 14.1842 21.4033 14.415Z" fill="white"/>
<g style="mix-blend-mode:multiply" opacity="0.2">
<path d="M17.4991 21.2265C20.8385 22.469 21.423 22.6458 22.2284 22.9257C23.7311 23.4512 22.7735 20.8091 21.9975 20.3966C20.4309 19.5715 19.8711 19.3702 18.604 19.0559C17.3075 18.7317 15.7262 19.0559 15.5985 19.5028C15.4365 20.0479 16.1436 20.7256 17.504 21.2314L17.4991 21.2265Z" fill="#E02774"/>
</g>
<g style="mix-blend-mode:soft-light">
<path d="M22.4985 24.8557C20.1903 25.671 17.7937 25.5089 16.841 25.671C15.8883 25.833 14.3315 27.8269 15.0387 27.9693C15.8342 28.1314 19.8956 28.1363 22.5967 27.4438C25.9509 26.5844 26.5893 25.2044 26.4272 24.7379C26.2652 24.2713 23.682 24.4383 22.5034 24.8557H22.4985Z" fill="white"/>
</g>
<g style="mix-blend-mode:multiply" opacity="0.3">
<path d="M28.0184 11.7238C28.0184 11.7238 28.2541 12.0774 25.9312 12.1903C23.6132 12.3082 14.3757 12.0872 10.9331 13.3788C12.0528 12.5243 12.8336 12.0479 12.8336 12.0479C12.7403 11.2032 13.585 10.9233 13.585 10.9233C13.585 10.9233 11.8171 10.3241 10.9085 9.69552C10.9576 9.67588 11.0117 9.68079 11.0509 9.6415C16.0258 5.23635 22.636 9.43524 20.6323 9.70044C18.8741 9.93125 17.4205 10.1621 17.4205 10.1621C15.3824 11.1836 27.0755 10.221 27.2621 10.0344C27.4487 9.84777 26.8889 9.6415 26.8889 9.6415H27.655C27.6157 9.71026 27.5912 9.74955 27.5912 9.74955C27.5912 9.74955 27.9644 9.98527 28.2492 10.4616C28.5341 10.938 28.0135 11.7139 28.0135 11.7139L28.0184 11.7238Z" fill="#963B66"/>
</g>
<g style="mix-blend-mode:multiply" opacity="0.5">
<path d="M27.0608 7.96685C26.7563 8.85083 26.054 9.56292 26.1621 9.56783C26.2701 9.57765 27.5961 9.75445 27.5961 9.75445C27.5961 9.75445 27.601 9.25844 28.7452 7.96685C29.8895 6.67526 28.0724 5.12339 26.2455 5.25107C24.4186 5.37385 25.3272 6.0221 25.9411 6.63597C26.5549 7.24985 27.267 7.35298 27.0559 7.97176L27.0608 7.96685Z" fill="#BE2F55"/>
</g>
<path opacity="0.2" d="M9.59239 14.523C4.2345 19.1344 2.83487 23.3726 3.16391 25.4401C3.3849 26.8398 6.22345 26.9331 5.90424 21.8207C5.80602 20.2296 5.76182 17.008 9.67588 14.9797C12.593 13.4672 11.0313 13.2904 9.59239 14.523Z" fill="#FF4A70"/>
<g style="mix-blend-mode:soft-light" opacity="0.5">
<path d="M21.0841 7.47575C22.0614 8.89502 25.2535 8.89011 25.9656 8.62983C26.6826 8.36955 27.2081 7.84898 26.5206 7.64272C25.8281 7.43646 25.725 7.88336 23.9079 7.86371C22.0908 7.84407 20.7747 7.02394 21.0841 7.47575Z" fill="#FFE0B3"/>
</g>
<g style="mix-blend-mode:multiply" opacity="0.3">
<path d="M27.6746 11.542C27.8662 9.82811 22.3511 10.717 22.5476 10.8201C22.9012 11.0067 27.601 12.1559 27.6746 11.542Z" fill="#963B66"/>
</g>
<path d="M14.9306 24.0601C14.9306 24.0601 14.8177 26.3634 14.6753 26.5697C14.4886 26.8299 13.6341 26.8741 13.6341 26.8741C13.6341 26.8741 14.5279 26.9724 14.5869 27.3063C14.7047 27.9791 14.9012 29.8207 14.9012 29.8207C14.9012 29.8207 14.9699 28.1412 15.132 27.5715C15.186 27.3898 16.0945 27.1639 16.0945 27.1639C16.0945 27.1639 15.2106 27.0264 15.1467 26.5304C14.9896 25.2732 14.9355 24.0552 14.9355 24.0552L14.9306 24.0601Z" fill="white"/>
<path style="mix-blend-mode:screen" opacity="0.7" d="M14.8619 32.3155C17.6447 32.3155 19.9005 30.0596 19.9005 27.2769C19.9005 24.4941 17.6447 22.2382 14.8619 22.2382C12.0791 22.2382 9.8232 24.4941 9.8232 27.2769C9.8232 30.0596 12.0791 32.3155 14.8619 32.3155Z" fill="url(#paint5_radial_432_2393)"/>
<path d="M18.5304 13.4868C18.5304 13.4868 18.4616 14.9159 18.3732 15.0436C18.2554 15.2056 17.725 15.2351 17.725 15.2351C17.725 15.2351 18.2799 15.294 18.3143 15.5052C18.388 15.9226 18.5107 17.0669 18.5107 17.0669C18.5107 17.0669 18.5549 16.0258 18.6532 15.6722C18.6875 15.5592 19.2474 15.4168 19.2474 15.4168C19.2474 15.4168 18.6974 15.3284 18.663 15.0239C18.5648 14.248 18.5304 13.4917 18.5304 13.4917V13.4868Z" fill="white"/>
<path style="mix-blend-mode:screen" opacity="0.7" d="M21.6047 15.4807C21.6047 17.2044 20.205 18.604 18.4813 18.604C16.7575 18.604 15.3579 17.2044 15.3579 15.4807C15.3579 13.7569 16.7575 12.3573 18.4813 12.3573C20.205 12.3573 21.6047 13.7569 21.6047 15.4807Z" fill="url(#paint6_radial_432_2393)"/>
<g opacity="0.2">
<path d="M28.7698 19.6108C33.2776 19.6108 36.9319 15.9565 36.9319 11.4487C36.9319 6.94096 33.2776 3.28668 28.7698 3.28668C24.262 3.28668 20.6077 6.94096 20.6077 11.4487C20.6077 15.9565 24.262 19.6108 28.7698 19.6108Z" fill="url(#paint7_radial_432_2393)" style="mix-blend-mode:screen"/>
</g>
<g opacity="0.3">
<path d="M35.0117 11.817C35.0117 13.477 33.666 14.8226 32.0061 14.8226C30.3462 14.8226 29.0006 13.477 29.0006 11.817C29.0006 10.1571 30.3462 8.81152 32.0061 8.81152C33.666 8.81152 35.0117 10.1571 35.0117 11.817Z" fill="url(#paint8_radial_432_2393)" style="mix-blend-mode:screen"/>
</g>
<path d="M32.2222 11.8171C32.2222 11.9349 32.124 12.0332 32.0061 12.0332C31.8883 12.0332 31.79 11.9349 31.79 11.8171C31.79 11.6992 31.8883 11.601 32.0061 11.601C32.124 11.601 32.2222 11.6992 32.2222 11.8171Z" fill="white"/>
</g>
</g>
<defs>
<radialGradient id="paint0_radial_432_2393" cx="0" cy="0" r="1" gradientUnits="userSpaceOnUse" gradientTransform="translate(24.867 16.6472) rotate(-45) scale(13.7786)">
<stop stop-color="#FF0EE7"/>
<stop offset="1" stop-color="#FF0EE7" stop-opacity="0"/>
</radialGradient>
<linearGradient id="paint1_linear_432_2393" x1="21.9828" y1="7.86373" x2="25.6169" y2="7.86373" gradientUnits="userSpaceOnUse">
<stop stop-color="#8A1329"/>
<stop offset="1" stop-color="#660E18"/>
</linearGradient>
<radialGradient id="paint2_radial_432_2393" cx="0" cy="0" r="1" gradientUnits="userSpaceOnUse" gradientTransform="translate(19.6354 25.062) scale(15.5482)">
<stop stop-color="#CE5411"/>
<stop offset="1" stop-color="#B42B00"/>
</radialGradient>
<linearGradient id="paint3_linear_432_2393" x1="13.7667" y1="21.2265" x2="26.6188" y2="21.2265" gradientUnits="userSpaceOnUse">
<stop stop-color="#FF9600"/>
<stop offset="1" stop-color="#FFA900"/>
</linearGradient>
<linearGradient id="paint4_linear_432_2393" x1="12.7894" y1="10.771" x2="28.4899" y2="10.771" gradientUnits="userSpaceOnUse">
<stop stop-color="#84A600"/>
<stop offset="1" stop-color="#B5CE00"/>
</linearGradient>
<radialGradient id="paint5_radial_432_2393" cx="0" cy="0" r="1" gradientUnits="userSpaceOnUse" gradientTransform="translate(14.8619 27.2769) scale(5.03867)">
<stop stop-color="#D01C5C"/>
<stop offset="0.05" stop-color="#A9164B"/>
<stop offset="0.12" stop-color="#811139"/>
<stop offset="0.19" stop-color="#5E0C29"/>
<stop offset="0.26" stop-color="#41081C"/>
<stop offset="0.35" stop-color="#290512"/>
<stop offset="0.44" stop-color="#16030A"/>
<stop offset="0.55" stop-color="#090104"/>
<stop offset="0.7" stop-color="#020000"/>
<stop offset="1"/>
</radialGradient>
<radialGradient id="paint6_radial_432_2393" cx="0" cy="0" r="1" gradientUnits="userSpaceOnUse" gradientTransform="translate(18.4862 15.4807) scale(3.12339)">
<stop stop-color="#D01C5C"/>
<stop offset="0.05" stop-color="#A9164B"/>
<stop offset="0.12" stop-color="#811139"/>
<stop offset="0.19" stop-color="#5E0C29"/>
<stop offset="0.26" stop-color="#41081C"/>
<stop offset="0.35" stop-color="#290512"/>
<stop offset="0.44" stop-color="#16030A"/>
<stop offset="0.55" stop-color="#090104"/>
<stop offset="0.7" stop-color="#020000"/>
<stop offset="1"/>
</radialGradient>
<radialGradient id="paint7_radial_432_2393" cx="0" cy="0" r="1" gradientUnits="userSpaceOnUse" gradientTransform="translate(28.7698 11.4487) scale(8.16206)">
<stop stop-color="#FF0EE7"/>
<stop offset="1" stop-color="#FF0EE7" stop-opacity="0"/>
</radialGradient>
<radialGradient id="paint8_radial_432_2393" cx="0" cy="0" r="1" gradientUnits="userSpaceOnUse" gradientTransform="translate(32.0061 11.817) scale(3.00553)">
<stop stop-color="#FF0EE7"/>
<stop offset="1" stop-color="#FF0EE7" stop-opacity="0"/>
</radialGradient>
<clipPath id="clip0_432_2393">
<rect width="38" height="38" fill="white"/>
</clipPath>
<clipPath id="clip1_432_2393">
<rect width="38.7477" height="32" fill="white" transform="translate(1.99998 2)"/>
</clipPath>
</defs>
</svg>
