<svg width="49" height="30" viewBox="0 0 49 30" fill="none" xmlns="http://www.w3.org/2000/svg">
<g clip-path="url(#clip0_168_548)">
<path d="M30.5857 19.5022C30.5857 19.5022 30.3063 21.6601 30.4977 22.809C30.4977 22.809 33.7321 23.9526 37.872 24.0613C41.779 24.1648 44.0715 23.2695 44.0715 23.2695L44.4544 19.9679C44.4544 19.9679 40.6923 19.0209 35.7813 19.0209C32.5781 19.0209 30.5857 19.5022 30.5857 19.5022Z" fill="url(#paint0_linear_168_548)"/>
<path d="M30.5858 19.5022C30.5858 19.5022 33.582 18.6794 37.9031 18.9485C42.2241 19.2227 44.4597 19.9679 44.4597 19.9679C44.4597 19.9679 41.9757 20.7493 37.0389 20.4647C31.6311 20.1491 30.5858 19.5022 30.5858 19.5022Z" fill="url(#paint1_linear_168_548)"/>
<g style="mix-blend-mode:multiply" opacity="0.7">
<path d="M32.5211 20.1905C32.3451 20.5113 32.1951 23.0108 32.6194 23.2074C33.0437 23.4093 34.8549 23.7767 37.2302 23.8388C37.6132 23.8491 38.0841 20.7235 37.3803 20.6821C34.6273 20.5268 32.6608 19.9421 32.5211 20.1905Z" fill="#DE376D"/>
</g>
<g style="mix-blend-mode:soft-light">
<path d="M40.3041 20.7442C39.6469 21.5774 38.5602 23.6784 38.9173 23.8699C39.2691 24.0613 43.5591 23.5645 43.7351 23.2592C43.911 22.9539 44.0249 20.2992 43.7144 20.3147C43.4039 20.3302 40.5629 20.4234 40.3041 20.7494V20.7442Z" fill="white"/>
</g>
<g style="mix-blend-mode:soft-light" opacity="0.5">
<path d="M30.8961 19.8077C30.7564 20.3666 30.6736 22.2761 30.8237 22.4934C30.9789 22.7108 32.0139 23.0006 32.0915 22.8143C32.1692 22.628 32.2261 20.5218 32.1743 20.3614C32.1174 20.1751 30.9479 19.5748 30.891 19.8077H30.8961Z" fill="white"/>
</g>
<path d="M31.6415 19.559C31.6415 19.559 36.925 18.4567 43.3471 19.9885C43.3471 19.9885 39.8696 20.6974 31.6415 19.559Z" fill="url(#paint2_linear_168_548)"/>
<path d="M32.3969 19.6575C32.3969 19.6575 37.3854 19.1917 42.4672 20.0973C42.4672 20.0973 38.1306 20.6148 32.3969 19.6575Z" fill="#FF9304"/>
<g style="mix-blend-mode:multiply" opacity="0.5">
<path d="M33.1318 19.7762C33.1318 19.7762 41.3341 19.5434 38.581 19.9522C36.2006 20.3093 42.0171 20.1281 42.0171 20.1281C42.0171 20.1281 42.9279 20.0971 43.3471 19.9832C43.3471 19.9832 40.2163 19.1708 36.3662 19.1708C33.3388 19.1708 31.6415 19.5537 31.6415 19.5537L33.1318 19.7711V19.7762Z" fill="#D42F55"/>
</g>
<g style="mix-blend-mode:multiply" opacity="0.8">
<path d="M33.1214 19.0676C33.1214 19.0676 31.0669 19.285 30.5857 19.5075C30.5857 19.5075 30.3269 21.6861 30.4977 22.8142C30.4977 22.8142 32.5625 23.4352 33.7579 23.6267C33.7579 23.6267 30.772 22.897 30.6064 22.6693C30.4356 22.4416 30.6374 19.7559 30.7202 19.611C30.803 19.4713 33.1266 19.0624 33.1266 19.0624L33.1214 19.0676Z" fill="#D42F55"/>
</g>
<g style="mix-blend-mode:multiply" opacity="0.8">
<path d="M43.5644 19.7299C43.5644 19.7299 44.2475 19.9007 44.4597 19.9731L44.0768 23.2747C44.0768 23.2747 43.7559 23.4765 42.5967 23.6784C42.5967 23.6784 43.7611 23.3834 43.8646 23.1867C43.9681 22.9901 44.3045 20.1284 44.2217 20.0404C44.1389 19.9524 43.5593 19.7351 43.5593 19.7351L43.5644 19.7299Z" fill="#D42F55"/>
</g>
<path d="M35.7244 20.3767C35.7244 20.3767 37.163 20.7545 38.731 20.7493C40.299 20.7441 42.8761 20.475 43.9421 20.1024C43.9421 20.1024 40.0661 20.6768 35.7244 20.3819V20.3767Z" fill="#FFE016"/>
<path d="M32.3867 17.8771C32.3867 17.8771 32.5109 20.0506 32.9093 21.1425C32.9093 21.1425 36.2989 21.6652 40.387 21.0131C44.2475 20.3921 46.3382 19.0932 46.3382 19.0932L46.1053 15.7761C46.1053 15.7761 42.2345 15.5381 37.4063 16.4437C34.26 17.0336 32.3867 17.8771 32.3867 17.8771Z" fill="url(#paint3_linear_168_548)"/>
<path d="M32.3866 17.8771C32.3866 17.8771 35.181 16.511 39.4762 15.9831C43.7714 15.4501 46.1052 15.7761 46.1052 15.7761C46.1052 15.7761 43.8128 17.0026 38.907 17.6339C33.5302 18.3222 32.3866 17.8771 32.3866 17.8771Z" fill="url(#paint4_linear_168_548)"/>
<g style="mix-blend-mode:multiply" opacity="0.7">
<path d="M34.4152 18.1929C34.3014 18.5396 34.6119 21.0236 35.0672 21.1426C35.5226 21.2616 37.3701 21.2875 39.7195 20.9097C40.0972 20.8476 39.9834 17.6858 39.2796 17.7789C36.5473 18.136 34.5032 17.9238 34.4152 18.1929Z" fill="#DE376D"/>
</g>
<g style="mix-blend-mode:soft-light">
<path d="M42.1672 17.2977C41.6704 18.2396 40.9977 20.5062 41.3807 20.6252C41.7636 20.7494 45.888 19.466 46.0018 19.1348C46.1157 18.8036 45.7431 16.1696 45.4378 16.2421C45.1325 16.3145 42.3587 16.9303 42.1672 17.2977Z" fill="white"/>
</g>
<g style="mix-blend-mode:soft-light" opacity="0.5">
<path d="M32.749 18.1149C32.718 18.6894 32.987 20.5782 33.1785 20.7645C33.37 20.9508 34.4464 21.0439 34.4826 20.8421C34.524 20.6455 34.1928 18.5652 34.11 18.4203C34.0168 18.2495 32.7594 17.8769 32.749 18.1149Z" fill="white"/>
</g>
<path d="M33.432 17.7321C33.432 17.7321 38.4206 15.6725 45.0134 15.9882C45.0134 15.9882 41.7273 17.3233 33.432 17.7321Z" fill="url(#paint5_linear_168_548)"/>
<path d="M34.1927 17.6907C34.1927 17.6907 39.0105 16.3142 44.1699 16.2625C44.1699 16.2625 40.0041 17.5769 34.1927 17.6907Z" fill="#FF9304"/>
<g style="mix-blend-mode:multiply" opacity="0.5">
<path d="M34.9379 17.6704C34.9379 17.6704 42.9538 15.9265 40.3249 16.8372C38.048 17.629 43.7352 16.3767 43.7352 16.3767C43.7352 16.3767 44.6253 16.1748 45.0185 15.9886C45.0185 15.9886 41.7946 15.7712 38.0066 16.4802C35.031 17.0391 33.432 17.7273 33.432 17.7273L34.9379 17.6652V17.6704Z" fill="#D42F55"/>
</g>
<g style="mix-blend-mode:multiply" opacity="0.8">
<path d="M34.7982 16.9767C34.7982 16.9767 32.8162 17.5718 32.3867 17.8771C32.3867 17.8771 32.5367 20.0661 32.9093 21.1425C32.9093 21.1425 35.0517 21.3702 36.2627 21.3391C36.2627 21.3391 33.1939 21.1735 32.9869 20.9821C32.7799 20.7906 32.4746 18.11 32.5316 17.9599C32.5885 17.8047 34.7982 16.9767 34.7982 16.9767Z" fill="#D42F55"/>
</g>
<g style="mix-blend-mode:multiply" opacity="0.8">
<path d="M45.1843 15.6985C45.1843 15.6985 45.888 15.7399 46.1054 15.771L46.3383 19.0881C46.3383 19.0881 46.0588 19.3468 44.9617 19.7557C44.9617 19.7557 46.0536 19.2485 46.1209 19.0364C46.1882 18.8242 45.9864 15.9469 45.8932 15.8745C45.8001 15.802 45.1894 15.6985 45.1894 15.6985H45.1843Z" fill="#D42F55"/>
</g>
<path d="M37.5978 17.784C37.5978 17.784 39.083 17.8875 40.6199 17.5925C42.1621 17.2975 44.6408 16.5575 45.6241 15.9935C45.6241 15.9935 41.924 17.2768 37.5978 17.784Z" fill="#FFE016"/>
<path d="M26.513 20.6978C26.513 20.6978 26.4561 22.8764 26.7665 23.9942C26.7665 23.9942 30.1044 24.7911 34.2339 24.4703C38.1306 24.165 40.3196 23.0368 40.3196 23.0368L40.3558 19.7145C40.3558 19.7145 36.5161 19.166 31.6309 19.6731C28.4484 20.0043 26.513 20.6926 26.513 20.6926V20.6978Z" fill="url(#paint6_linear_168_548)"/>
<path d="M26.5125 20.6977C26.5125 20.6977 29.4053 19.5644 33.7315 19.3833C38.0577 19.2022 40.3553 19.7145 40.3553 19.7145C40.3553 19.7145 37.9697 20.7495 33.0277 20.9824C27.6147 21.2359 26.5125 20.6977 26.5125 20.6977Z" fill="url(#paint7_linear_168_548)"/>
<g style="mix-blend-mode:multiply" opacity="0.7">
<path d="M28.5054 21.1843C28.3656 21.5206 28.4743 24.0201 28.9142 24.1753C29.3592 24.3306 31.1963 24.5065 33.5664 24.3202C33.9493 24.2892 34.0942 21.1325 33.3853 21.1636C30.6322 21.2929 28.614 20.9203 28.5002 21.1791L28.5054 21.1843Z" fill="#DE376D"/>
</g>
<g style="mix-blend-mode:soft-light">
<path d="M36.3038 20.9204C35.7346 21.8157 34.8755 24.0202 35.2481 24.1754C35.6207 24.3307 39.8331 23.3837 39.978 23.0628C40.1177 22.742 39.9573 20.0873 39.652 20.1338C39.3466 20.1804 36.5263 20.5685 36.3038 20.9204Z" fill="white"/>
</g>
<g style="mix-blend-mode:soft-light" opacity="0.5">
<path d="M26.8544 20.9721C26.7768 21.5414 26.8907 23.4509 27.0666 23.6475C27.2425 23.8494 28.3034 24.0253 28.3603 23.8338C28.4172 23.6372 28.2568 21.5414 28.1896 21.3861C28.1119 21.2102 26.8907 20.7341 26.8544 20.9721Z" fill="white"/>
</g>
<path d="M27.5687 20.6461C27.5687 20.6461 32.7073 19.0005 39.2536 19.8492C39.2536 19.8492 35.8692 20.9152 27.5687 20.6461Z" fill="url(#paint8_linear_168_548)"/>
<path d="M28.3294 20.6668C28.3294 20.6668 33.2456 19.6836 38.3894 20.0562C38.3894 20.0562 34.1305 21.0239 28.3294 20.6668Z" fill="#FF9304"/>
<g style="mix-blend-mode:multiply" opacity="0.5">
<path d="M29.0694 20.7028C29.0694 20.7028 37.2043 19.6161 34.5082 20.3096C32.1795 20.9098 37.9443 20.1284 37.9443 20.1284C37.9443 20.1284 38.8499 19.9991 39.2536 19.8438C39.2536 19.8438 36.0555 19.3625 32.2261 19.7662C29.2143 20.0819 27.5687 20.6407 27.5687 20.6407L29.0746 20.7028H29.0694Z" fill="#D42F55"/>
</g>
<g style="mix-blend-mode:multiply" opacity="0.8">
<path d="M28.9866 19.999C28.9866 19.999 26.9633 20.4337 26.513 20.7027C26.513 20.7027 26.482 22.8969 26.7666 23.9992C26.7666 23.9992 28.8831 24.4028 30.0941 24.4701C30.0941 24.4701 27.0512 24.0561 26.8598 23.8491C26.6683 23.6421 26.5855 20.946 26.6528 20.7959C26.72 20.6458 28.9918 19.999 28.9918 19.999H28.9866Z" fill="#D42F55"/>
</g>
<g style="mix-blend-mode:multiply" opacity="0.8">
<path d="M39.4451 19.5697C39.4451 19.5697 40.1437 19.668 40.3559 19.7146L40.3197 23.0369C40.3197 23.0369 40.0195 23.2698 38.8914 23.5906C38.8914 23.5906 40.0195 23.1766 40.1023 22.9696C40.1851 22.7626 40.2214 19.8802 40.1282 19.8026C40.0402 19.7249 39.4399 19.5697 39.4399 19.5697H39.4451Z" fill="#D42F55"/>
</g>
<path d="M31.7137 21.0343C31.7137 21.0343 33.1834 21.262 34.7462 21.0912C36.3039 20.9205 38.8396 20.3874 39.8642 19.901C39.8642 19.901 36.071 20.8791 31.7189 21.0343H31.7137Z" fill="#FFE016"/>
<path d="M22.8959 17.6238C22.8959 17.6238 22.7924 19.8025 23.077 20.9254C23.077 20.9254 26.3941 21.7948 30.5289 21.5671C34.4307 21.3497 36.6456 20.2682 36.6456 20.2682L36.7543 16.9459C36.7543 16.9459 32.93 16.3094 28.0346 16.713C24.8468 16.977 22.8959 17.6186 22.8959 17.6186V17.6238Z" fill="url(#paint9_linear_168_548)"/>
<path d="M22.8959 17.6237C22.8959 17.6237 25.8145 16.5525 30.1407 16.4697C34.467 16.3869 36.7594 16.9458 36.7594 16.9458C36.7594 16.9458 34.3531 17.9291 29.4059 18.0481C23.9878 18.1826 22.8959 17.6186 22.8959 17.6186V17.6237Z" fill="url(#paint10_linear_168_548)"/>
<g style="mix-blend-mode:multiply" opacity="0.7">
<path d="M24.878 18.1516C24.7279 18.4828 24.7848 20.9875 25.2247 21.1531C25.6645 21.3187 27.4965 21.536 29.8717 21.4015C30.2547 21.3808 30.4668 18.2241 29.7579 18.2396C27.0048 18.312 24.9918 17.8877 24.8728 18.1516H24.878Z" fill="#DE376D"/>
</g>
<g style="mix-blend-mode:soft-light">
<path d="M32.6816 18.0583C32.0917 18.9432 31.1861 21.127 31.5535 21.2874C31.9209 21.4478 36.1539 20.5991 36.304 20.2835C36.4541 19.9678 36.3506 17.3079 36.0453 17.3493C35.74 17.3907 32.9145 17.7167 32.6816 18.0634V18.0583Z" fill="white"/>
</g>
<g style="mix-blend-mode:soft-light" opacity="0.5">
<path d="M23.2271 17.9033C23.134 18.4674 23.2064 20.3821 23.3772 20.5839C23.548 20.7909 24.6088 20.9927 24.6658 20.7961C24.7279 20.6046 24.6088 18.5036 24.5467 18.3483C24.4743 18.1672 23.2634 17.6653 23.222 17.9033H23.2271Z" fill="white"/>
</g>
<path d="M23.9516 17.5926C23.9516 17.5926 29.1265 16.0609 35.652 17.0544C35.652 17.0544 32.2418 18.0428 23.9516 17.5926Z" fill="url(#paint11_linear_168_548)"/>
<path d="M24.7123 17.6289C24.7123 17.6289 29.6492 16.7543 34.7879 17.2356C34.7879 17.2356 30.5082 18.1101 24.7123 17.6289Z" fill="#FF9304"/>
<g style="mix-blend-mode:multiply" opacity="0.5">
<path d="M25.4523 17.6858C25.4523 17.6858 33.6079 16.775 30.8963 17.4167C28.5521 17.9653 34.3324 17.3081 34.3324 17.3081C34.3324 17.3081 35.238 17.1994 35.6468 17.0545C35.6468 17.0545 32.4591 16.5059 28.6245 16.8216C25.6075 17.07 23.9464 17.5927 23.9464 17.5927L25.4471 17.6858H25.4523Z" fill="#D42F55"/>
</g>
<g style="mix-blend-mode:multiply" opacity="0.8">
<path d="M25.385 16.9767C25.385 16.9767 23.3513 17.3649 22.8959 17.6236C22.8959 17.6236 22.8182 19.8178 23.077 20.9252C23.077 20.9252 25.1832 21.3754 26.3941 21.4686C26.3941 21.4686 23.3616 20.9873 23.1753 20.7751C22.989 20.5629 22.9631 17.8668 23.0356 17.7219C23.108 17.577 25.3902 16.9767 25.3902 16.9767H25.385Z" fill="#D42F55"/>
</g>
<g style="mix-blend-mode:multiply" opacity="0.8">
<path d="M35.8487 16.7801C35.8487 16.7801 36.5473 16.8939 36.7595 16.9457L36.6508 20.268C36.6508 20.268 36.3455 20.4957 35.2122 20.7906C35.2122 20.7906 36.3507 20.4025 36.4386 20.1955C36.5266 19.9885 36.6249 17.1113 36.537 17.0285C36.449 16.9457 35.8539 16.7801 35.8539 16.7801H35.8487Z" fill="#D42F55"/>
</g>
<path d="M28.0914 18.0739C28.0914 18.0739 29.5559 18.3327 31.1188 18.193C32.6816 18.0584 35.2276 17.5771 36.2574 17.1166C36.2574 17.1166 32.4435 18.0067 28.0863 18.0739H28.0914Z" fill="#FFE016"/>
<path d="M6.85359 21.7844C6.85359 21.7844 7.04507 23.9526 7.47976 25.0342C7.47976 25.0342 10.8848 25.4482 14.9523 24.6616C18.7921 23.9164 20.8362 22.5502 20.8362 22.5502L20.4946 19.2435C20.4946 19.2435 16.6186 19.1296 11.8215 20.1905C8.69586 20.8839 6.84842 21.7844 6.84842 21.7844H6.85359Z" fill="url(#paint12_linear_168_548)"/>
<path d="M6.85355 21.7844C6.85355 21.7844 9.60142 20.3303 13.8759 19.6627C18.1503 18.9951 20.4946 19.2435 20.4946 19.2435C20.4946 19.2435 18.2383 20.5424 13.3584 21.329C8.00755 22.1932 6.84837 21.7844 6.84837 21.7844H6.85355Z" fill="url(#paint13_linear_168_548)"/>
<g style="mix-blend-mode:multiply" opacity="0.7">
<path d="M8.89248 22.0378C8.78898 22.3897 9.18227 24.8581 9.63766 24.9668C10.0982 25.0703 11.9405 25.0393 14.2795 24.5839C14.6521 24.5114 14.44 21.3547 13.7414 21.4686C11.0194 21.9084 8.9701 21.7636 8.89248 22.0378Z" fill="#DE376D"/>
</g>
<g style="mix-blend-mode:soft-light">
<path d="M16.6134 20.8941C16.1476 21.8514 15.5474 24.1387 15.9355 24.2474C16.3236 24.3561 20.4014 22.9433 20.5049 22.607C20.6084 22.2706 20.1478 19.6521 19.8477 19.7349C19.5476 19.8177 16.7945 20.5215 16.6134 20.8941Z" fill="white"/>
</g>
<g style="mix-blend-mode:soft-light" opacity="0.5">
<path d="M7.22625 22.0122C7.21073 22.5866 7.54192 24.4702 7.73856 24.6462C7.93521 24.8273 9.01159 24.8842 9.04781 24.6824C9.08404 24.4806 8.68557 22.4158 8.5976 22.2709C8.49927 22.1053 7.23143 21.7689 7.22625 22.007V22.0122Z" fill="white"/>
</g>
<path d="M7.89893 21.6082C7.89893 21.6082 12.8203 19.3934 19.4182 19.4917C19.4182 19.4917 16.1736 20.9355 7.89893 21.6082Z" fill="url(#paint14_linear_168_548)"/>
<path d="M8.65448 21.5463C8.65448 21.5463 13.4257 20.0145 18.5799 19.7972C18.5799 19.7972 14.4555 21.241 8.65448 21.5463Z" fill="#FF9304"/>
<g style="mix-blend-mode:multiply" opacity="0.5">
<path d="M9.39965 21.4997C9.39965 21.4997 17.3586 19.4971 14.7608 20.4958C12.5149 21.36 18.1504 19.9266 18.1504 19.9266C18.1504 19.9266 19.0353 19.6989 19.4182 19.4971C19.4182 19.4971 16.1891 19.3832 12.427 20.2164C9.47209 20.8684 7.89893 21.6136 7.89893 21.6136L9.39965 21.5049V21.4997Z" fill="#D42F55"/>
</g>
<g style="mix-blend-mode:multiply" opacity="0.8">
<path d="M9.23406 20.8063C9.23406 20.8063 7.27277 21.4635 6.85361 21.7844C6.85361 21.7844 7.07095 23.9682 7.47977 25.0342C7.47977 25.0342 9.62735 25.1946 10.8383 25.1222C10.8383 25.1222 7.76439 25.0549 7.55222 24.8686C7.34005 24.6823 6.95193 22.0173 6.9985 21.862C7.05025 21.7068 9.22888 20.8063 9.22888 20.8063H9.23406Z" fill="#D42F55"/>
</g>
<g style="mix-blend-mode:multiply" opacity="0.8">
<path d="M19.5734 19.2021C19.5734 19.2021 20.2772 19.2228 20.4945 19.2435L20.8361 22.5502C20.8361 22.5502 20.567 22.8193 19.4803 23.2644C19.4803 23.2644 20.5566 22.7262 20.6136 22.5088C20.6705 22.2915 20.3807 19.4246 20.2824 19.3573C20.184 19.2901 19.5734 19.2021 19.5734 19.2021Z" fill="#D42F55"/>
</g>
<path d="M12.0648 21.5255C12.0648 21.5255 13.55 21.5824 15.0817 21.2357C16.6135 20.889 19.0716 20.0714 20.0289 19.4763C20.0289 19.4763 16.3703 20.8735 12.0648 21.5255Z" fill="#FFE016"/>
<path d="M16.2358 22.2759C16.2358 22.2759 16.1789 24.4545 16.4894 25.5723C16.4894 25.5723 19.8272 26.3692 23.9568 26.0484C27.8535 25.7431 30.0424 24.615 30.0424 24.615L30.0787 21.2927C30.0787 21.2927 26.2389 20.7441 21.3538 21.2513C18.1712 21.5825 16.2358 22.2707 16.2358 22.2707V22.2759Z" fill="url(#paint15_linear_168_548)"/>
<path d="M16.2353 22.2759C16.2353 22.2759 19.128 21.1426 23.4542 20.9615C27.7804 20.7804 30.0781 21.2927 30.0781 21.2927C30.0781 21.2927 27.6925 22.3277 22.7505 22.5605C17.3375 22.8141 16.2353 22.2759 16.2353 22.2759Z" fill="url(#paint16_linear_168_548)"/>
<g style="mix-blend-mode:multiply" opacity="0.7">
<path d="M18.2334 22.7572C18.0937 23.0936 18.2023 25.593 18.6422 25.7483C19.0872 25.9035 20.9243 26.0795 23.2944 25.8932C23.6774 25.8621 23.8223 22.7054 23.1133 22.7365C20.3603 22.8659 18.3421 22.4933 18.2282 22.752L18.2334 22.7572Z" fill="#DE376D"/>
</g>
<g style="mix-blend-mode:soft-light">
<path d="M26.0318 22.4934C25.4626 23.3886 24.6036 25.5931 24.9762 25.7484C25.3488 25.9036 29.5611 24.9566 29.706 24.6358C29.8509 24.3149 29.6853 21.6602 29.38 21.7068C29.0747 21.7534 26.2544 22.1415 26.0318 22.4934Z" fill="white"/>
</g>
<path d="M26.6426 22.2759C26.6943 22.6537 26.9945 24.3873 27.2118 24.7547C27.424 25.117 28.697 24.6978 28.8574 24.6253C29.111 24.5115 29.2611 21.7999 29.0127 21.7585C28.7643 21.7171 26.6167 22.0793 26.6426 22.2708V22.2759Z" fill="white"/>
<g style="mix-blend-mode:soft-light" opacity="0.5">
<path d="M16.5773 22.5451C16.4996 23.1143 16.6135 25.0238 16.7894 25.2205C16.9654 25.4171 18.0262 25.5982 18.0832 25.4068C18.1401 25.2101 17.9797 23.1143 17.9124 22.959C17.8348 22.7831 16.6135 22.307 16.5773 22.5451Z" fill="white"/>
</g>
<path d="M17.2915 22.2191C17.2915 22.2191 22.4302 20.5735 28.9764 21.4222C28.9764 21.4222 25.592 22.4882 17.2915 22.2191Z" fill="url(#paint17_linear_168_548)"/>
<path d="M18.0522 22.2397C18.0522 22.2397 22.9684 21.2565 28.1122 21.6291C28.1122 21.6291 23.8533 22.5968 18.0522 22.2397Z" fill="#FF9304"/>
<g style="mix-blend-mode:multiply" opacity="0.5">
<path d="M18.7974 22.281C18.7974 22.281 26.9323 21.1942 24.2362 21.8877C21.9075 22.488 27.6724 21.7066 27.6724 21.7066C27.6724 21.7066 28.578 21.5772 28.9816 21.4219C28.9816 21.4219 25.7835 20.9407 21.9541 21.3443C18.9423 21.66 17.2967 22.2189 17.2967 22.2189L18.8026 22.281H18.7974Z" fill="#D42F55"/>
</g>
<g style="mix-blend-mode:multiply" opacity="0.8">
<path d="M18.7147 21.5719C18.7147 21.5719 16.6913 22.0066 16.2411 22.2757C16.2411 22.2757 16.21 24.4698 16.4946 25.5721C16.4946 25.5721 18.6112 25.9757 19.8221 26.043C19.8221 26.043 16.7793 25.629 16.5878 25.422C16.3963 25.215 16.3135 22.5189 16.3808 22.3688C16.4481 22.2188 18.7198 21.5719 18.7198 21.5719H18.7147Z" fill="#D42F55"/>
</g>
<g style="mix-blend-mode:multiply" opacity="0.8">
<path d="M29.1678 21.1475C29.1678 21.1475 29.8664 21.2458 30.0786 21.2924L30.0423 24.6146C30.0423 24.6146 29.7422 24.8475 28.6141 25.1684C28.6141 25.1684 29.7422 24.7544 29.825 24.5474C29.9078 24.3404 29.944 21.458 29.8509 21.3803C29.7629 21.3027 29.1626 21.1475 29.1626 21.1475H29.1678Z" fill="#D42F55"/>
</g>
<path d="M21.4418 22.6069C21.4418 22.6069 22.9114 22.8346 24.4743 22.6638C26.0371 22.493 28.5676 21.96 29.5922 21.4736C29.5922 21.4736 25.799 22.4516 21.4469 22.6069H21.4418Z" fill="#FFE016"/>
<path d="M13.5759 18.7211C13.5759 18.7211 13.519 20.8997 13.8294 22.0175C13.8294 22.0175 17.1673 22.8144 21.2968 22.4936C25.1935 22.1883 27.3825 21.0601 27.3825 21.0601L27.4187 17.7379C27.4187 17.7379 23.5789 17.1893 18.6938 17.6965C15.5113 18.0277 13.5759 18.7159 13.5759 18.7159V18.7211Z" fill="url(#paint18_linear_168_548)"/>
<path d="M13.5753 18.7209C13.5753 18.7209 16.468 17.5876 20.7942 17.4065C25.1205 17.2254 27.4181 17.7377 27.4181 17.7377C27.4181 17.7377 25.0325 18.7727 20.0905 19.0055C14.6775 19.2591 13.5753 18.7209 13.5753 18.7209Z" fill="url(#paint19_linear_168_548)"/>
<g style="mix-blend-mode:multiply" opacity="0.7">
<path d="M15.5734 19.2024C15.4337 19.5388 15.5424 22.0383 15.9823 22.1935C16.4273 22.3488 18.2644 22.5247 20.6345 22.3384C21.0174 22.3074 21.1623 19.1507 20.4534 19.1817C17.7003 19.3111 15.6821 18.9333 15.5683 19.1972L15.5734 19.2024Z" fill="#DE376D"/>
</g>
<g style="mix-blend-mode:soft-light">
<path d="M23.3719 18.9386C22.8027 19.8338 21.9436 22.0383 22.3162 22.1936C22.6888 22.3488 26.9012 21.4018 27.0461 21.081C27.1858 20.7601 27.0254 18.1054 26.72 18.152C26.4147 18.1985 23.5944 18.5867 23.3719 18.9386Z" fill="white"/>
</g>
<path d="M23.9826 18.7211C24.0344 19.0989 24.3345 20.8325 24.5519 21.1999C24.764 21.5622 26.0371 21.143 26.1975 21.0705C26.4511 20.9567 26.6011 18.245 26.3527 18.2036C26.1043 18.1622 23.9568 18.5245 23.9826 18.716V18.7211Z" fill="white"/>
<g style="mix-blend-mode:soft-light" opacity="0.5">
<path d="M13.9175 18.9902C13.8399 19.5595 13.9537 21.469 14.1297 21.6657C14.3056 21.8675 15.3665 22.0434 15.4234 21.852C15.4803 21.6553 15.3199 19.5595 15.2526 19.4042C15.175 19.2283 13.9537 18.7522 13.9175 18.9902Z" fill="white"/>
</g>
<path d="M14.6316 18.6643C14.6316 18.6643 19.7702 17.0187 26.3165 17.8673C26.3165 17.8673 22.9321 18.9334 14.6316 18.6643Z" fill="url(#paint20_linear_168_548)"/>
<path d="M15.3923 18.6849C15.3923 18.6849 20.3085 17.7017 25.4523 18.0743C25.4523 18.0743 21.1934 19.042 15.3923 18.6849Z" fill="#FF9304"/>
<g style="mix-blend-mode:multiply" opacity="0.5">
<path d="M16.1375 18.7262C16.1375 18.7262 24.2724 17.6395 21.5763 18.3329C19.2476 18.9332 25.0124 18.1518 25.0124 18.1518C25.0124 18.1518 25.918 18.0224 26.3217 17.8672C26.3217 17.8672 23.1236 17.3859 19.2942 17.7896C16.2824 18.1052 14.6367 18.6641 14.6367 18.6641L16.1426 18.7262H16.1375Z" fill="#D42F55"/>
</g>
<g style="mix-blend-mode:multiply" opacity="0.8">
<path d="M16.0495 18.0223C16.0495 18.0223 14.0261 18.457 13.5759 18.7261C13.5759 18.7261 13.5449 20.9202 13.8295 22.0225C13.8295 22.0225 15.946 22.4261 17.157 22.4934C17.157 22.4934 14.1141 22.0794 13.9226 21.8724C13.7312 21.6654 13.6484 18.9693 13.7157 18.8192C13.7829 18.6691 16.0547 18.0223 16.0547 18.0223H16.0495Z" fill="#D42F55"/>
</g>
<g style="mix-blend-mode:multiply" opacity="0.8">
<path d="M26.508 17.5927C26.508 17.5927 27.2066 17.691 27.4188 17.7375L27.3826 21.0598C27.3826 21.0598 27.0824 21.2927 25.9543 21.6135C25.9543 21.6135 27.0824 21.1996 27.1652 20.9926C27.248 20.7856 27.2842 17.9031 27.1911 17.8255C27.1031 17.7479 26.5028 17.5927 26.5028 17.5927H26.508Z" fill="#D42F55"/>
</g>
<path d="M18.7818 19.0573C18.7818 19.0573 20.2515 19.2849 21.8143 19.1142C23.3719 18.9434 25.9076 18.4104 26.9323 17.924C26.9323 17.924 23.1391 18.902 18.787 19.0573H18.7818Z" fill="#FFE016"/>
<path d="M14.7195 14.4412C14.7195 14.4412 14.6625 16.6198 14.973 17.7376C14.973 17.7376 18.3108 18.5345 22.4404 18.2137C26.3371 17.9084 28.5261 16.7802 28.5261 16.7802L28.5623 13.458C28.5623 13.458 24.7225 12.9094 19.8374 13.4166C16.6549 13.7478 14.7195 14.436 14.7195 14.436V14.4412Z" fill="url(#paint21_linear_168_548)"/>
<path d="M14.7189 14.4413C14.7189 14.4413 17.6117 13.308 21.9379 13.1268C26.2641 12.9457 28.5617 13.458 28.5617 13.458C28.5617 13.458 26.1761 14.493 21.2341 14.7259C15.8211 14.9795 14.7189 14.4413 14.7189 14.4413Z" fill="url(#paint22_linear_168_548)"/>
<g style="mix-blend-mode:multiply" opacity="0.7">
<path d="M16.717 14.9225C16.5773 15.2588 16.686 17.7583 17.1258 17.9135C17.5709 18.0688 19.408 18.2447 21.7781 18.0584C22.161 18.0274 22.3059 14.8707 21.597 14.9018C18.8439 15.0311 16.8257 14.6534 16.7119 14.9173L16.717 14.9225Z" fill="#DE376D"/>
</g>
<g style="mix-blend-mode:soft-light">
<path d="M24.5155 14.6586C23.9462 15.5539 23.0872 17.7584 23.4598 17.9137C23.8324 18.0637 28.0448 17.1219 28.1897 16.8011C28.3345 16.4802 28.169 13.8255 27.8636 13.8721C27.5583 13.9186 24.738 14.3068 24.5155 14.6586Z" fill="white"/>
</g>
<path d="M25.1262 14.4415C25.178 14.8193 25.4781 16.5529 25.6954 16.9203C25.9076 17.2825 27.1806 16.8634 27.3411 16.7909C27.5946 16.6771 27.7447 13.9654 27.4963 13.924C27.2479 13.8826 25.1003 14.2449 25.1262 14.4364V14.4415Z" fill="white"/>
<g style="mix-blend-mode:soft-light" opacity="0.5">
<path d="M15.0609 14.7103C14.9833 15.2796 15.0971 17.1891 15.2731 17.3858C15.449 17.5824 16.5099 17.7635 16.5668 17.5721C16.6237 17.3754 16.4633 15.2796 16.396 15.1243C16.3184 14.9484 15.0971 14.4723 15.0609 14.7103Z" fill="white"/>
</g>
<path d="M15.7751 14.3843C15.7751 14.3843 20.9138 12.7387 27.46 13.5874C27.46 13.5874 24.0757 14.6534 15.7751 14.3843Z" fill="url(#paint23_linear_168_548)"/>
<path d="M16.5359 14.405C16.5359 14.405 21.452 13.4218 26.5959 13.7944C26.5959 13.7944 22.3369 14.7621 16.5359 14.405Z" fill="#FF9304"/>
<g style="mix-blend-mode:multiply" opacity="0.5">
<path d="M17.2811 14.4466C17.2811 14.4466 25.416 13.3599 22.7199 14.0533C20.3912 14.6536 26.156 13.8722 26.156 13.8722C26.156 13.8722 27.0616 13.7428 27.4652 13.5876C27.4652 13.5876 24.2672 13.1063 20.4377 13.51C17.426 13.8256 15.7803 14.3845 15.7803 14.3845L17.2862 14.4466H17.2811Z" fill="#D42F55"/>
</g>
<g style="mix-blend-mode:multiply" opacity="0.8">
<path d="M17.1983 13.7427C17.1983 13.7427 15.1749 14.1774 14.7247 14.4465C14.7247 14.4465 14.6937 16.6407 14.9783 17.7429C14.9783 17.7429 17.0948 18.1466 18.3057 18.2138C18.3057 18.2138 15.2629 17.7999 15.0714 17.5929C14.88 17.3859 14.7972 14.6897 14.8644 14.5397C14.9317 14.3896 17.2035 13.7427 17.2035 13.7427H17.1983Z" fill="#D42F55"/>
</g>
<g style="mix-blend-mode:multiply" opacity="0.8">
<path d="M27.6516 13.3131C27.6516 13.3131 28.3502 13.4114 28.5624 13.458L28.5262 16.7803C28.5262 16.7803 28.226 17.0132 27.0979 17.334C27.0979 17.334 28.226 16.92 28.3088 16.713C28.3916 16.506 28.4278 13.6236 28.3347 13.546C28.2467 13.4684 27.6464 13.3131 27.6464 13.3131H27.6516Z" fill="#D42F55"/>
</g>
<path d="M19.9254 14.7777C19.9254 14.7777 21.3951 15.0054 22.9579 14.8346C24.5155 14.6639 27.0512 14.1308 28.0759 13.6444C28.0759 13.6444 24.2827 14.6225 19.9306 14.7777H19.9254Z" fill="#FFE016"/>
<path d="M4.706 28.0979C6.43442 29.7228 11.4851 29.6607 13.9846 29.4641C16.6704 29.2519 18.0469 28.5481 18.673 28.0203C18.673 28.0203 19.0612 24.8481 18.9887 23.9269C18.9887 23.9269 17.4104 22.4521 12.4476 22.7936C7.48492 23.1352 5.01132 24.4082 4.57146 24.9205L4.706 28.0979Z" fill="url(#paint24_linear_168_548)"/>
<path d="M4.57128 24.9151C4.59198 25.5982 7.29845 26.4779 11.0658 26.2502C14.8279 26.0173 18.7919 25.0548 18.9885 23.9267C19.0092 23.8025 18.8126 23.0832 16.5719 22.6899C14.3311 22.2914 11.2521 22.4881 8.66462 23.0107C5.56486 23.6369 4.55058 24.32 4.57128 24.9203V24.9151Z" fill="url(#paint25_linear_168_548)"/>
<g style="mix-blend-mode:soft-light" opacity="0.5">
<path d="M13.1823 25.9085C13.9172 25.8827 17.3016 25.3083 17.788 24.9305C18.2744 24.5527 11.4022 23.3987 10.7191 23.083C10.036 22.7674 7.8522 22.9744 6.7396 23.6005C5.627 24.2267 9.51852 24.3561 10.8278 24.6459C12.137 24.9408 9.57027 26.0327 13.1823 25.9034V25.9085Z" fill="white"/>
</g>
<path d="M6.12911 24.6773C6.07736 25.0603 8.54061 25.7951 12.22 25.3449C16.3288 24.8429 17.4466 24.3151 17.4311 23.9373C17.4156 23.5595 15.387 22.716 11.7232 23.0058C8.89768 23.2283 6.20673 24.0977 6.12393 24.6825L6.12911 24.6773Z" fill="url(#paint26_linear_168_548)"/>
<path d="M6.44467 24.998C6.64132 24.5634 8.85617 23.9527 12.2147 23.694C15.5732 23.4352 17.2292 24.02 17.255 24.2063C17.2757 24.3926 14.8228 25.2827 11.2108 25.4483C7.59867 25.6139 6.44985 24.998 6.44985 24.998H6.44467Z" fill="#FF9304"/>
<g style="mix-blend-mode:multiply" opacity="0.5">
<path d="M13.8448 25.1841C13.8448 25.1841 17.4155 24.6821 17.431 23.937C17.4466 23.4143 15.1489 22.9848 13.5395 22.9485C13.5395 22.9485 12.4424 23.5799 12.5097 23.673C12.577 23.7662 15.9872 23.7869 15.9976 24.2423C16.0079 24.6925 13.8448 25.1841 13.8448 25.1841Z" fill="#D42F55"/>
</g>
<path d="M16.955 25.2569C16.955 25.2569 18.404 24.8274 16.7221 24.7808C16.0339 24.7601 14.0674 25.2931 14.0881 25.5467C14.1088 25.8003 14.7815 25.6864 15.4491 25.5933C16.5358 25.4484 16.955 25.2569 16.955 25.2569Z" fill="white"/>
<path d="M9.49799 23.3109C9.49799 23.3109 9.01155 23.0262 8.44749 23.166C7.8886 23.3057 8.24567 23.6058 8.24567 23.6058C8.24567 23.6058 9.30135 23.3523 9.49799 23.3109Z" fill="white"/>
<path d="M9.24948 23.3574C9.24948 23.3574 6.78623 23.7404 6.19629 24.3251C5.60635 24.9151 6.7914 25.3083 8.23003 25.3911C8.23003 25.3911 6.06692 25.1479 6.24804 24.5683C6.42399 23.9887 9.24948 23.3522 9.24948 23.3522V23.3574Z" fill="#FFE016"/>
<path d="M7.46416 23.2747C7.46416 23.2747 4.53 23.818 4.56622 24.822C4.60244 25.8207 7.53144 26.1623 8.1369 26.2088C8.1369 26.2088 4.5507 25.7586 4.72147 24.7754C4.89224 23.7921 7.45899 23.2747 7.45899 23.2747H7.46416Z" fill="#FFE016"/>
<g style="mix-blend-mode:multiply" opacity="0.8">
<path d="M17.1463 22.8039C17.1463 22.8039 18.8178 23.0523 18.9886 23.9217C19.0404 24.1908 18.7506 27.6062 18.6729 28.015C18.6729 28.015 18.5022 28.191 18.1503 28.3773C18.1503 28.3773 18.4452 28.1806 18.5798 27.8391C18.7092 27.4975 18.8644 24.3771 18.8696 24.0148C18.8748 23.6526 18.0157 22.9695 17.1463 22.8039Z" fill="#D42F55"/>
</g>
<g style="mix-blend-mode:multiply" opacity="0.8">
<path d="M4.56627 24.8221C4.56627 24.8221 4.61284 27.2699 4.70599 28.0979C4.70599 28.0979 5.32698 28.693 6.62588 29.05C6.62588 29.05 5.04753 28.2945 4.90781 27.984C4.76809 27.6735 4.56627 24.8221 4.56627 24.8221Z" fill="#D42F55"/>
</g>
<g style="mix-blend-mode:soft-light">
<path d="M14.2018 26.2971C13.7102 27.0164 13.3221 29.3347 13.5136 29.371C13.7051 29.402 16.3546 29.3451 17.9329 28.3981C18.4246 28.1031 18.5229 25.1069 17.7518 25.231C16.9808 25.3552 14.4295 25.9555 14.2018 26.2971Z" fill="white"/>
</g>
<g style="mix-blend-mode:multiply" opacity="0.2">
<path d="M6.52759 26.0225C5.94282 25.8828 5.90142 28.5323 6.14464 28.6876C6.38786 28.8428 6.70353 29.0757 9.36343 29.293C12.0233 29.5155 11.687 29.1429 11.8784 28.967C12.0699 28.7911 12.0389 26.2761 11.5783 26.3123C11.1177 26.3485 8.37502 26.4572 6.52759 26.0173V26.0225Z" fill="#E02774"/>
</g>
<g style="mix-blend-mode:soft-light" opacity="0.5">
<path d="M4.69046 25.3809C4.68011 25.8156 4.84053 27.9735 5.02165 28.1132C5.20278 28.2529 5.65817 28.4392 5.79271 28.3668C5.92726 28.2943 5.83929 26.095 5.75649 26.007C5.66852 25.9191 4.69564 25.06 4.69046 25.3757V25.3809Z" fill="white"/>
</g>
<path d="M7.98676 26.2193C7.98676 26.2193 12.3854 26.5867 15.0246 25.9813C18.5539 25.174 18.8592 24.2011 18.8592 24.2011C18.8592 24.2011 17.6535 25.3189 14.8073 25.7795C11.9611 26.24 7.98676 26.2141 7.98676 26.2141V26.2193Z" fill="#FFE016"/>
<path d="M22.3162 27.368C24.0446 28.993 29.0953 28.9309 31.5948 28.7342C34.2806 28.522 35.6571 27.8183 36.2832 27.2904C36.2832 27.2904 36.6714 24.1182 36.5989 23.1971C36.5989 23.1971 35.0206 21.7222 30.0578 22.0638C25.0951 22.4053 22.6215 23.6783 22.1817 24.1907L22.3162 27.368Z" fill="url(#paint27_linear_168_548)"/>
<path d="M22.1816 24.1854C22.2023 24.8685 24.9088 25.7482 28.6761 25.5205C32.4382 25.2877 36.4022 24.3251 36.5989 23.197C36.6196 23.0728 36.4229 22.3535 34.1822 21.9602C31.9415 21.5617 28.8624 21.7584 26.2749 22.2811C23.1752 22.9072 22.1609 23.5903 22.1816 24.1906V24.1854Z" fill="url(#paint28_linear_168_548)"/>
<g style="mix-blend-mode:soft-light" opacity="0.5">
<path d="M30.7926 25.179C31.5274 25.1532 34.9118 24.5788 35.3982 24.201C35.8847 23.8232 29.0124 22.6692 28.3293 22.3536C27.6514 22.0379 25.4624 22.2449 24.3498 22.871C23.2372 23.4972 27.1287 23.6266 28.438 23.9164C29.7472 24.2113 27.1805 25.3032 30.7926 25.1739V25.179Z" fill="white"/>
</g>
<path d="M23.7341 23.9475C23.6824 24.3304 26.1456 25.0652 29.825 24.615C33.9338 24.1131 35.0516 23.5852 35.0361 23.2074C35.0206 22.8297 32.992 21.9862 29.3282 22.276C26.5027 22.4985 23.8117 23.3679 23.7289 23.9526L23.7341 23.9475Z" fill="url(#paint29_linear_168_548)"/>
<path d="M24.0549 24.2682C24.2515 23.8336 26.4664 23.2229 29.8249 22.9642C33.1834 22.7054 34.8394 23.2902 34.8652 23.4765C34.8859 23.6628 32.433 24.5529 28.8209 24.7185C25.2089 24.8841 24.06 24.2682 24.06 24.2682H24.0549Z" fill="#FF9304"/>
<g style="mix-blend-mode:multiply" opacity="0.5">
<path d="M31.4498 24.4547C31.4498 24.4547 35.0205 23.9527 35.0412 23.2075C35.0567 22.6849 32.7591 22.2553 31.1497 22.2191C31.1497 22.2191 30.0526 22.8505 30.1199 22.9436C30.1872 23.0368 33.5974 23.0574 33.6078 23.5128C33.6181 23.9631 31.455 24.4547 31.455 24.4547H31.4498Z" fill="#D42F55"/>
</g>
<path d="M34.5598 24.5271C34.5598 24.5271 36.0088 24.0976 34.327 24.051C33.6387 24.0303 31.6722 24.5633 31.6929 24.8169C31.7136 25.0705 32.3864 24.9566 33.0539 24.8635C34.1407 24.7186 34.5598 24.5271 34.5598 24.5271Z" fill="white"/>
<path d="M27.108 22.5814C27.108 22.5814 26.6216 22.2968 26.0575 22.4365C25.4986 22.5763 25.8557 22.8764 25.8557 22.8764C25.8557 22.8764 26.9114 22.6228 27.108 22.5814Z" fill="white"/>
<path d="M26.8545 22.6279C26.8545 22.6279 24.3912 23.0109 23.8013 23.5956C23.2114 24.1856 24.3964 24.5789 25.835 24.6616C25.835 24.6616 23.6719 24.4184 23.8531 23.8388C24.029 23.2593 26.8545 22.6227 26.8545 22.6227V22.6279Z" fill="#FFE016"/>
<path d="M25.0692 22.5452C25.0692 22.5452 22.135 23.0886 22.1712 24.0925C22.2075 25.0913 25.1364 25.4328 25.7419 25.4794C25.7419 25.4794 22.1557 25.0292 22.3265 24.0459C22.4972 23.0679 25.064 22.5452 25.064 22.5452H25.0692Z" fill="#FFE016"/>
<g style="mix-blend-mode:multiply" opacity="0.8">
<path d="M34.7514 22.074C34.7514 22.074 36.4228 22.3224 36.5936 23.1918C36.6454 23.4609 36.3556 26.8763 36.278 27.2852C36.278 27.2852 36.1072 27.4611 35.7553 27.6474C35.7553 27.6474 36.0503 27.4508 36.1848 27.1092C36.3142 26.7677 36.4694 23.6472 36.4746 23.285C36.4849 22.9175 35.6207 22.2396 34.7514 22.074Z" fill="#D42F55"/>
</g>
<g style="mix-blend-mode:multiply" opacity="0.8">
<path d="M22.1713 24.0923C22.1713 24.0923 22.2179 26.54 22.311 27.368C22.311 27.368 22.932 27.9631 24.2309 28.3202C24.2309 28.3202 22.6525 27.5646 22.5128 27.2541C22.3731 26.9437 22.1713 24.0923 22.1713 24.0923Z" fill="#D42F55"/>
</g>
<g style="mix-blend-mode:soft-light">
<path d="M31.812 25.5672C31.3204 26.2865 30.9323 28.6049 31.1238 28.6411C31.3153 28.6722 33.9648 28.6152 35.5431 27.6682C36.0348 27.3733 36.1331 24.377 35.362 24.5012C34.591 24.6254 32.0397 25.2257 31.812 25.5672Z" fill="white"/>
</g>
<g style="mix-blend-mode:multiply" opacity="0.2">
<path d="M24.1326 25.2979C23.5478 25.1582 23.5064 27.8077 23.7497 27.9629C23.9929 28.113 24.3085 28.3511 26.9684 28.5684C29.6283 28.7909 29.292 28.4183 29.4834 28.2424C29.6749 28.0664 29.6439 25.5514 29.1833 25.5877C28.7227 25.6239 25.98 25.7326 24.1326 25.2927V25.2979Z" fill="#E02774"/>
</g>
<g style="mix-blend-mode:soft-light" opacity="0.5">
<path d="M22.2955 24.6562C22.2851 25.0909 22.4455 27.2488 22.6267 27.3886C22.8078 27.5283 23.2632 27.7146 23.3977 27.6421C23.5323 27.5697 23.4443 25.3703 23.3615 25.2824C23.2735 25.1944 22.3006 24.3354 22.2955 24.651V24.6562Z" fill="white"/>
</g>
<path d="M25.597 25.4895C25.597 25.4895 29.9956 25.8569 32.6348 25.2514C36.1641 24.4441 36.4694 23.4713 36.4694 23.4713C36.4694 23.4713 35.2637 24.589 32.4175 25.0496C29.5713 25.5102 25.597 25.4843 25.597 25.4843V25.4895Z" fill="#FFE016"/>
<g style="mix-blend-mode:multiply" opacity="0.5">
<path d="M22.7924 27.699C24.2724 27.0211 24.5001 25.3082 24.5001 25.3082C24.5001 25.3082 34.2496 24.2422 35.6623 22.4206C35.6623 22.4206 36.3817 22.7932 36.48 23.2848L40.149 22.343L42.7364 21.9911C42.7364 21.9911 39.9937 20.3817 38.1152 17.8409L36.7077 17.9754L36.7594 16.9456L34.9741 16.6506C33.8356 17.5769 31.4189 17.9651 31.4189 17.9651C31.4189 17.9651 31.5017 21.6392 31.274 22.3637C31.1705 22.6949 29.9027 23.3004 26.1198 23.7144C22.7148 24.0921 22.1455 23.7506 22.1455 23.7506L22.3111 27.3575L22.7872 27.6939L22.7924 27.699Z" fill="#D40C55"/>
</g>
<path d="M17.3122 22.4468C19.0406 24.0718 24.0913 24.0097 26.5907 23.813C29.2765 23.6008 30.653 22.8971 31.2792 22.3692C31.2792 22.3692 31.6673 19.197 31.5949 18.2759C31.5949 18.2759 30.0165 16.801 25.0538 17.1426C20.0911 17.4841 17.6175 18.7571 17.1776 19.2695L17.3122 22.4468Z" fill="url(#paint30_linear_168_548)"/>
<path d="M17.1776 19.269C17.1983 19.9521 19.9047 20.8319 23.672 20.6042C27.4342 20.3713 31.3982 19.4088 31.5948 18.2806C31.6155 18.1564 31.4189 17.4371 29.1781 17.0438C26.9374 16.6454 23.8583 16.842 21.2709 17.3647C18.1711 17.9908 17.1569 18.6739 17.1776 19.2742V19.269Z" fill="url(#paint31_linear_168_548)"/>
<g style="mix-blend-mode:soft-light" opacity="0.5">
<path d="M25.7885 20.2575C26.5234 20.2316 29.9077 19.6572 30.3942 19.2794C30.8806 18.9017 24.0084 17.7477 23.3253 17.432C22.6474 17.1163 20.4584 17.3233 19.3458 17.9495C18.2332 18.5756 22.1247 18.705 23.4339 18.9948C24.7432 19.2898 22.1764 20.3817 25.7885 20.2523V20.2575Z" fill="white"/>
</g>
<path d="M18.7301 19.0311C18.6783 19.414 21.1416 20.1489 24.8209 19.6986C28.9298 19.1967 30.0476 18.6688 30.032 18.2911C30.0165 17.9133 27.988 17.0698 24.3241 17.3596C21.4986 17.5821 18.8077 18.4515 18.7249 19.0363L18.7301 19.0311Z" fill="url(#paint32_linear_168_548)"/>
<path d="M19.0508 19.3519C19.2475 18.9172 21.4623 18.3065 24.8208 18.0478C28.1793 17.789 29.8353 18.3738 29.8612 18.5601C29.8871 18.7464 27.429 19.6365 23.8169 19.8021C20.2048 19.9677 19.056 19.3519 19.056 19.3519H19.0508Z" fill="#FF9304"/>
<g style="mix-blend-mode:multiply" opacity="0.5">
<path d="M26.451 19.5383C26.451 19.5383 30.0217 19.0363 30.0372 18.2911C30.0527 17.7685 27.7551 17.339 26.1457 17.3027C26.1457 17.3027 25.0486 17.9341 25.1159 18.0272C25.1831 18.1204 28.5934 18.1411 28.6037 18.5965C28.6141 19.0467 26.451 19.5383 26.451 19.5383Z" fill="#D42F55"/>
</g>
<path d="M29.5612 19.6107C29.5612 19.6107 31.0101 19.1812 29.3283 19.1346C28.64 19.1139 26.6736 19.6469 26.6943 19.9005C26.715 20.1541 27.3877 20.0402 28.0553 19.9471C29.142 19.8022 29.5612 19.6107 29.5612 19.6107Z" fill="white"/>
<path d="M22.1041 17.6598C22.1041 17.6598 21.6176 17.3752 21.0536 17.5149C20.4895 17.6546 20.8518 17.9548 20.8518 17.9548C20.8518 17.9548 21.9074 17.7012 22.1041 17.6598Z" fill="white"/>
<path d="M21.8556 17.7063C21.8556 17.7063 19.3924 18.0893 18.8025 18.6741C18.2125 19.264 19.3976 19.6573 20.8362 19.7401C20.8362 19.7401 18.6731 19.4969 18.8542 18.9173C19.0302 18.3377 21.8556 17.7012 21.8556 17.7012V17.7063Z" fill="#FFE016"/>
<path d="M20.0703 17.6237C20.0703 17.6237 17.1362 18.167 17.1724 19.1709C17.2086 20.1697 20.1376 20.5112 20.7431 20.5578C20.7431 20.5578 17.1569 20.1076 17.3276 19.1244C17.4984 18.1463 20.0652 17.6237 20.0652 17.6237H20.0703Z" fill="#FFE016"/>
<g style="mix-blend-mode:multiply" opacity="0.8">
<path d="M29.7473 17.1528C29.7473 17.1528 31.5223 17.3857 31.5896 18.2706C31.6517 19.0365 31.3515 21.9551 31.2739 22.364C31.2739 22.364 31.1031 22.5399 30.7512 22.7262C30.7512 22.7262 31.0462 22.5295 31.1808 22.188C31.3101 21.8465 31.4654 18.726 31.4706 18.3638C31.4809 17.9963 30.6167 17.3184 29.7473 17.1528Z" fill="#D42F55"/>
</g>
<g style="mix-blend-mode:multiply" opacity="0.8">
<path d="M17.1724 19.1707C17.1724 19.1707 17.219 21.6184 17.3121 22.4464C17.3121 22.4464 17.9331 23.0415 19.232 23.3986C19.232 23.3986 17.6537 22.6431 17.514 22.3326C17.3742 22.0221 17.1724 19.1707 17.1724 19.1707Z" fill="#D42F55"/>
</g>
<g style="mix-blend-mode:soft-light">
<path d="M26.808 20.6457C26.3164 21.365 25.9283 23.6833 26.1197 23.7195C26.3112 23.7506 28.9608 23.6937 30.5391 22.7467C31.0307 22.4517 31.129 19.4554 30.358 19.5796C29.5869 19.7038 27.0357 20.3041 26.808 20.6457Z" fill="white"/>
</g>
<g style="mix-blend-mode:multiply" opacity="0.2">
<path d="M19.1337 20.3767C18.549 20.237 18.5076 22.8865 18.7508 23.0417C18.994 23.1918 19.3097 23.4299 21.9696 23.6472C24.6295 23.8697 24.2931 23.4971 24.4846 23.3212C24.6761 23.1452 24.645 20.6302 24.1844 20.6665C23.7239 20.7027 20.9812 20.8114 19.1337 20.3715V20.3767Z" fill="#E02774"/>
</g>
<g style="mix-blend-mode:soft-light" opacity="0.5">
<path d="M17.2914 19.735C17.2811 20.1697 17.4415 22.3276 17.6226 22.4673C17.8037 22.6071 18.2591 22.7934 18.3937 22.7209C18.5334 22.6485 18.4403 20.4491 18.3575 20.3612C18.2695 20.2732 17.2966 19.4142 17.2914 19.7298V19.735Z" fill="white"/>
</g>
<path d="M20.5929 20.5683C20.5929 20.5683 24.9916 20.9357 27.6308 20.3302C31.1601 19.5229 31.4654 18.55 31.4654 18.55C31.4654 18.55 30.2596 19.6678 27.4134 20.1284C24.5672 20.589 20.5929 20.5631 20.5929 20.5631V20.5683Z" fill="#FFE016"/>
<g style="mix-blend-mode:multiply" opacity="0.5">
<path d="M20.0704 17.6236C19.9462 17.7271 20.6086 18.0376 20.6086 18.0376C20.6086 18.0376 20.9036 18.3688 20.8932 18.5965C20.8829 18.8242 23.9257 20.4387 28.1381 19.2123C28.4072 19.1346 29.0851 18.9432 29.0851 18.9432C29.0851 18.9432 30.71 19.2433 31.0929 18.9742C31.2896 18.8397 31.7501 18.4567 31.5794 18.0479C31.0671 16.8266 26.1768 16.511 23.8947 16.868C21.5194 17.2406 20.0704 17.6184 20.0704 17.6184V17.6236Z" fill="#D40C55"/>
</g>
<path d="M21.0329 17.4944C22.8234 19.0521 27.8689 18.7985 30.358 18.5035C33.0334 18.1879 34.3789 17.4375 34.9844 16.8838C34.9844 16.8838 35.2535 13.6961 35.1448 12.7801C35.1448 12.7801 33.5095 11.3673 28.5623 11.8952C23.6151 12.423 21.1933 13.7944 20.7741 14.3222L21.0277 17.4944H21.0329Z" fill="url(#paint33_linear_168_548)"/>
<path d="M20.7793 14.3221C20.8259 15.0051 23.5686 15.7814 27.3204 15.4088C31.0722 15.031 34.9947 13.9184 35.15 12.7851C35.1655 12.6557 34.943 11.952 32.6867 11.6415C30.4357 11.331 27.367 11.6415 24.8002 12.2624C21.7263 13.0025 20.7379 13.7269 20.7845 14.3272L20.7793 14.3221Z" fill="url(#paint34_linear_168_548)"/>
<g style="mix-blend-mode:soft-light" opacity="0.5">
<path d="M29.4213 14.9846C30.1561 14.9329 33.5146 14.2291 33.9855 13.8358C34.4564 13.4425 27.5428 12.5473 26.8545 12.2575C26.1611 11.9677 23.9824 12.2575 22.8957 12.9302C21.809 13.5978 25.7005 13.5771 27.0201 13.8203C28.3397 14.0635 25.8144 15.2537 29.4213 14.9898V14.9846Z" fill="white"/>
</g>
<path d="M22.3214 14.0272C22.2852 14.4101 24.7743 15.0518 28.4329 14.4619C32.5211 13.8047 33.6182 13.2354 33.5871 12.8577C33.5613 12.4799 31.5016 11.714 27.8482 12.1435C25.033 12.4747 22.3783 13.4476 22.3162 14.0324L22.3214 14.0272Z" fill="url(#paint35_linear_168_548)"/>
<path d="M22.6525 14.3326C22.8336 13.8876 25.0226 13.1941 28.3708 12.8112C31.7138 12.4283 33.3956 12.9457 33.4267 13.132C33.4577 13.3183 31.0359 14.2964 27.4341 14.6017C23.8324 14.907 22.6577 14.3326 22.6577 14.3326H22.6525Z" fill="#FF9304"/>
<g style="mix-blend-mode:multiply" opacity="0.5">
<path d="M30.0527 14.2393C30.0527 14.2393 33.5975 13.6028 33.5923 12.8524C33.5871 12.3297 31.2739 11.9882 29.6645 12.0141C29.6645 12.0141 28.5933 12.6868 28.6658 12.78C28.7382 12.8731 32.1433 12.7644 32.1744 13.2146C32.2054 13.6649 30.0578 14.2393 30.0578 14.2393H30.0527Z" fill="#D42F55"/>
</g>
<path d="M33.1627 14.1928C33.1627 14.1928 34.5962 13.7064 32.9092 13.7219C32.2209 13.7271 30.2751 14.3326 30.3062 14.5913C30.3372 14.8449 31.0048 14.7052 31.6672 14.5913C32.7436 14.405 33.1576 14.198 33.1576 14.198L33.1627 14.1928Z" fill="white"/>
<path d="M25.6385 12.5319C25.6385 12.5319 25.1417 12.268 24.588 12.4284C24.0343 12.5888 24.4017 12.8734 24.4017 12.8734C24.4017 12.8734 25.447 12.5784 25.6385 12.5319Z" fill="white"/>
<path d="M25.3901 12.5885C25.3901 12.5885 22.9423 13.0646 22.3731 13.6752C21.8039 14.2859 23.0044 14.6378 24.4482 14.6636C24.4482 14.6636 22.2799 14.5032 22.4352 13.9184C22.5904 13.3337 25.3901 12.5885 25.3901 12.5885Z" fill="#FFE016"/>
<path d="M23.6046 12.5733C23.6046 12.5733 20.6912 13.2305 20.7688 14.2293C20.8464 15.228 23.7806 15.4557 24.3912 15.4764C24.3912 15.4764 20.7895 15.1607 20.924 14.1723C21.0586 13.1891 23.6046 12.5681 23.6046 12.5681V12.5733Z" fill="#FFE016"/>
<g style="mix-blend-mode:multiply" opacity="0.8">
<path d="M33.2611 11.7349C33.2611 11.7349 34.9429 11.916 35.1448 12.7854C35.2069 13.0493 35.0464 16.4751 34.9843 16.8891C34.9843 16.8891 34.8187 17.0754 34.4772 17.272C34.4772 17.272 34.767 17.065 34.886 16.7183C35.005 16.3716 35.0361 13.2511 35.0309 12.8837C35.0257 12.5163 34.1408 11.8694 33.2611 11.74V11.7349Z" fill="#D42F55"/>
</g>
<g style="mix-blend-mode:multiply" opacity="0.8">
<path d="M20.7637 14.2291C20.7637 14.2291 20.9034 16.6717 21.0276 17.4945C21.0276 17.4945 21.6693 18.0689 22.9786 18.3742C22.9786 18.3742 21.3692 17.6756 21.2191 17.3703C21.069 17.065 20.7585 14.2239 20.7585 14.2239L20.7637 14.2291Z" fill="#D42F55"/>
</g>
<g style="mix-blend-mode:soft-light">
<path d="M30.4562 15.3365C29.9957 16.0765 29.6904 18.4103 29.887 18.431C30.0836 18.4517 32.7228 18.2965 34.2701 17.2926C34.7514 16.9821 34.7359 13.9806 33.97 14.1359C33.2041 14.2911 30.6788 14.9846 30.4614 15.3365H30.4562Z" fill="white"/>
</g>
<g style="mix-blend-mode:multiply" opacity="0.2">
<path d="M22.7715 15.3572C22.1867 15.2434 22.2436 17.8929 22.492 18.0326C22.7404 18.1775 23.0665 18.4 25.7315 18.5191C28.3966 18.6381 28.0499 18.281 28.2362 18.0999C28.4225 17.9188 28.2931 15.409 27.8377 15.4607C27.3823 15.5125 24.6396 15.7298 22.7767 15.3572H22.7715Z" fill="#E02774"/>
</g>
<g style="mix-blend-mode:soft-light" opacity="0.5">
<path d="M20.9086 14.788C20.919 15.2227 21.157 17.3703 21.3433 17.5048C21.5296 17.6394 21.9902 17.8102 22.1247 17.7274C22.2593 17.6497 22.0885 15.4556 21.9954 15.3728C21.9074 15.29 20.8983 14.4672 20.9034 14.7828L20.9086 14.788Z" fill="white"/>
</g>
<path d="M24.2412 15.4915C24.2412 15.4915 28.6502 15.6882 31.2635 14.9896C34.7617 14.0529 35.0308 13.0645 35.0308 13.0645C35.0308 13.0645 33.8665 14.2289 31.041 14.7981C28.2155 15.3673 24.2412 15.4915 24.2412 15.4915Z" fill="#FFE016"/>
<path d="M18.7196 13.6912C20.4481 15.3161 25.4988 15.254 27.9982 15.0574C30.684 14.8452 32.0605 14.1414 32.6867 13.6136C32.6867 13.6136 33.0748 10.4414 33.0024 9.52026C33.0024 9.52026 31.424 8.04541 26.4613 8.38696C21.4986 8.7285 19.025 10.0015 18.5851 10.5138L18.7196 13.6912Z" fill="url(#paint36_linear_168_548)"/>
<path d="M18.5849 10.5134C18.6056 11.1965 21.3121 12.0762 25.0794 11.8485C28.8415 11.6157 32.8055 10.6531 33.0021 9.52501C33.0228 9.40082 32.8262 8.68151 30.5855 8.28821C28.3447 7.88975 25.2657 8.08639 22.6782 8.60906C19.5785 9.23522 18.5642 9.91831 18.5849 10.5186V10.5134Z" fill="url(#paint37_linear_168_548)"/>
<g style="mix-blend-mode:soft-light" opacity="0.5">
<path d="M27.2012 11.5019C27.936 11.476 31.3204 10.9016 31.8068 10.5238C32.2933 10.146 25.421 8.99204 24.7379 8.67637C24.06 8.3607 21.871 8.5677 20.7584 9.19386C19.6458 9.82002 23.5373 9.94939 24.8466 10.2392C26.1558 10.5342 23.5891 11.6261 27.2012 11.4967V11.5019Z" fill="white"/>
</g>
<path d="M20.1427 10.2755C20.091 10.6584 22.5543 11.3932 26.2336 10.943C30.3425 10.4411 31.4602 9.91322 31.4447 9.53545C31.4292 9.15768 29.4006 8.31418 25.7368 8.60397C22.9113 8.82649 20.2204 9.69587 20.1376 10.2806L20.1427 10.2755Z" fill="url(#paint38_linear_168_548)"/>
<path d="M20.4635 10.5962C20.6601 10.1615 22.875 9.55086 26.2335 9.29211C29.592 9.03337 31.248 9.61813 31.2739 9.80443C31.2946 9.99073 28.8417 10.8808 25.2296 11.0464C21.6175 11.212 20.4687 10.5962 20.4687 10.5962H20.4635Z" fill="#FF9304"/>
<g style="mix-blend-mode:multiply" opacity="0.5">
<path d="M27.8585 10.7826C27.8585 10.7826 31.4292 10.2806 31.4499 9.53546C31.4654 9.0128 29.1677 8.58328 27.5583 8.54706C27.5583 8.54706 26.4613 9.1784 26.5285 9.27154C26.5958 9.36469 30.0061 9.38539 30.0164 9.84078C30.0268 10.291 27.8637 10.7826 27.8637 10.7826H27.8585Z" fill="#D42F55"/>
</g>
<path d="M30.9686 10.8498C30.9686 10.8498 32.4176 10.4203 30.7358 10.3738C30.0475 10.3531 28.0811 10.8861 28.1018 11.1396C28.1225 11.3984 28.7952 11.2794 29.4628 11.1862C30.5495 11.0413 30.9686 10.8498 30.9686 10.8498Z" fill="white"/>
<path d="M23.5166 8.90419C23.5166 8.90419 23.0302 8.61957 22.4661 8.75929C21.9072 8.89902 22.2643 9.19916 22.2643 9.19916C22.2643 9.19916 23.32 8.94559 23.5166 8.90419Z" fill="white"/>
<path d="M23.2631 8.95073C23.2631 8.95073 20.7999 9.33367 20.2099 9.91844C19.62 10.5084 20.805 10.9017 22.2437 10.9845C22.2437 10.9845 20.0806 10.7412 20.2617 10.1617C20.4376 9.58207 23.2631 8.94556 23.2631 8.94556V8.95073Z" fill="#FFE016"/>
<path d="M21.4778 8.86798C21.4778 8.86798 18.5436 9.41134 18.5799 10.4153C18.6161 11.4192 21.5451 11.7556 22.1505 11.8021C22.1505 11.8021 18.5643 11.3519 18.7351 10.3687C18.9059 9.39065 21.4726 8.86798 21.4726 8.86798H21.4778Z" fill="#FFE016"/>
<g style="mix-blend-mode:multiply" opacity="0.8">
<path d="M31.16 8.39685C31.16 8.39685 32.8315 8.64525 33.0023 9.51463C33.054 9.78372 32.7642 13.1992 32.6866 13.608C32.6866 13.608 32.5158 13.7839 32.1639 13.9702C32.1639 13.9702 32.4589 13.7736 32.5934 13.432C32.7228 13.0905 32.8781 9.97002 32.8832 9.60778C32.8936 9.24036 32.0294 8.56245 31.16 8.39685Z" fill="#D42F55"/>
</g>
<g style="mix-blend-mode:multiply" opacity="0.8">
<path d="M18.5799 10.4151C18.5799 10.4151 18.6265 12.8628 18.7196 13.6908C18.7196 13.6908 19.3406 14.2859 20.6395 14.643C20.6395 14.643 19.0612 13.8875 18.9214 13.577C18.7817 13.2665 18.5799 10.4151 18.5799 10.4151Z" fill="#D42F55"/>
</g>
<g style="mix-blend-mode:soft-light">
<path d="M28.2207 11.89C27.7291 12.6093 27.3409 14.9277 27.5324 14.9639C27.7239 14.995 30.3734 14.938 31.9518 13.991C32.4434 13.6961 32.5417 10.6998 31.7707 10.824C30.9996 10.9482 28.4484 11.5485 28.2207 11.89Z" fill="white"/>
</g>
<g style="mix-blend-mode:multiply" opacity="0.2">
<path d="M20.5412 11.621C19.9565 11.4813 19.9151 14.1308 20.1583 14.2861C20.4015 14.4413 20.7172 14.6742 23.3771 14.8915C26.037 15.1141 25.7006 14.7415 25.8921 14.5655C26.0835 14.3896 26.0525 11.8746 25.5919 11.9108C25.1314 11.947 22.3887 12.0557 20.5412 11.6158V11.621Z" fill="#E02774"/>
</g>
<g style="mix-blend-mode:soft-light" opacity="0.5">
<path d="M18.7041 10.9794C18.6938 11.4141 18.8542 13.572 19.0353 13.7117C19.2164 13.8515 19.6718 14.0378 19.8064 13.9653C19.9409 13.8929 19.8529 11.6935 19.7701 11.6056C19.6822 11.5176 18.7093 10.6585 18.7041 10.9742V10.9794Z" fill="white"/>
</g>
<path d="M22.0056 11.8126C22.0056 11.8126 26.4042 12.1801 29.0434 11.5746C32.5727 10.7673 32.878 9.79443 32.878 9.79443C32.878 9.79443 31.6723 10.9122 28.8261 11.3728C25.9799 11.8333 22.0056 11.8075 22.0056 11.8075V11.8126Z" fill="#FFE016"/>
<path d="M20.945 9.16785C22.6734 10.7928 27.7241 10.7307 30.2235 10.534C32.9093 10.3218 34.2858 9.61806 34.912 9.09022C34.912 9.09022 35.3001 5.91801 35.2277 4.99688C35.2277 4.99688 33.6493 3.52204 28.6866 3.86358C23.7239 4.20512 21.2503 5.47815 20.8104 5.99046L20.945 9.16785Z" fill="url(#paint39_linear_168_548)"/>
<path d="M20.8104 5.98522C20.8311 6.66831 23.5375 7.54804 27.3048 7.32034C31.067 7.08747 35.031 6.12494 35.2276 4.99682C35.2483 4.87262 35.0517 4.15331 32.8109 3.76002C30.5702 3.36155 27.4911 3.5582 24.9037 4.08086C21.8039 4.70702 20.7897 5.39011 20.8104 5.9904V5.98522Z" fill="url(#paint40_linear_168_548)"/>
<g style="mix-blend-mode:soft-light" opacity="0.5">
<path d="M29.4213 6.97885C30.1561 6.95298 33.5405 6.37856 34.027 6.0008C34.5134 5.62303 27.6411 4.46903 26.958 4.15336C26.275 3.83769 24.0912 4.04469 22.9786 4.67085C21.866 5.29701 25.7575 5.42638 27.0667 5.71618C28.376 6.01115 25.8092 7.10305 29.4213 6.97368V6.97885Z" fill="white"/>
</g>
<path d="M22.3629 5.74726C22.3111 6.1302 24.7744 6.86504 28.4537 6.41482C32.5626 5.91286 33.6804 5.38502 33.6648 5.00725C33.6493 4.62949 31.6208 3.78598 27.9569 4.07577C25.1314 4.29829 22.4405 5.16767 22.3577 5.75244L22.3629 5.74726Z" fill="url(#paint41_linear_168_548)"/>
<path d="M22.6836 6.06805C22.8803 5.63336 25.0951 5.02272 28.4536 4.76398C31.8121 4.50523 33.4681 5.09 33.494 5.27629C33.5147 5.46259 31.0618 6.35267 27.4497 6.51827C23.8376 6.68386 22.6888 6.06805 22.6888 6.06805H22.6836Z" fill="#FF9304"/>
<g style="mix-blend-mode:multiply" opacity="0.5">
<path d="M30.0786 6.25448C30.0786 6.25448 33.6493 5.75251 33.6648 5.00733C33.6803 4.48466 31.3826 4.05515 29.7733 4.01892C29.7733 4.01892 28.6762 4.65026 28.7435 4.74341C28.8107 4.83655 32.221 4.85725 32.2313 5.31264C32.2417 5.76804 30.0786 6.25448 30.0786 6.25448Z" fill="#D42F55"/>
</g>
<path d="M33.1888 6.32683C33.1888 6.32683 34.6377 5.89732 32.9559 5.85074C32.2676 5.83005 30.3012 6.36306 30.3219 6.61663C30.3426 6.8702 31.0153 6.75635 31.6829 6.6632C32.7696 6.51831 33.1888 6.32683 33.1888 6.32683Z" fill="white"/>
<path d="M25.7368 4.38118C25.7368 4.38118 25.2503 4.09656 24.6863 4.23628C24.1274 4.37601 24.4844 4.67615 24.4844 4.67615C24.4844 4.67615 25.5401 4.42258 25.7368 4.38118Z" fill="white"/>
<path d="M25.4884 4.42772C25.4884 4.42772 23.0252 4.81066 22.4352 5.39543C21.8453 5.98536 23.0304 6.37866 24.469 6.46145C24.469 6.46145 22.3059 6.21823 22.487 5.63865C22.6629 5.05906 25.4884 4.42255 25.4884 4.42255V4.42772Z" fill="#FFE016"/>
<path d="M23.6979 4.34503C23.6979 4.34503 20.7638 4.8884 20.8 5.89233C20.8362 6.89108 23.7652 7.23262 24.3707 7.2792C24.3707 7.2792 20.7845 6.82898 20.9552 5.84575C21.126 4.8677 23.6928 4.34503 23.6928 4.34503H23.6979Z" fill="#FFE016"/>
<g style="mix-blend-mode:multiply" opacity="0.8">
<path d="M33.3801 3.87384C33.3801 3.87384 35.0516 4.12224 35.2224 4.99162C35.2741 5.26071 34.9843 8.67614 34.9067 9.08496C34.9067 9.08496 34.7359 9.26091 34.384 9.4472C34.384 9.4472 34.679 9.25056 34.8135 8.90901C34.9429 8.56747 35.0982 5.44701 35.1033 5.08477C35.1137 4.71735 34.2495 4.03944 33.3801 3.87384Z" fill="#D42F55"/>
</g>
<g style="mix-blend-mode:multiply" opacity="0.8">
<path d="M20.8 5.89209C20.8 5.89209 20.8466 8.33982 20.9397 9.1678C20.9397 9.1678 21.5607 9.76291 22.8596 10.12C22.8596 10.12 21.2813 9.36444 21.1416 9.05395C21.0018 8.74346 20.8 5.89209 20.8 5.89209Z" fill="#D42F55"/>
</g>
<g style="mix-blend-mode:soft-light">
<path d="M30.4408 7.36702C29.9492 8.08633 29.5611 10.4047 29.7525 10.4409C29.944 10.472 32.5935 10.415 34.1719 9.46803C34.6635 9.17306 34.7618 6.1768 33.9908 6.301C33.2197 6.42519 30.6685 7.02548 30.4408 7.36702Z" fill="white"/>
</g>
<g style="mix-blend-mode:multiply" opacity="0.2">
<path d="M22.7664 7.09762C22.1816 6.9579 22.1402 9.60744 22.3834 9.76269C22.6266 9.91276 22.9423 10.1508 25.6022 10.3682C28.2621 10.5907 27.9257 10.2181 28.1172 10.0421C28.3087 9.86619 28.2776 7.35119 27.8171 7.38741C27.3565 7.42364 24.6138 7.53231 22.7664 7.09245V7.09762Z" fill="#E02774"/>
</g>
<g style="mix-blend-mode:soft-light" opacity="0.5">
<path d="M20.9242 6.45601C20.9139 6.8907 21.0743 9.04863 21.2554 9.18836C21.4365 9.32808 21.8919 9.51437 22.0265 9.44193C22.161 9.36948 22.0731 7.17015 21.9903 7.08217C21.9023 6.9942 20.9294 6.13517 20.9242 6.45084V6.45601Z" fill="white"/>
</g>
<path d="M24.2257 7.28927C24.2257 7.28927 28.6244 7.65668 31.2636 7.05122C34.7928 6.24394 35.0982 5.27106 35.0982 5.27106C35.0982 5.27106 33.8924 6.38883 31.0462 6.8494C28.2 7.30997 24.2257 7.28409 24.2257 7.28409V7.28927Z" fill="#FFE016"/>
<path d="M16.7584 6.0166C18.4868 7.64152 23.5375 7.57942 26.037 7.38278C28.7228 7.1706 30.0993 6.46682 30.7255 5.93898C30.7255 5.93898 31.1136 2.76677 31.0411 1.84564C31.0411 1.84564 29.4628 0.370793 24.5001 0.712336C19.5373 1.05388 17.0637 2.3269 16.6239 2.83922L16.7584 6.0166Z" fill="url(#paint42_linear_168_548)"/>
<path d="M16.629 2.83923C16.6497 3.52231 19.3562 4.40204 23.1235 4.17435C26.8856 3.94148 30.8496 2.97895 31.0463 1.85082C31.067 1.72662 30.8703 1.00731 28.6296 0.614021C26.3889 0.215554 23.3098 0.4122 20.7223 0.934864C17.6226 1.56103 16.6083 2.24411 16.629 2.8444V2.83923Z" fill="url(#paint43_linear_168_548)"/>
<g style="mix-blend-mode:soft-light" opacity="0.5">
<path d="M25.24 3.8273C25.9748 3.80143 29.3592 3.22701 29.8456 2.84925C30.3321 2.47148 23.4598 1.31748 22.7767 1.00181C22.0936 0.686141 19.9098 0.893137 18.7972 1.5193C17.6846 2.14546 21.5761 2.27483 22.8854 2.56463C24.1946 2.85442 21.6279 3.9515 25.24 3.82213V3.8273Z" fill="white"/>
</g>
<path d="M18.1815 2.6009C18.1298 2.98384 20.593 3.71868 24.2724 3.26846C28.3812 2.7665 29.499 2.23866 29.4835 1.86089C29.468 1.48312 27.4394 0.639615 23.7756 0.929409C20.9501 1.15193 18.2591 2.02131 18.1763 2.60608L18.1815 2.6009Z" fill="url(#paint44_linear_168_548)"/>
<path d="M18.5023 2.92199C18.6989 2.4873 20.9138 1.87667 24.2723 1.61792C27.6308 1.35918 29.2868 1.94394 29.3126 2.13023C29.3385 2.31653 26.8804 3.20661 23.2684 3.37221C19.6563 3.53781 18.5075 2.92199 18.5075 2.92199H18.5023Z" fill="#FF9304"/>
<g style="mix-blend-mode:multiply" opacity="0.5">
<path d="M25.8972 3.10805C25.8972 3.10805 29.4679 2.60609 29.4834 1.8609C29.499 1.33824 27.2013 0.908722 25.5919 0.872498C25.5919 0.872498 24.4948 1.50383 24.5621 1.59698C24.6294 1.69013 28.0396 1.71083 28.05 2.16622C28.0603 2.61644 25.8972 3.10805 25.8972 3.10805Z" fill="#D42F55"/>
</g>
<path d="M29.0072 3.18084C29.0072 3.18084 30.4562 2.75132 28.7744 2.70475C28.0861 2.68405 26.1197 3.21706 26.1404 3.47063C26.1611 3.7242 26.8338 3.61036 27.5014 3.51721C28.5881 3.37231 29.0072 3.18084 29.0072 3.18084Z" fill="white"/>
<path d="M21.5554 1.22963C21.5554 1.22963 21.069 0.945012 20.5049 1.08473C19.946 1.22446 20.3031 1.5246 20.3031 1.5246C20.3031 1.5246 21.3588 1.27103 21.5554 1.22963Z" fill="white"/>
<path d="M21.3019 1.27617C21.3019 1.27617 18.8387 1.65911 18.2487 2.24388C17.6588 2.83381 18.8438 3.22711 20.2825 3.3099C20.2825 3.3099 18.1193 3.06668 18.3005 2.4871C18.4764 1.90751 21.3019 1.271 21.3019 1.271V1.27617Z" fill="#FFE016"/>
<path d="M19.5166 1.19861C19.5166 1.19861 16.5824 1.74197 16.6186 2.7459C16.6549 3.74466 19.5839 4.0862 20.1893 4.13277C20.1893 4.13277 16.6031 3.68256 16.7739 2.69933C16.9447 1.7161 19.5114 1.19861 19.5114 1.19861H19.5166Z" fill="#FFE016"/>
<g style="mix-blend-mode:multiply" opacity="0.8">
<path d="M29.1988 0.727844C29.1988 0.727844 30.8703 0.976239 31.041 1.84562C31.0928 2.11472 30.803 5.53015 30.7254 5.93896C30.7254 5.93896 30.5546 6.11491 30.2027 6.3012C30.2027 6.3012 30.4977 6.10456 30.6322 5.76302C30.7616 5.4163 30.9168 2.30101 30.922 1.93877C30.9272 1.57653 30.0681 0.893441 29.1988 0.727844Z" fill="#D42F55"/>
</g>
<g style="mix-blend-mode:multiply" opacity="0.8">
<path d="M16.6187 2.74091C16.6187 2.74091 16.6653 5.18863 16.7584 6.01661C16.7584 6.01661 17.3794 6.61173 18.6783 6.96879C18.6783 6.96879 17.0999 6.21326 16.9602 5.90277C16.8205 5.59227 16.6187 2.74091 16.6187 2.74091Z" fill="#D42F55"/>
</g>
<g style="mix-blend-mode:soft-light">
<path d="M26.2594 4.21584C25.7678 4.93515 25.3797 7.2535 25.5712 7.28973C25.7627 7.32078 28.4122 7.26385 29.9905 6.31685C30.4822 6.02188 30.5805 3.02561 29.8094 3.14981C29.0384 3.27401 26.4871 3.8743 26.2594 4.21584Z" fill="white"/>
</g>
<g style="mix-blend-mode:multiply" opacity="0.2">
<path d="M18.58 3.94644C17.9952 3.80671 17.9538 6.45626 18.1971 6.61151C18.4403 6.76158 18.7559 6.99962 21.4158 7.21697C24.0757 7.43949 23.7394 7.0669 23.9308 6.89095C24.1223 6.715 24.0913 4.20001 23.6307 4.23623C23.1701 4.27245 20.4274 4.38113 18.58 3.94126V3.94644Z" fill="#E02774"/>
</g>
<g style="mix-blend-mode:soft-light" opacity="0.5">
<path d="M16.7429 3.30477C16.7325 3.73946 16.893 5.89739 17.0741 6.03711C17.2552 6.17683 17.7106 6.36313 17.8451 6.29068C17.9849 6.21823 17.8917 4.0189 17.8089 3.93093C17.7209 3.84296 16.7481 2.98392 16.7429 3.29959V3.30477Z" fill="white"/>
</g>
<path d="M20.0444 4.13802C20.0444 4.13802 24.443 4.50544 27.0822 3.89998C30.6115 3.09269 30.9168 2.11981 30.9168 2.11981C30.9168 2.11981 29.7111 3.23759 26.8649 3.69816C24.0187 4.15872 20.0444 4.13285 20.0444 4.13285V4.13802Z" fill="#FFE016"/>
<path d="M2.15997 23.5231C3.88838 25.1481 8.93908 25.086 11.4386 24.8893C14.1243 24.6771 15.5008 23.9734 16.127 23.4455C16.127 23.4455 16.5151 20.2733 16.4427 19.3522C16.4427 19.3522 14.8643 17.8773 9.90161 18.2189C4.93889 18.5604 2.46529 19.8334 2.02542 20.3457L2.15997 23.5231Z" fill="url(#paint45_linear_168_548)"/>
<path d="M2.02515 20.3457C2.04585 21.0288 4.75232 21.9085 8.51964 21.6808C12.2818 21.4479 16.2458 20.4854 16.4424 19.3573C16.4631 19.2331 16.2665 18.5138 14.0257 18.1205C11.785 17.722 8.70594 17.9187 6.11849 18.4413C3.01873 19.0675 2.00445 19.7506 2.02515 20.3509V20.3457Z" fill="url(#paint46_linear_168_548)"/>
<g style="mix-blend-mode:soft-light" opacity="0.5">
<path d="M10.6363 21.3338C11.3712 21.3079 14.7555 20.7335 15.242 20.3557C15.7284 19.9779 8.85616 18.8239 8.17307 18.5083C7.49516 18.1926 5.30618 18.3996 4.19358 19.0258C3.08098 19.6519 6.9725 19.7813 8.28175 20.0711C9.591 20.3661 7.02425 21.458 10.6363 21.3286V21.3338Z" fill="white"/>
</g>
<path d="M3.58307 20.1074C3.53132 20.4903 5.99457 21.2251 9.67392 20.7749C13.7828 20.273 14.9006 19.7451 14.885 19.3674C14.8695 18.9896 12.841 18.1461 9.17713 18.4359C6.35164 18.6584 3.66069 19.5278 3.5779 20.1125L3.58307 20.1074Z" fill="url(#paint47_linear_168_548)"/>
<path d="M3.89864 20.4233C4.09528 19.9886 6.31014 19.378 9.66864 19.1193C13.0271 18.8605 14.6831 19.4453 14.709 19.6316C14.7349 19.8179 12.2768 20.708 8.66471 20.8736C5.05264 21.0391 3.90381 20.4233 3.90381 20.4233H3.89864Z" fill="#FF9304"/>
<g style="mix-blend-mode:multiply" opacity="0.5">
<path d="M11.2988 20.6146C11.2988 20.6146 14.8695 20.1126 14.885 19.3674C14.9005 18.8448 12.6029 18.4153 10.9935 18.379C10.9935 18.379 9.89639 19.0104 9.96367 19.1035C10.0309 19.1967 13.4412 19.2174 13.4515 19.6728C13.4619 20.123 11.2988 20.6146 11.2988 20.6146Z" fill="#D42F55"/>
</g>
<path d="M14.409 20.6821C14.409 20.6821 15.858 20.2526 14.1761 20.206C13.4879 20.1853 11.5214 20.7183 11.5421 20.9719C11.5628 21.2255 12.2355 21.1116 12.9031 21.0185C13.9898 20.8736 14.409 20.6821 14.409 20.6821Z" fill="white"/>
<path d="M6.95189 18.7361C6.95189 18.7361 6.46545 18.4515 5.90139 18.5912C5.33732 18.7309 5.69957 19.0311 5.69957 19.0311C5.69957 19.0311 6.75524 18.7775 6.95189 18.7361Z" fill="white"/>
<path d="M6.70344 18.7826C6.70344 18.7826 4.24019 19.1656 3.65026 19.7503C3.06032 20.3403 4.24537 20.7336 5.68399 20.8164C5.68399 20.8164 3.52088 20.5732 3.70201 19.9936C3.87795 19.414 6.70344 18.7775 6.70344 18.7775V18.7826Z" fill="#FFE016"/>
<path d="M4.91814 18.7C4.91814 18.7 1.98398 19.2433 2.0202 20.2472C2.05642 21.246 4.98541 21.5875 5.59088 21.6341C5.59088 21.6341 2.00468 21.1839 2.17545 20.2007C2.34622 19.2226 4.91297 18.7 4.91297 18.7H4.91814Z" fill="#FFE016"/>
<g style="mix-blend-mode:multiply" opacity="0.8">
<path d="M14.5951 18.2291C14.5951 18.2291 16.2666 18.4775 16.4374 19.3469C16.4891 19.616 16.1993 23.0314 16.1217 23.4402C16.1217 23.4402 15.9509 23.6162 15.5991 23.8025C15.5991 23.8025 15.894 23.6058 16.0286 23.2643C16.1579 22.9228 16.3132 19.8023 16.3184 19.4401C16.3287 19.0726 15.4645 18.3947 14.5951 18.2291Z" fill="#D42F55"/>
</g>
<g style="mix-blend-mode:multiply" opacity="0.8">
<path d="M2.02023 20.247C2.02023 20.247 2.06681 22.6947 2.15996 23.5227C2.15996 23.5227 2.78094 24.1178 4.07984 24.4749C4.07984 24.4749 2.5015 23.7194 2.36178 23.4089C2.22205 23.0984 2.02023 20.247 2.02023 20.247Z" fill="#D42F55"/>
</g>
<g style="mix-blend-mode:soft-light">
<path d="M11.6558 21.7223C11.1642 22.4416 10.7761 24.76 10.9675 24.7962C11.159 24.8272 13.8086 24.7703 15.3869 23.8233C15.8785 23.5283 15.9768 20.5321 15.2058 20.6563C14.4347 20.7805 11.8835 21.3808 11.6558 21.7223Z" fill="white"/>
</g>
<g style="mix-blend-mode:multiply" opacity="0.2">
<path d="M3.98155 21.4529C3.39679 21.3132 3.35539 23.9627 3.59861 24.118C3.84183 24.268 4.1575 24.5061 6.81739 24.7234C9.47729 24.946 9.14092 24.5734 9.33239 24.3974C9.52386 24.2215 9.49281 21.7065 9.03225 21.7427C8.57168 21.7789 5.82899 21.8876 3.98155 21.4477V21.4529Z" fill="#E02774"/>
</g>
<g style="mix-blend-mode:soft-light" opacity="0.5">
<path d="M2.14444 20.8113C2.13409 21.246 2.29451 23.4039 2.47563 23.5436C2.65676 23.6834 3.11215 23.8697 3.24669 23.7972C3.38124 23.7248 3.29327 21.5254 3.21047 21.4375C3.1225 21.3495 2.14962 20.4905 2.14444 20.8061V20.8113Z" fill="white"/>
</g>
<path d="M5.44072 21.6446C5.44072 21.6446 9.83938 22.012 12.4786 21.4065C16.0079 20.5992 16.3132 19.6263 16.3132 19.6263C16.3132 19.6263 15.1074 20.7441 12.2612 21.2047C9.41504 21.6653 5.44072 21.6394 5.44072 21.6394V21.6446Z" fill="#FFE016"/>
<path d="M4.28697 18.659C6.01538 20.2839 11.0661 20.2218 13.5656 20.0252C16.2513 19.813 17.6278 19.1092 18.254 18.5814C18.254 18.5814 18.6421 15.4092 18.5697 14.488C18.5697 14.488 16.9913 13.0132 12.0286 13.3547C7.06589 13.6963 4.59229 14.9693 4.15242 15.4816L4.28697 18.659Z" fill="url(#paint48_linear_168_548)"/>
<path d="M4.15221 15.4811C4.17291 16.1642 6.87938 17.044 10.6467 16.8163C14.4089 16.5834 18.3728 15.6209 18.5695 14.4927C18.5902 14.3685 18.3935 13.6492 16.1528 13.2559C13.9121 12.8575 10.833 13.0541 8.24555 13.5768C5.14579 14.2029 4.13151 14.886 4.15221 15.4863V15.4811Z" fill="url(#paint49_linear_168_548)"/>
<g style="mix-blend-mode:soft-light" opacity="0.5">
<path d="M12.7685 16.4696C13.5033 16.4438 16.8877 15.8693 17.3742 15.4916C17.8606 15.1138 10.9883 13.9598 10.3053 13.6441C9.62735 13.3285 7.43837 13.5355 6.32577 14.1616C5.21317 14.7878 9.10469 14.9172 10.4139 15.207C11.7232 15.5019 9.15643 16.5938 12.7685 16.4645V16.4696Z" fill="white"/>
</g>
<path d="M5.71007 15.2432C5.65832 15.6262 8.12157 16.361 11.8009 15.9108C15.9098 15.4088 17.0276 14.881 17.012 14.5032C16.9965 14.1255 14.968 13.2819 11.3041 13.5717C8.47864 13.7943 5.78769 14.6636 5.7049 15.2484L5.71007 15.2432Z" fill="url(#paint50_linear_168_548)"/>
<path d="M6.02563 15.564C6.22228 15.1293 8.43714 14.5187 11.7956 14.2599C15.1541 14.0012 16.8101 14.586 16.836 14.7723C16.8567 14.9586 14.4038 15.8486 10.7917 16.0142C7.17964 16.1798 6.03081 15.564 6.03081 15.564H6.02563Z" fill="#FF9304"/>
<g style="mix-blend-mode:multiply" opacity="0.5">
<path d="M13.4258 15.7504C13.4258 15.7504 16.9965 15.2484 17.0172 14.5032C17.0327 13.9806 14.735 13.5511 13.1257 13.5148C13.1257 13.5148 12.0286 14.1462 12.0959 14.2393C12.1631 14.3325 15.5734 14.3532 15.5837 14.8086C15.5941 15.2588 13.431 15.7504 13.431 15.7504H13.4258Z" fill="#D42F55"/>
</g>
<path d="M16.5358 15.8228C16.5358 15.8228 17.9848 15.3933 16.3029 15.3467C15.6147 15.326 13.6482 15.859 13.6689 16.1126C13.6896 16.3662 14.3623 16.2523 15.0299 16.1592C16.1166 16.0143 16.5358 15.8228 16.5358 15.8228Z" fill="white"/>
<path d="M9.08408 13.872C9.08408 13.872 8.59764 13.5873 8.03357 13.7271C7.46951 13.8668 7.83175 14.1669 7.83175 14.1669C7.83175 14.1669 8.88743 13.9134 9.08408 13.872Z" fill="white"/>
<path d="M8.83044 13.9185C8.83044 13.9185 6.36719 14.3014 5.77726 14.8862C5.18732 15.4761 6.37237 15.8694 7.81099 15.9522C7.81099 15.9522 5.64788 15.709 5.829 15.1294C6.00495 14.5498 8.83044 13.9133 8.83044 13.9133V13.9185Z" fill="#FFE016"/>
<path d="M7.04512 13.8358C7.04512 13.8358 4.11096 14.3791 4.14718 15.383C4.18341 16.387 7.1124 16.7233 7.71786 16.7699C7.71786 16.7699 4.13166 16.3197 4.30243 15.3365C4.4732 14.3584 7.03995 13.8358 7.03995 13.8358H7.04512Z" fill="#FFE016"/>
<g style="mix-blend-mode:multiply" opacity="0.8">
<path d="M16.7273 13.3646C16.7273 13.3646 18.3988 13.613 18.5696 14.4824C18.6213 14.7515 18.3315 18.1669 18.2539 18.5757C18.2539 18.5757 18.0831 18.7517 17.7312 18.938C17.7312 18.938 18.0262 18.7413 18.1608 18.3998C18.2901 18.0583 18.4454 14.9378 18.4505 14.5755C18.4609 14.2081 17.5967 13.5302 16.7273 13.3646Z" fill="#D42F55"/>
</g>
<g style="mix-blend-mode:multiply" opacity="0.8">
<path d="M4.14723 15.3829C4.14723 15.3829 4.19381 17.8306 4.28695 18.6586C4.28695 18.6586 4.90794 19.2537 6.20684 19.6108C6.20684 19.6108 4.6285 18.8552 4.48878 18.5447C4.34905 18.2342 4.14723 15.3829 4.14723 15.3829Z" fill="#D42F55"/>
</g>
<g style="mix-blend-mode:soft-light">
<path d="M13.788 16.8578C13.2964 17.5771 12.9083 19.8955 13.0997 19.9317C13.2912 19.9627 15.9408 19.9058 17.5191 18.9588C18.0107 18.6638 18.109 15.6676 17.338 15.7918C16.5669 15.916 14.0157 16.5163 13.788 16.8578Z" fill="white"/>
</g>
<g style="mix-blend-mode:multiply" opacity="0.2">
<path d="M6.10855 16.5888C5.52379 16.449 5.48239 19.0986 5.72561 19.2538C5.96883 19.4039 6.2845 19.642 8.94439 19.8593C11.6043 20.0818 11.2679 19.7092 11.4594 19.5333C11.6509 19.3573 11.6198 16.8423 11.1592 16.8786C10.6987 16.9148 7.95599 17.0235 6.10855 16.5836V16.5888Z" fill="#E02774"/>
</g>
<g style="mix-blend-mode:soft-light" opacity="0.5">
<path d="M4.27143 15.9472C4.26108 16.3819 4.4215 18.5398 4.60262 18.6795C4.78374 18.8192 5.23913 19.0055 5.37368 18.9331C5.5134 18.8606 5.42025 16.6613 5.33745 16.5733C5.24948 16.4854 4.2766 15.6263 4.27143 15.942V15.9472Z" fill="white"/>
</g>
<path d="M7.56772 16.7804C7.56772 16.7804 11.9664 17.1478 14.6056 16.5424C18.1349 15.7351 18.4402 14.7622 18.4402 14.7622C18.4402 14.7622 17.2344 15.88 14.3882 16.3405C11.542 16.8011 7.56772 16.7752 7.56772 16.7752V16.7804Z" fill="#FFE016"/>
<path d="M5.94294 14.5345C7.67136 16.1595 12.7221 16.0974 15.2215 15.9007C17.9073 15.6885 19.2838 14.9848 19.91 14.4569C19.91 14.4569 20.2981 11.2847 20.2257 10.3636C20.2257 10.3636 18.6473 8.88874 13.6846 9.23028C8.72186 9.57182 6.24826 10.8448 5.8084 11.3572L5.94294 14.5345Z" fill="url(#paint51_linear_168_548)"/>
<path d="M5.80817 11.352C5.82887 12.0351 8.53534 12.9148 12.3027 12.6871C16.0648 12.4542 20.0288 11.4917 20.2254 10.3636C20.2461 10.2394 20.0495 9.52007 17.8088 9.12678C15.568 8.72831 12.489 8.92496 9.90151 9.44762C6.80175 10.0738 5.78747 10.7569 5.80817 11.3572V11.352Z" fill="url(#paint52_linear_168_548)"/>
<g style="mix-blend-mode:soft-light" opacity="0.5">
<path d="M14.4245 12.3452C15.1593 12.3194 18.5437 11.745 19.0301 11.3672C19.5166 10.9894 12.6443 9.83542 11.9612 9.51975C11.2781 9.20409 9.09433 9.41108 7.98173 10.0372C6.86913 10.6634 10.7606 10.7928 12.0699 11.0826C13.3791 11.3775 10.8124 12.4694 14.4245 12.3401V12.3452Z" fill="white"/>
</g>
<path d="M7.36604 11.1136C7.3143 11.4965 9.77755 12.2314 13.4569 11.7812C17.5658 11.2792 18.6835 10.7514 18.668 10.3736C18.6525 9.99582 16.6239 9.15231 12.9601 9.4421C10.1346 9.66462 7.44367 10.534 7.36087 11.1188L7.36604 11.1136Z" fill="url(#paint53_linear_168_548)"/>
<path d="M7.68161 11.4344C7.87826 10.9997 10.0931 10.3891 13.4516 10.1303C16.8101 9.87157 18.4661 10.4563 18.492 10.6426C18.5127 10.8289 16.0598 11.719 12.4477 11.8846C8.83561 12.0502 7.68679 11.4344 7.68679 11.4344H7.68161Z" fill="#FF9304"/>
<g style="mix-blend-mode:multiply" opacity="0.5">
<path d="M15.0818 11.6208C15.0818 11.6208 18.6524 11.1188 18.668 10.3737C18.6835 9.85099 16.3858 9.42148 14.7764 9.38525C14.7764 9.38525 13.6794 10.0166 13.7466 10.1097C13.8139 10.2029 17.2242 10.2236 17.2345 10.679C17.2449 11.1344 15.0818 11.6208 15.0818 11.6208Z" fill="#D42F55"/>
</g>
<path d="M18.1919 11.6936C18.1919 11.6936 19.6409 11.2641 17.9591 11.2175C17.2708 11.1968 15.3044 11.7298 15.3251 11.9834C15.3458 12.237 16.0185 12.1231 16.6861 12.03C17.7728 11.8851 18.1919 11.6936 18.1919 11.6936Z" fill="white"/>
<path d="M10.74 9.74757C10.74 9.74757 10.2536 9.46296 9.68953 9.60268C9.12547 9.7424 9.48771 10.0425 9.48771 10.0425C9.48771 10.0425 10.5434 9.78897 10.74 9.74757Z" fill="white"/>
<path d="M10.4864 9.79405C10.4864 9.79405 8.02317 10.177 7.43323 10.7618C6.84329 11.3517 8.02834 11.745 9.46696 11.8278C9.46696 11.8278 7.30386 11.5846 7.48498 11.005C7.66093 10.4254 10.4864 9.78888 10.4864 9.78888V9.79405Z" fill="#FFE016"/>
<path d="M8.7011 9.71136C8.7011 9.71136 5.76693 10.2547 5.80316 11.2587C5.83938 12.2574 8.76837 12.599 9.37384 12.6455C9.37384 12.6455 5.78763 12.1953 5.95841 11.2121C6.12918 10.234 8.69592 9.71136 8.69592 9.71136H8.7011Z" fill="#FFE016"/>
<g style="mix-blend-mode:multiply" opacity="0.8">
<path d="M18.3833 9.24054C18.3833 9.24054 20.0548 9.48893 20.2255 10.3583C20.2773 10.6274 19.9875 14.0428 19.9099 14.4517C19.9099 14.4517 19.7391 14.6276 19.3872 14.8139C19.3872 14.8139 19.6822 14.6173 19.8167 14.2757C19.9461 13.9342 20.1014 10.8137 20.1065 10.4515C20.1169 10.084 19.2527 9.40614 18.3833 9.24054Z" fill="#D42F55"/>
</g>
<g style="mix-blend-mode:multiply" opacity="0.8">
<path d="M5.80319 11.2585C5.80319 11.2585 5.84977 13.7062 5.94291 14.5342C5.94291 14.5342 6.5639 15.1293 7.8628 15.4864C7.8628 15.4864 6.28446 14.7308 6.14474 14.4203C6.00501 14.1099 5.80319 11.2585 5.80319 11.2585Z" fill="#D42F55"/>
</g>
<g style="mix-blend-mode:soft-light">
<path d="M15.444 12.7334C14.9524 13.4527 14.5642 15.771 14.7557 15.8072C14.9472 15.8383 17.5967 15.7814 19.1751 14.8344C19.6667 14.5394 19.765 11.5431 18.9939 11.6673C18.2229 11.7915 15.6717 12.3918 15.444 12.7334Z" fill="white"/>
</g>
<g style="mix-blend-mode:multiply" opacity="0.2">
<path d="M7.76453 12.4644C7.17976 12.3247 7.13836 14.9742 7.38158 15.1295C7.6248 15.2795 7.94047 15.5176 10.6004 15.7349C13.2603 15.9574 12.9239 15.5848 13.1154 15.4089C13.3068 15.2329 13.2758 12.718 12.8152 12.7542C12.3547 12.7904 9.61196 12.8991 7.76453 12.4592V12.4644Z" fill="#E02774"/>
</g>
<g style="mix-blend-mode:soft-light" opacity="0.5">
<path d="M5.9274 11.8227C5.91705 12.2574 6.07747 14.4153 6.25859 14.5551C6.43972 14.6948 6.89511 14.8811 7.02965 14.8086C7.1642 14.7362 7.07623 12.5368 6.99343 12.4489C6.90546 12.3609 5.93258 11.5019 5.9274 11.8175V11.8227Z" fill="white"/>
</g>
<path d="M9.22369 12.656C9.22369 12.656 13.6224 13.0234 16.2615 12.4179C19.7908 11.6106 20.0961 10.6378 20.0961 10.6378C20.0961 10.6378 18.8904 11.7555 16.0442 12.2161C13.198 12.6767 9.22369 12.6508 9.22369 12.6508V12.656Z" fill="#FFE016"/>
<g style="mix-blend-mode:multiply" opacity="0.5">
<path d="M31.1652 28.765C31.1652 28.765 32.2985 25.6032 33.8614 24.9718C35.4242 24.3405 36.278 27.2902 36.278 27.2902C36.278 27.2902 34.9015 28.3459 33.0334 28.558L31.1652 28.7702V28.765Z" fill="#D40C55"/>
</g>
<path d="M34.2185 28.3407C36.1073 29.9035 41.3081 29.5102 43.8697 29.148C46.6227 28.7547 47.9941 27.9422 48.6047 27.3575C48.6047 27.3575 48.8013 24.0611 48.6668 23.114C48.6668 23.114 46.9436 21.6961 41.8515 22.3689C36.7542 23.0416 34.2909 24.5164 33.8718 25.0702L34.2133 28.3407H34.2185Z" fill="url(#paint54_linear_168_548)"/>
<path d="M33.8769 25.0701C33.9442 25.7739 36.7903 26.5088 40.656 26.0223C44.5216 25.5411 48.5425 24.2887 48.6719 23.114C48.6874 22.9847 48.4339 22.2602 46.1 21.9963C43.7661 21.7323 40.6042 22.1308 37.9702 22.8346C34.8187 23.6781 33.8148 24.4543 33.8769 25.0701Z" fill="url(#paint55_linear_168_548)"/>
<g style="mix-blend-mode:soft-light" opacity="0.5">
<path d="M42.8192 25.536C43.5747 25.4636 47.0264 24.6511 47.5024 24.232C47.9785 23.8128 40.8217 23.0624 40.0972 22.783C39.3779 22.5035 37.132 22.8554 36.0297 23.5747C34.9275 24.2941 38.9432 24.1699 40.3093 24.3872C41.6807 24.6045 39.1036 25.8983 42.8192 25.536Z" fill="white"/>
</g>
<path d="M35.4605 24.7235C35.4295 25.1219 38.0169 25.717 41.7842 25.0184C45.9863 24.237 47.104 23.6212 47.0678 23.2279C47.0316 22.8346 44.884 22.0998 41.1219 22.6328C38.2239 23.0468 35.5071 24.118 35.4605 24.7235Z" fill="url(#paint56_linear_168_548)"/>
<path d="M35.8123 25.0339C35.9883 24.5734 38.2342 23.8023 41.6755 23.3159C45.1219 22.8346 46.8659 23.3262 46.9021 23.5177C46.9383 23.7092 44.4647 24.7804 40.7492 25.1892C37.0388 25.5928 35.8071 25.0339 35.8071 25.0339H35.8123Z" fill="#FF9304"/>
<g style="mix-blend-mode:multiply" opacity="0.5">
<path d="M43.4505 24.7495C43.4505 24.7495 47.0988 24.0043 47.0677 23.2281C47.047 22.6848 44.651 22.395 42.9899 22.4622C42.9899 22.4622 41.9032 23.1815 41.9756 23.2799C42.0532 23.373 45.567 23.1764 45.6084 23.6369C45.6498 24.1027 43.4505 24.7495 43.4505 24.7495Z" fill="#D42F55"/>
</g>
<path d="M46.659 24.6199C46.659 24.6199 48.1287 24.0817 46.3847 24.1438C45.6758 24.1697 43.6783 24.8425 43.7197 25.1064C43.7611 25.3703 44.439 25.2047 45.1272 25.0702C46.2347 24.8476 46.659 24.6251 46.659 24.6251V24.6199Z" fill="white"/>
<path d="M38.8499 23.0936C38.8499 23.0936 38.3273 22.8348 37.758 23.0108C37.1888 23.1919 37.5769 23.4765 37.5769 23.4765C37.5769 23.4765 38.6481 23.1453 38.8499 23.0936Z" fill="white"/>
<path d="M38.5964 23.1605C38.5964 23.1605 36.0814 23.7142 35.5121 24.3559C34.9429 24.9976 36.19 25.334 37.6804 25.3236C37.6804 25.3236 35.4345 25.215 35.5794 24.6043C35.7243 23.9989 38.5964 23.1605 38.5964 23.1605Z" fill="#FFE016"/>
<path d="M36.749 23.1917C36.749 23.1917 33.7579 23.9421 33.8614 24.9719C33.9649 26.0017 37.0026 26.1621 37.6339 26.1673C37.6339 26.1673 33.908 25.9344 34.0218 24.9098C34.1357 23.8903 36.749 23.1865 36.749 23.1865V23.1917Z" fill="#FFE016"/>
<g style="mix-blend-mode:multiply" opacity="0.8">
<path d="M46.7003 22.079C46.7003 22.079 48.3252 22.2757 48.6719 23.0364C48.7857 23.29 48.6667 26.9279 48.6098 27.3574C48.6098 27.3574 48.4442 27.5541 48.0975 27.7662C48.0975 27.7662 48.3924 27.5437 48.5063 27.1815C48.6201 26.8192 48.5736 23.5953 48.558 23.2175C48.5425 22.8397 47.611 22.1929 46.7003 22.079Z" fill="#D42F55"/>
</g>
<g style="mix-blend-mode:multiply" opacity="0.8">
<path d="M33.8614 24.9718C33.8614 24.9718 34.0684 27.492 34.2185 28.3407C34.2185 28.3407 34.8964 28.9151 36.2574 29.1997C36.2574 29.1997 34.5807 28.5218 34.4151 28.2113C34.2495 27.9008 33.8614 24.977 33.8614 24.977V24.9718Z" fill="#D42F55"/>
</g>
<g style="mix-blend-mode:soft-light">
<path d="M43.8955 25.8671C43.435 26.6381 43.1814 29.06 43.3832 29.0807C43.585 29.1014 46.307 28.8685 47.8802 27.7921C48.3718 27.4558 48.2735 24.3612 47.4869 24.5371C46.7003 24.7182 44.1129 25.4997 43.8955 25.8671Z" fill="white"/>
</g>
<g style="mix-blend-mode:multiply" opacity="0.2">
<path d="M35.9625 26.0845C35.3518 25.981 35.4812 28.7134 35.74 28.8583C35.9987 28.998 36.3402 29.2205 39.0985 29.2775C41.8567 29.3344 41.4841 28.9721 41.6704 28.7807C41.8567 28.5892 41.66 25.9966 41.1891 26.0638C40.7182 26.1311 37.8979 26.4209 35.9625 26.0845Z" fill="#E02774"/>
</g>
<g style="mix-blend-mode:soft-light" opacity="0.5">
<path d="M34.027 25.5464C34.0477 25.9966 34.3479 28.2115 34.5445 28.3408C34.7412 28.4754 35.2224 28.6358 35.357 28.553C35.4915 28.4702 35.2587 26.2088 35.1655 26.126C35.0724 26.0432 34.0115 25.2152 34.027 25.5464Z" fill="white"/>
</g>
<path d="M37.4787 26.1932C37.4787 26.1932 42.0378 26.2864 44.7184 25.4946C48.3046 24.4338 48.5582 23.4143 48.5582 23.4143C48.5582 23.4143 47.3835 24.6459 44.4803 25.3031C41.5772 25.9604 37.4787 26.1932 37.4787 26.1932Z" fill="#FFE016"/>
<g style="mix-blend-mode:multiply" opacity="0.5">
<path d="M30.7772 6.13556C30.7772 6.13556 30.979 6.7669 29.4731 7.34648C29.4731 7.34648 30.0061 8.93 29.1419 10.5549C29.1419 10.5549 27.2272 10.8395 25.2297 10.5239L23.2684 11.0621C23.2684 11.0621 22.1713 11.031 21.4003 10.8447L20.5412 11.6209C20.5412 11.6209 22.28 13.8617 23.2011 15.0312C23.2011 15.0312 27.9672 15.5642 30.4408 14.6431C30.4408 14.6431 31.7863 14.3688 32.6867 13.6133C32.6867 13.6133 32.8368 14.2964 31.2636 14.9898C31.2636 14.9898 29.4317 15.6108 26.4044 15.4762C26.4044 15.4762 28.0862 16.8476 28.3605 18.6588C28.3605 18.6588 26.4199 18.8451 24.7847 18.6485C24.7847 18.6485 23.6358 19.492 21.3796 19.9318C19.1233 20.3717 13.7466 20.7805 11.5266 20.5735C11.5266 20.5735 16.5514 19.699 18.2436 18.576L18.5748 15.202C18.5748 15.202 19.527 14.8346 19.8996 14.4516C19.8996 14.4516 20.2359 10.7981 20.2152 10.3583C20.1997 9.91841 19.2786 9.52511 19.2786 9.52511L20.8621 9.04902L20.831 7.33096C20.831 7.33096 26.5752 8.18482 30.1924 6.30116L30.7668 6.13556H30.7772Z" fill="#D40C55"/>
</g>
<path d="M16.4271 11.7707C16.4271 11.7707 16.8877 11.5379 16.9188 10.4822C16.9188 10.4822 17.0119 11.5275 17.6691 11.6465C17.6691 11.6465 17.1309 12.1226 17.162 12.9144C17.162 12.9144 17.043 11.9622 16.4271 11.7707Z" fill="white"/>
<path style="mix-blend-mode:screen" d="M17.519 11.6417C17.8295 15.5798 17.8916 18.7882 17.6587 18.8037C17.4258 18.8244 16.986 15.6419 16.6755 11.7038C16.365 7.76569 16.3029 4.55725 16.5357 4.54173C16.7686 4.52103 17.2085 7.70359 17.519 11.6417Z" fill="url(#paint57_radial_168_548)"/>
<path style="mix-blend-mode:screen" d="M17.1309 12.0967C14.6366 12.2933 12.6029 12.2623 12.5874 12.0294C12.5667 11.7966 14.5745 11.4498 17.0637 11.2532C19.558 11.0565 21.5917 11.0876 21.6072 11.3205C21.6227 11.5533 19.6201 11.9001 17.1309 12.0967Z" fill="url(#paint58_radial_168_548)"/>
<path style="mix-blend-mode:screen" d="M16.9705 11.8226C15.2679 10.3684 13.9432 9.1213 14.0104 9.0385C14.0777 8.9557 15.5163 10.0735 17.2189 11.5276C18.9214 12.9818 20.2462 14.2289 20.1789 14.3117C20.1116 14.3945 18.673 13.2819 16.9705 11.8226Z" fill="url(#paint59_radial_168_548)"/>
<path style="mix-blend-mode:screen" d="M17.2448 11.8017C15.7906 13.5042 14.5435 14.829 14.4607 14.7617C14.3779 14.6945 15.4956 13.2559 16.9498 11.5533C18.4039 9.85077 19.6511 8.526 19.7339 8.59327C19.8167 8.66055 18.6989 10.0992 17.2448 11.8017Z" fill="url(#paint60_radial_168_548)"/>
<path d="M4.12135 22.5707C4.12135 22.5707 4.58192 22.3378 4.61297 21.2821C4.61297 21.2821 4.70612 22.3274 5.36333 22.4465C5.36333 22.4465 4.82514 22.9225 4.85619 23.7143C4.85619 23.7143 4.73717 22.7621 4.12135 22.5707Z" fill="white"/>
<path style="mix-blend-mode:screen" d="M5.21319 22.4416C5.52368 26.3797 5.58578 29.5881 5.35291 29.6037C5.12004 29.6244 4.68017 26.4418 4.36968 22.5037C4.05919 18.5656 3.99709 15.3572 4.22996 15.3417C4.46283 15.321 4.90269 18.5035 5.21319 22.4416Z" fill="url(#paint61_radial_168_548)"/>
<path style="mix-blend-mode:screen" d="M4.82515 22.897C2.33602 23.0936 0.302291 23.0626 0.281592 22.8297C0.260892 22.5969 2.26875 22.2501 4.75787 22.0535C7.25217 21.8568 9.28591 21.8879 9.30143 22.1208C9.32213 22.3536 7.31427 22.7003 4.82515 22.897Z" fill="url(#paint62_radial_168_548)"/>
<path style="mix-blend-mode:screen" d="M4.66989 22.6225C2.96735 21.1684 1.64258 19.9212 1.70985 19.8384C1.77712 19.7556 3.21574 20.8734 4.91828 22.3276C6.62083 23.7817 7.9456 25.0288 7.87832 25.1116C7.81105 25.1944 6.37243 24.0767 4.66989 22.6225Z" fill="url(#paint63_radial_168_548)"/>
<path style="mix-blend-mode:screen" d="M4.93897 22.602C3.48483 24.3045 2.23768 25.6293 2.15488 25.562C2.07208 25.4948 3.18986 24.0561 4.644 22.3536C6.09815 20.6511 7.3453 19.3263 7.4281 19.3936C7.51089 19.4608 6.39829 20.8995 4.93897 22.602Z" fill="url(#paint64_radial_168_548)"/>
</g>
<defs>
<linearGradient id="paint0_linear_168_548" x1="30.4278" y1="21.3854" x2="44.4004" y2="21.7513" gradientUnits="userSpaceOnUse">
<stop offset="0.05" stop-color="#FF3F00"/>
<stop offset="1" stop-color="#FF6A03"/>
</linearGradient>
<linearGradient id="paint1_linear_168_548" x1="31.2361" y1="17.6017" x2="43.7798" y2="21.9266" gradientUnits="userSpaceOnUse">
<stop stop-color="#FFA900"/>
<stop offset="1" stop-color="#FFC600"/>
</linearGradient>
<linearGradient id="paint2_linear_168_548" x1="31.6358" y1="19.5377" x2="43.3426" y2="19.8443" gradientUnits="userSpaceOnUse">
<stop stop-color="#FF7C04"/>
<stop offset="1" stop-color="#D92000"/>
</linearGradient>
<linearGradient id="paint3_linear_168_548" x1="32.5853" y1="19.7181" x2="46.3899" y2="17.4946" gradientUnits="userSpaceOnUse">
<stop offset="0.05" stop-color="#FF3F00"/>
<stop offset="1" stop-color="#FF6A03"/>
</linearGradient>
<linearGradient id="paint4_linear_168_548" x1="32.6854" y1="15.8494" x2="45.8123" y2="17.7816" gradientUnits="userSpaceOnUse">
<stop stop-color="#FFA900"/>
<stop offset="1" stop-color="#FFC600"/>
</linearGradient>
<linearGradient id="paint5_linear_168_548" x1="33.431" y1="17.6791" x2="44.9927" y2="15.8168" gradientUnits="userSpaceOnUse">
<stop stop-color="#FF7C04"/>
<stop offset="1" stop-color="#D92000"/>
</linearGradient>
<linearGradient id="paint6_linear_168_548" x1="26.5552" y1="22.5733" x2="40.4947" y2="21.4762" gradientUnits="userSpaceOnUse">
<stop offset="0.05" stop-color="#FF3F00"/>
<stop offset="1" stop-color="#FF6A03"/>
</linearGradient>
<linearGradient id="paint7_linear_168_548" x1="26.9682" y1="18.7254" x2="39.8953" y2="21.7154" gradientUnits="userSpaceOnUse">
<stop stop-color="#FFA900"/>
<stop offset="1" stop-color="#FFC600"/>
</linearGradient>
<linearGradient id="paint8_linear_168_548" x1="27.5634" y1="20.6097" x2="39.2381" y2="19.6909" gradientUnits="userSpaceOnUse">
<stop stop-color="#FF7C04"/>
<stop offset="1" stop-color="#D92000"/>
</linearGradient>
<linearGradient id="paint9_linear_168_548" x1="22.8947" y1="19.4952" x2="36.8499" y2="18.7076" gradientUnits="userSpaceOnUse">
<stop offset="0.05" stop-color="#FF3F00"/>
<stop offset="1" stop-color="#FF6A03"/>
</linearGradient>
<linearGradient id="paint10_linear_168_548" x1="23.3883" y1="15.6576" x2="36.2459" y2="18.9334" gradientUnits="userSpaceOnUse">
<stop stop-color="#FFA900"/>
<stop offset="1" stop-color="#FFC600"/>
</linearGradient>
<linearGradient id="paint11_linear_168_548" x1="23.9463" y1="17.5542" x2="35.6385" y2="16.8944" gradientUnits="userSpaceOnUse">
<stop stop-color="#FF7C04"/>
<stop offset="1" stop-color="#D92000"/>
</linearGradient>
<linearGradient id="paint12_linear_168_548" x1="7.08966" y1="23.6209" x2="20.8158" y2="20.9553" gradientUnits="userSpaceOnUse">
<stop offset="0.05" stop-color="#FF3F00"/>
<stop offset="1" stop-color="#FF6A03"/>
</linearGradient>
<linearGradient id="paint13_linear_168_548" x1="7.06555" y1="19.7511" x2="20.2467" y2="21.2557" gradientUnits="userSpaceOnUse">
<stop stop-color="#FFA900"/>
<stop offset="1" stop-color="#FFC600"/>
</linearGradient>
<linearGradient id="paint14_linear_168_548" x1="7.86848" y1="21.5507" x2="19.3645" y2="19.3182" gradientUnits="userSpaceOnUse">
<stop stop-color="#FF7C04"/>
<stop offset="1" stop-color="#D92000"/>
</linearGradient>
<linearGradient id="paint15_linear_168_548" x1="16.2821" y1="24.1499" x2="30.2164" y2="23.0532" gradientUnits="userSpaceOnUse">
<stop offset="0.05" stop-color="#FF3F00"/>
<stop offset="1" stop-color="#FF6A03"/>
</linearGradient>
<linearGradient id="paint16_linear_168_548" x1="16.6899" y1="20.3024" x2="29.617" y2="23.2924" gradientUnits="userSpaceOnUse">
<stop stop-color="#FFA900"/>
<stop offset="1" stop-color="#FFC600"/>
</linearGradient>
<linearGradient id="paint17_linear_168_548" x1="17.2903" y1="22.1863" x2="28.965" y2="21.2675" gradientUnits="userSpaceOnUse">
<stop stop-color="#FF7C04"/>
<stop offset="1" stop-color="#D92000"/>
</linearGradient>
<linearGradient id="paint18_linear_168_548" x1="13.6198" y1="20.5963" x2="27.5592" y2="19.4993" gradientUnits="userSpaceOnUse">
<stop offset="0.05" stop-color="#FF3F00"/>
<stop offset="1" stop-color="#FF6A03"/>
</linearGradient>
<linearGradient id="paint19_linear_168_548" x1="14.0327" y1="16.7483" x2="26.9597" y2="19.7383" gradientUnits="userSpaceOnUse">
<stop stop-color="#FFA900"/>
<stop offset="1" stop-color="#FFC600"/>
</linearGradient>
<linearGradient id="paint20_linear_168_548" x1="14.628" y1="18.6328" x2="26.3027" y2="17.714" gradientUnits="userSpaceOnUse">
<stop stop-color="#FF7C04"/>
<stop offset="1" stop-color="#D92000"/>
</linearGradient>
<linearGradient id="paint21_linear_168_548" x1="14.7623" y1="16.3171" x2="28.7018" y2="15.22" gradientUnits="userSpaceOnUse">
<stop offset="0.05" stop-color="#FF3F00"/>
<stop offset="1" stop-color="#FF6A03"/>
</linearGradient>
<linearGradient id="paint22_linear_168_548" x1="15.1753" y1="12.4693" x2="28.1023" y2="15.4593" gradientUnits="userSpaceOnUse">
<stop stop-color="#FFA900"/>
<stop offset="1" stop-color="#FFC600"/>
</linearGradient>
<linearGradient id="paint23_linear_168_548" x1="15.7705" y1="14.3535" x2="27.4504" y2="13.4343" gradientUnits="userSpaceOnUse">
<stop stop-color="#FF7C04"/>
<stop offset="1" stop-color="#D92000"/>
</linearGradient>
<linearGradient id="paint24_linear_168_548" x1="4.60401" y1="26.8081" x2="19.1264" y2="25.6652" gradientUnits="userSpaceOnUse">
<stop stop-color="#FF9600"/>
<stop offset="1" stop-color="#FFA900"/>
</linearGradient>
<linearGradient id="paint25_linear_168_548" x1="5.04208" y1="22.8127" x2="18.5242" y2="25.9303" gradientUnits="userSpaceOnUse">
<stop stop-color="#FFCD00"/>
<stop offset="1" stop-color="#FFE834"/>
</linearGradient>
<linearGradient id="paint26_linear_168_548" x1="6.12111" y1="24.6487" x2="17.4192" y2="23.7596" gradientUnits="userSpaceOnUse">
<stop stop-color="#FF7C04"/>
<stop offset="1" stop-color="#D92000"/>
</linearGradient>
<linearGradient id="paint27_linear_168_548" x1="22.2111" y1="26.0763" x2="36.7335" y2="24.9333" gradientUnits="userSpaceOnUse">
<stop stop-color="#FF9600"/>
<stop offset="1" stop-color="#FFA900"/>
</linearGradient>
<linearGradient id="paint28_linear_168_548" x1="22.6493" y1="22.0811" x2="36.1314" y2="25.1987" gradientUnits="userSpaceOnUse">
<stop stop-color="#FFCD00"/>
<stop offset="1" stop-color="#FFE834"/>
</linearGradient>
<linearGradient id="paint29_linear_168_548" x1="23.7282" y1="23.9169" x2="35.0262" y2="23.0277" gradientUnits="userSpaceOnUse">
<stop stop-color="#FF7C04"/>
<stop offset="1" stop-color="#D92000"/>
</linearGradient>
<linearGradient id="paint30_linear_168_548" x1="17.2091" y1="21.1546" x2="31.7315" y2="20.0117" gradientUnits="userSpaceOnUse">
<stop stop-color="#FF9600"/>
<stop offset="1" stop-color="#FFA900"/>
</linearGradient>
<linearGradient id="paint31_linear_168_548" x1="17.6473" y1="17.159" x2="31.1298" y2="20.2818" gradientUnits="userSpaceOnUse">
<stop stop-color="#FFCD00"/>
<stop offset="1" stop-color="#FFE834"/>
</linearGradient>
<linearGradient id="paint32_linear_168_548" x1="18.7266" y1="19" x2="30.0195" y2="18.1112" gradientUnits="userSpaceOnUse">
<stop stop-color="#FF7C04"/>
<stop offset="1" stop-color="#D92000"/>
</linearGradient>
<linearGradient id="paint33_linear_168_548" x1="20.8815" y1="16.2089" x2="35.3499" y2="14.5143" gradientUnits="userSpaceOnUse">
<stop stop-color="#FF9600"/>
<stop offset="1" stop-color="#FFA900"/>
</linearGradient>
<linearGradient id="paint34_linear_168_548" x1="21.1674" y1="12.1998" x2="34.7584" y2="14.8023" gradientUnits="userSpaceOnUse">
<stop stop-color="#FFCD00"/>
<stop offset="1" stop-color="#FFE834"/>
</linearGradient>
<linearGradient id="paint35_linear_168_548" x1="22.3153" y1="13.9933" x2="33.5714" y2="12.675" gradientUnits="userSpaceOnUse">
<stop stop-color="#FF7C04"/>
<stop offset="1" stop-color="#D92000"/>
</linearGradient>
<linearGradient id="paint36_linear_168_548" x1="18.6172" y1="12.4012" x2="33.1396" y2="11.2583" gradientUnits="userSpaceOnUse">
<stop stop-color="#FF9600"/>
<stop offset="1" stop-color="#FFA900"/>
</linearGradient>
<linearGradient id="paint37_linear_168_548" x1="19.0553" y1="8.40567" x2="32.5374" y2="11.5233" gradientUnits="userSpaceOnUse">
<stop stop-color="#FFCD00"/>
<stop offset="1" stop-color="#FFE834"/>
</linearGradient>
<linearGradient id="paint38_linear_168_548" x1="20.1343" y1="10.2415" x2="31.4324" y2="9.3523" gradientUnits="userSpaceOnUse">
<stop stop-color="#FF7C04"/>
<stop offset="1" stop-color="#D92000"/>
</linearGradient>
<linearGradient id="paint39_linear_168_548" x1="20.8411" y1="7.87573" x2="35.3583" y2="6.7332" gradientUnits="userSpaceOnUse">
<stop stop-color="#FF9600"/>
<stop offset="1" stop-color="#FFA900"/>
</linearGradient>
<linearGradient id="paint40_linear_168_548" x1="21.2793" y1="3.88052" x2="34.7614" y2="6.99812" gradientUnits="userSpaceOnUse">
<stop stop-color="#FFCD00"/>
<stop offset="1" stop-color="#FFE834"/>
</linearGradient>
<linearGradient id="paint41_linear_168_548" x1="22.3581" y1="5.71633" x2="33.6511" y2="4.82756" gradientUnits="userSpaceOnUse">
<stop stop-color="#FF7C04"/>
<stop offset="1" stop-color="#D92000"/>
</linearGradient>
<linearGradient id="paint42_linear_168_548" x1="16.6585" y1="4.72727" x2="31.1758" y2="3.58473" gradientUnits="userSpaceOnUse">
<stop stop-color="#FF9600"/>
<stop offset="1" stop-color="#FFA900"/>
</linearGradient>
<linearGradient id="paint43_linear_168_548" x1="17.0916" y1="0.732535" x2="30.5789" y2="3.84973" gradientUnits="userSpaceOnUse">
<stop stop-color="#FFCD00"/>
<stop offset="1" stop-color="#FFE834"/>
</linearGradient>
<linearGradient id="paint44_linear_168_548" x1="18.1756" y1="2.56757" x2="29.4685" y2="1.6788" gradientUnits="userSpaceOnUse">
<stop stop-color="#FF7C04"/>
<stop offset="1" stop-color="#D92000"/>
</linearGradient>
<linearGradient id="paint45_linear_168_548" x1="2.05857" y1="22.2327" x2="16.5758" y2="21.0901" gradientUnits="userSpaceOnUse">
<stop stop-color="#FF9600"/>
<stop offset="1" stop-color="#FFA900"/>
</linearGradient>
<linearGradient id="paint46_linear_168_548" x1="2.4914" y1="18.2379" x2="15.9787" y2="21.3551" gradientUnits="userSpaceOnUse">
<stop stop-color="#FFCD00"/>
<stop offset="1" stop-color="#FFE834"/>
</linearGradient>
<linearGradient id="paint47_linear_168_548" x1="3.57567" y1="20.0729" x2="14.8686" y2="19.1842" gradientUnits="userSpaceOnUse">
<stop stop-color="#FF7C04"/>
<stop offset="1" stop-color="#D92000"/>
</linearGradient>
<linearGradient id="paint48_linear_168_548" x1="4.18301" y1="17.368" x2="18.7054" y2="16.2251" gradientUnits="userSpaceOnUse">
<stop stop-color="#FF9600"/>
<stop offset="1" stop-color="#FFA900"/>
</linearGradient>
<linearGradient id="paint49_linear_168_548" x1="4.62106" y1="13.3724" x2="18.1084" y2="16.4896" gradientUnits="userSpaceOnUse">
<stop stop-color="#FFCD00"/>
<stop offset="1" stop-color="#FFE834"/>
</linearGradient>
<linearGradient id="paint50_linear_168_548" x1="5.70011" y1="15.2082" x2="16.9982" y2="14.3191" gradientUnits="userSpaceOnUse">
<stop stop-color="#FF7C04"/>
<stop offset="1" stop-color="#D92000"/>
</linearGradient>
<linearGradient id="paint51_linear_168_548" x1="5.8411" y1="13.2404" x2="20.3584" y2="12.0979" gradientUnits="userSpaceOnUse">
<stop stop-color="#FF9600"/>
<stop offset="1" stop-color="#FFA900"/>
</linearGradient>
<linearGradient id="paint52_linear_168_548" x1="6.27954" y1="9.25046" x2="19.7617" y2="12.3681" gradientUnits="userSpaceOnUse">
<stop stop-color="#FFCD00"/>
<stop offset="1" stop-color="#FFE834"/>
</linearGradient>
<linearGradient id="paint53_linear_168_548" x1="7.35861" y1="11.0858" x2="18.6515" y2="10.1971" gradientUnits="userSpaceOnUse">
<stop stop-color="#FF7C04"/>
<stop offset="1" stop-color="#D92000"/>
</linearGradient>
<linearGradient id="paint54_linear_168_548" x1="34.034" y1="26.9963" x2="48.9281" y2="24.8818" gradientUnits="userSpaceOnUse">
<stop stop-color="#FF9600"/>
<stop offset="1" stop-color="#FFA900"/>
</linearGradient>
<linearGradient id="paint55_linear_168_548" x1="34.2293" y1="22.8498" x2="48.3298" y2="25.1967" gradientUnits="userSpaceOnUse">
<stop stop-color="#FFCD00"/>
<stop offset="1" stop-color="#FFE834"/>
</linearGradient>
<linearGradient id="paint56_linear_168_548" x1="35.461" y1="24.6769" x2="47.0453" y2="23.0323" gradientUnits="userSpaceOnUse">
<stop stop-color="#FF7C04"/>
<stop offset="1" stop-color="#D92000"/>
</linearGradient>
<radialGradient id="paint57_radial_168_548" cx="0" cy="0" r="1" gradientUnits="userSpaceOnUse" gradientTransform="translate(13.0429 18.8797) rotate(-4.5) scale(0.419788 7.13639)">
<stop stop-color="#FFFB00"/>
<stop offset="1"/>
</radialGradient>
<radialGradient id="paint58_radial_168_548" cx="0" cy="0" r="1" gradientUnits="userSpaceOnUse" gradientTransform="translate(5.18578 2.90031) rotate(85.5) scale(0.419788 4.51272)">
<stop stop-color="#FFFB00"/>
<stop offset="1"/>
</radialGradient>
<radialGradient id="paint59_radial_168_548" cx="0" cy="0" r="1" gradientUnits="userSpaceOnUse" gradientTransform="translate(18.21 -9.97454) rotate(130.5) scale(0.188159 4.04542)">
<stop stop-color="#FFFB00"/>
<stop offset="0.04" stop-color="#EAE600"/>
<stop offset="0.15" stop-color="#B4B100"/>
<stop offset="0.26" stop-color="#848100"/>
<stop offset="0.37" stop-color="#5B5900"/>
<stop offset="0.49" stop-color="#3A3900"/>
<stop offset="0.61" stop-color="#202000"/>
<stop offset="0.73" stop-color="#0E0E00"/>
<stop offset="0.86" stop-color="#030300"/>
<stop offset="1"/>
</radialGradient>
<radialGradient id="paint60_radial_168_548" cx="0" cy="0" r="1" gradientUnits="userSpaceOnUse" gradientTransform="translate(-35.8016 -22.9218) rotate(40.5) scale(0.188159 4.04542)">
<stop stop-color="#FFFB00"/>
<stop offset="0.04" stop-color="#EAE600"/>
<stop offset="0.15" stop-color="#B4B100"/>
<stop offset="0.26" stop-color="#848100"/>
<stop offset="0.37" stop-color="#5B5900"/>
<stop offset="0.49" stop-color="#3A3900"/>
<stop offset="0.61" stop-color="#202000"/>
<stop offset="0.73" stop-color="#0E0E00"/>
<stop offset="0.86" stop-color="#030300"/>
<stop offset="1"/>
</radialGradient>
<radialGradient id="paint61_radial_168_548" cx="0" cy="0" r="1" gradientUnits="userSpaceOnUse" gradientTransform="translate(0.801224 29.6701) rotate(-4.5) scale(0.419787 7.13639)">
<stop stop-color="#FFFB00"/>
<stop offset="1"/>
</radialGradient>
<radialGradient id="paint62_radial_168_548" cx="0" cy="0" r="1" gradientUnits="userSpaceOnUse" gradientTransform="translate(-7.09246 13.6541) rotate(85.5) scale(0.419788 4.51271)">
<stop stop-color="#FFFB00"/>
<stop offset="1"/>
</radialGradient>
<radialGradient id="paint63_radial_168_548" cx="0" cy="0" r="1" gradientUnits="userSpaceOnUse" gradientTransform="translate(6.20702 0.481611) rotate(130.5) scale(0.188159 4.04542)">
<stop stop-color="#FFFB00"/>
<stop offset="0.04" stop-color="#EAE600"/>
<stop offset="0.15" stop-color="#B4B100"/>
<stop offset="0.26" stop-color="#848100"/>
<stop offset="0.37" stop-color="#5B5900"/>
<stop offset="0.49" stop-color="#3A3900"/>
<stop offset="0.61" stop-color="#202000"/>
<stop offset="0.73" stop-color="#0E0E00"/>
<stop offset="0.86" stop-color="#030300"/>
<stop offset="1"/>
</radialGradient>
<radialGradient id="paint64_radial_168_548" cx="0" cy="0" r="1" gradientUnits="userSpaceOnUse" gradientTransform="translate(-48.0403 -12.0942) rotate(40.5) scale(0.188159 4.04542)">
<stop stop-color="#FFFB00"/>
<stop offset="0.04" stop-color="#EAE600"/>
<stop offset="0.15" stop-color="#B4B100"/>
<stop offset="0.26" stop-color="#848100"/>
<stop offset="0.37" stop-color="#5B5900"/>
<stop offset="0.49" stop-color="#3A3900"/>
<stop offset="0.61" stop-color="#202000"/>
<stop offset="0.73" stop-color="#0E0E00"/>
<stop offset="0.86" stop-color="#030300"/>
<stop offset="1"/>
</radialGradient>
<clipPath id="clip0_168_548">
<rect width="48.437" height="29.2071" fill="white" transform="translate(0.281494 0.396423)"/>
</clipPath>
</defs>
</svg>
