<svg width="32" height="32" viewBox="0 0 32 32" fill="none" xmlns="http://www.w3.org/2000/svg">
<g clip-path="url(#clip0_192_4068)">
<path d="M25.443 30.0886C25.443 30.0886 25.443 30.0886 25.4306 30.0886C25.3746 30.101 25.1695 30.1383 24.8526 30.1818H24.8463C24.0073 30.2999 22.4473 30.4553 21.1856 30.1818C21.1794 30.1818 21.167 30.1818 21.1545 30.1818L16.7977 27.9443L15.9152 27.4906L15.4988 27.7703L12.2545 29.9394L11.9437 30.1507C11.9437 30.1507 11.9437 30.1507 11.9251 30.1507C11.8815 30.1507 11.751 30.1694 11.5521 30.1818C11.5273 30.1818 11.5024 30.188 11.4776 30.188C10.5142 30.275 8.2954 30.4366 7.28855 30.1383C7.27612 30.1383 7.2699 30.1383 7.25747 30.1321C7.11453 30.0886 7.0648 29.9332 7.08345 29.6846C7.18289 28.5286 8.90449 25.3588 10.4086 22.7671C11.5521 20.7969 12.559 19.1872 12.559 19.1872L12.7268 17.1797L13.2364 11.2442L13.9947 2.39388L14.0258 1.97125C14.0258 1.97125 16.7542 1.39324 18.5318 1.97125C18.5442 1.97125 18.5442 1.97125 18.5566 1.98368C19.1906 2.28822 20.3528 6.43994 21.5337 11.4183C21.8631 12.8167 22.1925 14.2586 22.5094 15.7129C22.8326 17.1859 23.1496 18.6527 23.4417 20.0511C24.5977 25.5577 25.443 30.0886 25.443 30.0886Z" fill="url(#paint0_linear_192_4068)"/>
<path d="M25.8471 21.3999C25.8471 21.3999 27.4009 28.7773 25.6793 29.9706C25.6109 30.0203 25.5301 30.0576 25.4493 30.0887C25.4493 30.0887 25.4493 30.0887 25.4369 30.0887C25.2691 30.1508 25.0702 30.1819 24.8589 30.1819H24.8526C24.1566 30.1819 23.2554 29.8773 22.3479 29.4609C20.3218 28.5349 18.2024 27.0308 18.2024 27.0308C18.2024 27.0308 17.6369 27.4286 16.804 27.932C16.6424 28.0314 16.4746 28.1309 16.2944 28.2428C16.2944 28.2428 16.2882 28.2428 16.282 28.249C16.282 28.249 16.2695 28.2552 16.2509 28.2676C14.9271 29.0445 13.2117 29.9333 11.95 30.1384C11.95 30.1384 11.95 30.1384 11.9314 30.1384C11.8071 30.157 11.6765 30.1694 11.5584 30.1694C11.5336 30.1694 11.5087 30.1757 11.4839 30.1757C11.2601 30.1757 11.0612 30.1508 10.881 30.0887C10.7878 30.0514 10.707 30.0079 10.6324 29.9581C10.4708 29.84 10.3403 29.6722 10.2346 29.4609C9.54474 28.0563 10.0482 24.6877 10.4149 22.761C10.5702 21.9406 10.7008 21.3937 10.7008 21.3937C10.7008 21.3937 7.81071 19.1003 6.05183 16.8628C5.19414 15.769 4.6037 14.6937 4.77151 13.9231C5.03876 12.6676 7.35079 11.9901 9.51367 11.6297C11.1793 11.35 12.7455 11.263 13.2428 11.2443C13.3484 11.2381 13.4043 11.2381 13.4043 11.2381C13.4043 11.2381 14.6785 6.89372 16.2944 4.12798C17.0029 2.91603 17.7674 2.02726 18.4821 1.97754C18.5008 1.97754 18.5194 1.97754 18.5443 1.97754C18.6375 1.97754 18.7369 1.98997 18.8364 2.02726C21.1671 2.742 23.4232 11.2443 23.4232 11.2443C23.4232 11.2443 31.5277 11.4929 31.9876 13.9293C32.4289 16.291 25.8533 21.3999 25.8533 21.3999H25.8471Z" fill="url(#paint1_linear_192_4068)"/>
<path d="M21.8756 21.3999C21.8756 21.3999 23.3175 27.4596 22.3418 29.4671C22.2423 29.6847 22.1118 29.8525 21.944 29.9706C21.7451 30.1135 21.4903 30.1819 21.1919 30.1881C19.9054 30.2254 17.8233 29.1564 16.2944 28.2552C16.0085 28.0874 15.7413 27.9258 15.5051 27.7704C14.8276 27.3478 14.3801 27.037 14.3801 27.037C14.3801 27.037 12.2608 28.5411 10.2346 29.4734C9.63799 29.7406 9.04755 29.9643 8.51926 30.0824C8.05313 30.1943 7.6305 30.2254 7.28867 30.1384C7.27624 30.1384 7.27002 30.1384 7.25759 30.1322C7.12086 30.0949 6.99655 30.0451 6.8909 29.9706C5.20659 28.8021 6.65472 21.7417 6.72309 21.4123C6.72309 21.4061 6.72309 21.3999 6.72309 21.3999C6.7293 21.3999 0.153676 16.2848 0.588736 13.9293C1.05487 11.4867 9.15321 11.2443 9.15321 11.2443C9.15321 11.2443 11.6082 1.97754 14.0321 1.97754C14.7717 1.97754 15.561 2.88495 16.2882 4.12798C17.8979 6.89372 19.172 11.2381 19.172 11.2381C19.172 11.2381 20.1975 11.2692 21.54 11.4246C23.0689 11.5924 25.0143 11.9156 26.3319 12.5246C27.115 12.8851 27.6806 13.345 27.8049 13.9231C28.1467 15.5141 25.3064 18.3793 23.448 20.0512C22.5531 20.8592 21.8756 21.3937 21.8756 21.3937V21.3999Z" fill="url(#paint2_linear_192_4068)"/>
<g style="mix-blend-mode:soft-light">
<path d="M19.1719 11.2386C19.1719 11.2386 22.4784 11.1453 23.883 11.2634C29.3585 11.7233 30.8253 12.6308 31.248 13.2709C31.6644 13.8986 28.1528 13.3331 27.9042 13.3206C27.6556 13.3082 27.4878 12.4194 24.5356 12.0341C21.571 11.6488 19.1719 11.2448 19.1719 11.2448V11.2386Z" fill="white"/>
</g>
<g style="mix-blend-mode:multiply" opacity="0.3">
<path d="M25.847 21.4003C25.0887 21.6302 22.8264 21.4375 22.497 21.4003C22.1676 21.363 26.829 17.2734 27.7302 15.6264C28.6438 13.9483 31.3412 14.1347 31.7452 14.4269C32.1492 14.719 30.0236 17.5655 28.6065 19.0012C27.2143 20.412 25.847 21.394 25.847 21.394V21.4003Z" fill="#B30053"/>
</g>
<g style="mix-blend-mode:soft-light">
<path d="M25.0144 14.8553C24.2748 15.1661 23.4357 15.4582 22.5159 15.713C19.7004 16.5086 16.1392 17.0368 12.7333 17.1798C10.3466 17.2792 8.02217 17.186 6.05197 16.8628C3.85181 16.5086 2.07428 15.856 1.14822 14.8491C0.924473 14.6129 0.744233 14.2897 0.59507 13.9168C0.675867 13.5129 0.961764 13.1648 1.39682 12.8727C1.39682 12.8727 1.39682 12.8727 1.40304 12.8727C1.48384 12.8168 1.57706 12.7608 1.67651 12.7049C1.68894 12.6987 1.70137 12.6925 1.72001 12.6862C4.06934 11.3997 9.15333 11.2443 9.15333 11.2443C9.15333 11.2443 11.6083 1.97754 14.0322 1.97754C14.2373 1.97754 14.4486 2.04591 14.6599 2.18264C15.2069 2.51204 15.76 3.23921 16.2883 4.1342C17.898 6.89994 19.1721 11.2443 19.1721 11.2443C19.1721 11.2443 20.1976 11.2754 21.5401 11.4308C23.069 11.5986 25.0144 11.9218 26.332 12.5309C26.5371 13.5439 26.1828 14.3643 25.0144 14.8615V14.8553Z" fill="white"/>
</g>
<g style="mix-blend-mode:multiply" opacity="0.2">
<path d="M1.72621 15.8624C0.787725 16.2664 3.1992 18.4479 5.22534 19.6598C7.2204 20.8469 22.9261 17.3167 24.368 17.6337C25.8037 17.9507 28.1033 15.3465 27.6931 14.234C27.2767 13.1091 26.5868 12.9972 26.5868 13.1837C26.5868 13.3763 25.7229 15.0171 23.8211 15.4895C21.9254 15.9618 7.18933 17.0743 5.49881 17.2173C3.80829 17.3602 1.88159 15.794 1.73243 15.8562L1.72621 15.8624Z" fill="#DA0553"/>
</g>
<g style="mix-blend-mode:soft-light">
<path d="M7.30738 29.8464C5.87789 29.5232 6.06435 25.6512 6.95933 24.5884C7.87295 23.507 19.1224 23.6002 21.2852 24.259C23.4233 24.9116 22.491 29.3927 21.7389 29.8464C20.9931 30.3001 14.7345 26.5462 14.2248 26.658C13.7214 26.7699 10.0731 30.4741 7.30116 29.8464H7.30738Z" fill="white"/>
</g>
<path d="M19.9241 19.7842L19.0353 20.5052L19.2963 21.5245C19.8495 23.6811 20.1478 25.9186 20.0981 27.1616C20.0981 27.2921 20.0857 27.404 20.0732 27.5097C19.0353 27.1616 17.1645 26.1423 15.6045 25.036L14.7903 24.4518L14.3366 24.1286L13.0936 25.0298C11.919 25.8751 10.5641 26.6768 9.53234 27.1554C9.22158 27.3046 8.92947 27.4227 8.69329 27.5035C8.5317 26.3599 8.76787 23.8862 9.30238 21.5121L9.53855 20.4928L8.63114 19.7718C6.46827 18.0502 4.34269 15.8128 3.90141 14.8121C4.72803 14.3273 7.36946 13.8363 9.73744 13.7555L11.2664 13.7058L11.6641 12.3323C12.3229 9.99538 13.3236 7.52797 14.088 6.229C14.2496 6.49004 14.4237 6.8008 14.6039 7.14885C15.3124 8.52239 16.1017 10.4677 16.686 12.3323L17.1148 13.712L18.65 13.7618C21.0179 13.8363 23.678 14.3273 24.5108 14.8121C24.1006 15.8128 22.031 18.0502 19.9178 19.7718L19.9241 19.7842Z" fill="url(#paint3_linear_192_4068)"/>
<path d="M24.5171 14.8243C24.138 15.7379 22.3729 17.6957 20.4524 19.3365C20.2784 19.4856 20.0981 19.6348 19.9179 19.7777L19.0353 20.4987L19.2901 21.518C19.8433 23.6746 20.1354 25.9121 20.0919 27.1551C19.054 26.6766 17.6866 25.8748 16.4933 25.0295L15.2317 24.1284H14.3367L13.0936 25.0295C11.919 25.8748 10.5641 26.6766 9.53236 27.1551C9.52615 26.9998 9.51993 26.8257 9.51993 26.6393C9.51993 26.4217 9.52615 26.1918 9.54479 25.937C9.60695 24.8742 9.78719 23.5379 10.0731 22.1892C10.1166 21.9655 10.1663 21.7417 10.2222 21.518L10.4584 20.4987L9.55723 19.7777C7.40678 18.0562 5.29363 15.8187 4.85857 14.8181C5.68519 14.3333 8.33906 13.8423 10.7008 13.7615L12.236 13.7118L12.6337 12.3382C13.1744 10.4737 13.9265 8.52833 14.6101 7.15479C15.3187 8.53455 16.108 10.4799 16.686 12.3382L17.1148 13.718L18.65 13.7677C21.018 13.8423 23.678 14.3333 24.5171 14.8181V14.8243Z" fill="url(#paint4_linear_192_4068)"/>
<path d="M14.3367 24.1287C14.3367 24.1287 15.1944 24.1038 15.5362 24.3462C15.8718 24.5886 18.0658 26.0802 18.0595 26.3226C18.0595 26.565 15.7475 25.1604 14.3367 24.1287Z" fill="#FFE016"/>
<g style="mix-blend-mode:soft-light">
<path d="M8.69317 27.5094C8.3762 27.3913 9.02879 25.3403 9.26497 25.1663C9.50114 24.9923 9.43899 27.0308 9.53222 27.1614C9.53222 27.1614 8.96042 27.528 8.69317 27.5094Z" fill="white"/>
</g>
<g style="mix-blend-mode:multiply" opacity="0.5">
<path d="M9.53851 20.499H10.4521C10.4521 20.499 9.51365 23.2399 9.37692 23.9733C9.24018 24.7005 8.79269 23.1902 9.53851 20.499Z" fill="#D42F55"/>
</g>
<g style="mix-blend-mode:multiply" opacity="0.5">
<path d="M4.4482 15.6758C3.8702 14.6441 12.3539 15.017 12.3539 15.017C12.3539 15.017 14.0817 9.37986 15.362 8.76456C15.362 8.76456 14.2868 6.25365 14.0941 6.24121C13.9014 6.235 11.2724 13.718 11.2724 13.718C11.2724 13.718 7.49984 13.5751 3.90749 14.8181L4.45442 15.6696L4.4482 15.6758Z" fill="#D42F55"/>
</g>
<g style="mix-blend-mode:multiply" opacity="0.5">
<path d="M17.121 13.724C17.121 13.724 23.4978 14.8241 24.0944 15.4083L24.5171 14.8179C24.5171 14.8179 22.5593 13.8545 17.121 13.7178V13.724Z" fill="#D42F55"/>
</g>
<g style="mix-blend-mode:multiply" opacity="0.3">
<path d="M16.2695 2.67372C15.0638 2.67372 16.8102 4.74958 17.6617 6.68871C18.4883 8.58433 22.4474 8.60298 22.4474 8.60298C22.4474 8.60298 20.7631 3.71165 19.7127 3.12122C18.6561 2.53078 16.2757 2.66751 16.2757 2.66751L16.2695 2.67372Z" fill="#B30053"/>
</g>
<g style="mix-blend-mode:multiply" opacity="0.3">
<path d="M21.9005 30.294C21.6519 30.1075 22.4287 30.2318 22.7519 28.8583C23.0813 27.4599 26.0335 27.6152 26.3194 27.7768C26.6053 27.9322 26.1392 29.66 25.6731 29.9708C25.2069 30.2753 21.8942 30.294 21.8942 30.294H21.9005Z" fill="#B30053"/>
</g>
<g style="mix-blend-mode:soft-light">
<path d="M23.0379 27.677C22.7085 27.5651 22.7395 24.3643 22.752 23.7614C22.7644 23.1523 25.9714 23.4071 26.133 23.7614C26.2946 24.1157 26.4375 27.2916 26.2511 27.5029C26.0708 27.7142 23.2492 27.7515 23.0379 27.677Z" fill="white"/>
</g>
<g style="mix-blend-mode:soft-light" opacity="0.5">
<path d="M12.4784 29.9148C13.2118 29.7843 14.778 29.082 14.834 28.8645C14.8899 28.6469 13.0999 28.4605 12.6897 28.417C12.2796 28.3735 9.84943 29.803 9.66919 29.9086C9.48895 30.0205 12.4784 29.9086 12.4784 29.9086V29.9148Z" fill="white"/>
</g>
<g style="mix-blend-mode:multiply" opacity="0.5">
<path d="M14.4114 27.1551C14.0695 27.2731 12.8514 28.0314 12.8141 28.2303C12.7768 28.4292 14.6786 28.6591 14.9334 28.7026C15.182 28.7461 16.2759 28.2489 16.2759 28.2489C16.2759 28.2489 14.486 27.124 14.4114 27.1488V27.1551Z" fill="#D42F55"/>
</g>
<g style="mix-blend-mode:multiply" opacity="0.5">
<path d="M28.153 15.2407C27.9355 15.4831 26.7297 16.9312 26.7484 17.2979C26.767 17.6646 30.1418 17.2482 30.3469 16.9685C30.5583 16.6888 32.0685 14.6503 31.7391 14.4203C31.4159 14.1903 28.7807 14.5322 28.1468 15.2345L28.153 15.2407Z" fill="#D42F55"/>
</g>
<path d="M19.1719 11.2383C19.1719 11.2383 26.1577 11.9157 27.0962 13.3017C28.5257 15.4086 23.9887 19.5604 23.9887 19.5604C23.9887 19.5604 28.5133 15.5392 27.8856 13.5627C27.2454 11.5304 19.1719 11.2383 19.1719 11.2383Z" fill="#FFE016"/>
<path d="M27.2393 12.8169C26.7048 12.5683 27.5251 13.8797 27.4008 14.8306C27.2765 15.7753 27.954 14.5571 27.9416 13.917C27.9291 13.2644 27.2393 12.8169 27.2393 12.8169Z" fill="white"/>
<g style="mix-blend-mode:soft-light">
<path d="M15.1198 2.54314C13.7338 2.02728 14.5666 6.90617 16.0272 10.4177C17.4256 13.7801 18.824 12.4439 19.1099 11.5738C19.402 10.6912 16.2696 3.40705 15.1198 2.54314Z" fill="white"/>
</g>
<path d="M16.5494 5.68825C15.5425 5.56395 16.1267 8.6218 16.7482 9.69702C17.3635 10.7598 18.2523 10.0575 18.271 9.12523C18.2958 8.18053 16.9285 5.73797 16.5494 5.68825Z" fill="white"/>
<g style="mix-blend-mode:soft-light">
<path d="M14.9332 2.06483C14.4795 2.20157 16.2011 2.51854 17.5187 2.67392C18.8363 2.8293 19.1595 2.84173 19.147 2.50611C19.1346 2.16428 17.3695 1.32523 14.9269 2.06483H14.9332Z" fill="white"/>
</g>
<g style="mix-blend-mode:soft-light">
<path d="M21.8819 30.1881C21.7638 30.0701 25.2318 29.6163 25.5799 29.6847C25.9279 29.7469 25.1324 30.1198 25.1324 30.1198C25.1324 30.1198 22.8266 30.4989 21.8819 30.1881Z" fill="white"/>
</g>
<g style="mix-blend-mode:soft-light" opacity="0.5">
<path d="M19.2962 21.518C19.8493 23.6747 20.1414 25.9121 20.0979 27.1551C19.06 26.6766 17.6927 25.8748 16.4994 25.0296L15.2377 24.1284H14.3427L13.0997 25.0296C11.925 25.8748 10.5701 26.6766 9.5384 27.1551C9.53219 26.9998 9.52597 26.8257 9.52597 26.6393L9.83051 26.3472C9.71242 26.3285 9.61298 26.1794 9.55083 25.937C9.35195 25.2284 9.42653 23.6995 10.0791 22.1892C10.5763 21.0332 11.4154 19.8896 12.7143 19.15C16.3999 17.0555 20.4522 19.3303 20.4522 19.3303C20.2782 19.4794 20.0979 19.6286 19.9177 19.7715L19.0351 20.4925L19.29 21.5118L19.2962 21.518Z" fill="white"/>
</g>
<path d="M6.47447 28.9078C6.33773 28.0004 6.68578 27.3851 7.00897 27.4162C7.33216 27.4472 7.75479 29.5045 7.45646 29.7468C7.15813 29.9892 6.50554 29.144 6.47447 28.9016V28.9078Z" fill="white"/>
<g style="mix-blend-mode:multiply" opacity="0.8">
<path d="M16.2383 28.274C14.9145 29.0509 13.1991 29.9396 11.9375 30.1447C11.9375 30.1447 11.9375 30.1447 11.9188 30.1447C11.7945 30.1634 11.664 30.1758 11.5459 30.1758C11.5211 30.1758 11.4962 30.182 11.4713 30.182C10.508 30.269 8.28917 30.4306 7.28232 30.1323C7.26989 30.1323 7.26367 30.1323 7.25124 30.1261C7.11451 30.0888 6.99021 30.0391 6.88455 29.9645C5.20025 28.7961 6.64838 21.7357 6.71674 21.4062C6.67324 21.7232 5.8777 27.7457 6.58001 29.1938C6.67945 29.3927 6.84726 29.5543 7.07101 29.6786C7.43148 29.8899 7.94113 30.008 8.5067 30.0764C9.25252 30.1634 10.0978 30.151 10.8685 30.095C11.3781 30.0515 11.8567 29.9956 12.242 29.9334C12.5963 29.8775 12.876 29.8153 13.0375 29.7594C13.945 29.4673 15.9525 28.4232 16.2321 28.274H16.2383Z" fill="#D42F55"/>
</g>
<g style="mix-blend-mode:multiply" opacity="0.8">
<path d="M18.83 2.02133C18.83 2.02133 18.7368 2.00889 18.5628 1.98403C18.5379 1.98403 18.5069 1.98403 18.4758 1.9716C17.7673 1.89702 16.1016 1.78515 14.6597 2.17049C14.4297 2.22643 14.206 2.30101 13.9947 2.38802C13.9139 2.41909 13.8206 2.44396 13.7461 2.49368C10.2904 4.74356 9.50732 11.6237 9.50732 11.6237C9.50732 11.6237 3.29217 12.0526 1.71974 12.6741C4.06907 11.3876 9.15306 11.2322 9.15306 11.2322C9.15306 11.2322 11.608 1.96539 14.0319 1.96539C14.0319 1.96539 16.7604 1.38738 18.5379 1.96539C18.6312 1.96539 18.7306 1.97782 18.83 2.01511V2.02133Z" fill="#D42F55"/>
</g>
<path d="M26.0895 17.6337C26.077 16.7574 24.0385 18.4728 23.8955 18.8146C23.7526 19.1564 23.6469 19.6039 23.7401 19.7593C23.8396 19.9085 25.8906 19.4423 26.0895 17.6337Z" fill="#DC2C00"/>
<g style="mix-blend-mode:multiply" opacity="0.5">
<path d="M25.9092 17.447C25.3436 17.3911 24.6724 17.9815 24.6102 18.5968C24.5481 19.2059 25.1696 19.1997 25.6979 18.5968C26.2324 17.9878 26.0646 17.4657 25.9092 17.447Z" fill="#D42F55"/>
</g>
<path d="M23.9143 18.7646C23.9143 18.7646 23.8894 19.2619 24.0697 19.3924C24.368 19.5975 25.033 19.3364 25.033 19.3364C25.033 19.3364 24.2748 19.8709 23.7216 19.9145C23.1747 19.958 23.9143 18.7709 23.9143 18.7709V18.7646Z" fill="#FFBA00"/>
<path d="M23.566 19.8586C23.392 19.6349 24.4548 19.6224 24.548 19.5976C24.6413 19.5727 23.7525 20.0761 23.566 19.8586Z" fill="white"/>
<path d="M11.0488 29.0883C10.9121 29.0634 11.1918 28.4792 11.5212 28.3673C11.8506 28.2617 12.3105 28.2741 12.2919 28.4916C12.2732 28.7091 11.7139 29.1939 11.0488 29.0883Z" fill="#DC2C00"/>
<path d="M11.2974 28.5161C11.0487 29.0879 11.4341 29.0444 11.8194 28.9636C11.8194 28.9636 11.3906 29.1874 10.8064 29.1998C10.8064 29.1998 10.8685 28.8331 11.2974 28.5161Z" fill="#FFBA00"/>
<path d="M10.8623 29.1875C10.825 29.144 11.0736 28.9824 11.229 28.9824C11.3844 28.9824 11.5336 29.0446 11.5398 29.0694C11.5522 29.0943 11.1544 29.2372 10.8623 29.1875Z" fill="white"/>
<g style="mix-blend-mode:multiply" opacity="0.5">
<path d="M11.7451 28.3175C11.2292 28.5723 11.3846 28.9576 11.7948 28.9141C12.205 28.8768 12.3417 28.4666 12.2423 28.3796C12.1491 28.2926 11.7389 28.3112 11.7389 28.3112L11.7451 28.3175Z" fill="#D42F55"/>
</g>
<g style="mix-blend-mode:soft-light">
<path d="M7.66149 18.131C6.54276 17.5717 8.29543 19.517 8.78643 19.9086C9.27121 20.2939 9.53846 20.5052 9.53846 20.5052H10.4521C10.4521 20.5052 8.09033 18.3299 7.65527 18.1373L7.66149 18.131Z" fill="white"/>
</g>
<path d="M9.5385 20.4985C9.30854 20.3182 9.14073 19.7216 9.40798 19.7526C9.66902 19.7837 10.4583 20.4985 10.4583 20.4985H9.54471H9.5385Z" fill="white"/>
<path d="M14.3367 24.1284C14.3367 24.1284 15.2441 24.1284 15.5362 24.3397C15.8221 24.5448 16.425 25.1539 16.425 25.1539C16.425 25.1539 15.3311 24.8183 14.3429 24.1284H14.3367Z" fill="#FFE016"/>
<g style="mix-blend-mode:multiply" opacity="0.8">
<path d="M15.76 27.938C15.76 27.938 19.3337 29.585 21.1423 29.989C22.9385 30.393 25.2443 30.1444 25.2443 30.1444C25.2443 30.1444 22.9136 30.5546 20.8502 30.1879C18.7743 29.815 15.76 27.938 15.76 27.938Z" fill="#D42F55"/>
</g>
<path d="M0.738007 13.9916C0.930676 14.9673 2.26072 13.6746 2.55283 13.109C2.84494 12.5496 0.800158 12.5683 0.738007 13.9916Z" fill="white"/>
<path d="M19.0354 20.4991C19.0354 20.4991 23.4606 17.4661 24.5109 14.8247C24.5109 14.8247 22.3978 18.2679 19.0354 20.4991Z" fill="#FFE016"/>
<g style="mix-blend-mode:multiply" opacity="0.3">
<path d="M10.7755 19.7715C10.3528 19.815 8.33292 18.1058 8.01595 17.3041C7.70519 16.5023 10.4771 17.3227 14.7407 17.0866C19.0043 16.8504 23.7962 14.8802 23.7216 15.135C23.647 15.3898 21.018 18.3917 20.3592 18.5285C19.7004 18.6714 18.2834 17.6956 15.2877 17.7764C12.2858 17.8572 11.3535 19.7093 10.7755 19.7715Z" fill="#B30053"/>
</g>
</g>
<defs>
<linearGradient id="paint0_linear_192_4068" x1="18.9544" y1="32.4503" x2="8.5813" y2="3.95388" gradientUnits="userSpaceOnUse">
<stop stop-color="#FF5900"/>
<stop offset="0.23" stop-color="#FE6800"/>
<stop offset="0.66" stop-color="#FA9300"/>
<stop offset="0.85" stop-color="#F66A00"/>
<stop offset="1" stop-color="#F63F00"/>
</linearGradient>
<linearGradient id="paint1_linear_192_4068" x1="24.2933" y1="30.5113" x2="14.4298" y2="3.40702" gradientUnits="userSpaceOnUse">
<stop stop-color="#FF5900"/>
<stop offset="0.23" stop-color="#FE6800"/>
<stop offset="0.66" stop-color="#FA9300"/>
<stop offset="0.85" stop-color="#F66A00"/>
<stop offset="1" stop-color="#F63F00"/>
</linearGradient>
<linearGradient id="paint2_linear_192_4068" x1="20.1789" y1="30.648" x2="10.2222" y2="3.29515" gradientUnits="userSpaceOnUse">
<stop stop-color="#FFEA34"/>
<stop offset="0.63" stop-color="#FF8100"/>
<stop offset="0.7" stop-color="#FFA400"/>
<stop offset="1" stop-color="#FFBA00"/>
</linearGradient>
<linearGradient id="paint3_linear_192_4068" x1="18.9731" y1="27.9074" x2="11.4342" y2="7.211" gradientUnits="userSpaceOnUse">
<stop stop-color="#FFBA00"/>
<stop offset="0.21" stop-color="#FE6800"/>
<stop offset="1" stop-color="#D41B00"/>
</linearGradient>
<linearGradient id="paint4_linear_192_4068" x1="19.2839" y1="27.4535" x2="12.2173" y2="8.03112" gradientUnits="userSpaceOnUse">
<stop offset="0.04" stop-color="#FF9000"/>
<stop offset="1" stop-color="#E13E00"/>
</linearGradient>
<clipPath id="clip0_192_4068">
<rect width="31.43" height="28.627" fill="white" transform="translate(0.57 1.71631)"/>
</clipPath>
</defs>
</svg>
