<svg width="32" height="39" viewBox="0 0 32 39" fill="none" xmlns="http://www.w3.org/2000/svg">
<g clip-path="url(#clip0_168_495)">
<path style="mix-blend-mode:screen" opacity="0.5" d="M15.9973 35.4933C24.8323 35.4933 31.9946 28.3311 31.9946 19.4961C31.9946 10.661 24.8323 3.49878 15.9973 3.49878C7.16222 3.49878 0 10.661 0 19.4961C0 28.3311 7.16222 35.4933 15.9973 35.4933Z" fill="url(#paint0_radial_168_495)"/>
<path fill-rule="evenodd" clip-rule="evenodd" d="M4.16136 15.9884C4.28119 15.9448 9.58094 18.7553 12.5059 17.0178C14.3088 19.093 15.7031 20.8632 15.7031 20.8632L15.5016 25.9996L7.53838 23.9897L4.16136 15.9829V15.9884Z" fill="url(#paint1_linear_168_495)"/>
<path fill-rule="evenodd" clip-rule="evenodd" d="M15.7031 20.8578L15.5016 25.9995L7.53838 23.9951L4.16136 15.9883C4.22672 15.9611 5.73004 16.7345 7.56562 17.2138C7.56562 17.2138 7.56562 17.2138 7.57651 17.2138C9.11251 17.6169 10.8882 17.813 12.2335 17.1594C12.3261 17.1158 12.4133 17.0668 12.5004 17.0178C14.3033 19.0984 15.6977 20.8632 15.6977 20.8632L15.7031 20.8578Z" fill="url(#paint2_linear_168_495)"/>
<path style="mix-blend-mode:multiply" opacity="0.5" fill-rule="evenodd" clip-rule="evenodd" d="M15.7031 20.8578L15.5016 25.9996L7.53838 23.9952L4.16136 15.9883C4.16136 15.9883 4.50996 16.1245 5.01651 16.3369C5.08732 16.3696 5.15813 16.3969 5.23438 16.4295C5.56119 16.5603 5.94791 16.7128 6.37821 16.8598C6.39455 16.898 6.75404 17.3609 7.90877 17.7694C8.95455 18.1453 10.6431 17.9655 11.3457 17.459C11.6344 17.3991 11.9067 17.3174 12.1627 17.1921C12.19 17.1812 12.2172 17.1703 12.239 17.1594C12.3316 17.1158 12.4187 17.0668 12.5059 17.0178C14.3088 19.0985 15.7031 20.8632 15.7031 20.8632V20.8578Z" fill="url(#paint3_linear_168_495)"/>
<path fill-rule="evenodd" clip-rule="evenodd" d="M4.21039 15.9883C4.21039 15.9883 7.16801 17.9002 9.1452 18.2106C10.9971 18.5048 11.4165 17.6605 11.4165 17.6605C11.4165 17.6605 11.2803 18.7172 10.7411 18.9841C10.2019 19.251 9.00903 19.1148 7.47303 18.7172C5.93703 18.3196 4.20494 15.9883 4.20494 15.9883H4.21039Z" fill="url(#paint4_linear_168_495)"/>
<path fill-rule="evenodd" clip-rule="evenodd" d="M27.0053 15.9884C26.8855 15.9448 21.5857 18.7553 18.6608 17.0178C16.8579 19.093 15.4635 20.8632 15.4635 20.8632L15.665 25.9996L23.6283 23.9897L27.0053 15.9829V15.9884Z" fill="url(#paint5_linear_168_495)"/>
<path fill-rule="evenodd" clip-rule="evenodd" d="M15.4635 20.8578L15.665 25.9995L23.6283 23.9951L27.0053 15.9883C26.9399 15.9611 25.4366 16.7345 23.601 17.2138C23.601 17.2138 23.601 17.2138 23.5901 17.2138C22.0541 17.6169 20.2785 17.813 18.9331 17.1594C18.8405 17.1158 18.7534 17.0668 18.6662 17.0178C16.8633 19.0984 15.4689 20.8632 15.4689 20.8632L15.4635 20.8578Z" fill="url(#paint6_linear_168_495)"/>
<path style="mix-blend-mode:multiply" opacity="0.5" fill-rule="evenodd" clip-rule="evenodd" d="M15.4635 20.8578L15.665 25.9996L23.6283 23.9952L27.0053 15.9883C27.0053 15.9883 26.6567 16.1245 26.1501 16.3369C26.0793 16.3696 26.0085 16.3969 25.9323 16.4295C25.6055 16.5603 25.2187 16.7128 24.7884 16.8598C24.7721 16.898 24.4126 17.3609 23.2579 17.7694C22.2121 18.1453 20.5236 17.9655 19.8209 17.459C19.5323 17.3991 19.2599 17.3174 19.0039 17.1921C18.9767 17.1812 18.9495 17.1703 18.9277 17.1594C18.8351 17.1158 18.7479 17.0668 18.6608 17.0178C16.8579 19.0985 15.4635 20.8632 15.4635 20.8632V20.8578Z" fill="url(#paint7_linear_168_495)"/>
<path fill-rule="evenodd" clip-rule="evenodd" d="M26.9563 15.9883C26.9563 15.9883 23.9986 17.9002 22.0215 18.2106C20.1695 18.5048 19.7501 17.6605 19.7501 17.6605C19.7501 17.6605 19.8863 18.7172 20.4255 18.9841C20.9648 19.251 22.1576 19.1148 23.6936 18.7172C25.2296 18.3196 26.9617 15.9883 26.9617 15.9883H26.9563Z" fill="url(#paint8_linear_168_495)"/>
<path style="mix-blend-mode:screen" fill-rule="evenodd" clip-rule="evenodd" d="M26.9563 15.9883C26.9563 15.9883 23.9986 17.9002 22.0215 18.2106C20.1695 18.5048 19.7501 17.6605 19.7501 17.6605C19.7501 17.6605 19.8863 18.7172 20.4255 18.9841C20.9648 19.251 22.1576 19.1148 23.6936 18.7172C25.2296 18.3196 26.9617 15.9883 26.9617 15.9883H26.9563Z" fill="url(#paint9_radial_168_495)"/>
<path fill-rule="evenodd" clip-rule="evenodd" d="M15.6051 28.2001C15.6051 28.2001 15.6051 28.2001 15.6051 28.2055V28.2001H8.16476L8.32817 29.2459C8.51881 29.8178 11.4819 30.1609 15.5997 30.1609C19.7174 30.1609 22.6805 29.8178 22.8711 29.2459L23.0346 28.2001H15.6051Z" fill="url(#paint10_radial_168_495)"/>
<path style="mix-blend-mode:multiply" opacity="0.5" fill-rule="evenodd" clip-rule="evenodd" d="M15.6051 28.2001C15.6051 28.2001 15.6051 28.2001 15.6051 28.2055V28.2001H9.09618C10.7629 28.4397 12.4187 29.0988 13.7532 30.1391C14.336 30.1555 14.9569 30.1664 15.6051 30.1664C19.7229 30.1664 22.686 29.8232 22.8766 29.2513L23.04 28.2055H15.6106L15.6051 28.2001Z" fill="url(#paint11_linear_168_495)"/>
<path fill-rule="evenodd" clip-rule="evenodd" d="M4.32477 16.0809C4.32477 16.0809 8.04494 19.2074 10.8446 18.9677C12.4678 18.8316 13.2031 14.4033 13.2031 14.4033C13.2031 14.4033 12.6475 18.178 11.6616 19.4525C10.6758 20.7216 5.27252 20.2369 4.64613 19.093C4.01975 17.9492 4.32477 16.0864 4.32477 16.0864V16.0809Z" fill="url(#paint12_linear_168_495)"/>
<path fill-rule="evenodd" clip-rule="evenodd" d="M28.002 15.9502C27.7678 15.6234 27.3593 15.6507 26.7547 16.179C25.4257 17.3501 21.9125 19.044 20.5236 18.4067C18.8133 17.6224 16.9668 9.38682 16.7108 8.23755C16.4603 7.13729 15.6214 6.63618 15.5942 6.63074C15.5724 6.63618 14.7336 7.13729 14.4776 8.23755C14.2271 9.38682 12.3806 17.6224 10.6649 18.4067C9.27592 19.044 5.76273 17.3501 4.43371 16.179C3.83456 15.6507 3.4206 15.6234 3.18639 15.9502C3.01209 16.1953 3.12102 16.6801 3.24085 16.9797L8.15388 28.2001C8.20834 28.3472 8.48068 28.4779 8.91643 28.5923C10.1801 28.93 12.7891 29.0934 15.4254 29.0934C15.4744 29.0934 15.5289 29.0934 15.5779 29.0934H15.5997C15.6487 29.0934 15.7032 29.0934 15.7522 29.0934C18.3884 29.0934 20.9974 28.9245 22.2611 28.5923C22.6969 28.4779 22.9692 28.3526 23.0237 28.2001L27.9367 16.9797C28.0565 16.6801 28.1709 16.1953 27.9912 15.9502H28.002Z" fill="url(#paint13_radial_168_495)"/>
<path style="mix-blend-mode:multiply" opacity="0.5" fill-rule="evenodd" clip-rule="evenodd" d="M28.002 15.9502C27.7678 15.6234 27.3593 15.6507 26.7547 16.179C25.4257 17.3501 21.9125 19.044 20.5236 18.4067C18.8133 17.6224 16.9668 9.38682 16.7108 8.23755C16.4603 7.13729 15.6214 6.63618 15.5942 6.63074C15.5724 6.63618 14.7336 7.13729 14.4776 8.23755C14.2271 9.38682 12.3806 17.6224 10.6649 18.4067C9.27592 19.044 5.76273 17.3501 4.43371 16.179C3.83456 15.6507 3.4206 15.6234 3.18639 15.9502C3.01209 16.1953 3.12102 16.6801 3.24085 16.9797L8.15388 28.2001C8.20834 28.3472 8.48068 28.4779 8.91643 28.5923C10.1801 28.93 12.7891 29.0934 15.4254 29.0934C15.4744 29.0934 15.5289 29.0934 15.5779 29.0934H15.5997C15.6487 29.0934 15.7032 29.0934 15.7522 29.0934C18.3884 29.0934 20.9974 28.9245 22.2611 28.5923C22.6969 28.4779 22.9692 28.3526 23.0237 28.2001L27.9367 16.9797C28.0565 16.6801 28.1709 16.1953 27.9912 15.9502H28.002Z" fill="url(#paint14_linear_168_495)"/>
<path style="mix-blend-mode:screen" opacity="0.5" d="M15.518 35.2864C19.9972 35.2864 23.6283 29.5971 23.6283 22.579C23.6283 15.5609 19.9972 9.87158 15.518 9.87158C11.0388 9.87158 7.40767 15.5609 7.40767 22.579C7.40767 29.5971 11.0388 35.2864 15.518 35.2864Z" fill="url(#paint15_radial_168_495)"/>
<path style="mix-blend-mode:screen" d="M11.5581 29.0607L11.5309 30.0302C10.7357 29.9594 10.0711 29.8832 9.5537 29.7742L9.54281 28.7393C9.54281 28.7393 9.54281 28.7393 9.54281 28.7284C9.52102 28.674 9.45566 28.4888 9.35217 28.2001C8.81838 26.6695 6.25838 19.2673 5.45226 16.9143C6.8194 17.7858 7.96868 18.1671 9.06349 18.4503C9.08528 18.5375 10.801 26.8003 11.2803 28.2055C11.4002 28.5596 11.4873 28.8319 11.5309 28.9626C11.5581 29.028 11.5636 29.0661 11.5636 29.0661L11.5581 29.0607Z" fill="url(#paint16_radial_168_495)"/>
<path style="mix-blend-mode:multiply" opacity="0.5" fill-rule="evenodd" clip-rule="evenodd" d="M19.8264 24.4363L18.1651 27.6445L15.7195 28.4724L15.5833 16.326L15.5997 6.63617C15.5997 6.63617 15.6378 6.65796 15.6977 6.69064C15.7304 6.71787 15.774 6.75055 15.8175 6.79413C15.872 6.83225 15.9265 6.88672 15.9809 6.93574C16.2478 7.19719 16.5746 7.62204 16.7163 8.24298C16.7163 8.25932 16.7163 8.27566 16.7326 8.292C17.0213 9.61013 18.8405 17.6442 20.529 18.4176C20.7251 18.5102 20.9702 18.5483 21.248 18.5538C20.3929 21.1192 19.6358 24.6433 19.8318 24.4418L19.8264 24.4363Z" fill="url(#paint17_linear_168_495)"/>
<path d="M22.6478 28.4343C22.5008 28.4779 22.3483 28.516 22.1903 28.5378C21.8798 28.5922 21.5694 28.6249 21.2589 28.6467C20.6325 28.7012 20.0061 28.7339 19.3797 28.7556C18.1215 28.7992 16.8633 28.821 15.6051 28.821C14.3469 28.8265 13.0887 28.8101 11.8305 28.7665C11.2041 28.7393 10.5723 28.7121 9.95132 28.6522C9.64085 28.6249 9.32494 28.5922 9.01991 28.5378C8.8674 28.5105 8.71489 28.4779 8.56783 28.4288C8.42077 28.3798 8.26825 28.3308 8.17566 28.2001C8.34451 28.4888 8.69855 28.5759 8.98723 28.6794C9.29225 28.7774 9.60272 28.8537 9.91864 28.9191C10.545 29.0443 11.1769 29.126 11.8087 29.1914C13.0723 29.3221 14.3414 29.3657 15.6106 29.3711C16.8797 29.3657 18.1488 29.3167 19.4124 29.1859C20.0443 29.1206 20.6761 29.0389 21.3025 28.9136C21.6129 28.8482 21.9289 28.7774 22.2339 28.6794C22.3864 28.6304 22.5389 28.5759 22.686 28.5105C22.8221 28.4343 22.991 28.358 23.0454 28.2001C22.9637 28.3417 22.8003 28.3853 22.6587 28.4343H22.6478Z" fill="url(#paint18_radial_168_495)"/>
<path d="M22.6478 28.4343C22.5008 28.4779 22.3483 28.516 22.1903 28.5378C21.8798 28.5922 21.5694 28.6249 21.2589 28.6467C20.6325 28.7012 20.0061 28.7339 19.3797 28.7556C18.1215 28.7992 16.8633 28.821 15.6051 28.821C14.3469 28.8265 13.0887 28.8101 11.8305 28.7665C11.2041 28.7393 10.5723 28.7121 9.95132 28.6522C9.64085 28.6249 9.32494 28.5922 9.01991 28.5378C8.8674 28.5105 8.71489 28.4779 8.56783 28.4288C8.42077 28.3798 8.26825 28.3308 8.17566 28.2001C8.34451 28.4888 8.69855 28.5759 8.98723 28.6794C9.29225 28.7774 9.60272 28.8537 9.91864 28.9191C10.545 29.0443 11.1769 29.126 11.8087 29.1914C13.0723 29.3221 14.3414 29.3657 15.6106 29.3711C16.8797 29.3657 18.1488 29.3167 19.4124 29.1859C20.0443 29.1206 20.6761 29.0389 21.3025 28.9136C21.6129 28.8482 21.9289 28.7774 22.2339 28.6794C22.3864 28.6304 22.5389 28.5759 22.686 28.5105C22.8221 28.4343 22.991 28.358 23.0454 28.2001C22.9637 28.3417 22.8003 28.3853 22.6587 28.4343H22.6478Z" fill="url(#paint19_radial_168_495)"/>
<path style="mix-blend-mode:multiply" opacity="0.5" d="M15.5343 29.1914C11.9884 29.1914 9.984 28.9136 9.00357 28.6358C8.29004 28.4343 8.17021 28.2055 8.16476 28.2001C8.33362 28.4888 9.15064 29.5345 15.5452 29.5345C21.9397 29.5345 22.9746 28.4125 23.0291 28.211C23.0128 28.2436 22.833 28.4288 22.4899 28.5541C21.6892 28.8482 19.8046 29.1914 15.5343 29.1914Z" fill="url(#paint20_linear_168_495)"/>
<path style="mix-blend-mode:screen" fill-rule="evenodd" clip-rule="evenodd" d="M15.5997 6.64705C15.0604 7.4913 14.6846 9.04364 13.9711 11.7071C13.1486 14.7628 12.4569 18.5592 11.106 19.2292C8.32818 20.3512 3.5132 15.7922 3.5023 15.7541C3.56767 15.7432 3.63303 15.7432 3.70928 15.7541C3.91081 15.7922 4.15047 15.9284 4.43371 16.179C5.76273 17.35 9.27592 19.044 10.6649 18.4067C11.6072 17.9764 12.593 15.2693 13.3229 12.742C13.9275 10.6886 14.3578 8.75496 14.4667 8.23752C14.592 7.68739 14.8643 7.28977 15.1095 7.02832C15.3219 6.79411 15.5125 6.66339 15.567 6.6416C15.5779 6.6416 15.5833 6.6525 15.5833 6.6416L15.5997 6.64705Z" fill="url(#paint21_radial_168_495)"/>
<path style="mix-blend-mode:screen" opacity="0.65" fill-rule="evenodd" clip-rule="evenodd" d="M15.4962 6.69604C15.3872 7.03919 14.9733 7.76907 14.6846 9.02183C14.1672 11.255 13.1813 14.4251 12.1246 16.2552C12.5658 15.2257 12.9798 13.9675 13.3283 12.7474C13.9329 10.694 14.3632 8.76039 14.4722 8.24294C14.5975 7.69281 14.8698 7.29519 15.1149 7.03375C15.262 6.87034 15.4036 6.76141 15.4907 6.69604H15.4962Z" fill="url(#paint22_radial_168_495)"/>
<path style="mix-blend-mode:multiply" opacity="0.5" fill-rule="evenodd" clip-rule="evenodd" d="M27.2068 17.5624C26.5968 17.2901 21.4277 19.8392 20.7088 20.727C19.9898 21.6149 19.1183 28.1456 19.5323 28.456C19.9408 28.7665 22.5607 28.456 22.833 28.0475C23.1054 27.639 27.3648 17.6332 27.2123 17.5624H27.2068Z" fill="url(#paint23_linear_168_495)"/>
<path style="mix-blend-mode:screen" opacity="0.65" d="M10.082 28.8428C10.082 28.8428 11.7597 29.1914 15.5343 29.1914C19.3089 29.1914 20.7796 28.9299 20.7796 28.9299C20.7796 28.9299 16.9505 29.0661 15.4798 29.0171C14.0092 28.968 10.082 28.8428 10.082 28.8428Z" fill="url(#paint24_radial_168_495)"/>
<path fill-rule="evenodd" clip-rule="evenodd" d="M19.2163 24.0932L15.5997 15.8903L11.9775 24.0932L13.2575 27.029L15.5997 28.0694L17.9363 27.029L19.2163 24.0932Z" fill="url(#paint25_linear_168_495)"/>
<path fill-rule="evenodd" clip-rule="evenodd" d="M19.5268 24.1695L15.5997 15.3293L11.6725 24.1695L13.0615 27.1489L15.5997 28.211L18.1324 27.1489L19.5268 24.1695Z" fill="url(#paint26_linear_168_495)"/>
<path style="mix-blend-mode:multiply" opacity="0.8" fill-rule="evenodd" clip-rule="evenodd" d="M19.5268 24.1695L15.5997 15.3293L11.6725 24.1695L11.6943 24.2021H19.4996L19.5268 24.1695Z" fill="url(#paint27_linear_168_495)"/>
<path style="mix-blend-mode:screen" fill-rule="evenodd" clip-rule="evenodd" d="M11.6943 24.2021L13.0615 27.1489L15.5997 28.211L18.1324 27.1489L19.4996 24.2021H11.6943Z" fill="url(#paint28_radial_168_495)"/>
<path fill-rule="evenodd" clip-rule="evenodd" d="M19.2163 24.0932L15.5997 15.8903L11.9775 24.0932L13.2575 27.029L15.5997 28.0694L17.9363 27.029L19.2163 24.0932Z" fill="url(#paint29_linear_168_495)"/>
<path style="mix-blend-mode:multiply" opacity="0.5" fill-rule="evenodd" clip-rule="evenodd" d="M19.2163 24.0932L15.5997 15.8903V18.2488L17.7457 24.0769L16.8415 26.6423L15.5234 27.0454L14.3142 26.6096L13.2575 27.029L15.5997 28.0694L17.9363 27.029L19.2163 24.0932Z" fill="url(#paint30_linear_168_495)"/>
<path style="mix-blend-mode:multiply" opacity="0.8" d="M19.2109 24.0932L17.7403 24.0768L16.8415 26.6423L17.9309 27.029L19.2109 24.0932Z" fill="url(#paint31_linear_168_495)"/>
<path style="mix-blend-mode:color-dodge" fill-rule="evenodd" clip-rule="evenodd" d="M15.5997 18.2488L13.41 24.1259L14.3142 26.6096L15.5234 27.0454L16.8415 26.6423L17.7457 24.0769L15.5997 18.2488Z" fill="url(#paint32_linear_168_495)"/>
<path opacity="0.75" fill-rule="evenodd" clip-rule="evenodd" d="M11.9775 24.0932L13.4101 24.1259L15.5997 18.2488V15.8903L11.9775 24.0932Z" fill="white"/>
<path fill-rule="evenodd" clip-rule="evenodd" d="M14.3142 26.6096L15.5234 27.0454L15.9265 26.9255L14.3142 26.6096Z" fill="white"/>
<path fill-rule="evenodd" clip-rule="evenodd" d="M12.6039 24.1205L13.41 24.1259L14.238 21.9581L12.6039 24.1205Z" fill="white"/>
<path fill-rule="evenodd" clip-rule="evenodd" d="M15.5997 15.8903L14.3687 18.9787L15.5833 18.3087L15.5997 15.8903Z" fill="white"/>
<path style="mix-blend-mode:multiply" opacity="0.8" d="M15.5234 27.0454L15.5997 28.0748C15.5997 28.0748 13.2739 27.0454 13.263 27.029C13.2521 27.0127 14.3197 26.6096 14.3197 26.6096L15.5288 27.0454H15.5234Z" fill="url(#paint33_linear_168_495)"/>
<path style="mix-blend-mode:screen" fill-rule="evenodd" clip-rule="evenodd" d="M15.5942 6.63617C14.6247 16.4622 12.1028 18.0091 10.8065 18.3305C11.7052 17.7259 12.6366 15.1604 13.3338 12.742C13.9384 10.6886 14.3687 8.75498 14.4776 8.23753C14.6029 7.6874 14.8752 7.28979 15.1203 7.02834C15.3328 6.79413 15.5234 6.6634 15.5779 6.64162H15.5888L15.5942 6.63617Z" fill="url(#paint34_radial_168_495)"/>
<path style="mix-blend-mode:screen" opacity="0.65" fill-rule="evenodd" clip-rule="evenodd" d="M13.3338 12.7475C12.9961 14.8227 12.2499 18.1725 10.85 18.9678C9.10162 19.9591 4.96204 16.7727 3.71472 15.7596C3.91625 15.7977 4.15591 15.9339 4.43915 16.1844C5.76817 17.3555 9.28136 19.0495 10.6703 18.4122C11.6126 17.9819 12.5985 15.2748 13.3283 12.7475H13.3338Z" fill="url(#paint35_radial_168_495)"/>
<path style="mix-blend-mode:multiply" opacity="0.5" fill-rule="evenodd" clip-rule="evenodd" d="M15.9428 7.42051C15.8066 7.38783 15.8066 15.2149 16.1117 15.9284C16.4167 16.642 17.7457 20.0789 18.1869 19.9427C18.6281 19.8066 19.5159 18.5157 19.4124 18.276C19.3089 18.0363 16.079 7.45319 15.9428 7.42051Z" fill="url(#paint36_linear_168_495)"/>
<path style="mix-blend-mode:screen" fill-rule="evenodd" clip-rule="evenodd" d="M11.8632 18.1398C11.8632 18.1398 13.0887 19.8065 13.3937 19.7031C13.6987 19.5996 15.1312 16.2334 15.2293 15.8903C15.3328 15.5526 15.774 7.18084 15.4308 7.31701C15.0931 7.45318 14.0038 12.5242 13.6933 13.1723C13.3828 13.8205 11.6181 17.8021 11.8577 18.1398H11.8632Z" fill="url(#paint37_radial_168_495)"/>
<path style="mix-blend-mode:screen" fill-rule="evenodd" clip-rule="evenodd" d="M17.566 7.0719C18.7043 11.9141 18.7479 19.9699 17.6695 25.0627C16.5855 30.1555 14.7881 30.357 13.6497 25.5148C12.5113 20.6726 12.4678 12.6168 13.5462 7.52399C14.6301 2.43122 16.4276 2.22969 17.566 7.0719Z" fill="url(#paint38_radial_168_495)"/>
<path style="mix-blend-mode:multiply" d="M15.8883 41.5012C22.4432 41.5012 27.7569 40.5818 27.7569 39.4477C27.7569 38.3136 22.4432 37.3943 15.8883 37.3943C9.3335 37.3943 4.01974 38.3136 4.01974 39.4477C4.01974 40.5818 9.3335 41.5012 15.8883 41.5012Z" fill="url(#paint39_radial_168_495)"/>
</g>
<defs>
<radialGradient id="paint0_radial_168_495" cx="0" cy="0" r="1" gradientUnits="userSpaceOnUse" gradientTransform="translate(15.9973 19.4961) scale(15.9973)">
<stop offset="0.33" stop-color="#B41E87"/>
<stop offset="0.38" stop-color="#A21B79"/>
<stop offset="0.54" stop-color="#69114E"/>
<stop offset="0.68" stop-color="#3B092C"/>
<stop offset="0.82" stop-color="#1B0414"/>
<stop offset="0.92" stop-color="#070105"/>
<stop offset="1"/>
</radialGradient>
<linearGradient id="paint1_linear_168_495" x1="10.0766" y1="20.0244" x2="9.54281" y2="14.0929" gradientUnits="userSpaceOnUse">
<stop stop-color="#F63F00"/>
<stop offset="0.55" stop-color="#F66A00"/>
<stop offset="1" stop-color="#FA9300"/>
</linearGradient>
<linearGradient id="paint2_linear_168_495" x1="10.0766" y1="20.0244" x2="9.54281" y2="14.0928" gradientUnits="userSpaceOnUse">
<stop stop-color="#F63F00"/>
<stop offset="0.55" stop-color="#F66A00"/>
<stop offset="1" stop-color="#FA9300"/>
</linearGradient>
<linearGradient id="paint3_linear_168_495" x1="10.3326" y1="18.9024" x2="9.43932" y2="22.6389" gradientUnits="userSpaceOnUse">
<stop stop-color="#DE376D"/>
<stop offset="0.99" stop-color="white"/>
</linearGradient>
<linearGradient id="paint4_linear_168_495" x1="7.26605" y1="19.2673" x2="7.57107" y2="17.922" gradientUnits="userSpaceOnUse">
<stop stop-color="#F63F00"/>
<stop offset="0.55" stop-color="#F66A00"/>
<stop offset="1" stop-color="#FA9300"/>
</linearGradient>
<linearGradient id="paint5_linear_168_495" x1="21.0901" y1="20.0244" x2="21.6238" y2="14.0929" gradientUnits="userSpaceOnUse">
<stop stop-color="#F63F00"/>
<stop offset="0.55" stop-color="#F66A00"/>
<stop offset="1" stop-color="#FA9300"/>
</linearGradient>
<linearGradient id="paint6_linear_168_495" x1="21.0901" y1="20.0244" x2="21.6238" y2="14.0928" gradientUnits="userSpaceOnUse">
<stop stop-color="#F63F00"/>
<stop offset="0.55" stop-color="#F66A00"/>
<stop offset="1" stop-color="#FA9300"/>
</linearGradient>
<linearGradient id="paint7_linear_168_495" x1="20.8341" y1="3.49881" x2="21.7273" y2="3.49881" gradientUnits="userSpaceOnUse">
<stop stop-color="#DE376D"/>
<stop offset="0.99" stop-color="white"/>
</linearGradient>
<linearGradient id="paint8_linear_168_495" x1="23.4213" y1="17.301" x2="23.8407" y2="20.1007" gradientUnits="userSpaceOnUse">
<stop stop-color="#F63F00"/>
<stop offset="0.55" stop-color="#F66A00"/>
<stop offset="1" stop-color="#FA9300"/>
</linearGradient>
<radialGradient id="paint9_radial_168_495" cx="0" cy="0" r="1" gradientUnits="userSpaceOnUse" gradientTransform="translate(24.9627 15.8957) scale(3.05566)">
<stop stop-color="#FFF261"/>
<stop offset="0.11" stop-color="#FAED5F"/>
<stop offset="0.23" stop-color="#ECE05A"/>
<stop offset="0.36" stop-color="#D6CB51"/>
<stop offset="0.5" stop-color="#B6AD45"/>
<stop offset="0.64" stop-color="#8E8636"/>
<stop offset="0.78" stop-color="#5C5723"/>
<stop offset="0.92" stop-color="#22210D"/>
<stop offset="1"/>
</radialGradient>
<radialGradient id="paint10_radial_168_495" cx="0" cy="0" r="1" gradientUnits="userSpaceOnUse" gradientTransform="translate(15.5997 -2.29515) scale(12.6529 2.151)">
<stop stop-color="#F63F00"/>
<stop offset="0.55" stop-color="#F66A00"/>
<stop offset="1" stop-color="#FA9300"/>
</radialGradient>
<linearGradient id="paint11_linear_168_495" x1="16.7163" y1="29.2186" x2="19.5595" y2="33.6305" gradientUnits="userSpaceOnUse">
<stop stop-color="#DE376D"/>
<stop offset="0.99" stop-color="white"/>
</linearGradient>
<linearGradient id="paint12_linear_168_495" x1="0.789793" y1="22.6988" x2="11.3348" y2="15.5199" gradientUnits="userSpaceOnUse">
<stop stop-color="#F63F00"/>
<stop offset="0.55" stop-color="#F66A00"/>
<stop offset="1" stop-color="#FA9300"/>
</linearGradient>
<radialGradient id="paint13_radial_168_495" cx="0" cy="0" r="1" gradientUnits="userSpaceOnUse" gradientTransform="translate(8.91643 16.3533) scale(12.8817)">
<stop stop-color="#FCF800"/>
<stop offset="1" stop-color="#FC9700"/>
</radialGradient>
<linearGradient id="paint14_linear_168_495" x1="6.44358" y1="28.3199" x2="11.3403" y2="23.7392" gradientUnits="userSpaceOnUse">
<stop stop-color="#DE376D"/>
<stop offset="0.99" stop-color="white"/>
</linearGradient>
<radialGradient id="paint15_radial_168_495" cx="0" cy="0" r="1" gradientUnits="userSpaceOnUse" gradientTransform="translate(15.5355 22.5999) scale(8.11368 12.7187)">
<stop stop-color="#FCEA10"/>
<stop offset="0.12" stop-color="#CDBE0D"/>
<stop offset="0.3" stop-color="#8F8509"/>
<stop offset="0.47" stop-color="#5C5505"/>
<stop offset="0.63" stop-color="#343003"/>
<stop offset="0.78" stop-color="#171501"/>
<stop offset="0.91" stop-color="#060500"/>
<stop offset="1"/>
</radialGradient>
<radialGradient id="paint16_radial_168_495" cx="0" cy="0" r="1" gradientUnits="userSpaceOnUse" gradientTransform="translate(6.24204 22.9058) scale(7.91421)">
<stop stop-color="#FFF261"/>
<stop offset="0.11" stop-color="#FAED5F"/>
<stop offset="0.23" stop-color="#ECE05A"/>
<stop offset="0.36" stop-color="#D6CB51"/>
<stop offset="0.5" stop-color="#B6AD45"/>
<stop offset="0.64" stop-color="#8E8636"/>
<stop offset="0.78" stop-color="#5C5723"/>
<stop offset="0.92" stop-color="#22210D"/>
<stop offset="1"/>
</radialGradient>
<linearGradient id="paint17_linear_168_495" x1="19.3416" y1="9.05455" x2="15.4962" y2="24.3328" gradientUnits="userSpaceOnUse">
<stop stop-color="#DE376D"/>
<stop offset="0.99" stop-color="white"/>
</linearGradient>
<radialGradient id="paint18_radial_168_495" cx="0" cy="0" r="1" gradientUnits="userSpaceOnUse" gradientTransform="translate(15.5997 28.7284) scale(5.4577 5.45771)">
<stop stop-color="#FCF800"/>
<stop offset="1" stop-color="#FC9700"/>
</radialGradient>
<radialGradient id="paint19_radial_168_495" cx="0" cy="0" r="1" gradientUnits="userSpaceOnUse" gradientTransform="translate(15.5997 28.7284) scale(5.4577 5.45771)">
<stop stop-color="#FCF800"/>
<stop offset="1" stop-color="#FC9700"/>
</radialGradient>
<linearGradient id="paint20_linear_168_495" x1="15.4744" y1="29.284" x2="15.3164" y2="30.6893" gradientUnits="userSpaceOnUse">
<stop stop-color="#DE376D"/>
<stop offset="0.99" stop-color="white"/>
</linearGradient>
<radialGradient id="paint21_radial_168_495" cx="0" cy="0" r="1" gradientUnits="userSpaceOnUse" gradientTransform="translate(7.20613 14.534) scale(5.68647)">
<stop stop-color="#FFF261"/>
<stop offset="0.11" stop-color="#FAED5F"/>
<stop offset="0.23" stop-color="#ECE05A"/>
<stop offset="0.36" stop-color="#D6CB51"/>
<stop offset="0.5" stop-color="#B6AD45"/>
<stop offset="0.64" stop-color="#8E8636"/>
<stop offset="0.78" stop-color="#5C5723"/>
<stop offset="0.92" stop-color="#22210D"/>
<stop offset="1"/>
</radialGradient>
<radialGradient id="paint22_radial_168_495" cx="0" cy="0" r="1" gradientUnits="userSpaceOnUse" gradientTransform="translate(13.2684 12.486) scale(5.71915 5.71915)">
<stop stop-color="#FFF0B0"/>
<stop offset="1"/>
</radialGradient>
<linearGradient id="paint23_linear_168_495" x1="26.0684" y1="34.4203" x2="23.1544" y2="22.1759" gradientUnits="userSpaceOnUse">
<stop stop-color="#DE376D"/>
<stop offset="0.99" stop-color="white"/>
</linearGradient>
<radialGradient id="paint24_radial_168_495" cx="0" cy="0" r="1" gradientUnits="userSpaceOnUse" gradientTransform="translate(14.2107 29.1859) scale(3.9326 3.93259)">
<stop stop-color="#FFF0B0"/>
<stop offset="1"/>
</radialGradient>
<linearGradient id="paint25_linear_168_495" x1="15.7413" y1="19.7957" x2="15.36" y2="31.2013" gradientUnits="userSpaceOnUse">
<stop stop-color="#F03A07"/>
<stop offset="0.09" stop-color="#F0360F"/>
<stop offset="0.23" stop-color="#F02B25"/>
<stop offset="0.4" stop-color="#F01A48"/>
<stop offset="0.53" stop-color="#F00C68"/>
<stop offset="0.71" stop-color="#D2096F"/>
<stop offset="1" stop-color="#9E057D"/>
</linearGradient>
<linearGradient id="paint26_linear_168_495" x1="15.872" y1="22.274" x2="15.3219" y2="26.0758" gradientUnits="userSpaceOnUse">
<stop stop-color="#F63F00"/>
<stop offset="0.55" stop-color="#F66A00"/>
<stop offset="1" stop-color="#FA9300"/>
</linearGradient>
<linearGradient id="paint27_linear_168_495" x1="15.5997" y1="18.8425" x2="15.5997" y2="23.8699" gradientUnits="userSpaceOnUse">
<stop stop-color="#960066"/>
<stop offset="1" stop-color="white"/>
</linearGradient>
<radialGradient id="paint28_radial_168_495" cx="0" cy="0" r="1" gradientUnits="userSpaceOnUse" gradientTransform="translate(15.4652 27.7346) scale(3.70176 1.65398)">
<stop stop-color="#FFF261"/>
<stop offset="0.11" stop-color="#FAED5F"/>
<stop offset="0.23" stop-color="#ECE05A"/>
<stop offset="0.36" stop-color="#D6CB51"/>
<stop offset="0.5" stop-color="#B6AD45"/>
<stop offset="0.64" stop-color="#8E8636"/>
<stop offset="0.78" stop-color="#5C5723"/>
<stop offset="0.92" stop-color="#22210D"/>
<stop offset="1"/>
</radialGradient>
<linearGradient id="paint29_linear_168_495" x1="15.7413" y1="19.7957" x2="15.36" y2="31.2013" gradientUnits="userSpaceOnUse">
<stop stop-color="#F03A07"/>
<stop offset="0.09" stop-color="#F0360F"/>
<stop offset="0.23" stop-color="#F02B25"/>
<stop offset="0.4" stop-color="#F01A48"/>
<stop offset="0.53" stop-color="#F00C68"/>
<stop offset="0.71" stop-color="#D2096F"/>
<stop offset="1" stop-color="#9E057D"/>
</linearGradient>
<linearGradient id="paint30_linear_168_495" x1="16.433" y1="19.8229" x2="16.0517" y2="31.2285" gradientUnits="userSpaceOnUse">
<stop stop-color="#960066"/>
<stop offset="1" stop-color="white"/>
</linearGradient>
<linearGradient id="paint31_linear_168_495" x1="17.0703" y1="24.6651" x2="19.0856" y2="26.1521" gradientUnits="userSpaceOnUse">
<stop stop-color="#960066"/>
<stop offset="1" stop-color="white"/>
</linearGradient>
<linearGradient id="paint32_linear_168_495" x1="15.5343" y1="22.4646" x2="15.8012" y2="31.9039" gradientUnits="userSpaceOnUse">
<stop stop-color="#FF818F"/>
<stop offset="1"/>
</linearGradient>
<linearGradient id="paint33_linear_168_495" x1="15.7957" y1="27.0236" x2="13.1595" y2="28.0149" gradientUnits="userSpaceOnUse">
<stop stop-color="#960066"/>
<stop offset="1" stop-color="white"/>
</linearGradient>
<radialGradient id="paint34_radial_168_495" cx="0" cy="0" r="1" gradientUnits="userSpaceOnUse" gradientTransform="translate(13.1976 12.486) scale(4.46638)">
<stop stop-color="#FFF261"/>
<stop offset="0.11" stop-color="#FAED5F"/>
<stop offset="0.23" stop-color="#ECE05A"/>
<stop offset="0.36" stop-color="#D6CB51"/>
<stop offset="0.5" stop-color="#B6AD45"/>
<stop offset="0.64" stop-color="#8E8636"/>
<stop offset="0.78" stop-color="#5C5723"/>
<stop offset="0.92" stop-color="#22210D"/>
<stop offset="1"/>
</radialGradient>
<radialGradient id="paint35_radial_168_495" cx="0" cy="0" r="1" gradientUnits="userSpaceOnUse" gradientTransform="translate(7.60919 17.3882) scale(5.7246)">
<stop stop-color="#FFF0B0"/>
<stop offset="1"/>
</radialGradient>
<linearGradient id="paint36_linear_168_495" x1="32.7517" y1="12.3063" x2="13.726" y2="13.973" gradientUnits="userSpaceOnUse">
<stop stop-color="#DE376D"/>
<stop offset="0.99" stop-color="white"/>
</linearGradient>
<radialGradient id="paint37_radial_168_495" cx="0" cy="0" r="1" gradientUnits="userSpaceOnUse" gradientTransform="translate(9.47746 9.32688) scale(9.41753)">
<stop stop-color="#FFF261"/>
<stop offset="0.11" stop-color="#FAED5F"/>
<stop offset="0.23" stop-color="#ECE05A"/>
<stop offset="0.36" stop-color="#D6CB51"/>
<stop offset="0.5" stop-color="#B6AD45"/>
<stop offset="0.64" stop-color="#8E8636"/>
<stop offset="0.78" stop-color="#5C5723"/>
<stop offset="0.92" stop-color="#22210D"/>
<stop offset="1"/>
</radialGradient>
<radialGradient id="paint38_radial_168_495" cx="0" cy="0" r="1" gradientUnits="userSpaceOnUse" gradientTransform="translate(-18.4242 175.315) rotate(-78.01) scale(9.43202 3.8498)">
<stop stop-color="#F33218"/>
<stop offset="0.1" stop-color="#CD2A14"/>
<stop offset="0.29" stop-color="#8F1D0E"/>
<stop offset="0.46" stop-color="#5C1209"/>
<stop offset="0.63" stop-color="#340A05"/>
<stop offset="0.78" stop-color="#170402"/>
<stop offset="0.91" stop-color="#060100"/>
<stop offset="1"/>
</radialGradient>
<radialGradient id="paint39_radial_168_495" cx="0" cy="0" r="1" gradientUnits="userSpaceOnUse" gradientTransform="translate(15.8883 110.255) scale(11.7433 1.99636)">
<stop stop-color="#422982"/>
<stop offset="0.99" stop-color="white"/>
</radialGradient>
<clipPath id="clip0_168_495">
<rect width="32" height="38.0024" fill="white" transform="translate(0 0.498779)"/>
</clipPath>
</defs>
</svg>
