<svg width="38" height="38" viewBox="0 0 38 38" fill="none" xmlns="http://www.w3.org/2000/svg">
<g clip-path="url(#clip0_432_3530)">
<g clip-path="url(#clip1_432_3530)">
<g opacity="0.5">
<path d="M27.2115 29.9251C31.3556 24.4176 30.2504 16.5934 24.7429 12.4492C19.2354 8.30502 11.4112 9.41021 7.26703 14.9177C3.12285 20.4252 4.22805 28.2494 9.73555 32.3936C15.243 36.5378 23.0673 35.4326 27.2115 29.9251Z" fill="url(#paint0_radial_432_3530)" style="mix-blend-mode:screen"/>
</g>
<path fill-rule="evenodd" clip-rule="evenodd" d="M14.39 38.29V24.35L4.06 18.58L4.25 31.5L14.39 38.29Z" fill="url(#paint1_radial_432_3530)"/>
<path fill-rule="evenodd" clip-rule="evenodd" d="M14.39 24.35V38.29L32.96 34.26L33.22 20.89L14.39 24.35Z" fill="url(#paint2_radial_432_3530)"/>
<path fill-rule="evenodd" clip-rule="evenodd" d="M4.95 21.33C5.18 21.46 5.38 21.91 5.38 22.32C5.38 22.73 5.2 22.96 4.97 22.82C4.74 22.68 4.54 22.24 4.54 21.83C4.54 21.42 4.72 21.2 4.95 21.33ZM6.67 22.32C6.9 22.45 7.1 22.9 7.1 23.32C7.1 23.74 6.92 23.97 6.68 23.83C6.45 23.69 6.25 23.24 6.25 22.83C6.25 22.42 6.43 22.19 6.66 22.33L6.67 22.32ZM8.39 23.31C8.62 23.45 8.82 23.9 8.82 24.32C8.82 24.74 8.64 24.98 8.4 24.84C8.17 24.7 7.97 24.25 7.97 23.83C7.97 23.41 8.15 23.18 8.39 23.31ZM10.11 24.3C10.34 24.44 10.54 24.89 10.54 25.32C10.54 25.75 10.36 25.99 10.12 25.85C9.89 25.71 9.7 25.26 9.69 24.83C9.69 24.4 9.87 24.17 10.11 24.3ZM11.83 25.29C12.07 25.43 12.26 25.89 12.26 26.32C12.26 26.75 12.07 26.99 11.84 26.86C11.61 26.72 11.42 26.26 11.41 25.83C11.41 25.4 11.6 25.16 11.83 25.29ZM13.55 26.28C13.78 26.42 13.97 26.88 13.97 27.32C13.97 27.76 13.78 28.01 13.55 27.87C13.32 27.73 13.13 27.26 13.13 26.83C13.13 26.39 13.32 26.15 13.55 26.28ZM5.86 24.85C6.09 24.99 6.29 25.44 6.29 25.86C6.29 26.27 6.11 26.49 5.88 26.35C5.65 26.21 5.45 25.76 5.45 25.35C5.45 24.94 5.63 24.72 5.86 24.86V24.85ZM7.57 25.88C7.8 26.02 7.99 26.48 8 26.9C8 27.32 7.82 27.55 7.59 27.4C7.36 27.26 7.17 26.8 7.16 26.38C7.16 25.96 7.34 25.74 7.57 25.88ZM9.28 26.91C9.51 27.05 9.7 27.51 9.71 27.94C9.71 28.37 9.53 28.59 9.29 28.45C9.06 28.31 8.87 27.85 8.86 27.43C8.86 27.01 9.04 26.78 9.28 26.92V26.91ZM10.99 27.94C11.22 28.08 11.41 28.54 11.41 28.97C11.41 29.4 11.23 29.64 10.99 29.49C10.76 29.35 10.57 28.88 10.57 28.46C10.57 28.03 10.75 27.8 10.99 27.94ZM12.7 28.97C12.93 29.11 13.12 29.58 13.12 30.01C13.12 30.45 12.93 30.68 12.7 30.54C12.47 30.4 12.28 29.93 12.28 29.49C12.28 29.06 12.47 28.82 12.7 28.96V28.97ZM5.05 27.35C5.28 27.5 5.47 27.95 5.48 28.36C5.48 28.77 5.3 28.99 5.07 28.84C4.84 28.69 4.65 28.24 4.64 27.83C4.64 27.42 4.82 27.2 5.05 27.35ZM6.75 28.42C6.98 28.56 7.17 29.02 7.18 29.44C7.18 29.86 7 30.08 6.77 29.93C6.54 29.78 6.35 29.32 6.34 28.91C6.34 28.5 6.52 28.28 6.75 28.42ZM8.45 29.49C8.68 29.64 8.87 30.1 8.88 30.52C8.88 30.94 8.7 31.16 8.47 31.02C8.24 30.87 8.05 30.41 8.05 29.99C8.05 29.57 8.23 29.35 8.46 29.49H8.45ZM10.15 30.56C10.38 30.71 10.57 31.17 10.57 31.6C10.57 32.03 10.39 32.25 10.16 32.1C9.93 31.95 9.74 31.49 9.74 31.06C9.74 30.63 9.92 30.41 10.15 30.55V30.56ZM11.85 31.63C12.08 31.77 12.27 32.25 12.27 32.68C12.27 33.11 12.09 33.35 11.85 33.2C11.62 33.05 11.43 32.58 11.43 32.15C11.43 31.72 11.61 31.49 11.85 31.64V31.63ZM13.55 32.7C13.78 32.85 13.97 33.32 13.97 33.76C13.97 34.2 13.78 34.43 13.55 34.28C13.32 34.13 13.13 33.66 13.13 33.22C13.13 32.78 13.32 32.55 13.55 32.69V32.7ZM5.93 30.92C6.16 31.07 6.35 31.53 6.36 31.95C6.36 32.37 6.18 32.58 5.95 32.43C5.72 32.28 5.53 31.81 5.52 31.4C5.52 30.99 5.7 30.78 5.93 30.93V30.92ZM7.63 32.03C7.86 32.18 8.05 32.65 8.05 33.07C8.05 33.49 7.87 33.7 7.64 33.55C7.41 33.4 7.22 32.93 7.21 32.51C7.21 32.09 7.39 31.88 7.62 32.03H7.63ZM9.32 33.14C9.55 33.29 9.74 33.76 9.74 34.19C9.74 34.62 9.56 34.83 9.33 34.68C9.1 34.53 8.91 34.06 8.91 33.63C8.91 33.21 9.09 32.99 9.32 33.14ZM11.01 34.25C11.24 34.4 11.43 34.87 11.43 35.3C11.43 35.73 11.25 35.96 11.02 35.8C10.79 35.64 10.6 35.17 10.6 34.75C10.6 34.32 10.78 34.1 11.01 34.25ZM12.7 35.36C12.93 35.51 13.12 35.99 13.12 36.42C13.12 36.86 12.93 37.08 12.7 36.93C12.47 36.78 12.28 36.3 12.28 35.86C12.28 35.43 12.46 35.2 12.7 35.35V35.36ZM4.06 18.58C4.06 18.83 4.06 19.07 4.07 19.32C4.3 19.45 4.49 19.23 4.48 18.82C4.34 18.74 4.2 18.66 4.06 18.58ZM5.36 19.3C5.36 19.71 5.56 20.16 5.79 20.29C6.02 20.42 6.21 20.19 6.21 19.78C5.93 19.62 5.64 19.46 5.36 19.3ZM7.08 20.26C7.08 20.68 7.28 21.13 7.51 21.26C7.74 21.39 7.93 21.16 7.93 20.74C7.65 20.58 7.36 20.42 7.08 20.26ZM8.8 21.22C8.8 21.65 9 22.1 9.23 22.23C9.46 22.36 9.65 22.13 9.65 21.7C9.37 21.54 9.08 21.38 8.8 21.22ZM10.52 22.18C10.52 22.61 10.71 23.07 10.95 23.2C11.18 23.33 11.37 23.09 11.37 22.66C11.09 22.5 10.8 22.34 10.52 22.18ZM12.24 23.14C12.24 23.58 12.43 24.04 12.67 24.17C12.9 24.3 13.09 24.06 13.09 23.62C12.81 23.46 12.52 23.3 12.24 23.14ZM13.96 24.1C13.96 24.54 14.15 25.01 14.38 25.14V24.34C14.24 24.26 14.1 24.18 13.96 24.1ZM14.39 30.01C14.16 29.87 13.97 30.11 13.97 30.55C13.97 30.99 14.16 31.46 14.39 31.6C14.39 31.07 14.39 30.54 14.39 30V30.01ZM14.39 36.48C14.16 36.33 13.97 36.56 13.97 37C13.97 37.44 14.16 37.92 14.39 38.08C14.39 37.55 14.39 37.02 14.39 36.48ZM4.22 29.82C4.22 30.31 4.23 30.81 4.24 31.3C4.47 31.45 4.65 31.24 4.65 30.84C4.65 30.43 4.45 29.98 4.22 29.82ZM4.15 25.3C4.38 25.44 4.57 25.23 4.56 24.82C4.56 24.41 4.36 23.96 4.13 23.82C4.13 24.31 4.14 24.81 4.15 25.3Z" fill="url(#paint3_radial_432_3530)"/>
<path opacity="0.75" fill-rule="evenodd" clip-rule="evenodd" d="M15.96 26.48C16.39 26.4 16.73 26.69 16.73 27.13C16.73 27.57 16.38 27.99 15.96 28.07C15.53 28.15 15.19 27.86 15.19 27.42C15.19 26.98 15.54 26.56 15.96 26.48ZM19.09 25.89C19.52 25.81 19.86 26.1 19.86 26.53C19.86 26.96 19.51 27.39 19.08 27.47C18.65 27.55 18.31 27.26 18.31 26.83C18.31 26.39 18.66 25.98 19.09 25.89ZM22.22 25.3C22.65 25.22 22.99 25.5 22.98 25.94C22.98 26.37 22.63 26.79 22.2 26.87C21.77 26.95 21.43 26.66 21.43 26.23C21.43 25.79 21.78 25.38 22.21 25.3H22.22ZM25.35 24.71C25.78 24.63 26.12 24.91 26.11 25.34C26.11 25.77 25.75 26.19 25.33 26.27C24.9 26.35 24.56 26.07 24.57 25.64C24.57 25.21 24.92 24.79 25.35 24.71ZM28.48 24.12C28.91 24.04 29.25 24.32 29.24 24.75C29.24 25.18 28.88 25.59 28.46 25.67C28.03 25.75 27.69 25.47 27.7 25.04C27.7 24.61 28.06 24.2 28.48 24.12ZM31.61 23.53C32.04 23.45 32.37 23.73 32.37 24.15C32.37 24.57 32.01 24.98 31.58 25.07C31.15 25.15 30.81 24.87 30.82 24.45C30.83 24.03 31.18 23.61 31.61 23.53ZM17.51 29.41C17.94 29.33 18.28 29.61 18.28 30.05C18.28 30.49 17.93 30.91 17.51 31C17.08 31.09 16.74 30.8 16.74 30.36C16.74 29.92 17.09 29.5 17.51 29.41ZM20.63 28.8C21.06 28.72 21.4 29 21.39 29.43C21.39 29.86 21.04 30.28 20.62 30.37C20.19 30.46 19.85 30.17 19.86 29.74C19.87 29.31 20.21 28.88 20.63 28.8ZM23.75 28.18C24.17 28.1 24.51 28.38 24.51 28.81C24.51 29.24 24.16 29.66 23.73 29.74C23.3 29.83 22.96 29.55 22.97 29.11C22.97 28.68 23.32 28.26 23.75 28.18ZM26.87 27.57C27.3 27.49 27.63 27.77 27.63 28.19C27.63 28.62 27.28 29.03 26.85 29.12C26.42 29.21 26.09 28.93 26.09 28.5C26.09 28.07 26.44 27.65 26.87 27.57ZM29.99 26.96C30.42 26.87 30.75 27.15 30.75 27.58C30.75 28 30.39 28.42 29.97 28.5C29.54 28.59 29.21 28.31 29.21 27.88C29.21 27.45 29.57 27.04 29.99 26.96ZM15.94 32.95C16.36 32.86 16.71 33.15 16.71 33.59C16.71 34.03 16.36 34.46 15.94 34.54C15.52 34.63 15.17 34.34 15.17 33.9C15.17 33.46 15.51 33.03 15.94 32.95ZM19.05 32.31C19.48 32.22 19.82 32.51 19.81 32.94C19.81 33.38 19.46 33.8 19.04 33.89C18.62 33.98 18.28 33.7 18.28 33.26C18.28 32.82 18.63 32.4 19.05 32.31ZM22.16 31.67C22.58 31.58 22.92 31.86 22.92 32.29C22.92 32.72 22.57 33.15 22.15 33.23C21.73 33.32 21.39 33.04 21.39 32.61C21.39 32.18 21.74 31.75 22.16 31.67ZM25.27 31.03C25.69 30.94 26.03 31.22 26.03 31.65C26.03 32.08 25.68 32.5 25.25 32.59C24.83 32.68 24.49 32.4 24.49 31.97C24.49 31.54 24.84 31.12 25.27 31.03ZM28.38 30.39C28.81 30.3 29.14 30.58 29.14 31C29.14 31.43 28.78 31.84 28.36 31.93C27.94 32.02 27.6 31.74 27.6 31.32C27.6 30.89 27.96 30.48 28.38 30.39ZM31.49 29.75C31.91 29.66 32.25 29.93 32.24 30.36C32.24 30.78 31.88 31.2 31.46 31.29C31.04 31.38 30.7 31.11 30.71 30.68C30.71 30.26 31.07 29.84 31.49 29.75ZM17.48 35.83C17.9 35.74 18.24 36.02 18.24 36.46C18.24 36.9 17.9 37.33 17.47 37.42C17.05 37.51 16.71 37.23 16.71 36.79C16.71 36.35 17.05 35.92 17.48 35.83ZM20.58 35.17C21 35.08 21.34 35.36 21.34 35.79C21.34 36.23 20.99 36.65 20.57 36.74C20.15 36.83 19.81 36.55 19.81 36.12C19.81 35.68 20.16 35.26 20.58 35.17ZM23.68 34.51C24.1 34.42 24.44 34.7 24.44 35.13C24.44 35.56 24.09 35.98 23.67 36.08C23.25 36.17 22.91 35.9 22.91 35.46C22.91 35.03 23.26 34.61 23.68 34.51ZM26.78 33.85C27.2 33.76 27.54 34.03 27.53 34.46C27.53 34.89 27.18 35.31 26.76 35.4C26.34 35.49 26 35.22 26 34.79C26 34.36 26.35 33.94 26.78 33.85ZM29.88 33.19C30.3 33.1 30.64 33.37 30.63 33.8C30.63 34.22 30.28 34.64 29.85 34.73C29.43 34.82 29.09 34.55 29.1 34.12C29.1 33.69 29.45 33.28 29.88 33.19ZM14.38 24.34V25.14C14.81 25.06 15.15 24.64 15.15 24.2C14.89 24.25 14.63 24.29 14.38 24.34ZM16.74 23.9C16.74 24.34 17.08 24.63 17.51 24.55C17.94 24.47 18.28 24.05 18.29 23.61C17.77 23.71 17.26 23.8 16.74 23.89V23.9ZM19.88 23.32C19.88 23.76 20.22 24.05 20.65 23.97C21.08 23.89 21.43 23.48 21.43 23.04C20.91 23.14 20.4 23.23 19.88 23.32ZM23.02 22.75C23.02 23.19 23.36 23.47 23.79 23.39C24.22 23.31 24.57 22.9 24.57 22.47C24.05 22.57 23.54 22.66 23.02 22.75ZM26.16 22.17C26.16 22.6 26.5 22.89 26.92 22.81C27.35 22.73 27.7 22.32 27.7 21.89C27.18 21.98 26.67 22.08 26.15 22.17H26.16ZM29.3 21.59C29.3 22.02 29.63 22.3 30.06 22.22C30.49 22.14 30.84 21.73 30.85 21.31C30.33 21.4 29.82 21.5 29.3 21.59ZM32.44 21.01C32.44 21.44 32.77 21.71 33.2 21.64C33.2 21.39 33.2 21.13 33.21 20.87C32.95 20.92 32.69 20.96 32.44 21.01ZM33.11 26.31C32.68 26.4 32.33 26.81 32.32 27.23C32.32 27.65 32.65 27.93 33.08 27.84C33.08 27.33 33.1 26.82 33.11 26.31ZM32.99 32.51C32.56 32.6 32.22 33.02 32.21 33.44C32.21 33.86 32.54 34.13 32.96 34.04C32.96 33.53 32.98 33.02 32.99 32.51ZM14.39 36.47V38.07C14.81 37.98 15.15 37.55 15.15 37.11C15.15 36.67 14.81 36.39 14.39 36.48V36.47ZM14.39 31.59C14.81 31.5 15.16 31.08 15.16 30.64C15.16 30.2 14.82 29.91 14.39 29.99V31.59Z" fill="url(#paint4_radial_432_3530)"/>
<path style="mix-blend-mode:multiply" opacity="0.4" fill-rule="evenodd" clip-rule="evenodd" d="M4.06999 19.93L4.04999 18.57L14.38 24.34V26.81C13.68 24.47 6.03999 19.37 4.05999 19.93H4.06999Z" fill="url(#paint5_radial_432_3530)"/>
<path style="mix-blend-mode:multiply" opacity="0.75" fill-rule="evenodd" clip-rule="evenodd" d="M14.39 26.81C16.16 23.65 29.32 21.32 33.2 22.03V20.89L14.39 24.35V26.81Z" fill="url(#paint6_radial_432_3530)"/>
<path style="mix-blend-mode:multiply" opacity="0.5" fill-rule="evenodd" clip-rule="evenodd" d="M6.02001 32.36C4.82001 31.47 4.40001 30.84 4.23001 29.85L4.25001 31.5L14.39 38.3V36.42C14.18 36.94 13.46 36.99 12.87 36.73C11.02 35.92 7.68001 33.6 6.02001 32.36Z" fill="url(#paint7_radial_432_3530)"/>
<path style="mix-blend-mode:multiply" fill-rule="evenodd" clip-rule="evenodd" d="M14.39 36.41V38.29L32.96 34.26L33.01 31.53C32.73 32.62 32.19 33.25 30.61 33.96C27.59 35.32 21.25 36.77 17.96 37.12C16.33 37.29 14.64 37.26 14.39 36.42V36.41Z" fill="url(#paint8_radial_432_3530)"/>
<path fill-rule="evenodd" clip-rule="evenodd" d="M14.39 24.34L33.22 20.88L22.07 15.41L4.06 18.58L14.39 24.34Z" fill="url(#paint9_radial_432_3530)"/>
<path fill-rule="evenodd" clip-rule="evenodd" d="M21.95 22.94L33.22 20.89L22 15.4L21.95 15.72V22.94Z" fill="url(#paint10_radial_432_3530)"/>
<path d="M21.95 15.72L32.23 20.75L14.37 24.03L4.87 18.73L21.95 15.73V15.72ZM22 15.41L4.06 18.58L14.33 24.35L33.22 20.89L22 15.41Z" fill="url(#paint11_linear_432_3530)"/>
<path fill-rule="evenodd" clip-rule="evenodd" d="M39.1 -4H-2L4.87 18.72L14.38 24.02L32.23 20.74L39.1 -4Z" fill="url(#paint12_radial_432_3530)" style="mix-blend-mode:screen"/>
<path fill-rule="evenodd" clip-rule="evenodd" d="M30.57 -4H6.53L9.75 21.44L14.33 24L27.6 21.6L30.57 -4Z" fill="url(#paint13_radial_432_3530)" style="mix-blend-mode:screen"/>
<g opacity="0.5">
<path d="M18.55 35.76C25.9175 35.76 31.89 29.7875 31.89 22.42C31.89 15.0525 25.9175 9.07999 18.55 9.07999C11.1825 9.07999 5.20999 15.0525 5.20999 22.42C5.20999 29.7875 11.1825 35.76 18.55 35.76Z" fill="url(#paint14_radial_432_3530)" style="mix-blend-mode:screen"/>
</g>
<g opacity="0.5">
<path fill-rule="evenodd" clip-rule="evenodd" d="M8.33999 -4H1.14999L6.72999 19.76L11.31 22.3L8.33999 -4Z" fill="url(#paint15_radial_432_3530)" style="mix-blend-mode:screen"/>
</g>
<g opacity="0.5">
<path fill-rule="evenodd" clip-rule="evenodd" d="M23.28 -4H28.57L25.81 21.92L21.43 22.73L23.28 -4Z" fill="url(#paint16_radial_432_3530)" style="mix-blend-mode:screen"/>
</g>
<g opacity="0.5">
<path fill-rule="evenodd" clip-rule="evenodd" d="M17.54 -4H11.18L12.82 23.16L14.33 24L16.71 23.57L17.54 -4Z" fill="url(#paint17_radial_432_3530)" style="mix-blend-mode:screen"/>
</g>
<g opacity="0.5">
<path fill-rule="evenodd" clip-rule="evenodd" d="M35.67 -4H33.09L28.59 21.41L29.59 21.23L35.67 -4Z" fill="url(#paint18_radial_432_3530)" style="mix-blend-mode:screen"/>
</g>
<g opacity="0.5">
<path fill-rule="evenodd" clip-rule="evenodd" d="M38.25 4.29001L31.23 20.93L32.23 20.74L38.25 4.29001Z" fill="url(#paint19_radial_432_3530)" style="mix-blend-mode:screen"/>
</g>
<g opacity="0.5">
<path fill-rule="evenodd" clip-rule="evenodd" d="M-1.14001 2.26999L5.97999 19.34L4.86999 18.72L-1.14001 2.26999Z" fill="url(#paint20_radial_432_3530)" style="mix-blend-mode:screen"/>
</g>
<g opacity="0.5">
<path fill-rule="evenodd" clip-rule="evenodd" d="M12.25 12.42C13.68 21.1 13.68 28.33 12.25 28.56C10.82 28.79 8.51001 21.95 7.08001 13.27C5.65001 4.58999 5.65001 -2.64001 7.08001 -2.87001C8.51001 -3.10001 10.82 3.73999 12.25 12.42Z" fill="url(#paint21_radial_432_3530)" style="mix-blend-mode:screen"/>
</g>
<g opacity="0.5">
<path fill-rule="evenodd" clip-rule="evenodd" d="M29.77 17.99C31.12 9.79 31.22 2.97 30 2.77C28.78 2.57 26.69 9.06 25.34 17.26C23.99 25.46 23.89 32.28 25.11 32.48C26.33 32.68 28.42 26.19 29.77 17.99Z" fill="url(#paint22_radial_432_3530)" style="mix-blend-mode:screen"/>
</g>
<g opacity="0.5">
<path fill-rule="evenodd" clip-rule="evenodd" d="M8.03999 16.25C10.2 23.57 11.27 29.7 10.44 29.95C9.60999 30.19 7.18999 24.46 5.02999 17.14C2.86999 9.81998 1.79999 3.68998 2.62999 3.43998C3.45999 3.19998 5.87999 8.92998 8.03999 16.25Z" fill="url(#paint23_radial_432_3530)" style="mix-blend-mode:screen"/>
</g>
<g opacity="0.5">
<path fill-rule="evenodd" clip-rule="evenodd" d="M25.2 19.5C24.36 27.62 22.98 34.13 22.12 34.04C21.26 33.95 21.24 27.3 22.08 19.18C22.92 11.06 24.3 4.54999 25.16 4.63999C26.02 4.72999 26.04 11.38 25.2 19.5Z" fill="url(#paint24_radial_432_3530)" style="mix-blend-mode:screen"/>
</g>
<path fill-rule="evenodd" clip-rule="evenodd" d="M15.5 22.6C15.05 22.9 14.44 22.77 14.15 22.32C13.86 21.87 13.98 21.26 14.43 20.97C14.88 20.67 15.49 20.8 15.78 21.25C16.08 21.7 15.95 22.31 15.5 22.6Z" fill="url(#paint25_radial_432_3530)" style="mix-blend-mode:screen"/>
<g opacity="0.8">
<path fill-rule="evenodd" clip-rule="evenodd" d="M19.94 21.64C19.6 21.86 19.14 21.77 18.92 21.43C18.7 21.09 18.79 20.63 19.13 20.41C19.47 20.19 19.93 20.28 20.15 20.62C20.37 20.96 20.28 21.42 19.94 21.64Z" fill="url(#paint26_radial_432_3530)" style="mix-blend-mode:screen"/>
</g>
<g opacity="0.8">
<path fill-rule="evenodd" clip-rule="evenodd" d="M13.74 11.89C13.46 12.07 13.08 12 12.9 11.71C12.72 11.43 12.79 11.05 13.08 10.87C13.36 10.69 13.74 10.76 13.92 11.05C14.1 11.33 14.03 11.71 13.74 11.89Z" fill="url(#paint27_radial_432_3530)" style="mix-blend-mode:screen"/>
</g>
<g opacity="0.8">
<path fill-rule="evenodd" clip-rule="evenodd" d="M22.43 15.1C22.09 15.32 21.63 15.23 21.41 14.89C21.19 14.55 21.28 14.09 21.62 13.87C21.96 13.65 22.42 13.74 22.64 14.08C22.86 14.42 22.77 14.88 22.43 15.1Z" fill="url(#paint28_radial_432_3530)" style="mix-blend-mode:screen"/>
</g>
<path fill-rule="evenodd" clip-rule="evenodd" d="M18.74 11.68C18.41 11.9 17.97 11.8 17.75 11.47C17.53 11.14 17.63 10.7 17.96 10.48C18.29 10.26 18.73 10.36 18.95 10.69C19.17 11.02 19.07 11.46 18.74 11.68Z" fill="url(#paint29_radial_432_3530)" style="mix-blend-mode:screen"/>
<g opacity="0.5">
<path fill-rule="evenodd" clip-rule="evenodd" d="M18.4 19.54C17.6 20.06 16.53 19.84 16.01 19.04C15.49 18.24 15.71 17.17 16.51 16.65C17.31 16.13 18.38 16.35 18.9 17.15C19.42 17.95 19.2 19.02 18.4 19.54Z" fill="url(#paint30_radial_432_3530)" style="mix-blend-mode:screen"/>
</g>
<g opacity="0.5">
<path fill-rule="evenodd" clip-rule="evenodd" d="M23.04 18.57C22.45 18.96 21.66 18.79 21.28 18.2C20.89 17.61 21.06 16.82 21.65 16.44C22.24 16.06 23.03 16.22 23.41 16.81C23.8 17.4 23.63 18.19 23.04 18.57Z" fill="url(#paint31_radial_432_3530)" style="mix-blend-mode:screen"/>
</g>
<g opacity="0.5">
<path fill-rule="evenodd" clip-rule="evenodd" d="M25.91 12.49C25.49 12.77 24.92 12.65 24.64 12.23C24.36 11.81 24.48 11.24 24.9 10.96C25.32 10.68 25.89 10.8 26.17 11.22C26.45 11.64 26.33 12.21 25.91 12.49Z" fill="url(#paint32_radial_432_3530)" style="mix-blend-mode:screen"/>
</g>
<g opacity="0.75">
<path fill-rule="evenodd" clip-rule="evenodd" d="M8.81 18.81C8.11 19.27 7.16 19.07 6.7 18.37C6.24 17.67 6.44 16.72 7.14 16.26C7.84 15.8 8.79 16 9.25 16.7C9.71 17.4 9.51 18.35 8.81 18.81Z" fill="url(#paint33_radial_432_3530)" style="mix-blend-mode:screen"/>
</g>
<g opacity="0.75">
<path fill-rule="evenodd" clip-rule="evenodd" d="M24.83 15.86C25.27 15.57 25.85 15.7 26.13 16.13C26.42 16.57 26.29 17.15 25.86 17.43C25.42 17.72 24.84 17.59 24.56 17.16C24.27 16.72 24.4 16.14 24.83 15.86Z" fill="url(#paint34_radial_432_3530)" style="mix-blend-mode:screen"/>
</g>
<path fill-rule="evenodd" clip-rule="evenodd" d="M17.63 17.36C17.32 17.56 16.91 17.48 16.71 17.17C16.51 16.86 16.59 16.45 16.9 16.25C17.21 16.05 17.62 16.13 17.82 16.44C18.02 16.75 17.94 17.16 17.63 17.36Z" fill="url(#paint35_radial_432_3530)" style="mix-blend-mode:screen"/>
<path fill-rule="evenodd" clip-rule="evenodd" d="M20.07 15.76C19.62 16.05 19.02 15.93 18.72 15.48C18.43 15.03 18.55 14.43 19 14.13C19.45 13.84 20.05 13.96 20.35 14.41C20.64 14.86 20.52 15.46 20.07 15.76Z" fill="url(#paint36_radial_432_3530)" style="mix-blend-mode:screen"/>
<path fill-rule="evenodd" clip-rule="evenodd" d="M29.21 19.56C28.9 19.76 28.49 19.68 28.29 19.37C28.09 19.06 28.17 18.65 28.48 18.45C28.79 18.25 29.2 18.33 29.4 18.64C29.6 18.95 29.52 19.36 29.21 19.56Z" fill="url(#paint37_radial_432_3530)" style="mix-blend-mode:screen"/>
<path fill-rule="evenodd" clip-rule="evenodd" d="M16.13 14.8C15.58 15.16 14.85 15.01 14.49 14.46C14.13 13.91 14.28 13.18 14.83 12.82C15.38 12.46 16.11 12.61 16.47 13.16C16.83 13.71 16.68 14.44 16.13 14.8Z" fill="url(#paint38_radial_432_3530)" style="mix-blend-mode:screen"/>
<path fill-rule="evenodd" clip-rule="evenodd" d="M18.98 21.31C18.84 21.4 18.66 21.36 18.57 21.22C18.48 21.08 18.52 20.9 18.66 20.81C18.8 20.72 18.98 20.76 19.07 20.9C19.16 21.04 19.12 21.22 18.98 21.31Z" fill="url(#paint39_radial_432_3530)" style="mix-blend-mode:screen"/>
<path fill-rule="evenodd" clip-rule="evenodd" d="M23.69 20.11C23.55 20.2 23.37 20.16 23.28 20.02C23.19 19.88 23.23 19.7 23.37 19.61C23.51 19.52 23.69 19.56 23.78 19.7C23.87 19.84 23.83 20.02 23.69 20.11Z" fill="url(#paint40_radial_432_3530)" style="mix-blend-mode:screen"/>
<path fill-rule="evenodd" clip-rule="evenodd" d="M25.18 17.15C25.37 17.02 25.63 17.08 25.75 17.27C25.87 17.46 25.82 17.72 25.63 17.84C25.44 17.96 25.18 17.91 25.06 17.72C24.94 17.53 24.99 17.27 25.18 17.15Z" fill="url(#paint41_radial_432_3530)" style="mix-blend-mode:screen"/>
<path fill-rule="evenodd" clip-rule="evenodd" d="M19.34 14.43C19.2 14.52 19.02 14.48 18.93 14.34C18.84 14.2 18.88 14.02 19.02 13.93C19.16 13.84 19.34 13.88 19.43 14.02C19.52 14.16 19.48 14.34 19.34 14.43Z" fill="url(#paint42_radial_432_3530)" style="mix-blend-mode:screen"/>
<path fill-rule="evenodd" clip-rule="evenodd" d="M17.02 8.46001C17.16 8.37001 17.34 8.41001 17.43 8.55001C17.52 8.69001 17.48 8.87001 17.34 8.96001C17.2 9.05001 17.02 9.01001 16.93 8.87001C16.84 8.73001 16.88 8.55001 17.02 8.46001Z" fill="url(#paint43_radial_432_3530)" style="mix-blend-mode:screen"/>
<path fill-rule="evenodd" clip-rule="evenodd" d="M11.48 15.74C11.34 15.83 11.16 15.79 11.07 15.65C10.98 15.51 11.02 15.33 11.16 15.24C11.3 15.15 11.48 15.19 11.57 15.33C11.66 15.47 11.62 15.65 11.48 15.74Z" fill="url(#paint44_radial_432_3530)" style="mix-blend-mode:screen"/>
<g opacity="0.5">
<path fill-rule="evenodd" clip-rule="evenodd" d="M19.49 5.78001C19.23 5.95001 18.88 5.88001 18.71 5.62001C18.54 5.36001 18.61 5.01001 18.87 4.84001C19.13 4.67001 19.48 4.74001 19.65 5.00001C19.82 5.26001 19.75 5.61001 19.49 5.78001Z" fill="url(#paint45_radial_432_3530)" style="mix-blend-mode:screen"/>
</g>
<path style="mix-blend-mode:screen" fill-rule="evenodd" clip-rule="evenodd" d="M10.59 13.12C10.15 13.41 9.54999 13.29 9.25999 12.84C8.96999 12.39 9.08999 11.8 9.53999 11.51C9.97999 11.22 10.58 11.34 10.87 11.79C11.16 12.23 11.04 12.83 10.59 13.12Z" fill="url(#paint46_radial_432_3530)"/>
<path style="mix-blend-mode:screen" opacity="0.75" fill-rule="evenodd" clip-rule="evenodd" d="M10.66 13.8C10.36 14 9.96 13.91 9.76 13.61C9.56 13.31 9.65 12.91 9.95 12.71C10.25 12.51 10.65 12.6 10.85 12.9C11.05 13.2 10.96 13.6 10.66 13.8Z" fill="url(#paint47_radial_432_3530)"/>
<path style="mix-blend-mode:screen" fill-rule="evenodd" clip-rule="evenodd" d="M22.06 10.17C21.83 10.32 21.51 10.26 21.36 10.02C21.21 9.79 21.27 9.47 21.51 9.32C21.74 9.17 22.06 9.23 22.21 9.47C22.36 9.71 22.3 10.02 22.06 10.17Z" fill="url(#paint48_radial_432_3530)"/>
<path style="mix-blend-mode:screen" fill-rule="evenodd" clip-rule="evenodd" d="M26.09 14.73C25.93 14.83 25.72 14.79 25.62 14.63C25.52 14.47 25.56 14.26 25.72 14.16C25.88 14.06 26.09 14.1 26.19 14.26C26.29 14.42 26.25 14.63 26.09 14.73Z" fill="url(#paint49_radial_432_3530)"/>
<path style="mix-blend-mode:screen" fill-rule="evenodd" clip-rule="evenodd" d="M9.63999 17.66C9.20999 17.94 8.63999 17.82 8.34999 17.39C8.06999 16.96 8.18999 16.39 8.61999 16.1C9.04999 15.82 9.62999 15.94 9.90999 16.37C10.19 16.8 10.07 17.38 9.63999 17.66Z" fill="url(#paint50_radial_432_3530)"/>
<path style="mix-blend-mode:screen" fill-rule="evenodd" clip-rule="evenodd" d="M16.59 14.26C16.36 14.41 16.05 14.35 15.9 14.12C15.75 13.89 15.81 13.58 16.04 13.43C16.27 13.28 16.58 13.34 16.73 13.57C16.88 13.8 16.82 14.11 16.59 14.26Z" fill="url(#paint51_radial_432_3530)"/>
<path style="mix-blend-mode:screen" fill-rule="evenodd" clip-rule="evenodd" d="M21.66 18.66C21.39 18.84 21.02 18.76 20.85 18.49C20.68 18.22 20.75 17.85 21.02 17.68C21.29 17.5 21.66 17.58 21.83 17.85C22 18.12 21.93 18.49 21.66 18.66Z" fill="url(#paint52_radial_432_3530)"/>
<path style="mix-blend-mode:screen" fill-rule="evenodd" clip-rule="evenodd" d="M20.6 13.43C20.39 13.57 20.11 13.51 19.98 13.3C19.84 13.09 19.9 12.81 20.11 12.68C20.32 12.54 20.6 12.6 20.73 12.81C20.87 13.02 20.81 13.3 20.6 13.43Z" fill="url(#paint53_radial_432_3530)"/>
<path style="mix-blend-mode:screen" opacity="0.5" fill-rule="evenodd" clip-rule="evenodd" d="M29.5 18.79C29.34 18.89 29.13 18.85 29.03 18.69C28.93 18.53 28.97 18.32 29.13 18.22C29.29 18.12 29.5 18.16 29.6 18.32C29.7 18.48 29.66 18.69 29.5 18.79Z" fill="url(#paint54_radial_432_3530)"/>
<path style="mix-blend-mode:screen" opacity="0.75" fill-rule="evenodd" clip-rule="evenodd" d="M12.89 17.39C12.19 17.85 11.24 17.65 10.78 16.95C10.32 16.25 10.52 15.3 11.22 14.84C11.92 14.38 12.87 14.58 13.33 15.28C13.79 15.98 13.59 16.93 12.89 17.39Z" fill="url(#paint55_radial_432_3530)"/>
<path style="mix-blend-mode:screen" fill-rule="evenodd" clip-rule="evenodd" d="M12.94 15.34C12.68 15.51 12.34 15.44 12.17 15.18C12 14.92 12.07 14.58 12.33 14.41C12.59 14.24 12.93 14.31 13.1 14.57C13.27 14.83 13.2 15.17 12.94 15.34Z" fill="url(#paint56_radial_432_3530)"/>
</g>
</g>
<defs>
<radialGradient id="paint0_radial_432_3530" cx="0" cy="0" r="1" gradientUnits="userSpaceOnUse" gradientTransform="translate(26.6868 29.8811) rotate(-53.04) scale(28.5005 24.4697)">
<stop stop-color="#FFE906"/>
<stop offset="0.54238" stop-color="#FFE906" stop-opacity="0"/>
</radialGradient>
<radialGradient id="paint1_radial_432_3530" cx="0" cy="0" r="1" gradientUnits="userSpaceOnUse" gradientTransform="translate(4.29 21.72) scale(19.95 19.95)">
<stop stop-color="#FFED44"/>
<stop offset="1" stop-color="#FFAE00"/>
</radialGradient>
<radialGradient id="paint2_radial_432_3530" cx="0" cy="0" r="1" gradientUnits="userSpaceOnUse" gradientTransform="translate(8.38001 10.84) scale(33.2)">
<stop stop-color="#FFCC00"/>
<stop offset="1" stop-color="#ED8E00"/>
</radialGradient>
<radialGradient id="paint3_radial_432_3530" cx="0" cy="0" r="1" gradientUnits="userSpaceOnUse" gradientTransform="translate(4.98 18.82) scale(24.27 24.27)">
<stop stop-color="white"/>
<stop offset="1" stop-color="#FFECBA"/>
</radialGradient>
<radialGradient id="paint4_radial_432_3530" cx="0" cy="0" r="1" gradientUnits="userSpaceOnUse" gradientTransform="translate(15.03 22.68) scale(21.07 21.07)">
<stop stop-color="white"/>
<stop offset="1" stop-color="#FFECBA"/>
</radialGradient>
<radialGradient id="paint5_radial_432_3530" cx="0" cy="0" r="1" gradientUnits="userSpaceOnUse" gradientTransform="translate(1.68999 35.34) scale(18.85)">
<stop offset="0.54" stop-color="white"/>
<stop offset="0.58" stop-color="#FEF7F4"/>
<stop offset="0.66" stop-color="#FBE1D9"/>
<stop offset="0.75" stop-color="#F7BFAD"/>
<stop offset="0.86" stop-color="#F18F6F"/>
<stop offset="0.99" stop-color="#E95322"/>
<stop offset="1" stop-color="#E94E1B"/>
</radialGradient>
<radialGradient id="paint6_radial_432_3530" cx="0" cy="0" r="1" gradientUnits="userSpaceOnUse" gradientTransform="translate(25.87 34.09) scale(16.13 16.13)">
<stop offset="0.54" stop-color="white"/>
<stop offset="0.6" stop-color="#FAF6F4"/>
<stop offset="0.7" stop-color="#F0DFD9"/>
<stop offset="0.83" stop-color="#DEB9AD"/>
<stop offset="0.98" stop-color="#C68570"/>
<stop offset="1" stop-color="#C4806A"/>
</radialGradient>
<radialGradient id="paint7_radial_432_3530" cx="0" cy="0" r="1" gradientUnits="userSpaceOnUse" gradientTransform="translate(13.55 27.07) scale(11.94 11.94)">
<stop offset="0.54" stop-color="white"/>
<stop offset="0.58" stop-color="#FEF7F4"/>
<stop offset="0.66" stop-color="#FBE1D9"/>
<stop offset="0.75" stop-color="#F7BFAD"/>
<stop offset="0.86" stop-color="#F18F6F"/>
<stop offset="0.99" stop-color="#E95322"/>
<stop offset="1" stop-color="#E94E1B"/>
</radialGradient>
<radialGradient id="paint8_radial_432_3530" cx="0" cy="0" r="1" gradientUnits="userSpaceOnUse" gradientTransform="translate(16.88 19.87) scale(24.31 24.31)">
<stop offset="0.54" stop-color="white"/>
<stop offset="0.6" stop-color="#FAF6F4"/>
<stop offset="0.7" stop-color="#F0DFD9"/>
<stop offset="0.83" stop-color="#DEB9AD"/>
<stop offset="0.98" stop-color="#C68570"/>
<stop offset="1" stop-color="#C4806A"/>
</radialGradient>
<radialGradient id="paint9_radial_432_3530" cx="0" cy="0" r="1" gradientUnits="userSpaceOnUse" gradientTransform="translate(11.58 28.3) scale(25.31)">
<stop stop-color="#ED8E00"/>
<stop offset="1" stop-color="#FFCC00"/>
</radialGradient>
<radialGradient id="paint10_radial_432_3530" cx="0" cy="0" r="1" gradientUnits="userSpaceOnUse" gradientTransform="translate(24.86 26.27) scale(17.88 17.88)">
<stop stop-color="#FFAE00"/>
<stop offset="1" stop-color="#FFED44"/>
</radialGradient>
<linearGradient id="paint11_linear_432_3530" x1="4.94" y1="19.88" x2="32.23" y2="19.88" gradientUnits="userSpaceOnUse">
<stop stop-color="#FFEC70"/>
<stop offset="1" stop-color="#FC9C0D"/>
</linearGradient>
<radialGradient id="paint12_radial_432_3530" cx="0" cy="0" r="1" gradientUnits="userSpaceOnUse" gradientTransform="translate(18.0884 23.5196) scale(46.9299 27.4696)">
<stop stop-color="#FFE906"/>
<stop offset="0.54238" stop-color="#FFE906" stop-opacity="0"/>
</radialGradient>
<radialGradient id="paint13_radial_432_3530" cx="0" cy="0" r="1" gradientUnits="userSpaceOnUse" gradientTransform="translate(18.28 23.5) scale(27.45 27.45)">
<stop stop-color="#FFE906"/>
<stop offset="0.54238" stop-color="#FFE906" stop-opacity="0"/>
</radialGradient>
<radialGradient id="paint14_radial_432_3530" cx="0" cy="0" r="1" gradientUnits="userSpaceOnUse" gradientTransform="translate(18.2503 35.2836) scale(30.4645 26.1559)">
<stop stop-color="#FFE906"/>
<stop offset="0.54238" stop-color="#FFE906" stop-opacity="0"/>
</radialGradient>
<radialGradient id="paint15_radial_432_3530" cx="0" cy="0" r="1" gradientUnits="userSpaceOnUse" gradientTransform="translate(6.11588 21.8304) scale(11.6012 25.7834)">
<stop stop-color="#FFE906"/>
<stop offset="0.54238" stop-color="#FFE906" stop-opacity="0"/>
</radialGradient>
<radialGradient id="paint16_radial_432_3530" cx="0" cy="0" r="1" gradientUnits="userSpaceOnUse" gradientTransform="translate(24.9198 22.2527) scale(8.15279 26.2049)">
<stop stop-color="#FFE906"/>
<stop offset="0.54238" stop-color="#FFE906" stop-opacity="0"/>
</radialGradient>
<radialGradient id="paint17_radial_432_3530" cx="0" cy="0" r="1" gradientUnits="userSpaceOnUse" gradientTransform="translate(14.2886 23.5) scale(7.26215 27.45)">
<stop stop-color="#FFE906"/>
<stop offset="0.54238" stop-color="#FFE906" stop-opacity="0"/>
</radialGradient>
<radialGradient id="paint18_radial_432_3530" cx="0" cy="0" r="1" gradientUnits="userSpaceOnUse" gradientTransform="translate(32.0505 20.9562) scale(8.08427 24.9109)">
<stop stop-color="#FFE906"/>
<stop offset="0.54238" stop-color="#FFE906" stop-opacity="0"/>
</radialGradient>
<radialGradient id="paint19_radial_432_3530" cx="0" cy="0" r="1" gradientUnits="userSpaceOnUse" gradientTransform="translate(34.6612 20.6329) scale(8.01577 16.3131)">
<stop stop-color="#FFE906"/>
<stop offset="0.54238" stop-color="#FFE906" stop-opacity="0"/>
</radialGradient>
<radialGradient id="paint20_radial_432_3530" cx="0" cy="0" r="1" gradientUnits="userSpaceOnUse" gradientTransform="translate(2.34002 19.0352) scale(8.12995 16.7347)">
<stop stop-color="#FFE906"/>
<stop offset="0.54238" stop-color="#FFE906" stop-opacity="0"/>
</radialGradient>
<radialGradient id="paint21_radial_432_3530" cx="0" cy="0" r="1" gradientUnits="userSpaceOnUse" gradientTransform="translate(9.58285 28.0042) scale(8.35261 30.8237)">
<stop stop-color="#FFE906"/>
<stop offset="0.54238" stop-color="#FFE906" stop-opacity="0"/>
</radialGradient>
<radialGradient id="paint22_radial_432_3530" cx="0" cy="0" r="1" gradientUnits="userSpaceOnUse" gradientTransform="translate(27.4809 31.9538) scale(7.53098 29.1352)">
<stop stop-color="#FFE906"/>
<stop offset="0.54238" stop-color="#FFE906" stop-opacity="0"/>
</radialGradient>
<radialGradient id="paint23_radial_432_3530" cx="0" cy="0" r="1" gradientUnits="userSpaceOnUse" gradientTransform="translate(6.44097 29.4836) scale(9.5596 26.0035)">
<stop stop-color="#FFE906"/>
<stop offset="0.54238" stop-color="#FFE906" stop-opacity="0"/>
</radialGradient>
<radialGradient id="paint24_radial_432_3530" cx="0" cy="0" r="1" gradientUnits="userSpaceOnUse" gradientTransform="translate(23.5911 33.5159) scale(4.9732 28.8243)">
<stop stop-color="#FFE906"/>
<stop offset="0.54238" stop-color="#FFE906" stop-opacity="0"/>
</radialGradient>
<radialGradient id="paint25_radial_432_3530" cx="0" cy="0" r="1" gradientUnits="userSpaceOnUse" gradientTransform="translate(14.9672 21.785) rotate(90) scale(0.97699 0.974784)">
<stop stop-color="#FFA900"/>
<stop offset="1" stop-color="#FFA900" stop-opacity="0"/>
</radialGradient>
<radialGradient id="paint26_radial_432_3530" cx="0" cy="0" r="1" gradientUnits="userSpaceOnUse" gradientTransform="translate(19.535 21.025) rotate(90) scale(0.734926)">
<stop stop-color="#FFA900"/>
<stop offset="1" stop-color="#FFA900" stop-opacity="0"/>
</radialGradient>
<radialGradient id="paint27_radial_432_3530" cx="0" cy="0" r="1" gradientUnits="userSpaceOnUse" gradientTransform="translate(13.41 11.38) rotate(90) scale(0.608647)">
<stop stop-color="#FFA900"/>
<stop offset="1" stop-color="#FFA900" stop-opacity="0"/>
</radialGradient>
<radialGradient id="paint28_radial_432_3530" cx="0" cy="0" r="1" gradientUnits="userSpaceOnUse" gradientTransform="translate(22.025 14.485) rotate(90) scale(0.734926)">
<stop stop-color="#FFA900"/>
<stop offset="1" stop-color="#FFA900" stop-opacity="0"/>
</radialGradient>
<radialGradient id="paint29_radial_432_3530" cx="0" cy="0" r="1" gradientUnits="userSpaceOnUse" gradientTransform="translate(18.35 11.08) rotate(90) scale(0.717388)">
<stop stop-color="#FFA900"/>
<stop offset="1" stop-color="#FFA900" stop-opacity="0"/>
</radialGradient>
<radialGradient id="paint30_radial_432_3530" cx="0" cy="0" r="1" gradientUnits="userSpaceOnUse" gradientTransform="translate(17.455 18.095) rotate(90) scale(1.72642)">
<stop stop-color="#FFA900"/>
<stop offset="1" stop-color="#FFA900" stop-opacity="0"/>
</radialGradient>
<radialGradient id="paint31_radial_432_3530" cx="0" cy="0" r="1" gradientUnits="userSpaceOnUse" gradientTransform="translate(22.345 17.5072) rotate(90) scale(1.27283 1.27504)">
<stop stop-color="#FFA900"/>
<stop offset="1" stop-color="#FFA900" stop-opacity="0"/>
</radialGradient>
<radialGradient id="paint32_radial_432_3530" cx="0" cy="0" r="1" gradientUnits="userSpaceOnUse" gradientTransform="translate(25.405 11.725) rotate(90) scale(0.916596)">
<stop stop-color="#FFA900"/>
<stop offset="1" stop-color="#FFA900" stop-opacity="0"/>
</radialGradient>
<radialGradient id="paint33_radial_432_3530" cx="0" cy="0" r="1" gradientUnits="userSpaceOnUse" gradientTransform="translate(7.975 17.535) rotate(90) scale(1.52269)">
<stop stop-color="#FFA900"/>
<stop offset="1" stop-color="#FFA900" stop-opacity="0"/>
</radialGradient>
<radialGradient id="paint34_radial_432_3530" cx="0" cy="0" r="1" gradientUnits="userSpaceOnUse" gradientTransform="translate(25.345 16.645) rotate(90) scale(0.940522)">
<stop stop-color="#FFA900"/>
<stop offset="1" stop-color="#FFA900" stop-opacity="0"/>
</radialGradient>
<radialGradient id="paint35_radial_432_3530" cx="0" cy="0" r="1" gradientUnits="userSpaceOnUse" gradientTransform="translate(17.265 16.805) rotate(90) scale(0.664537)">
<stop stop-color="#FFA900"/>
<stop offset="1" stop-color="#FFA900" stop-opacity="0"/>
</radialGradient>
<radialGradient id="paint36_radial_432_3530" cx="0" cy="0" r="1" gradientUnits="userSpaceOnUse" gradientTransform="translate(19.535 14.945) rotate(90) scale(0.972577)">
<stop stop-color="#FFA900"/>
<stop offset="1" stop-color="#FFA900" stop-opacity="0"/>
</radialGradient>
<radialGradient id="paint37_radial_432_3530" cx="0" cy="0" r="1" gradientUnits="userSpaceOnUse" gradientTransform="translate(28.845 19.005) rotate(90) scale(0.664537)">
<stop stop-color="#FFA900"/>
<stop offset="1" stop-color="#FFA900" stop-opacity="0"/>
</radialGradient>
<radialGradient id="paint38_radial_432_3530" cx="0" cy="0" r="1" gradientUnits="userSpaceOnUse" gradientTransform="translate(15.48 13.81) rotate(90) scale(1.18572)">
<stop stop-color="#FFA900"/>
<stop offset="1" stop-color="#FFA900" stop-opacity="0"/>
</radialGradient>
<radialGradient id="paint39_radial_432_3530" cx="0" cy="0" r="1" gradientUnits="userSpaceOnUse" gradientTransform="translate(18.82 21.06) rotate(90) scale(0.298056)">
<stop stop-color="#FFA900"/>
<stop offset="1" stop-color="#FFA900" stop-opacity="0"/>
</radialGradient>
<radialGradient id="paint40_radial_432_3530" cx="0" cy="0" r="1" gradientUnits="userSpaceOnUse" gradientTransform="translate(23.53 19.86) rotate(90) scale(0.298056)">
<stop stop-color="#FFA900"/>
<stop offset="1" stop-color="#FFA900" stop-opacity="0"/>
</radialGradient>
<radialGradient id="paint41_radial_432_3530" cx="0" cy="0" r="1" gradientUnits="userSpaceOnUse" gradientTransform="translate(25.405 17.4928) rotate(90) scale(0.412123 0.409914)">
<stop stop-color="#FFA900"/>
<stop offset="1" stop-color="#FFA900" stop-opacity="0"/>
</radialGradient>
<radialGradient id="paint42_radial_432_3530" cx="0" cy="0" r="1" gradientUnits="userSpaceOnUse" gradientTransform="translate(19.18 14.18) rotate(90) scale(0.298056)">
<stop stop-color="#FFA900"/>
<stop offset="1" stop-color="#FFA900" stop-opacity="0"/>
</radialGradient>
<radialGradient id="paint43_radial_432_3530" cx="0" cy="0" r="1" gradientUnits="userSpaceOnUse" gradientTransform="translate(17.18 8.71001) rotate(90) scale(0.298056)">
<stop stop-color="#FFA900"/>
<stop offset="1" stop-color="#FFA900" stop-opacity="0"/>
</radialGradient>
<radialGradient id="paint44_radial_432_3530" cx="0" cy="0" r="1" gradientUnits="userSpaceOnUse" gradientTransform="translate(11.32 15.49) rotate(90) scale(0.298056)">
<stop stop-color="#FFA900"/>
<stop offset="1" stop-color="#FFA900" stop-opacity="0"/>
</radialGradient>
<radialGradient id="paint45_radial_432_3530" cx="0" cy="0" r="1" gradientUnits="userSpaceOnUse" gradientTransform="translate(19.18 5.31001) rotate(90) scale(0.562666)">
<stop stop-color="#FFA900"/>
<stop offset="1" stop-color="#FFA900" stop-opacity="0"/>
</radialGradient>
<radialGradient id="paint46_radial_432_3530" cx="0" cy="0" r="1" gradientUnits="userSpaceOnUse" gradientTransform="translate(10.065 12.315) rotate(90) scale(0.962577)">
<stop stop-color="#FFA900"/>
<stop offset="1" stop-color="#FFA900" stop-opacity="0"/>
</radialGradient>
<radialGradient id="paint47_radial_432_3530" cx="0" cy="0" r="1" gradientUnits="userSpaceOnUse" gradientTransform="translate(10.305 13.255) rotate(90) scale(0.651988)">
<stop stop-color="#FFA900"/>
<stop offset="1" stop-color="#FFA900" stop-opacity="0"/>
</radialGradient>
<radialGradient id="paint48_radial_432_3530" cx="0" cy="0" r="1" gradientUnits="userSpaceOnUse" gradientTransform="translate(21.785 9.745) rotate(90) scale(0.506779)">
<stop stop-color="#FFA900"/>
<stop offset="1" stop-color="#FFA900" stop-opacity="0"/>
</radialGradient>
<radialGradient id="paint49_radial_432_3530" cx="0" cy="0" r="1" gradientUnits="userSpaceOnUse" gradientTransform="translate(25.905 14.445) rotate(90) scale(0.339519)">
<stop stop-color="#FFA900"/>
<stop offset="1" stop-color="#FFA900" stop-opacity="0"/>
</radialGradient>
<radialGradient id="paint50_radial_432_3530" cx="0" cy="0" r="1" gradientUnits="userSpaceOnUse" gradientTransform="translate(9.12999 16.88) rotate(90) scale(0.931106)">
<stop stop-color="#FFA900"/>
<stop offset="1" stop-color="#FFA900" stop-opacity="0"/>
</radialGradient>
<radialGradient id="paint51_radial_432_3530" cx="0" cy="0" r="1" gradientUnits="userSpaceOnUse" gradientTransform="translate(16.315 13.845) rotate(90) scale(0.497279)">
<stop stop-color="#FFA900"/>
<stop offset="1" stop-color="#FFA900" stop-opacity="0"/>
</radialGradient>
<radialGradient id="paint52_radial_432_3530" cx="0" cy="0" r="1" gradientUnits="userSpaceOnUse" gradientTransform="translate(21.34 18.17) rotate(90) scale(0.586589 0.582173)">
<stop stop-color="#FFA900"/>
<stop offset="1" stop-color="#FFA900" stop-opacity="0"/>
</radialGradient>
<radialGradient id="paint53_radial_432_3530" cx="0" cy="0" r="1" gradientUnits="userSpaceOnUse" gradientTransform="translate(20.355 13.055) rotate(90) scale(0.450798)">
<stop stop-color="#FFA900"/>
<stop offset="1" stop-color="#FFA900" stop-opacity="0"/>
</radialGradient>
<radialGradient id="paint54_radial_432_3530" cx="0" cy="0" r="1" gradientUnits="userSpaceOnUse" gradientTransform="translate(29.315 18.505) rotate(90) scale(0.33952)">
<stop stop-color="#FFA900"/>
<stop offset="1" stop-color="#FFA900" stop-opacity="0"/>
</radialGradient>
<radialGradient id="paint55_radial_432_3530" cx="0" cy="0" r="1" gradientUnits="userSpaceOnUse" gradientTransform="translate(12.055 16.115) rotate(90) scale(1.52269)">
<stop stop-color="#FFA900"/>
<stop offset="1" stop-color="#FFA900" stop-opacity="0"/>
</radialGradient>
<radialGradient id="paint56_radial_432_3530" cx="0" cy="0" r="1" gradientUnits="userSpaceOnUse" gradientTransform="translate(12.635 14.875) rotate(90) scale(0.557667)">
<stop stop-color="#FFA900"/>
<stop offset="1" stop-color="#FFA900" stop-opacity="0"/>
</radialGradient>
<clipPath id="clip0_432_3530">
<rect width="38" height="38" fill="white"/>
</clipPath>
<clipPath id="clip1_432_3530">
<rect width="41.1" height="42.29" fill="white" transform="translate(-2 -4)"/>
</clipPath>
</defs>
</svg>
