<svg width="39" height="36" viewBox="0 0 39 36" fill="none" xmlns="http://www.w3.org/2000/svg">
<g filter="url(#filter0_d_192_4183)">
<g clip-path="url(#clip0_192_4183)">
<path d="M28.191 27.5925C28.191 27.5925 28.191 27.5925 28.1789 27.5925C28.1246 27.6045 27.9256 27.6407 27.618 27.6829H27.612C26.7978 27.7975 25.278 27.9483 24.0536 27.6829C24.0476 27.6829 24.0355 27.6829 24.0235 27.6829L19.7836 25.5057L18.9211 25.0654L18.5171 25.3368L15.3567 27.4417L15.0552 27.6467C15.0552 27.6467 15.0552 27.6467 15.0371 27.6467C14.9949 27.6467 14.8622 27.6648 14.6752 27.6829C14.6511 27.6829 14.627 27.689 14.6029 27.689C13.662 27.7734 11.5029 27.9302 10.5258 27.6407C10.5137 27.6407 10.5077 27.6407 10.4957 27.6347C10.3569 27.5925 10.3087 27.4357 10.3268 27.2004C10.4233 26.0787 12.0999 22.9907 13.5595 20.4757C14.6752 18.5578 15.6462 16.9958 15.6462 16.9958L15.8091 15.0417L16.3036 9.2699L17.0394 0.65745L17.0696 0.247333C17.0696 0.247333 19.7233 -0.313561 21.4482 0.247333C21.4602 0.247333 21.4602 0.247334 21.4723 0.259396C22.0875 0.554921 23.2213 4.59578 24.3673 9.43877C24.6869 10.7958 25.0066 12.201 25.3141 13.6123C25.6278 15.0417 25.9353 16.4711 26.2188 17.8281C27.3406 23.1837 28.1669 27.5864 28.1669 27.5864L28.191 27.5925Z" fill="url(#paint0_linear_192_4183)"/>
<path d="M28.5828 19.1429C28.5828 19.1429 30.0966 26.3139 28.4199 27.4779C28.3536 27.5262 28.2752 27.5624 28.1968 27.5925C28.1968 27.5925 28.1968 27.5925 28.1847 27.5925C28.0219 27.6528 27.8289 27.683 27.6238 27.683H27.6178C26.9423 27.683 26.0678 27.3875 25.1812 26.9834C23.209 26.0847 21.1524 24.6192 21.1524 24.6192C21.1524 24.6192 20.6036 25.0052 19.7954 25.4997C19.6386 25.5962 19.4758 25.6927 19.3009 25.8013C19.3009 25.8013 19.2948 25.8013 19.2888 25.8073C19.2888 25.8073 19.2767 25.8133 19.2586 25.8254C17.974 26.5793 16.3034 27.4478 15.073 27.6408C15.073 27.6408 15.073 27.6408 15.0549 27.6408C14.9283 27.6589 14.8077 27.677 14.6931 27.677C14.6689 27.677 14.6448 27.683 14.6207 27.683C14.4036 27.683 14.2046 27.6589 14.0357 27.5986C13.9452 27.5624 13.8668 27.5201 13.7944 27.4719C13.6376 27.3573 13.511 27.1945 13.4084 26.9894C12.739 25.6203 13.2215 22.3515 13.5833 20.4698C13.7341 19.6737 13.8608 19.1369 13.8608 19.1369C13.8608 19.1369 11.0503 16.9054 9.34346 14.7281C8.50514 13.6666 7.93821 12.6172 8.09502 11.8694C8.35436 10.6451 10.604 9.98766 12.7028 9.63785C14.3191 9.36645 15.845 9.28202 16.3335 9.26392C16.4361 9.25789 16.4903 9.25789 16.4903 9.25789C16.4903 9.25789 17.7267 5.03007 19.3009 2.34019C19.9884 1.16412 20.7302 0.295636 21.4298 0.253418C21.4479 0.253418 21.466 0.253418 21.4902 0.253418C21.5806 0.253418 21.6771 0.26548 21.7736 0.301667C24.0413 1.00128 26.2367 9.26392 26.2367 9.26392C26.2367 9.26392 34.1193 9.50517 34.5656 11.8754C34.9939 14.1733 28.6009 19.1429 28.6009 19.1429H28.5828Z" fill="url(#paint1_linear_192_4183)"/>
<path d="M24.717 19.1429C24.717 19.1429 26.1222 25.0353 25.1693 26.9894C25.0728 27.2005 24.9461 27.3633 24.7833 27.4779C24.5903 27.6166 24.343 27.683 24.0475 27.689C22.793 27.7252 20.7726 26.6879 19.2829 25.8073C19.0055 25.6445 18.7461 25.4877 18.517 25.3369C17.8596 24.9268 17.4253 24.6252 17.4253 24.6252C17.4253 24.6252 15.3627 26.0908 13.3965 26.9954C12.8175 27.2548 12.2446 27.4719 11.7319 27.5865C11.2796 27.6951 10.8635 27.7252 10.5378 27.6408C10.5257 27.6408 10.5197 27.6408 10.5076 27.6347C10.3749 27.5986 10.2543 27.5503 10.1518 27.4779C8.51132 26.3441 9.92261 19.4746 9.98895 19.155C9.98895 19.1489 9.98895 19.1429 9.98895 19.1429C9.98895 19.1429 3.59595 14.1733 4.01813 11.8754C4.47047 9.50517 12.3471 9.26392 12.3471 9.26392C12.3471 9.26392 14.7354 0.253418 17.0936 0.253418C17.8174 0.253418 18.5773 1.13999 19.289 2.34622C20.857 5.0361 22.0934 9.26392 22.0934 9.26392C22.0934 9.26392 23.0886 9.29408 24.3913 9.44486C25.881 9.6077 27.7687 9.92132 29.0533 10.5124C29.8193 10.8622 30.3681 11.3085 30.4888 11.8754C30.8205 13.4194 28.0582 16.2118 26.2489 17.8342C25.3804 18.6182 24.723 19.1429 24.723 19.1429H24.717Z" fill="url(#paint2_linear_192_4183)"/>
<g style="mix-blend-mode:soft-light">
<path d="M22.0873 9.26389C22.0873 9.26389 25.3019 9.17342 26.671 9.28802C31.9965 9.73432 33.4198 10.6209 33.8299 11.2361C34.24 11.8512 30.8204 11.2964 30.5792 11.2843C30.3379 11.2723 30.1751 10.4098 27.3043 10.0359C24.4214 9.65591 22.0873 9.26389 22.0873 9.26389Z" fill="white"/>
</g>
<g style="mix-blend-mode:multiply" opacity="0.5">
<path d="M28.5827 19.1428C27.8469 19.3659 25.6456 19.1789 25.3259 19.1428C25.0063 19.1066 29.5417 15.126 30.4162 13.5278C31.3088 11.8933 33.9263 12.0743 34.3183 12.3638C34.7104 12.6472 32.6417 15.4155 31.2666 16.8147C29.9156 18.1838 28.5827 19.1428 28.5827 19.1428Z" fill="#6E5066"/>
</g>
<g style="mix-blend-mode:soft-light">
<path d="M27.7688 12.7801C27.0511 13.0816 26.2308 13.3651 25.3382 13.6184C22.594 14.3964 19.1382 14.903 15.8211 15.0478C13.4991 15.1443 11.2374 15.0538 9.32557 14.7402C7.18452 14.3964 5.45358 13.7631 4.55494 12.7861C4.33782 12.5569 4.16292 12.2433 4.01817 11.8754C4.09658 11.4834 4.37401 11.1456 4.80222 10.8561C4.80222 10.8561 4.80222 10.8561 4.80825 10.8561C4.88666 10.8019 4.97712 10.7476 5.07362 10.6933C5.08568 10.6873 5.09775 10.6812 5.11584 10.6692C7.40164 9.4147 12.3472 9.26392 12.3472 9.26392C12.3472 9.26392 14.7355 0.253418 17.0937 0.253418C17.2927 0.253418 17.5038 0.31976 17.7028 0.452445C18.2396 0.772095 18.7763 1.47774 19.283 2.34622C20.8511 5.0361 22.0874 9.26392 22.0874 9.26392C22.0874 9.26392 23.0826 9.29408 24.3853 9.44486C25.875 9.6077 27.7627 9.92132 29.0474 10.5124C29.2464 11.5015 28.9026 12.2915 27.7688 12.7801Z" fill="white"/>
</g>
<g style="mix-blend-mode:multiply" opacity="0.2">
<path d="M5.12169 13.7571C4.21099 14.1491 6.55106 16.2721 8.52324 17.4481C10.4592 18.6061 25.7361 15.1684 27.1413 15.476C28.5345 15.7835 30.7781 13.2505 30.374 12.1709C29.9699 11.0732 29.3005 10.9647 29.3005 11.1516C29.3005 11.3386 28.4622 12.9308 26.6106 13.3952C24.7711 13.8536 10.4351 14.9332 8.78861 15.0779C7.14815 15.2166 5.26643 13.6968 5.12169 13.7571Z" fill="#161616"/>
</g>
<g style="mix-blend-mode:soft-light">
<path d="M10.5497 27.3572C9.16255 27.0436 9.33746 23.2802 10.212 22.2428C11.0985 21.1934 22.045 21.2839 24.1439 21.9232C26.2246 22.5564 25.3199 26.9169 24.5902 27.3572C23.8664 27.7975 17.775 24.1426 17.2805 24.2572C16.7859 24.3658 13.2396 27.9664 10.5497 27.3572Z" fill="white"/>
</g>
<path d="M22.8229 17.5688L21.9604 18.2684L22.2137 19.2575C22.7505 21.3503 23.04 23.5336 22.9978 24.7398C22.9978 24.8665 22.9857 24.975 22.9736 25.0776C21.9604 24.7398 20.145 23.7447 18.6312 22.6711L17.8351 22.1042L17.3949 21.7906L16.1886 22.6711C15.0427 23.4974 13.7279 24.2754 12.7268 24.7398C12.4192 24.8846 12.1417 24.9992 11.9126 25.0776C11.7557 23.9678 11.9849 21.5554 12.5096 19.2515L12.7388 18.2624L11.8522 17.5628C9.75341 15.8861 7.67871 13.7089 7.2505 12.7379C8.05264 12.2674 10.6279 11.791 12.9258 11.7126L14.4155 11.6643L14.8015 10.3254C15.4408 8.05169 16.4118 5.6513 17.1596 4.38477C17.3164 4.6441 17.4853 4.94566 17.6602 5.2834C18.3478 6.62231 19.1198 8.51006 19.6807 10.3254L20.0968 11.6643L21.5925 11.7126C23.8904 11.785 26.4777 12.2614 27.2919 12.7318C26.8939 13.7029 24.8855 15.8801 22.8229 17.5567V17.5688Z" fill="url(#paint3_linear_192_4183)"/>
<path d="M27.2922 12.7501C26.9243 13.6427 25.2054 15.5425 23.3418 17.1407C23.1729 17.2855 22.998 17.4302 22.8231 17.575L21.9667 18.2746L22.214 19.2637C22.7568 21.3565 23.0403 23.5397 22.992 24.746C21.9788 24.2816 20.6519 23.5036 19.4879 22.6773L18.2576 21.8028H17.3891L16.1829 22.6773C15.037 23.5036 13.7222 24.2816 12.721 24.746C12.715 24.5952 12.7089 24.4203 12.7089 24.2394C12.7089 24.0283 12.715 23.7991 12.7331 23.5578C12.7934 22.5265 12.9683 21.2238 13.2457 19.909C13.2879 19.6919 13.3362 19.4748 13.3905 19.2576L13.6196 18.2685L12.7391 17.5689C10.6463 15.8983 8.58968 13.715 8.17353 12.744C8.97567 12.2676 11.557 11.7971 13.8549 11.7187L15.3445 11.6705L15.7305 10.3316C16.2552 8.52223 16.991 6.62846 17.6545 5.28955C18.342 6.62846 19.114 8.52223 19.6749 10.3316L20.091 11.6705L21.5807 11.7187C23.8846 11.7911 26.472 12.2676 27.2862 12.738L27.2922 12.7501Z" fill="url(#paint4_linear_192_4183)"/>
<path d="M17.389 21.7966C17.389 21.7966 18.2273 21.7725 18.553 22.0077C18.8787 22.2429 21.0137 23.6904 21.0076 23.9316C21.0076 24.1668 18.758 22.7978 17.3829 21.8026L17.389 21.7966Z" fill="black"/>
<g style="mix-blend-mode:soft-light">
<path d="M11.9009 25.0834C11.5933 24.9689 12.2266 22.9725 12.4558 22.8037C12.685 22.6348 12.6247 24.613 12.7151 24.7397C12.7151 24.7397 12.1603 25.0955 11.9009 25.0774V25.0834Z" fill="white"/>
</g>
<g style="mix-blend-mode:multiply" opacity="0.5">
<path d="M12.7268 18.2681H13.6194C13.6194 18.2681 12.7087 20.9338 12.57 21.6455C12.4373 22.3511 11.997 20.8856 12.7268 18.2681Z" fill="#7E527C"/>
</g>
<g style="mix-blend-mode:multiply" opacity="0.5">
<path d="M7.76922 13.5767C7.20833 12.5695 15.4589 12.9313 15.4589 12.9313C15.4589 12.9313 17.1416 7.44904 18.384 6.85196C18.384 6.85196 17.3406 4.40936 17.1537 4.40332C16.9667 4.39729 14.4095 11.6769 14.4095 11.6769C14.4095 11.6769 10.7426 11.5381 7.24451 12.7504L7.77525 13.5767H7.76922Z" fill="#7E527C"/>
</g>
<g style="mix-blend-mode:multiply" opacity="0.5">
<path d="M20.097 11.6821C20.097 11.6821 26.297 12.7496 26.8759 13.3226L27.2921 12.7496C27.2921 12.7496 25.3863 11.8148 20.097 11.6821Z" fill="#7E527C"/>
</g>
<g style="mix-blend-mode:multiply" opacity="0.5">
<path d="M19.2707 0.928823C18.1007 0.928823 19.7954 2.94925 20.6217 4.83699C21.4298 6.67649 25.2717 6.70061 25.2717 6.70061C25.2717 6.70061 23.6312 1.94205 22.6119 1.36909C21.5806 0.796138 19.2647 0.928823 19.2647 0.928823H19.2707Z" fill="#6E5066"/>
</g>
<g style="mix-blend-mode:multiply" opacity="0.5">
<path d="M24.747 27.7979C24.5057 27.617 25.2596 27.7376 25.5793 26.4047C25.8989 25.0477 28.7697 25.1985 29.0532 25.3493C29.3306 25.5 28.8783 27.1827 28.426 27.4783C27.9736 27.7738 24.753 27.7979 24.753 27.7979H24.747Z" fill="#6E5066"/>
</g>
<g style="mix-blend-mode:soft-light">
<path d="M25.851 25.2525C25.5314 25.1439 25.5615 22.0318 25.5736 21.4468C25.5856 20.8558 28.7037 21.103 28.8605 21.4468C29.0174 21.7906 29.1561 24.8785 28.9751 25.0836C28.8002 25.2887 26.0561 25.3248 25.851 25.2525Z" fill="white"/>
</g>
<g style="mix-blend-mode:soft-light" opacity="0.5">
<path d="M15.5797 27.4295C16.2913 27.3029 17.8172 26.6153 17.8715 26.4103C17.9258 26.1992 16.1828 26.0183 15.7847 25.976C15.3867 25.9338 13.0225 27.321 12.8415 27.4295C12.6666 27.5381 15.5736 27.4295 15.5736 27.4295H15.5797Z" fill="white"/>
</g>
<g style="mix-blend-mode:multiply" opacity="0.5">
<path d="M17.4614 24.7456C17.1297 24.8602 15.9476 25.602 15.9054 25.795C15.8692 25.988 17.7208 26.2112 17.962 26.2594C18.2033 26.3016 19.2647 25.8191 19.2647 25.8191C19.2647 25.8191 17.5217 24.7275 17.4554 24.7516L17.4614 24.7456Z" fill="#6E5066"/>
</g>
<g style="mix-blend-mode:multiply" opacity="0.5">
<path d="M30.8263 13.1538C30.6152 13.389 29.4452 14.8003 29.4633 15.1561C29.4813 15.5119 32.7623 15.1078 32.9673 14.8364C33.1724 14.565 34.638 12.5808 34.3243 12.3577C34.0047 12.1345 31.4475 12.4662 30.8323 13.1477L30.8263 13.1538Z" fill="#6E5066"/>
</g>
<path d="M22.0933 9.26416C22.0933 9.26416 28.8844 9.92155 29.8011 11.2725C31.1882 13.3231 26.7795 17.3579 26.7795 17.3579C26.7795 17.3579 31.1762 13.4498 30.567 11.5258C29.9398 9.54762 22.0933 9.26416 22.0933 9.26416Z" fill="#EED6DD"/>
<path d="M29.9337 10.7955C29.415 10.5542 30.2111 11.8268 30.0905 12.7556C29.9699 13.6723 30.6273 12.4902 30.6152 11.863C30.6032 11.2297 29.9337 10.7955 29.9337 10.7955Z" fill="white"/>
<g style="mix-blend-mode:soft-light">
<path d="M18.1491 0.802191C16.7981 0.301607 17.6123 5.04811 19.0296 8.46172C20.3866 11.7306 21.7496 10.4339 22.0271 9.58351C22.3105 8.72709 19.2648 1.64052 18.1491 0.802191Z" fill="white"/>
</g>
<path d="M19.5423 3.86636C18.5653 3.74574 19.1262 6.71908 19.7353 7.76247C20.3324 8.79379 21.1948 8.11227 21.219 7.2076C21.2431 6.29087 19.9162 3.90858 19.5423 3.86636Z" fill="white"/>
<g style="mix-blend-mode:soft-light">
<path d="M17.9739 0.338017C17.5336 0.470702 19.2103 0.784321 20.4889 0.929068C21.7675 1.07985 22.0811 1.09191 22.0751 0.766227C22.063 0.434515 20.3441 -0.385718 17.9739 0.338017Z" fill="white"/>
</g>
<g style="mix-blend-mode:soft-light">
<path d="M24.7291 27.6887C24.6145 27.5741 27.9859 27.1338 28.3236 27.1941C28.6614 27.2544 27.8894 27.6163 27.8894 27.6163C27.8894 27.6163 25.6458 27.9842 24.7291 27.6826V27.6887Z" fill="white"/>
</g>
<g style="mix-blend-mode:soft-light" opacity="0.5">
<path d="M22.214 19.2577C22.7568 21.3505 23.0402 23.5338 22.992 24.74C21.9787 24.2756 20.6519 23.4976 19.4879 22.6713L18.2575 21.7968H17.389L16.1828 22.6713C15.0369 23.4976 13.7221 24.2756 12.721 24.74C12.7149 24.5892 12.7089 24.4143 12.7089 24.2334L13.0044 23.9499C12.8898 23.9318 12.7933 23.7871 12.733 23.5519C12.54 22.8643 12.6124 21.3746 13.2457 19.903C13.7342 18.7813 14.5484 17.6655 15.8089 16.9478C19.3974 14.9093 23.3357 17.1287 23.3357 17.1287C23.1669 17.2735 22.992 17.4182 22.8171 17.563L21.9606 18.2626L22.2079 19.2517L22.214 19.2577Z" fill="white"/>
</g>
<path d="M9.74141 26.4466C9.60873 25.566 9.94647 24.9629 10.2601 24.9991C10.5737 25.0293 10.9899 27.0316 10.6943 27.2668C10.4048 27.502 9.77157 26.6818 9.73538 26.4466H9.74141Z" fill="white"/>
<g style="mix-blend-mode:multiply" opacity="0.8">
<path d="M19.2407 25.8312C17.956 26.5851 16.2854 27.4536 15.0551 27.6466C15.0551 27.6466 15.0551 27.6466 15.037 27.6466C14.9103 27.6647 14.7897 27.6828 14.6751 27.6828C14.651 27.6828 14.6269 27.6888 14.6027 27.6888C13.6619 27.7733 11.5027 27.9301 10.5257 27.6406C10.5136 27.6406 10.5076 27.6406 10.4955 27.6346C10.3629 27.5984 10.2422 27.5501 10.1397 27.4777C8.49924 26.3439 9.91052 19.4744 9.97687 19.1548C9.93465 19.4624 9.15663 25.3186 9.84418 26.7299C9.94068 26.9229 10.1035 27.0797 10.3267 27.2003C10.6765 27.4054 11.171 27.526 11.7199 27.5863C12.4436 27.6707 13.2699 27.6587 14.0177 27.6044C14.5123 27.5622 14.9767 27.5079 15.3506 27.4476C15.6944 27.3933 15.9658 27.333 16.1286 27.2787C17.0152 26.9953 18.9632 25.976 19.2346 25.8373L19.2407 25.8312Z" fill="#7E527C"/>
</g>
<g style="mix-blend-mode:multiply" opacity="0.8">
<path d="M21.7613 0.295754C21.7613 0.295754 21.6708 0.283692 21.502 0.259567C21.4778 0.259567 21.4477 0.259567 21.4175 0.247505C20.724 0.175132 19.1076 0.0665714 17.7084 0.440501C17.4852 0.494781 17.2681 0.567155 17.0631 0.651591C16.9786 0.681746 16.8942 0.705871 16.8158 0.760151C13.4564 2.94945 12.6905 9.63797 12.6905 9.63797C12.6905 9.63797 6.64127 10.0541 5.11539 10.6572C7.40119 9.40276 12.3467 9.25198 12.3467 9.25198C12.3467 9.25198 14.735 0.241474 17.0932 0.241474C17.0932 0.241474 19.7469 -0.319421 21.4718 0.241474C21.5623 0.241474 21.6588 0.253536 21.7553 0.289723L21.7613 0.295754Z" fill="#7E527C"/>
</g>
<path d="M28.818 15.4759C28.8059 14.6255 26.8217 16.2961 26.683 16.6278C26.5443 16.9596 26.4357 17.3998 26.5322 17.5446C26.6287 17.6893 28.625 17.237 28.818 15.4759Z" fill="#63495F"/>
<g style="mix-blend-mode:multiply" opacity="0.5">
<path d="M28.6431 15.2946C28.0942 15.2403 27.4368 15.8133 27.3765 16.4103C27.3162 17.0014 27.9193 16.9954 28.432 16.4103C28.9507 15.8193 28.7878 15.3067 28.637 15.2946H28.6431Z" fill="#5B3952"/>
</g>
<path d="M26.7012 16.5796C26.7012 16.5796 26.6771 17.0681 26.852 17.1887C27.1415 17.3878 27.7868 17.1345 27.7868 17.1345C27.7868 17.1345 27.045 17.6531 26.5142 17.6953C25.9835 17.7376 26.7012 16.5796 26.7012 16.5796Z" fill="#A89AA6"/>
<path d="M26.3692 17.6414C26.2004 17.4243 27.2377 17.4122 27.3222 17.3881C27.4126 17.364 26.5502 17.8525 26.3692 17.6414Z" fill="white"/>
<path d="M14.1927 26.6214C14.0601 26.5973 14.3315 26.0243 14.6511 25.9218C14.9708 25.8193 15.4171 25.8253 15.399 26.0424C15.3809 26.2535 14.832 26.73 14.1927 26.6214Z" fill="#63495F"/>
<path d="M14.4337 26.0605C14.1864 26.6214 14.5664 26.5732 14.9403 26.4948C14.9403 26.4948 14.5241 26.7119 13.9572 26.724C13.9572 26.724 14.0175 26.3681 14.4337 26.0605Z" fill="#A89AA6"/>
<path d="M14.0117 26.7181C13.9755 26.6759 14.2167 26.519 14.3675 26.519C14.5183 26.519 14.663 26.5794 14.6751 26.6035C14.6872 26.6276 14.3012 26.7663 14.0117 26.7181Z" fill="white"/>
<g style="mix-blend-mode:multiply" opacity="0.5">
<path d="M14.868 25.8737C14.3674 26.121 14.5182 26.4949 14.9163 26.4587C15.3143 26.4225 15.447 26.0245 15.3565 25.94C15.2661 25.8556 14.868 25.8737 14.868 25.8737Z" fill="#5B3952"/>
</g>
<g style="mix-blend-mode:soft-light">
<path d="M10.8996 15.9643C9.80794 15.4215 11.5208 17.3152 11.9972 17.6892C12.4737 18.0631 12.727 18.2682 12.727 18.2682H13.6196C13.6196 18.2682 11.3218 16.1512 10.8996 15.9643Z" fill="white"/>
</g>
<path d="M12.727 18.2688C12.5038 18.0939 12.341 17.5149 12.5943 17.5451C12.8476 17.5752 13.6136 18.2688 13.6136 18.2688H12.721H12.727Z" fill="white"/>
<g style="mix-blend-mode:multiply" opacity="0.8">
<path d="M18.77 25.5059C18.77 25.5059 22.244 27.1041 24.0051 27.5022C25.7541 27.9002 27.9977 27.6529 27.9977 27.6529C27.9977 27.6529 25.73 28.051 23.7216 27.6952C21.7072 27.3333 18.77 25.5059 18.77 25.5059Z" fill="#7E527C"/>
</g>
<path d="M4.1629 11.9357C4.34987 12.8825 5.64053 11.6281 5.93002 11.0792C6.21349 10.5304 4.22321 10.5485 4.1629 11.9357Z" fill="white"/>
<path d="M21.9605 18.2687C21.9605 18.2687 26.2607 15.3194 27.286 12.7441C27.286 12.7441 25.2294 16.0974 21.9605 18.2687Z" fill="#EED6DD"/>
<g style="mix-blend-mode:multiply" opacity="0.5">
<path d="M13.927 17.8526C13.5169 17.8948 11.5507 16.2362 11.2431 15.4522C10.9416 14.6742 13.6315 15.4703 17.7809 15.2411C21.9303 15.0119 26.5924 13.094 26.5139 13.3413C26.4355 13.5886 23.8844 16.5076 23.2451 16.6464C22.6058 16.7851 21.2307 15.8382 18.3116 15.9106C15.3925 15.989 14.4818 17.7923 13.927 17.8526Z" fill="#6E5066"/>
</g>
</g>
</g>
<defs>
<filter id="filter0_d_192_4183" x="0" y="0" width="40" height="40" filterUnits="userSpaceOnUse" color-interpolation-filters="sRGB">
<feFlood flood-opacity="0" result="BackgroundImageFix"/>
<feColorMatrix in="SourceAlpha" type="matrix" values="0 0 0 0 0 0 0 0 0 0 0 0 0 0 0 0 0 0 127 0" result="hardAlpha"/>
<feOffset dy="4"/>
<feGaussianBlur stdDeviation="2"/>
<feComposite in2="hardAlpha" operator="out"/>
<feColorMatrix type="matrix" values="0 0 0 0 0 0 0 0 0 0 0 0 0 0 0 0 0 0 0.25 0"/>
<feBlend mode="normal" in2="BackgroundImageFix" result="effect1_dropShadow_192_4183"/>
<feBlend mode="normal" in="SourceGraphic" in2="effect1_dropShadow_192_4183" result="shape"/>
</filter>
<linearGradient id="paint0_linear_192_4183" x1="21.8824" y1="29.8903" x2="11.7923" y2="2.17729" gradientUnits="userSpaceOnUse">
<stop stop-color="#728EE3"/>
<stop offset="0.3" stop-color="#836888"/>
<stop offset="0.57" stop-color="#E1D9E0"/>
<stop offset="0.85" stop-color="#937D9A"/>
<stop offset="1" stop-color="#6D636A"/>
</linearGradient>
<linearGradient id="paint1_linear_192_4183" x1="27.0689" y1="28.0026" x2="17.4795" y2="1.64661" gradientUnits="userSpaceOnUse">
<stop stop-color="#282828"/>
<stop offset="0.3" stop-color="#717171"/>
<stop offset="0.57" stop-color="#212121"/>
<stop offset="0.85" stop-color="#4F4F4F"/>
<stop offset="1" stop-color="#222222"/>
</linearGradient>
<linearGradient id="paint2_linear_192_4183" x1="23.0705" y1="28.1414" x2="13.3845" y2="1.53805" gradientUnits="userSpaceOnUse">
<stop stop-color="#4B4B4B"/>
<stop offset="0.15" stop-color="#2C2C2C"/>
<stop offset="0.28" stop-color="#434343"/>
<stop offset="0.4" stop-color="#4A4A4A"/>
<stop offset="0.53" stop-color="#666666"/>
<stop offset="0.63" stop-color="#565656"/>
<stop offset="0.7" stop-color="#888888"/>
<stop offset="1" stop-color="#727272"/>
</linearGradient>
<linearGradient id="paint3_linear_192_4183" x1="21.8941" y1="25.4756" x2="14.5663" y2="5.34371" gradientUnits="userSpaceOnUse">
<stop/>
<stop offset="0.21" stop-color="#0A0A0A"/>
<stop offset="1"/>
</linearGradient>
<linearGradient id="paint4_linear_192_4183" x1="22.2019" y1="25.0294" x2="15.3264" y2="6.14597" gradientUnits="userSpaceOnUse">
<stop stop-color="#626262"/>
<stop offset="0.99" stop-color="#2C2C2C"/>
</linearGradient>
<clipPath id="clip0_192_4183">
<rect width="30.5658" height="27.8397" fill="white" transform="translate(4)"/>
</clipPath>
</defs>
</svg>
