<svg width="40" height="27" viewBox="0 0 40 27" fill="none" xmlns="http://www.w3.org/2000/svg">
<g clip-path="url(#clip0_168_856)">
<path d="M5.1593 2.62231L5.11165 2.77011C5.11165 2.77011 5.28716 3.02564 5.12749 3.54048C5.12749 3.54048 5.56712 3.04538 5.1593 2.62231Z" fill="#725305"/>
<path d="M4.8448 3.59778L4.79715 3.74557C4.79715 3.74557 4.97266 4.00111 4.81299 4.51595C4.81299 4.51595 5.25262 4.02084 4.8448 3.59778Z" fill="#725305"/>
<path d="M4.55392 4.49976L4.50627 4.64755C4.50627 4.64755 4.68178 4.90309 4.52211 5.41792C4.52211 5.41792 4.96174 4.92282 4.55392 4.49976Z" fill="#725305"/>
<path d="M4.24161 5.46869L4.19396 5.61648C4.19396 5.61648 4.36947 5.87202 4.20979 6.38686C4.20979 6.38686 4.64942 5.89175 4.24161 5.46869Z" fill="#725305"/>
<path d="M3.95259 6.36493L3.90494 6.51272C3.90494 6.51272 4.08045 6.76826 3.92078 7.2831C3.92078 7.2831 4.36041 6.78799 3.95259 6.36493Z" fill="#725305"/>
<path d="M3.65811 7.27826L3.61046 7.42605C3.61046 7.42605 3.78597 7.68159 3.6263 8.19643C3.6263 8.19643 4.06593 7.70132 3.65811 7.27826Z" fill="#725305"/>
<path d="M3.35466 8.21936L3.30701 8.36716C3.30701 8.36716 3.48252 8.62269 3.32285 9.13753C3.32285 9.13753 3.76247 8.64242 3.35466 8.21936Z" fill="#725305"/>
<path d="M3.05305 9.15479L3.0054 9.30258C3.0054 9.30258 3.18091 9.55812 3.02124 10.073C3.02124 10.073 3.46087 9.57785 3.05305 9.15479Z" fill="#725305"/>
<path d="M2.75333 10.0845L2.70568 10.2323C2.70568 10.2323 2.88119 10.4879 2.72151 11.0027C2.72151 11.0027 3.16114 10.5076 2.75333 10.0845Z" fill="#725305"/>
<path d="M2.45796 11.0009L2.41031 11.1487C2.41031 11.1487 2.58582 11.4042 2.42615 11.9191C2.42615 11.9191 2.86578 11.424 2.45796 11.0009Z" fill="#725305"/>
<path d="M2.16556 11.9077L2.11791 12.0554C2.11791 12.0554 2.29342 12.311 2.13374 12.8258C2.13374 12.8258 2.57337 12.3307 2.16556 11.9077Z" fill="#725305"/>
<path d="M1.8539 12.8746L1.80625 13.0224C1.80625 13.0224 1.98176 13.278 1.82208 13.7928C1.82208 13.7928 2.26171 13.2977 1.8539 12.8746Z" fill="#725305"/>
<path d="M3.12484 16.8727C3.12484 16.8727 3.75014 14.9332 1.52647 13.89L1.5775 13.7317C1.5775 13.7317 2.10118 13.5342 1.83236 12.9412L1.86802 12.8306C1.86802 12.8306 2.47 12.6057 2.14347 11.9762L2.17913 11.8656C2.17913 11.8656 2.68659 11.6629 2.43921 11.059L2.48502 10.9169C2.48502 10.9169 3.01884 10.6879 2.73495 10.1417L2.78076 9.99959C2.78076 9.99959 3.32983 9.77556 3.03561 9.20912L3.0765 9.0823C3.0765 9.0823 3.63092 8.78947 3.33135 8.29183L3.37716 8.14976C3.37716 8.14976 3.96304 7.86707 3.64216 7.32782L3.67782 7.21722C3.67782 7.21722 4.24833 6.9822 3.9379 6.41054L3.97879 6.28372C3.97879 6.28372 4.53393 6.09638 4.22842 5.50946L4.2693 5.38264C4.2693 5.38264 4.86605 5.17398 4.54445 4.52924L4.58533 4.40242C4.58533 4.40242 5.17633 4.15612 4.83004 3.64342L4.88107 3.48513C4.88107 3.48513 5.48797 3.24501 5.14607 2.6632L5.19711 2.50491C5.19711 2.50491 7.12445 3.31473 8.26544 1.07521L36.7671 10.2644C36.3855 12.7477 38.4213 13.2177 38.4213 13.2177L38.3703 13.376C37.7529 13.6485 38.1053 14.1979 38.1053 14.1979L38.0542 14.3562C37.4737 14.5701 37.8095 15.1152 37.8095 15.1152L37.7686 15.242C37.131 15.5775 37.4935 16.0954 37.4935 16.0954L37.4526 16.2223C36.8618 16.5202 37.203 16.9965 37.203 16.9965L37.1621 17.1233C36.5762 17.406 36.902 17.93 36.902 17.93L36.8664 18.0406C36.2906 18.2919 36.6014 18.8626 36.6014 18.8626L36.5555 19.0046C36.0217 19.2336 36.3007 19.7951 36.3007 19.7951L36.2598 19.9219C35.6901 20.2098 36.005 20.7124 36.005 20.7124L35.9591 20.8545C35.41 21.1311 35.7092 21.6297 35.7092 21.6297L35.6634 21.7718C35.1101 22.1165 35.4033 22.5784 35.4033 22.5784L35.3677 22.689C34.7353 23.0083 35.0922 23.5434 35.0922 23.5434L35.0566 23.654C34.492 23.9783 34.8017 24.4445 34.8017 24.4445L34.7507 24.6028C32.3364 24.1507 31.7111 26.0902 31.7111 26.0902L3.12453 16.8736L3.12484 16.8727Z" fill="#EDB20C" stroke="#684C07" stroke-width="0.0250464" stroke-miterlimit="10"/>
<path d="M33.3177 11.2765L10.4732 3.91124C9.8755 3.71854 9.23474 4.04686 9.04204 4.64456L5.88295 14.4429C5.69025 15.0407 6.01857 15.6814 6.61628 15.8741L29.4607 23.2394C30.0585 23.4321 30.6992 23.1038 30.8919 22.506L34.051 12.7077C34.2437 12.11 33.9154 11.4692 33.3177 11.2765Z" stroke="#050505" stroke-width="0.300556" stroke-miterlimit="10"/>
<path d="M8.853 13.0894L10.1164 13.4967L11.6133 8.85401L12.6822 9.19863L13.0594 8.02866L9.75446 6.96313L9.38831 8.09878L10.3609 8.41235L8.853 13.0894Z" fill="#0A0A0A"/>
<path d="M15.057 8.67264L13.6963 8.23395L11.8226 14.0457L13.1832 14.4844L15.057 8.67264Z" fill="#0A0A0A"/>
<path d="M17.4654 11.6668L18.7288 12.0741C18.7288 12.0741 19.1435 11.0099 18.6371 10.194C18.6371 10.194 17.8282 9.09849 16.3209 9.44729C16.3209 9.44729 15.4628 9.55905 15.0438 11.0808L14.4927 12.7768C14.4927 12.7768 14.1195 13.8365 14.7422 14.6804C14.7422 14.6804 15.4773 15.6164 16.8475 15.3592C16.8475 15.3592 18.0142 15.0806 18.2158 13.6719L16.9829 13.2744C16.9829 13.2744 16.6797 14.4009 16.2323 14.3977C16.2323 14.3977 15.5303 14.3808 15.6262 13.5644L16.5131 10.8135C16.5131 10.8135 16.7425 10.1379 17.4204 10.5134C17.4204 10.5134 17.8028 10.7703 17.466 11.6649L17.4654 11.6668Z" fill="#0A0A0A"/>
<path d="M18.2826 16.0441L19.6213 16.4757L20.1101 14.9596C20.1101 14.9596 20.4986 14.3817 20.6847 14.6206C20.8699 14.8593 20.8952 16.8864 20.8952 16.8864L22.3751 17.3635L21.7118 13.6518L24.1051 11.5897L22.7015 11.1371L21.3351 12.564C21.3351 12.564 20.7661 13.1079 20.8778 12.3565L21.3955 10.715L20.132 10.3077L18.2829 16.0431L18.2826 16.0441Z" fill="#0A0A0A"/>
<path d="M27.9181 12.819L24.7429 11.7953L22.8937 17.5307L26.069 18.5544L26.4545 17.3587L24.6387 16.7775L25.0497 15.5027L26.7127 16.0388L27.0121 15.0743L25.3272 14.5311L25.6823 13.4297L27.5326 14.0147L27.9181 12.819Z" fill="#0A0A0A"/>
<path d="M27.6527 19.1503L29.0563 19.6028L30.5532 14.9601L31.7413 15.3432L32.1185 14.1732L28.4474 12.9896L28.0813 14.1253L29.1606 14.4733L27.6527 19.1503Z" fill="#0A0A0A"/>
</g>
<defs>
<clipPath id="clip0_168_856">
<rect width="34.9337" height="16.6378" fill="white" transform="translate(5.89578 0.298584) rotate(17.8698)"/>
</clipPath>
</defs>
</svg>
