<svg width="50" height="50" viewBox="0 0 50 50" fill="none" xmlns="http://www.w3.org/2000/svg">
<g clip-path="url(#clip0_432_4003)">
<g opacity="0.5">
<path d="M24.0865 17.317C20.0508 18.3186 20.7771 16.8016 23.3368 12.9533C26.078 8.84141 4.27104 12.7014 7.88504 22.5477C9.10923 25.8805 12.3718 25.2889 15.6929 28.9439C19.014 32.5989 11.3702 21.5109 12.8697 20.6792C14.3633 19.8474 20.3437 24.791 25.0003 29.6117C29.651 34.4323 31.1505 20.4742 33.4759 20.972C35.8013 21.4699 35.6373 26.4545 35.1394 27.9482C34.6415 29.4418 39.6261 32.5989 42.6134 22.1318C45.6007 11.6647 30.1548 25.2889 27.6595 21.136C25.1701 16.9832 34.6357 14.8218 35.8013 5.52028C36.9669 -3.78709 26.2889 8.17953 27.4545 9.33929C28.6201 10.5049 36.674 14.2009 24.0924 17.317H24.0865Z" fill="url(#paint0_radial_432_4003)" style="mix-blend-mode:screen"/>
</g>
<path d="M27.3256 7.07834C27.3256 7.07834 24.8363 8.88827 25.0823 11.6237C25.3341 14.3591 25.7793 16.5614 25.6153 16.8133C25.4571 17.0652 23.3719 19.1328 23.1669 19.0567C22.9619 18.9747 11.4697 18.2308 11.048 19.578C10.6263 20.9252 10.4623 33.0148 11.2472 34.2155C12.0379 35.4222 13.4905 36.1251 13.5725 36.7928C13.6545 37.4547 13.5725 40.6821 14.2344 41.8946C14.8963 43.107 18.481 44.5948 22.2766 45.532L27.6771 15.8585L27.3139 7.07834H27.3256Z" fill="#FFE09E"/>
<path d="M35.4381 37.2321C35.4381 37.2321 34.9637 39.6453 34.3194 41.7013C33.9621 42.8435 33.5521 43.8744 33.1362 44.3254C31.6601 45.9303 26.1776 46.2056 23.3954 45.7604C21.7846 45.5027 19.4124 44.7823 17.497 43.8392C16.0737 43.1363 14.8963 42.3163 14.4687 41.4611C13.7834 40.1022 13.76 35.2055 14.088 34.936C14.3633 34.7076 20.9938 36.5995 24.3853 37.3375C27.888 38.1049 35.1804 36.992 35.4381 37.2321Z" fill="url(#paint1_radial_432_4003)"/>
<path style="mix-blend-mode:multiply" opacity="0.8" d="M35.4381 37.2321C35.4381 37.2321 34.9637 39.6453 34.3194 41.7013L34.1026 41.7247C28.503 39.9734 17.5146 41.344 17.497 43.8334C16.0737 43.1363 14.8963 42.3104 14.4687 41.4611C13.7834 40.1022 13.76 35.2055 14.088 34.936C14.3633 34.7076 20.9938 36.5995 24.3853 37.3375C27.888 38.1049 35.1804 36.992 35.4381 37.2321Z" fill="url(#paint2_linear_432_4003)"/>
<path d="M42.4143 24.873C41.9984 24.0003 38.1325 22.0439 27.4428 20.0114C18.7915 18.3655 12.1375 19.2031 11.5401 19.8416C10.802 20.6265 10.6029 32.2943 11.5166 33.9403C13.3031 37.1677 20.1211 38.7316 24.1744 39.4462C28.3331 40.1784 35.1628 40.688 37.9041 38.2161C39.304 36.9568 42.8594 25.7809 42.4201 24.8672L42.4143 24.873Z" fill="url(#paint3_radial_432_4003)"/>
<g style="mix-blend-mode:soft-light">
<path d="M11.6045 20.1286C14.0939 25.2011 36.6096 28.6862 42.098 25.5349C43.1933 24.9082 38.4547 21.4816 23.9343 19.4667C17.0108 18.5061 11.2648 19.4491 11.5986 20.1286H11.6045Z" fill="white"/>
</g>
<path d="M37.1426 24.8789C37.0899 25.1659 36.5862 25.3475 35.7369 25.4354C33.9445 25.6228 30.6175 25.3651 26.8746 24.6856C23.2372 24.0296 20.1094 23.1393 18.4517 22.3544C17.5966 21.9502 17.1338 21.5753 17.1866 21.2708C17.3447 20.3804 21.9427 20.4683 27.4545 21.4641C32.9663 22.4598 37.3008 23.9886 37.1426 24.8789Z" fill="url(#paint4_linear_432_4003)"/>
<path d="M35.7369 25.4354C33.9445 25.6228 30.6175 25.3651 26.8747 24.6856C23.2372 24.0296 20.1094 23.1393 18.4518 22.3544C20.25 22.1669 23.5711 22.4247 27.314 23.1041C30.9514 23.7601 34.0792 24.6505 35.7369 25.4354Z" fill="url(#paint5_linear_432_4003)"/>
<path d="M20.8298 22.7234C20.8298 22.7234 27.8645 25.7634 33.4759 25.2772C33.4759 25.2772 32.609 18.0199 28.3331 17.2467C24.0572 16.4736 20.8298 22.7234 20.8298 22.7234Z" fill="url(#paint6_linear_432_4003)"/>
<path d="M30.0552 18.1371C30.0552 18.1371 34.3897 16.456 36.3284 12.8596C38.4195 8.98199 37.4472 7.26578 37.0548 7.10177C36.6623 6.93777 31.9647 8.02724 29.1356 12.5491C29.1356 12.5491 29.9263 11.0145 29.733 9.45644C29.5397 7.89837 28.6026 6.3286 27.8645 6.68004C27.1265 7.02563 25.7032 9.78445 25.6212 12.1098C25.5392 14.4352 26.5935 17.358 26.9918 18.0258C27.3901 18.6935 29.323 19.0684 30.0493 18.1371H30.0552Z" fill="url(#paint7_linear_432_4003)"/>
<path style="mix-blend-mode:multiply" opacity="0.5" d="M11.54 22.6707C10.6849 26.9993 10.4447 34.28 15.1658 36.5351C21.1227 39.3818 32.8843 41.467 33.3412 38.6906C33.7981 35.9142 12.2078 19.3027 11.54 22.6707Z" fill="url(#paint8_linear_432_4003)"/>
<g style="mix-blend-mode:soft-light" opacity="0.5">
<path d="M23.1904 26.5365C28.3331 34.8774 35.1628 37.4137 37.3184 34.8247C39.4739 32.2299 40.4462 28.0946 38.6011 27.7256C36.756 27.3507 22.6222 25.6228 23.1904 26.5424V26.5365Z" fill="#FFA733"/>
</g>
<g style="mix-blend-mode:multiply" opacity="0.8">
<path d="M18.4576 20.6674C14.0353 20.9955 13.1333 22.7175 20.0508 24.3693C24.0924 25.3358 33.0249 25.4529 33.0249 25.4529C33.0249 25.4529 27.2905 15.718 23.7761 18.8985C23.6238 19.0391 22.0599 20.8022 22.0599 20.8022C21.0817 20.5386 18.4576 20.6616 18.4576 20.6616V20.6674Z" fill="#D65A6B"/>
</g>
<g style="mix-blend-mode:soft-light">
<path d="M28.8193 25.9801C31.0275 26.396 39.427 27.8954 41.6294 25.2772C42.5724 24.1526 37.9509 22.5008 37.9451 23.3618C37.9392 24.2229 37.9744 25.2479 35.2273 25.7224C32.4743 26.1968 27.2554 25.6872 28.8193 25.9801Z" fill="#FFFE00"/>
</g>
<g style="mix-blend-mode:multiply" opacity="0.6">
<path d="M28.1691 6.84406C29.4636 11.3249 27.8587 16.784 27.4311 18.1956C27.1734 19.0508 25.1292 14.3825 26.0605 10.4171C26.6169 8.06825 27.9348 6.03574 28.1691 6.84406Z" fill="#B3A477"/>
</g>
<g style="mix-blend-mode:multiply" opacity="0.6">
<path d="M29.9674 11.3835C27.8294 14.3063 27.5717 18.4768 28.052 18.6291C30.0376 19.2441 36.3695 11.2605 37.0431 7.51179C37.3476 5.82487 31.3145 9.5443 29.9674 11.3835Z" fill="#B3A477"/>
</g>
<g style="mix-blend-mode:multiply" opacity="0.3">
<path d="M33.5111 34.4733C32.773 40.0554 36.1176 37.6948 36.346 36.1368C36.5686 34.5787 33.7747 32.4935 33.5111 34.4733Z" fill="#D64A57"/>
</g>
<path style="mix-blend-mode:multiply" opacity="0.8" d="M33.5111 34.4733C34.4365 33.4307 36.1937 35.2464 36.346 36.1368C36.346 36.1368 36.2992 34.2331 34.6825 33.7528C33.4408 33.3838 33.5111 34.4733 33.5111 34.4733Z" fill="url(#paint9_linear_432_4003)"/>
<g style="mix-blend-mode:multiply" opacity="0.3">
<path d="M30.6527 38.6144C31.1857 39.6571 33.8976 39.7098 32.4333 37.9233C30.969 36.1368 29.9263 37.1911 30.6527 38.6144Z" fill="#D64A57"/>
</g>
<path style="mix-blend-mode:multiply" opacity="0.8" d="M32.65 38.222C32.65 38.222 31.6601 36.6815 30.8694 37.0095C30.0845 37.3375 30.5238 38.3274 30.5238 38.3274C30.5238 38.3274 30.4066 36.9041 31.3028 37.2731C32.199 37.6421 32.65 38.222 32.65 38.222Z" fill="url(#paint10_linear_432_4003)"/>
<g style="mix-blend-mode:multiply" opacity="0.8">
<path d="M30.2836 20.8607C30.7815 22.3017 31.3438 21.8799 31.5723 21.136C31.7948 20.4273 30.0318 20.1403 30.2836 20.8607Z" fill="#D65A6B"/>
</g>
<g style="mix-blend-mode:multiply" opacity="0.5">
<path d="M26.1308 22.7234C26.2479 23.2916 26.5759 23.5434 26.8044 22.8054C27.0269 22.0966 25.9785 21.9795 26.1308 22.7234Z" fill="#B74F66"/>
</g>
<g style="mix-blend-mode:multiply" opacity="0.8">
<path d="M30.0552 22.987C29.5398 20.316 27.9056 21.8096 28.503 23.0163C29.1005 24.2229 30.2719 24.1175 30.0552 22.987Z" fill="#D65A6B"/>
</g>
<g style="mix-blend-mode:multiply" opacity="0.8">
<path d="M23.1552 21.4582C23.4422 22.987 26.4119 22.3075 25.8496 21.1829C24.1217 17.727 23.0381 20.849 23.1552 21.4582Z" fill="#D65A6B"/>
</g>
<path d="M28.4679 26.2612C28.2511 28.4812 33.0249 27.5499 32.3923 26.5483C31.7597 25.5467 28.5382 25.5232 28.4679 26.2612Z" fill="url(#paint11_linear_432_4003)"/>
<path d="M28.9189 25.9508C28.1984 26.2612 32.3923 27.3566 32.4509 26.7357C32.5095 26.1148 30.395 25.3123 28.9189 25.9508Z" fill="url(#paint12_linear_432_4003)"/>
<path d="M28.5909 26.9348C29.446 28.1414 31.2033 27.6143 31.0744 27.3858C30.9514 27.1574 28.0813 26.2144 28.5909 26.9348Z" fill="url(#paint13_linear_432_4003)"/>
<g style="mix-blend-mode:soft-light">
<path d="M28.667 10.8446C28.6729 11.2957 29.7624 9.42715 29.6745 9.06985C29.5925 8.71255 28.3214 6.18217 28.175 6.84991C28.0696 7.32435 28.626 7.87495 28.667 10.8505V10.8446Z" fill="#BACE31"/>
</g>
<g style="mix-blend-mode:soft-light">
<path d="M34.1085 13.6503C34.0499 14.5816 36.7209 12.1625 36.9493 11.5827C37.1778 11.0028 37.9334 8.06238 37.3769 7.88081C36.8205 7.69337 34.1378 13.1817 34.1085 13.6503Z" fill="#BACE31"/>
</g>
<g style="mix-blend-mode:multiply" opacity="0.4">
<path d="M28.0461 18.6232C29.241 13.2989 31.9354 11.7994 31.9062 13.2462C31.8769 14.6929 28.0461 18.6232 28.0461 18.6232Z" fill="#7F796D"/>
</g>
<g style="mix-blend-mode:multiply" opacity="0.4">
<path d="M27.4311 18.2015C28.1574 13.5917 27.3432 10.8856 27.0152 11.8052C26.6872 12.7307 27.4311 18.2015 27.4311 18.2015Z" fill="#7F796D"/>
</g>
<path d="M27.7474 42.3104C27.724 42.9196 29.0946 43.0192 29.0536 42.5447C29.0126 42.0703 27.7767 41.467 27.7474 42.3104Z" fill="#FFA733"/>
<path d="M37.1778 29.0025C36.9845 30.0041 38.525 29.8518 38.4664 29.2368C38.4079 28.6218 37.5175 27.2219 37.1778 29.0025Z" fill="#FFA733"/>
<g style="mix-blend-mode:multiply" opacity="0.2">
<path d="M14.0236 22.741C22.5402 26.314 23.8815 35.5745 22.464 36.0138C21.0466 36.4472 15.4469 34.9009 14.2989 31.855C13.1508 28.8092 12.1668 21.9678 14.0236 22.741Z" fill="#E02774"/>
</g>
<g style="mix-blend-mode:multiply" opacity="0.2">
<path d="M18.6275 40.6177C21.8432 41.3323 22.6046 39.3935 22.1829 39.2646C20.619 38.8019 17.2276 37.7651 15.6988 37.1208C14.703 36.6991 14.7089 39.7449 18.6333 40.6177H18.6275Z" fill="#E02774"/>
</g>
<path d="M36.7033 9.10499C36.3811 9.15185 36.0238 10.0539 36.5393 10.007C37.0547 9.96017 37.3066 9.02299 36.7033 9.10499Z" fill="white"/>
<path d="M28.4503 8.0741C28.4796 8.5134 28.9189 8.85313 28.8662 8.30839C28.8134 7.76366 28.421 7.6348 28.4503 8.0741Z" fill="white"/>
<path style="mix-blend-mode:screen" opacity="0.5" d="M18.3405 49.6439C26.6672 49.6439 33.4173 42.8937 33.4173 34.567C33.4173 26.2403 26.6672 19.4901 18.3405 19.4901C10.0137 19.4901 3.26358 26.2403 3.26358 34.567C3.26358 42.8937 10.0137 49.6439 18.3405 49.6439Z" fill="url(#paint14_radial_432_4003)"/>
<path d="M12.9458 17.8149C12.9458 18.0902 12.7291 18.3245 12.4596 18.3479C12.1902 18.3714 11.9735 18.1605 11.9735 17.891C11.9735 17.6157 12.1902 17.3815 12.4596 17.358C12.7291 17.3346 12.9458 17.5396 12.9458 17.8149Z" fill="#FFE800"/>
<path d="M36.0414 16.9832C36.0414 17.2585 35.8247 17.4928 35.5553 17.5162C35.2858 17.5396 35.0691 17.3287 35.0691 17.0593C35.0691 16.784 35.2858 16.5497 35.5553 16.5263C35.8247 16.5029 36.0414 16.7079 36.0414 16.9832Z" fill="#FFE800"/>
<path d="M15.9565 15.882C15.9331 16.4326 15.7749 16.5966 15.2829 16.5966C14.4687 16.4326 14.3047 15.1322 15.3005 15.1264C15.6754 15.1439 15.9624 15.4837 15.9507 15.882H15.9565Z" fill="#FFE800"/>
</g>
<defs>
<radialGradient id="paint0_radial_432_4003" cx="0" cy="0" r="1" gradientUnits="userSpaceOnUse" gradientTransform="translate(26.3123 15.8761) scale(22.3752 22.3752)">
<stop stop-color="#FF6B05"/>
<stop offset="1" stop-color="#B84D03" stop-opacity="0"/>
</radialGradient>
<radialGradient id="paint1_radial_432_4003" cx="0" cy="0" r="1" gradientUnits="userSpaceOnUse" gradientTransform="translate(25.846 38.1954) rotate(10.25) scale(12.0135 12.0135)">
<stop stop-color="#FFA900"/>
<stop offset="0.83" stop-color="#E56000"/>
<stop offset="1" stop-color="#FF8C61"/>
</radialGradient>
<linearGradient id="paint2_linear_432_4003" x1="24.1455" y1="34.4652" x2="26.0365" y2="47.8072" gradientUnits="userSpaceOnUse">
<stop stop-color="#A60024"/>
<stop offset="0.01" stop-color="#A70427"/>
<stop offset="0.3" stop-color="#C65C73"/>
<stop offset="0.55" stop-color="#DEA2AF"/>
<stop offset="0.76" stop-color="#F0D4DA"/>
<stop offset="0.91" stop-color="#FAF3F5"/>
<stop offset="1" stop-color="white"/>
</linearGradient>
<radialGradient id="paint3_radial_432_4003" cx="0" cy="0" r="1" gradientUnits="userSpaceOnUse" gradientTransform="translate(29.2452 21.8994) rotate(10.25) scale(19.8565 19.8565)">
<stop stop-color="#FFA900"/>
<stop offset="0.83" stop-color="#E56000"/>
<stop offset="1" stop-color="#FF8C61"/>
</radialGradient>
<linearGradient id="paint4_linear_432_4003" x1="37.1228" y1="24.9131" x2="17.1682" y2="21.3048" gradientUnits="userSpaceOnUse">
<stop offset="0.05" stop-color="#FF3F00"/>
<stop offset="1" stop-color="#D95203"/>
</linearGradient>
<linearGradient id="paint5_linear_432_4003" x1="18.4345" y1="22.3671" x2="35.7089" y2="25.4908" gradientUnits="userSpaceOnUse">
<stop stop-color="#771C48"/>
<stop offset="0.24" stop-color="#762A34"/>
<stop offset="0.62" stop-color="#82382F"/>
<stop offset="1" stop-color="#934B29"/>
</linearGradient>
<linearGradient id="paint6_linear_432_4003" x1="24.9922" y1="25.2077" x2="30.731" y2="20.299" gradientUnits="userSpaceOnUse">
<stop stop-color="#771C48"/>
<stop offset="0.24" stop-color="#762A34"/>
<stop offset="0.62" stop-color="#82382F"/>
<stop offset="1" stop-color="#934B29"/>
</linearGradient>
<linearGradient id="paint7_linear_432_4003" x1="26.0722" y1="9.5888" x2="35.5713" y2="14.4916" gradientUnits="userSpaceOnUse">
<stop stop-color="#C7CC34"/>
<stop offset="1" stop-color="#BBC200"/>
</linearGradient>
<linearGradient id="paint8_linear_432_4003" x1="34.2236" y1="33.7043" x2="10.3092" y2="29.3799" gradientUnits="userSpaceOnUse">
<stop stop-color="white"/>
<stop offset="0.1" stop-color="#F2E3D0"/>
<stop offset="0.23" stop-color="#E2C399"/>
<stop offset="0.36" stop-color="#D5A76A"/>
<stop offset="0.49" stop-color="#CB9144"/>
<stop offset="0.62" stop-color="#C27F26"/>
<stop offset="0.75" stop-color="#BC7311"/>
<stop offset="0.87" stop-color="#B96B04"/>
<stop offset="0.99" stop-color="#B86900"/>
</linearGradient>
<linearGradient id="paint9_linear_432_4003" x1="35.1652" y1="33.8627" x2="34.7983" y2="35.8916" gradientUnits="userSpaceOnUse">
<stop stop-color="#A60024"/>
<stop offset="0.01" stop-color="#A70427"/>
<stop offset="0.3" stop-color="#C65C73"/>
<stop offset="0.55" stop-color="#DEA2AF"/>
<stop offset="0.76" stop-color="#F0D4DA"/>
<stop offset="0.91" stop-color="#FAF3F5"/>
<stop offset="1" stop-color="white"/>
</linearGradient>
<linearGradient id="paint10_linear_432_4003" x1="31.6597" y1="37.0859" x2="31.4012" y2="38.5154" gradientUnits="userSpaceOnUse">
<stop stop-color="#A60024"/>
<stop offset="0.01" stop-color="#A70427"/>
<stop offset="0.3" stop-color="#C65C73"/>
<stop offset="0.55" stop-color="#DEA2AF"/>
<stop offset="0.76" stop-color="#F0D4DA"/>
<stop offset="0.91" stop-color="#FAF3F5"/>
<stop offset="1" stop-color="white"/>
</linearGradient>
<linearGradient id="paint11_linear_432_4003" x1="28.4265" y1="26.3942" x2="32.369" y2="27.1071" gradientUnits="userSpaceOnUse">
<stop stop-color="#E14D00"/>
<stop offset="0.24" stop-color="#D64704"/>
<stop offset="0.65" stop-color="#BB3910"/>
<stop offset="1" stop-color="#9F2A1D"/>
</linearGradient>
<linearGradient id="paint12_linear_432_4003" x1="28.8331" y1="25.9558" x2="32.4529" y2="26.6103" gradientUnits="userSpaceOnUse">
<stop stop-color="#A71100"/>
<stop offset="1" stop-color="#8B2203"/>
</linearGradient>
<linearGradient id="paint13_linear_432_4003" x1="28.4706" y1="27.039" x2="31.047" y2="27.5049" gradientUnits="userSpaceOnUse">
<stop stop-color="#FFB64D"/>
<stop offset="1" stop-color="#FFA900"/>
</linearGradient>
<radialGradient id="paint14_radial_432_4003" cx="0" cy="0" r="1" gradientUnits="userSpaceOnUse" gradientTransform="translate(18.3405 34.567) rotate(90) scale(15.0769)">
<stop stop-color="#FF9900"/>
<stop offset="1" stop-color="#FF9900" stop-opacity="0"/>
</radialGradient>
<clipPath id="clip0_432_4003">
<rect width="40" height="47.6439" fill="white" transform="translate(3 2)"/>
</clipPath>
</defs>
</svg>
