<svg width="29" height="24" viewBox="0 0 29 24" fill="none" xmlns="http://www.w3.org/2000/svg">
<path d="M17.6888 0.468775C9.51895 -1.69877 2.02499 5.33006 2.86483 13.0058H7.52123C6.48261 4.41283 17.3558 -0.139489 23.9553 5.05972C22.7129 2.87769 20.4021 1.14945 17.6937 0.473603L17.6888 0.468775Z" fill="url(#paint0_linear_79_950)"/>
<path d="M17.6888 0.468775C9.51895 -1.69877 2.02499 5.33006 2.86483 13.0058H7.52123C6.48261 4.41283 17.3558 -0.139489 23.9553 5.05972C22.7129 2.87769 20.4021 1.14945 17.6937 0.473603L17.6888 0.468775Z" fill="url(#paint1_linear_79_950)"/>
<path style="mix-blend-mode:screen" d="M17.6888 0.468775C9.51895 -1.69877 2.02499 5.33006 2.86483 13.0058C2.86483 13.0058 2.61139 11.0458 3.23257 8.97964C4.0426 6.30038 6.05026 3.22044 9.03195 1.69013C13.0026 -0.34707 16.3321 0.410845 17.6838 0.468775H17.6888Z" fill="url(#paint2_radial_79_950)"/>
<path d="M2.84496 11.7361L7.56099 13.0202C6.52237 4.42728 17.3956 -0.125038 23.995 5.07417C23.4186 4.05557 19.612 2.19698 15.6662 2.73283C11.4372 3.30731 8.51512 5.58588 7.49141 10.3168C7.46657 10.4327 5.10607 11.6492 5.10607 11.6492C5.10607 11.6492 2.83502 11.6009 2.84992 11.7361H2.84496Z" fill="url(#paint3_linear_79_950)"/>
<path style="mix-blend-mode:multiply" opacity="0.5" d="M23.9503 5.05486C17.3508 -0.13952 6.47764 4.4128 7.51626 13.0057H2.86483C2.73066 11.8037 2.8052 10.6258 3.05367 9.49132C2.92943 12.0644 4.52463 11.9437 5.42411 10.5485C6.08008 9.52994 7.39202 5.34451 12.3068 3.23489C17.2216 1.12528 21.555 3.16248 22.216 3.43282C23.4235 3.93488 20.5015 1.29424 16.8589 0.280472C17.1372 0.328747 17.4154 0.391504 17.6937 0.468744C20.4021 1.14459 22.7179 2.87283 23.9602 5.05486H23.9503Z" fill="url(#paint4_linear_79_950)"/>
<path d="M9.80719 9.75691C9.39969 9.4045 5.30982 11.7314 5.18061 11.8038C5.02656 11.7941 0.295617 11.5238 0.0968385 12.0113C-0.0969709 12.4844 6.45279 17.2299 6.51243 17.2154C6.57206 17.2009 10.2047 10.0948 9.80719 9.75208V9.75691Z" fill="url(#paint5_linear_79_950)"/>
<path d="M9.8072 9.75686C9.64817 9.62169 9.39473 10.9975 8.58967 12.803C7.78462 14.6133 6.43292 16.8484 6.43292 16.8484C6.43292 16.8484 5.12098 16.1919 4.46501 15.7478C5.58811 16.5829 6.49256 17.225 6.51243 17.2202C6.57207 17.2057 10.2048 10.0996 9.8072 9.75686Z" fill="url(#paint6_linear_79_950)"/>
<path style="mix-blend-mode:screen" d="M9.80718 9.75691C9.39969 9.4045 5.30981 11.7314 5.1806 11.8038C5.02655 11.7941 0.295611 11.5238 0.0968323 12.0113C0.226039 11.9582 0.827345 11.8617 1.51313 11.881C3.03379 11.9245 5.17563 12.1513 5.22036 12.1417C5.26508 12.132 7.57092 10.7707 8.94746 10.0514C9.33011 9.85346 9.63822 9.83898 9.80718 9.75691Z" fill="url(#paint7_radial_79_950)"/>
<path style="mix-blend-mode:multiply" opacity="0.5" d="M9.80718 9.75691C9.39968 9.4045 5.30981 11.7314 5.1806 11.8038C5.02655 11.7941 6.45775 17.2347 6.51739 17.2202C6.57702 17.2057 10.2097 10.0997 9.81215 9.75691H9.80718Z" fill="url(#paint8_linear_79_950)"/>
<path style="mix-blend-mode:multiply" opacity="0.5" d="M1.02116 12.4796C0.896922 12.8754 6.11984 16.4381 6.36334 16.3174C6.60685 16.1967 9.67798 10.4327 9.186 10.51C8.69403 10.5872 5.66265 12.3975 5.25515 12.4796C4.84765 12.5568 1.14043 12.0837 1.01619 12.4796H1.02116Z" fill="url(#paint9_linear_79_950)"/>
<path style="mix-blend-mode:screen" d="M5.11601 12.0838C5.11601 12.0838 5.56823 14.372 5.81174 15.2651C6.05524 16.1582 6.51243 17.2202 6.51243 17.2202L5.11601 12.0789V12.0838Z" fill="url(#paint10_radial_79_950)"/>
<path style="mix-blend-mode:screen" opacity="0.5" d="M3.00896 9.59758C3.00896 9.59758 3.86868 4.66388 8.37102 1.96049C12.8734 -0.742903 17.7484 0.0101858 18.1559 0.966029C18.5634 1.92187 12.7491 0.36742 8.699 3.79011C4.64391 7.2128 3.00896 9.59758 3.00896 9.59758Z" fill="url(#paint11_radial_79_950)"/>
<g style="mix-blend-mode:screen">
<path d="M4.93711 6.85554C5.36449 7.02933 6.09997 5.5135 5.7372 5.40247C5.36946 5.28661 4.50974 6.68176 4.93711 6.85554Z" fill="white"/>
</g>
<path style="mix-blend-mode:screen" opacity="0.5" d="M4.86752 12.4313C4.73334 12.3975 0.966483 11.9389 0.896911 12.4168C0.827338 12.8947 5.9608 16.356 6.00056 16.2884C6.04032 16.2208 5.08618 12.4844 4.86752 12.4313Z" fill="url(#paint12_radial_79_950)"/>
<path style="mix-blend-mode:multiply" opacity="0.5" d="M5.71234 12.2623C5.69743 12.3202 6.32856 16.3802 6.57206 16.2595C6.81556 16.1388 9.33509 10.5727 9.19097 10.5099C9.04686 10.452 5.77198 12.0209 5.71234 12.2623Z" fill="url(#paint13_linear_79_950)"/>
<path d="M1.85106 11.8955C1.79143 12.0838 4.70851 12.1658 4.76814 12.1127C4.82777 12.0596 1.91069 11.7072 1.85106 11.8955Z" fill="white"/>
<path d="M11.0645 23.5055C19.2343 25.673 26.7282 18.6442 25.8884 10.9685H21.232C22.2706 19.5614 11.3974 24.1137 4.79796 18.9145C6.04033 21.0965 8.35113 22.8248 11.0595 23.5006L11.0645 23.5055Z" fill="url(#paint14_linear_79_950)"/>
<path d="M11.0645 23.5055C19.2343 25.673 26.7282 18.6442 25.8884 10.9685H21.232C22.2706 19.5614 11.3974 24.1137 4.79796 18.9145C6.04033 21.0965 8.35113 22.8248 11.0595 23.5006L11.0645 23.5055Z" fill="url(#paint15_linear_79_950)"/>
<path style="mix-blend-mode:screen" d="M11.0645 23.5055C19.2343 25.673 26.7282 18.6442 25.8884 10.9685C25.8884 10.9685 26.1418 12.9284 25.5157 14.9946C24.7057 17.6739 22.698 20.7538 19.7163 22.2841C15.7457 24.3213 12.4162 23.5634 11.0645 23.5055Z" fill="url(#paint16_radial_79_950)"/>
<path d="M25.9083 12.2381L21.1923 10.954C22.2309 19.5469 11.3577 24.0992 4.75821 18.9C5.33467 19.9186 9.14128 21.7772 13.087 21.2414C17.3161 20.6669 20.2381 18.3883 21.2618 13.6574C21.2867 13.5415 23.6472 12.325 23.6472 12.325C23.6472 12.325 25.9182 12.3733 25.9033 12.2381H25.9083Z" fill="url(#paint17_linear_79_950)"/>
<path style="mix-blend-mode:multiply" opacity="0.5" d="M4.79796 18.9193C11.3974 24.1137 22.2706 19.5614 21.232 10.9685H25.8834C26.0176 12.1705 25.9431 13.3484 25.6946 14.4829C25.8188 11.9098 24.2236 12.0305 23.3242 13.4257C22.6682 14.4443 21.3562 18.6297 16.4414 20.7393C11.5266 22.8489 7.19325 20.8117 6.53231 20.5414C5.32473 20.0393 8.24678 22.68 11.8894 23.6937C11.6111 23.6455 11.3328 23.5827 11.0545 23.5055C8.34617 22.8296 6.03039 21.1014 4.78802 18.9193H4.79796Z" fill="url(#paint18_linear_79_950)"/>
<path d="M18.946 14.2174C19.3535 14.5698 23.4434 12.243 23.5726 12.1706C23.7267 12.1802 28.4576 12.4506 28.6564 11.963C28.8502 11.4851 22.3004 6.74448 22.2408 6.75896C22.1812 6.77344 18.5485 13.8795 18.946 14.2223V14.2174Z" fill="url(#paint19_linear_79_950)"/>
<path d="M18.946 14.2174C19.1051 14.3526 19.3585 12.9767 20.1636 11.1713C20.9686 9.36096 22.3203 7.12583 22.3203 7.12583C22.3203 7.12583 23.6323 7.78237 24.2882 8.2265C23.1651 7.39134 22.2607 6.74929 22.2408 6.75412C22.1812 6.7686 18.5485 13.8747 18.946 14.2174Z" fill="url(#paint20_linear_79_950)"/>
<path style="mix-blend-mode:screen" d="M18.946 14.2175C19.3535 14.5699 23.4434 12.243 23.5726 12.1706C23.7267 12.1803 28.4576 12.4506 28.6564 11.963C28.5272 12.0161 27.9259 12.1127 27.2401 12.0934C25.7194 12.0499 23.5776 11.823 23.5329 11.8327C23.4881 11.8423 21.1823 13.2037 19.8058 13.923C19.4231 14.1209 19.115 14.1354 18.946 14.2175Z" fill="url(#paint21_radial_79_950)"/>
<path style="mix-blend-mode:multiply" opacity="0.5" d="M18.946 14.2174C19.3535 14.5698 23.4434 12.243 23.5726 12.1706C23.7267 12.1802 22.2955 6.73964 22.2358 6.75412C22.1762 6.7686 18.5435 13.8747 18.9411 14.2174H18.946Z" fill="url(#paint22_linear_79_950)"/>
<path style="mix-blend-mode:multiply" opacity="0.5" d="M27.7271 11.4947C27.8514 11.0988 22.6284 7.53613 22.3849 7.65682C22.1414 7.77751 19.0703 13.5415 19.5623 13.4643C20.0543 13.387 23.0856 11.5767 23.4931 11.4947C23.9006 11.4174 27.6079 11.8905 27.7321 11.4947H27.7271Z" fill="url(#paint23_linear_79_950)"/>
<path style="mix-blend-mode:screen" d="M23.6323 11.8905C23.6323 11.8905 23.18 9.60231 22.9365 8.70922C22.693 7.81614 22.2358 6.75409 22.2358 6.75409L23.6323 11.8954V11.8905Z" fill="url(#paint24_radial_79_950)"/>
<path style="mix-blend-mode:screen" opacity="0.5" d="M25.7443 14.3767C25.7443 14.3767 24.8846 19.3104 20.3822 22.0138C15.8799 24.7172 11.0048 23.9641 10.5973 23.0083C10.1898 22.0524 16.0041 23.6069 20.0542 20.1842C24.1093 16.7615 25.7443 14.3767 25.7443 14.3767Z" fill="url(#paint25_radial_79_950)"/>
<g style="mix-blend-mode:screen">
<path d="M23.8112 17.1139C23.3838 16.9353 22.6483 18.456 23.0111 18.567C23.3788 18.6829 24.2385 17.2877 23.8112 17.1139Z" fill="white"/>
</g>
<path style="mix-blend-mode:screen" opacity="0.5" d="M23.8857 11.5381C24.0199 11.5719 27.7867 12.0305 27.8563 11.5526C27.9259 11.0747 22.7924 7.61338 22.7527 7.68097C22.7129 7.74855 23.6671 11.485 23.8857 11.5381Z" fill="url(#paint26_radial_79_950)"/>
<path style="mix-blend-mode:multiply" opacity="0.5" d="M23.0409 11.712C23.0558 11.654 22.4247 7.59411 22.1812 7.7148C21.9377 7.83548 19.4182 13.4016 19.5623 13.4643C19.7064 13.5223 22.9813 11.9533 23.0409 11.712Z" fill="url(#paint27_linear_79_950)"/>
<path d="M26.8972 12.0788C26.9568 11.8905 24.0398 11.8085 23.9801 11.8616C23.9205 11.9099 26.8376 12.2671 26.8972 12.0788Z" fill="white"/>
<defs>
<linearGradient id="paint0_linear_79_950" x1="7.61068" y1="1.57427" x2="15.3447" y2="12.0055" gradientUnits="userSpaceOnUse">
<stop stop-color="#FCF800"/>
<stop offset="0.53" stop-color="#FC9700"/>
<stop offset="0.71" stop-color="#FE8500"/>
<stop offset="1" stop-color="#FC9700"/>
</linearGradient>
<linearGradient id="paint1_linear_79_950" x1="7.61068" y1="1.57427" x2="15.3447" y2="12.0055" gradientUnits="userSpaceOnUse">
<stop stop-color="#FCF800"/>
<stop offset="0.53" stop-color="#FC9700"/>
<stop offset="0.71" stop-color="#FE8500"/>
<stop offset="1" stop-color="#FC9700"/>
</linearGradient>
<radialGradient id="paint2_radial_79_950" cx="0" cy="0" r="1" gradientUnits="userSpaceOnUse" gradientTransform="translate(5.67258 3.03217) scale(13.015 12.6432)">
<stop stop-color="#FFF261"/>
<stop offset="0.11" stop-color="#FAED5F"/>
<stop offset="0.23" stop-color="#ECE05A"/>
<stop offset="0.36" stop-color="#D6CB51"/>
<stop offset="0.5" stop-color="#B6AD45"/>
<stop offset="0.64" stop-color="#8E8636"/>
<stop offset="0.78" stop-color="#5C5723"/>
<stop offset="0.92" stop-color="#22210D"/>
<stop offset="1"/>
</radialGradient>
<linearGradient id="paint3_linear_79_950" x1="2.84496" y1="7.82584" x2="23.9901" y2="7.82584" gradientUnits="userSpaceOnUse">
<stop stop-color="#F63F00"/>
<stop offset="0.55" stop-color="#F66A00"/>
<stop offset="1" stop-color="#FA9300"/>
</linearGradient>
<linearGradient id="paint4_linear_79_950" x1="15.2537" y1="11.234" x2="3.95922" y2="-3.6434" gradientUnits="userSpaceOnUse">
<stop stop-color="#DE376D"/>
<stop offset="0.99" stop-color="white"/>
</linearGradient>
<linearGradient id="paint5_linear_79_950" x1="2.66109" y1="8.83003" x2="12.5736" y2="18.6612" gradientUnits="userSpaceOnUse">
<stop stop-color="#FCF800"/>
<stop offset="0.53" stop-color="#FC9700"/>
<stop offset="0.71" stop-color="#FE8500"/>
<stop offset="1" stop-color="#FC9700"/>
</linearGradient>
<linearGradient id="paint6_linear_79_950" x1="6.84539" y1="12.4844" x2="10.4008" y2="16.0101" gradientUnits="userSpaceOnUse">
<stop stop-color="#F63F00"/>
<stop offset="0.55" stop-color="#F66A00"/>
<stop offset="1" stop-color="#FA9300"/>
</linearGradient>
<radialGradient id="paint7_radial_79_950" cx="0" cy="0" r="1" gradientUnits="userSpaceOnUse" gradientTransform="translate(4.95201 10.93) scale(3.54323 3.442)">
<stop stop-color="#FFF261"/>
<stop offset="0.11" stop-color="#FAED5F"/>
<stop offset="0.23" stop-color="#ECE05A"/>
<stop offset="0.36" stop-color="#D6CB51"/>
<stop offset="0.5" stop-color="#B6AD45"/>
<stop offset="0.64" stop-color="#8E8636"/>
<stop offset="0.78" stop-color="#5C5723"/>
<stop offset="0.92" stop-color="#22210D"/>
<stop offset="1"/>
</radialGradient>
<linearGradient id="paint8_linear_79_950" x1="9.04188" y1="15.6078" x2="6.39475" y2="8.87321" gradientUnits="userSpaceOnUse">
<stop stop-color="#DE376D"/>
<stop offset="0.99" stop-color="white"/>
</linearGradient>
<linearGradient id="paint9_linear_79_950" x1="6.77581" y1="19.6532" x2="5.49757" y2="12.9579" gradientUnits="userSpaceOnUse">
<stop stop-color="#DE376D"/>
<stop offset="0.99" stop-color="white"/>
</linearGradient>
<radialGradient id="paint10_radial_79_950" cx="0" cy="0" r="1" gradientUnits="userSpaceOnUse" gradientTransform="translate(5.81671 14.652) scale(1.93312 1.87789)">
<stop stop-color="#FFF261"/>
<stop offset="0.11" stop-color="#FAED5F"/>
<stop offset="0.23" stop-color="#ECE05A"/>
<stop offset="0.36" stop-color="#D6CB51"/>
<stop offset="0.5" stop-color="#B6AD45"/>
<stop offset="0.64" stop-color="#8E8636"/>
<stop offset="0.78" stop-color="#5C5723"/>
<stop offset="0.92" stop-color="#22210D"/>
<stop offset="1"/>
</radialGradient>
<radialGradient id="paint11_radial_79_950" cx="0" cy="0" r="1" gradientUnits="userSpaceOnUse" gradientTransform="translate(6.76588 -1.72771) scale(12.3144 11.9625)">
<stop stop-color="#FFF261"/>
<stop offset="0.11" stop-color="#FAED5F"/>
<stop offset="0.23" stop-color="#ECE05A"/>
<stop offset="0.36" stop-color="#D6CB51"/>
<stop offset="0.5" stop-color="#B6AD45"/>
<stop offset="0.64" stop-color="#8E8636"/>
<stop offset="0.78" stop-color="#5C5723"/>
<stop offset="0.92" stop-color="#22210D"/>
<stop offset="1"/>
</radialGradient>
<radialGradient id="paint12_radial_79_950" cx="0" cy="0" r="1" gradientUnits="userSpaceOnUse" gradientTransform="translate(-2.87492 12.2092) scale(10.7092 10.4032)">
<stop stop-color="#FFF261"/>
<stop offset="0.11" stop-color="#FAED5F"/>
<stop offset="0.23" stop-color="#ECE05A"/>
<stop offset="0.36" stop-color="#D6CB51"/>
<stop offset="0.5" stop-color="#B6AD45"/>
<stop offset="0.64" stop-color="#8E8636"/>
<stop offset="0.78" stop-color="#5C5723"/>
<stop offset="0.92" stop-color="#22210D"/>
<stop offset="1"/>
</radialGradient>
<linearGradient id="paint13_linear_79_950" x1="5.65768" y1="7.70516" x2="8.28339" y2="14.8952" gradientUnits="userSpaceOnUse">
<stop stop-color="#DE376D"/>
<stop offset="0.99" stop-color="white"/>
</linearGradient>
<linearGradient id="paint14_linear_79_950" x1="21.1426" y1="22.4" x2="13.4086" y2="11.9687" gradientUnits="userSpaceOnUse">
<stop stop-color="#FCF800"/>
<stop offset="0.53" stop-color="#FC9700"/>
<stop offset="0.71" stop-color="#FE8500"/>
<stop offset="1" stop-color="#FC9700"/>
</linearGradient>
<linearGradient id="paint15_linear_79_950" x1="21.1426" y1="22.4" x2="13.4086" y2="11.9687" gradientUnits="userSpaceOnUse">
<stop stop-color="#FCF800"/>
<stop offset="0.53" stop-color="#FC9700"/>
<stop offset="0.71" stop-color="#FE8500"/>
<stop offset="1" stop-color="#FC9700"/>
</linearGradient>
<radialGradient id="paint16_radial_79_950" cx="0" cy="0" r="1" gradientUnits="userSpaceOnUse" gradientTransform="translate(23.0807 20.9421) rotate(180) scale(13.0151 12.6432)">
<stop stop-color="#FFF261"/>
<stop offset="0.11" stop-color="#FAED5F"/>
<stop offset="0.23" stop-color="#ECE05A"/>
<stop offset="0.36" stop-color="#D6CB51"/>
<stop offset="0.5" stop-color="#B6AD45"/>
<stop offset="0.64" stop-color="#8E8636"/>
<stop offset="0.78" stop-color="#5C5723"/>
<stop offset="0.92" stop-color="#22210D"/>
<stop offset="1"/>
</radialGradient>
<linearGradient id="paint17_linear_79_950" x1="25.9083" y1="16.1484" x2="4.75821" y2="16.1484" gradientUnits="userSpaceOnUse">
<stop stop-color="#F63F00"/>
<stop offset="0.55" stop-color="#F66A00"/>
<stop offset="1" stop-color="#FA9300"/>
</linearGradient>
<linearGradient id="paint18_linear_79_950" x1="13.4995" y1="12.7402" x2="24.7891" y2="27.6174" gradientUnits="userSpaceOnUse">
<stop stop-color="#DE376D"/>
<stop offset="0.99" stop-color="white"/>
</linearGradient>
<linearGradient id="paint19_linear_79_950" x1="26.0872" y1="15.1443" x2="16.1796" y2="5.31332" gradientUnits="userSpaceOnUse">
<stop stop-color="#FCF800"/>
<stop offset="0.53" stop-color="#FC9700"/>
<stop offset="0.71" stop-color="#FE8500"/>
<stop offset="1" stop-color="#FC9700"/>
</linearGradient>
<linearGradient id="paint20_linear_79_950" x1="21.9029" y1="11.4947" x2="18.3476" y2="7.96419" gradientUnits="userSpaceOnUse">
<stop stop-color="#F63F00"/>
<stop offset="0.55" stop-color="#F66A00"/>
<stop offset="1" stop-color="#FA9300"/>
</linearGradient>
<radialGradient id="paint21_radial_79_950" cx="0" cy="0" r="1" gradientUnits="userSpaceOnUse" gradientTransform="translate(23.8012 13.0444) rotate(-180) scale(3.54323 3.442)">
<stop stop-color="#FFF261"/>
<stop offset="0.11" stop-color="#FAED5F"/>
<stop offset="0.23" stop-color="#ECE05A"/>
<stop offset="0.36" stop-color="#D6CB51"/>
<stop offset="0.5" stop-color="#B6AD45"/>
<stop offset="0.64" stop-color="#8E8636"/>
<stop offset="0.78" stop-color="#5C5723"/>
<stop offset="0.92" stop-color="#22210D"/>
<stop offset="1"/>
</radialGradient>
<linearGradient id="paint22_linear_79_950" x1="19.7064" y1="8.3665" x2="22.3535" y2="15.1011" gradientUnits="userSpaceOnUse">
<stop stop-color="#DE376D"/>
<stop offset="0.99" stop-color="white"/>
</linearGradient>
<linearGradient id="paint23_linear_79_950" x1="21.9774" y1="4.32103" x2="23.2557" y2="11.0163" gradientUnits="userSpaceOnUse">
<stop stop-color="#DE376D"/>
<stop offset="0.99" stop-color="white"/>
</linearGradient>
<radialGradient id="paint24_radial_79_950" cx="0" cy="0" r="1" gradientUnits="userSpaceOnUse" gradientTransform="translate(22.9365 9.32231) rotate(-180) scale(1.93312 1.87789)">
<stop stop-color="#FFF261"/>
<stop offset="0.11" stop-color="#FAED5F"/>
<stop offset="0.23" stop-color="#ECE05A"/>
<stop offset="0.36" stop-color="#D6CB51"/>
<stop offset="0.5" stop-color="#B6AD45"/>
<stop offset="0.64" stop-color="#8E8636"/>
<stop offset="0.78" stop-color="#5C5723"/>
<stop offset="0.92" stop-color="#22210D"/>
<stop offset="1"/>
</radialGradient>
<radialGradient id="paint25_radial_79_950" cx="0" cy="0" r="1" gradientUnits="userSpaceOnUse" gradientTransform="translate(21.9874 25.702) rotate(-180) scale(12.3144 11.9625)">
<stop stop-color="#FFF261"/>
<stop offset="0.11" stop-color="#FAED5F"/>
<stop offset="0.23" stop-color="#ECE05A"/>
<stop offset="0.36" stop-color="#D6CB51"/>
<stop offset="0.5" stop-color="#B6AD45"/>
<stop offset="0.64" stop-color="#8E8636"/>
<stop offset="0.78" stop-color="#5C5723"/>
<stop offset="0.92" stop-color="#22210D"/>
<stop offset="1"/>
</radialGradient>
<radialGradient id="paint26_radial_79_950" cx="0" cy="0" r="1" gradientUnits="userSpaceOnUse" gradientTransform="translate(31.6232 11.765) rotate(180) scale(10.7092 10.4032)">
<stop stop-color="#FFF261"/>
<stop offset="0.11" stop-color="#FAED5F"/>
<stop offset="0.23" stop-color="#ECE05A"/>
<stop offset="0.36" stop-color="#D6CB51"/>
<stop offset="0.5" stop-color="#B6AD45"/>
<stop offset="0.64" stop-color="#8E8636"/>
<stop offset="0.78" stop-color="#5C5723"/>
<stop offset="0.92" stop-color="#22210D"/>
<stop offset="1"/>
</radialGradient>
<linearGradient id="paint27_linear_79_950" x1="23.0956" y1="16.2691" x2="20.4699" y2="9.0791" gradientUnits="userSpaceOnUse">
<stop stop-color="#DE376D"/>
<stop offset="0.99" stop-color="white"/>
</linearGradient>
</defs>
</svg>
