<svg width="38" height="38" viewBox="0 0 38 38" fill="none" xmlns="http://www.w3.org/2000/svg">
<g clip-path="url(#clip0_432_3644)">
<path d="M30.5659 30.5189C30.3841 31.4275 30.1653 32.0246 29.9169 32.1804C29.9169 32.1804 29.9057 32.1804 29.8909 32.1952C29.7426 32.2805 29.5015 32.3584 29.1863 32.4215C29.1677 32.4215 29.1566 32.4289 29.1381 32.4326C27.751 32.7218 24.9955 32.8479 22.1028 32.822C22.0435 32.822 21.9804 32.822 21.9248 32.822C19.0432 32.7923 16.0504 32.6106 14.1664 32.2954C13.2244 32.1322 12.5643 31.9393 12.3306 31.7131C12.275 31.6612 12.2231 31.5759 12.1712 31.4572C10.9696 28.8204 10.417 10.5852 11.5481 9.52821C12.5939 8.55655 16.8069 8.11894 21.031 8.06702H21.3648C25.8559 8.03735 30.2655 8.43417 30.7995 9.07205C31.6896 10.1438 31.6302 25.3528 30.577 30.5152L30.5659 30.5189Z" fill="#60E2C3"/>
<path d="M29.1418 31.0307C28.9823 31.6501 28.8043 32.058 28.6077 32.1841C28.4446 32.2842 28.1627 32.3695 27.7844 32.4437C26.5977 32.6848 24.4652 32.8108 22.1028 32.8257C22.0435 32.8257 21.9805 32.8257 21.9248 32.8257C17.9789 32.8516 13.4581 32.5809 11.6891 32.0395C11.3701 31.9393 11.1365 31.8318 11.0178 31.7168C10.0981 30.8193 9.50098 20.7356 9.6382 14.4606V14.4532C9.69754 11.8201 9.88668 9.85826 10.2353 9.53191C11.3887 8.45641 16.4027 8.03734 21.031 8.07071H21.3648C25.3701 8.11893 29.0046 8.4972 29.483 9.07575C30.4027 10.1846 30.3137 26.4506 29.1492 31.0307H29.1418Z" fill="#45E9B8"/>
<path d="M11.9821 8.78646C11.9821 8.78646 20.8827 7.15467 29.4756 9.07573H30.7884C30.7884 9.07573 30.0986 8.25983 25.5556 7.92977C22.7481 7.72579 17.6191 7.60341 11.9858 8.78275L11.9821 8.78646Z" fill="#E2FFEA"/>
<path d="M29.9169 32.1841C29.9169 32.1841 29.9058 32.1841 29.8909 32.1989C29.8168 32.2323 29.6091 32.3213 29.1863 32.4252C29.1677 32.4252 29.1566 32.4326 29.1381 32.4363C28.0515 32.7033 25.6409 33.0742 20.8011 32.9889C13.6324 32.8628 11.7966 32.0877 11.6854 32.0395C11.6854 32.0395 12.6422 32.1618 14.1627 32.2991C16.2877 32.4919 19.5068 32.7144 22.7444 32.6625C23.0077 32.6625 23.2599 32.6514 23.5047 32.644C24.7768 32.618 25.8226 32.5698 26.6644 32.5216H26.683C27.0983 32.4956 27.4618 32.4697 27.7844 32.4437C29.3643 32.3176 29.9169 32.1841 29.9169 32.1841Z" fill="#2FB7C9"/>
<g style="mix-blend-mode:multiply" opacity="0.3">
<path d="M11.2923 10.129C9.95716 10.8819 10.888 22.5825 13.3023 26.2652C15.7203 29.9478 27.6027 22.0819 29.1084 18.4697C30.6141 14.8575 28.5225 10.155 26.5643 9.07578C24.6062 7.99657 12.7423 9.30942 11.2923 10.129Z" fill="#B5F1F9"/>
</g>
<g style="mix-blend-mode:overlay" opacity="0.3">
<path d="M18.1161 32.5142C14.719 31.5351 27.7066 24.2848 28.8303 23.8583C29.954 23.4318 29.4385 31.0493 28.6226 32.0321C27.8067 33.0148 18.1161 32.5142 18.1161 32.5142Z" fill="white"/>
</g>
<g style="mix-blend-mode:multiply" opacity="0.8">
<path d="M30.0986 9.07573C29.7685 9.07573 30.2989 14.8908 30.0986 21.748C29.8983 28.609 29.5794 29.9775 29.9169 30.2408C30.2581 30.5004 31.5042 23.3984 31.4077 18.0691C31.3113 12.7398 30.959 9.40209 30.7884 9.30196C30.6178 9.20182 30.0986 9.07202 30.0986 9.07202V9.07573Z" fill="#9ACDE3"/>
</g>
<g style="mix-blend-mode:multiply" opacity="0.8">
<path d="M30.5659 30.5189C30.3841 31.4275 30.1653 32.0246 29.9169 32.1804C29.9169 32.1804 29.9057 32.1804 29.8909 32.1952C29.7426 32.2805 29.5015 32.3584 29.1863 32.4214C29.1677 32.4214 29.1566 32.4289 29.1381 32.4326C28.0514 32.6996 25.6408 33.0704 20.8011 32.9851C13.6324 32.8591 11.7966 32.084 11.6853 32.0357C11.3664 31.9356 11.1328 31.8281 11.0141 31.7131C10.0943 30.8156 9.49726 20.7319 9.63448 14.4569C9.70865 17.1865 10.0684 28.1899 10.9288 30.3557C11.1031 30.8008 11.5407 31.1642 12.1712 31.4572C13.5063 32.084 15.6981 32.3955 18.0716 32.4993C19.1582 32.5438 20.2856 32.5475 21.3796 32.5179C24.3354 32.4363 27.2689 31.6426 29.0008 31.0789C29.049 31.0604 29.0973 31.0493 29.1455 31.0307C29.9947 30.7526 30.5214 30.5412 30.5696 30.5189H30.5659Z" fill="#9ACDF2"/>
</g>
<path d="M23.5158 8.41935C21.6059 8.55656 23.1709 10.804 24.8027 11.6533C26.4345 12.5025 27.9031 9.56531 28.1442 9.07948C28.3852 8.58994 24.6692 8.33776 23.5158 8.42305V8.41935Z" fill="white"/>
<path d="M28.9971 30.5189C28.8154 31.4275 28.5966 32.0246 28.3481 32.1804C28.3481 32.1804 28.337 32.1804 28.3221 32.1952C28.1738 32.2805 27.9327 32.3584 27.6175 32.4215C27.599 32.4215 27.5878 32.4289 27.5693 32.4326C26.1823 32.7218 23.4268 32.8479 20.5341 32.822C20.4747 32.822 20.4117 32.822 20.3561 32.822C17.4745 32.7923 14.4816 32.6106 12.5976 32.2954C11.6557 32.1322 10.9955 31.9393 10.7619 31.7131C10.7063 31.6612 10.6543 31.5759 10.6024 31.4572C9.40082 28.8204 8.84824 10.5852 9.97937 9.52821C11.0252 8.55655 15.2382 8.11894 19.4623 8.06702H19.7961C24.2872 8.03735 28.6967 8.43417 29.2308 9.07205C30.1208 10.1438 30.0615 25.3528 29.0082 30.5152L28.9971 30.5189Z" fill="#60E2C3"/>
<path d="M27.573 31.0307C27.4135 31.6501 27.2355 32.058 27.039 32.1841C26.8758 32.2842 26.5939 32.3695 26.2157 32.4437C25.0289 32.6848 22.8965 32.8108 20.5341 32.8257C20.4747 32.8257 20.4117 32.8257 20.3561 32.8257C16.4101 32.8516 11.8893 32.5809 10.1203 32.0395C9.80137 31.9393 9.56772 31.8318 9.44905 31.7168C8.52931 30.8193 7.93223 20.7356 8.06945 14.4606V14.4532C8.12878 11.8201 8.31792 9.85826 8.66653 9.53191C9.8162 8.45641 14.8339 8.03734 19.4623 8.07071H19.7961C23.8014 8.11893 27.4358 8.4972 27.9142 9.07575C28.8339 10.1846 28.7449 26.4506 27.5804 31.0307H27.573Z" fill="#45E9B8"/>
<path d="M10.417 8.78646C10.417 8.78646 19.3177 7.15467 27.9105 9.07573H29.2234C29.2234 9.07573 28.5335 8.25983 23.9905 7.92977C21.1831 7.72579 16.0541 7.60341 10.4207 8.78275L10.417 8.78646Z" fill="#E2FFEA"/>
<path d="M28.3481 32.1841C28.3481 32.1841 28.337 32.1841 28.3222 32.1989C28.248 32.2323 28.0403 32.3213 27.6175 32.4252C27.599 32.4252 27.5879 32.4326 27.5693 32.4363C26.4827 32.7033 24.0721 33.0742 19.2324 32.9889C12.0636 32.8628 10.2279 32.0877 10.1166 32.0395C10.1166 32.0395 11.0734 32.1618 12.594 32.2991C14.719 32.4919 17.9381 32.7144 21.1757 32.6625C21.439 32.6625 21.6912 32.6514 21.9359 32.644C23.208 32.618 24.2538 32.5698 25.0957 32.5216H25.1142C25.5296 32.4956 25.893 32.4697 26.2157 32.4437C27.7955 32.3176 28.3481 32.1841 28.3481 32.1841Z" fill="#2FB7C9"/>
<g style="mix-blend-mode:multiply" opacity="0.3">
<path d="M9.72717 10.129C8.39207 10.8819 9.32293 22.5825 11.7372 26.2652C14.1552 29.9478 26.0376 22.0819 27.5433 18.4697C29.049 14.8575 26.9574 10.155 24.9992 9.07578C23.0411 7.99657 11.1772 9.30942 9.72717 10.129Z" fill="#B5F1F9"/>
</g>
<g style="mix-blend-mode:overlay" opacity="0.3">
<path d="M16.5473 32.5142C13.1502 31.5351 26.1378 24.2848 27.2615 23.8583C28.3852 23.4318 27.8697 31.0493 27.0538 32.0321C26.2379 33.0148 16.5473 32.5142 16.5473 32.5142Z" fill="white"/>
</g>
<g style="mix-blend-mode:multiply" opacity="0.8">
<path d="M28.5298 9.07573C28.1998 9.07573 28.7301 14.8908 28.5298 21.748C28.3296 28.609 28.0106 29.9775 28.3481 30.2408C28.6893 30.5004 29.9354 23.3984 29.839 18.0691C29.7425 12.7398 29.3902 9.40209 29.2196 9.30196C29.049 9.20553 28.5298 9.07202 28.5298 9.07202V9.07573Z" fill="#9ACDE3"/>
</g>
<g style="mix-blend-mode:multiply" opacity="0.8">
<path d="M28.9971 30.5189C28.8154 31.4275 28.5966 32.0246 28.3481 32.1804C28.3481 32.1804 28.337 32.1804 28.3221 32.1952C28.1738 32.2805 27.9327 32.3584 27.6175 32.4214C27.599 32.4214 27.5878 32.4289 27.5693 32.4326C26.4827 32.6996 24.0721 33.0704 19.2323 32.9851C12.0636 32.8591 10.2278 32.084 10.1166 32.0357C9.79764 31.9356 9.564 31.8281 9.44533 31.7131C8.52559 30.8156 7.92851 20.7319 8.06572 14.4569C8.1399 17.1865 8.49963 28.1899 9.36003 30.3557C9.53433 30.8008 9.97195 31.1642 10.6024 31.4572C11.9375 32.084 14.1293 32.3955 16.5028 32.4993C17.5894 32.5438 18.7168 32.5475 19.8109 32.5179C22.7667 32.4363 25.7002 31.6426 27.4321 31.0789C27.4803 31.0604 27.5285 31.0493 27.5767 31.0307C28.426 30.7526 28.9526 30.5412 29.0008 30.5189H28.9971Z" fill="#9ACDF2"/>
</g>
<path d="M21.947 8.41935C20.0371 8.55656 21.6021 10.804 23.2339 11.6533C24.8657 12.5025 26.3343 9.56531 26.5754 9.07948C26.8164 8.58994 23.1004 8.33776 21.947 8.42305V8.41935Z" fill="white"/>
<g style="mix-blend-mode:multiply" opacity="0.78">
<path d="M8.83341 29.6251C8.83341 29.6251 15.698 31.3088 21.3833 31.1753C27.5693 31.0307 27.6806 29.677 28.0551 26.7917C28.3036 24.8855 28.4408 12.6694 28.2925 10.8744C28.1441 9.07942 27.5137 8.91254 27.5137 8.91254L8.71103 28.9131L8.83341 29.6251Z" fill="#45E9B8"/>
</g>
<path d="M26.9537 27.7189C26.772 28.6275 26.5532 29.2246 26.3047 29.3804C26.3047 29.3804 26.2936 29.3804 26.2787 29.3952C26.1304 29.4805 25.8893 29.5584 25.5741 29.6214C25.5555 29.6214 25.5444 29.6288 25.5259 29.6326C24.1389 29.9218 21.3834 30.0479 18.4906 30.022C18.4313 30.022 18.3683 30.022 18.3126 30.022C15.431 29.9923 12.4382 29.8106 10.5542 29.4953C9.61223 29.3322 8.9521 29.1393 8.71846 28.9131C8.66283 28.8612 8.61091 28.7759 8.55899 28.6572C7.35369 26.0204 6.7974 7.78514 7.92852 6.7319C8.97435 5.75653 13.1873 5.31892 17.4114 5.267H17.7452C22.2363 5.23733 26.6459 5.63415 27.1799 6.27203C28.07 7.34382 28.0106 22.5528 26.9574 27.7152L26.9537 27.7189Z" fill="#60E2C3"/>
<path d="M25.5296 28.2307C25.3701 28.85 25.1921 29.258 24.9956 29.3804C24.8324 29.4805 24.5505 29.5658 24.1722 29.64C22.9855 29.881 20.853 30.0071 18.4907 30.022C18.4313 30.022 18.3683 30.022 18.3126 30.022C14.3667 30.0479 9.84588 29.7772 8.07688 29.2357C7.75794 29.1356 7.52429 29.0281 7.40562 28.9131C6.47847 28.0156 5.88138 17.9319 6.0186 11.6569V11.6495C6.07794 9.0164 6.26707 7.05455 6.61568 6.7319C7.76906 5.6564 12.7831 5.23733 17.4114 5.267H17.7452C21.7505 5.31521 25.385 5.69349 25.8634 6.27203C26.7831 7.3809 26.6941 23.6469 25.5296 28.227V28.2307Z" fill="url(#paint0_linear_432_3644)"/>
<path d="M8.37357 5.98648C8.37357 5.98648 17.2742 4.35469 25.8671 6.27575H27.1799C27.1799 6.27575 26.4901 5.45986 21.9471 5.12979C19.1359 4.92953 14.0069 4.80714 8.37357 5.98648Z" fill="#E2FFEA"/>
<path d="M26.3047 29.3804C26.3047 29.3804 26.2936 29.3804 26.2787 29.3952C26.2046 29.4286 25.9969 29.5176 25.5741 29.6214C25.5556 29.6214 25.5444 29.6289 25.5259 29.6326C24.4393 29.8996 22.0287 30.2705 17.1889 30.1852C10.0202 30.0591 8.18444 29.284 8.07318 29.2357C8.07318 29.2357 9.03 29.3581 10.5505 29.4954C12.6756 29.6882 15.8946 29.9107 19.1323 29.8588C19.3956 29.8588 19.6477 29.8477 19.8925 29.8403C21.1646 29.8143 22.2104 29.7661 23.0523 29.7179H23.0708C23.4862 29.6919 23.8496 29.6659 24.1723 29.64C25.7521 29.5139 26.3047 29.3804 26.3047 29.3804Z" fill="#2FB7C9"/>
<g style="mix-blend-mode:multiply" opacity="0.3">
<path d="M7.68374 7.329C6.34864 8.08185 7.2795 19.7825 9.69381 23.4652C12.1118 27.1478 23.9942 19.2818 25.4999 15.6697C27.0056 12.0575 24.9139 7.35496 22.9558 6.27576C20.9976 5.19655 9.13381 6.5094 7.68374 7.329Z" fill="#B5F1F9"/>
</g>
<path d="M11.6965 15.169H11.7002C12.7979 13.7597 14.7338 12.3727 16.1246 11.5308C16.1246 11.5308 20.4636 14.6238 21.0014 17.2087C20.9977 17.2124 21.0051 17.2124 21.0051 17.2124C21.1423 17.88 21.0236 18.5067 20.5118 19.0445C18.0234 21.6479 16.0096 18.3918 15.9873 17.268C15.9873 17.268 15.0676 21.2548 12.1304 19.33C10.7434 18.4177 10.7063 16.4299 11.6928 15.169H11.6965Z" fill="#1D1D1D"/>
<path d="M15.991 17.268C15.991 17.268 16.1579 21.4921 13.306 22.8309H18.3386C18.3386 22.8309 15.8797 21.2103 15.991 17.268Z" fill="#1D1D1D"/>
<g style="mix-blend-mode:overlay" opacity="0.3">
<path d="M16.195 12.0574C15.5868 11.8646 12.3974 14.0415 12.0191 15.792C11.6408 17.5462 14.9007 16.8193 15.8241 16.9565C16.7476 17.0937 18.613 19.0333 19.9926 18.3398C21.3722 17.6463 18.6798 12.8474 16.195 12.0537V12.0574Z" fill="white"/>
</g>
<path d="M17.7192 13.1775C16.8625 12.8659 17.8082 14.4903 18.2718 14.5052C18.7354 14.52 18.4313 13.4371 17.7192 13.1775Z" fill="white"/>
<g style="mix-blend-mode:overlay" opacity="0.3">
<path d="M14.5076 29.7142C11.1105 28.7351 24.0981 21.4848 25.2218 21.0583C26.3455 20.6318 25.83 28.2493 25.0141 29.2321C24.1982 30.2148 14.5076 29.7142 14.5076 29.7142Z" fill="white"/>
</g>
<g style="mix-blend-mode:multiply" opacity="0.5">
<path d="M26.4864 6.27574C26.1564 6.27574 26.6867 12.0908 26.4864 18.9481C26.2862 25.809 25.9672 27.1775 26.3047 27.4408C26.6459 27.7004 27.892 20.5984 27.7956 15.2691C27.6991 9.93985 27.3468 6.6021 27.1762 6.50197C27.0056 6.40184 26.4864 6.27203 26.4864 6.27203V6.27574Z" fill="#9ACDE3"/>
</g>
<g style="mix-blend-mode:multiply" opacity="0.8">
<path d="M26.9537 27.7189C26.772 28.6275 26.5532 29.2246 26.3047 29.3804C26.3047 29.3804 26.2936 29.3804 26.2787 29.3952C26.1304 29.4805 25.8893 29.5584 25.5741 29.6215C25.5556 29.6215 25.5444 29.6289 25.5259 29.6326C24.4393 29.8996 22.0287 30.2705 17.1889 30.1852C10.0202 30.0591 8.18443 29.284 8.07317 29.2358C7.75423 29.1356 7.52059 29.0281 7.40191 28.9131C6.47847 28.0156 5.88138 17.9319 6.0186 11.657C6.09277 14.3865 6.45251 25.3899 7.31291 27.5558C7.48721 28.0008 7.92483 28.3642 8.55529 28.6572C9.89039 29.284 12.0822 29.5955 14.4557 29.6993C15.5423 29.7438 16.6697 29.7475 17.7638 29.7179C20.7195 29.6363 23.653 28.8426 25.385 28.2789C25.4332 28.2604 25.4814 28.2493 25.5296 28.2307C26.3789 27.9526 26.9055 27.7412 26.9537 27.7189Z" fill="#9ACDF2"/>
</g>
<path d="M19.9036 5.61563C17.9937 5.75285 19.5587 8.00027 21.1905 8.84954C22.8223 9.69881 24.2909 6.7616 24.532 6.27577C24.773 5.78623 21.057 5.53405 19.9036 5.61934V5.61563Z" fill="white"/>
</g>
<g opacity="0.5">
<path d="M27.1621 16.6108C31.6698 16.6108 35.3241 12.9565 35.3241 8.44874C35.3241 3.94096 31.6698 0.286682 27.1621 0.286682C22.6543 0.286682 19 3.94096 19 8.44874C19 12.9565 22.6543 16.6108 27.1621 16.6108Z" fill="url(#paint1_radial_432_3644)" style="mix-blend-mode:screen"/>
</g>
<path style="mix-blend-mode:color-dodge" opacity="0.5" d="M33.4039 8.81705C33.4039 10.477 32.0583 11.8226 30.3984 11.8226C28.7385 11.8226 27.3929 10.477 27.3929 8.81705C27.3929 7.15713 28.7385 5.81152 30.3984 5.81152C32.0583 5.81152 33.4039 7.15713 33.4039 8.81705Z" fill="url(#paint2_radial_432_3644)"/>
<path d="M30.6145 8.81707C30.6145 8.93493 30.5163 9.03315 30.3984 9.03315C30.2805 9.03315 30.1823 8.93493 30.1823 8.81707C30.1823 8.6992 30.2805 8.60098 30.3984 8.60098C30.5163 8.60098 30.6145 8.6992 30.6145 8.81707Z" fill="white"/>
<defs>
<linearGradient id="paint0_linear_432_3644" x1="16.2432" y1="30.0257" x2="16.2432" y2="5.267" gradientUnits="userSpaceOnUse">
<stop stop-color="#45E9B8"/>
<stop offset="1" stop-color="#FFE8D3"/>
</linearGradient>
<radialGradient id="paint1_radial_432_3644" cx="0" cy="0" r="1" gradientUnits="userSpaceOnUse" gradientTransform="translate(27.1621 8.44874) rotate(0.400202) scale(7.33812)">
<stop stop-color="#0EFFD4"/>
<stop offset="1" stop-color="#09B0B0" stop-opacity="0"/>
</radialGradient>
<radialGradient id="paint2_radial_432_3644" cx="0" cy="0" r="1" gradientUnits="userSpaceOnUse" gradientTransform="translate(30.3984 8.81705) scale(3.00553)">
<stop stop-color="#24FFE5"/>
<stop offset="1" stop-color="#22DAF3" stop-opacity="0"/>
</radialGradient>
<clipPath id="clip0_432_3644">
<rect width="25.4114" height="28" fill="white" transform="translate(6 5)"/>
</clipPath>
</defs>
</svg>
