<svg width="32" height="32" viewBox="0 0 32 32" fill="none" xmlns="http://www.w3.org/2000/svg">
<g clip-path="url(#clip0_192_4011)">
<path d="M25.2483 29.7526C25.2483 29.7526 25.2483 29.7526 25.2363 29.7526C25.182 29.7647 24.983 29.8009 24.6754 29.8431H24.6693C23.8551 29.9577 22.3353 30.1085 21.111 29.8431C21.1049 29.8431 21.0929 29.8431 21.0808 29.8431L16.8409 27.6659L15.9785 27.2256L15.5744 27.497L12.4141 29.6018L12.1125 29.8069C12.1125 29.8069 12.1125 29.8069 12.0944 29.8069C12.0522 29.8069 11.9195 29.825 11.7326 29.8431C11.7084 29.8431 11.6843 29.8491 11.6602 29.8491C10.7193 29.9336 8.5602 30.0904 7.58315 29.8009C7.57109 29.8009 7.56506 29.8009 7.553 29.7948C7.41428 29.7526 7.36603 29.5958 7.38413 29.3606C7.48063 28.2388 9.15728 25.1509 10.6168 22.6359C11.7326 20.718 12.7036 19.1559 12.7036 19.1559L12.8664 17.2018L13.361 11.4301L14.0968 2.81761L14.1269 2.40749C14.1269 2.40749 16.7806 1.84659 18.5055 2.40749C18.5176 2.40749 18.5176 2.40749 18.5297 2.41955C19.1448 2.71508 20.2787 6.75593 21.4246 11.5989C21.7442 12.9559 22.0639 14.3612 22.3715 15.7725C22.6851 17.2018 22.9927 18.6312 23.2762 19.9882C24.3979 25.3439 25.2242 29.7466 25.2242 29.7466L25.2483 29.7526Z" fill="url(#paint0_linear_192_4011)"/>
<path d="M25.6401 21.3031C25.6401 21.3031 27.1539 28.4741 25.4773 29.6381C25.4109 29.6863 25.3325 29.7225 25.2541 29.7527C25.2541 29.7527 25.2541 29.7527 25.242 29.7527C25.0792 29.813 24.8862 29.8431 24.6812 29.8431H24.6751C23.9996 29.8431 23.1251 29.5476 22.2385 29.1435C20.2664 28.2449 18.2098 26.7793 18.2098 26.7793C18.2098 26.7793 17.6609 27.1653 16.8528 27.6599C16.6959 27.7564 16.5331 27.8529 16.3582 27.9614C16.3582 27.9614 16.3522 27.9614 16.3461 27.9675C16.3461 27.9675 16.3341 27.9735 16.316 27.9856C15.0314 28.7395 13.3607 29.6079 12.1304 29.8009C12.1304 29.8009 12.1304 29.8009 12.1123 29.8009C11.9856 29.819 11.865 29.8371 11.7504 29.8371C11.7263 29.8371 11.7022 29.8431 11.678 29.8431C11.4609 29.8431 11.2619 29.819 11.093 29.7587C11.0026 29.7225 10.9242 29.6803 10.8518 29.6321C10.695 29.5175 10.5683 29.3546 10.4658 29.1496C9.79633 27.7805 10.2788 24.5116 10.6407 22.6299C10.7915 21.8338 10.9181 21.297 10.9181 21.297C10.9181 21.297 8.10761 19.0655 6.40081 16.8883C5.56248 15.8268 4.99555 14.7774 5.15236 14.0295C5.4117 12.8052 7.66131 12.1478 9.76014 11.798C11.3765 11.5266 12.9024 11.4422 13.3909 11.4241C13.4934 11.418 13.5477 11.418 13.5477 11.418C13.5477 11.418 14.7841 7.19023 16.3582 4.50034C17.0457 3.32427 17.7876 2.45579 18.4872 2.41357C18.5053 2.41357 18.5234 2.41357 18.5475 2.41357C18.638 2.41357 18.7345 2.42564 18.831 2.46182C21.0987 3.16143 23.294 11.4241 23.294 11.4241C23.294 11.4241 31.1767 11.6653 31.623 14.0356C32.0512 16.3334 25.6582 21.3031 25.6582 21.3031H25.6401Z" fill="url(#paint1_linear_192_4011)"/>
<path d="M21.7743 21.3031C21.7743 21.3031 23.1796 27.1955 22.2266 29.1496C22.1301 29.3607 22.0035 29.5235 21.8407 29.6381C21.6477 29.7768 21.4004 29.8431 21.1049 29.8492C19.8504 29.8854 17.83 28.848 16.3403 27.9675C16.0628 27.8046 15.8035 27.6478 15.5743 27.497C14.9169 27.0869 14.4827 26.7854 14.4827 26.7854C14.4827 26.7854 12.42 28.2509 10.4539 29.1556C9.87489 29.4149 9.30194 29.6321 8.78929 29.7466C8.33695 29.8552 7.92081 29.8854 7.59513 29.8009C7.58306 29.8009 7.57703 29.8009 7.56497 29.7949C7.43229 29.7587 7.31166 29.7105 7.20913 29.6381C5.56867 28.5042 6.97995 21.6348 7.04629 21.3151C7.04629 21.3091 7.04629 21.3031 7.04629 21.3031C7.04629 21.3031 0.653297 16.3334 1.07548 14.0356C1.52781 11.6653 9.40446 11.4241 9.40446 11.4241C9.40446 11.4241 11.7928 2.41357 14.151 2.41357C14.8747 2.41357 15.6346 3.30015 16.3463 4.50638C17.9144 7.19626 19.1508 11.4241 19.1508 11.4241C19.1508 11.4241 20.1459 11.4542 21.4486 11.605C22.9383 11.7679 24.8261 12.0815 26.1107 12.6725C26.8766 13.0223 27.4255 13.4686 27.5461 14.0356C27.8778 15.5795 25.1156 18.3719 23.3062 19.9943C22.4377 20.7784 21.7803 21.3031 21.7803 21.3031H21.7743Z" fill="url(#paint2_linear_192_4011)"/>
<g style="mix-blend-mode:soft-light">
<path d="M19.1447 11.424C19.1447 11.424 22.3593 11.3336 23.7283 11.4482C29.0538 11.8945 30.4772 12.7811 30.8873 13.3962C31.2974 14.0114 27.8777 13.4565 27.6365 13.4445C27.3953 13.4324 27.2324 12.57 24.3616 12.196C21.4787 11.8161 19.1447 11.424 19.1447 11.424Z" fill="white"/>
</g>
<g style="mix-blend-mode:multiply" opacity="0.5">
<path d="M25.6401 21.3029C24.9043 21.5261 22.7029 21.3391 22.3833 21.3029C22.0636 21.2667 26.599 17.2862 27.4735 15.6879C28.3662 14.0535 30.9837 14.2344 31.3757 14.5239C31.7677 14.8074 29.699 17.5757 28.3239 18.9749C26.973 20.344 25.6401 21.3029 25.6401 21.3029Z" fill="#6E5066"/>
</g>
<g style="mix-blend-mode:soft-light">
<path d="M24.8261 14.9402C24.1084 15.2418 23.2882 15.5252 22.3956 15.7786C19.6514 16.5566 16.1956 17.0632 12.8784 17.2079C10.5564 17.3044 8.29478 17.214 6.38291 16.9003C4.24186 16.5566 2.51092 15.9233 1.61229 14.9463C1.39517 14.7171 1.22026 14.4035 1.07552 14.0356C1.15392 13.6435 1.43135 13.3058 1.85956 13.0163C1.85956 13.0163 1.85956 13.0163 1.86559 13.0163C1.944 12.962 2.03447 12.9077 2.13096 12.8535C2.14303 12.8474 2.15509 12.8414 2.17318 12.8293C4.45898 11.5749 9.4045 11.4241 9.4045 11.4241C9.4045 11.4241 11.7928 2.41357 14.151 2.41357C14.35 2.41357 14.5611 2.47992 14.7601 2.6126C15.2969 2.93225 15.8337 3.63789 16.3403 4.50638C17.9084 7.19626 19.1448 11.4241 19.1448 11.4241C19.1448 11.4241 20.1399 11.4542 21.4426 11.605C22.9323 11.7679 24.8201 12.0815 26.1047 12.6725C26.3037 13.6616 25.96 14.4517 24.8261 14.9402Z" fill="white"/>
</g>
<g style="mix-blend-mode:multiply" opacity="0.2">
<path d="M2.17903 15.9172C1.26833 16.3093 3.60841 18.4322 5.58059 19.6083C7.51658 20.7663 22.7934 17.3285 24.1987 17.6361C25.5919 17.9437 27.8354 15.4106 27.4314 14.3311C27.0273 13.2334 26.3578 13.1248 26.3578 13.3118C26.3578 13.4988 25.5195 15.091 23.6679 15.5554C21.8284 16.0137 7.49245 17.0933 5.84595 17.2381C4.20549 17.3768 2.32378 15.8569 2.17903 15.9172Z" fill="#7F6593"/>
</g>
<g style="mix-blend-mode:soft-light">
<path d="M7.60705 29.5174C6.21989 29.2037 6.3948 25.4403 7.26931 24.403C8.15589 23.3536 19.1024 23.444 21.2012 24.0833C23.282 24.7166 22.3773 29.0771 21.6475 29.5174C20.9238 29.9576 14.8323 26.3028 14.3378 26.4174C13.8432 26.5259 10.2969 30.1265 7.60705 29.5174Z" fill="white"/>
</g>
<path d="M19.8802 19.729L19.0178 20.4286L19.2711 21.4177C19.8078 23.5105 20.0973 25.6938 20.0551 26.9C20.0551 27.0266 20.0431 27.1352 20.031 27.2377C19.0178 26.9 17.2024 25.9048 15.6886 24.8313L14.8925 24.2644L14.4522 23.9508L13.246 24.8313C12.1001 25.6576 10.7853 26.4356 9.7841 26.9C9.47652 27.0447 9.19908 27.1593 8.9699 27.2377C8.81309 26.128 9.04227 23.7155 9.56698 21.4117L9.79617 20.4225L8.90959 19.7229C6.81076 18.0463 4.73605 15.869 4.30784 14.898C5.10998 14.4276 7.68527 13.9511 9.98313 13.8727L11.4728 13.8245L11.8588 12.4856C12.4981 10.2118 13.4691 7.81146 14.217 6.54492C14.3738 6.80426 14.5427 7.10582 14.7176 7.44356C15.4051 8.78247 16.1771 10.6702 16.738 12.4856L17.1541 13.8245L18.6499 13.8727C20.9477 13.9451 23.5351 14.4216 24.3493 14.892C23.9512 15.863 21.9429 18.0403 19.8802 19.7169V19.729Z" fill="url(#paint3_linear_192_4011)"/>
<path d="M24.3495 14.9102C23.9816 15.8028 22.2628 17.7026 20.3992 19.3009C20.2303 19.4456 20.0554 19.5904 19.8805 19.7351L19.0241 20.4347L19.2713 21.4238C19.8141 23.5166 20.0976 25.6999 20.0494 26.9061C19.0361 26.4417 17.7093 25.6637 16.5453 24.8374L15.3149 23.9629H14.4464L13.2402 24.8374C12.0943 25.6637 10.7795 26.4417 9.77834 26.9061C9.77231 26.7553 9.76628 26.5804 9.76628 26.3995C9.76628 26.1884 9.77231 25.9592 9.79041 25.718C9.85072 24.6867 10.0256 23.3839 10.3031 22.0692C10.3453 21.852 10.3935 21.6349 10.4478 21.4178L10.677 20.4287L9.79644 19.7291C7.70364 18.0585 5.64702 15.8752 5.23087 14.9042C6.03301 14.4277 8.61434 13.9573 10.9122 13.8789L12.4019 13.8306L12.7879 12.4917C13.3126 10.6824 14.0484 8.78862 14.7118 7.44971C15.3994 8.78862 16.1713 10.6824 16.7322 12.4917L17.1484 13.8306L18.6381 13.8789C20.942 13.9513 23.5293 14.4277 24.3435 14.8982L24.3495 14.9102Z" fill="url(#paint4_linear_192_4011)"/>
<path d="M14.4463 23.9568C14.4463 23.9568 15.2846 23.9326 15.6103 24.1678C15.936 24.4031 18.071 25.8505 18.065 26.0918C18.065 26.327 15.8154 24.9579 14.4403 23.9628L14.4463 23.9568Z" fill="#EBF0FF"/>
<g style="mix-blend-mode:soft-light">
<path d="M8.95827 27.2436C8.65068 27.129 9.28395 25.1327 9.51313 24.9638C9.74231 24.795 9.682 26.7732 9.77247 26.8998C9.77247 26.8998 9.21761 27.2557 8.95827 27.2376V27.2436Z" fill="white"/>
</g>
<g style="mix-blend-mode:multiply" opacity="0.5">
<path d="M9.78414 20.4282H10.6767C10.6767 20.4282 9.76605 23.094 9.62733 23.8057C9.49465 24.5113 9.05438 23.0457 9.78414 20.4282Z" fill="#7E527C"/>
</g>
<g style="mix-blend-mode:multiply" opacity="0.5">
<path d="M4.82657 15.7368C4.26567 14.7296 12.5163 15.0915 12.5163 15.0915C12.5163 15.0915 14.1989 9.6092 15.4414 9.01212C15.4414 9.01212 14.398 6.56951 14.211 6.56348C14.024 6.55745 11.4668 13.837 11.4668 13.837C11.4668 13.837 7.79991 13.6983 4.30186 14.9106L4.8326 15.7368H4.82657Z" fill="#7E527C"/>
</g>
<g style="mix-blend-mode:multiply" opacity="0.5">
<path d="M17.1543 13.8423C17.1543 13.8423 23.3543 14.9098 23.9333 15.4828L24.3494 14.9098C24.3494 14.9098 22.4436 13.975 17.1543 13.8423Z" fill="#7E527C"/>
</g>
<g style="mix-blend-mode:multiply" opacity="0.5">
<path d="M16.328 3.08898C15.158 3.08898 16.8527 5.10941 17.679 6.99715C18.4872 8.83664 22.329 8.86077 22.329 8.86077C22.329 8.86077 20.6885 4.10221 19.6693 3.52925C18.638 2.95629 16.322 3.08898 16.322 3.08898H16.328Z" fill="#6E5066"/>
</g>
<g style="mix-blend-mode:multiply" opacity="0.5">
<path d="M21.8043 29.9581C21.5631 29.7771 22.317 29.8977 22.6366 28.5649C22.9563 27.2079 25.8271 27.3586 26.1105 27.5094C26.388 27.6602 25.9356 29.3429 25.4833 29.6384C25.031 29.9339 21.8104 29.9581 21.8104 29.9581H21.8043Z" fill="#6E5066"/>
</g>
<g style="mix-blend-mode:soft-light">
<path d="M22.9084 27.4126C22.5887 27.3041 22.6189 24.192 22.6309 23.607C22.643 23.0159 25.7611 23.2632 25.9179 23.607C26.0747 23.9508 26.2134 27.0387 26.0325 27.2437C25.8576 27.4488 23.1134 27.485 22.9084 27.4126Z" fill="white"/>
</g>
<g style="mix-blend-mode:soft-light" opacity="0.5">
<path d="M12.637 29.5897C13.3487 29.463 14.8746 28.7755 14.9288 28.5704C14.9831 28.3594 13.2401 28.1784 12.8421 28.1362C12.444 28.094 10.0798 29.4811 9.89888 29.5897C9.72397 29.6983 12.631 29.5897 12.631 29.5897H12.637Z" fill="white"/>
</g>
<g style="mix-blend-mode:multiply" opacity="0.5">
<path d="M14.5188 26.9058C14.1871 27.0204 13.005 27.7622 12.9628 27.9552C12.9266 28.1482 14.7781 28.3713 15.0194 28.4196C15.2606 28.4618 16.3221 27.9793 16.3221 27.9793C16.3221 27.9793 14.5791 26.8877 14.5128 26.9118L14.5188 26.9058Z" fill="#6E5066"/>
</g>
<g style="mix-blend-mode:multiply" opacity="0.5">
<path d="M27.8836 15.3139C27.6725 15.5491 26.5025 16.9604 26.5206 17.3163C26.5387 17.6721 29.8196 17.268 30.0247 16.9966C30.2297 16.7252 31.6953 14.741 31.3817 14.5178C31.062 14.2947 28.5048 14.6264 27.8897 15.3079L27.8836 15.3139Z" fill="#6E5066"/>
</g>
<path d="M19.1507 11.4243C19.1507 11.4243 25.9417 12.0817 26.8584 13.4327C28.2456 15.4833 23.8368 19.5181 23.8368 19.5181C23.8368 19.5181 28.2335 15.6099 27.6244 13.686C26.9971 11.7078 19.1507 11.4243 19.1507 11.4243Z" fill="#EED6DD"/>
<path d="M26.991 12.9556C26.4724 12.7144 27.2685 13.987 27.1479 14.9157C27.0272 15.8325 27.6846 14.6504 27.6726 14.0231C27.6605 13.3899 26.991 12.9556 26.991 12.9556Z" fill="white"/>
<g style="mix-blend-mode:soft-light">
<path d="M15.2064 2.96235C13.8554 2.46176 14.6696 7.20826 16.0869 10.6219C17.4439 13.8908 18.807 12.5941 19.0844 11.7437C19.3679 10.8872 16.3222 3.80067 15.2064 2.96235Z" fill="white"/>
</g>
<path d="M16.5996 6.02651C15.6226 5.90589 16.1835 8.87924 16.7926 9.92262C17.3897 10.9539 18.2522 10.2724 18.2763 9.36776C18.3004 8.45103 16.9736 6.06873 16.5996 6.02651Z" fill="white"/>
<g style="mix-blend-mode:soft-light">
<path d="M15.0312 2.49817C14.591 2.63086 16.2676 2.94448 17.5462 3.08922C18.8248 3.24 19.1384 3.25206 19.1324 2.92638C19.1203 2.59467 17.4015 1.77444 15.0312 2.49817Z" fill="white"/>
</g>
<g style="mix-blend-mode:soft-light">
<path d="M21.7864 29.8488C21.6718 29.7342 25.0432 29.294 25.381 29.3543C25.7187 29.4146 24.9467 29.7765 24.9467 29.7765C24.9467 29.7765 22.7031 30.1444 21.7864 29.8428V29.8488Z" fill="white"/>
</g>
<g style="mix-blend-mode:soft-light" opacity="0.5">
<path d="M19.2713 21.4179C19.8141 23.5107 20.0976 25.6939 20.0493 26.9002C19.0361 26.4358 17.7092 25.6578 16.5452 24.8315L15.3149 23.957H14.4464L13.2402 24.8315C12.0943 25.6578 10.7795 26.4358 9.7783 26.9002C9.77227 26.7494 9.76623 26.5745 9.76623 26.3936L10.0618 26.1101C9.94717 26.092 9.85067 25.9472 9.79036 25.712C9.59736 25.0245 9.66974 23.5348 10.303 22.0632C10.7915 20.9414 11.6057 19.8257 12.8662 19.1079C16.4548 17.0694 20.3931 19.2889 20.3931 19.2889C20.2242 19.4336 20.0493 19.5784 19.8744 19.7231L19.018 20.4227L19.2653 21.4118L19.2713 21.4179Z" fill="white"/>
</g>
<path d="M6.79876 28.6067C6.66607 27.7262 7.00381 27.1231 7.31743 27.1593C7.63105 27.1894 8.0472 29.1917 7.75167 29.427C7.46218 29.6622 6.82891 28.8419 6.79273 28.6067H6.79876Z" fill="white"/>
<g style="mix-blend-mode:multiply" opacity="0.8">
<path d="M16.298 27.9914C15.0134 28.7453 13.3428 29.6138 12.1124 29.8068C12.1124 29.8068 12.1124 29.8068 12.0943 29.8068C11.9677 29.8249 11.847 29.843 11.7325 29.843C11.7083 29.843 11.6842 29.849 11.6601 29.849C10.7192 29.9334 8.56008 30.0902 7.58304 29.8007C7.57098 29.8007 7.56495 29.8007 7.55289 29.7947C7.4202 29.7585 7.29958 29.7103 7.19705 29.6379C5.55658 28.504 6.96787 21.6346 7.03421 21.3149C6.99199 21.6225 6.21397 27.4788 6.90152 28.89C6.99802 29.083 7.16086 29.2398 7.38401 29.3605C7.73382 29.5655 8.22837 29.6861 8.7772 29.7465C9.50094 29.8309 10.3272 29.8188 11.0751 29.7646C11.5696 29.7223 12.034 29.6681 12.4079 29.6077C12.7517 29.5535 13.0231 29.4932 13.186 29.4389C14.0725 29.1554 16.0206 28.1361 16.292 27.9974L16.298 27.9914Z" fill="#7E527C"/>
</g>
<g style="mix-blend-mode:multiply" opacity="0.8">
<path d="M18.8187 2.45591C18.8187 2.45591 18.7282 2.44385 18.5593 2.41972C18.5352 2.41972 18.505 2.41972 18.4749 2.40766C17.7813 2.33529 16.165 2.22673 14.7657 2.60066C14.5426 2.65494 14.3255 2.72731 14.1204 2.81175C14.036 2.8419 13.9515 2.86603 13.8731 2.92031C10.5138 5.10961 9.74783 11.7981 9.74783 11.7981C9.74783 11.7981 3.69861 12.2143 2.17274 12.8174C4.45853 11.5629 9.40406 11.4121 9.40406 11.4121C9.40406 11.4121 11.7924 2.40163 14.1506 2.40163C14.1506 2.40163 16.8043 1.84074 18.5292 2.40163C18.6196 2.40163 18.7161 2.41369 18.8126 2.44988L18.8187 2.45591Z" fill="#7E527C"/>
</g>
<path d="M25.8753 17.6361C25.8633 16.7857 23.879 18.4563 23.7403 18.788C23.6016 19.1197 23.493 19.56 23.5895 19.7047C23.686 19.8495 25.6823 19.3971 25.8753 17.6361Z" fill="#63495F"/>
<g style="mix-blend-mode:multiply" opacity="0.5">
<path d="M25.7004 17.4547C25.1516 17.4005 24.4942 17.9734 24.4339 18.5705C24.3736 19.1616 24.9767 19.1555 25.4893 18.5705C26.008 17.9795 25.8452 17.4668 25.6944 17.4547H25.7004Z" fill="#5B3952"/>
</g>
<path d="M23.7585 18.7397C23.7585 18.7397 23.7344 19.2283 23.9093 19.3489C24.1988 19.5479 24.8442 19.2946 24.8442 19.2946C24.8442 19.2946 24.1023 19.8133 23.5716 19.8555C23.0408 19.8977 23.7585 18.7397 23.7585 18.7397Z" fill="#A89AA6"/>
<path d="M23.4266 19.8015C23.2577 19.5844 24.2951 19.5724 24.3795 19.5482C24.47 19.5241 23.6075 20.0126 23.4266 19.8015Z" fill="white"/>
<path d="M11.2501 28.7816C11.1174 28.7574 11.3888 28.1845 11.7085 28.0819C12.0281 27.9794 12.4744 27.9854 12.4563 28.2026C12.4382 28.4137 11.8894 28.8901 11.2501 28.7816Z" fill="#63495F"/>
<path d="M11.491 28.2207C11.2437 28.7816 11.6237 28.7333 11.9976 28.6549C11.9976 28.6549 11.5815 28.8721 11.0146 28.8841C11.0146 28.8841 11.0749 28.5283 11.491 28.2207Z" fill="#A89AA6"/>
<path d="M11.069 28.8782C11.0328 28.836 11.2741 28.6792 11.4248 28.6792C11.5756 28.6792 11.7204 28.7395 11.7324 28.7636C11.7445 28.7878 11.3585 28.9265 11.069 28.8782Z" fill="white"/>
<g style="mix-blend-mode:multiply" opacity="0.5">
<path d="M11.9254 28.0339C11.4248 28.2811 11.5755 28.6551 11.9736 28.6189C12.3717 28.5827 12.5043 28.1846 12.4139 28.1002C12.3234 28.0158 11.9254 28.0339 11.9254 28.0339Z" fill="#5B3952"/>
</g>
<g style="mix-blend-mode:soft-light">
<path d="M7.95692 18.1244C6.86529 17.5816 8.57813 19.4754 9.05459 19.8493C9.53104 20.2232 9.78435 20.4283 9.78435 20.4283H10.677C10.677 20.4283 8.3791 18.3114 7.95692 18.1244Z" fill="white"/>
</g>
<path d="M9.78433 20.429C9.56118 20.2541 9.39834 19.6751 9.65165 19.7052C9.90495 19.7354 10.6709 20.429 10.6709 20.429H9.7783H9.78433Z" fill="white"/>
<g style="mix-blend-mode:multiply" opacity="0.8">
<path d="M15.8274 27.666C15.8274 27.666 19.3013 29.2643 21.0624 29.6623C22.8114 30.0604 25.055 29.8131 25.055 29.8131C25.055 29.8131 22.7873 30.2111 20.7789 29.8553C18.7645 29.4934 15.8274 27.666 15.8274 27.666Z" fill="#7E527C"/>
</g>
<path d="M1.22025 14.0958C1.40721 15.0427 2.69787 13.7882 2.98737 13.2394C3.27083 12.6906 1.28056 12.7086 1.22025 14.0958Z" fill="white"/>
<path d="M19.0179 20.4288C19.0179 20.4288 23.3181 17.4796 24.3434 14.9043C24.3434 14.9043 22.2867 18.2576 19.0179 20.4288Z" fill="#EED6DD"/>
<g style="mix-blend-mode:multiply" opacity="0.5">
<path d="M10.9843 20.0127C10.5742 20.055 8.60806 18.3964 8.30047 17.6123C7.99892 16.8343 10.6888 17.6304 14.8382 17.4013C18.9876 17.1721 23.6497 15.2542 23.5713 15.5015C23.4929 15.7487 20.9417 18.6678 20.3024 18.8065C19.6631 18.9452 18.288 17.9983 15.369 18.0707C12.4499 18.1491 11.5392 19.9524 10.9843 20.0127Z" fill="#6E5066"/>
</g>
</g>
<defs>
<linearGradient id="paint0_linear_192_4011" x1="18.9398" y1="32.0505" x2="8.84969" y2="4.33745" gradientUnits="userSpaceOnUse">
<stop stop-color="#728EE3"/>
<stop offset="0.3" stop-color="#836888"/>
<stop offset="0.57" stop-color="#E1D9E0"/>
<stop offset="0.85" stop-color="#937D9A"/>
<stop offset="1" stop-color="#6D636A"/>
</linearGradient>
<linearGradient id="paint1_linear_192_4011" x1="24.1263" y1="30.1628" x2="14.5368" y2="3.80677" gradientUnits="userSpaceOnUse">
<stop stop-color="#728EE3"/>
<stop offset="0.3" stop-color="#836888"/>
<stop offset="0.57" stop-color="#E1D9E0"/>
<stop offset="0.85" stop-color="#937D9A"/>
<stop offset="1" stop-color="#6D636A"/>
</linearGradient>
<linearGradient id="paint2_linear_192_4011" x1="20.1278" y1="30.3015" x2="10.4418" y2="3.6982" gradientUnits="userSpaceOnUse">
<stop stop-color="#DECDD1"/>
<stop offset="0.15" stop-color="#DBC9CD"/>
<stop offset="0.28" stop-color="#D2BEC4"/>
<stop offset="0.4" stop-color="#C5ACB4"/>
<stop offset="0.53" stop-color="#B1929E"/>
<stop offset="0.63" stop-color="#9B7584"/>
<stop offset="0.7" stop-color="#AE959A"/>
<stop offset="1" stop-color="#DDD4EA"/>
</linearGradient>
<linearGradient id="paint3_linear_192_4011" x1="18.9514" y1="27.6358" x2="11.6236" y2="7.50387" gradientUnits="userSpaceOnUse">
<stop stop-color="#FFF1DE"/>
<stop offset="0.21" stop-color="#A690A5"/>
<stop offset="1" stop-color="#5C475E"/>
</linearGradient>
<linearGradient id="paint4_linear_192_4011" x1="19.2593" y1="27.1896" x2="12.3838" y2="8.30613" gradientUnits="userSpaceOnUse">
<stop stop-color="#AD99A0"/>
<stop offset="0.99" stop-color="#655167"/>
</linearGradient>
<clipPath id="clip0_192_4011">
<rect width="30.5658" height="27.8397" fill="white" transform="translate(1.05734 2.16016)"/>
</clipPath>
</defs>
</svg>
