<svg width="50" height="50" viewBox="0 0 50 50" fill="none" xmlns="http://www.w3.org/2000/svg">
<g clip-path="url(#clip0_432_3806)">
<g opacity="0.61">
<path d="M25 49C38.2548 49 49 38.2548 49 25C49 11.7452 38.2548 1 25 1C11.7452 1 1 11.7452 1 25C1 38.2548 11.7452 49 25 49Z" fill="url(#paint0_radial_432_3806)" style="mix-blend-mode:screen"/>
</g>
<g opacity="0.61">
<path d="M28 39C38.4934 39 47 30.4934 47 20C47 9.50659 38.4934 1 28 1C17.5066 1 9 9.50659 9 20C9 30.4934 17.5066 39 28 39Z" fill="url(#paint1_radial_432_3806)" style="mix-blend-mode:screen"/>
</g>
<path fill-rule="evenodd" clip-rule="evenodd" d="M3.18468 35.5647C2.57108 36.1899 1.60376 36.9854 1.46516 37.6712C1.33811 38.2949 1.803 40.524 2.47868 40.7103C4.23429 41.1939 7.06261 41.0943 9.33942 41.386C11.4329 41.6545 14.7131 41.6574 16.4124 42.9178C16.9523 43.3192 17.2108 44.5897 17.8172 44.8077C19.219 45.3101 20.8967 45.4314 22.4097 45.658C23.7279 45.8558 25.9859 46.5373 26.7786 46.0565C27.1121 45.8544 27.294 44.6286 27.46 44.4929C28.153 43.9226 31.7913 44.1955 33.9569 44.0757C36.2352 43.9486 39.6728 44.389 41.105 43.5198C41.528 43.2628 41.7113 42.1396 41.8976 41.513C42.2845 40.2136 42.6325 38.9013 42.9934 37.5961C43.4987 35.7741 44.0401 33.9752 44.6364 32.182C41.4154 35.1778 38.4845 38.4089 35.7631 41.8653C24.9912 39.2073 14.1861 37.0099 3.18323 35.5662L3.18468 35.5647Z" fill="#7DFFFF"/>
<path d="M49.1842 18.0303C47.4055 26.5975 43.8539 34.8125 41.0559 43.0737C41.0559 43.0737 41.0486 43.091 40.9909 43.1112C40.155 43.3956 39.1227 43.3668 38.2131 43.4173C34.4579 43.6237 28.0303 42.8629 26.9258 43.7133C26.7367 43.8591 26.4263 45.5295 26.0653 45.5916C24.906 45.7923 22.2639 44.8437 20.325 44.6387C19.5309 44.555 18.1853 44.5968 17.667 43.9991C17.3234 43.6021 17.1097 42.6969 16.8657 42.4745C14.7766 40.576 7.43076 40.2742 2.6447 39.8166C2.49022 39.0846 2.32852 38.3555 2.16104 37.6264C2.55086 37.1052 2.97965 36.7053 3.37669 36.1898C3.61635 35.878 3.70009 35.6051 3.94119 35.2947C4.31513 34.8154 4.69051 34.3361 5.05722 33.8495C5.51778 33.246 5.97689 32.6411 6.43745 32.0376C6.45044 32.0203 6.45766 32.0116 6.47066 31.9943C10.4078 26.8184 14.1312 21.6671 17.2555 15.9484C17.2555 15.9484 17.8301 16.1779 18.7108 16.51C20.8101 17.3041 22.9151 18.088 25.0388 18.8128C26.2501 19.2271 28.2728 20.2782 29.308 19.9577C29.3614 19.9418 29.5592 19.8768 29.8566 19.8119C32.7687 19.1838 35.7255 18.6843 38.6563 18.1371C39.0606 18.062 39.4663 17.987 39.8691 17.9119C40.9389 17.7141 42.0102 17.5163 43.0786 17.3257C43.2359 17.2983 43.3919 17.2694 43.5435 17.242C43.8957 17.1784 44.2379 17.1178 44.5642 17.0586C44.9944 16.9821 45.403 16.9099 45.7755 16.8449C46.5797 16.7035 47.4243 16.5908 48.1866 16.4262C48.1895 16.4262 48.1909 16.4262 48.1909 16.4262C48.5114 16.9662 48.8435 17.5018 49.1842 18.0303Z" fill="url(#paint2_linear_432_3806)"/>
<path d="M48.1909 16.4277C48.4017 16.6212 47.3189 19.7123 46.7948 21.2831C45.9055 23.9497 45.0017 26.6134 44.0748 29.2671C43.171 31.8514 42.2643 34.4227 41.4457 37.0345C41.0804 38.1996 40.7282 40.4764 39.8374 41.0597C39.2064 41.4726 37.9706 41.4365 37.0783 41.5376C35.4873 41.7166 33.8905 41.8379 32.2981 42.0111C30.0747 42.2537 27.8513 42.4962 25.625 42.7142C25.625 42.7142 25.625 42.7142 25.625 42.7157C25.7044 43.1964 25.9008 44.7889 25.4777 44.8048C24.3314 44.8466 22.2235 44.3413 20.5863 44.171C19.8124 44.0901 18.8884 43.8923 18.2849 43.6252C17.7406 43.3827 17.706 42.4081 17.8316 41.7974C12.6774 40.1602 7.44377 38.7901 2.16251 37.6293C8.29126 30.3542 14.6019 23.3722 19.5121 15.1818C21.5031 16.0971 23.4969 17.0096 25.4965 17.9076C27.434 18.7782 29.8004 20.3302 31.4563 20.4385C33.6335 20.5814 36.9556 19.155 39.667 18.4894C42.5069 17.7935 48.0567 16.3064 48.1924 16.4306L48.1909 16.4277Z" fill="url(#paint3_linear_432_3806)"/>
<g style="mix-blend-mode:multiply" opacity="0.8">
<path d="M28.4836 38.6197C27.5322 39.9783 26.6298 41.3903 25.6235 42.7128C25.6235 42.7128 25.6235 42.7128 25.6235 42.7142C25.6279 42.7373 25.6885 43.0578 25.7015 43.4491C25.713 43.7653 25.8993 44.9318 25.4763 44.8019C23.1417 44.0887 20.1603 44.477 18.2835 43.6209C17.7363 43.3711 17.7045 42.4038 17.8301 41.7931C17.9615 41.6314 18.0265 41.5506 18.1578 41.3917C19.193 40.1212 20.2282 38.8522 21.2619 37.5817C23.3352 37.7564 25.407 37.9426 27.4787 38.1375C27.9812 38.1852 28.2324 38.2097 28.7363 38.2573C28.7363 38.2573 28.641 38.3945 28.4822 38.6197H28.4836Z" fill="#912774"/>
</g>
<g style="mix-blend-mode:multiply" opacity="0.5">
<path d="M25.6236 42.7142C25.6279 42.7373 25.7896 43.3033 25.7015 43.4491C25.6929 43.4621 25.6395 43.4794 25.6077 43.4895C23.4175 44.2229 19.7027 43.1055 18.1565 41.3917C19.1916 40.1212 20.2268 38.8522 21.2605 37.5817C23.3338 37.7564 25.4056 37.9426 27.4774 38.1375C27.9062 38.344 28.4707 38.5822 28.4808 38.6197C28.5818 39.0038 26.627 41.3903 25.6207 42.7128C25.6207 42.7128 25.6207 42.7128 25.6207 42.7142H25.6236Z" fill="#BE5286"/>
</g>
<path d="M46.7024 17.4903C43.8221 24.9646 40.6964 32.2845 38.7921 40.0866C34.4709 40.5341 30.1931 41.1333 25.9022 41.8104C24.9956 40.6626 23.3309 40.2324 22.0171 40.0548C20.8794 39.9018 19.0689 39.8686 18.3615 41.0856C13.5379 39.3719 8.54682 38.0451 3.57597 36.8396C3.41138 36.2895 3.24246 35.7409 3.06921 35.1951C3.47779 34.6912 3.88204 34.1845 4.28341 33.6763C3.6727 33.5579 3.06199 33.4424 2.45128 33.3269C2.25782 32.5819 2.06435 31.8369 1.86945 31.0934C5.49183 27.6414 8.66521 23.658 11.1095 19.3138C12.4969 16.8478 14.0706 11.9824 14.7709 11.6373C16.2363 10.9169 24.2116 15.2337 28.4779 17.896C28.5775 17.9581 28.6714 18.0433 28.7421 18.1429C29.1045 18.6439 29.3066 19.9563 29.3066 19.9563C29.3369 19.962 30.027 18.4028 30.5627 17.9624C33.3159 15.6928 38.6463 12.0676 41.0039 12.0834C41.2465 12.0849 41.6349 12.7418 41.6349 12.7418C41.3793 13.572 41.1209 14.4007 40.8624 15.2294C41.8601 15.0691 42.8592 14.9118 43.8568 14.7558C44.0156 14.9551 44.0965 15.0533 44.2582 15.2496C44.0835 15.7347 43.9954 15.9773 43.8193 16.4595C44.3982 16.3454 44.9772 16.2314 45.5561 16.1202C45.93 16.5822 46.3126 17.0399 46.7024 17.4889V17.4903Z" fill="url(#paint4_linear_432_3806)"/>
<g style="mix-blend-mode:multiply" opacity="0.38">
<path d="M15.1217 12.1441C12.6976 15.0951 11.3289 20.1064 8.93519 23.7447C7.88991 25.3342 6.54866 26.7621 5.25794 28.1712C4.7122 28.7661 2.95082 30.5852 3.15872 30.8711C3.77665 31.7142 8.0083 31.9495 10.3789 32.4866C12.5763 32.9833 15.679 33.259 17.4562 34.5656C18.5535 35.3727 20.2658 37.8574 20.6008 37.7693C21.5565 37.521 23.4695 31.7561 24.8079 28.7935C25.7073 26.8025 26.601 24.8102 27.46 22.8005C27.9062 21.7552 28.8287 20.3244 28.758 19.5534C28.6021 17.883 24.1322 15.8372 22.1109 14.9291C20.3683 14.1451 18.643 13.2875 16.8946 12.4964C16.4572 12.2986 15.4581 11.7341 15.1217 12.1455V12.1441Z" fill="#EAACB6"/>
</g>
<g style="mix-blend-mode:multiply" opacity="0.38">
<path d="M30.0718 18.6136C31.5054 17.6939 32.955 16.7973 34.4117 15.9138C36.2005 14.8295 39.8633 12.5657 40.373 12.8746C40.6271 13.0291 39.6093 15.5023 39.2887 16.3036C38.359 18.6338 37.2242 21.0665 36.5918 23.4949C35.2939 28.4846 32.8467 32.0911 32.3197 32.4303C31.3856 33.0309 24.8728 33.4078 21.7731 36.5595C24.5335 30.5751 27.2969 24.5922 30.0703 18.6136H30.0718Z" fill="#EAACB6"/>
</g>
<g style="mix-blend-mode:multiply" opacity="0.5">
<path d="M46.7024 17.4903C43.8221 24.9647 40.6964 32.2845 38.7921 40.0866C34.4709 40.5341 30.1931 41.1333 25.9022 41.8104C24.9956 40.6626 23.3309 40.2324 22.0171 40.0548C20.8794 39.9018 19.0689 39.8686 18.3615 41.0856C13.5379 39.3719 8.54682 38.0451 3.57597 36.8396C3.43592 36.47 3.06776 35.3352 3.42004 35.2327C5.97838 34.4935 13.8931 36.5797 13.8931 36.5797C13.9046 36.5523 7.37016 34.3577 4.28341 33.6763C3.6727 33.5579 3.06199 33.4424 2.45128 33.3269C2.25782 32.5819 2.06435 31.8369 1.86945 31.0934C4.55483 31.629 7.23589 32.1892 9.9054 32.7985C11.5744 33.1796 13.2448 33.5738 14.8936 34.0372C15.7194 34.2697 17.0246 34.9468 17.6136 35.4319C18.8711 36.4685 20.8072 39.3878 20.8072 39.3878C20.9213 39.3777 21.5941 37.687 22.1254 37.1355C23.3136 35.904 26.0466 35.3077 27.8296 34.6176C29.6011 33.9318 32.4309 33.4222 33.1932 32.6844C36.1486 29.8272 38.5423 19.2402 40.8783 12.4155C41.0314 11.968 41.6349 12.7418 41.6349 12.7418C41.3793 13.572 41.1209 14.4007 40.8624 15.2294C38.756 21.4679 36.4142 31.105 33.8747 33.7138C32.8929 34.7216 26.7815 36.1379 26.7815 36.1379C26.7829 36.1451 34.7308 35.6297 35.7573 34.8862C35.7573 34.8862 38.4932 27.7266 39.8417 24.1403C41.001 21.055 42.2181 17.8397 43.7572 14.9248C43.838 14.7732 44.2582 15.2482 44.2582 15.2482C44.0835 15.7333 43.9954 15.9758 43.8193 16.458C41.6883 22.1854 38.3619 29.6814 36.4041 36.5782C35.0398 36.7486 33.6754 36.919 32.314 37.1124C33.8472 37.0041 36.9109 37.264 36.9109 37.264C37.5028 36.6995 40.4481 29.1169 41.99 24.9993C43.0526 22.1652 44.557 16.6255 45.4565 16.292C45.6269 16.2285 46.3718 17.1077 46.7039 17.4874L46.7024 17.4903Z" fill="#BE5286"/>
</g>
<g style="mix-blend-mode:multiply" opacity="0.8">
<path d="M40.0611 41.3629C40.3455 41.5852 40.9187 42.8456 40.692 42.9943C40.0293 43.4245 37.7049 43.3567 35.8165 43.2903C34.058 43.2267 31.3451 43.4058 29.6083 43.1271C28.1674 42.8961 31.709 42.1815 31.8822 42.154C33.3317 41.9303 35.2953 41.8133 36.7621 41.5996C37.7136 41.461 39.5341 40.9499 40.0611 41.3629Z" fill="#912774"/>
</g>
<g style="mix-blend-mode:multiply" opacity="0.8">
<path d="M2.73564 37.9397C2.55373 38.1043 2.48587 39.5668 2.91178 39.717C3.70007 39.9956 7.61554 40.3695 9.33506 40.3695C11.2134 40.3695 11.2379 39.9711 9.8577 39.561C8.62184 39.1943 7.35711 38.8565 6.09526 38.5475C5.13372 38.3122 3.06915 37.6365 2.73564 37.9383V37.9397Z" fill="#912774"/>
</g>
<g style="mix-blend-mode:multiply" opacity="0.8">
<path d="M20.7451 40.1934C20.0448 39.8527 17.9918 41.1939 17.9124 42.18C17.8864 42.4976 18.0149 43.3451 18.3802 43.2484C18.8942 43.1127 21.2778 40.4518 20.7451 40.1919V40.1934Z" fill="#912774"/>
</g>
<path style="mix-blend-mode:multiply" opacity="0.7" d="M21.773 36.5594C21.3645 37.4488 21.0252 38.4277 20.8057 39.3878C19.6652 37.6134 18.8076 36.3689 17.4057 35.2759C21.4814 30.0842 25.3276 24.3207 28.6107 18.5919C28.6612 18.4143 28.6872 18.3248 28.7392 18.1443C29.0972 18.6771 29.5 19.5231 29.3037 19.9577C26.6861 25.7717 24.2996 31.0631 21.7701 36.5594H21.773Z" fill="url(#paint5_linear_432_3806)"/>
<path style="mix-blend-mode:multiply" opacity="0.99" d="M40.9895 43.1112C40.8985 43.3133 39.1212 43.3668 38.2117 43.4173C34.4565 43.6237 28.0303 42.8614 26.9244 43.7133C26.7338 43.8591 26.4306 45.5223 26.0639 45.5916C24.8049 45.8327 21.9564 44.8278 19.8702 44.5997C19.1671 44.5232 18.1247 44.5492 17.667 43.9991C17.3234 43.5862 17.1097 42.6969 16.8657 42.4745C14.7766 40.576 7.43077 40.2742 2.64471 39.8166C2.49023 39.0846 2.32853 38.3555 2.16105 37.6264C3.24965 37.5167 4.33824 37.4069 5.42683 37.2972C4.81035 37.1413 4.19242 36.9897 3.57449 36.8424C3.49653 36.5811 3.4561 36.4512 3.3767 36.1913C3.36226 36.1436 3.35504 36.1205 3.3406 36.0729C3.23232 35.7221 3.17746 35.5474 3.06629 35.1965C3.47487 34.6927 3.87912 34.1859 4.28049 33.6777C3.67411 33.5449 2.50322 33.3196 2.45702 33.1984C2.32131 32.836 2.04411 31.4413 2.14662 31.3099C2.30399 31.1064 6.92112 32.0448 9.06221 32.5285C11.7866 33.1421 14.9758 33.695 17.2945 35.2023C18.7455 36.1451 20.7927 39.3906 20.8043 39.3892C20.9285 39.3834 21.7745 37.4214 22.5224 36.942C25.4489 35.068 28.5659 34.6956 32.9622 32.9154C33.2423 32.8013 33.8717 33.7167 33.8717 33.7167C36.0792 31.8369 39.924 18.1443 39.924 18.1443C39.924 18.1443 39.7594 19.4105 39.7449 20.2493C39.7233 21.4447 39.9976 23.0935 39.9009 23.9728C39.8417 24.5098 36.6279 32.0795 35.893 34.8905C35.7688 35.3669 36.4012 36.5811 36.4012 36.5811C36.4012 36.5811 37.2949 32.7133 42.9111 18.9124C43.1392 19.5043 43.1768 20.0602 43.4193 20.6478C41.4284 27.1404 37.6269 36.3227 36.9065 37.2683C36.6481 37.6076 38.4268 39.2131 38.3517 39.7516C38.294 40.1688 36.4633 40.3392 35.7847 40.4085C36.3492 40.7694 36.9137 41.1318 37.4782 41.4928C37.4811 41.4956 37.484 41.4956 37.4869 41.4985C37.4869 41.4985 37.5331 41.4985 37.562 41.4827C37.562 41.4827 37.562 41.4827 37.5634 41.4827C37.7785 41.4668 38.5784 41.2849 39.205 41.2444C39.6208 41.2184 39.9745 41.2387 40.0597 41.3643C40.4221 41.91 41.0328 43.0116 40.988 43.1112H40.9895Z" fill="url(#paint6_linear_432_3806)"/>
<g opacity="0.24">
<path d="M25.446 40.1458C30.0169 38.9417 36.8459 38.8089 36.8459 38.8089C36.8459 38.8132 25.446 40.1458 25.446 40.1458Z" fill="url(#paint7_linear_432_3806)"/>
<path d="M31.0925 36.3227C25.6726 37.2872 22.8963 38.2213 22.8963 38.2213C24.8107 37.0013 31.0925 36.3227 31.0925 36.3227Z" fill="url(#paint8_linear_432_3806)"/>
<path d="M18.5 37.5802C18.5188 37.5615 16.4153 35.699 15.2357 35.2255C12.7351 34.2206 7.49139 33.6662 7.49139 33.6662C7.49139 33.6691 12.8217 34.3231 15.331 35.8131C16.1366 36.2909 18.5015 37.5802 18.5015 37.5802H18.5Z" fill="url(#paint9_linear_432_3806)"/>
<path d="M17.4967 39.8643C17.5429 39.8152 13.4585 37.4719 5.01682 36.3242C5.01249 36.3242 17.4967 39.8643 17.4967 39.8643Z" fill="url(#paint10_linear_432_3806)"/>
</g>
<g style="mix-blend-mode:multiply" opacity="0.7">
<path d="M25.3608 42.0154C24.7371 41.3167 22.7289 39.7574 21.6764 40.4923C21.3125 40.7478 18.9188 43.2643 20.1229 43.4794C21.3789 43.7032 23.9344 44.4785 24.9046 43.7682C25.3103 43.4707 25.7795 42.4861 25.3594 42.0154H25.3608Z" fill="#BE5286"/>
</g>
<g style="mix-blend-mode:multiply" opacity="0.7">
<path d="M40.4625 40.7507C40.3773 41.282 41.053 42.2926 41.1627 42.1381C41.8312 41.2112 42.1459 39.4845 42.6093 38.1678C43.3038 36.1927 44.1094 34.2032 44.6364 32.1805C44.7663 31.6781 43.415 31.681 43.2922 32.0693C42.387 34.9569 40.91 37.9483 40.461 40.7507H40.4625Z" fill="#8C2669"/>
</g>
<g style="mix-blend-mode:soft-light" opacity="0.5">
<path d="M47.8704 16.8175C47.6596 16.1202 46.418 18.9716 46.34 19.2185C45.7466 21.1141 44.84 22.9405 44.0661 24.7784C43.6315 25.8107 42.4563 27.7439 42.7696 28.4845C43.0829 29.2237 44.5902 26.9426 44.7548 26.5874C45.5474 24.8852 46.1263 22.991 46.7255 21.1777C47.1644 19.848 48.1664 17.8007 47.869 16.8161L47.8704 16.8175Z" fill="white"/>
</g>
<g style="mix-blend-mode:soft-light" opacity="0.5">
<path d="M17.7334 40.8142C18.4928 40.69 19.7879 37.9974 13.7761 37.1499C12.1374 36.9189 10.4569 36.7038 8.78935 36.6273C7.7946 36.5811 4.98505 36.5089 4.84067 37.059C4.76849 37.3362 6.11984 37.8069 6.58473 37.957C8.03715 38.4219 9.52134 38.7901 10.9983 39.1669C13.2347 39.7372 16.2911 41.051 17.7334 40.8156V40.8142Z" fill="#C263FF"/>
</g>
<g style="mix-blend-mode:soft-light" opacity="0.5">
<path d="M37.1707 39.6953C37.3469 39.0442 34.1836 37.6639 33.1758 37.3001C31.0319 36.5248 26.8464 36.1942 24.6259 36.9608C23.2803 37.4257 22.0907 37.6148 22.762 39.0875C23.1634 39.9667 25.8675 41.5447 26.7959 41.6429C28.4807 41.8205 31.0607 41.552 32.4251 41.3195C33.6682 41.1073 36.9744 40.4157 37.1693 39.6953H37.1707Z" fill="#C263FF"/>
</g>
<path opacity="0.3" d="M28.0822 15.4743C28.6234 15.2513 28.8814 14.6319 28.6584 14.0908C28.4355 13.5496 27.8161 13.2917 27.2749 13.5146C26.7338 13.7376 26.4758 14.357 26.6988 14.8981C26.9217 15.4392 27.5411 15.6972 28.0822 15.4743Z" fill="url(#paint11_radial_432_3806)"/>
<path opacity="0.3" d="M28.4856 16.2403C29.4514 15.7944 29.8729 14.6501 29.427 13.6844C28.9812 12.7186 27.8369 12.2972 26.8712 12.743C25.9054 13.1888 25.4839 14.3331 25.9298 15.2989C26.3756 16.2646 27.5199 16.6861 28.4856 16.2403Z" fill="url(#paint12_radial_432_3806)"/>
<path opacity="0.3" fill-rule="evenodd" clip-rule="evenodd" d="M28.0159 14.4916C28.0159 14.6779 27.8643 14.8295 27.678 14.8295C27.4918 14.8295 27.3402 14.6779 27.3402 14.4916C27.3402 14.3054 27.4918 14.1538 27.678 14.1538C27.8643 14.1538 28.0159 14.3054 28.0159 14.4916Z" fill="white"/>
<path opacity="0.61" fill-rule="evenodd" clip-rule="evenodd" d="M22.2481 11.1941C22.2481 11.3081 22.1557 11.4005 22.0416 11.4005C21.9276 11.4005 21.8352 11.3081 21.8352 11.1941C21.8352 11.08 21.9276 10.9876 22.0416 10.9876C22.1557 10.9876 22.2481 11.08 22.2481 11.1941Z" fill="url(#paint13_radial_432_3806)"/>
<path opacity="0.3" fill-rule="evenodd" clip-rule="evenodd" d="M22.6913 11.1941C22.6913 11.5536 22.3997 11.8438 22.0416 11.8438C21.6836 11.8438 21.3919 11.5521 21.3919 11.1941C21.3919 10.836 21.6836 10.5444 22.0416 10.5444C22.3997 10.5444 22.6913 10.836 22.6913 11.1941Z" fill="url(#paint14_radial_432_3806)"/>
<path opacity="0.3" d="M22.0416 12.3736C22.6931 12.3736 23.2212 11.8455 23.2212 11.1941C23.2212 10.5426 22.6931 10.0145 22.0416 10.0145C21.3902 10.0145 20.8621 10.5426 20.8621 11.1941C20.8621 11.8455 21.3902 12.3736 22.0416 12.3736Z" fill="url(#paint15_radial_432_3806)"/>
<path opacity="0.61" fill-rule="evenodd" clip-rule="evenodd" d="M30.7186 12.1066C30.7186 12.2062 30.6378 12.287 30.5381 12.287C30.4385 12.287 30.3577 12.2062 30.3577 12.1066C30.3577 12.0069 30.4385 11.9261 30.5381 11.9261C30.6378 11.9261 30.7186 12.0069 30.7186 12.1066Z" fill="url(#paint16_radial_432_3806)"/>
<path opacity="0.61" d="M30.5396 12.671C30.8513 12.671 31.1041 12.4183 31.1041 12.1065C31.1041 11.7948 30.8513 11.542 30.5396 11.542C30.2278 11.542 29.9751 11.7948 29.9751 12.1065C29.9751 12.4183 30.2278 12.671 30.5396 12.671Z" fill="url(#paint17_radial_432_3806)"/>
<path opacity="0.3" d="M30.5396 13.1316C31.1057 13.1316 31.5646 12.6726 31.5646 12.1065C31.5646 11.5404 31.1057 11.0815 30.5396 11.0815C29.9734 11.0815 29.5145 11.5404 29.5145 12.1065C29.5145 12.6726 29.9734 13.1316 30.5396 13.1316Z" fill="url(#paint18_radial_432_3806)"/>
<path opacity="0.3" d="M18.5145 6.24922C19.0583 6.24922 19.4992 5.80838 19.4992 5.26458C19.4992 4.72078 19.0583 4.27994 18.5145 4.27994C17.9707 4.27994 17.5299 4.72078 17.5299 5.26458C17.5299 5.80838 17.9707 6.24922 18.5145 6.24922Z" fill="url(#paint19_radial_432_3806)"/>
<path opacity="0.3" d="M18.5145 7.0534C19.5025 7.0534 20.3033 6.25252 20.3033 5.26458C20.3033 4.27665 19.5025 3.47577 18.5145 3.47577C17.5266 3.47577 16.7257 4.27665 16.7257 5.26458C16.7257 6.25252 17.5266 7.0534 18.5145 7.0534Z" fill="url(#paint20_radial_432_3806)"/>
<path opacity="0.3" d="M18.5145 5.57791C18.6876 5.57791 18.8278 5.43765 18.8278 5.26462C18.8278 5.09159 18.6876 4.95132 18.5145 4.95132C18.3415 4.95132 18.2012 5.09159 18.2012 5.26462C18.2012 5.43765 18.3415 5.57791 18.5145 5.57791Z" fill="white"/>
<path opacity="0.61" fill-rule="evenodd" clip-rule="evenodd" d="M33.3217 11.0107C33.3217 11.0497 33.2899 11.0815 33.2509 11.0815C33.212 11.0815 33.1802 11.0497 33.1802 11.0107C33.1802 10.9717 33.212 10.94 33.2509 10.94C33.2899 10.94 33.3217 10.9717 33.3217 11.0107Z" fill="url(#paint21_radial_432_3806)"/>
<path opacity="0.61" fill-rule="evenodd" clip-rule="evenodd" d="M33.4718 11.0108C33.4718 11.1335 33.3722 11.2316 33.2509 11.2316C33.1296 11.2316 33.03 11.132 33.03 11.0108C33.03 10.8895 33.1296 10.7899 33.2509 10.7899C33.3722 10.7899 33.4718 10.8895 33.4718 11.0108Z" fill="url(#paint22_radial_432_3806)"/>
<path opacity="0.61" fill-rule="evenodd" clip-rule="evenodd" d="M33.6523 11.0107C33.6523 11.2331 33.4733 11.4121 33.2509 11.4121C33.0286 11.4121 32.8496 11.2331 32.8496 11.0107C32.8496 10.7884 33.0286 10.6094 33.2509 10.6094C33.4733 10.6094 33.6523 10.7884 33.6523 11.0107Z" fill="url(#paint23_radial_432_3806)"/>
<path opacity="0.61" fill-rule="evenodd" clip-rule="evenodd" d="M29.386 9.60883C29.386 9.64781 29.3542 9.67957 29.3152 9.67957C29.2763 9.67957 29.2445 9.64781 29.2445 9.60883C29.2445 9.56985 29.2763 9.53809 29.3152 9.53809C29.3542 9.53809 29.386 9.56985 29.386 9.60883Z" fill="url(#paint24_radial_432_3806)"/>
<path opacity="0.61" fill-rule="evenodd" clip-rule="evenodd" d="M29.5361 9.60886C29.5361 9.73158 29.4365 9.82976 29.3152 9.82976C29.1939 9.82976 29.0943 9.73014 29.0943 9.60886C29.0943 9.48759 29.1939 9.38797 29.3152 9.38797C29.4365 9.38797 29.5361 9.48759 29.5361 9.60886Z" fill="url(#paint25_radial_432_3806)"/>
<path opacity="0.61" fill-rule="evenodd" clip-rule="evenodd" d="M29.7166 9.60885C29.7166 9.83119 29.5376 10.0102 29.3152 10.0102C29.0929 10.0102 28.9139 9.83119 28.9139 9.60885C28.9139 9.38651 29.0929 9.20749 29.3152 9.20749C29.5376 9.20749 29.7166 9.38651 29.7166 9.60885Z" fill="url(#paint26_radial_432_3806)"/>
</g>
<defs>
<radialGradient id="paint0_radial_432_3806" cx="0" cy="0" r="1" gradientUnits="userSpaceOnUse" gradientTransform="translate(25 25) rotate(90) scale(24)">
<stop stop-color="#F8BE83"/>
<stop offset="1" stop-color="#F8BE83" stop-opacity="0"/>
</radialGradient>
<radialGradient id="paint1_radial_432_3806" cx="0" cy="0" r="1" gradientUnits="userSpaceOnUse" gradientTransform="translate(28 20) rotate(90) scale(19)">
<stop stop-color="#FF7410"/>
<stop offset="1" stop-color="#F8BE83" stop-opacity="0"/>
</radialGradient>
<linearGradient id="paint2_linear_432_3806" x1="2.16104" y1="30.7844" x2="49.1842" y2="30.7844" gradientUnits="userSpaceOnUse">
<stop stop-color="#734B6D"/>
<stop offset="1" stop-color="#4F2338"/>
</linearGradient>
<linearGradient id="paint3_linear_432_3806" x1="2.16106" y1="29.9918" x2="48.2184" y2="29.9918" gradientUnits="userSpaceOnUse">
<stop stop-color="#663C51"/>
<stop offset="1" stop-color="#917A71"/>
</linearGradient>
<linearGradient id="paint4_linear_432_3806" x1="1.86945" y1="26.6856" x2="46.7024" y2="26.6856" gradientUnits="userSpaceOnUse">
<stop stop-color="#F8EEE1"/>
<stop offset="1" stop-color="#E3C0AA"/>
</linearGradient>
<linearGradient id="paint5_linear_432_3806" x1="23.3828" y1="39.3878" x2="23.3828" y2="18.1443" gradientUnits="userSpaceOnUse">
<stop stop-color="#FFA4DA"/>
<stop offset="1" stop-color="white"/>
</linearGradient>
<linearGradient id="paint6_linear_432_3806" x1="22.7736" y1="18.1443" x2="22.7736" y2="45.6291" gradientUnits="userSpaceOnUse">
<stop stop-color="#FFBDB8"/>
<stop offset="1" stop-color="#8C2669"/>
</linearGradient>
<linearGradient id="paint7_linear_432_3806" x1="25.446" y1="39.4773" x2="36.8473" y2="39.4773" gradientUnits="userSpaceOnUse">
<stop stop-color="#F8EEE1"/>
<stop offset="1" stop-color="#E3C0AA"/>
</linearGradient>
<linearGradient id="paint8_linear_432_3806" x1="22.8963" y1="37.2727" x2="31.0925" y2="37.2727" gradientUnits="userSpaceOnUse">
<stop stop-color="#F8EEE1"/>
<stop offset="1" stop-color="#E3C0AA"/>
</linearGradient>
<linearGradient id="paint9_linear_432_3806" x1="7.49139" y1="35.6239" x2="18.5" y2="35.6239" gradientUnits="userSpaceOnUse">
<stop stop-color="#F8EEE1"/>
<stop offset="1" stop-color="#E3C0AA"/>
</linearGradient>
<linearGradient id="paint10_linear_432_3806" x1="5.01682" y1="38.0928" x2="17.4967" y2="38.0928" gradientUnits="userSpaceOnUse">
<stop stop-color="#F8EEE1"/>
<stop offset="1" stop-color="#E3C0AA"/>
</linearGradient>
<radialGradient id="paint11_radial_432_3806" cx="0" cy="0" r="1" gradientUnits="userSpaceOnUse" gradientTransform="translate(27.6786 14.4944) rotate(67.61) scale(1.05972)">
<stop stop-color="#FFAB2C"/>
<stop offset="1" stop-color="#FFAB2C" stop-opacity="0"/>
</radialGradient>
<radialGradient id="paint12_radial_432_3806" cx="0" cy="0" r="1" gradientUnits="userSpaceOnUse" gradientTransform="translate(27.6784 14.4916) rotate(65.22) scale(1.92597)">
<stop stop-color="#FFAB2C"/>
<stop offset="1" stop-color="#FFAB2C" stop-opacity="0"/>
</radialGradient>
<radialGradient id="paint13_radial_432_3806" cx="0" cy="0" r="1" gradientUnits="userSpaceOnUse" gradientTransform="translate(22.0416 11.1941) rotate(90) scale(0.206457)">
<stop stop-color="white"/>
<stop offset="1" stop-color="white" stop-opacity="0"/>
</radialGradient>
<radialGradient id="paint14_radial_432_3806" cx="0" cy="0" r="1" gradientUnits="userSpaceOnUse" gradientTransform="translate(22.0416 11.1941) rotate(90) scale(0.649691)">
<stop stop-color="#FFAB2C"/>
<stop offset="1" stop-color="#FFAB2C" stop-opacity="0"/>
</radialGradient>
<radialGradient id="paint15_radial_432_3806" cx="0" cy="0" r="1" gradientUnits="userSpaceOnUse" gradientTransform="translate(22.0416 11.1941) rotate(90) scale(1.17955)">
<stop stop-color="#FFAB2C"/>
<stop offset="1" stop-color="#FFAB2C" stop-opacity="0"/>
</radialGradient>
<radialGradient id="paint16_radial_432_3806" cx="0" cy="0" r="1" gradientUnits="userSpaceOnUse" gradientTransform="translate(30.5381 12.1066) rotate(90) scale(0.18047)">
<stop stop-color="white"/>
<stop offset="1" stop-color="white" stop-opacity="0"/>
</radialGradient>
<radialGradient id="paint17_radial_432_3806" cx="0" cy="0" r="1" gradientUnits="userSpaceOnUse" gradientTransform="translate(30.5396 12.1065) rotate(90) scale(0.564509)">
<stop stop-color="white"/>
<stop offset="1" stop-color="white" stop-opacity="0"/>
</radialGradient>
<radialGradient id="paint18_radial_432_3806" cx="0" cy="0" r="1" gradientUnits="userSpaceOnUse" gradientTransform="translate(30.5396 12.1065) rotate(90) scale(1.02507)">
<stop stop-color="#FFAB2C"/>
<stop offset="1" stop-color="#FFAB2C" stop-opacity="0"/>
</radialGradient>
<radialGradient id="paint19_radial_432_3806" cx="0" cy="0" r="1" gradientUnits="userSpaceOnUse" gradientTransform="translate(18.5145 5.26458) rotate(90) scale(0.984642)">
<stop stop-color="#FFAB2C"/>
<stop offset="1" stop-color="#FFAB2C" stop-opacity="0"/>
</radialGradient>
<radialGradient id="paint20_radial_432_3806" cx="0" cy="0" r="1" gradientUnits="userSpaceOnUse" gradientTransform="translate(18.5145 5.26458) rotate(90) scale(1.78882)">
<stop stop-color="#FFAB2C"/>
<stop offset="1" stop-color="#FFAB2C" stop-opacity="0"/>
</radialGradient>
<radialGradient id="paint21_radial_432_3806" cx="0" cy="0" r="1" gradientUnits="userSpaceOnUse" gradientTransform="translate(33.2509 11.0107) rotate(90) scale(0.0707438 0.0707427)">
<stop stop-color="white"/>
<stop offset="1" stop-color="white" stop-opacity="0"/>
</radialGradient>
<radialGradient id="paint22_radial_432_3806" cx="0" cy="0" r="1" gradientUnits="userSpaceOnUse" gradientTransform="translate(33.2509 11.0108) rotate(90) scale(0.220895)">
<stop stop-color="white"/>
<stop offset="1" stop-color="white" stop-opacity="0"/>
</radialGradient>
<radialGradient id="paint23_radial_432_3806" cx="0" cy="0" r="1" gradientUnits="userSpaceOnUse" gradientTransform="translate(33.2509 11.0107) rotate(90) scale(0.401364)">
<stop stop-color="white"/>
<stop offset="1" stop-color="white" stop-opacity="0"/>
</radialGradient>
<radialGradient id="paint24_radial_432_3806" cx="0" cy="0" r="1" gradientUnits="userSpaceOnUse" gradientTransform="translate(29.3153 9.60883) rotate(90) scale(0.0707444)">
<stop stop-color="white"/>
<stop offset="1" stop-color="white" stop-opacity="0"/>
</radialGradient>
<radialGradient id="paint25_radial_432_3806" cx="0" cy="0" r="1" gradientUnits="userSpaceOnUse" gradientTransform="translate(29.3152 9.60886) rotate(90) scale(0.220895 0.220896)">
<stop stop-color="white"/>
<stop offset="1" stop-color="white" stop-opacity="0"/>
</radialGradient>
<radialGradient id="paint26_radial_432_3806" cx="0" cy="0" r="1" gradientUnits="userSpaceOnUse" gradientTransform="translate(29.3152 9.60885) rotate(90) scale(0.401364 0.401365)">
<stop stop-color="white"/>
<stop offset="1" stop-color="white" stop-opacity="0"/>
</radialGradient>
<clipPath id="clip0_432_3806">
<rect width="50" height="50" fill="white"/>
</clipPath>
</defs>
</svg>
