<svg width="38" height="38" viewBox="0 0 38 38" fill="none" xmlns="http://www.w3.org/2000/svg">
<g clip-path="url(#clip0_432_3368)">
<g clip-path="url(#clip1_432_3368)">
<path d="M10.4727 7.34961L9.68101 8.20036C9.32042 8.55483 8.92848 8.86992 8.52869 9.16926C9.46152 8.84629 10.896 9.03535 10.4727 7.34961Z" fill="#010000"/>
<path d="M37.6344 27.7674V25.5381C37.6344 24.8134 37.5795 24.1675 37.4933 23.49C37.1798 21.0087 36.1764 18.8031 34.6713 16.8337C34.397 16.4714 34.2794 16.0224 34.3813 15.5813C34.5537 14.8329 34.5773 14.0531 34.4283 13.3047C33.7934 10.1459 32.1002 7.73549 29.2782 6.16791C29.0352 6.034 28.7765 5.91584 28.5178 5.79768C28.4237 5.75041 28.3062 5.70315 28.3454 5.56924C28.3767 5.45108 28.4943 5.43532 28.604 5.42745C28.7451 5.41169 28.8862 5.45895 29.0195 5.47471C29.529 5.52985 30.0386 5.54561 30.5402 5.4432C31.1987 5.30929 31.3947 4.84453 31.0106 4.27736C30.7284 3.85987 30.3521 3.5369 29.8739 3.3636C29.09 3.08002 28.2983 2.88308 27.4517 2.89096C26.5346 2.89096 25.6096 2.85945 24.6689 3.26119C24.8571 2.72554 24.9982 2.29229 24.9668 1.81965C24.9433 1.44942 24.8963 1.09494 24.5357 0.913764C24.1359 0.708955 23.7126 0.72471 23.3285 0.961028C23.0306 1.14221 22.8425 1.41791 22.7327 1.74088C22.6543 1.96144 22.623 2.21352 22.4348 2.45771C21.6039 0.961028 20.3575 0.196932 18.7192 0.055141C18.7192 0.055141 18.4135 0 18.0843 0C17.6453 0 17.2847 0.0787728 17.2612 0.0866501C16.783 0.212687 16.3519 0.354478 16.2108 0.874378C16.0462 1.46517 16.6184 1.75663 16.9868 2.08748C17.4336 2.4971 17.8883 2.89096 18.343 3.49751C17.8099 3.32421 17.4023 3.31633 17.0025 3.30058C15.7405 3.24544 14.4784 3.22968 13.4123 4.04892C13.3182 4.18284 13.1928 4.75788 13.0831 4.87604C12.8871 5.23839 11.7975 5.85282 11.4918 6.12065L10.4962 7.3495C10.9274 9.03524 9.48503 8.85406 8.55221 9.16915C7.0785 10.2799 5.31475 11.0597 3.88024 12.3516C0.13326 15.7231 0.305716 16.6211 0 17.5585C0 17.779 0.00783887 17.9917 0.0235166 18.2123C0.0470332 18.102 0.0391944 18.6061 0.34491 19.5357C0.41546 19.7483 0.603593 20.0319 0.783887 20.3155C2.13217 21.568 3.26881 23.3089 3.58236 25.0261C3.68427 25.3176 3.75482 25.609 3.79401 25.9084C3.81753 25.995 3.84105 26.0817 3.85672 26.1683C4.02134 27.1136 4.28002 27.9801 4.60142 28.8702C4.78955 29.3901 4.84442 29.7367 5.43234 30.3433C5.72238 30.6426 5.79293 30.6269 6.10648 30.9104C6.14567 30.942 6.80414 31.2334 7.5018 31.0444C7.55667 31.0286 7.61938 31.0128 7.67425 30.9971C7.79184 30.9498 7.91726 30.9104 8.05052 30.8711C9.41448 30.1464 10.41 27.9407 11.4526 28.3976C13.5612 29.3192 14.5725 29.5792 14.4941 32.9743C14.4941 33.25 14.5019 33.5336 14.5568 33.8014C14.69 34.534 15.0114 36.204 16.5792 37.2123C16.7046 37.2753 16.8222 37.3462 16.932 37.425C17.0417 37.4643 17.1593 37.5037 17.2612 37.5589C18.2019 37.9212 18.4919 38.1182 20.2086 37.937L21.1022 37.7085C21.9018 37.3698 22.6622 36.9523 23.2031 36.5978C23.2579 36.5033 23.7361 36.9208 24.0261 36.9051C24.7943 36.8578 25.1236 36.6924 25.3039 35.9125C25.3274 35.818 25.3823 35.7313 25.4371 35.6132C25.539 35.7392 25.6174 35.8337 25.6958 35.9283C26.4013 36.7869 27.6712 36.8578 28.51 36.1252C29.0352 35.6604 29.5604 35.2036 30.0856 34.7388C31.4887 33.5021 32.9468 32.3677 34.64 31.517C35.5179 31.0759 36.3567 30.5638 36.9681 29.8076C37.4306 29.2405 37.6658 28.5236 37.6658 27.791L37.6344 27.7674Z" fill="#010000"/>
<path d="M22.2075 25.4515C21.9802 25.7666 21.7999 26.255 21.5099 26.3416C21.1806 26.4361 20.9768 25.8847 20.6789 25.6642C19.7383 24.9631 18.8838 24.8607 17.6845 25.4672C19.0328 25.2782 20.1851 25.3412 20.9063 26.4755C21.3688 27.2002 21.5255 28.0274 21.212 28.9096C19.9029 27.0742 19.1347 26.7197 17.9745 27.4129C18.0921 27.4917 18.2019 27.4287 18.3194 27.4208C20.2321 27.2711 21.3923 28.7521 20.7652 30.5796C20.577 31.1231 20.2948 31.643 20.044 32.1708C19.8715 32.541 19.7226 32.9192 19.6991 33.3288C19.6285 34.3056 20.3027 34.8806 21.2433 34.6285C21.4942 34.5576 21.745 34.4552 21.9724 34.3213C22.8033 33.8565 23.6185 33.376 24.4494 32.9192C24.614 32.8246 24.81 32.7616 24.9903 32.738C25.296 32.6907 25.6645 32.5647 25.8526 32.8955C26.0564 33.25 25.9388 33.6596 25.6645 33.9196C25.2568 34.2977 25.1628 34.6758 25.2333 35.2351C25.296 35.7471 25.1549 36.3143 24.6062 36.5978C24.0261 36.8893 23.5872 36.7002 23.2814 36.007C22.5054 36.8263 21.5647 37.3462 20.4908 37.6061C18.7427 38.0315 17.2063 37.6928 15.9835 36.2906C15.3799 35.5974 15.1682 34.7388 15.0036 33.8644C14.7292 32.4071 14.7919 30.942 14.9409 29.4768C14.9722 29.1538 15.2074 29.0908 15.4112 28.9726C16.5635 28.3031 16.8065 26.9009 15.8502 25.9084C15.9286 26.2628 16.007 26.5386 16.054 26.8143C16.2892 28.1376 15.5523 28.949 14.2197 28.8387C14.0629 28.823 13.8983 28.8072 13.7572 28.7521C11.5153 27.9013 9.90049 26.4046 9.10877 24.0966C9.03822 23.8839 8.99902 23.6476 8.96767 23.4192C8.71682 21.6625 9.95536 20.5518 11.6721 20.9614C11.8289 21.0008 11.9856 21.1426 12.1973 21.0166C11.8916 20.607 11.4526 20.5518 11.0214 20.5518C10.6922 20.5518 10.606 20.4415 10.5903 20.1343C10.5198 18.6455 10.5511 17.1488 10.8333 15.6915C11.092 14.3603 11.7818 13.2653 13.2007 12.7848C13.3261 13.0526 13.1144 13.4701 13.5377 13.541C13.8356 13.5883 14.0629 13.3756 14.353 13.2338C14.4392 13.4544 14.4627 13.738 14.7136 13.8167C14.9722 13.8955 15.1839 13.7143 15.3955 13.6041C15.5993 13.5017 15.7953 13.3756 15.9678 13.2338C17.1436 12.2413 18.5624 12.1468 19.9891 12.1625C20.6241 12.1704 20.6711 12.2964 20.4986 12.8951C20.2635 13.7301 20.1224 14.5887 20.1067 15.4552C20.1067 15.6522 20.1067 15.8412 20.1302 16.0381C20.24 17.0779 20.5849 17.3221 21.5726 17.0701C21.7215 18.3541 22.0037 18.488 23.0776 17.7633C23.1717 17.7002 23.2579 17.5033 23.3833 17.7475C23.6734 18.291 24.1045 18.165 24.5121 17.9366C25.3901 17.4403 26.0407 16.6998 26.6051 15.8727C26.7541 15.6522 26.8795 15.4158 27.0206 15.1953C27.3263 14.7226 27.4204 14.7069 27.781 15.148C28.2434 15.7152 28.7687 16.2745 28.5178 17.1173C28.4943 17.1961 28.5178 17.2906 28.5178 17.3852C28.557 17.653 28.4708 17.976 28.8157 18.1177C29.1214 18.2438 29.3644 18.0784 29.5917 17.9051C29.8034 17.7475 29.9837 17.6136 30.2894 17.6609C30.5794 17.7081 30.8146 17.4797 31.0184 17.2828C31.2144 17.0858 31.3947 16.8731 31.6377 16.5895C31.3712 18.2753 30.8068 19.772 30.2737 21.2844C29.529 23.3955 28.4943 25.3176 26.9187 26.9245C26.8011 27.0427 26.707 27.1372 26.8089 27.3342C27.3106 28.2637 27.0284 29.1302 26.5189 29.9337C25.4528 31.6273 22.9052 32.4308 21.0395 31.7139C20.7965 31.6194 20.773 31.5328 20.8514 31.2964C21.1336 30.4614 21.4471 29.6343 21.6196 28.7678C21.7293 28.2243 21.745 27.6729 21.651 27.1293C21.6118 26.9245 21.6353 26.7906 21.7999 26.6803C21.9018 26.6646 21.9567 26.7276 22.0115 26.8064C22.3956 27.3578 22.4976 27.3893 23.0776 27.1136C23.6185 26.8615 24.0105 26.4204 24.3397 25.9478C25.3195 24.5614 26.025 23.0568 26.1034 21.3159C26.1191 20.9536 26.3308 20.8512 26.66 20.8275C27.0911 20.796 27.5301 20.9299 27.9691 20.7724C28.2513 20.67 28.5256 20.5676 28.7451 20.3628C28.4473 20.6385 28.071 20.7566 27.6869 20.8275C27.5615 20.8512 27.4282 20.8275 27.3812 20.6857C27.342 20.5676 27.4204 20.4888 27.5066 20.4179C27.6712 20.2919 27.875 20.2052 27.9534 20.0713C27.3498 20.607 26.613 20.8196 25.7742 20.5518C25.5547 20.4809 25.3274 20.4573 25.1001 20.4573C24.4651 20.4573 24.4024 20.3943 24.3475 19.7483C24.3397 19.6144 24.3789 19.4805 24.3397 19.3939C24.2927 20.0949 24.3005 20.8433 24.128 21.5759C23.9791 22.1115 23.9086 22.6629 23.642 23.1592C23.6264 23.2065 23.6107 23.2537 23.5872 23.301C23.2501 24.0021 22.8581 24.6716 22.4192 25.3097C22.3721 25.3727 22.3094 25.42 22.231 25.4357L22.2075 25.4515Z" fill="#EEB653"/>
<path d="M14.3843 7.48339C14.2589 8.06631 13.961 8.1372 13.5691 8.12145C13.0282 8.09782 12.4795 8.08994 11.8759 8.20022C12.3619 7.59367 12.9498 7.12891 13.2555 6.30967C12.5579 6.85321 12.0092 7.36523 11.5623 7.97178C11.3272 8.29475 11.0528 8.40503 10.6844 8.40503C11.1077 6.29392 13.1458 5.14384 16.8379 4.89176C15.811 4.44276 14.7214 4.54516 13.6318 4.51365C15.5131 3.08787 17.4885 3.77319 19.605 4.30884C19.1425 3.8047 18.7663 3.37933 18.3743 2.96971C17.8726 2.44193 17.3631 1.93778 16.8536 1.41788C16.493 1.04765 16.5479 0.740437 17.026 0.527751C17.5591 0.291432 18.147 0.283555 18.6879 0.393837C20.0675 0.669542 21.165 1.41788 21.941 2.62311C21.502 2.33165 21.0552 2.06382 20.5065 2.09533C20.1773 2.11108 19.8637 2.18986 19.7383 2.54433C19.6207 2.8673 19.8324 3.09574 20.044 3.27692C20.773 3.91498 21.5334 4.50578 22.2546 5.30138C22.2467 4.9154 22.0743 4.70271 21.9097 4.4979C21.4864 3.94649 20.9533 3.51324 20.4516 3.0406C20.3419 2.9382 20.1459 2.84367 20.2478 2.65462C20.3262 2.5207 20.5065 2.56797 20.6398 2.58372C21.3923 2.66249 21.8548 3.17452 22.2781 3.72593C22.5211 4.04102 22.67 4.41913 22.8738 4.89176C23.1168 4.23007 23.0463 3.67079 23.0463 3.11938C23.0463 2.67037 23.0776 2.23712 23.2501 1.81962C23.4617 1.32336 23.8067 1.11855 24.1829 1.28397C24.6454 1.4809 24.5827 1.88264 24.4651 2.23712C24.2927 2.75702 24.0497 3.24541 23.8302 3.74956C23.6499 4.17493 23.5558 4.61606 23.4853 5.06506C23.595 5.10445 23.6342 5.04931 23.6577 4.98629C23.9321 4.30097 24.4494 3.85984 25.1236 3.62352C26.9109 3.00122 28.6197 3.19027 30.2345 4.18281C30.4854 4.33248 30.9087 4.49002 30.7754 4.85238C30.6578 5.16747 30.2424 5.07294 29.9602 5.03355C28.7373 4.89176 27.5223 4.71059 26.2994 4.56092C25.8918 4.51365 25.4685 4.427 24.959 4.80511C25.9623 4.82875 26.8481 4.81299 27.7418 5.34077C26.9344 5.41954 26.2445 5.30138 25.5782 5.48256C28.6276 5.86067 30.9792 7.3416 32.5862 9.9411C33.425 11.296 34.0834 12.7533 34.0364 14.4154C34.0285 14.8565 33.9345 15.2819 33.7699 15.7782C33.2368 15.1165 32.7038 14.5414 32.1315 13.9979C31.8885 13.7695 32.1394 13.3756 31.8572 12.9896C31.8258 13.7301 31.8258 14.3681 31.7239 14.9904C31.6534 15.4079 31.5671 15.8254 31.4417 16.2272C31.3006 16.6841 31.0027 16.9676 30.603 17.1882C30.3756 17.3142 30.3208 17.2276 30.3286 17.0149C30.3443 16.7077 30.4305 16.432 30.6108 16.172C31.089 15.4788 31.2771 14.699 31.1125 13.8325C31.0655 13.9821 31.0263 14.1239 30.9792 14.2736C30.7127 15.211 30.3835 16.1248 29.9053 16.9755C29.7564 17.2433 29.5917 17.4875 29.3409 17.6687C29.2155 17.7554 29.0901 17.8972 28.9176 17.7947C28.753 17.7002 28.7608 17.5269 28.7687 17.3694C28.7922 17.0149 28.8784 16.6762 28.9882 16.3375C29.5839 14.5808 29.482 12.8242 28.949 11.0754C28.9333 11.0282 28.9098 10.9809 28.8784 10.9336C28.8627 10.91 28.8314 10.8943 28.7765 10.8627C28.7765 11.2251 28.7765 11.5638 28.7765 11.9104C28.7765 12.0916 28.7295 12.2649 28.6354 12.4146C28.5492 12.5564 28.4394 12.6903 28.267 12.6588C28.0553 12.6194 28.0945 12.4146 28.0945 12.2728C28.0945 11.7214 28.118 11.1778 28.1259 10.6264C28.1259 10.3665 28.1102 10.1065 27.8829 9.83082C27.8202 10.5713 27.8045 11.2487 27.6947 11.9104C27.3655 13.8797 26.613 15.6364 25.1314 17.0228C24.8727 17.267 24.5749 17.456 24.2535 17.6136C24.0889 17.6923 23.8929 17.842 23.7283 17.6451C23.5872 17.4718 23.6577 17.2748 23.7518 17.0937C23.9164 16.7628 24.1045 16.4399 24.2613 16.1011C24.3475 15.9121 24.3946 15.7073 24.3711 15.4552C24.034 15.8884 23.6891 16.3217 23.352 16.7471C23.1874 16.9519 23.0228 17.1646 22.8346 17.3536C22.623 17.5584 22.4584 17.9996 22.0978 17.7869C21.7137 17.5584 21.9018 17.1331 22.0272 16.8258C22.2781 16.2272 22.5995 15.6521 22.7954 15.0219C22.9209 14.636 23.0149 14.2421 22.9365 13.6907C22.7406 14.1712 22.5916 14.5414 22.4427 14.9117C22.184 15.534 21.8626 16.1248 21.3923 16.6132C21.2355 16.7786 21.0631 16.9755 20.8044 16.881C20.5927 16.7943 20.5692 16.558 20.5222 16.3453C20.1929 14.888 20.6162 13.5016 20.9141 12.1152C21.1963 10.8155 21.259 9.53148 20.9612 8.23173C20.9455 8.14508 20.9455 8.05055 20.7887 7.97966C20.7417 8.28687 20.7652 8.60984 20.5927 8.86979C20.5065 9.0037 20.4359 9.19276 20.2557 9.16913C20.0989 9.1455 20.091 8.95644 20.0675 8.82253C20.0205 8.51531 19.9891 8.20022 19.9421 7.79848C19.5737 8.26324 19.2523 8.66498 18.9309 9.0746C18.1392 10.0908 17.3553 11.1148 16.5557 12.1231C16.2265 12.5406 15.8816 12.9423 15.4191 13.218C15.2309 13.3283 15.0036 13.4938 14.792 13.3205C14.596 13.155 14.7214 12.9266 14.792 12.7297C15.0977 11.8553 15.5837 11.0754 16.0697 10.2956C16.1324 10.1932 16.1873 10.0908 16.297 9.90171C15.9678 9.99624 15.8345 10.2011 15.6934 10.3822C15.1996 11.0045 14.8155 11.7056 14.4079 12.3831C14.3295 12.517 14.2511 12.6588 14.1649 12.7927C14.0316 12.9975 13.8513 13.2811 13.6083 13.1708C13.3418 13.0526 13.5299 12.7454 13.5926 12.5485C13.9454 11.4535 14.3843 10.3901 14.5646 9.2479C14.6509 8.71224 14.7293 8.16083 14.4 7.47551L14.3843 7.48339Z" fill="#B3522E"/>
<path d="M10.2062 13.7616C10.1278 14.2973 9.88481 14.8093 10.0965 15.1953C10.7079 16.3217 10.1827 17.4639 10.2689 18.5825C10.2846 18.8267 10.2611 19.0788 10.2689 19.323C10.2846 20.0635 10.3551 20.7015 9.45367 21.1741C8.56788 21.631 8.49733 22.6708 8.63843 23.6319C8.81872 24.845 9.43799 25.8533 10.214 26.7513C10.4649 27.0427 10.457 27.2633 10.2924 27.5784C9.80642 28.4685 9.28121 29.3193 8.52084 30.0046C7.1412 31.2492 5.96537 31.0129 5.21284 29.3193C4.71899 28.2007 4.41328 27.0191 4.19379 25.8217C3.85672 23.9627 3.55884 22.0958 3.26096 20.2289C3.17474 19.7011 3.18258 19.1654 3.23745 18.6377C3.37855 17.1804 4.04485 16.0697 5.33826 15.3528C6.85117 14.5178 8.48165 14.0846 10.2297 13.7616H10.2062Z" fill="#FDD99A"/>
<path d="M31.9904 20.0082C33.0644 21.9303 34.4205 23.6002 34.7184 25.7823C34.7654 26.1289 34.7811 26.4833 34.7967 26.8378C34.8359 27.531 34.7732 28.1533 34.1226 28.6102C33.7777 28.8544 33.566 29.2719 33.3622 29.8548C33.7855 29.4294 34.1226 29.1222 34.5851 28.815C34.3578 29.5634 34.0129 30.1305 33.5582 30.611C32.0218 32.218 30.4697 33.8092 28.9098 35.3925C28.6276 35.6761 28.2826 35.9046 27.9769 36.1724C27.4752 36.5978 26.9579 36.5741 26.4248 36.2433C25.8448 35.8809 25.5234 35.3689 25.4998 34.6757C25.4998 34.5103 25.6017 34.4236 25.6958 34.3212C25.9388 34.0534 26.0956 33.7462 26.1583 33.3838C26.268 32.7694 26.0486 32.4779 25.4371 32.4228C25.2882 32.407 25.0373 32.5567 25.0138 32.2653C24.9903 32.0053 24.8806 31.706 25.2333 31.5248C25.6096 31.3279 25.9388 31.06 26.2367 30.7607C27.1852 29.7839 27.7339 28.7047 27.1382 27.3262C27.0755 27.1765 27.1068 27.1056 27.2166 27.019C28.8314 25.6641 29.6701 23.8208 30.3521 21.8988C30.4618 21.5837 30.6108 21.3552 30.9087 21.1819C31.3398 20.9299 31.6298 20.5281 31.9904 20.0161V20.0082Z" fill="#FDD99A"/>
<path d="M3.5667 24.1046C3.39424 23.7343 3.25314 23.4035 3.08853 23.0805C2.70442 22.3007 2.21057 21.5996 1.64617 20.9379C0.972032 20.1502 0.548733 19.2207 0.344922 18.1966C0.258695 17.7318 0.321406 17.2907 0.525216 16.8575C0.893643 16.0619 1.36398 15.345 1.96757 14.7149C4.06055 12.5328 6.47492 10.792 9.14797 9.38193C10.2454 8.80689 11.4448 8.75175 12.6206 8.57057C13.0517 8.50756 13.4985 8.4918 13.9297 8.43666C14.1884 8.40515 14.3216 8.45241 14.2668 8.76751C14.0629 9.91759 13.7964 11.0519 13.4358 12.1626C13.3574 12.3911 13.1928 12.4935 12.9969 12.588C12.2678 12.9503 11.4918 13.1788 10.6922 13.3363C9.06175 13.6514 7.47045 14.061 5.9262 14.6833C3.55886 15.6365 2.44574 17.6294 2.80633 20.1738C2.9631 21.316 3.44128 22.3794 3.55102 23.5295C3.5667 23.7028 3.63725 23.8683 3.55886 24.1046H3.5667Z" fill="#EEB653"/>
<path d="M32.4921 32.3125C32.8292 31.9423 33.1663 31.5642 33.5033 31.1939C35.4395 29.0356 35.4944 26.5621 34.6008 24.002C33.958 22.1745 32.9311 20.5439 31.6298 19.1023C31.5122 18.9763 31.4025 18.8818 31.4731 18.6533C31.8728 17.4008 32.0139 16.1011 32.0688 14.7856C32.0688 14.7383 32.0923 14.6989 32.1394 14.5493C32.8449 15.4236 33.5033 16.235 34.1696 17.0464C35.6433 18.8266 36.5683 20.8668 36.9367 23.1434C37.2268 24.9551 37.4306 26.7827 37.1327 28.6338C37.0073 29.39 36.5762 29.8784 36.0274 30.3038C35.0005 31.0837 33.809 31.5957 32.743 32.3204C32.6724 32.3677 32.5783 32.3834 32.4999 32.3283L32.4921 32.3125Z" fill="#EEB653"/>
<path d="M22.2075 25.4514C22.231 25.412 22.2467 25.3727 22.2702 25.3333C22.4427 25.1915 22.5995 24.8843 22.7562 25.3648C22.96 26.0107 23.2579 26.0816 23.7674 25.6405C23.8223 25.5932 23.8693 25.546 23.9164 25.4908C24.081 25.3411 24.1986 25.1678 24.2456 24.9473C24.3005 24.7661 24.3318 24.577 24.3554 24.3801C24.4259 23.8366 24.2299 23.5766 23.7047 23.4742C23.5715 23.4506 23.399 23.4742 23.4852 23.2379C23.5793 23.104 23.6342 22.9543 23.7047 22.8204C23.9321 22.3793 24.2378 22.2375 24.7395 22.3241C25.1941 22.4029 25.3587 22.7338 25.4136 23.1513C25.4371 23.3246 25.4214 23.5057 25.445 23.679C25.1392 25.1127 24.3632 26.2628 23.1952 27.1057C22.5367 27.5862 22.0429 27.3262 22.0115 26.5858C22.0742 26.2076 22.1448 25.8217 22.2075 25.4435V25.4514Z" fill="#9FF9DE"/>
<path d="M19.605 8.75953C19.9656 9.57089 19.9969 9.58664 20.7103 9.42122C20.7103 9.8781 20.7103 10.3271 20.7103 10.784C20.7103 10.973 20.6633 11.0597 20.4359 11.0361C19.4639 10.9494 18.6016 11.2015 17.8648 11.8632C17.7315 11.9813 17.5747 12.1074 17.2612 12.0837C17.8961 10.8313 18.8603 9.8781 19.605 8.75165V8.75953Z" fill="#EEB753"/>
<path d="M24.3319 32.2338C24.4651 32.2417 24.6454 32.1471 24.7003 32.3283C24.763 32.5016 24.567 32.5646 24.4651 32.6355C23.4382 33.3287 22.3251 33.8644 21.2042 34.3607C20.5222 34.66 20.0675 34.337 20.0205 33.5887C20.0127 33.3996 20.044 33.2027 20.0754 33.0136C20.1146 32.7852 20.1616 32.5174 20.3968 32.4386C20.6711 32.3519 20.7103 32.667 20.8201 32.8246C21.3453 33.5099 21.9489 33.5414 22.4662 32.8561C22.6779 32.5725 22.8268 32.3441 23.2187 32.5883C23.3207 32.6513 23.5245 32.5489 23.6734 32.5252C23.8145 32.2574 24.0732 32.2574 24.324 32.2417L24.3319 32.2338Z" fill="#EEB753"/>
<path d="M22.0116 26.5937C22.2938 27.3421 22.6465 27.4524 23.2893 26.9482C24.1829 26.2471 24.7787 25.3255 25.1785 24.2621C25.249 24.0809 25.3196 23.9076 25.3901 23.7264C25.3901 23.7028 25.3901 23.6791 25.3901 23.6476C25.5547 23.0174 25.735 22.3951 25.8369 21.7571C25.931 21.182 25.8369 20.9536 25.4528 20.7961C25.0295 20.6228 24.6924 20.7567 24.4024 21.2214C24.3162 21.3553 24.2691 21.505 24.1359 21.6074C24.0889 21.631 24.034 21.6232 23.9869 21.5995C24.0967 20.7409 24.1908 19.8823 24.1751 18.9291C24.4651 19.2836 24.4494 19.6381 24.473 19.9689C24.4965 20.2762 24.5043 20.4731 24.9041 20.3392C25.1471 20.2604 25.4293 20.284 25.6801 20.3864C26.613 20.7409 27.3969 20.481 28.0632 19.7799C28.0632 20.1895 28.0475 20.2053 27.3185 20.6936C28.0396 20.7409 28.5335 20.4101 29.0117 20.0083C28.8941 20.4258 28.6432 20.67 28.1259 20.8433C27.632 21.0087 27.1225 21.0324 26.613 20.993C26.3308 20.9694 26.2289 21.0245 26.2132 21.3475C26.127 23.3404 25.2412 25.0104 24.034 26.5307C23.7439 26.8931 23.3834 27.1767 22.9365 27.3342C22.3486 27.5469 22.1056 27.4366 21.9018 26.8379C21.8783 26.767 21.8548 26.7119 21.7842 26.6883C21.8391 26.6095 21.9175 26.5937 22.0037 26.5937H22.0116Z" fill="#050403"/>
<path d="M28.4551 15.8725C28.4551 15.5496 28.4551 15.2187 28.4551 14.8957C28.4551 14.0608 28.2983 13.9032 27.4831 13.9268C27.5301 13.7378 27.585 13.5566 27.632 13.3676C27.7026 13.0761 27.7339 12.8004 28.1886 12.9658C28.4865 13.0761 28.7138 12.7846 28.9646 12.3987C28.9881 13.6984 29.192 14.8406 28.6589 15.904C28.5884 15.8962 28.5256 15.8804 28.4551 15.8725Z" fill="#EEB853"/>
<path d="M10.559 15.6048C10.1121 14.9589 10.2846 14.3838 10.4727 13.8482C10.6295 13.4149 11.1312 13.5725 11.5937 13.3519C11.139 14.116 10.8255 14.8013 10.559 15.6127V15.6048Z" fill="#F5D99A"/>
<path d="M20.922 32.2417C20.922 32.2417 20.922 32.163 20.9376 32.1078C20.9533 32.0606 22.0586 32.1708 22.137 32.2339C22.3094 32.3678 22.2075 32.5253 22.137 32.6514C21.9645 32.9349 21.745 33.1791 21.3688 32.998C21.0709 32.8483 20.9455 32.5883 20.9298 32.2417H20.922Z" fill="#B2502C"/>
<path d="M31.3241 19.2049C31.8807 19.7406 31.8885 19.843 31.4574 20.3629C31.3477 20.4968 31.2222 20.6228 31.0968 20.7489C30.9871 20.8592 30.8616 20.9537 30.6265 21.1506C30.7911 20.7331 30.9165 20.4417 31.0184 20.1502C31.1203 19.8509 31.2144 19.5515 31.3163 19.2128L31.3241 19.2049Z" fill="#F7E0A0"/>
<path d="M23.5715 32.4308C23.3677 32.4308 23.1482 32.4623 22.9444 32.2418C23.4696 32.0764 23.9634 31.9188 24.4808 31.7613C24.4886 31.9818 24.3162 32.0291 24.23 32.1394C24.0575 32.3442 23.8223 32.3914 23.5793 32.4387L23.5715 32.4308Z" fill="#B24F2C"/>
<path d="M23.5715 32.4307C23.791 32.3283 24.0105 32.2338 24.2221 32.1314C24.2613 32.1629 24.2927 32.2023 24.3319 32.2338C24.1124 32.3283 23.8929 32.4229 23.6812 32.5174C23.642 32.4859 23.6107 32.4544 23.5715 32.4229V32.4307Z" fill="#331A0D"/>
<path d="M16.0618 14.5336C16.2735 15.022 16.3362 15.5655 16.689 16.1169C16.6106 15.2583 16.4773 14.5336 16.783 13.6671C16.8928 14.4391 16.8692 15.085 17.0652 15.6916C17.3553 15.7152 17.4336 15.3056 17.7237 15.3686C17.7942 15.4946 17.708 15.5498 17.661 15.6128C17.175 16.3139 17.1906 16.5738 17.904 17.0386C18.6644 17.5349 18.9309 18.2438 18.8917 19.0709C18.8133 20.93 18.1627 22.5842 16.9633 24.0021C16.6027 24.4275 16.1402 24.7504 15.5288 24.6008C14.9174 24.4511 14.6117 23.9942 14.4549 23.4113C14.3451 23.0174 14.2824 22.6157 14.2981 22.2061C14.3608 20.2525 14.9958 18.5038 16.1559 16.9519C16.344 16.6999 16.4146 16.5344 16.2421 16.2272C15.9521 15.7073 15.9364 15.1244 16.0697 14.5257L16.0618 14.5336Z" fill="#020201"/>
<path d="M23.4774 23.246C23.5088 23.2854 23.5401 23.3642 23.5715 23.3642C24.3554 23.4035 24.6141 23.7186 24.4651 24.4827C24.4338 24.6482 24.4651 24.8451 24.3319 24.9869C24.1516 25.0263 23.9243 24.8215 23.7988 25.042C23.6656 25.2705 23.9478 25.3571 24.0262 25.5304C23.9399 25.6328 23.8615 25.751 23.7596 25.8455C23.5401 26.0346 23.2893 26.1685 22.9993 26.0424C22.6465 25.8849 22.6073 25.5462 22.5995 25.1759C22.4741 25.239 22.3722 25.2862 22.2702 25.3335C22.67 24.6403 23.0777 23.9471 23.4774 23.2539V23.246Z" fill="#010000"/>
<path d="M25.641 33.5652C25.445 33.7227 25.3431 33.8094 25.2333 33.8881C24.7473 34.2426 24.4887 34.6916 24.52 35.3218C24.5357 35.629 24.5749 36.1253 24.1516 36.1174C23.7675 36.1095 23.7832 35.6132 23.7832 35.2903C23.7675 34.3214 24.52 33.5809 25.641 33.5652Z" fill="#090703"/>
<path d="M23.9948 21.6074C23.9948 21.6074 24.0653 21.6074 24.0967 21.6074C24.1516 21.9697 24.2691 22.1509 24.716 22.1903C25.4293 22.2455 25.6331 22.789 25.3901 23.7264C25.1941 23.5925 25.296 23.3798 25.2804 23.1986C25.2333 22.8441 25.1393 22.5133 24.7316 22.466C24.3475 22.4188 23.9399 22.4188 23.7518 22.8835C23.6969 23.0332 23.4617 23.7185 23.4774 23.2459C23.6499 22.7023 23.8223 22.1509 23.9948 21.6074Z" fill="#1B1E22"/>
<path d="M24.0261 25.5302C23.8145 25.4908 23.6185 25.4278 23.5793 25.1757C23.5558 25.0182 23.6342 24.9079 23.7518 24.8291C23.9948 24.6873 24.1751 24.8055 24.3319 24.9867C24.3789 25.2545 24.2378 25.412 24.0183 25.5302H24.0261Z" fill="#F2F2F2"/>
<path d="M25.3901 23.7184C25.3901 23.616 25.3979 23.5057 25.4058 23.4033C25.4685 22.521 25.1001 22.1744 24.23 22.3083C24.1281 22.3241 24.0261 22.3714 23.9242 22.2926C23.9791 22.0642 24.034 21.8357 24.0889 21.5994C24.473 20.6541 24.8492 20.402 25.5312 20.662C25.8683 20.788 26.0878 20.985 26.0094 21.4103C25.8604 22.1981 25.8291 23.0094 25.3823 23.7105L25.3901 23.7184Z" fill="#FCFCFC"/>
<path d="M17.9667 21.8436C17.755 22.2769 17.5434 22.718 17.3239 23.1512C17.1436 23.4978 16.8771 23.7893 16.5714 24.0256C15.8188 24.6164 15.0663 24.4195 14.7371 23.5215C14.3843 22.5447 14.5019 21.5758 14.8782 20.6305C14.9331 20.4966 14.9879 20.3706 15.0506 20.2445C15.1839 19.6852 15.6307 19.3938 16.0227 19.0472C16.5087 18.8187 17.0025 18.6769 17.5042 19.0078C18.0451 19.6537 18.0764 20.4021 17.9667 21.1898C17.9353 21.4104 17.8178 21.6309 17.9667 21.8436Z" fill="#9FF9DE"/>
<path d="M15.0193 20.1027C14.9566 20.0949 14.8076 20.1815 14.8625 20.024C15.1682 19.1969 15.4818 18.3776 16.1873 17.7947C16.8693 17.2433 17.6688 17.2354 18.1783 17.7632C18.3822 17.9759 18.4919 18.228 18.5233 18.5115C18.633 19.5986 18.4213 20.6305 17.9824 21.6231C17.7002 21.5522 17.8569 21.371 17.8726 21.2213C17.9589 20.4572 18.0294 19.6931 17.4807 19.0393C16.932 18.7006 16.4146 18.8739 15.9129 19.1575C15.5994 19.4647 15.3015 19.7719 15.0114 20.0949L15.0193 20.1027Z" fill="#FDFCFC"/>
<path d="M17.4572 18.9763C17.8648 19.1732 17.9353 19.575 17.9589 19.9531C17.998 20.4178 18.0608 20.8983 17.8883 21.3631C17.8491 21.4576 17.8648 21.5758 17.9824 21.6309C17.9824 21.7018 17.9667 21.7727 17.9667 21.8436C17.6375 21.7018 17.7786 21.434 17.8178 21.2134C17.9589 20.4572 17.8883 19.7483 17.4415 19.1023C17.3945 19.0551 17.3945 19.0157 17.4493 18.9763H17.4572Z" fill="#1C2E37"/>
<path d="M16.1559 17.5034C16.5871 16.6211 16.689 16.5896 17.1985 17.1174C16.8457 17.1961 16.5165 17.2828 16.1559 17.5034Z" fill="#E9BD55"/>
<path d="M15.0193 20.1027C15.2309 19.7167 15.5131 19.4095 15.8737 19.1653C15.9208 19.1101 15.9599 19.118 15.9991 19.1732C15.6621 19.5198 15.3172 19.8427 15.0428 20.2445C15.035 20.1972 15.0271 20.1499 15.0114 20.1027H15.0193Z" fill="#1E1D21"/>
<path d="M24.3867 34.5656C24.3554 34.9673 24.324 35.3533 24.2927 35.7708C23.9164 35.3848 23.9477 35.0067 24.3867 34.5656Z" fill="#E3B953"/>
<path d="M16.7595 22.0641C16.8144 22.0956 16.9163 22.1271 16.9241 22.1665C16.9712 22.4186 16.3597 23.0251 16.007 23.0566C15.5915 23.096 15.3877 22.8361 15.3407 22.4737C15.2466 21.812 15.4191 21.2134 15.858 20.7171C16.1167 20.4256 16.446 20.1736 16.8144 20.3784C17.1985 20.5911 17.2926 20.9928 17.1436 21.4261C16.7752 21.4891 16.5557 21.6466 16.7517 22.0641H16.7595Z" fill="#000101"/>
<path d="M16.7595 22.0641C16.5635 21.946 16.4146 21.7884 16.5557 21.5521C16.6968 21.3079 16.9241 21.3236 17.1515 21.4261C17.4101 21.8829 17.2142 22.0562 16.7595 22.0641Z" fill="#F6F7F7"/>
<path d="M15.9991 19.1732C15.9599 19.1732 15.9129 19.1732 15.8737 19.1653C16.3597 18.7636 16.8692 18.5824 17.4572 18.9763C17.4572 19.0156 17.4572 19.0629 17.4493 19.1023C16.9555 18.8187 16.4773 19.0078 16.007 19.1732H15.9991Z" fill="#222122"/>
<path d="M17.661 21.8672L17.7942 19.9452L17.8648 19.8743L18.2097 21.111L18.0059 21.8672H17.661Z" fill="#9FF9DE"/>
<path d="M18.0686 21.9304C18.4762 20.2131 17.4572 17.3379 14.8625 20.2131" stroke="black" stroke-width="0.206885"/>
<path d="M23.8694 22.4816C24.3946 22.1193 25.5782 22.2059 25.4371 23.9862" stroke="black" stroke-width="0.206885"/>
<path d="M22.0978 25.7745L22.5054 25.16" stroke="black" stroke-width="0.100487"/>
<path d="M23.3912 23.5135L23.6656 22.8991" stroke="black" stroke-width="0.100487"/>
</g>
</g>
<defs>
<clipPath id="clip0_432_3368">
<rect width="38" height="38" fill="white"/>
</clipPath>
<clipPath id="clip1_432_3368">
<rect width="37.6344" height="38" fill="white"/>
</clipPath>
</defs>
</svg>
