<svg width="21" height="23" viewBox="0 0 21 23" fill="none" xmlns="http://www.w3.org/2000/svg">
<g clip-path="url(#clip0_168_1286)">
<path d="M14.7857 20.1521V21.9378C14.7857 22.5296 14.306 23.0092 13.7143 23.0092H1.57143C0.979688 23.0092 0.5 22.5296 0.5 21.9378V5.50924C0.5 4.9175 0.979688 4.43781 1.57143 4.43781H4.78571V17.6521C4.78571 19.0306 5.90719 20.1521 7.28571 20.1521H14.7857ZM14.7857 4.79496V0.1521H7.28571C6.69397 0.1521 6.21429 0.631787 6.21429 1.22353V17.6521C6.21429 18.2438 6.69397 18.7235 7.28571 18.7235H19.4286C20.0203 18.7235 20.5 18.2438 20.5 17.6521V5.86639H15.8571C15.2679 5.86639 14.7857 5.38424 14.7857 4.79496ZM20.1862 3.40973L17.2424 0.465894C17.0414 0.264976 16.7689 0.152101 16.4848 0.1521L16.2143 0.1521V4.43781H20.5V4.16732C20.5 3.88317 20.3871 3.61066 20.1862 3.40973Z" fill="#73F1CB"/>
</g>
<defs>
<clipPath id="clip0_168_1286">
<rect width="20" height="22.8571" fill="white" transform="translate(0.5 0.1521)"/>
</clipPath>
</defs>
</svg>
