<svg width="32" height="32" viewBox="0 0 32 32" fill="none" xmlns="http://www.w3.org/2000/svg">
<g clip-path="url(#clip0_192_4126)">
<path d="M25.2481 29.7526C25.2481 29.7526 25.2481 29.7526 25.2361 29.7526C25.1818 29.7647 24.9827 29.8009 24.6752 29.8431H24.6691C23.8549 29.9577 22.3351 30.1085 21.1108 29.8431C21.1047 29.8431 21.0927 29.8431 21.0806 29.8431L16.8407 27.6659L15.9783 27.2256L15.5742 27.497L12.4139 29.6018L12.1123 29.8069C12.1123 29.8069 12.1123 29.8069 12.0942 29.8069C12.052 29.8069 11.9193 29.825 11.7324 29.8431C11.7082 29.8431 11.6841 29.8491 11.66 29.8491C10.7191 29.9336 8.55998 30.0904 7.58294 29.8009C7.57088 29.8009 7.56485 29.8009 7.55279 29.7948C7.41407 29.7526 7.36582 29.5958 7.38391 29.3606C7.48041 28.2388 9.15707 25.1509 10.6166 22.6359C11.7324 20.718 12.7034 19.1559 12.7034 19.1559L12.8662 17.2018L13.3608 11.4301L14.0966 2.81761L14.1267 2.40749C14.1267 2.40749 16.7804 1.84659 18.5053 2.40749C18.5174 2.40749 18.5174 2.40749 18.5294 2.41955C19.1446 2.71508 20.2785 6.75593 21.4244 11.5989C21.744 12.9559 22.0637 14.3612 22.3713 15.7725C22.6849 17.2018 22.9925 18.6312 23.2759 19.9882C24.3977 25.3439 25.224 29.7466 25.224 29.7466L25.2481 29.7526Z" fill="url(#paint0_linear_192_4126)"/>
<path d="M25.6399 21.3031C25.6399 21.3031 27.1537 28.4741 25.4771 29.6381C25.4107 29.6863 25.3323 29.7225 25.2539 29.7527C25.2539 29.7527 25.2539 29.7527 25.2418 29.7527C25.079 29.813 24.886 29.8431 24.6809 29.8431H24.6749C23.9994 29.8431 23.1249 29.5476 22.2383 29.1435C20.2662 28.2449 18.2095 26.7793 18.2095 26.7793C18.2095 26.7793 17.6607 27.1653 16.8525 27.6599C16.6957 27.7564 16.5329 27.8529 16.358 27.9614C16.358 27.9614 16.352 27.9614 16.3459 27.9675C16.3459 27.9675 16.3339 27.9735 16.3158 27.9856C15.0311 28.7395 13.3605 29.6079 12.1302 29.8009C12.1302 29.8009 12.1302 29.8009 12.1121 29.8009C11.9854 29.819 11.8648 29.8371 11.7502 29.8371C11.7261 29.8371 11.702 29.8431 11.6778 29.8431C11.4607 29.8431 11.2617 29.819 11.0928 29.7587C11.0023 29.7225 10.9239 29.6803 10.8516 29.6321C10.6948 29.5175 10.5681 29.3546 10.4656 29.1496C9.79612 27.7805 10.2786 24.5116 10.6405 22.6299C10.7913 21.8338 10.9179 21.297 10.9179 21.297C10.9179 21.297 8.1074 19.0655 6.40059 16.8883C5.56227 15.8268 4.99534 14.7774 5.15215 14.0295C5.41149 12.8052 7.6611 12.1478 9.75993 11.798C11.3763 11.5266 12.9021 11.4422 13.3907 11.4241C13.4932 11.418 13.5475 11.418 13.5475 11.418C13.5475 11.418 14.7839 7.19023 16.358 4.50034C17.0455 3.32427 17.7874 2.45579 18.487 2.41357C18.5051 2.41357 18.5232 2.41357 18.5473 2.41357C18.6378 2.41357 18.7342 2.42564 18.8307 2.46182C21.0985 3.16143 23.2938 11.4241 23.2938 11.4241C23.2938 11.4241 31.1765 11.6653 31.6228 14.0356C32.051 16.3334 25.658 21.3031 25.658 21.3031H25.6399Z" fill="url(#paint1_linear_192_4126)"/>
<path d="M21.7741 21.3031C21.7741 21.3031 23.1793 27.1955 22.2264 29.1496C22.1299 29.3607 22.0033 29.5235 21.8404 29.6381C21.6474 29.7768 21.4002 29.8431 21.1046 29.8492C19.8502 29.8854 17.8297 28.848 16.34 27.9675C16.0626 27.8046 15.8033 27.6478 15.5741 27.497C14.9167 27.0869 14.4825 26.7854 14.4825 26.7854C14.4825 26.7854 12.4198 28.2509 10.4537 29.1556C9.87468 29.4149 9.30172 29.6321 8.78908 29.7466C8.33674 29.8552 7.92059 29.8854 7.59491 29.8009C7.58285 29.8009 7.57682 29.8009 7.56476 29.7949C7.43207 29.7587 7.31145 29.7105 7.20892 29.6381C5.56845 28.5042 6.97974 21.6348 7.04608 21.3151C7.04608 21.3091 7.04608 21.3031 7.04608 21.3031C7.04608 21.3031 0.653084 16.3334 1.07526 14.0356C1.5276 11.6653 9.40425 11.4241 9.40425 11.4241C9.40425 11.4241 11.7926 2.41357 14.1507 2.41357C14.8745 2.41357 15.6344 3.30015 16.3461 4.50638C17.9142 7.19626 19.1506 11.4241 19.1506 11.4241C19.1506 11.4241 20.1457 11.4542 21.4484 11.605C22.9381 11.7679 24.8258 12.0815 26.1105 12.6725C26.8764 13.0223 27.4253 13.4686 27.5459 14.0356C27.8776 15.5795 25.1153 18.3719 23.306 19.9943C22.4375 20.7784 21.7801 21.3031 21.7801 21.3031H21.7741Z" fill="url(#paint2_linear_192_4126)"/>
<g style="mix-blend-mode:soft-light">
<path d="M19.1445 11.424C19.1445 11.424 22.359 11.3336 23.7281 11.4482C29.0536 11.8945 30.4769 12.7811 30.8871 13.3962C31.2972 14.0114 27.8775 13.4565 27.6363 13.4445C27.395 13.4324 27.2322 12.57 24.3614 12.196C21.4785 11.8161 19.1445 11.424 19.1445 11.424Z" fill="white"/>
</g>
<g style="mix-blend-mode:multiply" opacity="0.5">
<path d="M25.6399 21.3029C24.9041 21.5261 22.7027 21.3391 22.3831 21.3029C22.0634 21.2667 26.5988 17.2862 27.4733 15.6879C28.3659 14.0535 30.9834 14.2344 31.3755 14.5239C31.7675 14.8074 29.6988 17.5757 28.3237 18.9749C26.9727 20.344 25.6399 21.3029 25.6399 21.3029Z" fill="#D0D0D0"/>
</g>
<g style="mix-blend-mode:soft-light">
<path d="M24.8259 14.9402C24.1082 15.2418 23.2879 15.5252 22.3953 15.7786C19.6512 16.5566 16.1953 17.0632 12.8782 17.2079C10.5562 17.3044 8.29456 17.214 6.3827 16.9003C4.24164 16.5566 2.51071 15.9233 1.61207 14.9463C1.39495 14.7171 1.22005 14.4035 1.0753 14.0356C1.15371 13.6435 1.43114 13.3058 1.85935 13.0163C1.85935 13.0163 1.85935 13.0163 1.86538 13.0163C1.94378 12.962 2.03425 12.9077 2.13075 12.8535C2.14281 12.8474 2.15487 12.8414 2.17297 12.8293C4.45877 11.5749 9.40429 11.4241 9.40429 11.4241C9.40429 11.4241 11.7926 2.41357 14.1508 2.41357C14.3498 2.41357 14.5609 2.47992 14.7599 2.6126C15.2967 2.93225 15.8335 3.63789 16.3401 4.50638C17.9082 7.19626 19.1446 11.4241 19.1446 11.4241C19.1446 11.4241 20.1397 11.4542 21.4424 11.605C22.9321 11.7679 24.8199 12.0815 26.1045 12.6725C26.3035 13.6616 25.9597 14.4517 24.8259 14.9402Z" fill="white"/>
</g>
<g style="mix-blend-mode:multiply" opacity="0.2">
<path d="M2.17882 15.9172C1.26811 16.3093 3.60819 18.4322 5.58037 19.6083C7.51636 20.7663 22.7932 17.3285 24.1985 17.6361C25.5917 17.9437 27.8352 15.4106 27.4311 14.3311C27.0271 13.2334 26.3576 13.1248 26.3576 13.3118C26.3576 13.4988 25.5193 15.091 23.6677 15.5554C21.8282 16.0137 7.49224 17.0933 5.84574 17.2381C4.20527 17.3768 2.32356 15.8569 2.17882 15.9172Z" fill="#E8E8E8"/>
</g>
<g style="mix-blend-mode:soft-light">
<path d="M7.60684 29.5174C6.21968 29.2037 6.39458 25.4403 7.2691 24.403C8.15567 23.3536 19.1022 23.444 21.201 24.0833C23.2817 24.7166 22.3771 29.0771 21.6473 29.5174C20.9236 29.9576 14.8321 26.3028 14.3376 26.4174C13.843 26.5259 10.2967 30.1265 7.60684 29.5174Z" fill="white"/>
</g>
<path d="M19.88 19.729L19.0175 20.4286L19.2709 21.4177C19.8076 23.5105 20.0971 25.6938 20.0549 26.9C20.0549 27.0266 20.0428 27.1352 20.0308 27.2377C19.0175 26.9 17.2022 25.9048 15.6884 24.8313L14.8923 24.2644L14.452 23.9508L13.2458 24.8313C12.0998 25.6576 10.7851 26.4356 9.78389 26.9C9.4763 27.0447 9.19887 27.1593 8.96969 27.2377C8.81288 26.128 9.04206 23.7155 9.56677 21.4117L9.79595 20.4225L8.90938 19.7229C6.81054 18.0463 4.73583 15.869 4.30762 14.898C5.10976 14.4276 7.68506 13.9511 9.98292 13.8727L11.4726 13.8245L11.8586 12.4856C12.4979 10.2118 13.4689 7.81146 14.2168 6.54492C14.3736 6.80426 14.5424 7.10582 14.7174 7.44356C15.4049 8.78247 16.1769 10.6702 16.7378 12.4856L17.1539 13.8245L18.6496 13.8727C20.9475 13.9451 23.5349 14.4216 24.3491 14.892C23.951 15.863 21.9426 18.0403 19.88 19.7169V19.729Z" fill="url(#paint3_linear_192_4126)"/>
<path d="M24.3493 14.9102C23.9814 15.8028 22.2626 17.7026 20.3989 19.3009C20.2301 19.4456 20.0552 19.5904 19.8803 19.7351L19.0239 20.4347L19.2711 21.4238C19.8139 23.5166 20.0974 25.6999 20.0491 26.9061C19.0359 26.4417 17.7091 25.6637 16.5451 24.8374L15.3147 23.9629H14.4462L13.24 24.8374C12.0941 25.6637 10.7793 26.4417 9.77813 26.9061C9.7721 26.7553 9.76607 26.5804 9.76607 26.3995C9.76607 26.1884 9.7721 25.9592 9.79019 25.718C9.8505 24.6867 10.0254 23.3839 10.3028 22.0692C10.3451 21.852 10.3933 21.6349 10.4476 21.4178L10.6768 20.4287L9.79622 19.7291C7.70342 18.0585 5.64681 15.8752 5.23066 14.9042C6.0328 14.4277 8.61412 13.9573 10.912 13.8789L12.4017 13.8306L12.7877 12.4917C13.3124 10.6824 14.0482 8.78862 14.7116 7.44971C15.3991 8.78862 16.1711 10.6824 16.732 12.4917L17.1482 13.8306L18.6379 13.8789C20.9417 13.9513 23.5291 14.4277 24.3433 14.8982L24.3493 14.9102Z" fill="url(#paint4_linear_192_4126)"/>
<path d="M14.4461 23.9568C14.4461 23.9568 15.2844 23.9326 15.6101 24.1678C15.9358 24.4031 18.0708 25.8505 18.0648 26.0918C18.0648 26.327 15.8152 24.9579 14.4401 23.9628L14.4461 23.9568Z" fill="white"/>
<g style="mix-blend-mode:soft-light">
<path d="M8.95805 27.2436C8.65047 27.129 9.28373 25.1327 9.51292 24.9638C9.7421 24.795 9.68179 26.7732 9.77226 26.8998C9.77226 26.8998 9.21739 27.2557 8.95805 27.2376V27.2436Z" fill="white"/>
</g>
<g style="mix-blend-mode:multiply" opacity="0.5">
<path d="M9.78393 20.4282H10.6765C10.6765 20.4282 9.76584 23.094 9.62712 23.8057C9.49443 24.5113 9.05416 23.0457 9.78393 20.4282Z" fill="white"/>
</g>
<g style="mix-blend-mode:multiply" opacity="0.5">
<path d="M4.82635 15.7368C4.26546 14.7296 12.516 15.0915 12.516 15.0915C12.516 15.0915 14.1987 9.6092 15.4411 9.01212C15.4411 9.01212 14.3978 6.56951 14.2108 6.56348C14.0238 6.55745 11.4666 13.837 11.4666 13.837C11.4666 13.837 7.7997 13.6983 4.30164 14.9106L4.83238 15.7368H4.82635Z" fill="white"/>
</g>
<g style="mix-blend-mode:multiply" opacity="0.5">
<path d="M17.1541 13.8423C17.1541 13.8423 23.3541 14.9098 23.9331 15.4828L24.3492 14.9098C24.3492 14.9098 22.4434 13.975 17.1541 13.8423Z" fill="white"/>
</g>
<g style="mix-blend-mode:multiply" opacity="0.5">
<path d="M16.3278 3.08898C15.1578 3.08898 16.8525 5.10941 17.6788 6.99715C18.487 8.83664 22.3288 8.86077 22.3288 8.86077C22.3288 8.86077 20.6883 4.10221 19.6691 3.52925C18.6377 2.95629 16.3218 3.08898 16.3218 3.08898H16.3278Z" fill="#D0D0D0"/>
</g>
<g style="mix-blend-mode:multiply" opacity="0.5">
<path d="M21.8041 29.9581C21.5629 29.7771 22.3168 29.8977 22.6364 28.5649C22.9561 27.2079 25.8269 27.3586 26.1103 27.5094C26.3878 27.6602 25.9354 29.3429 25.4831 29.6384C25.0308 29.9339 21.8101 29.9581 21.8101 29.9581H21.8041Z" fill="#D0D0D0"/>
</g>
<g style="mix-blend-mode:soft-light">
<path d="M22.9081 27.4126C22.5885 27.3041 22.6186 24.192 22.6307 23.607C22.6428 23.0159 25.7609 23.2632 25.9177 23.607C26.0745 23.9508 26.2132 27.0387 26.0323 27.2437C25.8574 27.4488 23.1132 27.485 22.9081 27.4126Z" fill="white"/>
</g>
<g style="mix-blend-mode:soft-light" opacity="0.5">
<path d="M12.6368 29.5897C13.3485 29.463 14.8743 28.7755 14.9286 28.5704C14.9829 28.3594 13.2399 28.1784 12.8419 28.1362C12.4438 28.094 10.0796 29.4811 9.89866 29.5897C9.72376 29.6983 12.6308 29.5897 12.6308 29.5897H12.6368Z" fill="white"/>
</g>
<g style="mix-blend-mode:multiply" opacity="0.5">
<path d="M14.5186 26.9058C14.1869 27.0204 13.0048 27.7622 12.9625 27.9552C12.9263 28.1482 14.7779 28.3713 15.0192 28.4196C15.2604 28.4618 16.3219 27.9793 16.3219 27.9793C16.3219 27.9793 14.5789 26.8877 14.5125 26.9118L14.5186 26.9058Z" fill="#D0D0D0"/>
</g>
<g style="mix-blend-mode:multiply" opacity="0.5">
<path d="M27.8834 15.3139C27.6723 15.5491 26.5023 16.9604 26.5204 17.3163C26.5385 17.6721 29.8194 17.268 30.0245 16.9966C30.2295 16.7252 31.6951 14.741 31.3815 14.5178C31.0618 14.2947 28.5046 14.6264 27.8894 15.3079L27.8834 15.3139Z" fill="#D0D0D0"/>
</g>
<path d="M19.1504 11.4243C19.1504 11.4243 25.9415 12.0817 26.8582 13.4327C28.2454 15.4833 23.8366 19.5181 23.8366 19.5181C23.8366 19.5181 28.2333 15.6099 27.6242 13.686C26.9969 11.7078 19.1504 11.4243 19.1504 11.4243Z" fill="#EED6DD"/>
<path d="M26.9908 12.9556C26.4722 12.7144 27.2683 13.987 27.1476 14.9157C27.027 15.8325 27.6844 14.6504 27.6723 14.0231C27.6603 13.3899 26.9908 12.9556 26.9908 12.9556Z" fill="white"/>
<g style="mix-blend-mode:soft-light">
<path d="M15.2062 2.96235C13.8552 2.46176 14.6694 7.20826 16.0867 10.6219C17.4437 13.8908 18.8068 12.5941 19.0842 11.7437C19.3677 10.8872 16.3219 3.80067 15.2062 2.96235Z" fill="white"/>
</g>
<path d="M16.5994 6.02651C15.6224 5.90589 16.1833 8.87924 16.7924 9.92262C17.3895 10.9539 18.252 10.2724 18.2761 9.36776C18.3002 8.45103 16.9734 6.06873 16.5994 6.02651Z" fill="white"/>
<g style="mix-blend-mode:soft-light">
<path d="M15.031 2.49817C14.5907 2.63086 16.2674 2.94448 17.546 3.08922C18.8246 3.24 19.1382 3.25206 19.1322 2.92638C19.1201 2.59467 17.4012 1.77444 15.031 2.49817Z" fill="white"/>
</g>
<g style="mix-blend-mode:soft-light">
<path d="M21.7862 29.8488C21.6716 29.7342 25.043 29.294 25.3807 29.3543C25.7185 29.4146 24.9465 29.7765 24.9465 29.7765C24.9465 29.7765 22.7029 30.1444 21.7862 29.8428V29.8488Z" fill="white"/>
</g>
<g style="mix-blend-mode:soft-light" opacity="0.5">
<path d="M19.2711 21.4179C19.8139 23.5107 20.0973 25.6939 20.0491 26.9002C19.0359 26.4358 17.709 25.6578 16.545 24.8315L15.3147 23.957H14.4462L13.24 24.8315C12.094 25.6578 10.7793 26.4358 9.77808 26.9002C9.77205 26.7494 9.76602 26.5745 9.76602 26.3936L10.0615 26.1101C9.94695 26.092 9.85046 25.9472 9.79014 25.712C9.59715 25.0245 9.66952 23.5348 10.3028 22.0632C10.7913 20.9414 11.6055 19.8257 12.866 19.1079C16.4545 17.0694 20.3929 19.2889 20.3929 19.2889C20.224 19.4336 20.0491 19.5784 19.8742 19.7231L19.0178 20.4227L19.265 21.4118L19.2711 21.4179Z" fill="white"/>
</g>
<path d="M6.79854 28.6067C6.66586 27.7262 7.0036 27.1231 7.31722 27.1593C7.63084 27.1894 8.04699 29.1917 7.75146 29.427C7.46197 29.6622 6.8287 28.8419 6.79251 28.6067H6.79854Z" fill="white"/>
<g style="mix-blend-mode:multiply" opacity="0.8">
<path d="M16.2978 27.9914C15.0132 28.7453 13.3426 29.6138 12.1122 29.8068C12.1122 29.8068 12.1122 29.8068 12.0941 29.8068C11.9675 29.8249 11.8468 29.843 11.7322 29.843C11.7081 29.843 11.684 29.849 11.6599 29.849C10.719 29.9334 8.55987 30.0902 7.58283 29.8007C7.57077 29.8007 7.56473 29.8007 7.55267 29.7947C7.41999 29.7585 7.29936 29.7103 7.19684 29.6379C5.55637 28.504 6.96765 21.6346 7.03399 21.3149C6.99178 21.6225 6.21376 27.4788 6.90131 28.89C6.99781 29.083 7.16065 29.2398 7.3838 29.3605C7.73361 29.5655 8.22816 29.6861 8.77699 29.7465C9.50073 29.8309 10.327 29.8188 11.0749 29.7646C11.5694 29.7223 12.0338 29.6681 12.4077 29.6077C12.7515 29.5535 13.0229 29.4932 13.1857 29.4389C14.0723 29.1554 16.0204 28.1361 16.2918 27.9974L16.2978 27.9914Z" fill="white"/>
</g>
<g style="mix-blend-mode:multiply" opacity="0.8">
<path d="M18.8184 2.45591C18.8184 2.45591 18.728 2.44385 18.5591 2.41972C18.535 2.41972 18.5048 2.41972 18.4747 2.40766C17.7811 2.33529 16.1647 2.22673 14.7655 2.60066C14.5424 2.65494 14.3252 2.72731 14.1202 2.81175C14.0358 2.8419 13.9513 2.86603 13.8729 2.92031C10.5136 5.10961 9.74762 11.7981 9.74762 11.7981C9.74762 11.7981 3.6984 12.2143 2.17252 12.8174C4.45832 11.5629 9.40385 11.4121 9.40385 11.4121C9.40385 11.4121 11.7922 2.40163 14.1503 2.40163C14.1503 2.40163 16.804 1.84074 18.5289 2.40163C18.6194 2.40163 18.7159 2.41369 18.8124 2.44988L18.8184 2.45591Z" fill="white"/>
</g>
<path d="M25.8751 17.6361C25.8631 16.7857 23.8788 18.4563 23.7401 18.788C23.6014 19.1197 23.4928 19.56 23.5893 19.7047C23.6858 19.8495 25.6821 19.3971 25.8751 17.6361Z" fill="#BBBBBB"/>
<g style="mix-blend-mode:multiply" opacity="0.5">
<path d="M25.7002 17.4547C25.1514 17.4005 24.494 17.9734 24.4337 18.5705C24.3733 19.1616 24.9765 19.1555 25.4891 18.5705C26.0078 17.9795 25.8449 17.4668 25.6942 17.4547H25.7002Z" fill="white"/>
</g>
<path d="M23.7583 18.7397C23.7583 18.7397 23.7342 19.2283 23.9091 19.3489C24.1986 19.5479 24.8439 19.2946 24.8439 19.2946C24.8439 19.2946 24.1021 19.8133 23.5714 19.8555C23.0406 19.8977 23.7583 18.7397 23.7583 18.7397Z" fill="#A89AA6"/>
<path d="M23.4264 19.8015C23.2575 19.5844 24.2949 19.5724 24.3793 19.5482C24.4698 19.5241 23.6073 20.0126 23.4264 19.8015Z" fill="white"/>
<path d="M11.2499 28.7816C11.1172 28.7574 11.3886 28.1845 11.7082 28.0819C12.0279 27.9794 12.4742 27.9854 12.4561 28.2026C12.438 28.4137 11.8892 28.8901 11.2499 28.7816Z" fill="#BBBBBB"/>
<path d="M11.4908 28.2207C11.2435 28.7816 11.6235 28.7333 11.9974 28.6549C11.9974 28.6549 11.5813 28.8721 11.0143 28.8841C11.0143 28.8841 11.0747 28.5283 11.4908 28.2207Z" fill="#A89AA6"/>
<path d="M11.0688 28.8782C11.0326 28.836 11.2739 28.6792 11.4246 28.6792C11.5754 28.6792 11.7202 28.7395 11.7322 28.7636C11.7443 28.7878 11.3583 28.9265 11.0688 28.8782Z" fill="white"/>
<g style="mix-blend-mode:multiply" opacity="0.5">
<path d="M11.9251 28.0339C11.4246 28.2811 11.5753 28.6551 11.9734 28.6189C12.3714 28.5827 12.5041 28.1846 12.4137 28.1002C12.3232 28.0158 11.9251 28.0339 11.9251 28.0339Z" fill="white"/>
</g>
<g style="mix-blend-mode:soft-light">
<path d="M7.95671 18.1244C6.86507 17.5816 8.57791 19.4754 9.05437 19.8493C9.53083 20.2232 9.78414 20.4283 9.78414 20.4283H10.6767C10.6767 20.4283 8.37888 18.3114 7.95671 18.1244Z" fill="white"/>
</g>
<path d="M9.78412 20.429C9.56096 20.2541 9.39812 19.6751 9.65143 19.7052C9.90474 19.7354 10.6707 20.429 10.6707 20.429H9.77809H9.78412Z" fill="white"/>
<g style="mix-blend-mode:multiply" opacity="0.8">
<path d="M15.8272 27.666C15.8272 27.666 19.3011 29.2643 21.0622 29.6623C22.8112 30.0604 25.0548 29.8131 25.0548 29.8131C25.0548 29.8131 22.7871 30.2111 20.7787 29.8553C18.7643 29.4934 15.8272 27.666 15.8272 27.666Z" fill="white"/>
</g>
<path d="M1.22003 14.0958C1.407 15.0427 2.69766 13.7882 2.98715 13.2394C3.27062 12.6906 1.28034 12.7086 1.22003 14.0958Z" fill="white"/>
<path d="M19.0177 20.4288C19.0177 20.4288 23.3178 17.4796 24.3431 14.9043C24.3431 14.9043 22.2865 18.2576 19.0177 20.4288Z" fill="#EED6DD"/>
<g style="mix-blend-mode:multiply" opacity="0.5">
<path d="M10.9841 20.0127C10.574 20.055 8.60785 18.3964 8.30026 17.6123C7.9987 16.8343 10.6886 17.6304 14.838 17.4013C18.9874 17.1721 23.6495 15.2542 23.5711 15.5015C23.4927 15.7487 20.9415 18.6678 20.3022 18.8065C19.6629 18.9452 18.2878 17.9983 15.3687 18.0707C12.4497 18.1491 11.539 19.9524 10.9841 20.0127Z" fill="#D0D0D0"/>
</g>
</g>
<defs>
<linearGradient id="paint0_linear_192_4126" x1="18.9396" y1="32.0505" x2="8.84948" y2="4.33745" gradientUnits="userSpaceOnUse">
<stop stop-color="#728EE3"/>
<stop offset="0.3" stop-color="#E3E3E3"/>
<stop offset="0.57" stop-color="#E1D9E0"/>
<stop offset="0.85" stop-color="#937D9A"/>
<stop offset="1" stop-color="#6D636A"/>
</linearGradient>
<linearGradient id="paint1_linear_192_4126" x1="24.1261" y1="30.1628" x2="14.5366" y2="3.80677" gradientUnits="userSpaceOnUse">
<stop stop-color="#728EE3"/>
<stop offset="0.3" stop-color="#D6D6D6"/>
<stop offset="0.57" stop-color="#E1D9E0"/>
<stop offset="0.85" stop-color="white"/>
<stop offset="1" stop-color="white"/>
</linearGradient>
<linearGradient id="paint2_linear_192_4126" x1="20.1276" y1="30.3015" x2="10.4416" y2="3.6982" gradientUnits="userSpaceOnUse">
<stop stop-color="#DECDD1"/>
<stop offset="0.15" stop-color="#DBC9CD"/>
<stop offset="0.28" stop-color="white"/>
<stop offset="0.4" stop-color="#C5ACB4"/>
<stop offset="0.53" stop-color="white"/>
<stop offset="0.63" stop-color="white"/>
<stop offset="0.7" stop-color="white"/>
<stop offset="1" stop-color="#DDD4EA"/>
</linearGradient>
<linearGradient id="paint3_linear_192_4126" x1="18.9512" y1="27.6358" x2="11.6234" y2="7.50387" gradientUnits="userSpaceOnUse">
<stop stop-color="#FFF1DE"/>
<stop offset="0.21" stop-color="white"/>
<stop offset="1" stop-color="#D3CBD4"/>
</linearGradient>
<linearGradient id="paint4_linear_192_4126" x1="19.2591" y1="27.1896" x2="12.3836" y2="8.30613" gradientUnits="userSpaceOnUse">
<stop stop-color="#AD99A0"/>
<stop offset="0.99" stop-color="#A4A4A4"/>
</linearGradient>
<clipPath id="clip0_192_4126">
<rect width="30.5658" height="27.8397" fill="white" transform="translate(1.05713 2.16016)"/>
</clipPath>
</defs>
</svg>
