<svg width="40" height="31" viewBox="0 0 40 31" fill="none" xmlns="http://www.w3.org/2000/svg">
<g filter="url(#filter0_d_79_1100)">
<path d="M30.0572 1.49738L11.1726 1.6691L17.5764 13.8282L34.1646 14.504C34.1646 14.504 35.1783 8.49922 34.0445 5.43591C32.9108 2.37261 30.0524 1.49738 30.0524 1.49738H30.0572Z" fill="url(#paint0_radial_79_1100)"/>
<path d="M32.9829 13.2743L32.4977 13.3795C32.4977 13.3795 33.1846 10.6818 32.6658 6.91502C32.4064 5.02053 31.2534 2.88785 29.4327 2.11787C28.4094 1.68579 27.5399 1.55839 27.2277 1.52515L29.2838 1.50299C31.6185 2.2065 33.3624 4.83219 33.4681 8.51592C33.5786 12.46 32.9829 13.2743 32.9829 13.2743Z" fill="#8D001A"/>
<path d="M23.7015 14.083L23.346 14.4431C23.346 14.4431 23.3556 14.3101 23.3797 14.0664C23.4949 12.5043 23.8024 6.44414 21.7271 4.1065C20.5693 2.80473 19.5268 2.04029 18.7678 1.59714H19.229C20.257 2.06245 21.5829 2.83797 22.2315 3.91262C23.8504 6.61033 23.7015 14.083 23.7015 14.083Z" fill="#8D001A"/>
<path d="M26.8193 14.2104C26.7809 14.4652 26.7569 14.6037 26.7569 14.6037L26.4062 14.7643C26.4062 14.7643 26.4446 14.5538 26.5071 14.1938C26.8001 12.4433 27.5495 7.09775 26.3245 4.62163C25.6615 3.28662 23.5862 2.26737 22.2987 1.55832H22.8848C23.9561 2.40585 25.8585 3.45281 26.5743 4.42775C27.9531 6.32223 27.0739 12.5707 26.8193 14.2104Z" fill="#8D001A"/>
<path d="M30.1437 13.4848C30.1437 13.4848 31.1237 8.16696 30.0092 5.17566C28.8899 2.18991 25.3637 1.53625 25.3637 1.53625H26.1179C27.391 2.08466 29.6057 3.07622 30.1917 4.92085C31.2678 8.30545 30.1389 13.4848 30.1389 13.4848H30.1437Z" fill="#8D001A"/>
<g style="mix-blend-mode:soft-light">
<path d="M17.3458 1.66939C17.4179 2.01283 18.7582 6.12309 20.9104 6.20619C23.0626 6.28928 32.7187 6.20618 31.5321 4.74931C30.3455 3.29244 28.1164 1.32594 24.7007 1.83557C21.2851 2.35074 17.3458 1.66385 17.3458 1.66385V1.66939Z" fill="#FF9CA1"/>
</g>
<path style="mix-blend-mode:multiply" opacity="0.5" d="M19.7622 5.90682C19.7622 5.90682 32.5745 4.32254 33.1318 5.04821C33.689 5.77387 33.2423 13.6122 33.0597 13.5679C32.8772 13.5235 19.4307 13.9556 19.4307 13.9556L19.767 5.90682H19.7622Z" fill="url(#paint1_linear_79_1100)"/>
<g style="mix-blend-mode:multiply" opacity="0.5">
<path d="M27.3381 1.51419C27.3381 1.51419 30.5616 2.43374 31.532 4.42794C32.978 7.40261 32.7042 12.2219 32.3391 12.5543C31.9788 12.8867 22.2026 12.7814 22.1162 12.7482C22.0297 12.7149 19.498 12.654 19.498 12.654L19.1377 13.712L34.0686 13.8062L34.5442 8.21691C34.5442 8.21691 33.1798 3.20926 31.8443 2.2454C30.5088 1.28154 27.3429 1.51419 27.3429 1.51419H27.3381Z" fill="#BE2F55"/>
</g>
<path d="M32.6226 13.3632C32.6226 13.3632 34.0782 7.34184 31.5945 3.78552C30.0284 1.54205 27.343 1.51435 27.343 1.51435L25.3685 1.53651L23.9609 1.55867C23.9609 1.55867 24.6671 0.605887 25.9018 0.356613C26.5215 0.229206 27.8282 0.19043 28.6208 0.19043C29.6537 0.19043 30.7971 0.256903 31.4888 0.511717C37.3641 2.6721 35.3801 13.3134 35.3801 13.3134L32.6274 13.3632H32.6226Z" fill="url(#paint2_linear_79_1100)"/>
<g style="mix-blend-mode:multiply" opacity="0.2">
<path d="M33.8716 13.1027C33.8716 13.1027 33.9629 8.75423 34.7267 8.8207C35.4858 8.88717 35.3945 13.0805 35.3945 13.0805L33.8716 13.1027Z" fill="#FF3355"/>
</g>
<path style="mix-blend-mode:multiply" opacity="0.5" d="M32.6226 13.3631C32.6226 13.3631 34.0782 7.34168 31.5945 3.78537C30.0284 1.5419 27.343 1.5142 27.343 1.5142L25.3685 1.53636L23.9609 1.55851C23.9609 1.55851 24.8064 0.533719 25.9882 0.3343C27.3237 0.112722 30.8883 0.572495 32.5457 3.37545C34.7556 7.12011 33.3768 13.352 33.3768 13.352H32.6226V13.3631Z" fill="url(#paint3_linear_79_1100)"/>
<path d="M5.20602 13.4017C5.20602 13.4017 4.72562 9.46869 4.72562 8.00628C4.72562 4.58291 6.33977 1.62485 10.9084 1.62485C15.477 1.62485 16.7597 3.63566 17.5764 6.80422C18.0327 8.5713 17.5571 13.2577 17.5571 13.2577L5.21082 13.3961L5.20602 13.4017Z" fill="url(#paint4_radial_79_1100)"/>
<path d="M14.0598 3.72449L14.8525 14.2605H15.0879L14.3192 3.94052L14.0598 3.72449Z" fill="#8D001A"/>
<path d="M17.2065 6.59952C16.6492 4.95985 13.5939 0.821891 10.4472 1.41461C7.3006 2.00733 6.06597 5.39193 5.85459 6.92635C5.64321 8.46077 6.39264 13.5404 6.39264 13.5404L7.32462 13.0308C7.32462 13.0308 5.23007 6.67707 8.05963 3.68578L9.77467 15.8947L10.0917 15.867C9.35672 11.8786 8.58808 6.80448 8.41994 3.34787C8.68416 3.1263 8.9772 2.92688 9.31348 2.76069C9.97644 2.43387 10.5962 2.28984 11.1774 2.2843L12.292 15.9224L12.7099 15.6066C11.9317 11.8841 11.5474 6.41118 11.4849 2.30092C13.9494 2.50034 15.5779 5.25344 16.14 7.21994C16.851 9.71269 16.2793 13.3466 16.2793 13.3466L16.9999 13.5349C16.9999 13.5349 17.7686 8.23919 17.2113 6.59952H17.2065Z" fill="#8D001A"/>
<g style="mix-blend-mode:multiply" opacity="0.5">
<path d="M6.87303 12.9697C6.87303 12.9697 5.60957 2.82141 10.9564 3.03745C16.3033 3.25349 16.6732 9.33025 16.6732 9.33025C16.6732 9.33025 16.5868 1.61935 10.6922 1.49195C4.7977 1.37008 6.20047 13.3962 6.20047 13.3962L6.86823 12.9697H6.87303Z" fill="#BE2F55"/>
</g>
<path d="M17.6436 13.1416L17.3458 22.8633H7.31979L5.20602 13.402L17.6436 13.1416Z" fill="url(#paint5_radial_79_1100)"/>
<path d="M17.6484 13.1469L17.3506 22.8631H7.3198L5.20123 13.4017L17.6484 13.1469Z" fill="url(#paint6_radial_79_1100)"/>
<path d="M9.77466 15.8891L10.6922 22.8134L10.918 22.7857L10.0869 15.8614L9.77466 15.8891Z" fill="#8D001A"/>
<path d="M13.4209 22.8631H13.0462L12.3304 16.2989L12.2872 15.9222L12.4457 15.8391L12.5082 16.2989L13.4209 22.8631Z" fill="#8D001A"/>
<path d="M9.19817 21.9325C9.19817 21.9325 8.53041 16.31 8.69855 16.2823C8.86669 16.249 14.2712 16.2823 14.2712 16.4097C14.2712 16.5371 15.0495 22.2205 15.0495 22.2205L15.6067 22.1541L14.9101 15.6009L7.97314 15.7616L9.19817 21.9269V21.9325Z" fill="#8D001A"/>
<g style="mix-blend-mode:multiply" opacity="0.5">
<path d="M9.25099 22.8631C9.25099 22.8631 8.55921 16.886 9.25099 16.7808C9.94277 16.6755 14.0262 16.4207 14.0934 16.8195C14.1559 17.2184 15.2128 22.8686 15.2128 22.8686L16.2937 22.2537C16.2937 22.2537 15.7893 15.551 15.6644 15.5122C15.5395 15.4735 7.08438 14.9694 7.08438 14.9694L9.25099 22.8686V22.8631Z" fill="#BE2F55"/>
</g>
<path d="M8.32384 15.7561L9.25101 22.8632H6.76253L5.38858 15.8835L8.32384 15.7561Z" fill="url(#paint7_linear_79_1100)"/>
<path style="mix-blend-mode:multiply" opacity="0.5" d="M8.32384 15.7561L9.25101 22.8632H6.76253L5.38858 15.8835L8.32384 15.7561Z" fill="url(#paint8_linear_79_1100)"/>
<path style="mix-blend-mode:multiply" opacity="0.5" d="M8.32385 15.7561L9.25102 22.8632H8.58807L7.72815 15.7838L8.32385 15.7561Z" fill="url(#paint9_linear_79_1100)"/>
<path d="M17.6436 13.1416L34.9525 13.3133L32.4977 22.8633H17.3458L17.6436 13.1416Z" fill="url(#paint10_radial_79_1100)"/>
<path d="M23.37 15.7337C23.37 15.7337 23.3412 16.0107 23.298 16.4262C23.2163 17.2239 23.0722 18.5589 22.9233 19.5283C22.7743 20.5198 22.4044 22.0044 22.1882 22.8685H22.1066L23.077 16.4206L23.1683 15.8058L23.3604 15.7393L23.37 15.7337Z" fill="#8D001A"/>
<path d="M27.0787 15.4789C27.0787 15.4789 27.0067 15.8389 26.9106 16.3818C26.7472 17.3014 26.5022 18.7471 26.3821 19.9381C26.2909 20.8466 26.1275 21.96 25.9786 22.8629H25.8681L26.5551 16.3818L26.6319 15.6617L27.0787 15.4733V15.4789Z" fill="#8D001A"/>
<path d="M29.8602 15.7948L29.7978 16.3709L29.0195 22.8631H28.7649C29.106 20.6197 29.572 17.6284 29.7738 16.3709C29.8266 16.0663 29.8554 15.8613 29.865 15.7948H29.8602Z" fill="#8D001A"/>
<path d="M20.5885 18.9135C20.6461 18.8193 21.0352 16.5039 21.3667 16.4429C21.703 16.3764 23.8744 16.4429 23.8744 16.4429C23.8744 16.4429 31.1141 16.249 31.1717 16.4762C31.2294 16.7033 30.7538 22.1264 30.7538 22.1264C30.7538 22.1264 31.7866 21.4173 31.7866 21.2899C31.7866 21.1625 32.4015 15.1855 32.4015 15.1855L20.257 15.3794L20.5933 18.9135H20.5885Z" fill="#8D001A"/>
<g style="mix-blend-mode:multiply" opacity="0.5">
<path d="M19.6902 22.1762C19.6902 22.1762 21.1362 17.2461 21.3571 16.9581C21.5781 16.67 22.9281 16.9968 22.9281 16.9968C22.9281 16.9968 25.4742 20.4756 26.0411 20.4756C26.6079 20.4756 29.7161 16.7088 29.7161 16.7088C29.7161 16.7088 30.9123 16.3487 30.9748 16.6368C31.0372 16.9248 30.7202 22.8686 30.7202 22.8686L31.95 15.8779L20.1946 15.7339L19.6902 22.1873V22.1762Z" fill="#BE2F55"/>
</g>
<path d="M31.6473 15.7561L30.7154 22.8632H33.2038L34.5778 15.8835L31.6473 15.7561Z" fill="url(#paint11_linear_79_1100)"/>
<path style="mix-blend-mode:multiply" opacity="0.5" d="M31.6473 15.7561L30.7154 22.8632H31.3783L32.243 15.7838L31.6473 15.7561Z" fill="url(#paint12_linear_79_1100)"/>
<path d="M17.7493 22.8632L17.6436 13.147L21.2706 13.0805L20.2426 22.8632H17.7493Z" fill="url(#paint13_linear_79_1100)"/>
<g style="mix-blend-mode:multiply" opacity="0.2">
<path d="M17.8838 15.9887C17.8838 15.9887 17.7733 19.8442 18.1913 19.8442C18.6092 19.8442 20.1705 19.5894 20.1705 19.5894C20.1705 19.5894 21.0881 15.7339 20.7566 15.7672C20.4251 15.8004 17.8886 15.9943 17.8886 15.9943L17.8838 15.9887Z" fill="#FF3355"/>
</g>
<path d="M14.1703 13.2134C14.1703 13.2134 15.1552 22.8631 15.208 22.8631H17.7445L17.6437 13.1469L14.1703 13.2134Z" fill="url(#paint14_linear_79_1100)"/>
<path style="mix-blend-mode:multiply" opacity="0.5" d="M14.1703 13.2134C14.1703 13.2134 15.1552 22.8631 15.208 22.8631H17.7445L17.6437 13.1469L14.1703 13.2134Z" fill="url(#paint15_linear_79_1100)"/>
<path style="mix-blend-mode:multiply" opacity="0.5" d="M14.4586 15.9886C14.4586 15.9886 15.4049 19.6501 16.4618 19.2956C17.5187 18.9411 17.807 16.0938 17.807 16.0938L14.4586 15.9886Z" fill="url(#paint16_linear_79_1100)"/>
<path d="M17.5812 13.407C17.5812 13.407 18.6765 7.18626 16.3658 3.78505C14.8237 1.51942 11.1198 0.129022 11.1198 0.129022C11.1198 0.129022 14.6123 0.0625492 15.8325 0.511243C21.7078 2.67162 20.0601 13.3129 20.0601 13.3129L17.5764 13.4015L17.5812 13.407Z" fill="url(#paint17_linear_79_1100)"/>
<g style="mix-blend-mode:multiply" opacity="0.2">
<path d="M17.9607 13.1027C17.9607 13.1027 18.3114 8.6047 19.1137 8.67117C19.9111 8.73764 20.0216 13.1027 20.0216 13.1027H17.9607Z" fill="#FF3355"/>
</g>
<path style="mix-blend-mode:screen" d="M13.344 0.760681C13.344 0.760681 16.9374 1.5362 17.7253 6.36659C18.5131 11.197 17.8982 13.0582 17.8982 13.0582C18.2778 7.91209 16.7693 3.81291 13.344 0.760681Z" fill="url(#paint18_radial_79_1100)"/>
<path d="M17.8983 13.053L16.5675 13.0973C16.5675 13.0973 16.7261 10.9369 16.5051 8.52172C16.337 6.68262 14.7084 1.7913 11.2543 1.91871C8.57846 2.01842 7.34863 4.21203 6.91147 5.38639C5.69605 8.62696 7.31981 13.1804 7.31981 13.1804L5.16761 13.3078C5.16761 13.3078 3.6063 7.91238 4.86976 4.65519C5.85939 2.10151 7.24775 0.467375 11.1198 0.11839C12.2151 0.0186803 14.6507 1.12103 16.2217 3.3645C18.3739 6.44443 17.9703 12.5046 17.8983 13.0419V13.053Z" fill="url(#paint19_linear_79_1100)"/>
<g style="mix-blend-mode:multiply" opacity="0.2">
<path d="M6.88265 3.04848C6.49352 4.30039 5.66243 6.26135 5.82576 8.34972C5.9939 10.4381 6.10439 11.9116 6.10439 11.9116C5.96988 12.82 5.66723 12.9918 5.07633 11.8839C4.71123 10.0503 4.17318 7.03687 5.01869 4.84879C5.37418 3.92925 5.76811 3.19804 6.32538 2.53885C6.85382 2.57762 7.04598 2.53885 6.88265 3.05402V3.04848Z" fill="#FF3355"/>
</g>
<path style="mix-blend-mode:multiply" opacity="0.5" d="M11.2591 1.9241C8.58325 2.02381 7.35342 4.21742 6.91625 5.39179C5.70083 8.63235 7.32459 13.1858 7.32459 13.1858L6.35899 13.2412C6.35899 13.2412 5.01386 7.89007 6.45507 4.73813C7.75696 1.89086 11.2639 1.91856 11.2639 1.91856L11.2591 1.9241Z" fill="url(#paint20_linear_79_1100)"/>
<path d="M35.9517 13.0585C35.9517 13.0585 35.4521 14.9474 35.4185 14.9862C35.3849 15.0194 35.1303 15.0748 35.1062 15.0914C35.0822 15.1081 34.8612 16.011 34.8276 16.0553C34.7892 16.0941 17.4995 16.0996 17.4995 16.0996L5.1772 15.9279L4.97543 15.0527L4.5863 14.8865L4.32208 13.0585H35.9517Z" fill="url(#paint21_linear_79_1100)"/>
<path style="mix-blend-mode:multiply" opacity="0.5" d="M4.31247 13.0585L4.57669 14.8865L4.96582 15.0527L5.17239 15.9279L17.4947 16.0996H17.8118L17.7781 15.1081L17.6148 14.953L17.5764 13.0585H4.31247Z" fill="url(#paint22_linear_79_1100)"/>
<path style="mix-blend-mode:multiply" opacity="0.9" d="M4.57669 14.8865L35.4185 14.9806L35.1062 15.0914L17.7781 15.108L4.96582 15.0526L4.57669 14.8865Z" fill="url(#paint23_linear_79_1100)"/>
<path style="mix-blend-mode:multiply" opacity="0.5" d="M4.57669 14.8865C4.7112 14.9031 35.2936 14.964 35.2936 14.964C35.2936 14.964 28.1932 15.8946 23.4853 15.8614C18.7774 15.8282 4.97062 15.0526 4.97062 15.0526L4.58149 14.8865H4.57669Z" fill="url(#paint24_linear_79_1100)"/>
<path d="M17.5764 13.0585C17.7541 13.1416 26.411 13.3576 28.1548 13.4019C29.8987 13.4462 35.9518 13.0585 35.9518 13.0585H17.5764Z" fill="#FFE016"/>
<path style="mix-blend-mode:screen" d="M4.31247 13.0585L17.61 13.5737L35.9517 13.0585H4.31247Z" fill="url(#paint25_radial_79_1100)"/>
<g style="mix-blend-mode:multiply" opacity="0.5">
<path d="M25.8153 10.7428L25.6711 10.1777L24.3308 10.1002C24.3308 10.1002 23.9369 11.3576 23.3268 11.7676C22.7167 12.1775 21.8039 12.3215 21.8039 12.3215L22.2507 16.0883L25.8489 19.4064L25.8201 10.7317L25.8153 10.7428Z" fill="#D42F55"/>
</g>
<path d="M26.901 10.2222C26.8049 10.1058 25.9162 10.1058 25.8345 10.2443C25.6519 10.6376 24.2636 12.6817 22.611 12.87L22.832 15.8225C22.832 15.8225 25.6423 19.329 25.8441 19.4176C26.0459 19.5063 26.7809 19.5561 26.7809 19.5561L28.9763 15.9555L29.2934 13.014C27.8426 12.6429 26.8962 10.2222 26.8962 10.2222H26.901Z" fill="url(#paint26_linear_79_1100)"/>
<path d="M26.9106 10.2279C26.9106 10.2279 26.9058 10.2168 26.901 10.2168L26.8914 10.2279C26.0074 11.3081 24.9746 12.6597 23.5093 12.9699L23.7303 15.9224C23.7303 15.9224 26.2284 19.4732 26.7424 19.5175C27.2565 19.5619 29.8747 16.0554 29.8747 16.0554L30.1917 13.114C28.7409 12.7428 27.7465 11.3469 26.901 10.2279H26.9106Z" fill="url(#paint27_linear_79_1100)"/>
<path style="mix-blend-mode:multiply" opacity="0.5" d="M23.9993 15.5235C24.0233 15.6343 26.3245 19.2627 26.925 19.1851C27.5255 19.1076 29.8602 15.795 29.8602 15.795C29.8602 15.795 27.439 17.1466 26.7857 16.4431C26.1323 15.734 26.3533 13.6014 25.4501 13.6789C24.547 13.7565 23.6102 13.8396 24.0041 15.5235H23.9993Z" fill="url(#paint28_linear_79_1100)"/>
<path d="M25.9065 18.7363C26.286 19.1795 26.5935 19.5118 26.7472 19.5229C26.8865 19.534 27.1748 19.2902 27.5255 18.9302C27.0259 19.473 26.4878 19.3678 25.9065 18.6809C25.9017 18.7031 25.8969 18.7252 25.9065 18.7418V18.7363Z" fill="white"/>
<g style="mix-blend-mode:soft-light">
<path d="M26.9106 10.2279C26.9106 10.2279 26.9058 10.2168 26.901 10.2168L26.8914 10.2279C26.0699 11.2361 25.1811 12.5822 23.8696 12.9921C24.6767 14.4157 26.5743 14.9586 26.8529 17.5898C27.1316 20.221 29.2549 14.4711 30.1533 13.5128L30.1965 13.114C28.7457 12.7428 27.7513 11.3469 26.9058 10.2279H26.9106Z" fill="white"/>
</g>
<path style="mix-blend-mode:screen" d="M26.9778 10.6598C26.0939 11.74 26.5887 18.5978 27.1027 18.6421C27.6168 18.6865 29.7065 15.8946 29.7065 15.8946L29.8314 13.3575C28.3806 12.9864 26.9778 10.6598 26.9778 10.6598Z" fill="url(#paint29_linear_79_1100)"/>
<path d="M26.9923 12.7372C26.411 12.7594 26.1708 13.5127 26.2524 13.8673C26.3341 14.2218 26.7521 14.604 26.7521 14.604C26.7521 14.604 26.387 16.2991 26.4014 16.3822C26.4158 16.4653 27.6984 16.6259 27.6984 16.6259L27.2229 14.604C27.2229 14.604 27.6984 14.0279 27.6984 13.6069C27.6984 13.1859 27.4582 12.7151 26.9875 12.7317L26.9923 12.7372Z" fill="url(#paint30_linear_79_1100)"/>
<g style="mix-blend-mode:multiply" opacity="0.5">
<path d="M23.5141 12.9699L22.611 12.8646L22.832 15.8172L23.7351 15.9224L23.5141 12.9699Z" fill="#BE2F55"/>
</g>
<path style="mix-blend-mode:screen" d="M26.901 10.2223C26.901 10.2223 26.3869 11.8786 25.5751 12.5212C24.7536 13.1638 23.5093 12.9699 23.5093 12.9699C24.9698 12.6597 26.0074 11.3136 26.8914 10.2334L26.901 10.2223Z" fill="url(#paint31_radial_79_1100)"/>
<path style="mix-blend-mode:screen" d="M29.8795 16.0608H29.8747C29.7306 16.2603 27.5063 19.2294 26.8434 19.5008L26.7569 19.523H26.7473C26.7473 19.523 27.3238 17.0635 28.2317 16.3987C29.1397 15.734 29.8843 16.0608 29.8843 16.0608H29.8795Z" fill="url(#paint32_radial_79_1100)"/>
<path style="mix-blend-mode:multiply" opacity="0.5" d="M5.38379 15.9277C5.38379 15.9277 5.82095 16.4539 6.68087 16.4041C7.54079 16.3598 7.77619 15.9498 7.77619 15.9498L5.38379 15.9277Z" fill="url(#paint33_linear_79_1100)"/>
<path style="mix-blend-mode:screen" d="M27.857 0.406525C27.9146 0.406525 32.219 0.600405 33.4104 4.02378C34.6018 7.44715 33.5978 12.1612 33.5978 12.1612C33.5978 12.1612 34.2127 6.04013 32.6322 3.50861C30.8835 0.705654 27.8618 0.406525 27.8618 0.406525H27.857Z" fill="url(#paint34_radial_79_1100)"/>
<path d="M17.7734 16.3768L17.7445 22.8635C17.7445 22.8635 17.8839 21.5119 18.1048 19.6507C18.3258 17.7894 17.7686 16.3768 17.7686 16.3768H17.7734Z" fill="#FFE016"/>
<g style="mix-blend-mode:multiply" opacity="0.5">
<path d="M9.68818 2.25107C9.53446 2.27323 7.27176 3.26478 6.66165 4.70504C6.05154 6.14529 5.71526 9.63514 5.98429 9.82902C6.25331 10.0229 6.56077 10.394 6.49351 9.98412C6.42626 9.5742 6.33978 7.41382 7.27176 5.15373C8.19894 2.89364 9.68818 2.25107 9.68818 2.25107Z" fill="#D42F55"/>
</g>
<g style="mix-blend-mode:multiply" opacity="0.5">
<path d="M24.9794 1.59169C24.9794 1.59169 28.789 -1.20019 31.8683 3.18705C34.9477 7.57428 32.7427 12.8644 32.7427 12.8644C32.7427 12.8644 33.5786 6.27251 31.4984 3.87393C29.4183 1.47536 24.9794 1.59169 24.9794 1.59169Z" fill="#D42F55"/>
</g>
<g style="mix-blend-mode:multiply" opacity="0.5">
<path d="M30.5857 22.7526C30.5857 22.7526 31.1141 22.8135 31.2198 22.5532C31.3255 22.2928 32.2767 16.1718 32.0845 16.1607C31.8876 16.1496 31.0372 16.1607 31.0276 16.2272C31.018 16.2936 30.4223 22.7028 30.5905 22.7526H30.5857Z" fill="#D42F55"/>
</g>
<g style="mix-blend-mode:multiply" opacity="0.2">
<path d="M32.2863 16.0883C32.2863 16.0883 32.5361 18.1435 33.2904 18.077C34.0446 18.0105 34.573 16.0219 34.4866 16.0219C34.4001 16.0219 32.2863 16.0883 32.2863 16.0883Z" fill="#FF3355"/>
</g>
<path d="M23.6054 12.9365C23.6054 12.9365 24.6383 12.5432 25.0563 12.1942C25.4742 11.8452 26.4638 10.7484 26.4494 10.7761C26.4302 10.8038 25.7336 11.9671 25.1043 12.3382C24.475 12.7094 23.6054 12.9365 23.6054 12.9365Z" fill="white"/>
<g style="mix-blend-mode:multiply" opacity="0.5">
<path d="M25.897 10.2444C25.945 10.3441 24.7104 11.8841 24.5134 12.0558C24.3164 12.2275 24.8833 12.1555 25.1331 11.9838C25.3829 11.8065 26.7569 10.2942 26.6848 10.2887C26.6128 10.2832 25.897 10.2499 25.897 10.2499V10.2444Z" fill="#BE2F55"/>
</g>
<path style="mix-blend-mode:multiply" d="M23.6391 16.6314C23.6823 16.6812 25.7816 19.3956 25.9498 19.4122C26.1179 19.4288 26.5359 19.5562 26.4494 19.462C26.3677 19.3679 24.0666 16.5261 23.9417 16.5261C23.8168 16.5261 23.6342 16.6369 23.6342 16.6369L23.6391 16.6314Z" fill="url(#paint35_linear_79_1100)"/>
<path style="mix-blend-mode:screen" d="M14.2376 1.35919C14.0551 1.56969 13.8773 1.82451 13.7092 2.1181C13.6179 2.27874 13.5602 2.46154 13.517 2.65542C13.1039 2.34521 12.6379 2.1181 12.1335 2.00731C12.3352 1.42567 12.5274 0.882803 12.6859 0.478424C13.1759 0.677844 13.7092 0.976974 14.2376 1.36473V1.35919Z" fill="url(#paint36_radial_79_1100)"/>
<path style="mix-blend-mode:screen" d="M16.9903 4.84322C16.6396 5.26422 16.2409 5.76277 15.9142 6.17269C15.7653 5.76277 15.5779 5.34177 15.3617 4.93186C15.6163 4.33914 15.9094 3.68548 16.1112 3.22571C16.1496 3.27002 16.188 3.32542 16.2216 3.37527C16.5291 3.81289 16.7789 4.3059 16.9903 4.84322Z" fill="url(#paint37_radial_79_1100)"/>
<path style="mix-blend-mode:screen" d="M19.4884 4.63289C19.0512 4.47778 18.6428 4.34484 18.3306 4.2839C17.1824 4.05125 17.0575 4.84893 17.0575 4.84893L16.1736 3.14278C16.1736 3.14278 17.3506 2.48359 18.3498 2.41711C18.8398 3.07631 19.2097 3.82413 19.4884 4.63289Z" fill="url(#paint38_radial_79_1100)"/>
<path style="mix-blend-mode:screen" d="M16.9711 1.0932C16.5579 1.05997 16.0679 1.02119 15.5923 1.01011C14.4009 0.987953 14.2232 1.26492 14.2376 1.35356C14.2376 1.35356 12.8252 0.500482 12.758 0.467246C12.6955 0.42847 12.758 0.467246 13.7188 0.284444C13.8677 0.256747 14.055 0.240129 14.2664 0.223511H14.2712C14.8957 0.278905 15.4674 0.373076 15.8373 0.506022C16.2505 0.661126 16.63 0.855007 16.9711 1.08766V1.0932Z" fill="url(#paint39_radial_79_1100)"/>
<path d="M15.7508 2.19547C15.5683 2.21762 17.12 5.31971 17.4226 5.26431C17.7205 5.20892 16.4618 2.10684 15.7508 2.19547Z" fill="white"/>
<g style="mix-blend-mode:multiply" opacity="0.5">
<path d="M7.77138 15.95C7.77138 15.95 8.28541 20.2541 8.54482 20.3372C8.80424 20.4203 8.91473 20.2929 8.91473 20.2929L8.31903 16.0552L7.76657 15.95H7.77138Z" fill="#D42F55"/>
</g>
<g style="mix-blend-mode:soft-light">
<path d="M20.2426 22.8633C20.2426 22.8633 24.4749 20.4204 26.1852 20.6808C27.8954 20.9356 30.7153 22.8633 30.7153 22.8633H20.2426Z" fill="#FF9CA1"/>
</g>
<path style="mix-blend-mode:screen" d="M5.38377 15.9277C5.37897 15.9775 6.51752 19.3455 6.64723 20.6362C6.78174 21.9269 6.76252 22.8686 6.76252 22.8686L5.37897 15.9332L5.38377 15.9277Z" fill="url(#paint40_radial_79_1100)"/>
<path style="mix-blend-mode:multiply" opacity="0.5" d="M22.611 12.8646C22.611 12.8646 22.856 14.6594 23.149 14.5431C23.4421 14.4323 23.5622 12.9477 23.5093 12.9699C23.4565 12.9865 22.611 12.8646 22.611 12.8646Z" fill="url(#paint41_linear_79_1100)"/>
<path d="M30.2014 13.1193L29.8795 16.0608L29.9612 13.2744L30.2014 13.1193Z" fill="white"/>
<path d="M33.2615 13.1361C34.6115 13.0973 35.9566 13.0586 35.9566 13.0586L31.2198 13.0364C31.2198 13.0364 31.95 13.1749 33.2615 13.1361Z" fill="white"/>
<path d="M30.6145 1.1541C30.725 1.18734 32.4544 2.47248 32.8435 3.49728C33.2327 4.52762 33.3432 5.03724 33.3432 5.03724L32.4496 3.27016L30.6097 1.14856L30.6145 1.1541Z" fill="white"/>
</g>
<defs>
<filter id="filter0_d_79_1100" x="0.312469" y="0.112183" width="39.6441" height="30.7565" filterUnits="userSpaceOnUse" color-interpolation-filters="sRGB">
<feFlood flood-opacity="0" result="BackgroundImageFix"/>
<feColorMatrix in="SourceAlpha" type="matrix" values="0 0 0 0 0 0 0 0 0 0 0 0 0 0 0 0 0 0 127 0" result="hardAlpha"/>
<feOffset dy="4"/>
<feGaussianBlur stdDeviation="2"/>
<feComposite in2="hardAlpha" operator="out"/>
<feColorMatrix type="matrix" values="0 0 0 0 0 0 0 0 0 0 0 0 0 0 0 0 0 0 0.25 0"/>
<feBlend mode="normal" in2="BackgroundImageFix" result="effect1_dropShadow_79_1100"/>
<feBlend mode="normal" in="SourceGraphic" in2="effect1_dropShadow_79_1100" result="shape"/>
</filter>
<radialGradient id="paint0_radial_79_1100" cx="0" cy="0" r="1" gradientUnits="userSpaceOnUse" gradientTransform="translate(23.0962 1.99039) scale(9.22372 10.6357)">
<stop stop-color="#CE5411"/>
<stop offset="1" stop-color="#B42B00"/>
</radialGradient>
<linearGradient id="paint1_linear_79_1100" x1="26.2909" y1="4.01233" x2="26.4761" y2="11.6556" gradientUnits="userSpaceOnUse">
<stop offset="0.01" stop-color="white"/>
<stop offset="1" stop-color="#DE376D"/>
</linearGradient>
<linearGradient id="paint2_linear_79_1100" x1="36.1391" y1="1.60299" x2="26.8501" y2="7.86658" gradientUnits="userSpaceOnUse">
<stop stop-color="#FCF800"/>
<stop offset="0.53" stop-color="#FC9700"/>
<stop offset="0.71" stop-color="#FE8500"/>
<stop offset="0.93" stop-color="#FC9300"/>
<stop offset="1" stop-color="#FC9700"/>
</linearGradient>
<linearGradient id="paint3_linear_79_1100" x1="29.8891" y1="6.29473" x2="23.2574" y2="10.978" gradientUnits="userSpaceOnUse">
<stop stop-color="#DE376D"/>
<stop offset="0.99" stop-color="white"/>
</linearGradient>
<radialGradient id="paint4_radial_79_1100" cx="0" cy="0" r="1" gradientUnits="userSpaceOnUse" gradientTransform="translate(10.5049 19.8219) scale(13.4032 15.455)">
<stop stop-color="#CE5411"/>
<stop offset="1" stop-color="#B42B00"/>
</radialGradient>
<radialGradient id="paint5_radial_79_1100" cx="0" cy="0" r="1" gradientUnits="userSpaceOnUse" gradientTransform="translate(11.4224 18.0052) scale(5.31324 6.12662)">
<stop stop-color="#CE5411"/>
<stop offset="1" stop-color="#B42B00"/>
</radialGradient>
<radialGradient id="paint6_radial_79_1100" cx="0" cy="0" r="1" gradientUnits="userSpaceOnUse" gradientTransform="translate(13.2047 23.4115) scale(5.71198 6.58639)">
<stop stop-color="#CE5411"/>
<stop offset="1" stop-color="#B42B00"/>
</radialGradient>
<linearGradient id="paint7_linear_79_1100" x1="4.71121" y1="27.9983" x2="10.1256" y2="14.5425" gradientUnits="userSpaceOnUse">
<stop stop-color="#FCF800"/>
<stop offset="0.53" stop-color="#FC9700"/>
<stop offset="0.71" stop-color="#FE8500"/>
<stop offset="0.93" stop-color="#FC9300"/>
<stop offset="1" stop-color="#FC9700"/>
</linearGradient>
<linearGradient id="paint8_linear_79_1100" x1="-3.45081" y1="25.0679" x2="11.4493" y2="19.1425" gradientUnits="userSpaceOnUse">
<stop stop-color="#DE376D"/>
<stop offset="0.99" stop-color="white"/>
</linearGradient>
<linearGradient id="paint9_linear_79_1100" x1="5.00427" y1="19.4011" x2="-0.343169" y2="19.4969" gradientUnits="userSpaceOnUse">
<stop stop-color="#DE376D"/>
<stop offset="0.99" stop-color="white"/>
</linearGradient>
<radialGradient id="paint10_radial_79_1100" cx="0" cy="0" r="1" gradientUnits="userSpaceOnUse" gradientTransform="translate(25.4358 25.0182) scale(6.04826 6.97415)">
<stop stop-color="#CE5411"/>
<stop offset="1" stop-color="#B42B00"/>
</radialGradient>
<linearGradient id="paint11_linear_79_1100" x1="35.2552" y1="27.9983" x2="29.8465" y2="14.5416" gradientUnits="userSpaceOnUse">
<stop stop-color="#FCF800"/>
<stop offset="0.53" stop-color="#FC9700"/>
<stop offset="0.71" stop-color="#FE8500"/>
<stop offset="0.93" stop-color="#FC9300"/>
<stop offset="1" stop-color="#FC9700"/>
</linearGradient>
<linearGradient id="paint12_linear_79_1100" x1="30.994" y1="19.3125" x2="32.4736" y2="19.3083" gradientUnits="userSpaceOnUse">
<stop stop-color="#DE376D"/>
<stop offset="0.99" stop-color="white"/>
</linearGradient>
<linearGradient id="paint13_linear_79_1100" x1="22.856" y1="21.2456" x2="14.0703" y2="14.7792" gradientUnits="userSpaceOnUse">
<stop stop-color="#FCF800"/>
<stop offset="0.53" stop-color="#FC9700"/>
<stop offset="0.71" stop-color="#FE8500"/>
<stop offset="1" stop-color="#FC9700"/>
</linearGradient>
<linearGradient id="paint14_linear_79_1100" x1="11.0189" y1="17.9828" x2="16.5484" y2="17.9995" gradientUnits="userSpaceOnUse">
<stop stop-color="#FCF800"/>
<stop offset="0.53" stop-color="#FC9700"/>
<stop offset="0.71" stop-color="#FE8500"/>
<stop offset="1" stop-color="#FC9700"/>
</linearGradient>
<linearGradient id="paint15_linear_79_1100" x1="7.95395" y1="23.4447" x2="25.5558" y2="14.5046" gradientUnits="userSpaceOnUse">
<stop stop-color="#DE376D"/>
<stop offset="0.99" stop-color="white"/>
</linearGradient>
<linearGradient id="paint16_linear_79_1100" x1="16.1352" y1="15.7781" x2="16.116" y2="22.1373" gradientUnits="userSpaceOnUse">
<stop stop-color="#DE376D"/>
<stop offset="0.99" stop-color="white"/>
</linearGradient>
<linearGradient id="paint17_linear_79_1100" x1="11.1198" y1="6.76527" x2="20.2762" y2="6.76527" gradientUnits="userSpaceOnUse">
<stop stop-color="#FCF800"/>
<stop offset="0.53" stop-color="#FC9700"/>
<stop offset="0.71" stop-color="#FE8500"/>
<stop offset="0.93" stop-color="#FC9300"/>
<stop offset="1" stop-color="#FC9700"/>
</linearGradient>
<radialGradient id="paint18_radial_79_1100" cx="0" cy="0" r="1" gradientUnits="userSpaceOnUse" gradientTransform="translate(16.0295 3.89046) scale(9.29577 10.7188)">
<stop stop-color="#FFF261"/>
<stop offset="0.11" stop-color="#FAED5F"/>
<stop offset="0.23" stop-color="#ECE05A"/>
<stop offset="0.36" stop-color="#D6CB51"/>
<stop offset="0.5" stop-color="#B6AD45"/>
<stop offset="0.64" stop-color="#8E8636"/>
<stop offset="0.78" stop-color="#5C5723"/>
<stop offset="0.92" stop-color="#22210D"/>
<stop offset="1"/>
</radialGradient>
<linearGradient id="paint19_linear_79_1100" x1="18.3594" y1="12.8148" x2="2.85295" y2="5.41891" gradientUnits="userSpaceOnUse">
<stop stop-color="#FCF800"/>
<stop offset="0.53" stop-color="#FC9700"/>
<stop offset="0.71" stop-color="#FE8500"/>
<stop offset="0.93" stop-color="#FC9300"/>
<stop offset="1" stop-color="#FC9700"/>
</linearGradient>
<linearGradient id="paint20_linear_79_1100" x1="7.87225" y1="7.09239" x2="11.8566" y2="8.66778" gradientUnits="userSpaceOnUse">
<stop stop-color="#DE376D"/>
<stop offset="0.99" stop-color="white"/>
</linearGradient>
<linearGradient id="paint21_linear_79_1100" x1="20.1321" y1="9.97301" x2="20.1321" y2="24.0653" gradientUnits="userSpaceOnUse">
<stop stop-color="#FCF800"/>
<stop offset="0.53" stop-color="#FC9700"/>
<stop offset="0.71" stop-color="#FE8500"/>
<stop offset="1" stop-color="#FC9700"/>
</linearGradient>
<linearGradient id="paint22_linear_79_1100" x1="11.0621" y1="9.97302" x2="11.0621" y2="24.0653" gradientUnits="userSpaceOnUse">
<stop stop-color="#DE376D"/>
<stop offset="0.99" stop-color="white"/>
</linearGradient>
<linearGradient id="paint23_linear_79_1100" x1="19.9784" y1="16.7754" x2="19.9017" y2="21.7883" gradientUnits="userSpaceOnUse">
<stop stop-color="#DE376D"/>
<stop offset="0.99" stop-color="white"/>
</linearGradient>
<linearGradient id="paint24_linear_79_1100" x1="19.8967" y1="14.1719" x2="20.1583" y2="18.1505" gradientUnits="userSpaceOnUse">
<stop stop-color="#DE376D"/>
<stop offset="0.99" stop-color="white"/>
</linearGradient>
<radialGradient id="paint25_radial_79_1100" cx="0" cy="0" r="1" gradientUnits="userSpaceOnUse" gradientTransform="translate(20.1321 13.3133) scale(11.1886 12.9013)">
<stop stop-color="#FFF261"/>
<stop offset="0.11" stop-color="#FAED5F"/>
<stop offset="0.23" stop-color="#ECE05A"/>
<stop offset="0.36" stop-color="#D6CB51"/>
<stop offset="0.5" stop-color="#B6AD45"/>
<stop offset="0.64" stop-color="#8E8636"/>
<stop offset="0.78" stop-color="#5C5723"/>
<stop offset="0.92" stop-color="#22210D"/>
<stop offset="1"/>
</radialGradient>
<linearGradient id="paint26_linear_79_1100" x1="25.8297" y1="1.36461" x2="26.0277" y2="15.2347" gradientUnits="userSpaceOnUse">
<stop stop-color="#FF5900"/>
<stop offset="0.23" stop-color="#FE6800"/>
<stop offset="0.66" stop-color="#FA9300"/>
<stop offset="0.85" stop-color="#F66A00"/>
<stop offset="1" stop-color="#F63F00"/>
</linearGradient>
<linearGradient id="paint27_linear_79_1100" x1="24.4365" y1="20.7307" x2="27.5472" y2="14.2951" gradientUnits="userSpaceOnUse">
<stop stop-color="#FF8B00"/>
<stop offset="1" stop-color="#FFAE00"/>
</linearGradient>
<linearGradient id="paint28_linear_79_1100" x1="27.0835" y1="20.0493" x2="26.5793" y2="11.1434" gradientUnits="userSpaceOnUse">
<stop stop-color="#DE376D"/>
<stop offset="0.99" stop-color="white"/>
</linearGradient>
<linearGradient id="paint29_linear_79_1100" x1="38.6948" y1="7.62421" x2="24.5126" y2="14.082" gradientUnits="userSpaceOnUse">
<stop stop-color="#FFF261"/>
<stop offset="0.11" stop-color="#FAED5F"/>
<stop offset="0.23" stop-color="#ECE05A"/>
<stop offset="0.36" stop-color="#D6CB51"/>
<stop offset="0.5" stop-color="#B6AD45"/>
<stop offset="0.64" stop-color="#8E8636"/>
<stop offset="0.78" stop-color="#5C5723"/>
<stop offset="0.92" stop-color="#22210D"/>
<stop offset="1"/>
</linearGradient>
<linearGradient id="paint30_linear_79_1100" x1="28.0347" y1="17.9941" x2="26.0925" y2="13.41" gradientUnits="userSpaceOnUse">
<stop stop-color="#DE330E"/>
<stop offset="1" stop-color="#930000"/>
</linearGradient>
<radialGradient id="paint31_radial_79_1100" cx="0" cy="0" r="1" gradientUnits="userSpaceOnUse" gradientTransform="translate(23.3988 9.54651) scale(3.72312 4.29306)">
<stop stop-color="#FFF261"/>
<stop offset="0.11" stop-color="#FAED5F"/>
<stop offset="0.23" stop-color="#ECE05A"/>
<stop offset="0.36" stop-color="#D6CB51"/>
<stop offset="0.5" stop-color="#B6AD45"/>
<stop offset="0.64" stop-color="#8E8636"/>
<stop offset="0.78" stop-color="#5C5723"/>
<stop offset="0.92" stop-color="#22210D"/>
<stop offset="1"/>
</radialGradient>
<radialGradient id="paint32_radial_79_1100" cx="0" cy="0" r="1" gradientUnits="userSpaceOnUse" gradientTransform="translate(30.9748 19.1795) scale(3.67027 4.23213)">
<stop stop-color="#FFF261"/>
<stop offset="0.11" stop-color="#FAED5F"/>
<stop offset="0.23" stop-color="#ECE05A"/>
<stop offset="0.36" stop-color="#D6CB51"/>
<stop offset="0.5" stop-color="#B6AD45"/>
<stop offset="0.64" stop-color="#8E8636"/>
<stop offset="0.78" stop-color="#5C5723"/>
<stop offset="0.92" stop-color="#22210D"/>
<stop offset="1"/>
</radialGradient>
<linearGradient id="paint33_linear_79_1100" x1="6.53195" y1="16.177" x2="6.04045" y2="18.2262" gradientUnits="userSpaceOnUse">
<stop stop-color="#DE376D"/>
<stop offset="0.99" stop-color="white"/>
</linearGradient>
<radialGradient id="paint34_radial_79_1100" cx="0" cy="0" r="1" gradientUnits="userSpaceOnUse" gradientTransform="translate(29.6585 3.91299) scale(8.04673 9.27855)">
<stop stop-color="#FFF261"/>
<stop offset="0.11" stop-color="#FAED5F"/>
<stop offset="0.23" stop-color="#ECE05A"/>
<stop offset="0.36" stop-color="#D6CB51"/>
<stop offset="0.5" stop-color="#B6AD45"/>
<stop offset="0.64" stop-color="#8E8636"/>
<stop offset="0.78" stop-color="#5C5723"/>
<stop offset="0.92" stop-color="#22210D"/>
<stop offset="1"/>
</radialGradient>
<linearGradient id="paint35_linear_79_1100" x1="25.6183" y1="18.8582" x2="23.2128" y2="16.2921" gradientUnits="userSpaceOnUse">
<stop stop-color="#DE376D"/>
<stop offset="0.99" stop-color="white"/>
</linearGradient>
<radialGradient id="paint36_radial_79_1100" cx="0" cy="0" r="1" gradientUnits="userSpaceOnUse" gradientTransform="translate(14.5979 -2.95603) scale(4.67911 5.39541)">
<stop stop-color="#FFF261"/>
<stop offset="0.11" stop-color="#FAED5F"/>
<stop offset="0.23" stop-color="#ECE05A"/>
<stop offset="0.36" stop-color="#D6CB51"/>
<stop offset="0.5" stop-color="#B6AD45"/>
<stop offset="0.64" stop-color="#8E8636"/>
<stop offset="0.78" stop-color="#5C5723"/>
<stop offset="0.92" stop-color="#22210D"/>
<stop offset="1"/>
</radialGradient>
<radialGradient id="paint37_radial_79_1100" cx="0" cy="0" r="1" gradientUnits="userSpaceOnUse" gradientTransform="translate(19.2242 2.56651) scale(4.55901 5.25693)">
<stop stop-color="#FFF261"/>
<stop offset="0.11" stop-color="#FAED5F"/>
<stop offset="0.23" stop-color="#ECE05A"/>
<stop offset="0.36" stop-color="#D6CB51"/>
<stop offset="0.5" stop-color="#B6AD45"/>
<stop offset="0.64" stop-color="#8E8636"/>
<stop offset="0.78" stop-color="#5C5723"/>
<stop offset="0.92" stop-color="#22210D"/>
<stop offset="1"/>
</radialGradient>
<radialGradient id="paint38_radial_79_1100" cx="0" cy="0" r="1" gradientUnits="userSpaceOnUse" gradientTransform="translate(14.7372 2.01827) scale(3.85282 4.44263)">
<stop stop-color="#FFF261"/>
<stop offset="0.11" stop-color="#FAED5F"/>
<stop offset="0.23" stop-color="#ECE05A"/>
<stop offset="0.36" stop-color="#D6CB51"/>
<stop offset="0.5" stop-color="#B6AD45"/>
<stop offset="0.64" stop-color="#8E8636"/>
<stop offset="0.78" stop-color="#5C5723"/>
<stop offset="0.92" stop-color="#22210D"/>
<stop offset="1"/>
</radialGradient>
<radialGradient id="paint39_radial_79_1100" cx="0" cy="0" r="1" gradientUnits="userSpaceOnUse" gradientTransform="translate(16.8558 -1.51033) scale(4.27077 4.92456)">
<stop stop-color="#FFF261"/>
<stop offset="0.11" stop-color="#FAED5F"/>
<stop offset="0.23" stop-color="#ECE05A"/>
<stop offset="0.36" stop-color="#D6CB51"/>
<stop offset="0.5" stop-color="#B6AD45"/>
<stop offset="0.64" stop-color="#8E8636"/>
<stop offset="0.78" stop-color="#5C5723"/>
<stop offset="0.92" stop-color="#22210D"/>
<stop offset="1"/>
</radialGradient>
<radialGradient id="paint40_radial_79_1100" cx="0" cy="0" r="1" gradientUnits="userSpaceOnUse" gradientTransform="translate(3.37569 21.517) scale(4.32362 4.98549)">
<stop stop-color="#FFF261"/>
<stop offset="0.11" stop-color="#FAED5F"/>
<stop offset="0.23" stop-color="#ECE05A"/>
<stop offset="0.36" stop-color="#D6CB51"/>
<stop offset="0.5" stop-color="#B6AD45"/>
<stop offset="0.64" stop-color="#8E8636"/>
<stop offset="0.78" stop-color="#5C5723"/>
<stop offset="0.92" stop-color="#22210D"/>
<stop offset="1"/>
</radialGradient>
<linearGradient id="paint41_linear_79_1100" x1="22.9521" y1="14.5486" x2="22.6844" y2="17.3453" gradientUnits="userSpaceOnUse">
<stop stop-color="#DE376D"/>
<stop offset="0.99" stop-color="white"/>
</linearGradient>
</defs>
</svg>
