<svg width="32" height="32" viewBox="0 0 32 32" fill="none" xmlns="http://www.w3.org/2000/svg">
<g clip-path="url(#clip0_192_2916)">
<g clip-path="url(#clip1_192_2916)">
<path d="M7.38248 27.3027C7.38248 27.3027 7.8314 29.3534 8.10177 29.8381C8.37215 30.3176 12.8971 31.1899 16.0957 31.1899C19.2942 31.1899 24.2426 30.134 24.4977 29.9095C24.7476 29.685 25.2731 27.1445 25.2731 27.1445L7.38248 27.3027Z" fill="url(#paint0_linear_192_2916)"/>
<path d="M7.47413 26.9097C8.50461 25.1702 23.5537 24.9253 25.1862 26.9097C26.7676 28.8279 5.79577 29.7461 7.47413 26.9097Z" fill="#FF7A00"/>
<g style="mix-blend-mode:multiply" opacity="0.3">
<path d="M11.5298 30.7815C11.5298 30.7815 17.2484 30.9193 20.3807 30.001C23.564 29.0675 24.3496 28.0217 24.8087 27.583C25.2729 27.1442 20.3042 25.5169 20.3042 25.5169L18.6309 25.1853C18.6309 25.1853 23.7374 26.93 22.9977 28.0931C21.3755 30.6336 9.84631 30.455 9.84631 30.455L11.5298 30.7764V30.7815Z" fill="#B10053"/>
</g>
<g style="mix-blend-mode:multiply" opacity="0.3">
<path d="M7.86194 29.2003C7.86194 29.2003 11.8002 30.0216 12.3155 28.8432C12.8409 27.6392 7.74461 26.6496 7.74461 26.6496L7.95376 26.5322C7.95376 26.5322 14.5499 28.3738 12.6624 29.2003C10.8054 30.0216 8.35677 30.0114 8.35677 30.0114C8.35677 30.0114 8.00988 30.2001 7.86194 29.2003Z" fill="#B10053"/>
</g>
<path d="M14.3355 30.7511C14.3355 30.7511 17.4729 30.797 19.743 30.3226C22.0284 29.843 23.717 28.532 23.717 28.532C23.717 28.532 20.8449 30.7052 14.3355 30.7511Z" fill="#FF6500"/>
<path d="M9.56602 29.9451C9.56602 29.9451 11.2597 29.8226 12.28 29.4808C13.3104 29.1339 12.9789 28.7258 12.9789 28.7258C12.9789 28.7258 13.1013 29.1135 12.3004 29.4043C11.5046 29.6951 9.56092 29.9451 9.56092 29.9451H9.56602Z" fill="#FF6500"/>
<g style="mix-blend-mode:multiply" opacity="0.3">
<path d="M13.7644 28.8227C13.0298 28.8686 13.1114 29.491 11.4228 30.0266C9.74447 30.5572 14.2847 30.4246 17.6159 29.9399C20.9777 29.4553 21.9725 28.8431 22.1256 28.5268C22.2786 28.2156 18.376 28.7156 16.7538 28.7156C15.1315 28.7156 13.7644 28.8176 13.7644 28.8176V28.8227Z" fill="#D42F55"/>
</g>
<g style="mix-blend-mode:multiply" opacity="0.3">
<path d="M18.5647 30.9196C18.1107 30.7614 22.9825 29.3483 23.9824 28.5321C25.0026 27.7057 24.717 29.2871 24.1558 29.7361C23.5998 30.1799 18.5596 30.9145 18.5596 30.9145L18.5647 30.9196Z" fill="#D42F55"/>
</g>
<g style="mix-blend-mode:soft-light" opacity="0.5">
<path d="M13.3206 28.6954C12.6931 28.6852 12.9431 28.3434 13.4073 28.0527C13.8766 27.7619 21.1767 27.7925 22.5235 27.8231C23.8703 27.8588 19.381 28.7924 13.3206 28.6903V28.6954Z" fill="white"/>
</g>
<g style="mix-blend-mode:soft-light" opacity="0.5">
<path d="M7.872 26.864C7.40777 26.8487 7.64754 27.772 8.56579 28.0577C9.47894 28.3434 11.4124 28.5729 11.795 28.4301C12.1776 28.2872 10.3921 26.9456 7.872 26.864Z" fill="white"/>
</g>
<path d="M23.018 13.8043C24.2475 12.5391 25.9769 6.9021 25.9769 6.9021L16.024 8.15704L6.0712 6.9021C6.0712 6.9021 7.82608 12.5391 9.06062 13.8043C10.2747 15.049 12.6469 15.9265 13.4784 17.666C14.2844 19.3546 11.5093 20.3443 10.5961 22.2267C10.3105 22.8236 10.137 23.5582 10.035 24.2724C9.83093 25.7416 9.92275 27.1342 9.92275 27.1342C9.92275 27.1342 11.6062 27.828 16.0648 27.828C20.2582 27.828 22.2069 27.1342 22.2069 27.1342C22.2069 27.1342 22.2783 26.0068 22.1355 24.7111C22.0437 23.8642 21.86 22.946 21.5131 22.2267C20.6 20.3392 17.8146 19.3495 18.6155 17.666C19.4369 15.9265 21.8141 15.049 23.018 13.8043ZM19.1512 21.0738C20.5949 22.7674 20.7326 25.813 20.3908 26.4762C20.0541 27.1291 16.3148 27.1393 16.3148 27.1393C16.3148 27.1393 12.5755 27.124 12.2439 26.4762C11.9021 25.8181 12.0398 22.7674 13.4835 21.0738C14.968 19.3291 15.4476 18.4874 15.1721 16.9672C14.8915 15.4112 13.3101 15.2072 11.6521 14.1614C9.97377 13.1003 8.46375 8.47843 8.97899 7.6163L16.3148 8.3509L23.6557 7.6163C24.171 8.47333 22.666 13.1003 20.9826 14.1614C19.3246 15.2072 17.7432 15.4112 17.4626 16.9672C17.182 18.4874 17.6616 19.3291 19.1461 21.0738H19.1512Z" fill="url(#paint1_linear_192_2916)"/>
<path d="M4.00521 2.65261C4.00521 2.65261 4.66839 5.67264 5.051 6.37663C5.4336 7.07552 11.6369 8.35087 16.0139 8.35087C20.3909 8.35087 27.1809 6.81025 27.5278 6.48376C27.8798 6.15727 28.6552 2.41284 28.6552 2.41284L4.00521 2.65261Z" fill="url(#paint2_linear_192_2916)"/>
<path d="M4.12272 2.07636C5.5052 -0.510045 26.3291 -0.867143 28.5482 2.07636C30.6755 4.90254 1.88831 6.25441 4.12272 2.07636Z" fill="#FF7A00"/>
<path opacity="0.5" d="M23.1557 10.7944C22.6353 12.2024 21.8395 13.6257 20.9876 14.1613C19.4622 15.1204 18.0083 15.3755 17.5645 16.6202C17.5237 16.7273 17.4931 16.8447 17.4727 16.9722C17.1921 18.4924 17.6717 19.3341 19.1562 21.0788C20.5999 22.7725 20.7376 25.818 20.3958 26.4812C20.0591 27.1342 16.3198 27.1444 16.3198 27.1444C16.3198 27.1444 12.5805 27.1291 12.2489 26.4812C11.9071 25.8231 12.0448 22.7725 13.4885 21.0788C14.8251 19.5127 15.3454 18.671 15.2383 17.4109C15.223 17.2732 15.2077 17.1252 15.1771 16.9722C14.8965 15.4163 13.3151 15.2122 11.6571 14.1664C11.2745 13.9267 10.9021 13.5032 10.5654 12.988C10.5603 12.9727 10.5552 12.9676 10.5552 12.9676C9.40229 11.2025 8.59117 8.27942 8.98908 7.62134L16.3249 8.35594L23.6658 7.62134C23.9209 8.04475 23.676 9.41193 23.1659 10.7944H23.1557Z" fill="url(#paint3_radial_192_2916)"/>
<path d="M23.156 10.7842V10.7944C22.6306 12.2023 21.8398 13.6256 20.9879 14.1613C19.4626 15.1203 18.0087 15.3754 17.5649 16.6202C17.07 17.3752 16.6109 21.1349 16.3252 21.0737C16.0396 21.0074 15.7539 18.625 15.2386 17.4058C15.2233 17.268 15.208 17.1201 15.1774 16.967C14.8968 15.4111 13.3154 15.2071 11.6575 14.1613C11.2748 13.9215 10.9024 13.4981 10.5658 12.9829C10.5607 12.9676 10.5555 12.9625 10.5555 12.9625L23.1611 10.7791L23.156 10.7842Z" fill="url(#paint4_linear_192_2916)"/>
<path d="M10.3055 12.5699C10.28 10.8916 22.7529 10.4783 23.0641 10.7538C23.3753 11.0293 21.1817 13.6106 15.8048 13.8555C10.4483 14.1003 10.3055 12.5699 10.3055 12.5699Z" fill="url(#paint5_linear_192_2916)"/>
<path d="M20.3907 26.4762C20.0999 27.4098 13.3201 27.4404 12.2437 26.4762C12.1264 26.3742 11.7591 25.5478 12.1621 24.9815V24.9764C13.1824 23.5582 15.932 21.6809 16.3146 21.635C16.7483 21.584 19.6204 23.5225 20.4417 25.0121C20.4417 25.0172 20.4519 25.0223 20.4519 25.0326C20.6457 25.3896 20.4417 26.2926 20.3856 26.4762H20.3907Z" fill="url(#paint6_linear_192_2916)"/>
<g style="mix-blend-mode:multiply" opacity="0.3">
<path d="M9.76472 14.4114C10.331 14.8195 13.4581 15.3092 14.509 16.1408C15.5446 16.9621 15.3048 18.671 14.5549 19.3495C13.8152 20.0229 14.0499 19.1098 13.7387 17.7885C13.4224 16.4366 9.76472 14.4165 9.76472 14.4165V14.4114Z" fill="#912790"/>
</g>
<g style="mix-blend-mode:multiply" opacity="0.3">
<path d="M23.0182 13.8044C22.4417 14.3146 18.8911 14.6054 17.9423 16.1409C17.0189 17.6356 17.7127 18.6712 18.1565 18.9364C18.6003 19.2017 18.1208 17.7121 19.2788 16.5592C20.4573 15.3859 22.0591 14.7992 23.0182 13.8044Z" fill="#912790"/>
</g>
<path d="M22.0644 14.0389C21.4981 13.8246 22.7633 12.3656 23.0592 11.4933C23.355 10.6158 23.4979 11.5341 23.2989 12.7788C23.1 13.9981 22.1613 14.0746 22.0644 14.0389Z" fill="white"/>
<g style="mix-blend-mode:soft-light">
<path d="M8.06604 9.866C7.75995 10.3659 8.80064 13.1564 9.63727 13.6971C10.4637 14.2379 10.3004 13.136 10.1474 12.7279C9.98926 12.3147 8.47925 9.19261 8.07114 9.866H8.06604Z" fill="white"/>
</g>
<path d="M12.0757 21.1912C11.8818 21.8748 13.0143 20.8647 13.499 20.0434C13.9836 19.2119 12.346 20.2526 12.0757 21.1912Z" fill="white"/>
<path d="M19.8399 20.9666C19.6358 20.9921 19.998 22.4664 20.753 22.5735C21.508 22.6806 20.7989 20.8441 19.8399 20.9666Z" fill="white"/>
<g style="mix-blend-mode:multiply" opacity="0.5">
<path d="M11.0248 13.2942C11.0248 13.2942 13.6368 15.6715 15.6263 15.8755C17.6057 16.0796 20.4369 14.5645 21.1613 13.8452C21.8908 13.1157 22.5693 11.8403 22.5693 11.8403C22.5693 11.8403 20.6818 13.3605 17.1618 13.8044C13.6674 14.2482 11.0248 13.2942 11.0248 13.2942Z" fill="#E09590"/>
</g>
<g style="mix-blend-mode:multiply" opacity="0.5">
<path d="M20.3907 26.4762C20.0999 27.4097 13.3201 27.4403 12.2437 26.4762C12.1264 26.3741 11.7591 25.5477 12.1621 24.9814C12.1468 25.0886 12.0397 26.4404 15.1056 26.6598C18.2889 26.8843 19.4316 25.3079 20.3192 25.0325C20.3652 25.0172 20.4111 25.0121 20.4468 25.0121C20.4468 25.0172 20.457 25.0223 20.457 25.0325C20.6508 25.3896 20.4468 26.2925 20.3907 26.4762Z" fill="#E09590"/>
</g>
<g style="mix-blend-mode:soft-light" opacity="0.5">
<path d="M16.32 21.6347C15.8047 21.5326 16.1924 24.2109 16.723 24.9812C17.2433 25.7464 19.4114 25.0679 19.6818 24.6955C19.9573 24.3231 17.3096 21.8336 16.32 21.6347Z" fill="white"/>
</g>
<g style="mix-blend-mode:multiply" opacity="0.3">
<path d="M6.40287 0.94378C6.40287 0.94378 19.6665 -0.102006 23.6711 1.3723C27.5941 2.81599 17.0393 4.10665 11.1676 3.9281C5.28566 3.74445 4.00521 2.65275 4.00521 2.65275C4.00521 2.65275 11.2849 3.86688 17.4321 3.16799C23.6405 2.464 5.4132 1.24476 5.4132 1.24476L6.40797 0.94378H6.40287Z" fill="#B10053"/>
</g>
<g style="mix-blend-mode:multiply" opacity="0.3">
<path d="M12.5757 7.86628C12.5757 7.86628 19.7992 7.5602 22.9723 6.31035C26.2066 5.04011 27.2626 3.29033 27.4513 2.50471C27.6452 1.70889 26.4106 0.862061 26.4106 0.862061C26.4106 0.862061 28.288 1.88234 27.8339 3.14749C27.385 4.39223 22.151 7.47857 19.284 8.05503C16.4374 8.62639 12.5808 7.86118 12.5808 7.86118L12.5757 7.86628Z" fill="#B10053"/>
</g>
<path d="M20.1868 7.82025C20.1868 7.82025 22.4875 7.32542 24.2679 6.41737C26.0738 5.49912 27.6042 3.51978 27.6042 3.51978C27.6042 3.51978 26.3748 5.41239 20.1868 7.82025Z" fill="#FF6500"/>
<g style="mix-blend-mode:multiply" opacity="0.3">
<path d="M9.57104 4.9278C7.70903 5.10635 7.56109 6.18275 7.80596 6.90204C8.05082 7.61624 12.2493 7.90192 15.606 7.49891C18.9831 7.09079 24.2784 5.6369 24.8446 4.74415C25.416 3.8412 20.1003 4.5605 16.9987 4.74415C13.9072 4.9278 9.57104 4.9278 9.57104 4.9278Z" fill="#D42F55"/>
</g>
<g style="mix-blend-mode:soft-light" opacity="0.5">
<path d="M10.0658 4.41264C9.44343 4.12696 16.8864 4.20858 19.5034 3.63723C22.1408 3.06077 25.5077 2.4384 26.0383 2.72918C26.5688 3.01996 26.5535 3.20871 26.4107 3.43317C26.2678 3.65253 16.1467 5.39721 10.0658 4.41264Z" fill="white"/>
</g>
<path d="M28.1499 2.78537C27.8948 2.63233 27.4867 3.43835 27.247 3.94339C27.0072 4.44332 28.1907 3.35163 28.2825 3.09656C28.3744 2.83638 28.1499 2.78537 28.1499 2.78537Z" fill="#FFA457"/>
<path d="M24.3192 28.0575C24.2478 27.8025 24.5334 27.2107 24.5947 27.2515C24.6508 27.2923 25.0997 27.3689 24.9773 27.5933C24.8548 27.8178 24.3192 28.0575 24.3192 28.0575Z" fill="#FFA457"/>
<path style="mix-blend-mode:screen" d="M10.0707 9.23846C9.13201 9.67718 10.9328 13.7175 13.4733 14.7327C15.973 15.7274 15.0088 11.6106 14.0804 10.3659C13.1315 9.09562 10.0758 9.24356 10.0758 9.24356L10.0707 9.23846Z" fill="url(#paint7_linear_192_2916)"/>
<path d="M21.151 8.76401C19.9522 9.16192 18.7279 11.6157 19.1105 12.2993C19.488 12.9727 22.7988 11.478 23.1508 9.77408C23.513 8.02431 21.8346 8.53955 21.151 8.76401Z" fill="white"/>
<g style="mix-blend-mode:multiply" opacity="0.5">
<path d="M6.22424 7.38168C6.18853 7.27455 13.2795 9.69261 16.8096 9.50386C20.35 9.31511 25.8289 7.38168 25.8289 7.38168L25.9769 6.91235C25.9769 6.91235 19.4573 8.15199 15.4884 8.27953C11.5246 8.41216 6.0712 6.91235 6.0712 6.91235L6.22424 7.38678V7.38168Z" fill="#9A376D"/>
</g>
<g style="mix-blend-mode:multiply" opacity="0.5">
<path d="M17.3505 15.7172C16.2741 15.3142 18.983 13.4879 20.7277 13.0441C22.4825 12.6003 20.7073 14.1664 19.988 14.6562C19.2789 15.1408 17.3505 15.7172 17.3505 15.7172Z" fill="#E09590"/>
</g>
<g style="mix-blend-mode:multiply" opacity="0.5">
<path d="M22.212 27.1343C22.212 27.1343 20.2632 27.8281 16.0699 27.8281C11.6113 27.8281 9.92781 27.1343 9.92781 27.1343C9.92781 27.1343 9.83599 25.7417 10.04 24.2725C10.04 24.2725 10.1013 26.5528 10.693 27.1394C11.2746 27.7261 18.1717 27.6955 20.2377 27.4098C22.314 27.1241 22.1457 24.7061 22.1457 24.7061C22.2834 26.0069 22.2171 27.1343 22.2171 27.1343H22.212Z" fill="#9A376D"/>
</g>
<path d="M17.4881 20.8443C16.5138 20.982 16.978 22.7573 17.886 23.2012C18.7941 23.645 18.6818 21.6758 18.5288 21.3749C18.3809 21.079 17.7993 20.7984 17.483 20.8443H17.4881Z" fill="white"/>
</g>
</g>
<defs>
<linearGradient id="paint0_linear_192_2916" x1="7.38248" y1="29.1647" x2="25.2731" y2="29.1647" gradientUnits="userSpaceOnUse">
<stop stop-color="#A71100"/>
<stop offset="0.39" stop-color="#D83303"/>
<stop offset="1" stop-color="#EC5C11"/>
</linearGradient>
<linearGradient id="paint1_linear_192_2916" x1="16.024" y1="27.828" x2="16.024" y2="6.9021" gradientUnits="userSpaceOnUse">
<stop stop-color="#E8E5ED"/>
<stop offset="0.05" stop-color="#E5DDE9"/>
<stop offset="0.28" stop-color="#DABBDC"/>
<stop offset="0.46" stop-color="#D3A6D4"/>
<stop offset="0.59" stop-color="#D19FD1"/>
<stop offset="0.64" stop-color="#BE91C3"/>
<stop offset="0.72" stop-color="#A47FB0"/>
<stop offset="0.81" stop-color="#9272A2"/>
<stop offset="0.9" stop-color="#876A9A"/>
<stop offset="1" stop-color="#846898"/>
</linearGradient>
<linearGradient id="paint2_linear_192_2916" x1="4.00521" y1="5.38696" x2="28.6552" y2="5.38696" gradientUnits="userSpaceOnUse">
<stop stop-color="#A71100"/>
<stop offset="0.39" stop-color="#D83303"/>
<stop offset="1" stop-color="#EC5C11"/>
</linearGradient>
<radialGradient id="paint3_radial_192_2916" cx="0" cy="0" r="1" gradientUnits="userSpaceOnUse" gradientTransform="translate(16.3198 18.732) scale(8.26937 13.0656)">
<stop stop-color="#E8E5ED"/>
<stop offset="0.14" stop-color="#E2DCE3"/>
<stop offset="0.42" stop-color="#DAD1D4"/>
<stop offset="0.66" stop-color="#D8CDD0"/>
<stop offset="0.68" stop-color="#D4C5CE"/>
<stop offset="0.75" stop-color="#C7ABC8"/>
<stop offset="0.83" stop-color="#BE99C5"/>
<stop offset="0.91" stop-color="#B88EC2"/>
<stop offset="1" stop-color="#B78BC2"/>
</radialGradient>
<linearGradient id="paint4_linear_192_2916" x1="16.8558" y1="21.0788" x2="16.8558" y2="10.7842" gradientUnits="userSpaceOnUse">
<stop stop-color="#FFA900"/>
<stop offset="1" stop-color="#FF9600"/>
</linearGradient>
<linearGradient id="paint5_linear_192_2916" x1="10.3055" y1="12.2791" x2="23.0947" y2="12.2791" gradientUnits="userSpaceOnUse">
<stop stop-color="#FFB100"/>
<stop offset="1" stop-color="#FFC500"/>
</linearGradient>
<linearGradient id="paint6_linear_192_2916" x1="16.2585" y1="27.1904" x2="16.2585" y2="21.635" gradientUnits="userSpaceOnUse">
<stop stop-color="#FF9600"/>
<stop offset="1" stop-color="#FFA900"/>
</linearGradient>
<linearGradient id="paint7_linear_192_2916" x1="9.81559" y1="12.0544" x2="15.0598" y2="12.0544" gradientUnits="userSpaceOnUse">
<stop offset="0.02" stop-color="#008DFE"/>
<stop offset="1"/>
</linearGradient>
<clipPath id="clip0_192_2916">
<rect width="32" height="32" fill="white"/>
</clipPath>
<clipPath id="clip1_192_2916">
<rect width="24.6602" height="31.1899" fill="white" transform="translate(4.00015)"/>
</clipPath>
</defs>
</svg>
