<svg width="38" height="38" viewBox="0 0 38 38" fill="none" xmlns="http://www.w3.org/2000/svg">
<g clip-path="url(#clip0_432_2353)">
<g clip-path="url(#clip1_432_2353)">
<g opacity="0.5">
<path d="M23.4636 30.8108C28.2348 26.0397 28.2348 18.304 23.4636 13.5329C18.6924 8.76168 10.9568 8.76168 6.18562 13.5329C1.41444 18.304 1.41444 26.0397 6.18562 30.8108C10.9568 35.582 18.6924 35.582 23.4636 30.8108Z" fill="url(#paint0_radial_432_2353)" style="mix-blend-mode:screen"/>
</g>
<path d="M16.5367 6.68863C13.4233 7.44775 11.2517 9.2879 8.78213 11.5316C6.30778 13.7802 3.83823 16.6821 4.05443 17.8977C4.27064 19.1132 10.7568 26.6804 14.0624 29.4431C17.3679 32.2057 19.1888 33.157 19.602 32.8159C20.02 32.4748 16.5367 6.68863 16.5367 6.68863Z" fill="#FF9FDB"/>
<path d="M19.602 32.8207C18.0165 32.8351 6.04831 19.9396 5.13544 17.5325C4.81834 16.6917 10.9442 10.5275 12.496 9.16297C14.0479 7.79848 15.768 6.75588 16.5367 6.68862C17.3054 6.62136 21.74 6.02078 22.3838 6.04C22.6385 6.04961 24.6612 6.57331 25.1273 6.85197C28.6538 8.96599 33.7467 16.514 34.0782 17.3596C34.4145 18.2052 31.6567 21.8999 28.2983 25.6234C24.839 29.4527 20.4188 32.8159 19.6068 32.8207H19.602Z" fill="url(#paint1_linear_432_2353)"/>
<g style="mix-blend-mode:multiply" opacity="0.3">
<path d="M21.3989 19.1469C22.8259 18.5463 26.9482 18.8298 27.4719 20.4441C27.9908 22.0632 20.6638 28.5927 19.0158 28.2611C17.3679 27.9296 10.3868 18.9787 10.3436 17.5277C10.3004 16.0768 19.7269 9.12454 23.4312 10.1095C27.1356 11.0944 30.4459 14.3327 28.7547 14.203C27.0635 14.0732 22.4655 11.3202 18.2952 12.5694C14.1248 13.8234 14.0335 19.3967 14.4371 21.2417C14.8407 23.0914 17.5841 26.4354 19.2272 26.9975C20.8656 27.5597 22.9027 22.5005 21.6007 21.5828C20.2987 20.6699 19.4819 23.2211 19.4819 22.7695C19.4819 21.5155 20.856 19.3679 21.4037 19.1373L21.3989 19.1469Z" fill="#C9B300"/>
</g>
<g style="mix-blend-mode:multiply">
<path d="M5.48618 17.2058C7.63383 16.3362 10.2571 14.5633 10.8625 13.5207C11.4679 12.4781 14.5284 8.29333 15.1866 7.59186C15.8496 6.89039 13.505 8.10115 9.62292 12.3148C6.17804 16.0575 5.00573 17.3932 5.48138 17.201L5.48618 17.2058Z" fill="#C9B300"/>
</g>
<g style="mix-blend-mode:multiply" opacity="0.5">
<path d="M8.61876 14.4384C11.7465 11.9544 15.1338 8.16362 17.7138 9.05247C20.2939 9.94131 21.8553 13.0595 24.5267 12.5694C25.8335 12.3292 24.863 8.76419 22.8643 7.24595C20.8608 5.7277 22.4751 7.79367 19.1264 6.75588C18.3576 6.51565 16.7097 6.05922 12.5537 9.85963C8.39775 13.66 7.13414 15.6203 8.61876 14.4432V14.4384Z" fill="#C9D16D"/>
</g>
<g style="mix-blend-mode:soft-light">
<path d="M22.7682 6.38112C23.8252 8.10116 27.5824 13.0835 28.1013 13.3766C28.6202 13.6697 32.9539 16.3218 32.9347 15.9086C32.9155 15.4954 30.1625 11.7719 27.8515 9.44644C25.5357 7.12103 22.3743 5.74212 22.7682 6.38593V6.38112Z" fill="white"/>
</g>
<g style="mix-blend-mode:soft-light">
<path d="M11.4775 13.588C13.2263 14.2174 27.0587 13.5111 27.0587 13.1411C27.0587 12.7712 22.8931 6.59252 22.2109 6.42916C21.5286 6.26581 16.3974 6.56849 15.7391 7.19789C15.0809 7.8321 10.6655 13.2901 11.4775 13.5832V13.588Z" fill="white"/>
</g>
<g style="mix-blend-mode:soft-light">
<path d="M22.9844 6.38592C24.8534 7.28438 28.9037 10.5947 29.2063 11.5701C29.509 12.5454 28.7643 13.7561 27.9716 13.0643C27.1788 12.3772 22.3454 6.07843 22.9844 6.38592Z" fill="white"/>
</g>
<g style="mix-blend-mode:multiply" opacity="0.74">
<path d="M10.1899 14.0828C6.49995 16.7446 7.71551 14.6258 10.1034 12.0601C11.6264 10.4218 13.4522 8.94196 13.3993 9.35515C13.3465 9.76834 10.7136 13.7033 10.1899 14.0828Z" fill="#D42790"/>
</g>
<g style="mix-blend-mode:multiply" opacity="0.8">
<path d="M18.4393 31.8646C17.1469 29.1932 11.4246 15.3465 10.6223 15.3128C9.8199 15.2792 5.17388 17.1962 5.38048 17.5854C5.58707 17.9746 7.89807 20.8381 11.7706 25.4265C15.643 30.0148 18.8573 32.7294 18.4393 31.8646Z" fill="#C9D16D"/>
</g>
<g style="mix-blend-mode:multiply">
<path d="M11.6408 14.5489C11.7273 15.7644 18.5354 32.1913 19.2176 32.2249C19.8999 32.2585 23.7387 25.6955 25.5597 21.0398C27.3806 16.3842 27.5776 14.3038 27.0539 14.0732C26.535 13.8474 11.5399 13.1988 11.636 14.5489H11.6408Z" fill="#C9B300"/>
</g>
<g style="mix-blend-mode:soft-light">
<path d="M27.8371 14.5489C27.3998 16.6293 25.6654 22.2699 23.2583 26.7958C20.8512 31.3217 19.2753 32.5805 19.6164 32.6525C19.9576 32.7246 26.2804 28.7176 29.9559 23.2548C33.6314 17.792 33.8284 17.4605 33.1749 16.9896C32.5215 16.5188 28.0244 13.6457 27.8371 14.5537V14.5489Z" fill="#C9D16D"/>
</g>
<g style="mix-blend-mode:soft-light">
<path d="M16.9547 30.0677C14.4035 22.7407 9.62292 20.2279 8.38814 21.3089C8.01819 21.6357 17.6225 31.9847 16.9547 30.0677Z" fill="white"/>
</g>
<g style="mix-blend-mode:soft-light">
<path d="M26.8233 27.0408C24.0607 25.1766 21.8554 28.3524 20.02 32.4796C19.7942 32.9937 27.2317 27.3195 26.8233 27.0408Z" fill="white"/>
</g>
<g style="mix-blend-mode:multiply">
<path d="M28.1974 15.0293C27.2028 17.0232 26.6215 19.1228 26.8377 19.4303C27.0587 19.733 29.2352 18.4982 28.6202 21.8807C28.0052 25.2631 28.7307 25.3207 31.1041 22.3323C33.2806 19.5937 33.6025 18.013 33.4632 17.7487C32.9347 16.759 28.6826 14.054 28.1974 15.0293Z" fill="#B5CA6D"/>
</g>
<g style="mix-blend-mode:multiply" opacity="0.7">
<path d="M27.0587 14.3711C26.5686 13.3574 11.857 13.7177 11.7225 14.3711C11.4198 15.8557 14.8215 23.668 15.1914 22.6927C15.3692 22.2218 13.0726 16.3506 15.643 15.7981C18.2135 15.2456 22.8355 19.4544 25.8576 18.9451C26.6695 18.8106 27.741 15.7885 27.0587 14.3711Z" fill="#C9B300"/>
</g>
<g style="mix-blend-mode:multiply" opacity="0.5">
<path d="M13.8077 23.1827C12.2462 22.2939 10.9346 20.8189 8.51786 21.0399C7.83081 21.1023 5.1979 17.8737 5.38048 17.5854C5.85133 16.8455 10.3916 15.039 10.6223 15.3128C11.9291 16.8551 14.9464 23.8361 13.8077 23.1827Z" fill="#C9B300"/>
</g>
<path d="M10.8625 13.5207C9.40191 15.1927 9.08481 15.236 9.88717 15.3128C10.6895 15.3897 11.6408 14.8708 11.7081 14.2222C11.7754 13.5736 11.4198 12.8865 10.8625 13.5207Z" fill="#FB9FFF"/>
<path d="M26.9482 12.5934C26.6888 13.1556 26.8329 13.8234 27.3134 14.2847C27.7938 14.7459 28.9757 14.7795 28.7547 14.203C28.5337 13.6264 27.1308 12.2043 26.9482 12.5934Z" fill="#FB9FFF"/>
<g style="mix-blend-mode:soft-light" opacity="0.5">
<path d="M19.1071 31.4466C10.6223 15.9518 23.5562 23.8505 23.4265 24.6337C23.2967 25.4168 19.7077 32.542 19.1071 31.4466Z" fill="white"/>
</g>
<path d="M15.2971 13.5784C20.1065 14.03 21.3268 13.6649 21.2019 13.2661C21.0722 12.8673 20.1209 11.498 18.1895 11.5316C16.258 11.5653 13.6876 13.4246 15.2971 13.5784Z" fill="white"/>
<path d="M15.004 28.2756C15.8256 26.2913 13.8605 26.2336 13.1399 26.618C12.914 26.7381 14.7878 28.7993 15.004 28.2756Z" fill="white"/>
<g opacity="0.5">
<path d="M15.5 13C17.9853 13 20 10.7614 20 8C20 5.23858 17.9853 3 15.5 3C13.0147 3 11 5.23858 11 8C11 10.7614 13.0147 13 15.5 13Z" fill="url(#paint2_radial_432_2353)" style="mix-blend-mode:screen"/>
</g>
<path d="M15.6383 3.44554C15.6383 3.44554 15.4893 6.53968 15.2923 6.81835C15.0425 7.16908 13.8894 7.22674 13.8894 7.22674C13.8894 7.22674 15.0905 7.35646 15.1722 7.80809C15.3308 8.71135 15.5902 11.1857 15.5902 11.1857C15.5902 11.1857 15.6815 8.93236 15.9025 8.16843C15.9698 7.9234 17.1949 7.61591 17.1949 7.61591C17.1949 7.61591 16.0082 7.42853 15.9217 6.7655C15.7103 5.07909 15.6383 3.44073 15.6383 3.44073V3.44554Z" fill="white"/>
<g opacity="0.5">
<path d="M27.837 19.0748C32.2471 19.0748 35.8222 15.4997 35.8222 11.0896C35.8222 6.67949 32.2471 3.1044 27.837 3.1044C23.4269 3.1044 19.8519 6.67949 19.8519 11.0896C19.8519 15.4997 23.4269 19.0748 27.837 19.0748Z" fill="url(#paint3_radial_432_2353)" style="mix-blend-mode:screen"/>
</g>
<g opacity="0.5">
<path d="M6.72096 28.6263C8.3449 28.6263 9.66136 27.3098 9.66136 25.6859C9.66136 24.0619 8.3449 22.7455 6.72096 22.7455C5.09702 22.7455 3.78056 24.0619 3.78056 25.6859C3.78056 27.3098 5.09702 28.6263 6.72096 28.6263Z" fill="url(#paint4_radial_432_2353)" style="mix-blend-mode:color-dodge"/>
</g>
<path d="M6.72097 25.8973C6.83772 25.8973 6.93237 25.8026 6.93237 25.6859C6.93237 25.5691 6.83772 25.4745 6.72097 25.4745C6.60421 25.4745 6.50957 25.5691 6.50957 25.6859C6.50957 25.8026 6.60421 25.8973 6.72097 25.8973Z" fill="white"/>
<path d="M28.0677 27.9584C28.1844 27.9584 28.2791 27.8638 28.2791 27.747C28.2791 27.6303 28.1844 27.5356 28.0677 27.5356C27.9509 27.5356 27.8563 27.6303 27.8563 27.747C27.8563 27.8638 27.9509 27.9584 28.0677 27.9584Z" fill="white"/>
</g>
</g>
<defs>
<radialGradient id="paint0_radial_432_2353" cx="0" cy="0" r="1" gradientUnits="userSpaceOnUse" gradientTransform="translate(14.8246 22.1718) rotate(-45) scale(12.2174 12.2174)">
<stop stop-color="#FF0EE7"/>
<stop offset="1" stop-color="#FF0EE7" stop-opacity="0"/>
</radialGradient>
<linearGradient id="paint1_linear_432_2353" x1="19.6164" y1="32.8207" x2="19.6164" y2="6.04" gradientUnits="userSpaceOnUse">
<stop stop-color="#FF0839"/>
<stop offset="0.63" stop-color="#DE0086"/>
<stop offset="1" stop-color="#39047A"/>
</linearGradient>
<radialGradient id="paint2_radial_432_2353" cx="0" cy="0" r="1" gradientUnits="userSpaceOnUse" gradientTransform="translate(15.5 8) scale(4.5 5)">
<stop stop-color="#FF0EE7"/>
<stop offset="1" stop-color="#FF0EE7" stop-opacity="0"/>
</radialGradient>
<radialGradient id="paint3_radial_432_2353" cx="0" cy="0" r="1" gradientUnits="userSpaceOnUse" gradientTransform="translate(27.837 11.0896) scale(7.9852)">
<stop stop-color="#FF0EE7"/>
<stop offset="1" stop-color="#FF0EE7" stop-opacity="0"/>
</radialGradient>
<radialGradient id="paint4_radial_432_2353" cx="0" cy="0" r="1" gradientUnits="userSpaceOnUse" gradientTransform="translate(6.72096 25.6859) scale(2.9404)">
<stop stop-color="#FF249C"/>
<stop offset="1" stop-color="#FF249C" stop-opacity="0"/>
</radialGradient>
<clipPath id="clip0_432_2353">
<rect width="38" height="38" fill="white"/>
</clipPath>
<clipPath id="clip1_432_2353">
<rect width="36.8222" height="37" fill="white" transform="translate(-1 1)"/>
</clipPath>
</defs>
</svg>
