<svg width="23" height="28" viewBox="0 0 23 28" fill="none" xmlns="http://www.w3.org/2000/svg">
<path d="M9.09521 9.52933C8.63314 9.99141 8.15799 11.1204 9.13445 12.0925C10.1109 13.069 11.0874 13.8013 11.7064 14.4247L12.7875 13.2216L13.9906 12.1405C13.3672 11.5171 12.6349 10.5407 11.6584 9.56856C10.682 8.59646 9.55729 9.06726 9.09521 9.52933Z" fill="url(#paint0_linear_192_3123)"/>
<g style="mix-blend-mode:multiply" opacity="0.5">
<path d="M8.56759 10.7366C8.56759 10.7366 8.49784 11.4951 9.13429 12.0923C9.61816 12.5456 11.1482 13.9057 11.1482 13.9057L11.4839 13.9406C11.4839 13.9406 10.0802 12.9075 9.2825 11.9005C8.89017 11.4079 8.56759 10.7366 8.56759 10.7366Z" fill="#BE5286"/>
</g>
<path d="M1.52316 5.40104L4.77076 2.15344C4.77076 2.15344 2.83092 1.82214 1.92421 2.68962C0.982621 3.58761 1.52316 5.40104 1.52316 5.40104Z" fill="#351E36"/>
<path d="M1.30959 2.20581C-0.830778 4.15437 0.81264 6.93118 0.81264 6.93118L2.40375 5.34007C1.94603 4.92595 1.85885 3.91025 2.27733 3.32176C2.8789 2.912 3.95126 2.7725 4.42641 3.32176L5.81264 1.93554C5.81264 1.93554 3.29302 0.409816 1.30959 2.21017V2.20581Z" fill="url(#paint1_linear_192_3123)"/>
<path d="M3.55869 4.39828C0.350324 7.60665 -0.264323 12.72 2.44274 16.1463C5.48982 20.0042 11.475 20.2788 15.4506 16.3076C19.4262 12.332 18.7592 6.04605 14.9493 3.02949C11.5622 0.344224 6.76706 1.18991 3.55869 4.40264V4.39828ZM12.9266 13.788C10.516 16.1986 6.46192 15.6319 4.55695 13.4262C2.78712 11.373 3.94666 9.02339 6.07395 6.89174C8.2056 4.76009 11.0086 4.00159 13.0966 5.80194C15.3416 7.74178 15.3372 11.3774 12.9266 13.788Z" fill="url(#paint2_linear_192_3123)"/>
<path d="M2.94414 3.63571C-0.220637 6.80048 -0.852721 11.8005 1.78024 15.1222C4.73577 18.8537 10.5815 19.0673 14.4873 15.1571C18.3931 11.2512 17.7959 5.12655 14.0993 2.20589C10.8081 -0.396551 6.10456 0.46657 2.93978 3.63135L2.94414 3.63571ZM12.0418 12.729C9.67474 15.096 5.71223 14.586 3.86393 12.45C2.14205 10.4579 2.8526 7.7072 4.93193 5.62786C7.01127 3.54852 10.2414 3.19107 12.2685 4.93475C14.4481 6.8092 14.4132 10.3576 12.0461 12.729H12.0418Z" fill="url(#paint3_linear_192_3123)"/>
<g style="mix-blend-mode:soft-light" opacity="0.5">
<path d="M4.75771 13.8316C4.97567 14.3068 2.92685 16.1638 2.00706 15.2004C1.11778 14.2676 -0.647694 11.53 0.995724 7.20567C2.29476 3.7837 6.10035 0.863033 9.67053 0.893548C13.511 0.924062 15.5119 4.11935 16.1134 5.09581C16.7324 6.10279 14.8798 9.34603 14.5049 8.72703C14.1387 8.11674 13.8641 5.44455 11.266 4.07576C9.00793 2.8857 5.25466 4.1891 3.75074 6.50819C2.22066 8.86652 2.25117 10.1133 3.29302 11.9572C3.72458 12.7244 4.52667 13.3347 4.75771 13.8316Z" fill="white"/>
</g>
<g style="mix-blend-mode:multiply" opacity="0.5">
<path d="M5.24581 14.6601C4.5527 14.9129 3.0357 15.994 3.2493 16.2643C3.46726 16.5345 7.36874 19.0541 11.571 16.9094C15.0496 15.1309 16.3705 11.8092 16.6843 10.7063C16.9938 9.62084 16.8587 7.09686 16.3443 7.49355C15.8299 7.89024 14.217 9.53365 13.8465 10.4927C13.4716 11.4604 12.2249 13.409 11.1918 14.1021C8.31905 16.0376 5.65122 14.5162 5.24581 14.6644V14.6601Z" fill="#BE5286"/>
</g>
<path d="M0.271931 11.8223C0.271931 11.8223 -0.277329 8.38721 1.55789 5.55373C3.16208 3.07335 6.11761 1.42993 6.11761 1.42993C6.11761 1.42993 2.95284 2.49358 1.07838 6.03324C-0.59555 9.1893 0.271931 11.8223 0.271931 11.8223Z" fill="#7C759C"/>
<path d="M5.58582 13.7227C5.58582 13.7227 7.53002 15.7105 10.4725 14.3025C13.4934 12.8596 13.7767 9.45508 13.7767 9.45508C13.7767 9.45508 13.3844 12.4934 10.1325 13.9363C8.44981 14.6818 5.58582 13.7184 5.58582 13.7184V13.7227Z" fill="#7C759C"/>
<path d="M8.50205 3.84906C8.50205 3.84906 5.80371 3.61366 4.06875 5.37913C2.33379 7.14461 2.46456 8.92752 2.91356 10.3181C2.91356 10.3181 2.73483 7.78105 4.61365 5.95455C6.49682 4.12369 8.49769 3.84906 8.49769 3.84906H8.50205Z" fill="#7C759C"/>
<path d="M5.93895 1.83074C5.65124 2.41051 8.21009 2.39744 8.40625 2.14896C8.60242 1.90049 8.75935 0.91095 8.31907 0.880435C7.88315 0.849921 6.16562 1.36867 5.93895 1.83074Z" fill="#C4B8D9"/>
<path d="M8.86393 14.695C8.8988 14.9696 10.0017 15.1222 10.5989 14.6121C11.1961 14.1021 11.1525 13.7926 10.843 13.7839C10.5335 13.7708 8.83342 14.4378 8.86393 14.6993V14.695Z" fill="#C4B8D9"/>
<g style="mix-blend-mode:soft-light" opacity="0.5">
<path d="M3.24951 8.13422C3.24951 8.13422 3.89903 8.70091 4.49188 8.81425C4.49188 8.81425 5.45527 7.39315 6.62789 6.37746C6.62789 6.37746 5.84323 5.75846 5.46398 5.23535C5.46398 5.23535 3.92083 6.33823 3.24951 8.13858V8.13422Z" fill="white"/>
</g>
<path d="M3.59355 7.25814C3.42354 6.87017 3.85946 6.20758 4.14717 6.04193C4.43487 5.87628 4.6136 5.77601 4.6136 5.95474C4.6136 6.13347 3.62842 7.34097 3.58919 7.25814H3.59355Z" fill="#C4B8D9"/>
<g style="mix-blend-mode:multiply" opacity="0.5">
<path d="M3.2929 8.39598C3.47599 8.49188 4.31731 8.92344 4.2432 9.05857C4.1691 9.18935 3.44111 10.2486 3.61548 11.8572C3.61548 11.8572 2.73492 10.593 2.9398 9.52065C3.14469 8.46572 3.14033 8.32187 3.28854 8.40033L3.2929 8.39598Z" fill="#BE5286"/>
</g>
<g style="mix-blend-mode:multiply" opacity="0.5">
<path d="M5.68172 5.29656C5.81249 5.43605 6.51868 6.23815 6.72356 6.13788C6.9328 6.03762 8.54571 4.54242 10.4507 4.61216C10.7994 4.62524 10.2153 3.8711 8.91188 4.04547C7.63899 4.21548 5.48555 5.09168 5.67735 5.29656H5.68172Z" fill="#BE5286"/>
</g>
<g style="mix-blend-mode:soft-light" opacity="0.5">
<path d="M1.26134 2.37162C1.13056 2.76831 1.5534 2.94704 1.91086 3.0255C2.51678 3.16499 4.38688 2.15802 4.5874 1.98365C4.78793 1.80928 4.08174 1.36465 3.29708 1.37772C2.5255 1.3908 1.3398 2.11879 1.25698 2.36726L1.26134 2.37162Z" fill="white"/>
</g>
<g style="mix-blend-mode:multiply" opacity="0.5">
<path d="M0.60749 3.2388C0.297987 3.77062 0.428763 5.95022 0.821091 5.64508C2.23783 4.53348 1.92833 4.00166 1.98064 3.60497C2.02859 3.20829 0.973663 2.6198 0.60749 3.24316V3.2388Z" fill="#BE5286"/>
</g>
<path d="M2.14663 3.30852C1.94174 3.56136 2.02893 4.55089 2.02893 4.55089C2.02893 4.55089 1.92431 4.01035 2.25125 3.36955C2.28176 3.30852 2.57383 3.06877 3.34541 2.96851C3.34541 2.96851 2.40382 2.99466 2.14663 3.31288V3.30852Z" fill="#7C759C"/>
<path d="M0.965013 2.54565C0.965013 2.54565 -0.586862 4.18907 0.70782 6.81767C0.70782 6.81767 -0.460445 9.11932 0.32421 12.0749C0.32421 12.0749 -0.338388 8.97111 0.847314 6.73048C0.903984 6.6215 0.808081 6.45585 0.764489 6.35995C0.59884 5.96762 0.289337 5.12194 0.359084 4.16728C0.420113 3.29108 0.960654 2.55001 0.960654 2.55001L0.965013 2.54565Z" fill="#351E36"/>
<path d="M2.18132 2.00513C2.16388 2.11847 3.24496 1.92667 3.27111 1.82205C3.33214 1.53434 3.11854 1.36433 2.81776 1.46023C2.37748 1.59973 2.19875 1.90487 2.18132 2.00513Z" fill="#C4B8D9"/>
<g style="mix-blend-mode:multiply" opacity="0.5">
<path d="M13.9294 16.6957C13.9599 15.6494 15.4159 13.8317 16.9503 12.8596C17.3165 12.6285 17.7045 12.6111 17.7045 12.6111C17.4604 13.6137 16.5231 15.3966 15.3418 16.3949L13.9251 16.6957H13.9294Z" fill="#BE5286"/>
</g>
<path d="M18.7941 23.3918C18.7941 23.3918 18.8072 23.4266 18.8072 23.4354C18.8072 23.4484 18.7941 23.4659 18.7766 23.4964C18.7766 23.4964 18.7766 23.5007 18.7723 23.5051C18.4541 24.0369 15.9911 27.2453 15.9911 27.2453C15.7732 27.1363 14.9144 26.3299 14.9144 26.3299L15.5421 25.227L16.5404 23.4702L15.3939 22.3717C15.3939 22.3717 13.3843 24.4336 13.2928 24.3944C13.1751 24.3464 12.7348 23.7797 12.7348 23.7797L11.8324 22.5243L14.8011 19.8826C14.8011 19.8826 15.0582 19.7475 15.3285 19.6908C15.5901 19.6385 18.5761 22.9166 18.7941 23.3874V23.3918Z" fill="url(#paint4_linear_192_3123)"/>
<path d="M15.7342 20.3268C15.769 20.5753 17.7176 22.611 17.8004 22.6372C17.8833 22.6633 18.45 21.9876 18.45 21.9876L16.2616 19.7993L15.7298 20.3311L15.7342 20.3268Z" fill="url(#paint5_linear_192_3123)"/>
<path d="M18.7942 23.3917C18.7942 23.3917 18.8116 23.4179 18.8073 23.4353C18.8073 23.444 18.7942 23.4615 18.7768 23.4963C18.7768 23.4963 18.7768 23.5007 18.7724 23.5051C18.4542 24.0369 15.9912 27.2452 15.9912 27.2452C15.7733 27.1363 14.9145 26.3298 14.9145 26.3298L15.5422 25.2269L17.687 23.165C17.9224 23.1738 18.6765 23.2827 18.7942 23.3961V23.3917Z" fill="url(#paint6_linear_192_3123)"/>
<path d="M17.687 23.1603C17.6391 23.2998 14.993 26.2292 14.9146 26.3251C14.8361 26.4253 13.6591 25.0958 13.6155 24.9476C13.5719 24.7994 15.3941 22.8857 15.3941 22.8857C15.3766 22.8029 14.6312 22.0574 14.6312 22.0574C14.6312 22.0574 12.8657 23.7488 12.7263 23.7706C12.6086 23.788 11.8239 22.5151 11.8239 22.5151C11.8239 22.5151 13.1099 21.2292 14.7925 19.8778C14.8579 19.8255 17.7263 23.0252 17.6827 23.1559L17.687 23.1603Z" fill="url(#paint7_linear_192_3123)"/>
<g style="mix-blend-mode:soft-light" opacity="0.5">
<path d="M15.1411 26.3425C15.2849 26.6651 15.9083 27.0269 16.0303 26.8787C16.1524 26.7348 16.9371 24.686 16.7496 24.7122C16.5622 24.7383 15.0016 26.0243 15.1411 26.3425Z" fill="white"/>
</g>
<path d="M13.6154 24.9519C13.6154 24.9519 14.6485 26.4253 15.9912 27.2405C15.9912 27.2405 15.1455 26.5561 15.0278 26.2335C15.0278 26.2335 14.0295 25.4837 13.6154 24.9519Z" fill="#351E36"/>
<g style="mix-blend-mode:soft-light" opacity="0.5">
<path d="M11.9588 22.5763C12.0547 22.8815 12.6432 23.6967 12.8612 23.531C13.0791 23.3697 14.1123 22.4717 14.1994 22.2058C14.2866 21.9399 13.9597 20.8675 13.6938 20.994C13.4279 21.1204 11.8934 22.3715 11.9588 22.5763Z" fill="white"/>
</g>
<g style="mix-blend-mode:soft-light" opacity="0.5">
<path d="M13.7942 24.878C13.7506 25.1352 14.9451 26.0507 15.0104 26.0245C15.3417 25.8937 16.6539 24.4203 16.558 24.2111C16.4664 24.0019 15.5335 23.0167 15.2676 23.2782C15.0017 23.5398 13.8378 24.6121 13.7942 24.878Z" fill="white"/>
</g>
<path d="M11.9984 22.3584L11.8284 22.524C11.8284 22.524 11.8153 22.6374 12.1466 23.191C12.4866 23.7664 13.171 24.4944 13.2408 24.49C13.3105 24.4857 13.668 24.0803 13.668 24.0803C13.668 24.0803 13.3803 24.368 13.2451 24.2808C13.1144 24.198 12.8354 23.8187 12.8049 23.7839C12.7743 23.749 12.9269 23.6095 12.9269 23.6095C12.9269 23.6095 12.7918 23.8274 12.5215 23.4874C12.26 23.1561 11.8371 22.6156 11.872 22.5502C11.9069 22.4805 11.994 22.3584 11.994 22.3584H11.9984Z" fill="#351E36"/>
<g style="mix-blend-mode:multiply" opacity="0.5">
<path d="M15.1584 22.6069L14.6353 22.062C14.6353 22.062 13.7591 22.9382 13.5586 23.6226C13.3537 24.3332 13.903 23.8536 13.903 23.8536L15.1584 22.6026V22.6069Z" fill="#BE5286"/>
</g>
<path d="M16.1745 14.4509C16.1745 14.4509 15.4334 14.8912 14.9016 15.423C14.3698 15.9549 13.9295 16.6959 13.9295 16.6959L18.3846 21.5085L19.6139 20.1397L20.9827 18.9104L16.1701 14.4553L16.1745 14.4509Z" fill="url(#paint8_linear_192_3123)"/>
<path d="M16.9721 17.7508C16.0698 18.6531 15.7254 19.5991 15.7254 19.5991L18.5545 22.9295L20.0802 20.8632L22.6565 19.4901L18.973 16.3994C18.973 16.3994 17.9181 16.8005 16.9678 17.7464L16.9721 17.7508Z" fill="url(#paint9_linear_192_3123)"/>
<path d="M22.661 19.4942C23.11 19.8691 22.4518 21.0243 21.2312 22.0095C20.076 22.9424 18.899 23.3303 18.559 22.9293C18.232 22.5413 18.7857 21.53 19.8406 20.6145C20.9478 19.6555 22.2294 19.1237 22.661 19.4899V19.4942Z" fill="url(#paint10_linear_192_3123)"/>
<g style="mix-blend-mode:multiply" opacity="0.5">
<path d="M20.0454 20.6496C19.5659 21.1073 19.3261 22.7551 19.6269 22.7027C19.9364 22.6461 22.4081 21.4255 22.613 19.8649C22.6609 19.4987 21.2442 19.5118 20.0454 20.6539V20.6496Z" fill="#BE5286"/>
</g>
<g style="mix-blend-mode:multiply" opacity="0.5">
<path d="M13.9118 20.6192C14.4567 20.2486 15.0321 20.4056 15.6904 21.0987C16.3486 21.7918 17.3512 22.8816 17.3861 23.0952C17.4253 23.3088 16.8499 24.1501 16.8499 24.1501C16.8499 24.1501 17.6476 23.5093 17.8787 23.6314C18.1097 23.7534 16.7322 26.2687 16.7932 26.1902C16.8543 26.1118 18.89 23.5921 18.8072 23.4308C18.7244 23.2696 18.0487 22.4326 18.0487 22.4326L18.0748 22.3585L16.0652 19.9914L15.9345 20.1222C15.9345 20.1222 15.4506 19.6601 15.3285 19.6907C15.2108 19.7212 14.8011 19.8825 14.8011 19.8825L13.9118 20.6192Z" fill="#BE5286"/>
</g>
<path d="M14.4177 25.4054C14.967 25.1047 15.2678 25.3488 15.307 25.4534C15.3462 25.5624 15.076 25.9111 14.9408 25.8196C14.8057 25.728 14.2826 25.4795 14.4177 25.4054Z" fill="#C4B8D9"/>
<path d="M12.4823 23.0773C12.5608 23.3781 12.7831 23.4086 12.9226 23.2865C13.0665 23.1645 12.3864 22.7068 12.4823 23.0773Z" fill="#C4B8D9"/>
<path d="M19.8753 17.1577C20.503 16.9049 21.0043 16.9136 21.2659 17.1751C21.5274 17.4367 21.4228 18.4524 21.4228 18.4524L19.8796 17.1577H19.8753Z" fill="url(#paint11_linear_192_3123)"/>
<g style="mix-blend-mode:soft-light" opacity="0.5">
<path d="M17.3121 9.35911C17.5737 9.62066 17.7699 9.69913 17.9181 9.58143C18.0663 9.46373 18.1709 8.32598 17.6216 7.32772C17.238 6.63461 17.2468 9.28936 17.3165 9.35911H17.3121Z" fill="white"/>
</g>
<g style="mix-blend-mode:multiply" opacity="0.5">
<path d="M8.29296 18.4177C8.36271 19.1588 10.5162 19.1108 12.5345 18.0951C12.9094 17.9077 12.8222 16.7917 12.5127 16.8658C12.2032 16.9356 11.0436 17.5459 9.88843 17.8205C8.73324 18.0951 8.27552 18.2477 8.29296 18.4221V18.4177Z" fill="#BE5286"/>
</g>
<g style="mix-blend-mode:multiply" opacity="0.5">
<path d="M15.8911 14.0673C15.9652 14.3593 16.5798 14.4291 16.7498 14.2591C17.9748 13.0385 18.0925 9.93039 17.9443 9.89116C17.7917 9.85193 17.504 9.96091 17.3165 10.1876C17.1247 10.4099 15.8649 13.9627 15.8911 14.0716V14.0673Z" fill="#BE5286"/>
</g>
<g style="mix-blend-mode:multiply" opacity="0.5">
<path d="M3.24509 17.0227C3.24509 17.0227 5.73855 18.7795 8.3715 18.9843C10.8955 19.1805 14.0385 17.4848 14.0385 17.4848C14.0385 17.4848 11.8066 19.2721 8.34971 19.15C5.29391 19.041 3.24509 17.0227 3.24509 17.0227Z" fill="#BE5286"/>
</g>
<g style="mix-blend-mode:soft-light" opacity="0.5">
<path d="M9.21249 9.64698C9.85765 10.218 11.9893 12.3846 12.216 12.2363C12.4427 12.0881 13.0094 11.3035 12.9047 11.1378C12.6998 10.8109 11.5447 9.49876 11.0172 9.25029C10.4897 9.00182 9.04248 9.49876 9.20813 9.65134L9.21249 9.64698Z" fill="white"/>
</g>
<g style="mix-blend-mode:multiply" opacity="0.5">
<path d="M9.03834 9.76004C8.41062 10.3878 10.7602 12.454 11.2179 12.7984C11.4185 12.9466 12.0898 12.502 12.02 12.4322C11.7803 12.1925 9.2563 9.54208 9.03398 9.76004H9.03834Z" fill="#BE5286"/>
</g>
<g style="mix-blend-mode:soft-light" opacity="0.5">
<path d="M9.07334 11.5126C9.26515 11.9005 10.8083 13.3957 11.0175 13.3478C11.2268 13.3042 11.4317 13.3391 9.858 11.9398C9.22591 11.3774 8.9818 11.3251 9.07334 11.5126Z" fill="white"/>
</g>
<g style="mix-blend-mode:soft-light" opacity="0.5">
<path d="M17.4776 17.4455C17.5343 17.6417 20.1716 20.1177 20.2937 20.0698C20.4157 20.0218 21.924 19.3636 21.9676 19.1543C22.0112 18.9451 19.1254 16.5301 18.951 16.5083C18.7767 16.4865 17.4035 17.2058 17.4776 17.4455Z" fill="white"/>
</g>
<g style="mix-blend-mode:multiply" opacity="0.5">
<path d="M16.8241 18.0168C16.811 18.1389 19.3655 20.9244 19.5442 20.8198C19.723 20.7151 20.1938 20.2443 20.124 20.1441C20.0543 20.0482 17.5434 17.6506 17.4039 17.5634C17.2687 17.4763 16.8415 17.8206 16.8197 18.0168H16.8241Z" fill="#BE5286"/>
</g>
<g style="mix-blend-mode:soft-light" opacity="0.5">
<path d="M15.8954 19.5641C16.1003 19.8475 18.1709 22.5415 18.354 22.4063C18.5414 22.2712 19.0035 21.3122 18.9294 21.1945C18.8597 21.0768 16.2921 19.3462 16.1613 19.2851C16.0305 19.2241 15.7995 19.4377 15.8954 19.5641Z" fill="white"/>
</g>
<path d="M20.0366 17.9555C20.0801 18.3957 20.8256 19.4114 21.0522 19.4289C21.3138 19.4507 21.8543 19.2981 21.741 19.0191C21.6277 18.7401 19.9973 17.5675 20.0366 17.9511V17.9555Z" fill="#C4B8D9"/>
<g style="mix-blend-mode:soft-light" opacity="0.5">
<path d="M15.0498 15.279C15.1631 15.5536 16.994 17.5065 17.177 17.4193C17.3601 17.3322 18.3148 16.7131 18.3322 16.6303C18.3497 16.5519 16.2049 14.5553 16.0698 14.5161C16.0698 14.5161 15.6077 14.83 15.4508 14.9477C15.3549 15.0218 15.0541 15.279 15.0541 15.279H15.0498Z" fill="white"/>
</g>
<g style="mix-blend-mode:multiply" opacity="0.5">
<path d="M14.9014 15.4226C14.9014 15.4226 14.5047 15.8716 14.5091 15.9196C14.5222 16.0634 16.5448 18.1689 16.6538 18.073C16.7628 17.9771 17.1987 17.5761 17.0941 17.5019C16.9938 17.4278 15.006 15.5316 14.8971 15.4226H14.9014Z" fill="#BE5286"/>
</g>
<g style="mix-blend-mode:soft-light" opacity="0.5">
<path d="M14.0034 16.6475C14.1429 16.8524 15.782 18.7138 15.8517 18.6789C15.9215 18.6441 14.4045 16.1942 14.2694 16.2029C14.2345 16.2029 14.0034 16.6432 14.0034 16.6432V16.6475Z" fill="white"/>
</g>
<path d="M15.8603 19.3069C15.8603 19.3069 16.4401 18.4394 17.2291 17.7463C18.0181 17.0532 18.6895 16.5344 18.6895 16.5344C18.6895 16.5344 17.6868 17.0444 16.9763 17.7506C16.2657 18.4612 15.8603 19.3069 15.8603 19.3069Z" fill="#7C759C"/>
<g style="mix-blend-mode:soft-light" opacity="0.5">
<path d="M17.3036 17.4499C17.1074 17.6591 17.9051 17.2319 17.9662 16.9573C17.9662 16.9573 17.4561 17.2799 17.3036 17.4499Z" fill="white"/>
</g>
<path d="M18.5717 22.1926C18.5717 22.1926 18.8071 21.0549 19.849 20.2528C20.8908 19.4507 22.107 19.3896 22.107 19.3896C22.107 19.3896 20.9475 19.6032 19.9841 20.5012C19.0207 21.3992 18.5761 22.197 18.5761 22.197L18.5717 22.1926Z" fill="#7C759C"/>
<path d="M16.8716 9.38109C16.536 9.48135 16.3442 11.2425 16.7147 11.2555C17.0852 11.2686 18.0268 9.03671 16.8716 9.38109Z" fill="#351E36"/>
<path d="M15.9171 11.2206C15.5553 11.4429 15.7864 11.9922 16.061 11.9834C16.3356 11.9747 16.7149 10.7323 15.9171 11.2206Z" fill="#351E36"/>
<path d="M15.7297 11.552C15.7297 11.552 15.769 12.2146 16.0785 12.11C16.388 12.0054 16.3705 11.5215 16.3705 11.5215C16.3705 11.5215 16.3182 11.8746 16.0479 11.8528C15.7777 11.831 15.7297 11.552 15.7297 11.552Z" fill="#6D678A"/>
<path d="M16.5144 10.5406C16.5144 10.5406 16.4533 11.382 16.7149 11.3776C16.9764 11.3689 17.3731 10.1614 17.3731 10.1614C17.3731 10.1614 16.9982 11.0201 16.7716 11.0855C16.5449 11.1509 16.5144 10.545 16.5144 10.545V10.5406Z" fill="#6D678A"/>
<g style="mix-blend-mode:multiply" opacity="0.5">
<path d="M16.6278 10.253C16.994 10.593 17.4909 10.1091 17.4081 9.59038C17.3689 9.35499 16.9199 9.29832 16.7978 9.49884C16.6801 9.69936 16.545 10.1745 16.6234 10.2486L16.6278 10.253Z" fill="#BE5286"/>
</g>
<g style="mix-blend-mode:multiply" opacity="0.5">
<path d="M15.7557 11.4127C15.6511 11.7091 16.3965 11.5304 16.3921 11.2689C16.3834 11.0073 15.8516 11.1424 15.7557 11.4127Z" fill="#BE5286"/>
</g>
<path d="M0.502967 11.0941C0.337317 11.8395 0.598869 12.8116 0.86914 12.6154C1.13941 12.4193 1.44455 11.2379 1.24403 10.8499C1.04351 10.462 0.629384 10.5274 0.502967 11.0897V11.0941Z" fill="#351E36"/>
<path d="M0.485456 12.0359C0.485456 12.0359 0.472378 12.838 0.794958 12.8119C1.1219 12.7901 1.28755 11.4998 1.28755 11.4998C1.28755 11.4998 0.973686 12.5808 0.777522 12.5242C0.581358 12.4675 0.485456 12.0316 0.485456 12.0316V12.0359Z" fill="#7C759C"/>
<g style="mix-blend-mode:multiply" opacity="0.5">
<path d="M0.450587 11.5082C0.459306 12.1141 1.3355 11.4733 1.30063 11.0548C1.26576 10.6363 0.433151 10.4227 0.450587 11.5082Z" fill="#BE5286"/>
</g>
<g style="mix-blend-mode:multiply" opacity="0.5">
<path d="M16.2354 14.5071C16.2354 14.5071 14.7838 15.0084 13.9861 16.7564L13.9251 16.6954C13.9251 16.6954 14.2564 15.5489 15.0454 14.7643C15.7908 14.0189 16.1701 14.4504 16.1701 14.4504L16.2311 14.5071H16.2354Z" fill="#BE5286"/>
</g>
<path d="M9.68359 9.23709C9.39153 9.49429 11.0175 9.36351 11.0219 9.24581C11.0219 9.12811 10.2285 8.76194 9.68359 9.23709Z" fill="#C4B8D9"/>
<g style="mix-blend-mode:soft-light" opacity="0.5">
<path d="M20.6292 17.6414C21.0433 17.6632 21.2831 17.2448 21.0041 17.1096C20.7251 16.9745 19.984 17.0486 20.0581 17.175C20.1322 17.3014 20.4635 17.6327 20.6335 17.6414H20.6292Z" fill="white"/>
</g>
<g style="mix-blend-mode:multiply" opacity="0.5">
<path d="M20.7429 17.7854C20.9478 18.047 21.1919 18.2955 21.3183 18.2301C21.4404 18.169 21.3837 17.3539 21.2616 17.4105C21.1439 17.4672 20.6688 17.6852 20.7429 17.7854Z" fill="#BE5286"/>
</g>
<g style="mix-blend-mode:multiply" opacity="0.5">
<path d="M9.43519 1.86991C9.5093 2.51943 13.3672 3.9754 13.4936 3.76616C13.62 3.55692 12.3907 1.66939 11.6497 1.44271C10.9086 1.21603 9.38724 1.44271 9.43519 1.86991Z" fill="#8F52BE"/>
</g>
<path d="M11.7454 3.2648C11.7454 3.2648 9.55705 2.2927 9.6268 1.79575C9.69655 1.30316 11.3879 1.31188 11.6451 1.44265C11.6451 1.44265 10.9389 1.17674 10.1848 1.29008C9.43063 1.40342 9.13857 1.62574 9.23883 1.86985C9.33909 2.11833 10.4812 2.82452 11.741 3.2648H11.7454Z" fill="#351E36"/>
<path d="M13.0531 3.71828C13.4934 3.76623 13.3059 3.12979 12.2772 1.88306C12.2772 1.88306 13.5195 2.98593 13.5675 3.76623C13.5849 4.04086 13.0531 3.71828 13.0531 3.71828Z" fill="#C4B8D9"/>
<g style="mix-blend-mode:multiply" opacity="0.5">
<path d="M12.5649 14.1979C13.1098 14.8256 14.0558 15.2877 14.6704 14.5074C15.285 13.7271 14.0601 12.8204 13.8291 12.9337C13.6024 13.0471 12.5649 14.1979 12.5649 14.1979Z" fill="#4F309E"/>
</g>
<path d="M12.7436 13.3088C12.1071 14.015 13.101 15.2966 14.0862 14.3158C14.9319 13.4701 13.8072 12.1318 12.7436 13.3088Z" fill="#281329"/>
<path d="M12.5215 13.0688C11.885 13.775 12.8789 15.0566 13.8641 14.0758C14.7098 13.2301 13.5851 11.8918 12.5215 13.0688Z" fill="url(#paint12_linear_192_3123)"/>
<path d="M12.5473 14.1064C13.0268 14.1456 13.8768 12.9076 13.7112 12.742C13.576 12.6068 13.1924 12.4804 12.6475 12.9381C12.1026 13.3958 12.4078 14.0977 12.5473 14.1064Z" fill="#9088B5"/>
<g style="mix-blend-mode:multiply" opacity="0.5">
<path d="M12.883 14.3419C13.1489 14.4771 13.7898 14.2853 14.0208 13.8188C14.2562 13.348 13.9903 12.8249 13.8246 12.9383C13.659 13.0516 12.7043 14.2547 12.8787 14.3463L12.883 14.3419Z" fill="#BE5286"/>
</g>
<g style="mix-blend-mode:multiply" opacity="0.5">
<path d="M2.98784 5.24428C3.53274 5.872 4.47869 6.33408 5.09333 5.55378C5.70798 4.77348 4.48304 3.86677 4.25201 3.98011C4.02533 4.09345 2.98784 5.24428 2.98784 5.24428Z" fill="#4F309E"/>
</g>
<path d="M3.17095 4.35496C2.53451 5.06115 3.5284 6.34275 4.51358 5.36193C5.35927 4.51625 4.23459 3.17798 3.17095 4.35496Z" fill="#281329"/>
<path d="M2.94849 4.11497C2.31205 4.82116 3.30595 6.10276 4.29113 5.12194C5.13681 4.27626 4.01214 2.93799 2.94849 4.11497Z" fill="url(#paint13_linear_192_3123)"/>
<path d="M2.97463 5.15693C3.45414 5.19616 4.30418 3.95815 4.13853 3.7925C4.0034 3.65737 3.61979 3.53095 3.07489 3.98867C2.52999 4.44638 2.83513 5.14821 2.97463 5.15693Z" fill="#9088B5"/>
<g style="mix-blend-mode:multiply" opacity="0.5">
<path d="M3.3101 5.38807C3.57601 5.52321 4.21681 5.3314 4.44785 4.86497C4.68325 4.39418 4.41734 3.87107 4.25169 3.98441C4.08604 4.09775 3.13137 5.30089 3.30574 5.39243L3.3101 5.38807Z" fill="#BE5286"/>
</g>
<g style="mix-blend-mode:multiply" opacity="0.5">
<path d="M3.10533 15.5753C3.65023 16.2031 4.59618 16.6651 5.21082 15.8848C5.82547 15.1045 4.60054 14.1978 4.3695 14.3112C4.13846 14.4245 3.10533 15.5753 3.10533 15.5753Z" fill="#4F309E"/>
</g>
<path d="M3.28844 14.686C2.652 15.3922 3.6459 16.6738 4.63108 15.693C5.47676 14.8473 4.35209 13.509 3.28844 14.686Z" fill="#281329"/>
<path d="M3.06194 14.4465C2.4255 15.1527 3.4194 16.4343 4.40457 15.4535C5.25026 14.6078 4.12559 13.2695 3.06194 14.4465Z" fill="url(#paint14_linear_192_3123)"/>
<path d="M3.09212 15.4838C3.57163 15.5231 4.42167 14.2851 4.25602 14.1194C4.12089 13.9843 3.73728 13.8579 3.19238 14.3156C2.64748 14.7733 2.95262 15.4751 3.09212 15.4838Z" fill="#9088B5"/>
<g style="mix-blend-mode:multiply" opacity="0.5">
<path d="M3.42376 15.715C3.68967 15.8501 4.33048 15.6583 4.56151 15.1919C4.79691 14.7211 4.531 14.198 4.36535 14.3113C4.1997 14.4247 3.24504 15.6278 3.4194 15.7193L3.42376 15.715Z" fill="#BE5286"/>
</g>
<g style="mix-blend-mode:multiply" opacity="0.5">
<path d="M13.4542 5.51877C13.9991 6.14649 15.5946 7.06629 16.0654 6.19445C16.3923 5.58416 14.9451 4.14126 14.7184 4.2546C14.4917 4.36794 13.4542 5.51877 13.4542 5.51877Z" fill="#4F309E"/>
</g>
<path d="M13.6373 4.62937C13.0009 5.33556 13.9948 6.61717 14.98 5.63635C15.8257 4.79066 14.701 3.45239 13.6373 4.62937Z" fill="#281329"/>
<path d="M13.4104 4.38963C12.774 5.09582 13.7679 6.37742 14.7531 5.3966C15.5988 4.55092 14.4741 3.21264 13.4104 4.38963Z" fill="url(#paint15_linear_192_3123)"/>
<path d="M13.441 5.42719C13.9205 5.46643 14.7706 4.22842 14.6049 4.06277C14.4698 3.92763 14.0862 3.80121 13.5413 4.25893C12.9964 4.71665 13.3015 5.41848 13.441 5.42719Z" fill="#9088B5"/>
<g style="mix-blend-mode:multiply" opacity="0.5">
<path d="M13.7724 5.66249C14.0383 5.79762 14.6791 5.60582 14.9101 5.13939C15.1455 4.66859 14.8796 4.14549 14.7139 4.25883C14.5483 4.37217 13.5936 5.5753 13.768 5.66685L13.7724 5.66249Z" fill="#BE5286"/>
</g>
<defs>
<linearGradient id="paint0_linear_192_3123" x1="9.69611" y1="12.6729" x2="12.2237" y2="10.1453" gradientUnits="userSpaceOnUse">
<stop stop-color="#3B1D47"/>
<stop offset="1" stop-color="#6F5B91"/>
</linearGradient>
<linearGradient id="paint1_linear_192_3123" x1="-0.260196" y1="5.87915" x2="4.73949" y2="0.879466" gradientUnits="userSpaceOnUse">
<stop stop-color="#3B1D47"/>
<stop offset="1" stop-color="#6F5B91"/>
</linearGradient>
<linearGradient id="paint2_linear_192_3123" x1="17.7008" y1="18.6062" x2="7.45486" y2="8.36029" gradientUnits="userSpaceOnUse">
<stop stop-color="#5B5788"/>
<stop offset="1" stop-color="#362047"/>
</linearGradient>
<linearGradient id="paint3_linear_192_3123" x1="2.33505" y1="15.7676" x2="15.0254" y2="3.07731" gradientUnits="userSpaceOnUse">
<stop stop-color="#4A3C66"/>
<stop offset="1" stop-color="#7B65A1"/>
</linearGradient>
<linearGradient id="paint4_linear_192_3123" x1="13.8139" y1="26.2665" x2="16.548" y2="20.2466" gradientUnits="userSpaceOnUse">
<stop stop-color="#5B5788"/>
<stop offset="1" stop-color="#4D3461"/>
</linearGradient>
<linearGradient id="paint5_linear_192_3123" x1="16.6962" y1="21.5654" x2="17.3558" y2="20.9057" gradientUnits="userSpaceOnUse">
<stop stop-color="#3B1D47"/>
<stop offset="1" stop-color="#6F5B91"/>
</linearGradient>
<linearGradient id="paint6_linear_192_3123" x1="15.2812" y1="26.7103" x2="18.6904" y2="23.3012" gradientUnits="userSpaceOnUse">
<stop stop-color="#5B5788"/>
<stop offset="1" stop-color="#362047"/>
</linearGradient>
<linearGradient id="paint7_linear_192_3123" x1="13.1359" y1="24.6509" x2="16.354" y2="21.4329" gradientUnits="userSpaceOnUse">
<stop stop-color="#3B1D47"/>
<stop offset="1" stop-color="#6F5B91"/>
</linearGradient>
<linearGradient id="paint8_linear_192_3123" x1="15.9811" y1="19.1183" x2="18.5827" y2="16.5167" gradientUnits="userSpaceOnUse">
<stop stop-color="#3B1D47"/>
<stop offset="1" stop-color="#6F5B91"/>
</linearGradient>
<linearGradient id="paint9_linear_192_3123" x1="17.0229" y1="21.4115" x2="20.7927" y2="17.6417" gradientUnits="userSpaceOnUse">
<stop stop-color="#3B1D47"/>
<stop offset="1" stop-color="#6F5B91"/>
</linearGradient>
<linearGradient id="paint10_linear_192_3123" x1="18.7337" y1="23.1282" x2="22.5066" y2="19.3553" gradientUnits="userSpaceOnUse">
<stop stop-color="#5B5788"/>
<stop offset="1" stop-color="#362047"/>
</linearGradient>
<linearGradient id="paint11_linear_192_3123" x1="20.5737" y1="17.8727" x2="21.2611" y2="17.1853" gradientUnits="userSpaceOnUse">
<stop stop-color="#3B1D47"/>
<stop offset="1" stop-color="#6F5B91"/>
</linearGradient>
<linearGradient id="paint12_linear_192_3123" x1="12.5565" y1="14.1954" x2="13.9159" y2="12.8361" gradientUnits="userSpaceOnUse">
<stop stop-color="#5B5788"/>
<stop offset="1" stop-color="#4D3461"/>
</linearGradient>
<linearGradient id="paint13_linear_192_3123" x1="2.98544" y1="5.24092" x2="4.3417" y2="3.88466" gradientUnits="userSpaceOnUse">
<stop stop-color="#5B5788"/>
<stop offset="1" stop-color="#4D3461"/>
</linearGradient>
<linearGradient id="paint14_linear_192_3123" x1="3.0996" y1="15.5703" x2="4.45894" y2="14.211" gradientUnits="userSpaceOnUse">
<stop stop-color="#5B5788"/>
<stop offset="1" stop-color="#4D3461"/>
</linearGradient>
<linearGradient id="paint15_linear_192_3123" x1="13.4501" y1="5.51529" x2="14.8064" y2="4.15902" gradientUnits="userSpaceOnUse">
<stop stop-color="#5B5788"/>
<stop offset="1" stop-color="#4D3461"/>
</linearGradient>
</defs>
</svg>
