<svg width="27" height="31" viewBox="0 0 27 31" fill="none" xmlns="http://www.w3.org/2000/svg">
<path d="M10.7632 10.0598C10.2396 10.5834 9.70123 11.8626 10.8076 12.9641C11.914 14.0705 13.0204 14.9003 13.7218 15.6066L14.9468 14.2434L16.31 13.0184C15.6037 12.3121 14.7739 11.2057 13.6675 10.1043C12.5611 9.00278 11.2867 9.53623 10.7632 10.0598Z" fill="url(#paint0_linear_192_3539)"/>
<g style="mix-blend-mode:multiply" opacity="0.5">
<path d="M10.1655 11.428C10.1655 11.428 10.0865 12.2874 10.8076 12.9641C11.3559 13.4778 13.0896 15.0189 13.0896 15.0189L13.4699 15.0584C13.4699 15.0584 11.8795 13.8878 10.9756 12.7468C10.531 12.1886 10.1655 11.428 10.1655 11.428Z" fill="#6E5066"/>
</g>
<path d="M2.1836 5.37713L5.86339 1.69735C5.86339 1.69735 3.6654 1.32196 2.63802 2.30489C1.57113 3.32238 2.1836 5.37713 2.1836 5.37713Z" fill="#423E75"/>
<path d="M1.94161 1.76154C-0.483592 3.96941 1.37853 7.11575 1.37853 7.11575L3.18137 5.3129C2.66275 4.84367 2.56396 3.69281 3.03814 3.026C3.71976 2.56171 4.93483 2.40365 5.47321 3.026L7.04391 1.4553C7.04391 1.4553 4.18899 -0.273456 1.94161 1.76648V1.76154Z" fill="url(#paint1_linear_192_3539)"/>
<path d="M4.4902 4.2412C0.85487 7.87653 0.158428 13.6703 3.22574 17.5526C6.67832 21.9239 13.46 22.2351 17.9646 17.7354C22.4693 13.2307 21.7136 6.10826 17.3966 2.69025C13.5588 -0.35236 8.12553 0.605866 4.4902 4.24614V4.2412ZM15.1048 14.8805C12.3733 17.6119 7.77978 16.9698 5.6213 14.4705C3.61594 12.1441 4.9298 9.4818 7.34018 7.06648C9.75551 4.65116 12.9315 3.79172 15.2974 5.83166C17.8412 8.02965 17.8362 12.149 15.1048 14.8805Z" fill="url(#paint2_linear_192_3539)"/>
<path d="M3.79381 3.37681C0.207872 6.96274 -0.508328 12.6281 2.47502 16.3919C5.82387 20.6199 12.4475 20.862 16.8731 16.4314C21.2987 12.0058 20.622 5.06605 16.4335 1.75671C12.7043 -1.19205 7.37481 -0.214072 3.78887 3.37187L3.79381 3.37681ZM14.1021 13.6802C11.4201 16.3623 6.93027 15.7843 4.83601 13.3641C2.88498 11.1068 3.69009 7.99012 6.04614 5.63407C8.40219 3.27802 12.0622 2.873 14.359 4.84872C16.8286 6.97262 16.7891 10.9932 14.1071 13.6802H14.1021Z" fill="url(#paint3_linear_192_3539)"/>
<g style="mix-blend-mode:soft-light" opacity="0.9">
<path d="M5.84853 14.9297C6.0955 15.4681 3.77402 17.5722 2.73183 16.4806C1.72421 15.4236 -0.276212 12.3217 1.58591 7.42192C3.05782 3.54456 7.36984 0.235225 11.4151 0.2698C15.7667 0.304375 18.0338 3.92489 18.7154 5.03129C19.4168 6.17227 17.3176 9.84712 16.8928 9.14574C16.4779 8.45423 16.1667 5.42644 13.2229 3.87549C10.6644 2.52706 6.41161 4.00392 4.70755 6.63163C2.97385 9.30379 3.00843 10.7164 4.18892 12.8058C4.67792 13.6751 5.58675 14.3666 5.84853 14.9297Z" fill="#CADAFC"/>
</g>
<g style="mix-blend-mode:multiply" opacity="0.2">
<path d="M6.40669 15.8733C5.62134 16.1597 3.90246 17.3847 4.14449 17.6909C4.39145 17.9972 8.81213 20.8521 13.5736 18.4219C17.5152 16.4067 19.0118 12.6429 19.3674 11.3933C19.7181 10.1634 19.565 7.30355 18.9822 7.75303C18.3993 8.20251 16.5718 10.0646 16.1519 11.1513C15.7272 12.2478 14.3145 14.4557 13.1439 15.241C9.8889 17.4341 6.86605 15.7103 6.40669 15.8782V15.8733Z" fill="#7F6593"/>
</g>
<path d="M0.766021 12.6579C0.766021 12.6579 0.143669 8.76571 2.22312 5.55515C4.04078 2.74469 7.38964 0.882568 7.38964 0.882568C7.38964 0.882568 3.8037 2.08776 1.67979 6.09848C-0.216901 9.67454 0.766021 12.6579 0.766021 12.6579Z" fill="#D1D9E8"/>
<path d="M6.78708 14.8063C6.78708 14.8063 8.99001 17.0586 12.324 15.4632C15.747 13.8283 16.068 9.9707 16.068 9.9707C16.068 9.9707 15.6235 13.4134 11.9388 15.0483C10.0322 15.8929 6.78708 14.8013 6.78708 14.8013V14.8063Z" fill="#D1D9E8"/>
<path d="M10.0915 3.62364C10.0915 3.62364 7.03403 3.35691 5.06818 5.35733C3.10234 7.35775 3.25052 9.37793 3.75927 10.9536C3.75927 10.9536 3.55676 8.07889 5.6856 6.00932C7.81938 3.93481 10.0865 3.62364 10.0865 3.62364H10.0915Z" fill="#D1D9E8"/>
<path d="M7.18715 1.33677C6.86116 1.9937 9.76053 1.97888 9.9828 1.69734C10.2051 1.4158 10.3829 0.294576 9.88402 0.260001C9.39009 0.225425 7.444 0.813203 7.18715 1.33677Z" fill="white"/>
<path d="M10.5014 15.9127C10.5409 16.2238 11.7906 16.3967 12.4673 15.8188C13.144 15.2409 13.0946 14.8902 12.7439 14.8803C12.3932 14.8655 10.4668 15.6212 10.5014 15.9176V15.9127Z" fill="white"/>
<g style="mix-blend-mode:soft-light">
<path d="M4.13956 8.47922C4.13956 8.47922 4.87551 9.12133 5.54726 9.24975C5.54726 9.24975 6.63885 7.63954 7.96752 6.48868C7.96752 6.48868 7.07845 5.7873 6.64873 5.19458C6.64873 5.19458 4.90021 6.44423 4.13956 8.48416V8.47922Z" fill="white"/>
</g>
<path d="M4.52977 7.48643C4.33714 7.04683 4.83107 6.29605 5.15706 6.10836C5.48305 5.92066 5.68557 5.80706 5.68557 6.00957C5.68557 6.21208 4.56928 7.58027 4.52483 7.48643H4.52977Z" fill="white"/>
<g style="mix-blend-mode:soft-light" opacity="0.5">
<path d="M4.19386 8.77035C4.40131 8.87901 5.35953 9.36801 5.27063 9.52113C5.18666 9.6693 4.36179 10.8696 4.55937 12.6922C4.55937 12.6922 3.56162 11.2598 3.79377 10.0447C4.02592 8.84938 4.02098 8.68638 4.18892 8.77529L4.19386 8.77035Z" fill="#25425C"/>
</g>
<g style="mix-blend-mode:soft-light" opacity="0.5">
<path d="M6.8957 5.26365C7.04388 5.42171 7.84405 6.33055 8.07619 6.21694C8.31328 6.10334 10.1408 4.40915 12.2993 4.48818C12.6944 4.503 12.0326 3.6485 10.5557 3.84607C9.11345 4.03871 6.67343 5.03151 6.89076 5.26365H6.8957Z" fill="#25425C"/>
</g>
<g style="mix-blend-mode:soft-light">
<path d="M1.89219 1.94435C1.74402 2.39383 2.22313 2.59634 2.62815 2.68525C3.31472 2.84331 5.43368 1.70233 5.66089 1.50475C5.8881 1.30718 5.08793 0.803373 4.19885 0.818191C3.32459 0.833009 1.9811 1.65787 1.88726 1.93941L1.89219 1.94435Z" fill="white"/>
</g>
<g style="mix-blend-mode:soft-light" opacity="0.5">
<path d="M1.14634 2.92728C0.795653 3.52988 0.943832 5.99953 1.38837 5.65378C2.99365 4.39425 2.64295 3.79166 2.70223 3.34218C2.75656 2.8927 1.56125 2.2259 1.14634 2.93222V2.92728Z" fill="#25425C"/>
</g>
<path d="M2.88992 3.00636C2.65777 3.29284 2.75655 4.41406 2.75655 4.41406C2.75655 4.41406 2.63801 3.80159 3.00846 3.07551C3.04303 3.00636 3.37397 2.7347 4.24823 2.62109C4.24823 2.62109 3.18133 2.65073 2.88992 3.0113V3.00636Z" fill="#D1D9E8"/>
<g style="mix-blend-mode:multiply" opacity="0.5">
<path d="M1.55141 2.14185C1.55141 2.14185 -0.206987 4.00396 1.25999 6.98237C1.25999 6.98237 -0.0637465 9.59032 0.825329 12.9392C0.825329 12.9392 0.0745535 9.42239 1.41805 6.88358C1.48226 6.7601 1.37359 6.57241 1.3242 6.46374C1.1365 6.0192 0.785815 5.06098 0.864844 3.97927C0.933994 2.98647 1.54647 2.14678 1.54647 2.14678L1.55141 2.14185Z" fill="#6E5066"/>
</g>
<path d="M2.92945 1.53435C2.90969 1.66277 4.13464 1.44544 4.16428 1.3269C4.23343 1.0009 3.9914 0.80827 3.65059 0.916935C3.15172 1.07499 2.94921 1.42074 2.92945 1.53435Z" fill="white"/>
<g style="mix-blend-mode:multiply" opacity="0.5">
<path d="M16.2409 18.1799C16.2754 16.9945 17.9252 14.9348 19.6638 13.8333C20.0787 13.5715 20.5183 13.5518 20.5183 13.5518C20.2417 14.6878 19.1797 16.708 17.8412 17.8391L16.2359 18.1799H16.2409Z" fill="#6E5066"/>
</g>
<path d="M21.7531 25.7618C21.7531 25.7618 21.7679 25.8013 21.7679 25.8112C21.7679 25.826 21.7531 25.8458 21.7333 25.8803C21.7333 25.8803 21.7333 25.8853 21.7284 25.8902C21.3678 26.4928 18.5771 30.1281 18.5771 30.1281C18.3302 30.0047 17.3571 29.0909 17.3571 29.0909L18.0684 27.8413L19.1995 25.8507L17.9004 24.606C17.9004 24.606 15.6234 26.9423 15.5197 26.8978C15.3863 26.8435 14.8875 26.2014 14.8875 26.2014L13.865 24.7789L17.2287 21.7857C17.2287 21.7857 17.5201 21.6325 17.8263 21.5683C18.1227 21.5091 21.5061 25.2234 21.7531 25.7569V25.7618Z" fill="url(#paint4_linear_192_3539)"/>
<path d="M18.2858 22.2944C18.3253 22.576 20.5332 24.8826 20.627 24.9123C20.7209 24.9419 21.363 24.1763 21.363 24.1763L18.8835 21.6968L18.2809 22.2994L18.2858 22.2944Z" fill="url(#paint5_linear_192_3539)"/>
<path d="M21.7531 25.7617C21.7531 25.7617 21.7729 25.7914 21.768 25.8111C21.768 25.821 21.7531 25.8408 21.7334 25.8803C21.7334 25.8803 21.7334 25.8852 21.7284 25.8902C21.3679 26.4927 18.5772 30.1281 18.5772 30.1281C18.3302 30.0046 17.3571 29.0908 17.3571 29.0908L18.0684 27.8412L20.4985 25.5049C20.7653 25.5148 21.6198 25.6382 21.7531 25.7667V25.7617Z" fill="url(#paint6_linear_192_3539)"/>
<path d="M20.4985 25.5049C20.4442 25.663 17.446 28.9822 17.3571 29.0909C17.2682 29.2045 15.9346 27.698 15.8852 27.53C15.8358 27.3621 17.9004 25.1938 17.9004 25.1938C17.8807 25.0999 17.036 24.2553 17.036 24.2553C17.036 24.2553 15.0356 26.1717 14.8776 26.1964C14.7442 26.2162 13.8551 24.7739 13.8551 24.7739C13.8551 24.7739 15.3122 23.3168 17.2188 21.7856C17.2929 21.7264 20.543 25.3518 20.4936 25.5L20.4985 25.5049Z" fill="url(#paint7_linear_192_3539)"/>
<g style="mix-blend-mode:soft-light">
<path d="M17.614 29.1108C17.777 29.4763 18.4833 29.8862 18.6216 29.7183C18.7599 29.5553 19.649 27.2338 19.4366 27.2635C19.2242 27.2931 17.4559 28.7502 17.614 29.1108Z" fill="white"/>
</g>
<g style="mix-blend-mode:multiply" opacity="0.5">
<path d="M15.8853 27.53C15.8853 27.53 17.0559 29.1995 18.5772 30.1232C18.5772 30.1232 17.619 29.3477 17.4856 28.9822C17.4856 28.9822 16.3545 28.1326 15.8853 27.53Z" fill="#6E5066"/>
</g>
<g style="mix-blend-mode:soft-light">
<path d="M14.0083 24.8381C14.117 25.1839 14.7838 26.1075 15.0307 25.9198C15.2777 25.7371 16.4483 24.7196 16.5471 24.4183C16.6459 24.117 16.2754 22.9019 15.9741 23.0451C15.6728 23.1884 13.9342 24.606 14.0083 24.8381Z" fill="white"/>
</g>
<g style="mix-blend-mode:soft-light">
<path d="M16.0927 27.451C16.0433 27.7425 17.3966 28.7797 17.4707 28.7501C17.8461 28.6019 19.3328 26.9324 19.2242 26.6953C19.1205 26.4582 18.0634 25.3419 17.7621 25.6383C17.4608 25.9347 16.1421 27.1497 16.0927 27.451Z" fill="white"/>
</g>
<g style="mix-blend-mode:multiply" opacity="0.5">
<path d="M14.0528 24.5959L13.8602 24.7836C13.8602 24.7836 13.8453 24.9121 14.2207 25.5394C14.606 26.1913 15.3815 27.0162 15.4605 27.0113C15.5395 27.0063 15.9445 26.547 15.9445 26.547C15.9445 26.547 15.6186 26.873 15.4654 26.7742C15.3173 26.6803 15.0011 26.2506 14.9666 26.2111C14.932 26.1716 15.1049 26.0135 15.1049 26.0135C15.1049 26.0135 14.9517 26.2605 14.6455 25.8752C14.3491 25.4998 13.87 24.8874 13.9095 24.8133C13.9491 24.7342 14.0479 24.5959 14.0479 24.5959H14.0528Z" fill="#6E5066"/>
</g>
<g style="mix-blend-mode:soft-light" opacity="0.5">
<path d="M17.6337 24.8777L17.041 24.2603C17.041 24.2603 16.0482 25.2531 15.821 26.0285C15.5888 26.8336 16.2112 26.2903 16.2112 26.2903L17.6337 24.8727V24.8777Z" fill="#25425C"/>
</g>
<path d="M18.7846 15.6311C18.7846 15.6311 17.9449 16.13 17.3423 16.7326C16.7397 17.3352 16.2409 18.1748 16.2409 18.1748L21.2888 23.6278L22.6817 22.0769L24.2327 20.684L18.7797 15.636L18.7846 15.6311Z" fill="url(#paint8_linear_192_3539)"/>
<path d="M19.6935 19.3752C18.6711 20.3976 18.2809 21.4694 18.2809 21.4694L21.4865 25.2431L23.2152 22.9018L26.1344 21.346L21.9607 17.844C21.9607 17.844 20.7653 18.2984 19.6886 19.3702L19.6935 19.3752Z" fill="url(#paint9_linear_192_3539)"/>
<path d="M26.1343 21.3462C26.6431 21.771 25.8972 23.0799 24.5142 24.1962C23.2053 25.2532 21.8717 25.6928 21.4864 25.2384C21.116 24.7988 21.7433 23.6529 22.9386 22.6156C24.1932 21.529 25.6453 20.9264 26.1343 21.3413V21.3462Z" fill="url(#paint10_linear_192_3539)"/>
<g style="mix-blend-mode:soft-light" opacity="0.5">
<path d="M23.1707 22.6551C22.6274 23.1738 22.3557 25.0408 22.6965 24.9816C23.0472 24.9173 25.8478 23.5343 26.08 21.7661C26.1343 21.3512 24.529 21.366 23.1707 22.6601V22.6551Z" fill="#25425C"/>
</g>
<g style="mix-blend-mode:soft-light" opacity="0.5">
<path d="M16.2211 22.6252C16.8385 22.2054 17.4905 22.3832 18.2363 23.1686C18.9822 23.9539 20.1182 25.1887 20.1577 25.4308C20.1972 25.6728 19.5502 26.6261 19.5502 26.6261C19.5502 26.6261 20.4541 25.9 20.7159 26.0383C20.9776 26.1766 19.4168 29.0266 19.486 28.9377C19.5551 28.8488 21.8618 25.9939 21.7679 25.8111C21.6741 25.6283 20.9085 24.68 20.9085 24.68L20.9381 24.596L18.6611 21.914L18.5129 22.0622C18.5129 22.0622 17.9647 21.5386 17.8264 21.5732C17.693 21.6077 17.2287 21.7905 17.2287 21.7905L16.2211 22.6252Z" fill="#25425C"/>
</g>
<path d="M16.799 28.0439C17.4214 27.7031 17.7622 27.9797 17.8067 28.0982C17.8511 28.2217 17.5449 28.6168 17.3918 28.5131C17.2386 28.4094 16.6459 28.1278 16.799 28.0439Z" fill="white"/>
<path d="M14.601 25.406C14.6899 25.7468 14.9418 25.7814 15.0999 25.6431C15.2629 25.5048 14.4924 24.9862 14.601 25.406Z" fill="white"/>
<path d="M22.978 18.6986C23.6893 18.4121 24.2573 18.422 24.5537 18.7183C24.85 19.0147 24.7315 20.1655 24.7315 20.1655L22.983 18.6986H22.978Z" fill="url(#paint11_linear_192_3539)"/>
<g style="mix-blend-mode:soft-light">
<path d="M20.0738 9.86207C20.3702 10.1584 20.5925 10.2473 20.7604 10.114C20.9283 9.98062 21.0469 8.69146 20.4245 7.56036C19.9899 6.77501 19.9997 9.78304 20.0788 9.86207H20.0738Z" fill="white"/>
</g>
<g style="mix-blend-mode:soft-light" opacity="0.5">
<path d="M9.85432 20.1262C9.93335 20.9658 12.3734 20.9115 14.6603 19.7607C15.085 19.5483 14.9863 18.2838 14.6356 18.3678C14.2849 18.4468 12.971 19.1383 11.6621 19.4495C10.3532 19.7607 9.83456 19.9335 9.85432 20.1311V20.1262Z" fill="#25425C"/>
</g>
<g style="mix-blend-mode:soft-light" opacity="0.5">
<path d="M18.4635 15.2017C18.5475 15.5326 19.2439 15.6117 19.4366 15.419C20.8245 14.036 20.9579 10.5143 20.7899 10.4698C20.6171 10.4254 20.2911 10.5489 20.0787 10.8057C19.8614 11.0576 18.4339 15.0832 18.4635 15.2066V15.2017Z" fill="#25425C"/>
</g>
<g style="mix-blend-mode:multiply" opacity="0.5">
<path d="M4.13461 18.5454C4.13461 18.5454 6.9599 20.536 9.94324 20.7681C12.8031 20.9904 16.3643 19.069 16.3643 19.069C16.3643 19.069 13.8354 21.0941 9.91854 20.9558C6.45609 20.8323 4.13461 18.5454 4.13461 18.5454Z" fill="#6E5066"/>
</g>
<g style="mix-blend-mode:soft-light">
<path d="M10.8965 10.1881C11.6226 10.8352 14.0429 13.29 14.2997 13.1221C14.5566 12.9541 15.1987 12.0651 15.0801 11.8774C14.848 11.5069 13.5391 10.0202 12.9414 9.73864C12.3438 9.4571 10.7039 10.0202 10.8916 10.1931L10.8965 10.1881Z" fill="white"/>
</g>
<g style="mix-blend-mode:multiply" opacity="0.5">
<path d="M10.6989 10.3167C9.98768 11.0279 12.65 13.3692 13.1686 13.7594C13.3958 13.9273 14.1565 13.4235 14.0774 13.3445C13.8058 13.0728 10.9459 10.0697 10.694 10.3167H10.6989Z" fill="#6E5066"/>
</g>
<g style="mix-blend-mode:soft-light">
<path d="M10.7385 12.3022C10.9558 12.7418 12.7043 14.4359 12.9414 14.3816C13.1785 14.3322 13.4107 14.3717 11.6276 12.7862C10.9114 12.149 10.6348 12.0898 10.7385 12.3022Z" fill="white"/>
</g>
<g style="mix-blend-mode:soft-light">
<path d="M20.2614 19.0295C20.3256 19.2518 23.3139 22.0573 23.4522 22.003C23.5905 21.9487 25.2995 21.2028 25.3489 20.9658C25.3983 20.7287 22.1285 17.9923 21.9309 17.9676C21.7333 17.9429 20.1775 18.7579 20.2614 19.0295Z" fill="white"/>
</g>
<g style="mix-blend-mode:multiply" opacity="0.2">
<path d="M19.5206 19.6764C19.5058 19.8147 22.4002 22.9709 22.6028 22.8524C22.8053 22.7289 23.3387 22.2004 23.2597 22.0868C23.1807 21.9732 20.3356 19.2615 20.1776 19.1627C20.0244 19.0639 19.5404 19.4541 19.5157 19.6764H19.5206Z" fill="#7F6593"/>
</g>
<g style="mix-blend-mode:soft-light">
<path d="M18.4685 21.4301C18.7007 21.7511 21.0468 24.8036 21.2543 24.6505C21.4667 24.4974 21.9902 23.4107 21.9063 23.2774C21.8272 23.144 18.918 21.1831 18.7698 21.114C18.6216 21.0448 18.3599 21.2868 18.4685 21.4301Z" fill="white"/>
</g>
<path d="M23.1609 19.6076C23.2103 20.1064 24.0549 21.2573 24.3118 21.277C24.6081 21.3017 25.2206 21.1289 25.0922 20.8127C24.9638 20.4966 23.1165 19.168 23.1609 19.6026V19.6076Z" fill="white"/>
<g style="mix-blend-mode:soft-light">
<path d="M17.5103 16.5746C17.6387 16.8858 19.7132 19.0986 19.9207 18.9998C20.1281 18.901 21.2098 18.1996 21.2296 18.1058C21.2494 18.0169 18.8192 15.7547 18.6661 15.7102C18.6661 15.7102 18.1425 16.0658 17.9647 16.1992C17.8561 16.2832 17.5152 16.5746 17.5152 16.5746H17.5103Z" fill="white"/>
</g>
<g style="mix-blend-mode:multiply" opacity="0.5">
<path d="M17.3423 16.7327C17.3423 16.7327 16.8928 17.2414 16.8977 17.2957C16.9126 17.4587 19.2044 19.8444 19.3279 19.7358C19.4514 19.6271 19.9453 19.1727 19.8268 19.0887C19.7132 19.0047 17.4608 16.8561 17.3373 16.7327H17.3423Z" fill="#6E5066"/>
</g>
<g style="mix-blend-mode:soft-light">
<path d="M16.3248 18.1205C16.4829 18.3527 18.34 20.4618 18.4191 20.4223C18.4981 20.3827 16.7792 17.6068 16.6261 17.6167C16.5866 17.6167 16.3248 18.1156 16.3248 18.1156V18.1205Z" fill="white"/>
</g>
<path d="M18.4289 21.1336C18.4289 21.1336 19.0859 20.1507 19.9749 19.3653C20.869 18.58 21.6296 17.9922 21.6296 17.9922C21.6296 17.9922 20.4936 18.5701 19.6885 19.3703C18.8834 20.1754 18.424 21.1336 18.424 21.1336H18.4289Z" fill="#D1D9E8"/>
<g style="mix-blend-mode:soft-light">
<path d="M20.0639 19.0345C19.8416 19.2715 20.7455 18.7875 20.8146 18.4763C20.8146 18.4763 20.2368 18.8418 20.0639 19.0345Z" fill="white"/>
</g>
<path d="M21.5012 24.4084C21.5012 24.4084 21.7679 23.1192 22.9484 22.2104C24.1289 21.3016 25.507 21.2324 25.507 21.2324C25.507 21.2324 24.1931 21.4744 23.1015 22.4919C22.005 23.5094 21.5061 24.4133 21.5061 24.4133L21.5012 24.4084Z" fill="#D1D9E8"/>
<path d="M19.7182 9.84732C19.3379 9.96093 19.1206 11.9564 19.5404 11.9712C19.9603 11.986 21.0271 9.45712 19.7182 9.84732Z" fill="#423E75"/>
<path d="M18.6365 11.9317C18.2265 12.1837 18.4883 12.806 18.7995 12.7961C19.1107 12.7862 19.5404 11.3785 18.6365 11.9317Z" fill="#423E75"/>
<path d="M18.4241 12.307C18.4241 12.307 18.4686 13.0578 18.8192 12.9393C19.1699 12.8207 19.1502 12.2725 19.1502 12.2725C19.1502 12.2725 19.0909 12.6725 18.7847 12.6478C18.4784 12.6232 18.4241 12.307 18.4241 12.307Z" fill="#D1D9E8"/>
<path d="M19.3132 11.1614C19.3132 11.1614 19.2441 12.1147 19.5404 12.1098C19.8368 12.0999 20.2863 10.7317 20.2863 10.7317C20.2863 10.7317 19.8615 11.7047 19.6046 11.7788C19.3478 11.8529 19.3132 11.1663 19.3132 11.1663V11.1614Z" fill="#D1D9E8"/>
<g style="mix-blend-mode:multiply" opacity="0.5">
<path d="M19.4416 10.8354C19.8565 11.2207 20.4196 10.6724 20.3258 10.0847C20.2813 9.81795 19.7726 9.75374 19.6343 9.98095C19.5009 10.2082 19.3478 10.7465 19.4367 10.8305L19.4416 10.8354Z" fill="#6E5066"/>
</g>
<g style="mix-blend-mode:multiply" opacity="0.5">
<path d="M18.4537 12.1542C18.3352 12.4901 19.1798 12.2876 19.1749 11.9912C19.1699 11.6948 18.5624 11.848 18.4537 12.1542Z" fill="#6E5066"/>
</g>
<path d="M1.02782 11.8282C0.840122 12.6728 1.13648 13.7743 1.44272 13.552C1.74895 13.3297 2.09471 11.9912 1.8675 11.5516C1.64029 11.112 1.17106 11.1861 1.02782 11.8232V11.8282Z" fill="#423E75"/>
<path d="M1.00808 12.8949C1.00808 12.8949 0.993262 13.8037 1.35877 13.7741C1.72922 13.7494 1.91691 12.2874 1.91691 12.2874C1.91691 12.2874 1.56128 13.5123 1.33901 13.4481C1.11674 13.3839 1.00808 12.8899 1.00808 12.8899V12.8949Z" fill="#D1D9E8"/>
<g style="mix-blend-mode:multiply" opacity="0.5">
<path d="M0.968507 12.2972C0.978385 12.9838 1.97119 12.2577 1.93167 11.7835C1.89216 11.3094 0.948749 11.0673 0.968507 12.2972Z" fill="#6E5066"/>
</g>
<g style="mix-blend-mode:multiply" opacity="0.5">
<path d="M18.8537 15.7004C18.8537 15.7004 17.209 16.2684 16.3051 18.249L16.2359 18.1799C16.2359 18.1799 16.6113 16.8809 17.5053 15.9918C18.3499 15.1472 18.7797 15.6362 18.7797 15.6362L18.8488 15.7004H18.8537Z" fill="#6E5066"/>
</g>
<path d="M11.43 9.72885C11.099 10.0203 12.9414 9.87209 12.9463 9.73873C12.9463 9.60537 12.0474 9.19047 11.43 9.72885Z" fill="white"/>
<g style="mix-blend-mode:soft-light">
<path d="M23.8326 19.247C24.3018 19.2717 24.5735 18.7975 24.2574 18.6444C23.9412 18.4912 23.1016 18.5752 23.1855 18.7184C23.2695 18.8617 23.6449 19.2371 23.8375 19.247H23.8326Z" fill="white"/>
</g>
<g style="mix-blend-mode:multiply" opacity="0.5">
<path d="M23.961 19.4099C24.1931 19.7063 24.4697 19.9878 24.613 19.9137C24.7513 19.8446 24.6871 18.9209 24.5488 18.9851C24.4154 19.0493 23.877 19.2963 23.961 19.4099Z" fill="#6E5066"/>
</g>
<defs>
<linearGradient id="paint0_linear_192_3539" x1="16.0648" y1="16.0717" x2="9.45672" y2="8.05267" gradientUnits="userSpaceOnUse">
<stop stop-color="#84759B"/>
<stop offset="0.39" stop-color="#96A9D0"/>
<stop offset="1" stop-color="#D8DFED"/>
</linearGradient>
<linearGradient id="paint1_linear_192_3539" x1="1.60884" y1="6.91735" x2="4.64393" y2="0.990374" gradientUnits="userSpaceOnUse">
<stop stop-color="#84759B"/>
<stop offset="0.39" stop-color="#96A9D0"/>
<stop offset="1" stop-color="#D8DFED"/>
</linearGradient>
<linearGradient id="paint2_linear_192_3539" x1="18.5026" y1="18.3348" x2="5.64622" y2="5.47852" gradientUnits="userSpaceOnUse">
<stop stop-color="#786DAB"/>
<stop offset="0.53" stop-color="#6867A3"/>
<stop offset="1" stop-color="#54517A"/>
</linearGradient>
<linearGradient id="paint3_linear_192_3539" x1="16.6854" y1="16.0758" x2="-1.40234" y2="-1.37975" gradientUnits="userSpaceOnUse">
<stop stop-color="#84759B"/>
<stop offset="0.39" stop-color="#96A9D0"/>
<stop offset="1" stop-color="#D8DFED"/>
</linearGradient>
<linearGradient id="paint4_linear_192_3539" x1="16.1101" y1="29.0188" x2="19.2046" y2="22.2012" gradientUnits="userSpaceOnUse">
<stop stop-color="#786DAB"/>
<stop offset="0.53" stop-color="#6867A3"/>
<stop offset="1" stop-color="#54517A"/>
</linearGradient>
<linearGradient id="paint5_linear_192_3539" x1="18.6738" y1="24.4575" x2="20.8148" y2="22.1768" gradientUnits="userSpaceOnUse">
<stop stop-color="#786DAB"/>
<stop offset="0.53" stop-color="#6867A3"/>
<stop offset="1" stop-color="#54517A"/>
</linearGradient>
<linearGradient id="paint6_linear_192_3539" x1="20.916" y1="29.1025" x2="18.4013" y2="26.057" gradientUnits="userSpaceOnUse">
<stop stop-color="#786DAB"/>
<stop offset="0.53" stop-color="#6867A3"/>
<stop offset="1" stop-color="#54517A"/>
</linearGradient>
<linearGradient id="paint7_linear_192_3539" x1="15.6561" y1="26.8743" x2="19.2989" y2="23.1547" gradientUnits="userSpaceOnUse">
<stop stop-color="#84759B"/>
<stop offset="0.39" stop-color="#96A9D0"/>
<stop offset="1" stop-color="#D8DFED"/>
</linearGradient>
<linearGradient id="paint8_linear_192_3539" x1="18.5515" y1="21.3174" x2="21.4434" y2="17.9156" gradientUnits="userSpaceOnUse">
<stop stop-color="#84759B"/>
<stop offset="0.39" stop-color="#96A9D0"/>
<stop offset="1" stop-color="#D8DFED"/>
</linearGradient>
<linearGradient id="paint9_linear_192_3539" x1="19.8788" y1="23.895" x2="23.7556" y2="19.3407" gradientUnits="userSpaceOnUse">
<stop stop-color="#84759B"/>
<stop offset="0.39" stop-color="#96A9D0"/>
<stop offset="1" stop-color="#D8DFED"/>
</linearGradient>
<linearGradient id="paint10_linear_192_3539" x1="21.8835" y1="25.6067" x2="25.7603" y2="21.0453" gradientUnits="userSpaceOnUse">
<stop stop-color="#786DAB"/>
<stop offset="0.53" stop-color="#6867A3"/>
<stop offset="1" stop-color="#54517A"/>
</linearGradient>
<linearGradient id="paint11_linear_192_3539" x1="23.0744" y1="20.3571" x2="24.3038" y2="18.8762" gradientUnits="userSpaceOnUse">
<stop stop-color="#84759B"/>
<stop offset="0.39" stop-color="#96A9D0"/>
<stop offset="1" stop-color="#D8DFED"/>
</linearGradient>
</defs>
</svg>
