<svg width="29" height="34" viewBox="0 0 29 34" fill="none" xmlns="http://www.w3.org/2000/svg">
<path d="M11.3665 11.2815C10.7964 11.8517 10.2101 13.2448 11.415 14.4443C12.6198 15.6492 13.8247 16.5528 14.5885 17.322L15.9225 15.8374L17.407 14.5035C16.6379 13.7343 15.7342 12.5294 14.5293 11.3299C13.3245 10.125 11.9367 10.7113 11.3665 11.2815Z" fill="url(#paint0_linear_192_3765)"/>
<g style="mix-blend-mode:multiply" opacity="0.5">
<path d="M10.7155 12.7712C10.7155 12.7712 10.6294 13.7072 11.4147 14.4441C12.0118 15.0035 13.8998 16.6817 13.8998 16.6817L14.314 16.7247C14.314 16.7247 12.582 15.4499 11.5976 14.2074C11.1135 13.5996 10.7155 12.7712 10.7155 12.7712Z" fill="#D42F55"/>
</g>
<path d="M2.02863 6.1877L6.0359 2.18042C6.0359 2.18042 3.64229 1.77163 2.52349 2.84203C1.36164 3.95008 2.02863 6.1877 2.02863 6.1877Z" fill="#DC2C00"/>
<path d="M1.75943 2.24491C-0.881607 4.64928 1.14624 8.07563 1.14624 8.07563L3.10953 6.11234C2.54475 5.60134 2.43717 4.34806 2.95354 3.62191C3.69583 3.11629 5.01904 2.94417 5.60534 3.62191L7.31582 1.91142C7.31582 1.91142 4.20682 0.0288104 1.75943 2.25029V2.24491Z" fill="url(#paint1_linear_192_3765)"/>
<path d="M4.53507 4.94487C0.576202 8.90374 -0.182222 15.2132 3.15807 19.441C6.91792 24.2013 14.3031 24.5402 19.2087 19.64C24.1142 14.7398 23.2913 6.9781 18.5901 3.2559C14.4107 -0.0574949 8.49393 0.98601 4.53507 4.95025V4.94487ZM16.0943 16.531C13.1198 19.5055 8.11741 18.8063 5.76683 16.0846C3.583 13.5511 5.01379 10.6519 7.63869 8.0216C10.269 5.39132 13.7276 4.4554 16.3041 6.67688C19.0742 9.07049 19.0688 13.5565 16.0943 16.531Z" fill="url(#paint2_linear_192_3765)"/>
<path d="M3.77659 4.00356C-0.128482 7.90864 -0.908422 14.0782 2.34043 18.1769C5.98732 22.7813 13.2004 23.0448 18.0199 18.22C22.8394 13.4005 22.1025 5.84314 17.5412 2.23928C13.4801 -0.971914 7.67629 0.0931058 3.77122 3.99818L3.77659 4.00356ZM15.0023 15.2239C12.0816 18.1447 7.19219 17.5153 4.91154 14.8797C2.78688 12.4215 3.66364 9.02744 6.22937 6.46171C8.7951 3.89598 12.7809 3.45491 15.282 5.60647C17.9715 7.91939 17.9285 12.2978 15.0077 15.2239H15.0023Z" fill="url(#paint3_linear_192_3765)"/>
<g style="mix-blend-mode:soft-light">
<path d="M6.01412 16.5852C6.28306 17.1715 3.75499 19.4629 2.62004 18.2742C1.52275 17.1231 -0.655706 13.7451 1.37214 8.40929C2.97505 4.18686 7.67082 0.583001 12.0761 0.620654C16.8149 0.658306 19.2838 4.60103 20.0261 5.80591C20.7899 7.04843 18.5039 11.0503 18.0413 10.2865C17.5895 9.53348 17.2506 6.23622 14.0448 4.54724C11.2585 3.07881 6.62731 4.6871 4.7716 7.54867C2.88361 10.4586 2.92126 11.997 4.20681 14.2723C4.73932 15.219 5.72904 15.972 6.01412 16.5852Z" fill="white"/>
</g>
<g style="mix-blend-mode:multiply" opacity="0.2">
<path d="M6.62226 17.6128C5.76701 17.9248 3.89516 19.2588 4.15872 19.5923C4.42767 19.9258 9.24178 23.0348 14.427 20.3884C18.7194 18.1938 20.3492 14.0951 20.7365 12.7342C21.1184 11.3948 20.9516 8.28047 20.3169 8.76995C19.6822 9.25943 17.692 11.2873 17.2348 12.4706C16.7722 13.6647 15.2339 16.0691 13.9591 16.9243C10.4144 19.3126 7.12249 17.4353 6.62226 17.6182V17.6128Z" fill="#DA0553"/>
</g>
<path d="M0.485016 14.1111C0.485016 14.1111 -0.192726 9.87255 2.07179 6.37627C4.05122 3.31568 7.69811 1.28784 7.69811 1.28784C7.69811 1.28784 3.79303 2.60029 1.48011 6.96795C-0.585384 10.8623 0.485016 14.1111 0.485016 14.1111Z" fill="#FFE016"/>
<path d="M7.03651 16.451C7.03651 16.451 9.4355 18.9038 13.0663 17.1664C16.7938 15.386 17.1435 11.1851 17.1435 11.1851C17.1435 11.1851 16.6594 14.9341 12.6467 16.7146C10.5704 17.6343 7.03651 16.4456 7.03651 16.4456V16.451Z" fill="#FFE016"/>
<path d="M10.6348 4.27313C10.6348 4.27313 7.30528 3.98267 5.16449 6.16112C3.02369 8.33957 3.18505 10.5395 3.73908 12.2554C3.73908 12.2554 3.51854 9.12489 5.83685 6.87113C8.16053 4.612 10.6294 4.27313 10.6294 4.27313H10.6348Z" fill="#FFE016"/>
<path d="M7.47203 1.78258C7.11703 2.49797 10.2744 2.48184 10.5165 2.17524C10.7585 1.86864 10.9522 0.647636 10.4089 0.609984C9.87102 0.572331 7.75174 1.21242 7.47203 1.78258Z" fill="white"/>
<path d="M11.0811 17.6559C11.1241 17.9948 12.485 18.183 13.2219 17.5537C13.9588 16.9244 13.905 16.5425 13.5231 16.5317C13.1412 16.5156 11.0435 17.3386 11.0811 17.6613V17.6559Z" fill="white"/>
<g style="mix-blend-mode:soft-light">
<path d="M4.15317 9.56061C4.15317 9.56061 4.95462 10.2599 5.68615 10.3997C5.68615 10.3997 6.87489 8.64619 8.32181 7.39291C8.32181 7.39291 7.35361 6.62911 6.88565 5.98364C6.88565 5.98364 4.98152 7.3445 4.15317 9.56598V9.56061Z" fill="white"/>
</g>
<path d="M4.57814 8.47945C4.36837 8.00073 4.90626 7.18314 5.26126 6.97874C5.61627 6.77435 5.8368 6.65063 5.8368 6.87117C5.8368 7.0917 4.62118 8.58165 4.57277 8.47945H4.57814Z" fill="white"/>
<g style="mix-blend-mode:multiply" opacity="0.5">
<path d="M4.21256 9.88354C4.43847 10.0019 5.48198 10.5344 5.38516 10.7011C5.29372 10.8625 4.39544 12.1696 4.6106 14.1544C4.6106 14.1544 3.52406 12.5945 3.77687 11.2713C4.02968 9.96961 4.0243 9.7921 4.20718 9.88892L4.21256 9.88354Z" fill="#D42F55"/>
</g>
<g style="mix-blend-mode:multiply" opacity="0.5">
<path d="M7.15486 6.05896C7.31622 6.23108 8.1876 7.2208 8.44041 7.09708C8.6986 6.97337 10.6888 5.12841 13.0394 5.21447C13.4697 5.23061 12.7489 4.30006 11.1406 4.51522C9.56998 4.72499 6.9128 5.80615 7.14948 6.05896H7.15486Z" fill="#D42F55"/>
</g>
<g style="mix-blend-mode:soft-light">
<path d="M1.70564 2.44939C1.54427 2.93887 2.06602 3.15941 2.50709 3.25623C3.25476 3.42835 5.5623 2.18583 5.80973 1.97067C6.05716 1.75552 5.18578 1.20687 4.21758 1.223C3.26551 1.23914 1.80246 2.13742 1.70026 2.44401L1.70564 2.44939Z" fill="white"/>
</g>
<g style="mix-blend-mode:multiply" opacity="0.5">
<path d="M0.893767 3.51435C0.511866 4.17057 0.673232 6.86002 1.15733 6.4835C2.90547 5.11188 2.52357 4.45565 2.58812 3.96618C2.64729 3.4767 1.34559 2.75055 0.893767 3.51973V3.51435Z" fill="#D42F55"/>
</g>
<path d="M2.79245 3.60608C2.53964 3.91805 2.64722 5.13906 2.64722 5.13906C2.64722 5.13906 2.51275 4.47208 2.92154 3.68138C2.9592 3.60608 3.31958 3.31024 4.27165 3.18652C4.27165 3.18652 3.10981 3.2188 2.79245 3.61146V3.60608Z" fill="#FFE016"/>
<g style="mix-blend-mode:multiply" opacity="0.5">
<path d="M1.33457 2.65894C1.33457 2.65894 -0.580315 4.68678 1.01722 7.93025C1.01722 7.93025 -0.424326 10.7703 0.543874 14.4172C0.543874 14.4172 -0.273718 10.5874 1.18934 7.82267C1.25927 7.6882 1.14093 7.4838 1.08714 7.36547C0.882743 6.88137 0.500843 5.83786 0.586905 4.65988C0.66221 3.57873 1.32919 2.66431 1.32919 2.66431L1.33457 2.65894Z" fill="#D42F55"/>
</g>
<path d="M2.83533 1.99777C2.81381 2.13762 4.14777 1.90095 4.18005 1.77186C4.25535 1.41685 3.99179 1.20707 3.62064 1.32541C3.07738 1.49753 2.85684 1.87405 2.83533 1.99777Z" fill="white"/>
<g style="mix-blend-mode:multiply" opacity="0.8">
<path d="M17.3314 20.124C17.369 18.8331 19.1656 16.5901 21.059 15.3906C21.5108 15.1055 21.9895 15.084 21.9895 15.084C21.6883 16.3211 20.5318 18.5211 19.0742 19.7529L17.326 20.124H17.3314Z" fill="#D42F55"/>
</g>
<path d="M23.3345 28.3809C23.3345 28.3809 23.3507 28.424 23.3507 28.4347C23.3507 28.4508 23.3345 28.4724 23.313 28.51C23.313 28.51 23.313 28.5154 23.3076 28.5208C22.915 29.177 19.8759 33.1359 19.8759 33.1359C19.6069 33.0014 18.5473 32.0063 18.5473 32.0063L19.3219 30.6454L20.5536 28.4777L19.139 27.1223C19.139 27.1223 16.6593 29.6665 16.5464 29.6181C16.4011 29.5589 15.8579 28.8596 15.8579 28.8596L14.7444 27.3105L18.4075 24.0509C18.4075 24.0509 18.7248 23.8842 19.0583 23.8142C19.381 23.7497 23.0656 27.7946 23.3345 28.3755V28.3809Z" fill="url(#paint4_linear_192_3765)"/>
<path d="M19.5583 24.6052C19.6013 24.9118 22.0057 27.4237 22.1079 27.456C22.2101 27.4883 22.9093 26.6545 22.9093 26.6545L20.2091 23.9543L19.5583 24.6106V24.6052Z" fill="url(#paint5_linear_192_3765)"/>
<path d="M23.3342 28.3813C23.3342 28.3813 23.3558 28.4135 23.3504 28.4351C23.3504 28.4458 23.3342 28.4673 23.3127 28.5104C23.3127 28.5104 23.3127 28.5157 23.3073 28.5211C22.9147 29.1773 19.8756 33.1362 19.8756 33.1362C19.6067 33.0017 18.547 32.0066 18.547 32.0066L19.3216 30.6458L21.968 28.1016C22.2585 28.1123 23.189 28.2468 23.3342 28.3866V28.3813Z" fill="url(#paint6_linear_192_3765)"/>
<path d="M21.968 28.1011C21.9089 28.2733 18.6439 31.8879 18.547 32.0062C18.4502 32.1299 16.9979 30.4894 16.9441 30.3065C16.8903 30.1236 19.1387 27.7623 19.1387 27.7623C19.1172 27.6601 18.1974 26.7403 18.1974 26.7403C18.1974 26.7403 16.019 28.8273 15.8468 28.8542C15.7016 28.8757 14.7334 27.3051 14.7334 27.3051C14.7334 27.3051 16.3202 25.7183 18.3964 24.0508C18.4771 23.9863 22.0164 27.9344 21.9626 28.0958L21.968 28.1011Z" fill="url(#paint7_linear_192_3765)"/>
<g style="mix-blend-mode:soft-light">
<path d="M18.8268 32.0284C19.0044 32.4264 19.7735 32.8729 19.9241 32.69C20.0748 32.5125 21.043 29.9844 20.8117 30.0167C20.5804 30.0489 18.6547 31.6357 18.8268 32.0284Z" fill="white"/>
</g>
<g style="mix-blend-mode:multiply" opacity="0.5">
<path d="M16.9444 30.3069C16.9444 30.3069 18.2192 32.125 19.8759 33.1308C19.8759 33.1308 18.8324 32.2863 18.6872 31.8883C18.6872 31.8883 17.4554 30.9631 16.9444 30.3069Z" fill="#D42F55"/>
</g>
<g style="mix-blend-mode:soft-light">
<path d="M14.9054 27.3752C15.0237 27.7517 15.7498 28.7576 16.0188 28.5532C16.2877 28.3541 17.5625 27.2461 17.6701 26.918C17.7777 26.5899 17.3743 25.2667 17.0462 25.4226C16.718 25.5786 14.8247 27.1224 14.9054 27.3752Z" fill="white"/>
</g>
<g style="mix-blend-mode:soft-light">
<path d="M17.1699 30.2205C17.1161 30.5379 18.5899 31.6675 18.6706 31.6352C19.0794 31.4738 20.6984 29.6558 20.5801 29.3976C20.4671 29.1394 19.316 27.9238 18.9879 28.2465C18.6598 28.5692 17.2237 29.8924 17.1699 30.2205Z" fill="white"/>
</g>
<g style="mix-blend-mode:multiply" opacity="0.5">
<path d="M14.9489 27.1113L14.7391 27.3157C14.7391 27.3157 14.723 27.4556 15.1318 28.1387C15.5514 28.8487 16.3958 29.747 16.4819 29.7416C16.568 29.7362 17.009 29.236 17.009 29.236C17.009 29.236 16.654 29.591 16.4873 29.4834C16.3259 29.3812 15.9817 28.9133 15.944 28.8702C15.9064 28.8272 16.0946 28.6551 16.0946 28.6551C16.0946 28.6551 15.9279 28.924 15.5944 28.5045C15.2717 28.0957 14.7499 27.4287 14.7929 27.348C14.836 27.2619 14.9435 27.1113 14.9435 27.1113H14.9489Z" fill="#D42F55"/>
</g>
<g style="mix-blend-mode:multiply" opacity="0.5">
<path d="M18.8483 27.4185L18.2028 26.7461C18.2028 26.7461 17.1216 27.8272 16.8742 28.6717C16.6214 29.5485 17.2991 28.9568 17.2991 28.9568L18.8483 27.4131V27.4185Z" fill="#D42F55"/>
</g>
<path d="M20.1069 17.3545C20.1069 17.3545 19.1925 17.8978 18.5363 18.554C17.8801 19.2102 17.3368 20.1246 17.3368 20.1246L22.834 26.0629L24.3509 24.3739L26.0398 22.8571L20.1015 17.3599L20.1069 17.3545Z" fill="url(#paint8_linear_192_3765)"/>
<path d="M21.0913 21.4258C19.9778 22.5392 19.5529 23.7064 19.5529 23.7064L23.0438 27.8159L24.9264 25.2663L28.1053 23.5719L23.5602 19.7583C23.5602 19.7583 22.2585 20.2532 21.0859 21.4204L21.0913 21.4258Z" fill="url(#paint9_linear_192_3765)"/>
<path d="M28.1111 23.573C28.6651 24.0356 27.8529 25.461 26.3468 26.6766C24.9214 27.8277 23.4691 28.3064 23.0496 27.8116C22.6462 27.3328 23.3293 26.0849 24.631 24.9554C25.9972 23.772 27.5786 23.1158 28.1111 23.5676V23.573Z" fill="url(#paint10_linear_192_3765)"/>
<g style="mix-blend-mode:multiply" opacity="0.5">
<path d="M24.8782 24.9977C24.2865 25.5625 23.9907 27.5957 24.3618 27.5311C24.7437 27.4612 27.7935 25.9551 28.0463 24.0295C28.1055 23.5777 26.3574 23.5938 24.8782 25.0031V24.9977Z" fill="#D42F55"/>
</g>
<g style="mix-blend-mode:multiply" opacity="0.5">
<path d="M17.3099 24.9654C17.9823 24.5082 18.6923 24.7018 19.5045 25.557C20.3167 26.4123 21.5538 27.757 21.5969 28.0206C21.6453 28.2841 20.9353 29.3223 20.9353 29.3223C20.9353 29.3223 21.9196 28.5316 22.2047 28.6822C22.4898 28.8328 20.79 31.9364 20.8653 31.8396C20.9406 31.7428 23.4526 28.6338 23.3504 28.4347C23.2482 28.2357 22.4145 27.203 22.4145 27.203L22.4467 27.1115L19.9671 24.1908L19.8057 24.3522C19.8057 24.3522 19.2086 23.782 19.058 23.8197C18.9128 23.8573 18.4072 24.0563 18.4072 24.0563L17.3099 24.9654Z" fill="#D42F55"/>
</g>
<path d="M17.9393 30.8666C18.6171 30.4954 18.9882 30.7967 19.0366 30.9258C19.085 31.0602 18.7515 31.4905 18.5848 31.3776C18.418 31.2646 17.7726 30.958 17.9393 30.8666Z" fill="white"/>
<path d="M15.551 27.9938C15.6478 28.365 15.9221 28.4026 16.0943 28.252C16.2664 28.1014 15.4326 27.5366 15.551 27.9938Z" fill="white"/>
<path d="M24.6736 20.6947C25.4481 20.3827 26.0667 20.3935 26.3894 20.7162C26.7122 21.0389 26.5831 22.2922 26.5831 22.2922L24.6789 20.6947H24.6736Z" fill="url(#paint11_linear_192_3765)"/>
<g style="mix-blend-mode:soft-light">
<path d="M21.5112 11.0663C21.834 11.3891 22.076 11.4859 22.2589 11.3407C22.4418 11.1954 22.5709 9.79154 21.8931 8.55978C21.4198 7.70453 21.4305 10.9803 21.5166 11.0663H21.5112Z" fill="white"/>
</g>
<g style="mix-blend-mode:multiply" opacity="0.5">
<path d="M10.382 22.2439C10.468 23.1584 13.1252 23.0992 15.6156 21.8459C16.0782 21.6146 15.9706 20.2376 15.5887 20.3291C15.2068 20.4151 13.776 21.1682 12.3506 21.507C10.9252 21.8459 10.3604 22.0342 10.382 22.2493V22.2439Z" fill="#D42F55"/>
</g>
<g style="mix-blend-mode:multiply" opacity="0.5">
<path d="M19.7519 16.8807C19.8433 17.2411 20.6017 17.3271 20.8115 17.1174C22.323 15.6113 22.4682 11.7761 22.2853 11.7277C22.097 11.6793 21.742 11.8138 21.5108 12.0935C21.2741 12.3678 19.7196 16.7516 19.7519 16.8861V16.8807Z" fill="#D42F55"/>
</g>
<g style="mix-blend-mode:multiply" opacity="0.5">
<path d="M4.14778 20.5276C4.14778 20.5276 7.22451 22.6953 10.4734 22.9481C13.5877 23.1901 17.4659 21.0977 17.4659 21.0977C17.4659 21.0977 14.7119 23.3031 10.4465 23.1525C6.67586 23.018 4.14778 20.5276 4.14778 20.5276Z" fill="#D42F55"/>
</g>
<g style="mix-blend-mode:soft-light">
<path d="M11.5115 11.4269C12.3022 12.1315 14.9379 14.8049 15.2176 14.622C15.4973 14.4391 16.1965 13.4709 16.0674 13.2665C15.8146 12.8631 14.3892 11.244 13.7384 10.9374C13.0875 10.6308 11.3017 11.244 11.5061 11.4323L11.5115 11.4269Z" fill="white"/>
</g>
<g style="mix-blend-mode:multiply" opacity="0.5">
<path d="M11.2965 11.5616C10.5219 12.3362 13.4211 14.8858 13.9859 15.3107C14.2334 15.4936 15.0617 14.9449 14.9756 14.8589C14.6798 14.563 11.5654 11.2927 11.2911 11.5616H11.2965Z" fill="#D42F55"/>
</g>
<g style="mix-blend-mode:soft-light">
<path d="M11.3397 13.7241C11.5764 14.2028 13.4805 16.0478 13.7387 15.9886C13.9969 15.9348 14.2497 15.9779 12.3079 14.2512C11.5279 13.5574 11.2267 13.4928 11.3397 13.7241Z" fill="white"/>
</g>
<g style="mix-blend-mode:soft-light">
<path d="M21.7099 21.0494C21.7798 21.2914 25.034 24.3467 25.1846 24.2875C25.3353 24.2283 27.1964 23.4161 27.2501 23.1579C27.3039 22.8997 23.7431 19.9198 23.5279 19.8929C23.3128 19.866 21.6184 20.7536 21.7099 21.0494Z" fill="white"/>
</g>
<g style="mix-blend-mode:multiply" opacity="0.2">
<path d="M20.903 21.7538C20.8868 21.9044 24.0389 25.3415 24.2594 25.2124C24.4799 25.0779 25.0609 24.5024 24.9748 24.3787C24.8887 24.255 21.7905 21.3019 21.6184 21.1944C21.4516 21.0868 20.9245 21.5117 20.8976 21.7538H20.903Z" fill="#DA0553"/>
</g>
<g style="mix-blend-mode:soft-light">
<path d="M19.7576 23.6636C20.0104 24.0133 22.5654 27.3374 22.7913 27.1707C23.0226 27.0039 23.5927 25.8206 23.5013 25.6753C23.4152 25.5301 20.2471 23.3947 20.0857 23.3194C19.9243 23.2441 19.6392 23.5077 19.7576 23.6636Z" fill="white"/>
</g>
<path d="M24.8675 21.6792C24.9213 22.2224 25.8411 23.4757 26.1208 23.4972C26.4435 23.5241 27.1105 23.3359 26.9707 22.9916C26.8308 22.6474 24.8191 21.2004 24.8675 21.6738V21.6792Z" fill="white"/>
<g style="mix-blend-mode:soft-light">
<path d="M18.7138 18.3759C18.8536 18.7147 21.1128 21.1245 21.3387 21.0169C21.5646 20.9093 22.7426 20.1455 22.7641 20.0433C22.7856 19.9411 20.1392 17.483 19.9724 17.4346C19.9724 17.4346 19.4023 17.8218 19.2086 17.9671C19.0903 18.0585 18.7192 18.3759 18.7192 18.3759H18.7138Z" fill="white"/>
</g>
<g style="mix-blend-mode:multiply" opacity="0.5">
<path d="M18.5309 18.554C18.5309 18.554 18.0415 19.108 18.0468 19.1671C18.063 19.3447 20.5588 21.9427 20.6933 21.8243C20.8277 21.706 21.3656 21.2111 21.2365 21.1197C21.1128 21.0282 18.66 18.6884 18.5256 18.554H18.5309Z" fill="#D42F55"/>
</g>
<g style="mix-blend-mode:soft-light">
<path d="M17.4231 20.0597C17.5952 20.3125 19.6177 22.6093 19.7038 22.5662C19.7898 22.5232 17.918 19.5003 17.7512 19.511C17.7082 19.511 17.4231 20.0543 17.4231 20.0543V20.0597Z" fill="white"/>
</g>
<path d="M19.7142 23.3411C19.7142 23.3411 20.4296 22.2707 21.4032 21.4155C22.3768 20.5603 23.2051 19.9202 23.2051 19.9202C23.2051 19.9202 21.968 20.5495 21.0912 21.4209C20.2145 22.2976 19.7142 23.3411 19.7142 23.3411Z" fill="#FFE016"/>
<g style="mix-blend-mode:soft-light">
<path d="M21.4947 21.0551C21.2526 21.3133 22.237 20.7861 22.3123 20.4473C22.3123 20.4473 21.6829 20.8453 21.4947 21.0551Z" fill="white"/>
</g>
<path d="M23.0653 26.9074C23.0653 26.9074 23.3558 25.5035 24.6413 24.5138C25.9269 23.524 27.4276 23.4487 27.4276 23.4487C27.4276 23.4487 25.9968 23.7123 24.8081 24.8203C23.6139 25.9284 23.0707 26.9127 23.0707 26.9127L23.0653 26.9074Z" fill="#FFE016"/>
<path d="M21.0054 11.2438C20.5912 11.3675 20.3546 13.5406 20.8118 13.5567C21.269 13.5728 22.4308 10.8189 21.0054 11.2438Z" fill="#DC2C00"/>
<path d="M19.8273 13.5135C19.3808 13.7878 19.6659 14.4656 20.0048 14.4548C20.3437 14.4441 20.8116 12.9111 19.8273 13.5135Z" fill="#DC2C00"/>
<path d="M19.5962 13.9173C19.5962 13.9173 19.6446 14.7349 20.0265 14.6058C20.4084 14.4767 20.3869 13.8796 20.3869 13.8796C20.3869 13.8796 20.3224 14.3153 19.9889 14.2884C19.6554 14.2615 19.5962 13.9173 19.5962 13.9173Z" fill="#FF8300"/>
<path d="M20.5696 12.6748C20.5696 12.6748 20.4943 13.7129 20.817 13.7075C21.1398 13.7021 21.6293 12.2068 21.6293 12.2068C21.6293 12.2068 21.1667 13.2664 20.887 13.3471C20.6073 13.4278 20.5696 12.6801 20.5696 12.6801V12.6748Z" fill="#FF8300"/>
<g style="mix-blend-mode:multiply" opacity="0.5">
<path d="M20.704 12.3196C21.1558 12.7391 21.769 12.1421 21.6668 11.502C21.6184 11.2115 21.0644 11.1416 20.9138 11.389C20.7685 11.6365 20.6018 12.2228 20.6986 12.3142L20.704 12.3196Z" fill="#D42F55"/>
</g>
<g style="mix-blend-mode:multiply" opacity="0.5">
<path d="M19.6283 13.7503C19.4992 14.116 20.419 13.8955 20.4136 13.5728C20.4028 13.25 19.7466 13.4168 19.6283 13.7503Z" fill="#D42F55"/>
</g>
<path d="M0.764603 13.2077C0.560205 14.1274 0.882938 15.3269 1.21643 15.0849C1.54992 14.8428 1.92644 13.3852 1.67901 12.9064C1.43158 12.4277 0.92059 12.5084 0.764603 13.2023V13.2077Z" fill="#DC2C00"/>
<path d="M0.743041 14.3686C0.743041 14.3686 0.726905 15.3583 1.12494 15.3261C1.52836 15.2992 1.73276 13.707 1.73276 13.707C1.73276 13.707 1.34548 15.041 1.10343 14.9711C0.861377 14.9011 0.743041 14.3633 0.743041 14.3633V14.3686Z" fill="#FF8300"/>
<g style="mix-blend-mode:multiply" opacity="0.5">
<path d="M0.699979 13.7233C0.710737 14.4709 1.79189 13.6802 1.74886 13.1639C1.70583 12.6475 0.678464 12.3839 0.699979 13.7233Z" fill="#D42F55"/>
</g>
<g style="mix-blend-mode:multiply" opacity="0.5">
<path d="M20.1822 17.4244C20.1822 17.4244 18.391 18.043 17.4067 20.1999L17.3314 20.1246C17.3314 20.1246 17.7402 18.71 18.7138 17.7418C19.6336 16.822 20.1015 17.3545 20.1015 17.3545L20.1768 17.4244H20.1822Z" fill="#D42F55"/>
</g>
<path d="M12.0924 10.9212C11.732 11.2386 13.7384 11.0772 13.7437 10.932C13.7437 10.7867 12.7648 10.3349 12.0924 10.9212Z" fill="white"/>
<g style="mix-blend-mode:soft-light">
<path d="M25.6043 21.2866C26.1153 21.3135 26.4112 20.7971 26.0669 20.6304C25.7227 20.4636 24.8082 20.5551 24.8997 20.7111C24.9911 20.8671 25.3999 21.2758 25.6043 21.2866Z" fill="white"/>
</g>
<g style="mix-blend-mode:multiply" opacity="0.5">
<path d="M25.7388 21.4636C25.9916 21.7864 26.2928 22.093 26.4488 22.0123C26.5994 21.937 26.5295 20.9311 26.3789 21.001C26.2337 21.071 25.6474 21.3399 25.7388 21.4636Z" fill="#D42F55"/>
</g>
<defs>
<linearGradient id="paint0_linear_192_3765" x1="17.1431" y1="17.8222" x2="9.9508" y2="9.09327" gradientUnits="userSpaceOnUse">
<stop stop-color="#FFAC15"/>
<stop offset="0.63" stop-color="#FF8100"/>
<stop offset="0.7" stop-color="#FFA400"/>
<stop offset="1" stop-color="#FFBA00"/>
</linearGradient>
<linearGradient id="paint1_linear_192_3765" x1="1.40023" y1="7.86091" x2="4.70543" y2="1.40645" gradientUnits="userSpaceOnUse">
<stop stop-color="#FFAC15"/>
<stop offset="0.63" stop-color="#FF8100"/>
<stop offset="0.7" stop-color="#FFA400"/>
<stop offset="1" stop-color="#FFBA00"/>
</linearGradient>
<linearGradient id="paint2_linear_192_3765" x1="19.7939" y1="20.2903" x2="5.79715" y2="6.29364" gradientUnits="userSpaceOnUse">
<stop stop-color="#FF5900"/>
<stop offset="0.23" stop-color="#FE6800"/>
<stop offset="1" stop-color="#E82C00"/>
</linearGradient>
<linearGradient id="paint3_linear_192_3765" x1="3.02819" y1="18.9743" x2="18.687" y2="3.31553" gradientUnits="userSpaceOnUse">
<stop stop-color="#FFAC15"/>
<stop offset="0.63" stop-color="#FF8100"/>
<stop offset="0.7" stop-color="#FFA400"/>
<stop offset="1" stop-color="#FFBA00"/>
</linearGradient>
<linearGradient id="paint4_linear_192_3765" x1="17.1925" y1="31.9291" x2="20.5624" y2="24.5048" gradientUnits="userSpaceOnUse">
<stop stop-color="#FF5900"/>
<stop offset="0.23" stop-color="#FE6800"/>
<stop offset="0.39" stop-color="#F66A00"/>
<stop offset="1" stop-color="#F63F00"/>
</linearGradient>
<linearGradient id="paint5_linear_192_3765" x1="19.984" y1="26.9545" x2="22.3193" y2="24.4746" gradientUnits="userSpaceOnUse">
<stop stop-color="#FFAC15"/>
<stop offset="0.63" stop-color="#FF8100"/>
<stop offset="0.7" stop-color="#FFA400"/>
<stop offset="1" stop-color="#FFBA00"/>
</linearGradient>
<linearGradient id="paint6_linear_192_3765" x1="22.4258" y1="32.0207" x2="19.6911" y2="28.7003" gradientUnits="userSpaceOnUse">
<stop stop-color="#FF5900"/>
<stop offset="0.23" stop-color="#FE6800"/>
<stop offset="1" stop-color="#E82C00"/>
</linearGradient>
<linearGradient id="paint7_linear_192_3765" x1="16.7016" y1="29.5899" x2="20.6648" y2="25.543" gradientUnits="userSpaceOnUse">
<stop stop-color="#FFBA00"/>
<stop offset="1" stop-color="#FF8100"/>
</linearGradient>
<linearGradient id="paint8_linear_192_3765" x1="19.8471" y1="23.539" x2="23.0001" y2="19.8382" gradientUnits="userSpaceOnUse">
<stop stop-color="#FFAC15"/>
<stop offset="0.63" stop-color="#FF8100"/>
<stop offset="0.7" stop-color="#FFA400"/>
<stop offset="1" stop-color="#FFBA00"/>
</linearGradient>
<linearGradient id="paint9_linear_192_3765" x1="21.2962" y1="26.3492" x2="25.518" y2="21.3895" gradientUnits="userSpaceOnUse">
<stop stop-color="#FFAC15"/>
<stop offset="0.63" stop-color="#FF8100"/>
<stop offset="0.7" stop-color="#FFA400"/>
<stop offset="1" stop-color="#FFBA00"/>
</linearGradient>
<linearGradient id="paint10_linear_192_3765" x1="23.476" y1="28.2101" x2="27.7016" y2="23.2466" gradientUnits="userSpaceOnUse">
<stop stop-color="#FF5900"/>
<stop offset="0.23" stop-color="#FE6800"/>
<stop offset="1" stop-color="#E82C00"/>
</linearGradient>
<linearGradient id="paint11_linear_192_3765" x1="24.7763" y1="22.4968" x2="26.1151" y2="20.8841" gradientUnits="userSpaceOnUse">
<stop stop-color="#FFBA00"/>
<stop offset="1" stop-color="#FF8100"/>
</linearGradient>
</defs>
</svg>
