<svg width="29" height="34" viewBox="0 0 29 34" fill="none" xmlns="http://www.w3.org/2000/svg">
<path d="M10.7254 19.0156C14.8071 19.0156 18.116 15.7067 18.116 11.625C18.116 7.54328 14.8071 4.23438 10.7254 4.23438C6.64365 4.23438 3.33475 7.54328 3.33475 11.625C3.33475 15.7067 6.64365 19.0156 10.7254 19.0156Z" fill="url(#paint0_radial_192_4352)"/>
<path d="M5.7284 10.9044C5.65848 11.3078 7.29367 16.251 7.59489 16.4016C7.89611 16.5523 12.8501 17.0848 13.0115 16.988C13.1782 16.8858 16.3679 14.164 16.4056 13.9058C16.4432 13.6476 16.2603 8.29024 15.9699 7.9944C15.6794 7.69855 10.4242 6.12253 9.97775 6.41299C9.5313 6.70346 5.85212 10.1944 5.7284 10.899V10.9044Z" fill="url(#paint1_linear_192_4352)"/>
<path d="M5.97025 10.7749C5.981 11.1299 7.53013 16.1431 7.82059 16.2237C8.31008 16.3636 12.312 16.7347 12.7423 16.4658C13.1726 16.2022 15.6953 14.0776 15.9481 13.7979C16.0719 13.658 15.9966 8.84387 15.7491 8.34901C15.5985 8.04779 10.6391 6.48252 10.0636 6.972C9.6817 7.29474 5.96487 10.4199 5.97562 10.7695L5.97025 10.7749Z" fill="url(#paint2_linear_192_4352)"/>
<g style="mix-blend-mode:multiply" opacity="0.3">
<path d="M12.425 13.8843C12.7423 14.4222 8.64899 16.1058 8.18102 15.6163C7.7023 15.1214 6.35757 11.2755 7.11599 10.3772C7.86366 9.48969 9.64947 7.20365 10.5209 7.17675C11.3707 7.14986 15.3135 8.25254 15.421 8.82808C15.5286 9.39825 15.5878 12.163 15.3457 12.3782C15.0983 12.5987 14.1731 11.7381 13.9526 11.5175C13.7267 11.297 10.9081 11.1518 10.779 11.9963C10.6499 12.8354 12.2421 13.5508 12.4357 13.8789L12.425 13.8843Z" fill="#D93B66"/>
</g>
<g style="mix-blend-mode:multiply" opacity="0.3">
<path d="M6.44368 10.5117C6.24466 11.2701 7.0784 12.4696 7.61629 12.6686C8.1488 12.8623 14.6035 8.85497 14.3184 8.45155C14.0333 8.04275 11.0857 6.51514 10.0798 7.17137C9.04708 7.83835 6.58354 9.97379 6.44368 10.5117Z" fill="#963B66"/>
</g>
<path style="mix-blend-mode:screen" d="M8.07891 16.1592C9.31068 16.6003 12.3336 16.5088 12.6779 16.2775C13.0221 16.0462 15.3942 14.2174 15.7116 13.5827C16.029 12.948 15.717 8.1446 15.2867 8.62332C14.851 9.10742 14.5444 10.8233 14.227 11.06C13.9097 11.2966 10.1283 10.5866 10.4725 11.5925C10.8114 12.5768 12.2045 14.5025 11.4031 14.723C10.5801 14.9489 7.40654 15.9171 8.07891 16.1592Z" fill="url(#paint3_linear_192_4352)"/>
<g style="mix-blend-mode:multiply" opacity="0.3">
<path d="M9.09012 13.3891C8.47154 14.1099 11.3977 14.68 11.9947 14.2013C12.581 13.728 10.5532 12.4101 10.1713 12.5607C9.784 12.7114 9.39672 13.0395 9.0955 13.3891H9.09012Z" fill="#963B66"/>
</g>
<g style="mix-blend-mode:multiply" opacity="0.3">
<path d="M15.1414 8.40859C14.9693 8.3817 13.6837 8.97876 13.5008 9.52203C13.318 10.0653 14.5067 12.3406 15.0285 12.1631C15.5395 11.991 15.4857 8.457 15.1414 8.40859Z" fill="#963B66"/>
</g>
<g style="mix-blend-mode:multiply" opacity="0.5">
<path d="M7.92294 16.0247C6.99776 14.9974 5.99191 11.0062 6.0941 10.7749C6.25009 10.4307 9.60116 7.11725 10.2305 7.0527C10.8491 6.99353 15.6524 8.04242 15.7439 8.3544C15.9053 8.88691 15.9483 11.8292 15.7385 11.4258C15.2221 10.4253 15.362 9.06442 14.9747 8.77395C12.6134 6.99353 10.6716 7.77347 11.274 7.96712C13.1028 8.5588 12.4574 10.0864 11.4139 10.6996C9.80556 11.6409 8.53076 11.6463 7.74006 12.3725C6.9386 13.1094 8.07355 16.1915 7.92832 16.0247H7.92294Z" fill="#820045"/>
</g>
<g style="mix-blend-mode:darken">
<path d="M15.7816 13.3514C14.9802 14.0507 11.6076 11.0331 11.9088 10.6082C12.21 10.1886 14.9909 8.44584 15.4105 8.82775C15.8247 9.20427 16.1313 13.0394 15.7816 13.346V13.3514Z" fill="#FF001A"/>
</g>
<g style="mix-blend-mode:screen" opacity="0.92">
<path d="M14.2055 12.959C14.0979 13.3033 11.742 14.6373 11.2041 14.492C10.6554 14.3468 9.26766 12.5825 9.13319 12.3458C8.99871 12.1038 11.3385 9.2906 11.5752 9.26909C11.9302 9.23682 13.9366 9.60258 14.1033 9.83925C14.2701 10.0705 14.3776 12.3942 14.2001 12.959H14.2055Z" fill="#FF83C9"/>
</g>
<g style="mix-blend-mode:screen" opacity="0.5">
<path d="M6.19082 10.6246C6.19082 10.7698 8.80497 12.0715 9.0793 12.0662C9.34824 12.0662 11.4084 9.4305 11.403 9.14003C11.403 8.88185 10.4186 7.13907 10.2304 7.05301C10.0583 6.97771 6.19082 10.318 6.18544 10.6246H6.19082Z" fill="#FF5793"/>
</g>
<g style="mix-blend-mode:multiply" opacity="0.5">
<path d="M9.20306 12.4912C8.84805 11.7651 7.72386 16.009 8.07886 16.1597C8.42312 16.3103 12.3551 16.7083 12.5165 16.4931C12.6778 16.278 11.4138 14.5621 11.0695 14.4384C10.7253 14.3147 9.26761 12.6365 9.19768 12.4912H9.20306Z" fill="#B80066"/>
</g>
<g style="mix-blend-mode:multiply" opacity="0.5">
<path d="M11.6882 9.17239C11.9679 9.37679 13.9097 9.68877 14.1302 9.68339C14.3507 9.68339 15.8837 8.46775 15.7493 8.35479C15.6094 8.23646 10.2412 6.60127 10.3488 7.04772C10.4564 7.48879 11.5107 9.04868 11.6882 9.17239Z" fill="#B80066"/>
</g>
<path style="mix-blend-mode:screen" d="M14.2269 9.82339C14.4475 10.8508 14.2269 12.7549 14.3614 12.9432C14.4959 13.1314 15.7277 13.7823 15.8514 13.7124C15.9751 13.6424 15.846 8.70996 15.6577 8.71534C15.4695 8.72072 14.1678 9.56521 14.2269 9.82339Z" fill="url(#paint4_linear_192_4352)"/>
<path d="M12.6778 16.2777C12.8984 16.3477 15.9859 13.8411 15.8514 13.712C15.7169 13.5775 14.313 12.9374 14.0979 13.1042C13.8827 13.2763 11.5375 14.5565 11.5644 14.7394C11.5913 14.9223 12.4465 16.1971 12.6778 16.2724V16.2777Z" fill="#FF007C"/>
<path style="mix-blend-mode:screen" opacity="0.72" d="M7.79926 16.0789C7.91221 16.1488 9.08482 12.3244 8.97724 12.2169C8.86966 12.1039 6.08876 10.5386 6.09952 10.7753C6.11028 11.0066 7.4819 15.8799 7.79926 16.0789Z" fill="url(#paint5_linear_192_4352)"/>
<path style="mix-blend-mode:screen" d="M7.72922 16.1378C7.67005 15.8958 7.55171 15.5838 7.67005 15.5085C7.78838 15.4332 8.03582 15.8474 8.13264 16.0249C8.23484 16.197 11.0104 16.439 11.317 16.4068C11.6236 16.3745 12.3228 16.3153 12.3497 16.2938C12.382 16.2723 12.1722 15.6053 12.2744 15.8043C12.3766 15.998 12.8231 16.1862 12.9521 16.1271C13.0759 16.0679 15.6093 13.9916 15.7384 13.798C15.8675 13.6044 15.8514 12.1144 15.8245 11.5604C15.7976 11.001 15.6577 8.88705 15.647 8.71492C15.6362 8.5428 15.378 8.49976 15.4856 8.37067C15.5932 8.24696 15.7223 8.28999 15.7653 8.48901C15.8084 8.68265 15.9751 10.6191 15.9859 11.5711C15.9966 12.5124 16.0343 13.7066 15.9374 13.8034C15.8406 13.9002 13.0275 16.3745 12.7316 16.4713C12.4358 16.5681 10.693 16.5413 9.43433 16.4122C8.12726 16.2831 7.76687 16.3153 7.72384 16.1378H7.72922Z" fill="url(#paint6_linear_192_4352)"/>
<g style="mix-blend-mode:screen" opacity="0.5">
<path d="M12.7531 9.41404C13.0758 9.43018 14.044 9.6292 14.2323 9.57003C14.4205 9.51086 15.3618 8.77933 15.3188 8.84387C15.2704 8.9138 14.2914 9.65071 14.2269 9.82284C14.1623 9.99496 14.2538 10.4145 14.2376 10.5597C14.2215 10.705 14.2215 9.97345 14.1032 9.84435C13.9848 9.70988 12.7531 9.41942 12.7531 9.41942V9.41404Z" fill="#FF9790"/>
</g>
<g style="mix-blend-mode:darken">
<path d="M9.14387 12.4209C8.7781 12.1251 8.0627 14.6639 8.38544 14.949C8.70817 15.2341 12.2152 15.9656 12.1453 15.7128C12.07 15.46 11.3923 14.594 10.9404 14.3735C10.4832 14.1475 9.30523 12.55 9.14387 12.4209Z" fill="#FF001A"/>
</g>
<g style="mix-blend-mode:screen">
<path d="M9.19774 12.1305C9.34297 12.5447 10.139 13.6796 10.806 14.0884C11.4623 14.4865 11.7796 14.3359 12.3229 14.0884C12.8554 13.8518 14.1356 13.0826 14.227 12.8674C14.3185 12.6523 14.2862 12.8459 14.539 13.0288C14.7918 13.2117 15.561 13.3945 15.8515 13.7119C15.8515 13.7119 14.8187 13.2117 14.4745 13.131C14.1248 13.0449 14.0979 13.1633 13.1835 13.7334C12.2476 14.3143 11.5376 14.5618 11.5645 14.7447C11.5914 14.9275 11.5806 14.9652 11.1664 14.6425C10.7469 14.3143 10.0153 13.486 9.68184 13.0718C9.34835 12.6523 8.86962 12.1574 8.91265 12.0283C8.95568 11.8992 9.42365 11.6141 9.42903 11.6948C9.43441 11.7755 9.14395 11.9745 9.19774 12.1359V12.1305Z" fill="#FF77BB"/>
</g>
<g style="mix-blend-mode:screen" opacity="0.5">
<path d="M6.28762 10.5277C6.4221 11.0494 8.77269 11.9746 9.07391 11.9047C9.37512 11.8347 11.2255 9.54869 11.2739 9.2152C11.3223 8.88171 10.4133 6.95605 10.0798 7.16583C9.74627 7.38099 6.21232 10.2318 6.28762 10.5223V10.5277Z" fill="#FF5793"/>
</g>
<path d="M9.76248 11.3074C9.70332 11.2913 8.75125 11.9421 8.86421 12.082C8.97716 12.2165 9.23535 12.7221 9.33755 12.6575C9.43975 12.593 9.89696 11.3505 9.76248 11.3074Z" fill="white"/>
<path d="M13.5331 9.57541C13.3771 9.65072 14.0871 10.0111 14.1732 9.9358C14.2592 9.85512 14.2539 9.68837 14.1624 9.63458C14.071 9.58079 13.6568 9.52162 13.5331 9.57541Z" fill="white"/>
<path style="mix-blend-mode:screen" d="M9.5957 16.2879C9.40744 16.2018 10.806 14.8894 11.2901 15.0131C11.7688 15.1314 12.6886 16.3525 12.6025 16.4224C12.5165 16.4923 10.2358 16.5784 9.5957 16.2879Z" fill="url(#paint7_linear_192_4352)"/>
<path style="mix-blend-mode:screen" d="M13.4364 14.2659C12.3768 14.6908 12.6242 16.369 12.7748 16.3637C12.92 16.3583 15.9269 13.9485 15.744 13.7979C15.5611 13.6473 13.8775 14.0884 13.4364 14.2659Z" fill="url(#paint8_linear_192_4352)"/>
<g style="mix-blend-mode:multiply" opacity="0.5">
<path d="M14.2538 9.80132C14.1247 10.0541 14.3184 11.4419 14.3937 11.4527C14.4421 11.4634 15.6685 9.99496 15.7276 9.83897C15.7976 9.65071 15.7599 8.94607 15.7276 8.88153C15.6523 8.7094 14.4206 9.46783 14.2538 9.79594V9.80132Z" fill="#960066"/>
</g>
<g style="mix-blend-mode:multiply" opacity="0.5">
<path d="M6.12626 10.9257C6.05634 11.1785 6.62112 12.7868 6.78249 12.8244C6.93848 12.8621 8.89641 12.2596 8.8211 12.1144C8.7458 11.9692 6.19081 10.6729 6.12626 10.9257Z" fill="#960066"/>
</g>
<g style="mix-blend-mode:multiply" opacity="0.5">
<path d="M10.7899 16.5039C10.4349 16.563 7.98751 16.2995 7.82077 16.2242C7.65402 16.1489 5.90049 11.1411 5.97042 10.7753C6.04035 10.4096 9.96696 6.92402 10.1498 6.90788C10.3327 6.89174 11.4677 6.90788 13.3288 7.44577C15.0823 7.95677 15.7116 8.22034 15.7439 8.35481C15.7439 8.35481 14.9694 7.97829 13.786 7.77389C12.5542 7.55873 10.4995 6.96705 10.2305 7.05311C9.96158 7.14455 6.52445 10.103 6.22323 10.7538C5.91663 11.41 7.67016 15.7723 7.92297 16.0198C8.1704 16.2672 10.7899 16.4985 10.7899 16.4985V16.5039Z" fill="#7A0033"/>
</g>
<path d="M9.24078 7.71447C9.16009 7.8597 10.0153 7.60689 10.0906 7.60689C10.166 7.60689 10.5801 7.62303 10.564 7.55848C10.5479 7.49393 10.2466 6.9668 10.1337 7.03134C10.0207 7.09589 9.31608 7.58537 9.24078 7.71447Z" fill="#FFA9B3"/>
<g style="mix-blend-mode:multiply" opacity="0.5">
<path d="M11.941 14.5672C11.6774 14.82 14.0119 13.8465 14.5767 13.7389C15.1307 13.6313 15.5018 13.5237 15.3566 13.4861C15.2114 13.4484 14.6089 13.0827 14.1894 13.2548C13.7645 13.4269 12.2852 14.2391 11.9464 14.5726L11.941 14.5672Z" fill="#EC0066"/>
</g>
<g style="mix-blend-mode:multiply" opacity="0.5">
<path d="M9.89157 13.5561C9.6818 13.7175 10.3864 14.6534 10.6661 14.804C10.9405 14.9546 11.9517 15.4764 11.8764 15.3903C11.8011 15.2989 11.2632 14.8363 10.7737 14.293C10.2735 13.7443 9.98301 13.4808 9.88619 13.5561H9.89157Z" fill="#EC0066"/>
</g>
<path d="M7.98754 16.0677C8.05208 16.4012 10.6824 16.4926 11.5645 16.5625C11.5645 16.5625 10.5587 16.3528 9.79485 16.1752C8.50929 15.8794 7.96602 15.9493 7.98754 16.0677Z" fill="#FF8D98"/>
<path d="M15.3727 8.93539C15.3027 9.26351 15.9966 11.684 15.9912 11.5711C15.9912 11.4581 15.8352 8.90312 15.7922 8.60728C15.7761 8.48894 15.4103 8.75789 15.3727 8.93001V8.93539Z" fill="#FF8D98"/>
<path d="M6.08871 10.7107C6.29311 10.786 7.01389 9.90383 6.93858 9.84466C6.86328 9.78549 5.95424 10.6623 6.08871 10.7107Z" fill="#FF8D98"/>
<path d="M11.1717 9.29058C11.1072 9.49498 11.0426 9.67786 11.161 9.64021C11.2847 9.59718 11.7634 9.33899 11.7042 9.23679C11.6451 9.13459 11.3223 8.8011 11.2739 8.86564C11.2201 8.93019 11.2201 9.13997 11.1717 9.29058Z" fill="white"/>
<path d="M7.91755 15.3256C7.83149 15.5676 7.79383 16.0571 7.88527 15.9496C7.97672 15.8366 8.25104 15.062 8.20263 15.0674C8.1596 15.0674 7.94444 15.2503 7.91755 15.331V15.3256Z" fill="white"/>
<g style="mix-blend-mode:screen">
<path d="M15.3351 13.6096C14.7918 14.0561 13.1835 15.858 13.4955 15.7343C13.8075 15.6106 15.9591 13.9055 15.8515 13.7817C15.7385 13.658 15.5449 13.4375 15.3351 13.6096Z" fill="#FFC098"/>
</g>
<path d="M10.0475 13.5179C9.92383 13.5501 10.1713 14.1849 10.2788 14.2386C10.3864 14.2924 10.7468 14.2978 10.7199 14.2333C10.693 14.1687 10.1551 13.491 10.0475 13.5179Z" fill="url(#paint9_linear_192_4352)"/>
<g style="mix-blend-mode:multiply" opacity="0.5">
<path d="M10.0208 13.5452C9.97774 13.6528 10.0907 14.0454 10.1552 14.0616C10.2198 14.0831 10.564 14.0616 10.4834 13.9432C10.4027 13.8303 10.0746 13.4161 10.0208 13.5452Z" fill="#960066"/>
</g>
<path d="M10.1983 14.153C10.2413 14.2445 10.3058 14.2768 10.4672 14.2768C10.6232 14.2768 10.7146 14.266 10.7146 14.2499C10.7146 14.2337 10.6339 14.11 10.5694 14.0347C10.5317 13.9917 10.5049 14.0347 10.4511 14.067C10.3973 14.0993 10.1552 14.0777 10.1929 14.1584L10.1983 14.153Z" fill="#FF5E66"/>
<path d="M9.88628 15.7183C9.95082 15.9173 10.5264 16.1862 10.5802 15.9603C10.6286 15.7344 9.82173 15.5193 9.88628 15.7183Z" fill="#FF007C"/>
<path d="M14.7487 11.2646C14.1463 11.5443 14.5282 12.3834 14.6788 12.3458C14.8294 12.3081 15.0392 11.1301 14.7487 11.2646Z" fill="#FF007C"/>
<path d="M14.4907 10.3767C14.2701 10.7156 14.5714 11.0383 14.6682 10.7747C14.765 10.5112 14.5875 10.2315 14.4907 10.3767Z" fill="#FF007C"/>
<path d="M14.0279 9.19337C14.2431 9.3117 14.1194 8.71464 13.8612 8.76305C13.5976 8.81146 13.7805 9.05889 14.0279 9.19337Z" fill="#FF007C"/>
<path d="M7.08911 10.764C7.20744 11.0814 7.53556 10.8124 7.57321 10.4144C7.61086 10.0163 6.91698 10.296 7.08911 10.764Z" fill="#FF007C"/>
<path d="M7.80444 14.282C8.14331 14.7284 8.22937 14.0023 8.13793 13.7172C8.04649 13.4267 7.42254 13.7764 7.80444 14.282Z" fill="#FF007C"/>
<path d="M9.13848 14.6427C9.38591 14.9117 9.77319 15.1322 9.57417 14.7933C9.37515 14.4545 8.86953 14.3523 9.13848 14.6427Z" fill="#FF007C"/>
<path d="M9.70344 14.6909C9.90246 15.0083 10.1122 14.8738 9.95625 14.6586C9.79489 14.4489 9.56897 14.4757 9.70344 14.6909Z" fill="#FF007C"/>
<path d="M14.7864 10.9308C14.8455 11.1245 15.0015 10.8017 14.9477 10.7157C14.8886 10.6296 14.7164 10.6995 14.7864 10.9308Z" fill="#FF007C"/>
<path style="mix-blend-mode:multiply" opacity="0.5" d="M7.21304 15.6589C6.67514 14.9005 4.86245 10.3876 5.03995 9.89811C5.21746 9.40325 9.06338 5.83702 9.68734 5.6649C10.3167 5.49277 15.3782 7.68199 15.9645 7.99935C15.9645 7.99935 13.1083 7.23554 11.6722 7.6551C10.236 8.07466 7.75093 11.4634 7.48198 12.3455C7.21303 13.233 7.20766 15.6589 7.20766 15.6589H7.21304Z" fill="url(#paint10_linear_192_4352)"/>
<path d="M5.73935 22.012L1.62447 18.1123C1.62447 18.1123 1.28022 20.5167 2.37752 21.6086C3.51785 22.7436 5.73935 22.012 5.73935 22.012Z" fill="url(#paint11_linear_192_4352)"/>
<path d="M1.81269 22.3826C4.28699 24.9591 7.65419 22.8398 7.65419 22.8398L5.6371 20.9249C5.14224 21.5004 3.88895 21.6457 3.15204 21.1508C2.63028 20.4193 2.4205 19.1068 3.07673 18.499L1.3232 16.8369C1.3232 16.8369 -0.478735 19.9943 1.81269 22.3826Z" fill="url(#paint12_linear_192_4352)"/>
<g style="mix-blend-mode:soft-light">
<path d="M2.01153 22.4315C2.5064 22.5821 2.71079 22.0496 2.79686 21.6085C2.94747 20.8555 1.64577 18.5802 1.42523 18.3382C1.2047 18.0961 0.677563 18.9836 0.720594 19.9465C0.763626 20.8985 1.69956 22.3347 2.01153 22.4315Z" fill="white"/>
</g>
<path style="mix-blend-mode:multiply" opacity="0.5" d="M3.10357 23.2114C3.77056 23.5772 6.45464 23.3459 6.06198 22.8672C4.64194 21.1567 3.99647 21.5547 3.50699 21.5063C3.01751 21.4579 2.32363 22.7811 3.10357 23.2114Z" fill="url(#paint13_linear_192_4352)"/>
<path d="M3.14134 21.3122C3.45869 21.5596 4.67433 21.4144 4.67433 21.4144C4.67433 21.4144 4.01272 21.565 3.20588 21.1777C3.13058 21.1401 2.82398 20.7904 2.67337 19.8438C2.67337 19.8438 2.73792 21.0056 3.14134 21.3122Z" fill="#F0CFFF"/>
<path d="M1.53294 21.3123C1.6728 21.3285 1.39847 19.9999 1.26938 19.9783C0.914368 19.9138 0.70997 20.1827 0.839064 20.5485C1.02733 21.0864 1.40923 21.3016 1.53294 21.3123Z" fill="white"/>
<path d="M21.0639 6.64919L17.2556 2.45363C17.2556 2.45363 19.6654 2.15779 20.7358 3.28199C21.8438 4.44921 21.0639 6.64919 21.0639 6.64919Z" fill="url(#paint14_linear_192_4352)"/>
<path d="M21.5263 2.7227C24.049 5.25079 21.8544 8.57496 21.8544 8.57496L19.9879 6.51484C20.5742 6.03074 20.7463 4.78283 20.2676 4.03516C19.5522 3.49726 18.2398 3.26059 17.6212 3.90068L15.9967 2.1095C15.9967 2.1095 19.1918 0.37749 21.5263 2.7227Z" fill="url(#paint15_linear_192_4352)"/>
<g style="mix-blend-mode:soft-light">
<path d="M21.5695 2.92703C21.7093 3.42727 21.1714 3.61553 20.725 3.69621C19.9719 3.83069 17.7235 2.48058 17.4869 2.25466C17.2502 2.02875 18.1485 1.52313 19.1113 1.58768C20.058 1.65222 21.478 2.62043 21.5641 2.93241L21.5695 2.92703Z" fill="white"/>
</g>
<path style="mix-blend-mode:multiply" opacity="0.5" d="M22.3279 4.0348C22.6776 4.71255 22.3871 7.38587 21.9191 6.98783C20.2409 5.53014 20.6497 4.89543 20.6175 4.40057C20.5798 3.91109 21.9191 3.2441 22.3279 4.0348Z" fill="url(#paint16_linear_192_4352)"/>
<path d="M20.4293 4.02954C20.6659 4.35227 20.4992 5.56791 20.4992 5.56791C20.4992 5.56791 20.6659 4.91168 20.2948 4.09408C20.2625 4.01878 19.9129 3.70142 18.9716 3.5293C18.9716 3.5293 20.1281 3.62074 20.4293 4.02954Z" fill="#F0CFFF"/>
<path d="M20.4614 2.42669C20.4721 2.56654 19.1543 2.26532 19.1328 2.13622C19.0736 1.77584 19.3479 1.58219 19.7137 1.71667C20.2462 1.91569 20.4506 2.30297 20.4614 2.42669Z" fill="white"/>
<path d="M2.18384 6.81101L6.19114 2.80371C6.19114 2.80371 3.79752 2.39491 2.6787 3.46532C1.51685 4.57338 2.18384 6.81101 2.18384 6.81101Z" fill="url(#paint17_linear_192_4352)"/>
<path d="M1.91485 2.87358C-0.726203 5.27796 1.30165 8.70433 1.30165 8.70433L3.26496 6.74102C2.70017 6.23003 2.59259 4.97674 3.10897 4.25059C3.85126 3.74497 5.17447 3.57284 5.76077 4.25059L7.47127 2.54009C7.47127 2.54009 4.36226 0.657467 1.91485 2.87896V2.87358Z" fill="url(#paint18_linear_192_4352)"/>
<path d="M4.69562 5.57356C0.736737 9.53244 -0.0216904 15.8419 3.31862 20.0697C7.07848 24.8301 14.4637 25.169 19.3693 20.2688C24.2749 15.3632 23.4519 7.60679 18.7507 3.88458C14.5713 0.57116 8.65451 1.61467 4.69562 5.57893V5.57356ZM16.2549 17.1597C13.2804 20.1343 8.27798 19.435 5.92739 16.7133C3.74355 14.1798 4.61494 10.6889 7.24523 8.05862C9.87552 5.42832 13.8936 5.08407 16.4647 7.30557C19.2348 9.69919 19.2295 14.1852 16.2549 17.1597Z" fill="url(#paint19_linear_192_4352)"/>
<path d="M3.93196 4.63224C0.0268651 8.53734 -0.753078 14.707 2.49579 18.8057C6.1427 23.4101 13.3558 23.6736 18.1753 18.8487C22.9949 14.0238 22.2579 6.47183 17.6966 2.86796C13.6355 -0.343259 7.83168 0.721767 3.92658 4.62686L3.93196 4.63224ZM15.1578 15.8527C12.237 18.7734 7.34758 18.1441 5.06691 15.5084C2.94224 13.0503 3.819 9.65615 6.38475 7.09041C8.95049 4.52466 12.9363 4.08359 15.4375 6.23516C18.1269 8.5481 18.0839 12.9265 15.1631 15.8527H15.1578Z" fill="url(#paint20_linear_192_4352)"/>
<g style="mix-blend-mode:soft-light">
<path d="M6.16961 17.2135C6.43855 17.7998 3.91046 20.0912 2.77551 18.9024C1.67821 17.7514 -0.500255 14.3734 1.5276 9.0375C3.13052 4.81505 7.82631 1.21118 12.2316 1.24883C16.9705 1.28648 19.4394 5.22923 20.1817 6.43411C20.9455 7.67664 18.6595 11.6786 18.1969 10.9147C17.745 10.1617 17.4062 6.86442 14.2003 5.17544C11.4141 3.70699 6.7828 5.31529 4.92707 8.17688C3.03907 11.0869 3.07673 12.6252 4.36229 14.9005C4.8948 15.8472 5.88452 16.6003 6.16961 17.2135Z" fill="white"/>
</g>
<path style="mix-blend-mode:multiply" opacity="0.5" d="M6.77741 18.2408C5.92216 18.5528 4.05029 19.8868 4.31386 20.2203C4.58281 20.5538 9.39694 23.6628 14.5822 21.0163C18.8746 18.8217 20.5044 14.723 20.8917 13.3621C21.2736 12.0228 21.1068 8.9084 20.4721 9.39788C19.8374 9.88736 17.8472 11.9152 17.39 13.0986C16.9274 14.2927 15.3891 16.6971 14.1143 17.5523C10.5695 19.9406 7.27765 18.0633 6.77741 18.2462V18.2408Z" fill="url(#paint21_linear_192_4352)"/>
<path d="M0.639955 14.734C0.639955 14.734 -0.0377893 10.4954 2.22674 6.9991C4.20618 3.9385 7.85309 1.91064 7.85309 1.91064C7.85309 1.91064 3.94799 3.2231 1.63505 7.59078C-0.430451 11.4851 0.639955 14.734 0.639955 14.734Z" fill="#F0CFFF"/>
<path d="M7.19168 17.0789C7.19168 17.0789 9.59068 19.5317 13.2215 17.7943C16.949 16.0139 17.2987 11.813 17.2987 11.813C17.2987 11.813 16.8146 15.5621 12.8019 17.3425C10.7256 18.2623 7.19168 17.0736 7.19168 17.0736V17.0789Z" fill="#D5ACE8"/>
<path d="M10.7901 4.90106C10.7901 4.90106 7.46056 4.6106 5.31975 6.78906C3.17894 8.96752 3.34031 11.1675 3.89434 12.8834C3.89434 12.8834 3.6738 9.75284 5.99212 7.49908C8.31581 5.23993 10.7847 4.90106 10.7847 4.90106H10.7901Z" fill="#F0CFFF"/>
<path d="M7.6274 2.41101C7.27239 3.1264 10.4298 3.11027 10.6719 2.80367C10.9139 2.49707 11.1076 1.27605 10.5643 1.2384C10.0264 1.20075 7.9071 1.84084 7.6274 2.41101Z" fill="white"/>
<path d="M11.2365 18.2787C11.2795 18.6176 12.6404 18.8059 13.3773 18.1765C14.1142 17.5472 14.0604 17.1653 13.6785 17.1545C13.2966 17.1384 11.1988 17.9614 11.2365 18.2841V18.2787Z" fill="white"/>
<g style="mix-blend-mode:soft-light">
<path d="M4.30846 10.1834C4.30846 10.1834 4.65271 10.4362 5.38962 10.5761C5.38962 10.5761 6.33093 8.84408 7.78324 7.5908C7.78324 7.5908 7.51967 7.25192 7.04633 6.60107C7.04633 6.60107 5.14219 7.96194 4.31384 10.1834H4.30846Z" fill="white"/>
</g>
<path d="M4.7334 9.10788C4.52363 8.62916 5.06152 7.81156 5.41653 7.60716C5.77154 7.40276 5.99207 7.27905 5.99207 7.49958C5.99207 7.72012 4.77643 9.21008 4.72802 9.10788H4.7334Z" fill="white"/>
<path style="mix-blend-mode:multiply" opacity="0.5" d="M4.36758 10.5061C4.59349 10.6244 5.31965 10.7751 5.2282 10.9364C5.13676 11.0978 4.55046 12.7868 4.76562 14.7716C4.76562 14.7716 3.67907 13.2117 3.93188 11.8885C4.18469 10.5868 4.17931 10.4093 4.3622 10.5061H4.36758Z" fill="url(#paint22_linear_192_4352)"/>
<path style="mix-blend-mode:multiply" opacity="0.5" d="M7.30995 6.68731C7.47132 6.85943 7.69723 7.47263 7.95542 7.34891C8.21361 7.2252 10.3168 5.48781 13.1999 5.84282C13.6248 5.8966 12.9094 4.9284 11.3011 5.14356C9.73047 5.35333 7.07328 6.4345 7.30995 6.68731Z" fill="url(#paint23_linear_192_4352)"/>
<g style="mix-blend-mode:soft-light">
<path d="M1.86108 3.07244C1.69971 3.56193 2.22146 3.78246 2.66254 3.87928C3.41021 4.05141 5.71776 2.80888 5.96519 2.59372C6.21262 2.37856 5.34124 1.82991 4.37303 1.84605C3.42096 1.86219 1.9579 2.76047 1.8557 3.06707L1.86108 3.07244Z" fill="white"/>
</g>
<path style="mix-blend-mode:multiply" opacity="0.5" d="M1.04889 4.14301C0.666985 4.79924 0.828354 7.4887 1.31246 7.11218C3.06061 5.74055 2.6787 5.08432 2.74325 4.59484C2.80242 4.10536 1.50072 3.37921 1.04889 4.14839V4.14301Z" fill="url(#paint24_linear_192_4352)"/>
<path d="M2.94763 4.22913C2.69483 4.5411 2.8024 5.76212 2.8024 5.76212C2.8024 5.76212 2.67331 5.09513 3.07673 4.30443C3.11438 4.22913 3.47477 3.93329 4.42684 3.80957C4.42684 3.80957 3.26499 3.84184 2.94763 4.2345V4.22913Z" fill="#F0CFFF"/>
<path style="mix-blend-mode:multiply" opacity="0.5" d="M1.48996 3.2876C1.48996 3.2876 -0.424938 5.31545 1.1726 8.55894C1.1726 8.55894 -0.26895 11.399 0.699256 15.0459C0.699256 15.0459 -0.118339 11.2161 1.34473 8.45136C1.41465 8.31689 1.29632 8.11249 1.24253 7.99415C1.03813 7.51005 0.656225 6.46654 0.742287 5.28856C0.817592 4.20739 1.48458 3.29298 1.48458 3.29298L1.48996 3.2876Z" fill="url(#paint25_linear_192_4352)"/>
<path d="M2.99057 2.62595C2.96905 2.7658 4.30302 2.52913 4.3353 2.40003C4.4106 2.04502 4.14704 1.83525 3.77589 1.95358C3.23262 2.12571 3.01208 2.50223 2.99057 2.62595Z" fill="white"/>
<path style="mix-blend-mode:multiply" opacity="0.5" d="M17.4868 20.7529C17.5245 19.462 19.321 17.219 21.2144 16.0195C21.6662 15.7344 22.145 15.7129 22.145 15.7129C21.8438 16.95 20.6873 19.15 19.2296 20.3818L17.4814 20.7529H17.4868Z" fill="url(#paint26_linear_192_4352)"/>
<path d="M23.4897 29.0094C23.4897 29.0094 23.5058 29.0524 23.5058 29.0632C23.5058 29.0793 23.4897 29.1008 23.4682 29.1385C23.4682 29.1385 23.4682 29.1438 23.4628 29.1492C23.0701 29.8054 20.0311 33.7643 20.0311 33.7643C19.7621 33.6299 18.7025 32.6348 18.7025 32.6348L19.477 31.2739L20.7088 29.1062L19.2941 27.7507C19.2941 27.7507 16.8145 30.2949 16.7015 30.2465C16.5563 30.1873 16.013 29.4881 16.013 29.4881L14.8996 27.939L18.5626 24.6793C18.5626 24.6793 18.88 24.5126 19.2135 24.4427C19.5362 24.3781 23.2208 28.4231 23.4897 29.004V29.0094Z" fill="#9220D9"/>
<path d="M19.7138 25.2334C19.7568 25.54 22.1612 28.0519 22.2634 28.0842C22.3656 28.1165 23.0648 27.2827 23.0648 27.2827L20.3646 24.5825L19.7084 25.2387L19.7138 25.2334Z" fill="url(#paint27_linear_192_4352)"/>
<path d="M23.4897 29.0097C23.4897 29.0097 23.5113 29.042 23.5059 29.0635C23.5059 29.0742 23.4897 29.0957 23.4682 29.1388C23.4682 29.1388 23.4682 29.1442 23.4628 29.1495C23.0702 29.8058 20.0311 33.7647 20.0311 33.7647C19.7621 33.6302 18.7025 32.6351 18.7025 32.6351L19.4771 31.2742L22.1235 28.73C22.414 28.7407 23.3445 28.8752 23.4897 29.0151V29.0097Z" fill="url(#paint28_linear_192_4352)"/>
<path d="M22.1235 28.7244C22.0643 28.8966 18.7993 32.5112 18.7025 32.6295C18.6057 32.7533 17.1534 31.1127 17.0996 30.9298C17.0458 30.7469 19.2942 28.3856 19.2942 28.3856C19.2727 28.2834 18.3529 27.3636 18.3529 27.3636C18.3529 27.3636 16.1744 29.4506 16.0023 29.4775C15.8571 29.499 14.8889 27.9284 14.8889 27.9284C14.8889 27.9284 16.4756 26.3416 18.5519 24.6741C18.6326 24.6096 22.1719 28.5577 22.1181 28.7191L22.1235 28.7244Z" fill="url(#paint29_radial_192_4352)"/>
<g style="mix-blend-mode:soft-light">
<path d="M18.9822 32.6566C19.1597 33.0546 19.9288 33.501 20.0795 33.3182C20.2301 33.1407 21.1983 30.6126 20.967 30.6448C20.7357 30.6771 18.81 32.2639 18.9822 32.6566Z" fill="white"/>
</g>
<path style="mix-blend-mode:multiply" opacity="0.5" d="M17.0995 30.9355C17.0995 30.9355 18.3743 32.7536 20.031 33.7595C20.031 33.7595 18.9875 32.915 18.8423 32.517C18.8423 32.517 17.6105 31.5918 17.0995 30.9355Z" fill="url(#paint30_linear_192_4352)"/>
<g style="mix-blend-mode:soft-light">
<path d="M15.061 28.0034C15.1793 28.3799 15.9055 29.3857 16.1744 29.1813C16.4434 28.9823 17.7182 27.8743 17.8258 27.5462C17.9333 27.218 17.5299 25.8948 17.2018 26.0508C16.8737 26.2068 14.9803 27.7506 15.061 28.0034Z" fill="white"/>
</g>
<g style="mix-blend-mode:soft-light">
<path d="M17.3254 30.849C17.2716 31.1663 18.7454 32.2959 18.8261 32.2636C19.2349 32.1023 20.854 30.2842 20.7356 30.026C20.6227 29.7678 19.4716 28.5522 19.1435 28.8749C18.8154 29.1976 17.3792 30.5209 17.3254 30.849Z" fill="white"/>
</g>
<path style="mix-blend-mode:multiply" opacity="0.5" d="M15.1041 27.7349L14.8943 27.9393C14.8943 27.9393 14.8782 28.0791 15.287 28.7622C15.7065 29.4723 16.551 30.3705 16.6371 30.3652C16.7231 30.3598 17.1642 29.8595 17.1642 29.8595C17.1642 29.8595 16.8092 30.2145 16.6424 30.107C16.4811 30.0048 16.1368 29.5368 16.0992 29.4938C16.0615 29.4507 16.2498 29.2786 16.2498 29.2786C16.2498 29.2786 16.083 29.5476 15.7495 29.128C15.4268 28.7192 14.9051 28.0522 14.9481 27.9715C14.9911 27.8855 15.0987 27.7349 15.0987 27.7349H15.1041Z" fill="url(#paint31_linear_192_4352)"/>
<path style="mix-blend-mode:multiply" opacity="0.5" d="M19.0037 28.0415L18.3582 27.3691C18.3582 27.3691 17.2771 28.4503 17.0296 29.2948C16.7768 30.1716 17.4546 29.5799 17.4546 29.5799L19.0037 28.0361V28.0415Z" fill="url(#paint32_linear_192_4352)"/>
<path d="M20.2623 17.9775C20.2623 17.9775 19.3479 18.5208 18.6917 19.177C18.0354 19.8333 17.4922 20.7477 17.4922 20.7477L22.9894 26.686L24.5063 24.997L26.1953 23.4802L20.2569 17.9829L20.2623 17.9775Z" fill="url(#paint33_linear_192_4352)"/>
<path d="M21.2467 22.0542C20.1333 23.1676 19.7084 24.3348 19.7084 24.3348L23.1993 28.4443L25.0819 25.8947L28.2609 24.2004L23.7157 20.3867C23.7157 20.3867 22.414 20.8816 21.2414 22.0488L21.2467 22.0542Z" fill="url(#paint34_linear_192_4352)"/>
<path d="M28.2663 24.2012C28.8203 24.6638 28.0081 26.0892 26.502 27.3048C25.0766 28.4559 23.6243 28.9346 23.2047 28.4398C22.8013 27.961 23.4844 26.7131 24.7861 25.5836C26.1523 24.4002 27.7338 23.744 28.2663 24.1958V24.2012Z" fill="url(#paint35_linear_192_4352)"/>
<path style="mix-blend-mode:multiply" opacity="0.5" d="M25.0388 25.6261C24.4471 26.1909 24.1513 28.2241 24.5225 28.1596C24.9044 28.0897 27.9542 26.5836 28.207 24.6579C28.2662 24.2061 26.518 24.2222 25.0388 25.6315V25.6261Z" fill="url(#paint36_linear_192_4352)"/>
<path style="mix-blend-mode:multiply" opacity="0.5" d="M17.4654 25.5943C18.1377 25.1371 18.8477 25.3307 19.66 26.186C20.4722 27.0412 21.7093 28.3859 21.7524 28.6495C21.7954 28.9131 21.0908 29.9512 21.0908 29.9512C21.0908 29.9512 22.0751 29.1605 22.3602 29.3111C22.6453 29.4617 20.9455 32.5654 21.0208 32.4685C21.0961 32.3717 23.6081 29.2627 23.5059 29.0637C23.4037 28.8647 22.57 27.8319 22.57 27.8319L22.6022 27.7405L20.1225 24.8197L19.9612 24.9811C19.9612 24.9811 19.3641 24.4109 19.2135 24.4486C19.0683 24.4862 18.5627 24.6852 18.5627 24.6852L17.4654 25.5943Z" fill="url(#paint37_linear_192_4352)"/>
<path d="M18.0947 31.4948C18.7725 31.1236 19.1436 31.4248 19.192 31.5539C19.2404 31.6884 18.9069 32.1187 18.7402 32.0058C18.5734 31.8928 17.928 31.5862 18.0947 31.4948Z" fill="white"/>
<path d="M15.7065 28.6225C15.8033 28.9936 16.0776 29.0313 16.2498 28.8807C16.4273 28.7301 15.5881 28.1653 15.7065 28.6225Z" fill="white"/>
<path d="M24.829 21.3182C25.6036 21.0063 26.2222 21.017 26.5449 21.3397C26.8676 21.6625 26.7386 22.9158 26.7386 22.9158L24.8344 21.3182H24.829Z" fill="url(#paint38_radial_192_4352)"/>
<g style="mix-blend-mode:soft-light">
<path d="M21.6663 11.6948C21.989 12.0175 22.2311 12.1143 22.4139 11.9691C22.5968 11.8239 22.7259 10.42 22.0482 9.1882C21.5748 8.33295 21.5856 11.6087 21.6717 11.6948H21.6663Z" fill="white"/>
</g>
<path style="mix-blend-mode:multiply" opacity="0.5" d="M10.5372 22.8724C10.6233 23.7868 13.2804 23.7276 15.7709 22.4743C16.2335 22.243 16.1259 20.866 15.744 20.9575C15.3621 21.0489 13.9313 21.7966 12.5059 22.1355C11.0805 22.4743 10.5157 22.6626 10.5372 22.8778V22.8724Z" fill="url(#paint39_linear_192_4352)"/>
<path style="mix-blend-mode:multiply" opacity="0.5" d="M19.9074 17.5099C19.9988 17.8703 20.7572 17.9563 20.967 17.7465C22.4785 16.2404 22.6237 12.4053 22.4408 12.3569C22.2526 12.3085 21.8976 12.4429 21.6663 12.7226C21.4296 12.997 19.8751 17.3808 19.9074 17.5153V17.5099Z" fill="url(#paint40_linear_192_4352)"/>
<path style="mix-blend-mode:multiply" opacity="0.5" d="M4.3031 21.1509C4.3031 21.1509 7.37984 23.3186 10.6287 23.5714C13.7431 23.8134 17.6213 21.721 17.6213 21.721C17.6213 21.721 14.8673 23.9264 10.6018 23.7758C6.83119 23.6413 4.3031 21.1509 4.3031 21.1509Z" fill="url(#paint41_linear_192_4352)"/>
<g style="mix-blend-mode:soft-light">
<path d="M21.8653 21.6781C21.9352 21.9201 25.1895 24.9753 25.3401 24.9162C25.4907 24.857 27.3518 24.0448 27.4056 23.7866C27.4594 23.5284 23.8985 20.5485 23.6834 20.5216C23.4682 20.4947 21.7739 21.3822 21.8653 21.6781Z" fill="white"/>
</g>
<path style="mix-blend-mode:multiply" opacity="0.5" d="M21.0585 22.3827C21.0423 22.5333 24.1944 25.9704 24.4149 25.8413C24.6355 25.7069 25.2164 25.1313 25.1303 25.0076C25.0443 24.8839 21.946 21.9309 21.7739 21.8233C21.6071 21.7157 21.08 22.1406 21.0531 22.3827H21.0585Z" fill="url(#paint42_linear_192_4352)"/>
<g style="mix-blend-mode:soft-light">
<path d="M19.9182 24.2921C20.171 24.6417 22.726 27.9659 22.9519 27.7991C23.1832 27.6324 23.7533 26.449 23.6619 26.3038C23.5758 26.1585 20.4076 24.0231 20.2463 23.9478C20.0849 23.8725 19.7998 24.1361 19.9182 24.2921Z" fill="white"/>
</g>
<path d="M25.0228 22.3076C25.0766 22.8509 25.9964 24.1041 26.2761 24.1257C26.5989 24.1526 27.2658 23.9643 27.126 23.62C26.9861 23.2758 24.9744 21.8289 25.0228 22.3022V22.3076Z" fill="white"/>
<g style="mix-blend-mode:soft-light">
<path d="M18.8746 19.0048C19.0145 19.3437 21.2736 21.7534 21.4995 21.6458C21.7254 21.5383 22.9034 20.7745 22.9249 20.6723C22.9465 20.5701 20.3 18.1119 20.1333 18.0635C20.1333 18.0635 19.5631 18.4508 19.3695 18.596C19.2511 18.6874 18.88 19.0048 18.88 19.0048H18.8746Z" fill="white"/>
</g>
<path style="mix-blend-mode:multiply" opacity="0.5" d="M18.6862 19.1768C18.6862 19.1768 18.1967 19.7308 18.2021 19.79C18.2182 19.9675 20.714 22.5655 20.8485 22.4471C20.983 22.3288 21.5209 21.8339 21.3918 21.7425C21.2681 21.6511 18.8153 19.3112 18.6808 19.1768H18.6862Z" fill="url(#paint43_linear_192_4352)"/>
<g style="mix-blend-mode:soft-light">
<path d="M17.5781 20.6883C17.7502 20.9411 19.7727 23.2379 19.8588 23.1949C19.9448 23.1519 18.073 20.1289 17.9062 20.1397C17.8632 20.1397 17.5781 20.6829 17.5781 20.6829V20.6883Z" fill="white"/>
</g>
<path d="M19.8696 23.9693C19.8696 23.9693 20.585 22.8989 21.5585 22.0437C22.5321 21.1884 23.3605 20.5483 23.3605 20.5483C23.3605 20.5483 22.1233 21.1777 21.2466 22.0491C20.3698 22.9258 19.8696 23.9693 19.8696 23.9693Z" fill="#F0CFFF"/>
<g style="mix-blend-mode:soft-light">
<path d="M21.6555 21.6835C21.4134 21.9417 22.3978 21.4146 22.4731 21.0757C22.4731 21.0757 21.8437 21.4737 21.6555 21.6835Z" fill="white"/>
</g>
<path d="M23.2207 27.5358C23.2207 27.5358 23.5111 26.1319 24.7967 25.1422C26.0823 24.1525 27.583 24.0771 27.583 24.0771C27.583 24.0771 26.1522 24.3407 24.9634 25.4488C23.7747 26.5568 23.2261 27.5412 23.2261 27.5412L23.2207 27.5358Z" fill="#F0CFFF"/>
<path d="M21.1392 11.9747C20.725 12.0985 20.4883 14.2715 20.9455 14.2877C21.4027 14.3038 22.5646 11.5498 21.1392 11.9747Z" fill="url(#paint44_linear_192_4352)"/>
<path d="M19.9611 14.2394C19.5147 14.5137 19.7997 15.1914 20.1386 15.1807C20.4775 15.1699 20.9455 13.6369 19.9611 14.2394Z" fill="url(#paint45_linear_192_4352)"/>
<path d="M19.7298 14.648C19.7298 14.648 19.7782 15.4656 20.1601 15.3365C20.542 15.2074 20.5205 14.6104 20.5205 14.6104C20.5205 14.6104 20.456 15.046 20.1225 15.0192C19.789 14.9923 19.7298 14.648 19.7298 14.648Z" fill="#D5ACE8"/>
<path d="M20.698 13.4001C20.698 13.4001 20.6227 14.4382 20.9454 14.4328C21.2681 14.4221 21.7576 12.9321 21.7576 12.9321C21.7576 12.9321 21.295 13.9918 21.0153 14.0725C20.7356 14.1531 20.698 13.4055 20.698 13.4055V13.4001Z" fill="#D5ACE8"/>
<path style="mix-blend-mode:multiply" opacity="0.5" d="M20.8378 13.0449C21.2897 13.4645 21.9029 12.8674 21.8007 12.2273C21.7523 11.9369 21.1982 11.867 21.0476 12.1144C20.9024 12.3618 20.7356 12.9481 20.8325 13.0396L20.8378 13.0449Z" fill="url(#paint46_linear_192_4352)"/>
<path style="mix-blend-mode:multiply" opacity="0.5" d="M19.762 14.4815C19.6329 14.8472 20.5527 14.6267 20.5473 14.304C20.5366 13.9812 19.8804 14.148 19.762 14.4815Z" fill="url(#paint47_linear_192_4352)"/>
<path d="M0.9198 13.8358C0.715401 14.7556 1.03814 15.9551 1.37163 15.7131C1.70512 15.471 2.08165 14.0133 1.83422 13.5346C1.58679 13.0559 1.07579 13.1366 0.9198 13.8305V13.8358Z" fill="url(#paint48_linear_192_4352)"/>
<path d="M0.898269 14.9971C0.898269 14.9971 0.882132 15.9868 1.28017 15.9545C1.68359 15.9276 1.88799 14.3354 1.88799 14.3354C1.88799 14.3354 1.50071 15.6694 1.25866 15.5995C1.01661 15.5296 0.898269 14.9917 0.898269 14.9917V14.9971Z" fill="#F0CFFF"/>
<path style="mix-blend-mode:multiply" opacity="0.5" d="M0.855237 14.3468C0.865995 15.0945 1.94716 14.3038 1.90413 13.7874C1.86109 13.271 0.833722 13.0075 0.855237 14.3468Z" fill="url(#paint49_linear_192_4352)"/>
<path style="mix-blend-mode:multiply" opacity="0.5" d="M20.3376 18.0528C20.3376 18.0528 18.5464 18.6714 17.5621 20.8284L17.4868 20.7531C17.4868 20.7531 17.8956 19.3384 18.8692 18.3702C19.789 17.4504 20.2569 17.9829 20.2569 17.9829L20.3323 18.0528H20.3376Z" fill="url(#paint50_linear_192_4352)"/>
<g style="mix-blend-mode:soft-light">
<path d="M25.7596 21.915C26.2706 21.9419 26.5664 21.4255 26.2222 21.2588C25.8779 21.0921 24.9635 21.1835 25.0549 21.3395C25.1464 21.4955 25.5552 21.9043 25.765 21.915H25.7596Z" fill="white"/>
</g>
<path style="mix-blend-mode:multiply" opacity="0.5" d="M25.894 22.092C26.1468 22.4148 26.448 22.7214 26.604 22.6407C26.7546 22.5654 26.6847 21.5595 26.5341 21.6295C26.3889 21.6994 25.8026 21.9683 25.894 22.092Z" fill="url(#paint51_linear_192_4352)"/>
<path style="mix-blend-mode:multiply" opacity="0.5" d="M10.0854 17.6653C13.7162 17.6922 6.12114 14.3788 7.67565 8.70407C8.39105 6.10605 15.4159 6.82144 16.8467 8.11238C16.8467 8.11238 15.7279 5.2508 12.5651 4.93344C7.56269 4.43858 4.08253 9.0268 3.92654 11.8938C3.77056 14.7607 5.71235 17.6385 10.08 17.6653H10.0854Z" fill="url(#paint52_linear_192_4352)"/>
<path d="M3.33495 5.45022C2.7863 6.5798 4.50755 8.90349 6.07282 7.1392C7.80483 5.18128 4.51831 3.01357 3.33495 5.45022Z" fill="url(#paint53_linear_192_4352)"/>
<path d="M3.78685 5.44481C3.44798 6.12255 3.70079 6.81105 4.31399 7.23061C5.01863 7.71471 5.89001 7.14455 6.18585 6.54749C6.61617 5.69762 5.79857 4.82085 5.29295 4.67562C4.78733 4.53039 4.02352 4.9607 3.78147 5.43943L3.78685 5.44481Z" fill="url(#paint54_linear_192_4352)"/>
<g style="mix-blend-mode:multiply" opacity="0.4">
<path d="M3.66857 6.03612C3.64168 6.1437 3.66857 6.73539 4.1204 7.04736C4.57223 7.35396 4.88959 7.40775 4.92724 7.35934C4.95952 7.31093 4.95952 6.89675 4.938 6.87524C4.91648 6.85372 4.56685 6.6816 4.39473 6.4503C4.2226 6.21363 4.16881 6.13295 4.1204 6.12757C4.07199 6.12757 3.69009 5.9662 3.67395 6.03612H3.66857Z" fill="#B82774"/>
</g>
<g style="mix-blend-mode:soft-light">
<path d="M4.21171 6.10093C4.14717 6.37526 4.93249 6.88626 5.00242 6.8755C5.34129 6.82709 5.75008 6.07942 5.75546 5.83737C5.75546 5.676 5.12613 5.14349 4.92711 5.20803C4.72271 5.27258 4.26012 5.88578 4.21171 6.10093Z" fill="white"/>
</g>
<g style="mix-blend-mode:multiply" opacity="0.8">
<path d="M5.00243 6.87547C4.91099 6.91312 4.94326 7.33806 4.97553 7.34343C5.33054 7.38647 5.69631 7.18745 6.05132 6.72486C6.34178 6.34833 6.31489 5.84272 6.19117 5.68673C6.14814 5.62756 5.75548 5.77279 5.75548 5.83734C5.74472 6.24076 5.30903 6.74637 5.00243 6.87547Z" fill="#B82774"/>
</g>
<path opacity="0.75" d="M3.64153 5.9447C3.64153 6.00925 4.10411 6.15986 4.14176 6.12221C4.20093 6.05766 4.90557 5.22931 4.90557 5.17552C4.90557 5.09483 4.93247 4.69141 4.80875 4.68604C4.7711 4.68604 4.2601 4.83665 3.9535 5.20241C3.6469 5.56818 3.6469 5.86402 3.64153 5.9447Z" fill="white"/>
<path d="M3.78686 5.44421C3.78686 5.44421 4.00739 5.07307 4.3893 4.85791C4.3893 4.85791 4.59908 4.92246 4.43233 5.18602C4.27096 5.44959 3.78148 5.44421 3.78148 5.44421H3.78686Z" fill="white"/>
<path d="M4.76572 6.75134C4.76572 6.75134 4.90019 7.0687 4.94322 7.05794C4.98625 7.04718 5.14224 6.82127 5.12073 6.82127C5.09921 6.82127 4.79261 6.69755 4.76572 6.75134Z" fill="white"/>
<path d="M5.69091 5.70277C5.63174 5.77807 5.68553 6.03626 5.7178 6.04164C5.75008 6.05239 5.90607 5.75655 5.88993 5.74042C5.86841 5.72428 5.7447 5.63284 5.69091 5.70277Z" fill="white"/>
<path d="M4.41077 7.69317C4.41077 7.69317 5.19609 8.02129 6.06747 7.04232C6.76673 6.257 6.50855 5.55774 6.47627 5.47168C6.47627 5.47168 6.91734 6.40761 5.95452 7.30589C5.12616 8.08046 4.41077 7.68779 4.41077 7.68779V7.69317Z" fill="#F0CFFF"/>
<path style="mix-blend-mode:multiply" opacity="0.5" d="M4.12022 7.54238C3.65763 6.95608 3.27035 5.92871 4.07181 5.10035C4.87327 4.272 5.88451 4.87982 6.23414 5.04119C6.23414 5.04119 5.49184 3.81479 3.95347 4.57322C3.26497 4.91209 3.02292 5.91795 3.14664 6.34826C3.36179 7.07442 4.11484 7.54238 4.11484 7.54238H4.12022Z" fill="url(#paint55_linear_192_4352)"/>
<path d="M16.2713 5.47171C15.728 6.60128 17.4439 8.92497 19.0092 7.16069C20.7412 5.20276 17.4547 3.03506 16.2713 5.47171Z" fill="url(#paint56_linear_192_4352)"/>
<path d="M16.7176 5.46043C16.3787 6.13818 16.6315 6.82668 17.2447 7.24623C17.9493 7.73034 18.8207 7.16017 19.1166 6.56311C19.5469 5.71324 18.7293 4.83648 18.2237 4.69125C17.718 4.54601 16.9542 4.97633 16.7122 5.45505L16.7176 5.46043Z" fill="url(#paint57_linear_192_4352)"/>
<g style="mix-blend-mode:multiply" opacity="0.4">
<path d="M16.5993 6.05761C16.5724 6.16519 16.5993 6.75687 17.0511 7.06885C17.5029 7.38082 17.8203 7.42923 17.858 7.38082C17.8902 7.33241 17.8902 6.91824 17.8687 6.89672C17.8472 6.8752 17.4976 6.70308 17.3254 6.47179C17.1533 6.23511 17.0995 6.15443 17.0511 6.14905C17.0027 6.14905 16.6208 5.98768 16.6047 6.05761H16.5993Z" fill="#B82774"/>
</g>
<g style="mix-blend-mode:soft-light">
<path d="M17.1426 6.12193C17.0781 6.39626 17.8634 6.90725 17.9333 6.8965C18.2722 6.84809 18.681 6.10042 18.6864 5.85836C18.6864 5.697 18.0571 5.16448 17.858 5.22903C17.6536 5.29358 17.191 5.90677 17.1426 6.12193Z" fill="white"/>
</g>
<g style="mix-blend-mode:multiply" opacity="0.8">
<path d="M17.9334 6.89693C17.8419 6.93458 17.8742 7.35952 17.9065 7.3649C18.2615 7.40793 18.6272 7.20891 18.9822 6.74632C19.2727 6.3698 19.2458 5.86418 19.1221 5.70819C19.0791 5.64902 18.6864 5.79425 18.6864 5.86418C18.6756 6.2676 18.2399 6.77322 17.9334 6.90231V6.89693Z" fill="#B82774"/>
</g>
<path opacity="0.75" d="M16.5724 5.96082C16.5724 6.02536 17.035 6.17597 17.0727 6.13832C17.1319 6.07377 17.8365 5.24542 17.8365 5.19163C17.8365 5.11095 17.8634 4.70753 17.7397 4.70215C17.702 4.70215 17.191 4.85276 16.8844 5.21852C16.5778 5.58429 16.5778 5.88013 16.5724 5.96082Z" fill="white"/>
<path d="M16.7176 5.46033C16.7176 5.46033 16.9381 5.08918 17.32 4.87402C17.32 4.87402 17.5298 4.93857 17.3631 5.20214C17.1963 5.4657 16.7122 5.46033 16.7122 5.46033H16.7176Z" fill="white"/>
<path d="M17.6966 6.76794C17.6966 6.76794 17.8311 7.0853 17.8741 7.07454C17.9172 7.06379 18.0732 6.83787 18.0516 6.83787C18.0301 6.83787 17.7235 6.71416 17.6966 6.76794Z" fill="white"/>
<path d="M18.6218 5.72425C18.5627 5.79955 18.6165 6.05774 18.6487 6.06312C18.681 6.07388 18.837 5.77804 18.8209 5.7619C18.7993 5.74577 18.6756 5.65432 18.6218 5.72425Z" fill="white"/>
<path d="M17.347 7.71465C17.347 7.71465 18.1969 7.97822 19.0091 7.16062C19.7514 6.41295 19.4448 5.57922 19.4126 5.49854C19.4126 5.49854 19.9612 6.48288 18.9984 7.38116C18.17 8.15572 17.347 7.71465 17.347 7.71465Z" fill="#F0CFFF"/>
<path style="mix-blend-mode:multiply" opacity="0.5" d="M17.0512 7.55841C16.5886 6.97211 16.2013 5.94473 17.0028 5.11638C17.8043 4.28803 18.8155 4.89584 19.1651 5.05721C19.1651 5.05721 17.9549 3.40588 16.5617 4.39022C15.8786 4.86895 15.8087 5.67041 16.0185 6.22982C16.3197 7.04203 17.0566 7.55841 17.0566 7.55841H17.0512Z" fill="url(#paint58_linear_192_4352)"/>
<path d="M15.3568 16.8369C14.8082 17.9665 16.5294 20.2902 18.0947 18.5259C19.8267 16.568 16.5402 14.4003 15.3568 16.8369Z" fill="url(#paint59_linear_192_4352)"/>
<path d="M15.8085 16.8315C15.4696 17.5093 15.7225 18.1978 16.3357 18.6173C17.0403 19.1014 17.9117 18.5313 18.2075 17.9342C18.6378 17.0843 17.8202 16.2076 17.3146 16.0623C16.809 15.9171 16.0452 16.3474 15.8031 16.8261L15.8085 16.8315Z" fill="url(#paint60_linear_192_4352)"/>
<g style="mix-blend-mode:multiply" opacity="0.4">
<path d="M15.6849 17.4233C15.658 17.5309 15.6849 18.1226 16.1367 18.4346C16.5885 18.7412 16.9059 18.795 16.9436 18.7465C16.9758 18.6981 16.9758 18.284 16.9543 18.2624C16.9328 18.2409 16.5832 18.0688 16.411 17.8375C16.2389 17.6062 16.1851 17.5202 16.1367 17.5148C16.0883 17.5148 15.7064 17.3534 15.6903 17.4233H15.6849Z" fill="#B82774"/>
</g>
<g style="mix-blend-mode:soft-light">
<path d="M16.2282 17.4877C16.1637 17.762 16.949 18.273 17.0189 18.2622C17.3578 18.2138 17.7666 17.4661 17.772 17.2241C17.772 17.0627 17.1427 16.5302 16.9436 16.5948C16.7392 16.6593 16.2766 17.2725 16.2282 17.4877Z" fill="white"/>
</g>
<g style="mix-blend-mode:multiply" opacity="0.8">
<path d="M17.0243 18.2627C16.9329 18.3003 16.9651 18.7252 16.9974 18.7306C17.3524 18.7736 17.7182 18.5746 18.0732 18.112C18.3637 17.7355 18.3368 17.2299 18.213 17.0739C18.17 17.0147 17.7774 17.16 17.7774 17.2299C17.7666 17.6333 17.3309 18.1389 17.0243 18.268V18.2627Z" fill="#B82774"/>
</g>
<path opacity="0.75" d="M15.6581 17.3319C15.6581 17.3965 16.1206 17.5471 16.1583 17.5094C16.2175 17.4449 16.9221 16.6165 16.9221 16.5627C16.9221 16.482 16.949 16.0786 16.8253 16.0732C16.7876 16.0732 16.2766 16.2239 15.97 16.5896C15.6634 16.9554 15.6634 17.2512 15.6581 17.3319Z" fill="white"/>
<path d="M15.8085 16.8319C15.8085 16.8319 16.0291 16.4608 16.411 16.2456C16.411 16.2456 16.6208 16.3102 16.454 16.5737C16.2873 16.8373 15.8032 16.8319 15.8032 16.8319H15.8085Z" fill="white"/>
<path d="M16.7876 18.139C16.7876 18.139 16.9221 18.4564 16.9651 18.4456C17.0081 18.4349 17.1641 18.209 17.1426 18.209C17.1211 18.209 16.8145 18.0852 16.7876 18.139Z" fill="white"/>
<path d="M17.7128 17.09C17.6536 17.1653 17.7074 17.4235 17.7397 17.4288C17.772 17.4396 17.9279 17.1438 17.9118 17.1276C17.8903 17.1115 17.7666 17.02 17.7128 17.09Z" fill="white"/>
<path d="M16.4324 19.0799C16.4324 19.0799 17.2823 19.3435 18.0945 18.5259C18.8368 17.7782 18.5302 16.9445 18.498 16.8638C18.498 16.8638 19.0466 17.8481 18.0838 18.7464C17.2554 19.521 16.4324 19.0799 16.4324 19.0799Z" fill="#F0CFFF"/>
<path style="mix-blend-mode:multiply" opacity="0.5" d="M16.1369 18.9241C15.6743 18.3378 15.287 17.3105 16.0884 16.4821C16.8899 15.6537 17.9011 16.2616 18.2508 16.4229C18.2508 16.4229 17.0405 14.7716 15.6474 15.7559C14.9642 16.2347 14.8943 17.0361 15.1041 17.5955C15.4053 18.4078 16.1422 18.9241 16.1422 18.9241H16.1369Z" fill="url(#paint61_linear_192_4352)"/>
<path d="M3.73822 18.3428C3.18957 19.4724 4.91083 21.7961 6.47609 20.0318C8.2081 18.0739 4.92158 15.9062 3.73822 18.3428Z" fill="url(#paint62_linear_192_4352)"/>
<path d="M4.18476 18.3379C3.84588 19.0156 4.09869 19.7041 4.71189 20.1237C5.41653 20.6078 6.28791 20.0376 6.58376 19.4406C7.01407 18.5907 6.19647 17.7139 5.69085 17.5687C5.18524 17.4235 4.42143 17.8538 4.17938 18.3325L4.18476 18.3379Z" fill="url(#paint63_linear_192_4352)"/>
<g style="mix-blend-mode:multiply" opacity="0.4">
<path d="M4.06648 18.9297C4.03958 19.0373 4.06648 19.6289 4.51831 19.9409C4.97014 20.2475 5.28749 20.3013 5.32515 20.2529C5.35742 20.2045 5.35742 19.7903 5.3359 19.7688C5.31439 19.7473 4.96476 19.5752 4.79263 19.3439C4.62051 19.1072 4.56672 19.0265 4.51831 19.0211C4.4699 19.0211 4.08799 18.8598 4.07186 18.9297H4.06648Z" fill="#B82774"/>
</g>
<g style="mix-blend-mode:soft-light">
<path d="M4.60963 18.994C4.54509 19.2683 5.33041 19.7793 5.40033 19.7686C5.73921 19.7202 6.148 18.9725 6.15338 18.7304C6.15338 18.5691 5.52405 18.0366 5.32503 18.1011C5.12063 18.1656 4.65804 18.7788 4.60963 18.994Z" fill="white"/>
</g>
<g style="mix-blend-mode:multiply" opacity="0.8">
<path d="M5.40033 19.7685C5.30889 19.8062 5.34116 20.2311 5.37344 20.2365C5.72845 20.2795 6.09421 20.0805 6.44922 19.6179C6.73968 19.2414 6.71279 18.7358 6.58907 18.5798C6.54604 18.5206 6.15338 18.6659 6.15338 18.7304C6.14262 19.1338 5.70693 19.6394 5.40033 19.7685Z" fill="#B82774"/>
</g>
<path opacity="0.75" d="M4.03944 18.8378C4.03944 18.9023 4.50203 19.0529 4.53968 19.0153C4.59885 18.9507 5.30349 18.1224 5.30349 18.0686C5.30349 17.9879 5.33038 17.5845 5.20667 17.5791C5.16902 17.5791 4.65802 17.7297 4.35142 18.0955C4.04482 18.4612 4.04482 18.7571 4.03944 18.8378Z" fill="white"/>
<path d="M4.18478 18.3378C4.18478 18.3378 4.40531 17.9666 4.78722 17.7515C4.78722 17.7515 4.99699 17.816 4.83025 18.0796C4.6635 18.3431 4.1794 18.3378 4.1794 18.3378H4.18478Z" fill="white"/>
<path d="M5.16362 19.6449C5.16362 19.6449 5.29809 19.9623 5.34112 19.9515C5.38416 19.9407 5.54014 19.7148 5.51863 19.7148C5.49711 19.7148 5.19051 19.5911 5.16362 19.6449Z" fill="white"/>
<path d="M6.09418 18.5958C6.03502 18.6711 6.08881 18.9293 6.12108 18.9347C6.15335 18.9455 6.30934 18.6496 6.2932 18.6335C6.27169 18.6173 6.14797 18.5259 6.09418 18.5958Z" fill="white"/>
<path d="M4.81404 20.5857C4.81404 20.5857 5.66391 20.8493 6.47613 20.0317C7.21842 19.284 6.91182 18.4503 6.87955 18.3696C6.87955 18.3696 7.4282 19.354 6.46537 20.2523C5.63702 21.0268 4.81404 20.5857 4.81404 20.5857Z" fill="#F0CFFF"/>
<path style="mix-blend-mode:multiply" opacity="0.5" d="M4.51821 20.43C4.05563 19.8437 3.66834 18.8163 4.4698 17.988C5.27126 17.1596 6.2825 17.7674 6.63213 17.9288C6.63213 17.9288 5.42187 16.2775 4.02873 17.2618C3.34561 17.7405 3.27568 18.542 3.48546 19.1014C3.78668 19.9136 4.51821 20.43 4.51821 20.43Z" fill="url(#paint64_linear_192_4352)"/>
<path style="mix-blend-mode:color-dodge" opacity="0.6" d="M10.86 14.3518C14.3298 14.3518 17.1426 11.539 17.1426 8.0692C17.1426 4.59943 14.3298 1.78662 10.86 1.78662C7.39024 1.78662 4.57744 4.59943 4.57744 8.0692C4.57744 11.539 7.39024 14.3518 10.86 14.3518Z" fill="url(#paint65_radial_192_4352)"/>
<defs>
<radialGradient id="paint0_radial_192_4352" cx="0" cy="0" r="1" gradientUnits="userSpaceOnUse" gradientTransform="translate(10.7113 11.6283) rotate(-45) scale(7.39064)">
<stop stop-color="#F07FD8"/>
<stop offset="0.13" stop-color="#E97DD7"/>
<stop offset="0.32" stop-color="#D678D7"/>
<stop offset="0.55" stop-color="#B771D7"/>
<stop offset="0.8" stop-color="#8D67D6"/>
<stop offset="1" stop-color="#655ED6"/>
</radialGradient>
<linearGradient id="paint1_linear_192_4352" x1="8.04134" y1="8.24339" x2="13.7199" y2="14.2871" gradientUnits="userSpaceOnUse">
<stop stop-color="#705AB5"/>
<stop offset="1" stop-color="#662D87"/>
</linearGradient>
<linearGradient id="paint2_linear_192_4352" x1="15.1471" y1="14.4732" x2="9.39601" y2="7.45417" gradientUnits="userSpaceOnUse">
<stop stop-color="#FF7A00"/>
<stop offset="0.56" stop-color="#EB0029"/>
<stop offset="1" stop-color="#A1002C"/>
</linearGradient>
<linearGradient id="paint3_linear_192_4352" x1="14.9549" y1="14.4083" x2="11.6106" y2="10.3267" gradientUnits="userSpaceOnUse">
<stop stop-color="#FF7A00"/>
<stop offset="0.56" stop-color="#EB0029"/>
<stop offset="1" stop-color="#A1002C"/>
</linearGradient>
<linearGradient id="paint4_linear_192_4352" x1="14.9315" y1="11.7159" x2="17.7825" y2="9.37991" gradientUnits="userSpaceOnUse">
<stop offset="0.02" stop-color="#FF2CFE"/>
<stop offset="1"/>
</linearGradient>
<linearGradient id="paint5_linear_192_4352" x1="7.06816" y1="13.2632" x2="9.66927" y2="11.132" gradientUnits="userSpaceOnUse">
<stop offset="0.01" stop-color="#FF86A4"/>
<stop offset="0.76"/>
</linearGradient>
<linearGradient id="paint6_linear_192_4352" x1="15.1423" y1="14.4982" x2="12.248" y2="10.9658" gradientUnits="userSpaceOnUse">
<stop offset="0.02" stop-color="#FF1400"/>
<stop offset="1"/>
</linearGradient>
<linearGradient id="paint7_linear_192_4352" x1="12.6858" y1="16.2879" x2="11.3017" y2="14.5987" gradientUnits="userSpaceOnUse">
<stop offset="0.02" stop-color="#FF2CFE"/>
<stop offset="1"/>
</linearGradient>
<linearGradient id="paint8_linear_192_4352" x1="15.2473" y1="14.3635" x2="14.4087" y2="13.34" gradientUnits="userSpaceOnUse">
<stop offset="0.02" stop-color="#FF2CFE"/>
<stop offset="1"/>
</linearGradient>
<linearGradient id="paint9_linear_192_4352" x1="11.5094" y1="13.5316" x2="10.8821" y2="12.7661" gradientUnits="userSpaceOnUse">
<stop stop-color="#FF134B"/>
<stop offset="1" stop-color="#97003B"/>
</linearGradient>
<linearGradient id="paint10_linear_192_4352" x1="5.45503" y1="13.9177" x2="13.6629" y2="5.70985" gradientUnits="userSpaceOnUse">
<stop stop-color="white"/>
<stop offset="0.44" stop-color="#881DED"/>
<stop offset="1" stop-color="#262262"/>
</linearGradient>
<linearGradient id="paint11_linear_192_4352" x1="2.24124" y1="21.491" x2="3.72079" y2="20.0115" gradientUnits="userSpaceOnUse">
<stop stop-color="#481E52"/>
<stop offset="1" stop-color="#66115E"/>
</linearGradient>
<linearGradient id="paint12_linear_192_4352" x1="6.53179" y1="24.2801" x2="0.200044" y2="18.2777" gradientUnits="userSpaceOnUse">
<stop stop-color="#655ED6"/>
<stop offset="1" stop-color="#F07FD8"/>
</linearGradient>
<linearGradient id="paint13_linear_192_4352" x1="3.39358" y1="23.5638" x2="5.08993" y2="21.8675" gradientUnits="userSpaceOnUse">
<stop stop-color="white"/>
<stop offset="0.44" stop-color="#881DED"/>
<stop offset="1" stop-color="#262262"/>
</linearGradient>
<linearGradient id="paint14_linear_192_4352" x1="19.0488" y1="4.65244" x2="20.5702" y2="3.13105" gradientUnits="userSpaceOnUse">
<stop stop-color="#481E52"/>
<stop offset="1" stop-color="#66115E"/>
</linearGradient>
<linearGradient id="paint15_linear_192_4352" x1="23.2881" y1="7.27061" x2="17.4265" y2="0.808404" gradientUnits="userSpaceOnUse">
<stop stop-color="#655ED6"/>
<stop offset="1" stop-color="#F07FD8"/>
</linearGradient>
<linearGradient id="paint16_linear_192_4352" x1="20.9163" y1="6.03286" x2="22.6317" y2="4.31749" gradientUnits="userSpaceOnUse">
<stop stop-color="white"/>
<stop offset="0.44" stop-color="#881DED"/>
<stop offset="1" stop-color="#262262"/>
</linearGradient>
<linearGradient id="paint17_linear_192_4352" x1="1.45388" y1="6.10581" x2="5.45893" y2="2.10076" gradientUnits="userSpaceOnUse">
<stop stop-color="#481E52"/>
<stop offset="1" stop-color="#66115E"/>
</linearGradient>
<linearGradient id="paint18_linear_192_4352" x1="-0.0219187" y1="7.39893" x2="6.14731" y2="1.2297" gradientUnits="userSpaceOnUse">
<stop stop-color="#655ED6"/>
<stop offset="1" stop-color="#F07FD8"/>
</linearGradient>
<linearGradient id="paint19_linear_192_4352" x1="19.9538" y1="20.9162" x2="5.95701" y2="6.91945" gradientUnits="userSpaceOnUse">
<stop stop-color="#6544CF"/>
<stop offset="0.49" stop-color="#993EC7"/>
<stop offset="1" stop-color="#662D87"/>
</linearGradient>
<linearGradient id="paint20_linear_192_4352" x1="3.18443" y1="19.604" x2="18.8433" y2="3.94514" gradientUnits="userSpaceOnUse">
<stop stop-color="#655ED6"/>
<stop offset="1" stop-color="#F07FD8"/>
</linearGradient>
<linearGradient id="paint21_linear_192_4352" x1="7.20469" y1="23.1298" x2="20.8211" y2="9.51333" gradientUnits="userSpaceOnUse">
<stop stop-color="white"/>
<stop offset="0.44" stop-color="#881DED"/>
<stop offset="1" stop-color="#262262"/>
</linearGradient>
<linearGradient id="paint22_linear_192_4352" x1="3.55329" y1="13.5832" x2="5.73648" y2="11.4" gradientUnits="userSpaceOnUse">
<stop stop-color="white"/>
<stop offset="0.44" stop-color="#881DED"/>
<stop offset="1" stop-color="#262262"/>
</linearGradient>
<linearGradient id="paint23_linear_192_4352" x1="8.45987" y1="8.04559" x2="12.0503" y2="4.45512" gradientUnits="userSpaceOnUse">
<stop stop-color="white"/>
<stop offset="0.44" stop-color="#881DED"/>
<stop offset="1" stop-color="#262262"/>
</linearGradient>
<linearGradient id="paint24_linear_192_4352" x1="0.411725" y1="6.41004" x2="2.5797" y2="4.24206" gradientUnits="userSpaceOnUse">
<stop stop-color="white"/>
<stop offset="0.44" stop-color="#881DED"/>
<stop offset="1" stop-color="#262262"/>
</linearGradient>
<linearGradient id="paint25_linear_192_4352" x1="-2.05673" y1="12.3091" x2="4.21519" y2="6.03713" gradientUnits="userSpaceOnUse">
<stop stop-color="white"/>
<stop offset="0.44" stop-color="#881DED"/>
<stop offset="1" stop-color="#262262"/>
</linearGradient>
<linearGradient id="paint26_linear_192_4352" x1="17.4931" y1="20.7756" x2="22.3425" y2="15.9261" gradientUnits="userSpaceOnUse">
<stop stop-color="white"/>
<stop offset="0.44" stop-color="#881DED"/>
<stop offset="1" stop-color="#262262"/>
</linearGradient>
<linearGradient id="paint27_linear_192_4352" x1="20.901" y1="26.762" x2="21.715" y2="25.9481" gradientUnits="userSpaceOnUse">
<stop stop-color="#655ED6"/>
<stop offset="1" stop-color="#F07FD8"/>
</linearGradient>
<linearGradient id="paint28_linear_192_4352" x1="22.5822" y1="32.6501" x2="19.8475" y2="29.3297" gradientUnits="userSpaceOnUse">
<stop stop-color="#6544CF"/>
<stop offset="0.49" stop-color="#993EC7"/>
<stop offset="1" stop-color="#662D87"/>
</linearGradient>
<radialGradient id="paint29_radial_192_4352" cx="0" cy="0" r="1" gradientUnits="userSpaceOnUse" gradientTransform="translate(18.4972 28.5802) rotate(-45) scale(2.91)">
<stop stop-color="#F07FD8"/>
<stop offset="0.13" stop-color="#E97DD7"/>
<stop offset="0.32" stop-color="#D678D7"/>
<stop offset="0.55" stop-color="#B771D7"/>
<stop offset="0.8" stop-color="#8D67D6"/>
<stop offset="1" stop-color="#655ED6"/>
</radialGradient>
<linearGradient id="paint30_linear_192_4352" x1="18.4173" y1="32.4868" x2="18.6036" y2="32.3004" gradientUnits="userSpaceOnUse">
<stop stop-color="white"/>
<stop offset="0.44" stop-color="#881DED"/>
<stop offset="1" stop-color="#262262"/>
</linearGradient>
<linearGradient id="paint31_linear_192_4352" x1="15.5724" y1="29.3601" x2="16.1391" y2="28.7934" gradientUnits="userSpaceOnUse">
<stop stop-color="white"/>
<stop offset="0.44" stop-color="#881DED"/>
<stop offset="1" stop-color="#262262"/>
</linearGradient>
<linearGradient id="paint32_linear_192_4352" x1="16.8085" y1="29.5693" x2="18.6684" y2="27.7094" gradientUnits="userSpaceOnUse">
<stop stop-color="white"/>
<stop offset="0.44" stop-color="#881DED"/>
<stop offset="1" stop-color="#262262"/>
</linearGradient>
<linearGradient id="paint33_linear_192_4352" x1="20.0185" y1="23.7424" x2="23.2287" y2="20.5323" gradientUnits="userSpaceOnUse">
<stop stop-color="#655ED6"/>
<stop offset="1" stop-color="#F07FD8"/>
</linearGradient>
<linearGradient id="paint34_linear_192_4352" x1="21.3004" y1="26.5678" x2="25.9558" y2="21.9124" gradientUnits="userSpaceOnUse">
<stop stop-color="#655ED6"/>
<stop offset="1" stop-color="#F07FD8"/>
</linearGradient>
<linearGradient id="paint35_linear_192_4352" x1="23.632" y1="28.8393" x2="27.8576" y2="23.8757" gradientUnits="userSpaceOnUse">
<stop stop-color="#6544CF"/>
<stop offset="0.49" stop-color="#993EC7"/>
<stop offset="1" stop-color="#662D87"/>
</linearGradient>
<linearGradient id="paint36_linear_192_4352" x1="24.21" y1="27.926" x2="27.8765" y2="24.2594" gradientUnits="userSpaceOnUse">
<stop stop-color="white"/>
<stop offset="0.44" stop-color="#881DED"/>
<stop offset="1" stop-color="#262262"/>
</linearGradient>
<linearGradient id="paint37_linear_192_4352" x1="18.3983" y1="29.8662" x2="21.772" y2="26.4925" gradientUnits="userSpaceOnUse">
<stop stop-color="white"/>
<stop offset="0.44" stop-color="#881DED"/>
<stop offset="1" stop-color="#262262"/>
</linearGradient>
<radialGradient id="paint38_radial_192_4352" cx="0" cy="0" r="1" gradientUnits="userSpaceOnUse" gradientTransform="translate(26.1079 21.7764) rotate(-45) scale(0.973584)">
<stop stop-color="#F07FD8"/>
<stop offset="0.13" stop-color="#E97DD7"/>
<stop offset="0.32" stop-color="#D678D7"/>
<stop offset="0.55" stop-color="#B771D7"/>
<stop offset="0.8" stop-color="#8D67D6"/>
<stop offset="1" stop-color="#655ED6"/>
</radialGradient>
<linearGradient id="paint39_linear_192_4352" x1="11.6433" y1="24.1532" x2="15.3326" y2="20.4638" gradientUnits="userSpaceOnUse">
<stop stop-color="white"/>
<stop offset="0.44" stop-color="#881DED"/>
<stop offset="1" stop-color="#262262"/>
</linearGradient>
<linearGradient id="paint40_linear_192_4352" x1="19.4252" y1="17.1094" x2="23.301" y2="13.2337" gradientUnits="userSpaceOnUse">
<stop stop-color="white"/>
<stop offset="0.44" stop-color="#881DED"/>
<stop offset="1" stop-color="#262262"/>
</linearGradient>
<linearGradient id="paint41_linear_192_4352" x1="7.76" y1="24.6284" x2="14.1346" y2="18.2538" gradientUnits="userSpaceOnUse">
<stop stop-color="white"/>
<stop offset="0.44" stop-color="#881DED"/>
<stop offset="1" stop-color="#262262"/>
</linearGradient>
<linearGradient id="paint42_linear_192_4352" x1="22.5974" y1="24.2062" x2="23.457" y2="23.3466" gradientUnits="userSpaceOnUse">
<stop stop-color="white"/>
<stop offset="0.44" stop-color="#881DED"/>
<stop offset="1" stop-color="#262262"/>
</linearGradient>
<linearGradient id="paint43_linear_192_4352" x1="19.3985" y1="21.1748" x2="20.1021" y2="20.4711" gradientUnits="userSpaceOnUse">
<stop stop-color="white"/>
<stop offset="0.44" stop-color="#881DED"/>
<stop offset="1" stop-color="#262262"/>
</linearGradient>
<linearGradient id="paint44_linear_192_4352" x1="20.3876" y1="13.804" x2="21.9165" y2="12.275" gradientUnits="userSpaceOnUse">
<stop stop-color="#481E52"/>
<stop offset="1" stop-color="#66115E"/>
</linearGradient>
<linearGradient id="paint45_linear_192_4352" x1="19.7865" y1="14.9832" x2="20.5358" y2="14.2339" gradientUnits="userSpaceOnUse">
<stop stop-color="#481E52"/>
<stop offset="1" stop-color="#66115E"/>
</linearGradient>
<linearGradient id="paint46_linear_192_4352" x1="20.8097" y1="13.0393" x2="21.7301" y2="12.1189" gradientUnits="userSpaceOnUse">
<stop stop-color="white"/>
<stop offset="0.44" stop-color="#881DED"/>
<stop offset="1" stop-color="#262262"/>
</linearGradient>
<linearGradient id="paint47_linear_192_4352" x1="19.8397" y1="14.7094" x2="20.4179" y2="14.1313" gradientUnits="userSpaceOnUse">
<stop stop-color="white"/>
<stop offset="0.44" stop-color="#881DED"/>
<stop offset="1" stop-color="#262262"/>
</linearGradient>
<linearGradient id="paint48_linear_192_4352" x1="0.620921" y1="15.1694" x2="2.05863" y2="13.7317" gradientUnits="userSpaceOnUse">
<stop stop-color="#481E52"/>
<stop offset="1" stop-color="#66115E"/>
</linearGradient>
<linearGradient id="paint49_linear_192_4352" x1="0.799669" y1="14.481" x2="1.75814" y2="13.5225" gradientUnits="userSpaceOnUse">
<stop stop-color="white"/>
<stop offset="0.44" stop-color="#881DED"/>
<stop offset="1" stop-color="#262262"/>
</linearGradient>
<linearGradient id="paint50_linear_192_4352" x1="17.261" y1="20.5437" x2="20.0338" y2="17.7709" gradientUnits="userSpaceOnUse">
<stop stop-color="white"/>
<stop offset="0.44" stop-color="#881DED"/>
<stop offset="1" stop-color="#262262"/>
</linearGradient>
<linearGradient id="paint51_linear_192_4352" x1="26.1535" y1="22.4146" x2="26.7392" y2="21.8289" gradientUnits="userSpaceOnUse">
<stop stop-color="white"/>
<stop offset="0.44" stop-color="#881DED"/>
<stop offset="1" stop-color="#262262"/>
</linearGradient>
<linearGradient id="paint52_linear_192_4352" x1="5.23446" y1="15.7891" x2="15.1387" y2="5.88489" gradientUnits="userSpaceOnUse">
<stop stop-color="white"/>
<stop offset="0.44" stop-color="#881DED"/>
<stop offset="1" stop-color="#262262"/>
</linearGradient>
<linearGradient id="paint53_linear_192_4352" x1="6.02947" y1="7.18227" x2="3.71696" y2="4.86976" gradientUnits="userSpaceOnUse">
<stop stop-color="#705AB5"/>
<stop offset="1" stop-color="#662D87"/>
</linearGradient>
<linearGradient id="paint54_linear_192_4352" x1="5.866" y1="6.96544" x2="4.02131" y2="5.12075" gradientUnits="userSpaceOnUse">
<stop stop-color="#DE0086"/>
<stop offset="1" stop-color="#FF003B"/>
</linearGradient>
<linearGradient id="paint55_linear_192_4352" x1="3.25669" y1="6.78267" x2="5.62625" y2="4.41311" gradientUnits="userSpaceOnUse">
<stop stop-color="white"/>
<stop offset="0.44" stop-color="#881DED"/>
<stop offset="1" stop-color="#262262"/>
</linearGradient>
<linearGradient id="paint56_linear_192_4352" x1="16.9341" y1="5.10175" x2="19.0108" y2="7.33819" gradientUnits="userSpaceOnUse">
<stop stop-color="#705AB5"/>
<stop offset="1" stop-color="#662D87"/>
</linearGradient>
<linearGradient id="paint57_linear_192_4352" x1="18.8014" y1="6.98394" x2="16.9529" y2="5.13546" gradientUnits="userSpaceOnUse">
<stop stop-color="#DE0086"/>
<stop offset="1" stop-color="#FF003B"/>
</linearGradient>
<linearGradient id="paint58_linear_192_4352" x1="16.0897" y1="6.66085" x2="18.4326" y2="4.31791" gradientUnits="userSpaceOnUse">
<stop stop-color="white"/>
<stop offset="0.44" stop-color="#881DED"/>
<stop offset="1" stop-color="#262262"/>
</linearGradient>
<linearGradient id="paint59_linear_192_4352" x1="16.0212" y1="16.4661" x2="18.0979" y2="18.7025" gradientUnits="userSpaceOnUse">
<stop stop-color="#705AB5"/>
<stop offset="1" stop-color="#662D87"/>
</linearGradient>
<linearGradient id="paint60_linear_192_4352" x1="17.8885" y1="18.3488" x2="16.0439" y2="16.5041" gradientUnits="userSpaceOnUse">
<stop stop-color="#DE0086"/>
<stop offset="1" stop-color="#FF003B"/>
</linearGradient>
<linearGradient id="paint61_linear_192_4352" x1="15.1769" y1="18.0333" x2="17.5236" y2="15.6865" gradientUnits="userSpaceOnUse">
<stop stop-color="white"/>
<stop offset="0.44" stop-color="#881DED"/>
<stop offset="1" stop-color="#262262"/>
</linearGradient>
<linearGradient id="paint62_linear_192_4352" x1="4.40524" y1="17.972" x2="6.47813" y2="20.2123" gradientUnits="userSpaceOnUse">
<stop stop-color="#705AB5"/>
<stop offset="1" stop-color="#662D87"/>
</linearGradient>
<linearGradient id="paint63_linear_192_4352" x1="6.26522" y1="19.8552" x2="4.42054" y2="18.0105" gradientUnits="userSpaceOnUse">
<stop stop-color="#DE0086"/>
<stop offset="1" stop-color="#FF003B"/>
</linearGradient>
<linearGradient id="paint64_linear_192_4352" x1="3.55712" y1="19.5354" x2="5.90386" y2="17.1887" gradientUnits="userSpaceOnUse">
<stop stop-color="white"/>
<stop offset="0.44" stop-color="#881DED"/>
<stop offset="1" stop-color="#262262"/>
</linearGradient>
<radialGradient id="paint65_radial_192_4352" cx="0" cy="0" r="1" gradientUnits="userSpaceOnUse" gradientTransform="translate(10.8446 8.07173) rotate(-45) scale(6.28258)">
<stop stop-color="#27A0D7"/>
<stop offset="0.1" stop-color="#2495C9"/>
<stop offset="0.3" stop-color="#1E7BA5"/>
<stop offset="0.57" stop-color="#13506B"/>
<stop offset="0.89" stop-color="#05151C"/>
<stop offset="1"/>
</radialGradient>
</defs>
</svg>
